<svg xmlns="http://www.w3.org/2000/svg" viewBox="0 0 420 380" fill="none">
  <title>An unshaved yak</title>
  <g stroke="#c5cad5" stroke-width="2" stroke-linecap="round" stroke-linejoin="round">
    <!-- Horns and ears peek through the shaggy fringe. -->
    <path d="M100 101C47 105 26 73 48 26C31 39 23 59 27 79C32 102 49 113 78 116M91 105C55 99 32 78 42 43M175 103C204 115 230 94 227 55C245 93 229 128 189 127M192 119C216 119 233 101 232 81"/>
    <path d="M78 115C57 119 45 132 36 146L51 140L47 146L65 139L63 145L77 140M186 124C201 132 207 145 209 160L194 153L196 158L183 148"/>
    <!-- A loose, uneven silhouette keeps the illustration feeling hand drawn. -->
    <path d="M70 185C60 167 68 140 83 114L72 122L95 93L83 98L111 80L98 81C109 67 127 61 142 73L146 66L143 80C153 65 164 64 176 65L162 78L182 77L169 87C184 85 198 94 201 106L188 101L196 118L187 112L189 139L181 128L183 153L172 143L167 135L165 145L153 132L151 141L144 136L136 117L128 142C119 130 116 115 121 103"/>
    <path d="M104 104L84 125L99 113L82 141M181 147C181 167 171 180 159 191L160 180L150 193M70 178C69 193 84 201 109 203C133 208 157 200 160 186C164 171 146 158 119 157C90 155 73 164 70 178Z"/>
    <path d="M105 201C111 213 109 225 101 241L111 233L101 263L117 252C109 276 114 295 122 310L127 296L131 315L144 333L145 316L157 337L161 314L177 337L178 322L192 346L198 331L207 342L208 319L219 336L236 347L235 319L246 336L249 310L254 325C265 297 270 267 266 238"/>
    <path d="M156 201C165 219 151 226 146 244M179 178C173 200 174 225 184 249M193 145C220 147 237 166 261 172C290 179 305 171 329 190C352 207 365 225 374 250C384 278 378 302 368 323L367 308L357 336L354 325L341 347L339 331L324 351L320 328L307 345L302 319L292 332L284 304L277 320L267 295"/>
    <path d="M352 208C370 222 386 246 394 274C380 264 375 253 370 243M362 216C378 234 385 251 389 265"/>
    <!-- Hooves and a few fine hatch marks echo the chalk sketch. -->
    <path d="M145 330L136 353L162 352L162 328M197 341L190 363L215 362L218 335M325 344L318 372L348 371L351 336"/>
    <path d="M140 350L150 340M146 351L157 339M153 350L159 345M194 359L205 347M201 360L212 347M208 359L214 352M322 369L335 352M329 368L342 352M336 369L346 358"/>
    <path d="M81 162L85 153M74 173L77 163M123 267C125 287 133 302 141 315M191 281C194 303 200 315 208 327M269 259C271 276 269 290 265 301M373 262C376 279 373 292 370 300"/>
    <path d="M31 335L41 354M49 341L45 352M57 345L52 355M282 349L275 366M291 354L285 363M386 358L377 371M399 362L390 372"/>
  </g>
  <g fill="#c5cad5">
    <ellipse cx="90" cy="139" rx="3.5" ry="7" transform="rotate(21 90 139)"/>
    <ellipse cx="147" cy="149" rx="3.5" ry="7" transform="rotate(21 147 149)"/>
    <ellipse cx="89" cy="177" rx="2.5" ry="5" transform="rotate(-32 89 177)"/>
    <ellipse cx="136" cy="185" rx="2.5" ry="5" transform="rotate(48 136 185)"/>
  </g>
  <g stroke="#c5cad5" stroke-width=".8" opacity=".55" stroke-linecap="round">
    <path d="M29 62L35 52M28 76L33 66M32 87L38 78M38 97L43 88M49 104L53 96M62 110L67 103M220 112L225 104M232 97L237 89M236 81L233 73M79 91L103 78M100 69L114 65M152 73L165 68M186 94L195 99M68 172L65 187M75 193L88 200M104 206L122 208M135 202L149 199M176 203L178 220M200 148L220 155M243 169L257 175M281 175L300 178M323 186L337 199M349 209L360 224M380 250L384 272M375 291L370 309M302 322L309 341M240 329L235 342M178 321L188 335M129 311L136 325"/>
  </g>
</svg>
