<?xml version="1.0" encoding="utf-8"?><svg version="1.1" id="Layer_1" xmlns="http://www.w3.org/2000/svg" xmlns:xlink="http://www.w3.org/1999/xlink" x="0px" y="0px" viewBox="0 0 122.88 122.88" style="enable-background:new 0 0 122.88 122.88" xml:space="preserve"><style type="text/css"><![CDATA[
	.st0{fill-rule:evenodd;clip-rule:evenodd;fill:#A1E367;}
	.st1{fill-rule:evenodd;clip-rule:evenodd;fill:#2394E0;}
]]></style><g><path class="st1" d="M61.44,0c33.93,0,61.44,27.51,61.44,61.44c0,33.93-27.51,61.44-61.44,61.44C27.51,122.88,0,95.37,0,61.44 C0,27.51,27.51,0,61.44,0L61.44,0L61.44,0z"/><path class="st0" d="M11.76,93.18c-3.62-5.49-6.33-11.64-7.92-18.23l10.82,5.22l0.06,3.23c0,1.19-2.02,3.71-2.67,4.67L11.76,93.18 L11.76,93.18L11.76,93.18z M78.31,6.5c20.62,6.85,36.09,25,39.07,47.1l-1.95-0.21c-0.35,1.5-0.67,1.53-0.67,3.33c0,1.59,2,2.65,2,6 c0,0.9-2.11,2.69-2.2,3.01l-3.13-3.67v4.67l-0.47-0.02l-0.84-8.62l-1.75,0.55l-2.08-6.41l-6.85,7.16l-0.08,5.24l-2.24,1.5 l-2.38-13.44l-1.42,1.04l-3.22-4.35l-4.81,0.14l-1.84-2.11l-1.89,0.52l-3.71-4.25l-0.72,0.49l2.3,5.88h2.67v-1.33l1.33,0 c0.96,2.66,2,1.08,2,2.67c0,5.55-6.85,9.63-11.34,10.67c0.24,1,0.15,2,1.33,2c2.51,0,1.26-0.44,4-0.67 c-0.13,5.67-6.5,12.44-9.22,16.65l1.22,8.69c0.32,1.89-3.92,3.88-5.36,6.01l0.69,3.33l-1.95,0.79c-0.34,3.42-3.66,7.21-7.39,7.21 h-4c0-4.68-3.34-11.37-3.34-14.68c0-2.81,1.33-3.19,1.33-6.67c0-3.22-3.33-7.83-3.33-8.67v-5.34H45.4c-0.4-1.49-0.15-2-2-2h-0.67 c-2.91,0-2.42,1.33-5.34,1.33h-2.67c-2.41,0-6.67-7.72-6.67-8.67v-8c0-3.45,3.16-7.21,5.34-8.67v-3.33l3-3.05l1.67-0.28 c3.58,0,3.15-2,5.34-2l6,0v4.67l6.6,2.82l0.62-2.85c2.99,0.7,3.77,2.03,7.45,2.03h1.33c2.53,0,2.67-3.36,2.67-6l-5.34,0.53 l-2.33-5.06l-2.31,0.61c0.42,1.81,0.64,1.06,0.64,2.59c0,0.9-0.74,1-1.34,1.33l-2.31-5.86l-4.97-3.55l-0.66,0.65l4.23,4.45 c-0.56,1.6-0.63,6.21-2.96,2.98l2.18-1.05l-5.44-5.7l-3.26,1.27l-3.22,3.08c-0.34,2.48-1.01,3.73-3.61,3.73 c-1.73,0-0.69-0.45-3.34-0.67v-6.67h6l-1.95-4.44l-0.72,0.44v-1.34l9.75-4.49c-0.18-1.4-0.41-0.65-0.41-2.18 c0-0.09,0.65-1.32,0.67-1.34l2.52,1.57l-0.6-2.87l-3.89,0.8l-0.72-3.49c3.08-1.62,9.87-7.34,12.03-7.34l2,0 c2.11,0,7.75,2.08,8.67,3.33l-5.35-0.54l3.97,3.27l0.38-1.4l2.96-0.81l0.04-1.85h1.34v2L78.31,6.5L78.31,6.5L78.31,6.5z"/></g></svg>