<svg version="1.1" xmlns="http://www.w3.org/2000/svg" style="display: block;" viewBox="0 0 2048 2048" width="1024" height="1024">
<path transform="translate(0,0)" fill="rgb(250,243,234)" d="M 0 0 L 2048 0 L 2048 2048 L 0 2048 L 0 0 z"/>
<path transform="translate(0,0)" fill="rgb(166,163,150)" d="M 1566.75 1800.25 C 1639.49 1828.93 1744.07 1822.56 1818.51 1801.57 C 1830.44 1798.2 1842.52 1793.9 1853.93 1789.08 C 1860.44 1786.33 1868.44 1780.78 1875.17 1779.5 C 1875.61 1779.42 1876.06 1779.35 1876.5 1779.28 L 1875.19 1785.54 C 1874.42 1790.7 1874.14 1798.98 1871.76 1803.47 C 1853.95 1812.77 1835.48 1822.22 1816.96 1829.99 C 1737.11 1863.51 1634.1 1887.4 1547.52 1874.12 C 1552.75 1856.28 1561.92 1821.59 1563.96 1803.98 L 1566.75 1800.25 z"/>
<path transform="translate(0,0)" fill="rgb(250,243,234)" d="M 1566.75 1800.25 C 1639.49 1828.93 1744.07 1822.56 1818.51 1801.57 C 1830.44 1798.2 1842.52 1793.9 1853.93 1789.08 C 1860.44 1786.33 1868.44 1780.78 1875.17 1779.5 C 1875.61 1779.42 1876.06 1779.35 1876.5 1779.28 L 1875.19 1785.54 C 1802.64 1820.34 1720.34 1830.48 1640.75 1822.43 C 1618.7 1820.2 1595.21 1816.89 1574.26 1809.52 C 1570.63 1808.24 1566.46 1807.05 1563.96 1803.98 L 1566.75 1800.25 z"/>
<path transform="translate(0,0)" fill="rgb(166,163,150)" d="M 1634.79 1729.83 C 1635.99 1730.48 1637.19 1731.12 1638.48 1731.58 C 1650.09 1735.69 1665.62 1735.51 1677.91 1735.89 C 1755.17 1738.26 1821.13 1715.92 1890.64 1684.92 L 1889.49 1691.18 A 1336.85 1336.85 0 0 1 1880.6 1754.9 C 1879.34 1762.77 1878.66 1771.68 1876.5 1779.28 C 1876.06 1779.35 1875.61 1779.42 1875.17 1779.5 C 1868.44 1780.78 1860.44 1786.33 1853.93 1789.08 C 1842.52 1793.9 1830.44 1798.2 1818.51 1801.57 C 1744.07 1822.56 1639.49 1828.93 1566.75 1800.25 C 1581 1789.2 1607.11 1749.97 1619.11 1733.42 C 1620.35 1731.73 1621.59 1730.51 1623.18 1729.15 C 1626.97 1727.92 1630.96 1729.14 1634.79 1729.83 z"/>
<path transform="translate(0,0)" fill="rgb(250,243,234)" d="M 1634.79 1729.83 C 1635.99 1730.48 1637.19 1731.12 1638.48 1731.58 C 1650.09 1735.69 1665.62 1735.51 1677.91 1735.89 C 1755.17 1738.26 1821.13 1715.92 1890.64 1684.92 L 1889.49 1691.18 C 1874.12 1697.9 1859.2 1705.43 1843.57 1711.58 C 1788.65 1733.23 1728.88 1744.54 1669.83 1740.89 C 1653.62 1739.89 1634.44 1738.8 1619.11 1733.42 C 1620.35 1731.73 1621.59 1730.51 1623.18 1729.15 C 1626.97 1727.92 1630.96 1729.14 1634.79 1729.83 z"/>
<path transform="translate(0,0)" fill="rgb(0,0,0)" d="M 1136.86 94.558 C 1157.37 96.1059 1177.82 98.6417 1198.29 100.625 A 17159.4 17159.4 0 0 1 1370.31 118.295 L 1672.04 149.108 L 1865.15 169.978 A 1930.63 1930.63 0 0 0 1908.55 174.56 C 1917.1 175.384 1926.28 175.563 1934.65 177.428 C 1936.46 205.218 1935.07 233.697 1935.04 261.565 L 1935.15 414.222 L 1935.97 660.261 C 1936 698.584 1936.65 737.051 1935.73 775.36 C 1929.83 779.27 1924.04 783.305 1917.59 786.283 C 1891.71 780.606 1865.42 776.661 1839.33 772.064 C 1804.96 766.009 1770.43 759.558 1735.76 755.462 L 1733.78 756.956 C 1733.83 766.274 1738.71 778.402 1740.81 787.759 A 426.92 426.92 0 0 1 1749.77 841.091 C 1754.43 889.122 1748.51 944.519 1731.94 990.061 C 1727.5 1002.26 1715.22 1023.56 1712.67 1033.8 C 1715.27 1034.95 1717.81 1035.33 1720.59 1035.78 C 1784.14 1038.74 1850.77 1055.67 1894.94 1104.53 C 1927.59 1140.66 1943.28 1191.63 1940.63 1239.99 C 1938.32 1282.21 1922.72 1324.76 1890.54 1353.23 C 1862.88 1377.69 1817.05 1391.37 1780.55 1395.38 C 1781.53 1409.47 1783.68 1422.87 1789.75 1435.75 C 1816.48 1437.87 1852.9 1455.63 1870.3 1476.22 C 1909.07 1522.1 1906.53 1596.28 1901.41 1652.94 C 1899.34 1675.89 1885.12 1795.31 1877.58 1806.29 C 1874.89 1806.3 1873.75 1805.31 1871.76 1803.47 C 1874.14 1798.98 1874.42 1790.7 1875.19 1785.54 L 1876.5 1779.28 C 1878.66 1771.68 1879.34 1762.77 1880.6 1754.9 A 1336.85 1336.85 0 0 0 1889.49 1691.18 L 1890.64 1684.92 C 1821.13 1715.92 1755.17 1738.26 1677.91 1735.89 C 1665.62 1735.51 1650.09 1735.69 1638.48 1731.58 C 1637.19 1731.12 1635.99 1730.48 1634.79 1729.83 C 1630.96 1729.14 1626.97 1727.92 1623.18 1729.15 C 1621.59 1730.51 1620.35 1731.73 1619.11 1733.42 C 1607.11 1749.97 1581 1789.2 1566.75 1800.25 L 1563.96 1803.98 C 1561.92 1821.59 1552.75 1856.28 1547.52 1874.12 C 1546.6 1876.84 1546.02 1879.02 1543.84 1881.03 L 1541.05 1881.48 C 1539.46 1879.95 1539.24 1879.64 1539.17 1877.3 C 1538.85 1865.61 1551.03 1831.06 1553.89 1815.74 C 1527.78 1841.36 1500.74 1879.84 1459.89 1878.91 C 1447.82 1878.64 1437.6 1874.01 1429.55 1865 C 1405.22 1837.79 1400.77 1780.73 1396.09 1745.19 C 1381.45 1751.75 1367.26 1759.2 1352.8 1766.14 L 1235.03 1822.49 C 1217.13 1830.91 1198.53 1842.27 1179.56 1847.93 C 1113.77 1824.21 1046.11 1805.9 979.868 1783.55 C 961.856 1813.88 943.481 1846.04 914.566 1867.32 C 921.774 1870.51 929.105 1873.61 935.784 1877.82 C 952.623 1888.44 977.414 1911.07 985.494 1929.44 C 986.024 1930.64 986.261 1931.79 986.507 1933.08 C 985.327 1935.27 985.165 1935.03 982.756 1935.8 L 978.618 1934.98 C 956.139 1934.52 933.05 1937.07 910.598 1938.51 A 2793.18 2793.18 0 0 1 822.529 1942.72 A 1208.5 1208.5 0 0 1 753.129 1943.13 C 739.68 1942.83 725.825 1941.61 712.399 1942.09 L 705.21 1941.3 A 789.974 789.974 0 0 0 668.191 1939.99 C 665.779 1939.92 663.42 1939.68 661.021 1939.45 C 628.596 1935.54 596.204 1932.68 564.038 1926.72 C 443.457 1904.41 328.082 1857 219.786 1800.64 C 217.112 1799.99 214.632 1799.53 212.769 1797.32 C 204.066 1786.99 200.906 1731.71 200.989 1717.68 C 201.059 1705.98 202.277 1694.33 203.377 1682.69 C 203.162 1682.43 202.943 1682.17 202.731 1681.91 C 178.244 1651.17 164.644 1604.55 169.254 1565.49 C 143.333 1524.52 126.084 1491.03 113.688 1443.95 C 90.0359 1354.13 82.6795 1227.16 131.338 1144.62 C 153.607 1106.85 186.634 1084.33 228.59 1073.37 C 228.68 1071.17 228.275 1069.4 227.259 1067.44 C 223.248 1059.73 217.546 1052.37 212.857 1045 A 271.182 271.182 0 0 1 195.65 1012.83 C 156.087 926.477 147.788 834.486 164.612 741.543 C 193.323 582.938 301.306 440.287 432.161 349.959 A 899.626 899.626 0 0 1 1000.97 196.924 C 1042.31 199.803 1082.92 206.956 1123.61 214.431 C 1123.57 210.48 1122.57 203.606 1124.65 200.259 L 1125.02 103.742 C 1128.84 100.397 1132.51 97.2274 1136.86 94.558 z"/>
<path transform="translate(0,0)" fill="rgb(230,228,205)" d="M 988.323 1466.48 C 989.491 1469.62 987.967 1472.61 987.081 1475.8 C 982.635 1476.05 978.323 1474.14 974.229 1472.64 C 978.816 1470.32 983.571 1468.42 988.323 1466.48 z"/>
<path transform="translate(0,0)" fill="rgb(230,228,205)" d="M 1097.35 1434.82 C 1104.75 1435.37 1113.01 1437.53 1119.47 1441.18 L 1119.59 1442.69 C 1118.1 1443.35 1116.2 1444.34 1114.53 1444.46 C 1111.79 1444.65 1108.89 1442.75 1106.78 1441.21 C 1103.7 1438.97 1100.54 1436.9 1097.35 1434.82 z"/>
<path transform="translate(0,0)" fill="rgb(247,220,165)" d="M 964.841 1502.53 C 970.398 1503.64 979.962 1505.83 984.499 1509.16 L 984.689 1510.7 L 982.687 1512 C 977.661 1510.26 971.808 1510.43 967.121 1508.63 C 964.625 1507.66 964.331 1506.88 963.335 1504.65 L 964.841 1502.53 z"/>
<path transform="translate(0,0)" fill="rgb(232,146,149)" d="M 1394.02 1123.27 C 1397.49 1123.69 1400.76 1123.75 1404.26 1123.66 L 1405.2 1124.46 C 1399.71 1129.6 1397.2 1132.81 1396.92 1140.48 C 1395.09 1139.95 1394.04 1139.46 1392.57 1138.25 C 1392.99 1133.25 1393.53 1128.26 1394.02 1123.27 z"/>
<path transform="translate(0,0)" fill="rgb(247,220,165)" d="M 1021.94 1488.35 C 1014.36 1483.41 1007.41 1492.23 995.315 1486.38 C 999.054 1485.03 1005.33 1486.61 1009.51 1486.62 C 1008.3 1485.64 1007.73 1484.84 1006.87 1483.56 L 1008.08 1482.48 C 1013.64 1481.83 1019.34 1482.76 1024.89 1483.31 C 1023.89 1484.88 1022.52 1486.58 1021.94 1488.35 z"/>
<path transform="translate(0,0)" fill="rgb(247,220,165)" d="M 988.323 1466.48 C 992.946 1465.48 1006.12 1470.19 1010.07 1473.08 C 1011.23 1473.92 1011.23 1474.01 1012.02 1474.93 C 1008.15 1475.83 1004.27 1474.45 1000.55 1473.36 C 996.066 1472.05 993.781 1472.12 989.5 1474.36 C 988.433 1474.92 988.03 1475.2 987.081 1475.8 C 987.967 1472.61 989.491 1469.62 988.323 1466.48 z"/>
<path transform="translate(0,0)" fill="rgb(247,220,165)" d="M 992.486 1492.65 L 994.017 1489.21 C 1001.64 1491.41 1009.64 1491.93 1017.52 1492.6 C 1015.2 1494.15 1012.98 1495.03 1012.07 1497.87 C 1011.84 1498.57 1011.79 1499.68 1011.73 1500.44 C 1005.05 1497.96 998.876 1495.9 992.486 1492.65 z"/>
<path transform="translate(0,0)" fill="rgb(236,187,133)" d="M 595.624 1367.32 C 604.526 1366.07 613.937 1364.26 622.763 1366.76 C 622.058 1368.37 621.71 1370.41 619.994 1371.11 C 614.3 1373.43 607.123 1371.27 600.99 1372.67 L 599.793 1372.89 C 599.93 1370.97 599.841 1370.08 598.971 1368.34 L 595.624 1367.32 z"/>
<path transform="translate(0,0)" fill="rgb(230,228,205)" d="M 982.448 1484.97 L 983.163 1483.63 C 976.785 1481.55 967.929 1481.06 962.466 1477.43 L 962.906 1476.41 C 972.732 1474.07 979.1 1477.59 987.475 1482.58 C 988.668 1483.29 989.229 1484.07 990.158 1485.04 C 990.369 1485.27 991.581 1486.29 991.781 1486.46 C 993.623 1488.11 992.979 1487.28 994.017 1489.21 L 992.486 1492.65 C 989.119 1490.89 986.42 1489.85 982.645 1489.36 L 982.448 1484.97 z"/>
<path transform="translate(0,0)" fill="rgb(250,243,234)" d="M 607.498 1145.2 A 1108.64 1108.64 0 0 0 613.687 1154.81 A 320.947 320.947 0 0 0 608.796 1194.4 C 607.777 1199.17 607.42 1212.69 604.949 1215.86 C 604.444 1198.38 606.875 1181.63 604.457 1164.13 C 605.073 1164.36 605.435 1165.01 605.895 1165.48 C 607.115 1170.25 607.077 1174.53 606.96 1179.4 L 607.883 1179.52 C 608.489 1178.47 608.823 1177.61 609.009 1176.41 C 609.978 1170.17 613.126 1156.14 609.116 1150.97 C 607.44 1148.81 607.732 1147.84 607.498 1145.2 z"/>
<path transform="translate(0,0)" fill="rgb(250,243,234)" d="M 1795.22 1443.38 L 1808.41 1447.66 C 1809.21 1454.74 1810.76 1462.75 1805.32 1468.54 C 1800.5 1473.67 1791.45 1473.86 1784.86 1474.59 L 1783.56 1474.01 L 1783.91 1472.28 C 1788.42 1471.33 1794.65 1469.88 1798.39 1467.15 C 1800.81 1465.38 1802.3 1463.22 1802.71 1460.24 C 1803.56 1454.15 1798.47 1448.04 1795.22 1443.38 z"/>
<path transform="translate(0,0)" fill="rgb(250,243,234)" d="M 576.59 1356.79 C 588.126 1354.43 616.653 1348.2 626.86 1353.71 C 624.641 1356.6 620.765 1357.1 617.374 1357.54 C 612.889 1358.13 591.64 1360.78 588.573 1360.41 L 586.378 1358.57 L 585.896 1360.86 C 583.774 1362.14 581.793 1362.78 579.45 1363.53 C 577.936 1361.56 577.356 1359.12 576.59 1356.79 z"/>
<path transform="translate(0,0)" fill="rgb(250,243,234)" d="M 1656.96 1390.35 L 1661.58 1389.26 C 1664.54 1391.54 1665.18 1394.36 1665.63 1397.99 C 1666.45 1404.62 1666.21 1411.34 1666.86 1417.99 L 1648.32 1413.58 C 1648.3 1405.83 1655.32 1398.31 1656.96 1390.35 z"/>
<path transform="translate(0,0)" fill="rgb(250,243,234)" d="M 1507.13 1686.03 C 1507.14 1686.5 1507.22 1686.97 1507.17 1687.43 C 1506.82 1690.89 1485.25 1728.87 1481.99 1731.5 L 1481.8 1730.43 L 1484.31 1729.66 L 1482.56 1731.62 C 1480.43 1730.71 1480.01 1728.78 1478.95 1726.78 C 1476.2 1718.67 1474.07 1710.41 1471.91 1702.13 A 3725.05 3725.05 0 0 1 1507.13 1686.03 z"/>
<path transform="translate(0,0)" fill="rgb(236,187,133)" d="M 1609.76 1389.58 C 1625.59 1391.17 1641.09 1392.83 1656.96 1390.35 C 1655.32 1398.31 1648.3 1405.83 1648.32 1413.58 C 1635.89 1411.51 1623.55 1408.32 1611.26 1405.51 L 1611.47 1404.41 L 1612.48 1403.98 C 1612.58 1401.02 1610.32 1397.72 1609.29 1394.91 C 1608.43 1392.54 1608.58 1391.74 1609.76 1389.58 z"/>
<path transform="translate(0,0)" fill="rgb(250,243,234)" d="M 1296.79 1216.89 C 1301.44 1233.74 1303.5 1254.47 1308.12 1272.62 L 1296.38 1264.12 A 841.666 841.666 0 0 1 1277.49 1250.8 C 1276.99 1246.18 1276.57 1242.23 1274.53 1237.96 C 1281.58 1230.46 1289.09 1223.7 1296.79 1216.89 z"/>
<path transform="translate(0,0)" fill="rgb(250,243,234)" d="M 1568.42 1295.97 C 1587.13 1305.61 1602.68 1305.17 1623.24 1304.53 C 1619.47 1311.48 1614.02 1317.23 1608.59 1322.9 C 1602.27 1327.99 1594.55 1334.82 1586.09 1335.39 C 1582.65 1335.62 1579.94 1334.71 1577.36 1332.35 C 1570.73 1326.29 1568.55 1304.93 1568.42 1295.97 z"/>
<path transform="translate(0,0)" fill="rgb(230,228,205)" d="M 822.526 1377.55 C 839.8 1386.92 842.664 1392.84 864.345 1391.92 C 846.995 1399.55 828.977 1406.05 811.346 1413.03 C 802.979 1416.47 794.865 1420.55 786.712 1424.46 L 781.96 1415.3 C 796.138 1403.77 811.17 1391.92 822.526 1377.55 z"/>
<path transform="translate(0,0)" fill="rgb(230,228,205)" d="M 1514.27 1646.75 C 1518.37 1647.72 1521.68 1650.46 1525.12 1652.81 C 1521.69 1660.12 1517.95 1667.19 1514.07 1674.27 C 1500.45 1680.4 1486.78 1686.22 1473.47 1693.01 L 1471.09 1694.28 C 1466.48 1690.73 1465.2 1678.41 1463.92 1672.67 A 935.033 935.033 0 0 0 1514.27 1646.75 z"/>
<path transform="translate(0,0)" fill="rgb(250,243,234)" d="M 501.508 1045.46 L 512.346 1051.4 C 520.269 1075.44 529.039 1097.48 533.653 1122.63 C 534.644 1128.04 536.167 1133.91 536.092 1139.4 L 534.756 1139.35 C 525.297 1127.69 509 1111.64 507.677 1096.22 L 506.625 1084.8 C 504.028 1081.14 501.343 1078.43 497.906 1075.56 C 498.8 1065.44 499.792 1055.48 501.508 1045.46 z"/>
<path transform="translate(0,0)" fill="rgb(216,128,123)" d="M 948.685 1642.99 C 952.999 1642.87 957.357 1643.38 961.606 1644.1 C 986.007 1648.25 1002.37 1657.64 1016.77 1678 A 396.016 396.016 0 0 0 1007.6 1701.76 L 1007.05 1703.09 L 1005.72 1703.62 C 988.969 1678.22 972.374 1667.51 943.964 1658.37 C 946.072 1653.34 947.364 1648.26 948.685 1642.99 z"/>
<path transform="translate(0,0)" fill="rgb(216,128,123)" d="M 1356.23 1019.75 C 1363.75 1022.38 1371.97 1023.48 1379.85 1024.32 C 1378.81 1038.95 1377.32 1053.58 1378.14 1068.26 C 1367.27 1070.48 1357.72 1075.09 1348.03 1080.32 C 1342.32 1083.8 1336.95 1087.81 1331.51 1091.68 C 1337.01 1067.08 1344.9 1042.27 1356.23 1019.75 z"/>
<path transform="translate(0,0)" fill="rgb(250,243,234)" d="M 762.471 1724.75 C 766.493 1729.91 782.186 1782.77 786.134 1793.64 C 774.99 1796.83 763.609 1799.08 752.28 1801.5 L 732.05 1807.02 C 737.644 1782.91 751.362 1746.72 762.471 1724.75 z"/>
<path transform="translate(0,0)" fill="rgb(216,128,123)" d="M 847.486 1496.42 C 857.778 1499.05 867.993 1503.22 878.102 1506.54 A 1442.32 1442.32 0 0 0 922.002 1519.72 C 931.787 1522.55 941.616 1525.76 951.8 1526.68 C 949.557 1535.82 948.014 1544.81 946.704 1554.11 C 946.696 1555.41 946.814 1554.62 945.853 1556.37 C 937.51 1556.92 876.431 1535.18 863.569 1530.12 C 858.935 1518.39 854.164 1507.14 847.486 1496.42 z"/>
<path transform="translate(0,0)" fill="rgb(250,243,234)" d="M 604.949 1215.86 C 607.42 1212.69 607.777 1199.17 608.796 1194.4 C 609.864 1229.05 623.867 1265.72 640.317 1296.01 C 646.979 1308.28 655.075 1320.52 660.128 1333.53 C 656.32 1333.33 650.547 1333.79 647.221 1331.94 L 646.563 1330.56 C 642.751 1322.69 637.229 1319.15 628.966 1316.3 C 617.576 1312.36 604.635 1311.99 592.849 1314.17 C 597.661 1293.79 600.363 1273.55 601.926 1252.68 C 602.815 1240.82 602.489 1227.42 604.949 1215.86 z"/>
<path transform="translate(0,0)" fill="rgb(173,205,201)" d="M 1926.32 184.681 C 1928.18 187.134 1928.06 188.903 1928.14 191.936 C 1929.12 230.332 1927.77 269.201 1927.83 307.645 L 1928.17 584.251 L 1928.42 711.667 C 1928.48 725.975 1930.24 754.953 1928.46 767.944 C 1928 771.371 1926.02 772.665 1923.75 775.06 L 1922.89 775.011 C 1921.55 772.4 1921.93 650.438 1921.94 633.615 L 1921.91 277.399 C 1921.94 266.465 1920.89 192.954 1922.46 187.631 C 1922.95 185.969 1924.9 185.489 1926.32 184.681 z"/>
<path transform="translate(0,0)" fill="rgb(166,163,150)" d="M 1603.97 1487.79 C 1637.68 1504.11 1661.32 1528.76 1673.64 1564.4 C 1676.55 1572.82 1678.85 1581.43 1681.14 1590.04 C 1673.65 1587.3 1665.23 1579.85 1658.39 1575.4 C 1635.05 1560.2 1601.18 1536.22 1577.32 1524.85 C 1585.51 1511.77 1592.17 1498.15 1603.97 1487.79 z"/>
<path transform="translate(0,0)" fill="rgb(230,228,205)" d="M 266.788 1511.24 C 284.039 1516.26 300.957 1523.11 317.865 1529.2 A 7995.05 7995.05 0 0 1 413.581 1563.72 C 410.548 1569.44 407.642 1575.24 404.683 1581 C 403.412 1583.52 401.751 1585.94 400.271 1588.35 C 384.012 1583.89 367.789 1576.79 351.767 1571.26 C 323.195 1561.4 293.521 1552.52 265.835 1540.44 C 265.919 1530.71 266.434 1520.96 266.788 1511.24 z"/>
<path transform="translate(0,0)" fill="rgb(230,228,205)" d="M 1038.58 1359.15 C 1048.94 1362.11 1058.98 1366.32 1069.26 1369.6 C 1091.76 1376.79 1114.44 1383.51 1137.02 1390.45 C 1136.17 1390.9 1135.34 1391.35 1134.49 1391.77 C 1123.79 1396.99 1091.82 1412.18 1081.8 1414.25 C 1079.26 1414.77 1076.59 1413.76 1074.21 1412.98 L 1071 1411.54 L 1070.1 1407.88 C 1065.3 1405.98 1059.61 1408.27 1054.5 1407.16 C 1048.47 1405.84 1042.48 1403.45 1036.53 1401.77 L 975.97 1384.41 C 997.152 1377.49 1018.14 1368.02 1038.58 1359.15 z"/>
<path transform="translate(0,0)" fill="rgb(0,0,0)" d="M 1062.05 1371.39 C 1072.93 1376.01 1083.2 1380.6 1095.02 1382.27 C 1091.91 1385.07 1089.33 1387.21 1085.47 1388.85 C 1084.97 1389.07 1084.47 1389.29 1083.96 1389.5 C 1083.64 1389.64 1083.32 1389.76 1083 1389.89 L 1082.3 1390.84 L 1080.34 1394.98 C 1081.78 1399.13 1086.46 1399.18 1089.87 1401.58 L 1089.93 1403.42 L 1088 1404.7 C 1068.02 1403.25 1052.12 1397.64 1034.47 1388.37 L 1034.46 1386.65 L 1036.26 1389.26 L 1033.04 1387.04 L 1034.79 1388.44 L 1035.76 1386.53 C 1041.43 1385.81 1047.34 1385.47 1052.92 1384.25 L 1054.84 1383.81 C 1052.59 1382.66 1051.94 1381.23 1050.67 1379.14 C 1053.96 1375.29 1057.61 1373.61 1062.05 1371.39 z"/>
<path transform="translate(0,0)" fill="rgb(236,187,133)" d="M 1068.18 1389.63 C 1073.09 1390.74 1077.27 1391.1 1082.3 1390.84 L 1080.34 1394.98 C 1075.6 1396.63 1069.71 1394.88 1064.69 1395.19 L 1068.18 1389.63 z"/>
<path transform="translate(0,0)" fill="rgb(230,228,205)" d="M 1064.69 1395.19 C 1058.48 1395.14 1051.49 1391.71 1045.62 1389.65 C 1050.88 1387.2 1062.52 1388.27 1068.18 1389.63 L 1064.69 1395.19 z"/>
<path transform="translate(0,0)" fill="rgb(247,220,165)" d="M 1050.67 1379.14 C 1059.25 1378.92 1077.46 1379.3 1084.18 1385.45 C 1084.42 1385.66 1084.6 1385.93 1084.8 1386.17 L 1084.61 1387.32 C 1075.67 1388.73 1062.97 1380.04 1054.84 1383.81 C 1052.59 1382.66 1051.94 1381.23 1050.67 1379.14 z"/>
<path transform="translate(0,0)" fill="rgb(216,128,123)" d="M 1487.98 988.682 C 1500.34 991.022 1511.93 996.101 1523.05 1001.82 C 1523.31 1007.17 1523.42 1012.48 1522.87 1017.81 C 1521.3 1033.33 1494.75 1111.22 1484.83 1119.3 L 1483.61 1117.73 C 1477.14 1100.24 1467.77 1083.77 1452.35 1072.88 C 1465.54 1047.6 1490.54 1027.63 1497.6 999.542 C 1492.14 996.469 1489.91 994.776 1487.98 988.682 z"/>
<path transform="translate(0,0)" fill="rgb(216,128,123)" d="M 645.511 1339.7 C 693.39 1347.29 742.452 1376.28 770.793 1415.63 C 776.711 1423.85 780.87 1432.61 785.03 1441.8 C 724.777 1398.94 677.783 1373.12 600.99 1372.67 C 607.123 1371.27 614.3 1373.43 619.994 1371.11 C 621.71 1370.41 622.058 1368.37 622.763 1366.76 C 625.099 1366.89 625.904 1367.27 627.796 1365.7 C 634.868 1359.82 640.876 1347.66 645.511 1339.7 z"/>
<path transform="translate(0,0)" fill="rgb(250,243,234)" d="M 383.26 1010.7 C 384.261 1010.98 383.587 1010.72 384.992 1011.99 C 386.091 1054.27 409.232 1083.17 436.265 1112.95 C 428.39 1129.49 418.607 1145.78 408.695 1161.19 L 401.126 1171.04 C 383.929 1125.86 364.592 1076.11 362.69 1027.38 C 369.876 1022.25 376.066 1015.87 383.26 1010.7 z"/>
<path transform="translate(0,0)" fill="rgb(230,228,205)" d="M 998.146 1747.44 C 1015.73 1757.19 1039.08 1762.3 1058.31 1768.49 A 11264.2 11264.2 0 0 0 1178.86 1806.77 C 1177.55 1815.79 1179.18 1828.76 1175.04 1836.61 C 1172.39 1837.95 1171.01 1837.01 1168.19 1836.31 L 1042.4 1795.4 C 1022.96 1789.23 1003.19 1784.24 984.044 1777.16 A 822.707 822.707 0 0 0 998.146 1747.44 z"/>
<path transform="translate(0,0)" fill="rgb(216,128,123)" d="M 1177.15 1178.4 A 120.311 120.311 0 0 1 1198.95 1180.26 C 1218.91 1183.9 1253.15 1197.63 1264.58 1215.11 C 1267.89 1220.18 1268.91 1225.51 1267.76 1231.42 C 1267.3 1231.78 1266.96 1232.54 1266.38 1232.5 C 1266.34 1232.5 1263.71 1229.76 1263.43 1229.47 C 1259.14 1225.13 1254.61 1221.13 1249.45 1217.83 C 1233.75 1207.8 1211.04 1201.2 1192.55 1199.61 C 1180.69 1198.58 1160.23 1199.92 1150.78 1207.78 C 1156.44 1208.99 1164.79 1206.71 1170.73 1206.17 C 1190.32 1204.39 1206.81 1208.42 1225.24 1214.68 C 1239.5 1220.18 1257.21 1230.16 1266.57 1242.46 C 1267.85 1244.13 1268.66 1245.29 1268.33 1247.43 C 1261.45 1246.8 1253.37 1242.61 1246.66 1240.48 C 1226.13 1233.96 1203.49 1231.23 1182.09 1234.42 C 1161.85 1237.43 1144.2 1244.89 1131.72 1261.61 C 1128.54 1258.3 1125.69 1254.94 1124.64 1250.36 C 1122.76 1242.18 1127.64 1235.35 1131.78 1228.81 C 1130.88 1217.13 1134.71 1199.32 1142.23 1190.28 C 1150.95 1179.79 1164.61 1179.31 1177.15 1178.4 z"/>
<path transform="translate(0,0)" fill="rgb(230,228,205)" d="M 1395.18 1707.97 L 1395.77 1708.53 C 1398.16 1714.07 1396.56 1729.88 1396.52 1736.56 C 1382.99 1742.37 1370.14 1749.36 1356.96 1755.89 L 1303.43 1781.93 A 5611.57 5611.57 0 0 1 1186.3 1837.75 L 1184.43 1837.7 C 1181.67 1830.21 1186.89 1813.5 1189.7 1806.12 C 1202.46 1798.32 1216.51 1792.17 1230.02 1785.79 A 5459.83 5459.83 0 0 1 1288.43 1758.53 C 1324.2 1742.08 1359.31 1724.27 1395.18 1707.97 z"/>
<path transform="translate(0,0)" fill="rgb(230,228,205)" d="M 971.45 1386.42 C 983.236 1391 995.016 1394.72 1007.23 1397.96 C 1019.74 1401.28 1034.13 1403.89 1045.71 1409.79 C 1053.23 1411.52 1060.95 1413.79 1067.23 1418.46 L 1067.84 1419.95 C 1064.54 1422.41 1058.23 1421.55 1054.36 1421.05 C 1050.42 1420.54 1046.57 1419.42 1042.7 1418.55 C 1034.21 1416.68 1027.38 1412.67 1018.33 1412.18 L 1018.22 1413.2 C 1029.15 1420.66 1044.91 1425.33 1058 1426.61 C 1034.75 1436.54 1011.17 1446.77 989.267 1459.45 C 955.878 1444.9 919.541 1435.72 884.963 1424.35 C 912 1409.36 942.908 1398.5 971.45 1386.42 z"/>
<path transform="translate(0,0)" fill="rgb(0,0,0)" d="M 970.595 1395.23 C 985.106 1399.06 1003.04 1405.05 1013.32 1416.21 C 1006.31 1420.96 998.572 1424.58 990.693 1427.64 C 986.711 1429.19 984.353 1429.86 980.072 1429.17 C 979.429 1429.27 978.787 1429.38 978.143 1429.47 C 975.591 1429.82 974.613 1428.92 972.254 1428.42 C 971.488 1428.26 970.5 1428.41 969.718 1428.49 L 970.7 1428.78 C 974.4 1429.91 977.204 1430.64 979.254 1434.19 C 981.03 1435.15 982.667 1436.23 984.336 1437.37 L 984.275 1439.18 L 982.068 1440.22 C 960.81 1439.33 936.188 1433.5 916.537 1425.04 C 914.462 1424.14 913.847 1423.63 913.085 1421.44 C 917.489 1415.48 936.18 1412.63 943.247 1410.8 C 956.487 1416.66 981.031 1427.67 995.253 1423.09 L 993.638 1421.42 L 994.13 1421.53 C 977.596 1418.9 962.37 1412.92 947.019 1406.37 C 954.383 1400.44 961.611 1397.61 970.595 1395.23 z"/>
<path transform="translate(0,0)" fill="rgb(247,220,165)" d="M 924.816 1418.96 C 926.564 1418.77 928.253 1418.51 929.968 1419.05 C 943.668 1423.37 958.484 1429.97 972.78 1434.64 L 971.75 1435.97 C 963.404 1434.58 928.5 1426.24 923.608 1420.96 L 924.816 1418.96 z"/>
<path transform="translate(0,0)" fill="rgb(247,220,165)" d="M 979.254 1434.19 C 965.274 1428.58 949.535 1425.2 936.365 1417.91 C 943.006 1415.49 972.431 1426.63 980.072 1429.17 C 979.429 1429.27 978.787 1429.38 978.143 1429.47 C 975.591 1429.82 974.613 1428.92 972.254 1428.42 C 971.488 1428.26 970.5 1428.41 969.718 1428.49 L 970.7 1428.78 C 974.4 1429.91 977.204 1430.64 979.254 1434.19 z"/>
<path transform="translate(0,0)" fill="rgb(247,220,165)" d="M 960.834 1402.16 C 970.411 1401.24 977.901 1403.29 987.011 1405.84 C 982.597 1405.95 977.844 1406.43 973.46 1406.12 C 970.88 1405.93 972.08 1405.41 970.466 1406.54 C 971.45 1408.84 987.316 1408.51 990.636 1409.26 C 993.567 1409.93 996.428 1411.71 998.999 1413.23 L 1000.54 1414.15 L 1002.78 1415.83 L 1002.95 1417.6 C 1002.58 1417.69 1002.23 1417.81 1001.86 1417.86 C 997.567 1418.4 960.099 1408.57 956.514 1406.15 L 956.423 1404.72 L 960.834 1402.16 z"/>
<path transform="translate(0,0)" fill="rgb(216,128,123)" d="M 1428.09 1109.01 C 1414.23 1174.11 1417.95 1252.35 1429.03 1317.87 C 1415.78 1316.18 1402.45 1314.92 1389.21 1313.16 C 1382.16 1265.15 1383.86 1217 1388.72 1168.93 C 1389.71 1159.17 1389.88 1147.61 1392.57 1138.25 C 1394.04 1139.46 1395.09 1139.95 1396.92 1140.48 C 1397.2 1132.81 1399.71 1129.6 1405.2 1124.46 L 1404.26 1123.66 C 1407.23 1121.14 1409.72 1121.66 1413.22 1119.69 C 1418.59 1116.67 1423.33 1112.88 1428.09 1109.01 z"/>
<path transform="translate(0,0)" fill="rgb(0,0,0)" d="M 1405.2 1124.46 C 1408.08 1125.02 1409.32 1125.33 1410.99 1127.88 C 1413.08 1131.06 1413.08 1135.4 1411.91 1138.89 C 1411 1141.6 1409.62 1143.71 1406.94 1144.94 C 1405.53 1145.58 1403.96 1145.61 1402.46 1145.17 C 1399.99 1144.43 1398.43 1142.4 1396.92 1140.48 C 1397.2 1132.81 1399.71 1129.6 1405.2 1124.46 z"/>
<path transform="translate(0,0)" fill="rgb(0,0,0)" d="M 1401.38 1188.93 C 1403.15 1189.03 1405.41 1189.11 1407.08 1189.73 C 1410.09 1190.84 1412 1193.25 1413.15 1196.15 C 1414.75 1200.18 1414.57 1204.15 1412.79 1208.09 C 1411.14 1211.75 1409.05 1212.55 1405.57 1213.91 C 1401.2 1213.39 1397.15 1212.94 1394.21 1209.27 C 1392.48 1207.12 1391.8 1204.37 1392.19 1201.65 C 1393.02 1195.78 1396.88 1192.32 1401.38 1188.93 z"/>
<path transform="translate(0,0)" fill="rgb(250,243,234)" d="M 1401.08 1195.32 C 1401.44 1195.45 1401.81 1195.56 1402.17 1195.71 C 1405.35 1197.01 1406.76 1198.34 1408.2 1201.44 C 1407.92 1204.83 1406.77 1206.17 1404.67 1208.64 C 1401.54 1207.1 1398.96 1205.43 1397.53 1202.15 C 1398.04 1198.64 1398.88 1198 1401.08 1195.32 z"/>
<path transform="translate(0,0)" fill="rgb(0,0,0)" d="M 1402.2 1257.83 C 1407.11 1258.58 1410.76 1259.62 1413.76 1263.85 C 1415.98 1266.97 1416.58 1270.82 1415.74 1274.53 C 1414.61 1279.52 1411.44 1282.24 1407.27 1284.83 C 1405.4 1284.83 1403.63 1284.74 1401.82 1284.28 C 1398.32 1283.39 1395.74 1281.15 1394 1278.01 C 1392.08 1274.57 1391.86 1270.59 1393.09 1266.87 C 1394.73 1261.93 1397.67 1259.98 1402.2 1257.83 z"/>
<path transform="translate(0,0)" fill="rgb(250,243,234)" d="M 1403.04 1263.44 L 1406 1264.22 C 1407.2 1265.28 1408.32 1266.2 1408.85 1267.79 C 1410.1 1271.54 1408.41 1275.07 1406.53 1278.23 C 1406.1 1278.06 1405.67 1277.92 1405.25 1277.73 C 1402.02 1276.31 1400.87 1274.83 1399.65 1271.57 C 1399.93 1268.12 1401.15 1266.29 1403.04 1263.44 z"/>
<path transform="translate(0,0)" fill="rgb(117,126,129)" d="M 786.503 1801.14 C 790.086 1801.03 790.694 1804.41 791.914 1807.2 C 802.445 1831.32 813.823 1853.57 836.461 1868.27 C 809.881 1872.62 783.48 1879.76 757.552 1886.98 C 743.854 1890.31 730.264 1894.66 716.702 1898.53 C 719.206 1870 723.566 1843.01 729.758 1815.05 C 748.759 1810.92 767.627 1805.82 786.503 1801.14 z"/>
<path transform="translate(0,0)" fill="rgb(230,228,205)" d="M 1246.77 1425.95 C 1256.49 1428.75 1266.14 1431.62 1276.09 1433.54 C 1304.43 1440.83 1332.28 1449.83 1360.65 1457.02 C 1337.79 1468.85 1314.1 1479.23 1291.07 1490.78 A 2153.18 2153.18 0 0 1 1235.27 1518.14 C 1226 1522.58 1216.1 1528.21 1206.22 1531.06 C 1197.24 1527.33 1188.82 1522.76 1179.54 1519.74 L 1175.38 1518.34 C 1187.17 1513.79 1198.48 1508.23 1210.09 1503.25 C 1228.89 1495.18 1246.98 1487.47 1265.07 1477.82 C 1272.72 1479.68 1282.22 1483.25 1290.07 1483 L 1291.68 1481.71 C 1289.09 1477.51 1277.74 1475.34 1273.04 1474.24 C 1270.6 1473.67 1268.32 1473.4 1265.83 1473.17 C 1259.25 1472.54 1238.6 1464.42 1233.76 1460.16 C 1226.06 1456.74 1216.31 1453.16 1207.97 1451.95 C 1208.96 1450.68 1209.48 1448.89 1210.1 1447.4 L 1209.72 1446.52 C 1210.54 1445.48 1210.52 1445.41 1211.75 1444.44 C 1213 1443.46 1243.69 1428.54 1244 1428.52 C 1245.34 1428.43 1246.63 1429.09 1247.94 1429.37 L 1246.77 1425.95 z"/>
<path transform="translate(0,0)" fill="rgb(0,0,0)" d="M 1241.16 1499.18 C 1244.88 1498.65 1247.45 1498.84 1250.94 1500.24 L 1251.21 1502.17 C 1243.04 1503.53 1234.55 1506.76 1226.28 1506.98 C 1223.15 1507.06 1220.29 1507.57 1217.21 1508.19 C 1214.55 1508.86 1211.79 1508.66 1209.05 1508.63 L 1208.17 1507.47 C 1208.4 1507.19 1208.59 1506.89 1208.84 1506.65 C 1212.97 1502.57 1220.73 1500.92 1226.3 1501.2 C 1231.9 1501.49 1235.85 1500.74 1241.16 1499.18 z"/>
<path transform="translate(0,0)" fill="rgb(0,0,0)" d="M 1285.36 1458.42 C 1294.76 1461.32 1304.89 1462.72 1314.08 1465.91 C 1316.27 1466.67 1318.02 1467.25 1319 1469.44 C 1318.67 1469.65 1318.36 1469.89 1318.02 1470.08 C 1311.1 1473.97 1293.78 1466.73 1286.37 1464.57 C 1283.95 1465.07 1282.54 1465.4 1280.61 1466.97 C 1282.83 1468.39 1285.63 1467.72 1288.25 1467.64 C 1288.58 1467.71 1288.93 1467.71 1289.25 1467.84 C 1297.08 1471 1302.83 1472.24 1311.25 1473.1 C 1306.06 1475.28 1300.94 1476.88 1295.53 1478.39 C 1287.87 1475.14 1275.57 1473.71 1269.21 1468.83 L 1269.05 1467.38 C 1273.33 1462.75 1280.27 1464.01 1284.15 1459.82 C 1284.57 1459.36 1284.96 1458.88 1285.36 1458.42 z"/>
<path transform="translate(0,0)" fill="rgb(0,0,0)" d="M 1246.77 1425.95 C 1256.49 1428.75 1266.14 1431.62 1276.09 1433.54 C 1276.61 1435.8 1277.06 1438.09 1277.76 1440.3 C 1274.45 1448.3 1262.68 1452.75 1255.06 1455.92 C 1247.72 1458.98 1242.83 1461.62 1234.76 1458.98 L 1233.76 1460.16 C 1226.06 1456.74 1216.31 1453.16 1207.97 1451.95 C 1208.96 1450.68 1209.48 1448.89 1210.1 1447.4 L 1209.72 1446.52 C 1210.54 1445.48 1210.52 1445.41 1211.75 1444.44 C 1213 1443.46 1243.69 1428.54 1244 1428.52 C 1245.34 1428.43 1246.63 1429.09 1247.94 1429.37 L 1246.77 1425.95 z"/>
<path transform="translate(0,0)" fill="rgb(230,228,205)" d="M 1247.1 1435.24 L 1248.73 1434.96 C 1253.3 1437.37 1255.94 1436.97 1260.89 1436.14 C 1255.97 1438.87 1250.42 1440.45 1245.11 1442.29 C 1244.34 1441.79 1240.08 1437.72 1239.99 1437.72 C 1237.48 1437.74 1236.57 1441.98 1232.59 1441.38 L 1232.57 1440.27 C 1235.72 1436.92 1242.57 1436.25 1247.1 1435.24 z"/>
<path transform="translate(0,0)" fill="rgb(247,220,165)" d="M 1246.77 1425.95 C 1256.49 1428.75 1266.14 1431.62 1276.09 1433.54 C 1276.61 1435.8 1277.06 1438.09 1277.76 1440.3 C 1269.01 1435.84 1257.41 1432.13 1247.94 1429.37 L 1246.77 1425.95 z"/>
<path transform="translate(0,0)" fill="rgb(230,228,205)" d="M 1210.1 1447.4 C 1221.55 1449.13 1231.84 1454.55 1243.53 1456.15 C 1241.77 1457.38 1242.06 1457.54 1239.87 1457.49 C 1237.64 1457.44 1236.66 1457.96 1234.76 1458.98 L 1233.76 1460.16 C 1226.06 1456.74 1216.31 1453.16 1207.97 1451.95 C 1208.96 1450.68 1209.48 1448.89 1210.1 1447.4 z"/>
<path transform="translate(0,0)" fill="rgb(247,220,165)" d="M 1227.8 1440.81 C 1235.61 1444.62 1245.09 1446.62 1253.46 1449.08 L 1253.87 1450.62 L 1255.86 1450.41 L 1255.4 1449.72 L 1256 1450.24 C 1253.9 1451.51 1251.7 1452.05 1249.37 1452.76 C 1242 1451.11 1227.63 1449.49 1222.3 1444.4 C 1223.4 1442.03 1225.47 1441.82 1227.8 1440.81 z"/>
<path transform="translate(0,0)" fill="rgb(230,228,205)" d="M 1226.28 1420.2 C 1233.25 1421.58 1239.99 1423.84 1246.77 1425.95 L 1247.94 1429.37 C 1246.63 1429.09 1245.34 1428.43 1244 1428.52 C 1243.69 1428.54 1213 1443.46 1211.75 1444.44 C 1210.52 1445.41 1210.54 1445.48 1209.72 1446.52 L 1210.1 1447.4 C 1209.48 1448.89 1208.96 1450.68 1207.97 1451.95 C 1207.98 1452.41 1207.99 1453.67 1208.15 1454.06 C 1208.89 1455.95 1210.26 1456.65 1211.95 1457.55 C 1217.79 1460.66 1225.09 1462.3 1231.35 1464.55 C 1240.52 1467.85 1249.39 1471.62 1258.29 1475.56 C 1237.18 1489.65 1194.35 1505.02 1169.15 1515.61 C 1142.14 1509.09 1115.41 1499.47 1088.81 1491.31 C 1103.59 1483 1119.35 1476.33 1134.43 1468.56 L 1226.28 1420.2 z"/>
<path transform="translate(0,0)" fill="rgb(0,0,0)" d="M 1135.32 1476.93 C 1136.62 1476.78 1137.68 1476.62 1138.98 1476.91 C 1144.94 1478.27 1183.15 1491.74 1185.76 1494.39 C 1186.46 1495.1 1186.81 1496.09 1187.34 1496.94 C 1178.96 1496.93 1143.16 1485.55 1136.77 1480.43 C 1135.23 1479.2 1135.59 1478.77 1135.32 1476.93 z"/>
<path transform="translate(0,0)" fill="rgb(0,0,0)" d="M 1194.6 1483.72 L 1195.94 1485.94 L 1195.22 1487.78 C 1193.57 1488.54 1192.26 1489.1 1190.41 1489.18 C 1182.53 1489.51 1150.33 1478.02 1144.21 1472.71 L 1144.51 1471.42 C 1148.96 1470.12 1153.43 1471.33 1157.91 1472.05 L 1157.69 1470.94 C 1169.96 1470.68 1182.15 1475.3 1193.46 1479.66 C 1193.8 1481.03 1194.06 1482.41 1194.6 1483.72 z"/>
<path transform="translate(0,0)" fill="rgb(230,228,205)" d="M 1157.69 1470.94 C 1169.96 1470.68 1182.15 1475.3 1193.46 1479.66 C 1193.8 1481.03 1194.06 1482.41 1194.6 1483.72 C 1181.91 1481.06 1169.95 1476.81 1157.91 1472.05 L 1157.69 1470.94 z"/>
<path transform="translate(0,0)" fill="rgb(0,0,0)" d="M 1173.47 1457.52 C 1183.22 1460.23 1192.64 1464.07 1202.46 1466.47 C 1207.95 1467.81 1218.78 1468.4 1223.3 1471.15 L 1223.04 1472.63 C 1217.99 1475.84 1215.94 1475.82 1210.22 1474.58 C 1197.4 1471.79 1181.62 1461.36 1168.73 1465.01 L 1168.46 1465.98 C 1177.02 1469.78 1186.53 1471.18 1195.34 1474.41 C 1200.44 1476.28 1208.87 1475.81 1212.89 1478.8 C 1212.31 1480.99 1210.92 1481.59 1209.02 1482.64 C 1207.94 1483.24 1206.73 1483.68 1205.59 1484.14 C 1201.55 1482.64 1197.53 1481.06 1193.46 1479.66 C 1182.15 1475.3 1169.96 1470.68 1157.69 1470.94 C 1159.58 1464.1 1167.61 1460.9 1173.47 1457.52 z"/>
<path transform="translate(0,0)" fill="rgb(230,228,205)" d="M 867.285 1540.15 C 893.255 1549.25 919.821 1556.98 946.15 1564.98 C 944.638 1578.14 941.948 1593.7 944.576 1606.82 C 946.151 1614.67 949.771 1622.83 950.35 1630.79 C 950.797 1636.93 945.156 1635.89 942.554 1640.15 C 939.552 1645.06 940.424 1652.67 936.435 1656.79 C 935.23 1658.03 932.943 1657.61 931.285 1657.66 C 918.866 1661.12 908.022 1672.44 896.864 1679.08 C 887.185 1645.12 881.298 1611.24 874.761 1576.61 C 872.459 1564.42 869.534 1552.35 867.285 1540.15 z"/>
<path transform="translate(0,0)" fill="rgb(250,243,234)" d="M 1478.34 958.69 C 1481.21 977.381 1478.4 987.99 1487.65 1005.63 C 1478.26 1023.81 1464.86 1039.36 1453.9 1056.54 C 1446.1 1068.75 1440.66 1082.57 1431.6 1093.98 C 1427.43 1099.23 1421.79 1103.96 1416.53 1108.09 C 1411.59 1111.96 1404.91 1116 1398.38 1115.17 L 1396.96 1112.61 C 1391.2 1100.31 1382.49 1084.85 1381.6 1071.29 C 1382.17 1070.9 1383.01 1070.34 1383.5 1069.89 C 1383.51 1069.88 1385.05 1068.22 1385.11 1068.04 C 1386.34 1064.01 1386.89 1030.38 1387.07 1024.12 C 1393.22 1022.83 1399.42 1021.6 1405.44 1019.79 C 1438.84 1009.73 1461.98 988.898 1478.34 958.69 z"/>
<path transform="translate(0,0)" fill="rgb(250,243,234)" d="M 467.655 1373.31 C 496.226 1369.16 513.928 1360.19 538.137 1345.23 C 548.496 1338.83 558.826 1332.57 570.36 1328.49 C 591.837 1320.88 615.333 1319.95 636.118 1329.88 C 617.487 1326.31 603.534 1326.48 584.845 1330.61 C 580.153 1331.64 574.224 1332.51 569.936 1334.78 C 567.799 1335.92 566.765 1336.57 566.095 1338.97 C 570.302 1342.06 577.236 1339.38 581.984 1338.44 C 601.28 1334.65 619.118 1334.68 638.508 1337.41 C 636.126 1339.83 634.124 1342.56 632.05 1345.24 C 620.817 1344.7 576.628 1345.8 568.113 1350.85 C 567.29 1352.61 566.929 1353.4 567.159 1355.41 C 567.382 1357.36 567.197 1356.68 568.955 1357.94 C 571.49 1357.07 573.943 1356.97 576.59 1356.79 C 577.356 1359.12 577.936 1361.56 579.45 1363.53 C 577.373 1364.01 575.432 1364.43 573.317 1364.66 C 571.588 1364.85 570.479 1365.88 569.11 1366.85 L 568.708 1368.59 C 571.067 1370.78 576.177 1370.77 579.308 1370.67 C 584.603 1370.49 590.458 1368.55 595.624 1367.32 L 598.971 1368.34 C 599.841 1370.08 599.93 1370.97 599.793 1372.89 C 565.544 1377.19 521.493 1408.33 498.053 1432.55 C 481.904 1436.87 466.164 1442.39 449.888 1446.38 C 457.135 1422.21 462.438 1397.97 467.655 1373.31 z"/>
<path transform="translate(0,0)" fill="rgb(230,228,205)" d="M 1139.86 1391.93 C 1148.74 1394.02 1157.72 1397.67 1166.4 1400.53 L 1221.9 1418.88 C 1208.93 1424 1196.38 1430.81 1183.91 1437.07 C 1150.44 1453.87 1118.04 1472.15 1083.84 1487.52 C 1053.99 1480.35 1024.44 1466.14 994.01 1462.06 C 1014.33 1451.53 1035.86 1443.04 1056.53 1433.16 L 1067.76 1425.22 C 1083.17 1431.31 1096.44 1436.54 1109.43 1447.18 C 1104.91 1449.01 1100.56 1451.19 1096.18 1453.33 C 1093.01 1451.28 1092.29 1450.43 1088.42 1450.43 L 1089.04 1451.29 C 1082.95 1451.05 1076.49 1451.05 1070.51 1449.82 C 1066.19 1448.93 1061.77 1447.21 1057.39 1446.8 C 1054.5 1446.53 1051.7 1447.32 1049.63 1449.38 C 1048.44 1450.56 1048.81 1450.95 1048.8 1452.49 C 1052.47 1457.82 1060.73 1460.49 1066.76 1462.32 C 1071.04 1463.62 1075.49 1465.17 1079.64 1462.96 C 1079.54 1461.14 1079.6 1460.02 1080.26 1458.31 C 1085.39 1455.76 1092.37 1459.25 1097.44 1460.92 C 1106.15 1454.78 1123.9 1450.97 1127.96 1446.92 C 1129.26 1445.63 1128.89 1445.18 1128.96 1443.46 C 1127.26 1440.69 1125.06 1439.47 1122.34 1437.75 L 1121.15 1437.01 C 1123.17 1437.45 1125.01 1437.81 1126.9 1438.65 C 1133.1 1441.4 1142.41 1445.32 1149.25 1444.93 C 1149.81 1444.9 1150.38 1444.83 1150.95 1444.78 L 1148.29 1445.07 L 1150.69 1445.04 L 1150.35 1443.62 L 1149.68 1444.49 L 1145.68 1443.21 C 1143.15 1439.8 1092.75 1420.75 1084.69 1417.46 A 685.947 685.947 0 0 0 1139.86 1391.93 z"/>
<path transform="translate(0,0)" fill="rgb(0,0,0)" d="M 1157.72 1409.5 C 1167.22 1408.96 1177.75 1410.36 1185.99 1415.54 L 1186.21 1417.28 C 1185.86 1417.55 1185.52 1417.84 1185.16 1418.09 C 1179.85 1421.91 1172.68 1420.97 1166.81 1422.91 C 1159.05 1425.47 1149.46 1435.16 1140.76 1433.37 C 1136.26 1433.12 1132.16 1433.1 1128.13 1430.85 C 1121.45 1427.11 1114.45 1423.83 1107.7 1420.18 C 1123.52 1412.96 1140.57 1410.88 1157.72 1409.5 z"/>
<path transform="translate(0,0)" fill="rgb(230,228,205)" d="M 1127.83 1419.32 C 1135.84 1418.91 1145.13 1422.91 1152.87 1425.08 L 1152.49 1426.17 L 1149.48 1426.39 L 1150.66 1426.53 L 1146.68 1426.66 C 1144.81 1425.86 1144.07 1425.7 1141.99 1425.88 C 1136.29 1426.36 1126.16 1423.95 1121.04 1421.16 C 1122.59 1419.35 1125.49 1419.62 1127.83 1419.32 z"/>
<path transform="translate(0,0)" fill="rgb(250,243,234)" d="M 963.029 1518.09 C 966.918 1517.94 972.279 1517.21 975.495 1519.94 C 978.102 1522.16 978.349 1524.98 978.672 1528.15 C 978.936 1530.73 979.24 1532.75 980.102 1535.19 C 986.251 1540.27 996.956 1535.45 1004.7 1537.84 C 1016.02 1541.32 1025.2 1549.48 1030.55 1559.91 C 1034.42 1567.46 1037.12 1576.83 1037 1585.31 C 1036.75 1604.21 1024.31 1633.8 1018.15 1652.49 L 1014.92 1661.43 C 999.262 1645.59 980.077 1640.3 959.119 1634.81 C 955.462 1620.84 950.863 1606.89 951.129 1592.32 C 951.383 1578.47 954.15 1534.39 959.454 1522.44 C 960.23 1520.69 961.682 1519.39 963.029 1518.09 z"/>
<path transform="translate(0,0)" fill="rgb(230,228,205)" d="M 879.752 1426.81 C 889.076 1430.79 898.929 1433.07 908.467 1436.43 C 913.858 1438.33 919.054 1440.81 924.476 1442.73 C 930.564 1444.89 937.253 1446.57 942.754 1449.99 L 942.886 1451.19 C 935.868 1453.65 922.576 1445.5 914.956 1444.28 C 910.242 1443.53 902.229 1443.28 898.254 1446.35 C 896.435 1447.76 896.084 1447.8 895.786 1450.15 C 901.858 1453.32 930.556 1459.84 937.871 1460.7 C 943.252 1461.33 947.787 1455.08 951.692 1451.99 C 959.271 1450.67 972.751 1458.17 979.909 1461.15 C 967.882 1468.81 925.704 1484.24 919.995 1492 C 928.541 1492.27 941.825 1484.07 949.645 1480.4 C 960.992 1481.36 974.138 1488.75 982.448 1484.97 L 982.645 1489.36 C 971.813 1492.02 962.874 1496.61 953.088 1501.76 A 1539.05 1539.05 0 0 1 952.053 1520.76 C 951.86 1520.74 951.667 1520.71 951.474 1520.68 C 930.179 1517.93 849.69 1492.98 830.777 1481.78 C 821.7 1476.41 811.258 1464.85 802.922 1457.58 A 2371.14 2371.14 0 0 1 879.752 1426.81 z"/>
<path transform="translate(0,0)" fill="rgb(0,0,0)" d="M 871.407 1452.24 C 889.209 1457.58 906.216 1465.02 924.23 1469.96 C 916.012 1472.75 908.16 1475.73 900.321 1479.46 C 897.631 1480.3 893.912 1481.81 891.107 1481.57 C 883.366 1480.9 868.037 1470.99 855.408 1468.25 C 852.344 1467.59 852.356 1467.59 850.787 1465.03 C 853.466 1458.93 865.345 1455.22 871.407 1452.24 z"/>
<path transform="translate(0,0)" fill="rgb(230,228,205)" d="M 1024.89 1483.31 C 1024.98 1482.82 1025.09 1482.33 1025.17 1481.84 C 1025.45 1480.04 1025.37 1478.7 1025.15 1476.91 C 1039.93 1474.58 1063.99 1487.1 1078.5 1491.22 C 1065.44 1497.83 1013.66 1517.18 1007.5 1526.84 C 1017.01 1527.88 1072.13 1500 1084.52 1494.06 C 1115.98 1504.68 1147.78 1514.28 1179.38 1524.44 C 1169.77 1525.82 1158.79 1531.09 1150.04 1535.32 L 1150.66 1536.44 C 1161.69 1539.1 1177.06 1529.79 1188.51 1527.59 C 1193.73 1529.58 1198.94 1531.81 1204.36 1533.2 C 1186.61 1542.06 1168.58 1549.99 1150.68 1558.5 C 1140.9 1563.15 1131.17 1569.35 1120.89 1572.75 A 724.673 724.673 0 0 0 1089.32 1562.25 C 1100.24 1557.13 1162.11 1528.63 1166.5 1523.89 C 1163.95 1522.42 1160 1522.69 1157.15 1523.5 C 1143.94 1527.24 1098.6 1553.03 1086.07 1561.23 C 1070.84 1556.6 1055.81 1551.95 1040.21 1548.65 C 1037.74 1548.13 1033.7 1547.75 1031.53 1546.46 C 1029.71 1545.37 1028.35 1542.41 1027.32 1540.6 C 1019.77 1536.49 1008.63 1528.57 1000.03 1528.95 C 996.105 1529.13 990.084 1530.17 986.472 1528.7 C 986.522 1528.33 986.579 1527.97 986.621 1527.6 C 987.128 1523.17 986.344 1520.55 984.576 1516.53 C 990.254 1510.15 1009.57 1508.94 1011.73 1500.44 C 1011.79 1499.68 1011.84 1498.57 1012.07 1497.87 C 1012.98 1495.03 1015.2 1494.15 1017.52 1492.6 L 1021.94 1488.35 C 1022.52 1486.58 1023.89 1484.88 1024.89 1483.31 z"/>
<path transform="translate(0,0)" fill="rgb(0,0,0)" d="M 1057.88 1538.34 C 1061.92 1537.86 1065.35 1537.18 1069.1 1539.26 L 1069.07 1540.69 C 1065.81 1542.42 1063.12 1542.15 1059.5 1542.02 C 1053.63 1542.18 1047.76 1541.94 1041.9 1541.77 C 1047.23 1540.27 1052.41 1539.2 1057.88 1538.34 z"/>
<path transform="translate(0,0)" fill="rgb(0,0,0)" d="M 1106.59 1516.13 C 1106.73 1516.12 1106.86 1516.1 1106.99 1516.12 C 1111.15 1516.52 1116.88 1516.83 1119.58 1520.24 C 1117.74 1522.83 1116.29 1523.04 1113.41 1524.24 C 1110.65 1524.33 1107.63 1523.77 1104.99 1523 C 1102.46 1522.26 1101.07 1521.82 1099.84 1519.46 C 1101.94 1517.23 1103.7 1517.04 1106.59 1516.13 z"/>
<path transform="translate(0,0)" fill="rgb(0,0,0)" d="M 1102.52 1508.98 C 1104.29 1508.67 1105.65 1508.45 1107.46 1508.62 C 1111.74 1509.01 1122.05 1511.4 1124.6 1514.8 L 1123.75 1516.29 C 1119.2 1517.74 1109.2 1513.83 1104.29 1512.58 C 1099.53 1515.75 1095.18 1518.31 1089.83 1520.43 C 1094.33 1521.35 1102.39 1522.36 1105.05 1526.34 C 1103.72 1528.45 1102.05 1528.47 1099.76 1529.25 C 1095.7 1530.07 1091.74 1531.49 1087.65 1532.18 C 1082.97 1532.97 1066.6 1531.64 1063.07 1529.15 C 1065.2 1524.36 1095.63 1512.71 1102.52 1508.98 z"/>
<path transform="translate(0,0)" fill="rgb(250,243,234)" d="M 424.6 972.678 C 430.355 978.11 434.653 986.919 439.832 993.144 C 455.77 1012.3 474 1028.33 494.826 1041.93 C 493.181 1050.11 487.15 1081.4 489.814 1087.61 C 493.027 1088.02 494.146 1084.36 497.539 1083.54 C 499.4 1085.24 500.356 1087.4 500.96 1089.82 C 504.831 1105.35 488.958 1127.77 481.71 1140.65 A 168.419 168.419 0 0 1 474.603 1135.82 C 433.315 1106.14 401.026 1069.3 392.86 1018 C 409.045 1004.66 416.304 991.613 424.6 972.678 z"/>
<path transform="translate(0,0)" fill="rgb(166,163,150)" d="M 1546.94 1587.67 C 1588.04 1618.25 1632.39 1645.89 1675.89 1672.94 L 1673.89 1678.39 C 1670.93 1689.05 1667.51 1700.67 1661.05 1709.79 C 1656.97 1715.55 1651.5 1719.99 1644.33 1720.94 C 1613.49 1725.02 1548.16 1660.17 1524.07 1642.43 L 1522.82 1641.52 C 1530.43 1625.17 1537.06 1608.24 1545.2 1592.16 L 1546.94 1587.67 z"/>
<path transform="translate(0,0)" fill="rgb(250,243,234)" d="M 1546.94 1587.67 C 1588.04 1618.25 1632.39 1645.89 1675.89 1672.94 L 1673.89 1678.39 C 1660.19 1668.75 1645.1 1660.59 1630.9 1651.66 A 1682.25 1682.25 0 0 1 1574.71 1614.04 C 1565 1607.34 1553.38 1600.63 1545.2 1592.16 L 1546.94 1587.67 z"/>
<path transform="translate(0,0)" fill="rgb(173,205,201)" d="M 184.138 1516.72 C 207.134 1525.32 234.811 1523.26 258.894 1521.89 A 420.44 420.44 0 0 1 256.832 1544.97 C 268.677 1552.3 284.303 1555.95 297.553 1560.25 C 319.37 1567.32 341.346 1574.08 362.954 1581.77 C 330.283 1576.83 302.645 1573.23 270.595 1583.85 C 263.668 1586.58 257.261 1589.82 251.151 1594.1 C 223.299 1613.64 210.973 1640.04 205.201 1672.8 C 170.982 1619.46 173.041 1575.98 184.138 1516.72 z"/>
<path transform="translate(0,0)" fill="rgb(0,0,0)" d="M 202.992 1522.31 C 208.705 1526.29 207.45 1534.62 207.721 1540.88 C 208.417 1556.95 209.397 1571.89 213.491 1587.54 C 215.915 1596.8 219.628 1606.27 221.408 1615.62 C 222.001 1618.74 221.499 1619.51 219.645 1622 C 214.959 1619.5 213.667 1615.29 211.839 1610.56 C 204.411 1591.35 194.558 1541.27 202.992 1522.31 z"/>
<path transform="translate(0,0)" fill="rgb(230,228,205)" d="M 488.904 1443.22 L 489.461 1444.09 C 481.446 1459.73 469.642 1474.78 459.976 1489.55 A 2331.71 2331.71 0 0 0 417.623 1557.7 C 384.794 1544.59 351.467 1532.96 318.192 1521.05 A 1929.76 1929.76 0 0 0 279.104 1506.74 C 312.964 1495.95 346.338 1483.03 380.469 1473.24 C 403.877 1466.53 427.568 1460.38 451.071 1453.98 C 463.714 1450.54 476.556 1447.62 488.904 1443.22 z"/>
<path transform="translate(0,0)" fill="rgb(166,163,150)" d="M 1577.32 1524.85 C 1601.18 1536.22 1635.05 1560.2 1658.39 1575.4 C 1665.23 1579.85 1673.65 1587.3 1681.14 1590.04 L 1682.49 1597.28 C 1686.59 1627.29 1682.4 1644 1675.89 1672.94 C 1632.39 1645.89 1588.04 1618.25 1546.94 1587.67 C 1557.77 1569.31 1564.02 1548.16 1575.13 1529.7 L 1577.32 1524.85 z"/>
<path transform="translate(0,0)" fill="rgb(250,243,234)" d="M 1577.32 1524.85 C 1601.18 1536.22 1635.05 1560.2 1658.39 1575.4 C 1665.23 1579.85 1673.65 1587.3 1681.14 1590.04 L 1682.49 1597.28 C 1675.71 1596.33 1594.22 1538.41 1575.13 1529.7 L 1577.32 1524.85 z"/>
<path transform="translate(0,0)" fill="rgb(117,126,129)" d="M 716.105 1906.65 C 758.427 1897.07 799.968 1879.94 843.282 1874.92 C 854.819 1873.59 866.662 1875.78 878.252 1875.03 C 887.027 1874.46 897.341 1870.96 905.875 1873.09 C 937.135 1880.86 962.915 1908.2 978.618 1934.98 C 956.139 1934.52 933.05 1937.07 910.598 1938.51 A 2793.18 2793.18 0 0 1 822.529 1942.72 A 1208.5 1208.5 0 0 1 753.129 1943.13 C 739.68 1942.83 725.825 1941.61 712.399 1942.09 C 714.682 1930.56 715.201 1918.36 716.105 1906.65 z"/>
<path transform="translate(0,0)" fill="rgb(159,124,112)" d="M 386.997 699.318 C 392.824 698.714 399.027 698.934 404.844 699.594 C 424.624 701.836 441.399 712 453.755 727.461 C 423.896 739.927 400.156 757.555 381.975 784.628 C 360.629 816.414 353.774 852.201 361.264 889.523 C 353.869 898.177 345.412 904.337 335.697 910.158 C 319.777 917.12 305.223 917.54 288.087 916.686 C 296.923 912.736 304.49 908.423 310.324 900.364 C 330.747 872.151 307.236 840.799 302.584 811.795 A 96.4363 96.4363 0 0 1 320.313 739.113 C 336.762 716.985 359.847 703.345 386.997 699.318 z"/>
<path transform="translate(0,0)" fill="rgb(250,243,234)" d="M 891.885 1160.52 C 897.11 1165.61 901.151 1175.7 904.002 1182.44 C 909.548 1195.55 914.631 1211.03 913.309 1225.48 C 912.444 1234.95 899.93 1259.73 901.994 1266.28 C 905.559 1268.59 910.758 1266.93 914.977 1268.22 C 918.508 1269.3 921.682 1271.85 923.238 1275.23 C 925.382 1279.87 925.003 1285.59 922.954 1290.18 C 919.44 1298.06 913.825 1299.97 906.269 1302.77 C 902.869 1319.16 893.066 1344.02 885.299 1359.06 C 880.186 1368.96 872.132 1381 860.93 1384.25 C 846.114 1388.55 833.421 1373.88 821.527 1367.51 C 821.184 1367.33 820.836 1367.15 820.491 1366.97 C 809.506 1380.94 794.335 1399.94 778.498 1408.64 C 775.736 1408.08 774.566 1406.02 772.66 1404.02 C 752.305 1380.12 742.522 1374.6 717.507 1357.12 C 757.855 1356.97 749.594 1344.02 775.021 1328.02 C 775.357 1327.81 775.702 1327.61 776.043 1327.4 C 772.755 1315.77 771.209 1305.74 777.057 1294.4 C 779.953 1288.79 784.634 1284.2 790.751 1282.3 C 801.283 1279.03 810.222 1284.64 819.051 1289.58 C 825.366 1283.04 825.816 1274.75 830.759 1267.4 C 856.532 1229.07 882.676 1209.44 891.885 1160.52 z"/>
<path transform="translate(0,0)" fill="rgb(0,0,0)" d="M 815.186 1291.55 L 816.368 1292.06 C 818.313 1299.57 811.055 1309.24 813.188 1316.81 C 815.11 1323.62 822.265 1328.55 822.652 1336.06 C 821.389 1338.65 821.187 1338.4 818.45 1339.45 C 816.04 1338.44 814.309 1337.52 812.72 1335.35 C 806.485 1326.81 803.005 1316.66 805.09 1306.07 C 806.435 1299.24 809.481 1295.34 815.186 1291.55 z"/>
<path transform="translate(0,0)" fill="rgb(166,163,150)" d="M 1808.41 1447.66 C 1842.17 1459.3 1862.91 1471.09 1879.02 1504.49 A 225.4 225.4 0 0 1 1882.89 1512.96 L 1884.75 1518.23 C 1835.96 1549.45 1743.58 1574.17 1686.78 1580.26 L 1685.01 1575.95 C 1684.62 1571.41 1683.19 1567.14 1681.81 1562.81 C 1670.7 1527.94 1644.91 1499.96 1612.74 1483.19 C 1636.25 1472.8 1660.99 1462.47 1685.84 1455.82 C 1694.8 1458.31 1703.46 1462.28 1712.31 1465.22 C 1736.28 1473.16 1758.92 1474.84 1783.91 1472.28 L 1783.56 1474.01 L 1784.86 1474.59 C 1791.45 1473.86 1800.5 1473.67 1805.32 1468.54 C 1810.76 1462.75 1809.21 1454.74 1808.41 1447.66 z"/>
<path transform="translate(0,0)" fill="rgb(250,243,234)" d="M 1685.01 1575.95 C 1688.93 1572.84 1708.48 1571.01 1714.77 1569.85 A 842.376 842.376 0 0 0 1783.17 1553.96 C 1806.44 1547.47 1830.1 1539.29 1851.94 1528.93 C 1862.09 1524.12 1871.59 1517.98 1881.85 1513.41 L 1882.89 1512.96 L 1884.75 1518.23 C 1835.96 1549.45 1743.58 1574.17 1686.78 1580.26 L 1685.01 1575.95 z"/>
<path transform="translate(0,0)" fill="rgb(250,243,234)" d="M 521.31 1055.11 A 337.921 337.921 0 0 0 546.505 1061.99 C 568.281 1082.95 594.607 1118.11 607.498 1145.2 C 607.732 1147.84 607.44 1148.81 609.116 1150.97 C 613.126 1156.14 609.978 1170.17 609.009 1176.41 C 608.823 1177.61 608.489 1178.47 607.883 1179.52 L 606.96 1179.4 C 607.077 1174.53 607.115 1170.25 605.895 1165.48 C 605.435 1165.01 605.073 1164.36 604.457 1164.13 C 602.367 1163.72 601.134 1163.83 599.066 1164.32 C 597.055 1167.28 598.333 1192.19 598.026 1198.38 C 596.193 1235.38 595.712 1280.75 583.098 1315.4 A 175.845 175.845 0 0 0 544.048 1332.4 C 529.991 1340.79 516.833 1350.57 501.66 1356.94 C 508.326 1341.37 517.951 1325.67 528.935 1312.78 C 542.379 1297 563.653 1281.38 571.943 1262.3 C 574.781 1255.77 575.592 1248.12 575.95 1241.06 C 576.728 1225.7 576.564 1149.64 568.178 1140.3 L 566.722 1140.54 C 564.692 1143.69 564.338 1145.46 564.648 1149.21 C 567.009 1177.73 573.566 1226.44 566.504 1254.16 C 560.898 1276.17 534.35 1292.66 520.63 1310.27 C 508.778 1325.48 500.379 1341.91 492.954 1359.59 C 476.69 1363.39 460.134 1363.7 443.525 1363.98 C 457.579 1338.82 489.04 1289.55 493.865 1263.04 C 496.972 1245.97 495.59 1225.79 494.376 1208.48 C 492.992 1188.74 491.217 1168.64 485.947 1149.52 A 3430.59 3430.59 0 0 0 505.028 1112.37 C 512.056 1123.09 526.288 1145.19 536.977 1151.62 C 539.297 1153.02 540.418 1153.11 542.958 1152.42 C 543.785 1151.33 543.964 1151.23 544.521 1149.77 C 546.463 1144.69 544.322 1136.42 543.425 1131.13 C 538.458 1101.8 531.075 1082.54 521.31 1055.11 z"/>
<path transform="translate(0,0)" fill="rgb(250,243,234)" d="M 1193.52 1240.38 C 1261.66 1233.05 1318.3 1296.81 1379.71 1318.13 C 1402.8 1326.15 1434.95 1325.6 1459.42 1328.25 C 1486.59 1331.2 1511.2 1341.25 1528.81 1363.11 C 1529.49 1376.61 1528.89 1392.51 1526.59 1405.85 C 1523.21 1394 1521.73 1376.35 1514.68 1366.33 C 1510.78 1360.8 1497.73 1352.64 1491.14 1351.6 L 1489.89 1352.78 C 1492.03 1363 1506.96 1364.55 1510.86 1375.41 C 1513.21 1381.98 1522.3 1416.87 1520.25 1421.04 L 1518.57 1421.2 C 1512.64 1410.92 1508.78 1400.24 1501.82 1390.36 C 1496.9 1383.35 1486.36 1369.95 1477.56 1368.38 L 1476.55 1369.74 C 1476.86 1373.3 1477.99 1374.72 1480.27 1377.41 A 91.0697 91.0697 0 0 1 1486.81 1383.62 C 1495.22 1392.33 1510.72 1412.8 1510.54 1425.35 C 1503.33 1429.28 1474.31 1387.21 1462.04 1384.56 C 1460.38 1384.2 1460.82 1384.45 1459.28 1385.67 C 1458.55 1393.21 1473.45 1403.5 1477.37 1411.13 C 1478.94 1414.16 1478.95 1415.88 1477.81 1419.03 C 1475.5 1420.3 1474.59 1420.48 1471.99 1419.85 C 1462.71 1417.59 1451.79 1407.68 1443.41 1402.64 C 1431.29 1395.34 1418.28 1389.66 1405.97 1382.72 C 1396 1377.1 1386.91 1370.06 1376.4 1365.42 C 1362.91 1359.46 1347.51 1356.3 1333.3 1352.36 C 1282.34 1338.24 1163.47 1312.73 1136.71 1267.83 C 1138.16 1265.66 1139.65 1263.32 1141.41 1261.38 C 1153.93 1247.55 1175.7 1242 1193.52 1240.38 z"/>
<path transform="translate(0,0)" fill="rgb(216,128,123)" d="M 1031.87 1333.14 C 1036.21 1332.72 1039.75 1333.01 1043.95 1334.14 C 1092.74 1347.17 1140.92 1363.67 1189.31 1378.19 A 6222.62 6222.62 0 0 0 1445.72 1450.72 C 1428.94 1460.39 1410.4 1467.93 1392.94 1476.39 L 1291.46 1525.85 A 6444.69 6444.69 0 0 0 1183.11 1579.24 C 1163.44 1589.23 1144.22 1600.2 1124.31 1609.69 C 1097.83 1604.11 1071.43 1595.14 1045.45 1587.54 C 1045.26 1574.39 1040.93 1564.27 1034.86 1552.87 C 1063.26 1558.35 1094.42 1568.85 1121.16 1580.22 L 1205.25 1539.54 A 5886.41 5886.41 0 0 1 1320.32 1484.61 C 1334.77 1477.74 1360.03 1468.05 1372.13 1458.38 L 1371.8 1456.76 C 1360.69 1448.7 1274.01 1428.44 1254.92 1422.83 C 1204.82 1408.1 1155.16 1391.43 1105.52 1375.24 C 1083.86 1368.18 1060.63 1358.28 1038.38 1353.76 C 1027.7 1356.98 1017.08 1362.58 1006.7 1366.81 C 987.428 1374.65 967.744 1381.48 948.515 1389.43 C 925.817 1398.81 808.151 1452.89 796.161 1450.47 C 792.274 1444.92 790.469 1436.9 788.088 1430.48 C 837.108 1409.33 887.264 1390.66 936.879 1370.96 C 968.329 1358.47 999.809 1343.83 1031.87 1333.14 z"/>
<path transform="translate(0,0)" fill="rgb(159,124,112)" d="M 1414.25 696.383 C 1423.25 695.611 1433.33 696.611 1442.07 698.846 C 1468.87 705.701 1470.65 718.992 1482.73 738.815 L 1483.23 739.627 C 1496.22 740.629 1506.59 742.846 1517.04 751.328 C 1538.09 768.414 1548.93 795.564 1551.59 821.925 C 1555.71 862.642 1546.21 888.918 1520.72 920.448 C 1524.74 910.29 1528.79 898.142 1528.12 887.091 C 1527.68 879.629 1524.73 871.827 1518.77 867.03 C 1514.54 863.626 1509.41 862.532 1504.11 863.375 C 1492.09 865.285 1484.1 873.839 1477.09 882.98 C 1460.83 862.525 1452.86 847.459 1450.4 821.103 C 1449.01 809.737 1450.19 797.311 1452.32 786.09 C 1457.42 781.112 1466.91 774.724 1469.25 768.029 C 1469.76 766.562 1469.52 766.928 1468.64 765.412 C 1463.11 766.52 1430.25 792.722 1421.15 798.345 C 1388.5 818.505 1356.7 819.5 1319.88 810.654 C 1291.85 803.92 1273.53 794.682 1258.11 769.531 C 1317.6 759.878 1352.57 702.766 1414.25 696.383 z"/>
<path transform="translate(0,0)" fill="rgb(159,124,112)" d="M 484.541 728.33 C 490.232 727.753 495.883 727.444 501.606 727.593 C 526.073 728.23 553.675 736.264 575.051 748.109 C 584.069 753.106 592.786 759.48 602.235 763.575 C 608.924 766.475 616.546 767.89 623.494 770.212 C 640.264 775.815 658.654 787.389 670.776 800.266 C 679.278 809.298 685.905 821.645 685.144 834.357 C 684.005 853.361 667.809 870.587 654.58 882.824 C 657.311 863.51 658.126 843.364 649.271 825.438 C 640.236 807.148 622.328 791.846 603.069 785.331 C 586.041 811.581 570.133 826.229 543.335 842.557 C 523.292 853.912 500.512 862.719 477.888 867.169 C 466.835 869.343 455.575 870.36 444.482 872.367 C 446.201 880.98 447.833 889.367 448.306 898.163 C 443.196 889.02 438.375 881.476 428.197 877.253 C 420.441 874.035 411.528 873.576 403.805 877.143 C 396.202 880.655 390.833 887.724 388.395 895.624 C 383.796 910.522 389.597 922.787 396.156 935.82 C 379.852 917.92 369.546 896.728 366.235 872.679 C 361.877 841.028 374.813 805.602 393.737 780.571 C 415.971 751.162 448.307 733.426 484.541 728.33 z"/>
<path transform="translate(0,0)" fill="rgb(216,128,123)" d="M 1319.59 993.337 C 1330.15 1001.34 1336.87 1009.53 1349.01 1016.33 C 1339.69 1033.79 1323.04 1077.01 1326.16 1096.44 C 1326.58 1099.04 1327.19 1099.94 1329.23 1101.51 C 1331.54 1101.56 1333.21 1101.18 1335.24 1100 C 1351.06 1090.83 1354.91 1084.09 1373.88 1078.03 A 340.851 340.851 0 0 0 1390.3 1115.56 C 1384.63 1128.45 1383.98 1145.1 1382.58 1159.04 C 1380.31 1181.59 1377.95 1204.35 1377.66 1227.03 C 1377.3 1255.06 1379.72 1283.48 1382.36 1311.36 C 1359.94 1302.38 1338.7 1290.11 1317.71 1278.29 C 1304.85 1233.02 1297.78 1174.38 1294.87 1127.53 C 1292.72 1111.35 1292.86 1094.35 1293.38 1078.06 C 1293.6 1071.35 1294.57 1064.22 1294.2 1057.55 C 1294.08 1055.27 1293.45 1053.98 1292.02 1052.26 L 1290.57 1053.08 C 1279.43 1079.98 1291.11 1176.65 1296.07 1207.16 C 1288.69 1212.96 1282.52 1219.92 1276.17 1226.8 C 1273.82 1216.04 1269.44 1207.56 1261.2 1200.04 C 1238.38 1179.22 1201.9 1169.5 1171.65 1170.67 C 1184.87 1149.12 1199.86 1128.62 1213.67 1107.44 C 1233.79 1076.59 1255.15 1033.2 1283.51 1009.83 C 1294.05 1001.14 1306.78 997.347 1319.59 993.337 z"/>
<path transform="translate(0,0)" fill="rgb(250,243,234)" d="M 1443.92 791.999 C 1444.35 797.377 1443.33 803.633 1443.16 809.089 C 1442.6 827.63 1444.69 846.005 1453.19 862.709 C 1456.37 868.963 1463.17 883.214 1470.33 885.12 C 1471.87 885.53 1473.25 885.925 1474.75 886.467 C 1474.26 889.372 1473.33 892.352 1474.54 895.157 L 1476.75 895.878 C 1483.83 891.117 1485.68 879.323 1495.54 873.671 C 1500.83 870.641 1506.42 870.043 1512.29 871.872 C 1516.07 873.05 1518.84 876.28 1520.42 879.814 C 1525.31 890.758 1520.37 906.847 1515.79 917.355 C 1512.96 923.825 1509.45 929.264 1502.49 931.682 C 1495.83 934.001 1490.44 931.769 1484.41 928.875 C 1480.16 936.233 1477.09 944.43 1473.4 952.098 C 1463.53 972.601 1449.43 989.147 1429.7 1000.71 C 1409.24 1012.7 1384.91 1019.7 1361.49 1013.45 A 84.3543 84.3543 0 0 1 1336.58 998.163 C 1308.47 973.758 1297.36 939.381 1294.74 903.233 C 1293.93 892.052 1291.74 836.248 1297.29 829.811 C 1304.98 827.02 1312.18 836.436 1320.19 837.187 L 1321.06 835.894 C 1320.37 834.062 1319.69 832.553 1318.54 830.946 C 1312.62 822.609 1306.86 820.114 1297.25 818.296 C 1295.54 816.176 1296.38 812.383 1296.5 809.635 C 1306.24 814.109 1316.68 817.165 1327.16 819.32 C 1376.31 829.425 1403.26 818.867 1443.92 791.999 z"/>
<path transform="translate(0,0)" fill="rgb(0,0,0)" d="M 1305.22 868.624 C 1307.25 870.204 1308.39 872.019 1309.29 874.409 C 1312.29 882.349 1309.85 890.891 1306.59 898.322 C 1305.35 897.985 1304.22 897.376 1303.05 896.838 C 1302.11 895.547 1301.44 894.437 1301.13 892.843 C 1299.76 885.599 1301.27 874.917 1305.22 868.624 z"/>
<path transform="translate(0,0)" fill="rgb(0,0,0)" d="M 1388.59 873.3 C 1388.79 873.389 1389.01 873.449 1389.2 873.567 C 1392.4 875.555 1393.38 878.916 1394.08 882.462 C 1395.5 889.649 1395.22 897.327 1391.2 903.587 C 1390.67 903.397 1390.11 903.26 1389.6 903.018 C 1387.15 901.866 1385.91 900.639 1385.09 898.071 C 1382.65 890.367 1384.67 880.134 1388.59 873.3 z"/>
<path transform="translate(0,0)" fill="rgb(0,0,0)" d="M 1337.01 880.42 C 1337.83 881.056 1338.29 881.228 1338.71 882.138 C 1343.68 892.987 1330.75 908.713 1327.86 918.682 C 1328.99 921.07 1330.55 921.078 1332.9 922.05 C 1332.64 924.43 1330.93 925.128 1329.18 926.645 C 1326.66 925.86 1324.5 924.946 1322.15 923.787 C 1320.93 921.824 1320.25 920.951 1320.88 918.499 C 1321.88 914.61 1326.46 910.403 1328.52 906.653 C 1333.13 898.255 1335 889.698 1337.01 880.42 z"/>
<path transform="translate(0,0)" fill="rgb(0,0,0)" d="M 1502.04 880.93 C 1504.08 880.882 1506.2 880.805 1508.2 881.255 C 1511.43 881.977 1513.61 883.53 1515.23 886.476 C 1517.19 890.065 1517.5 895.697 1516.21 899.535 C 1514.9 903.432 1511.46 906.983 1507.58 908.402 C 1505.27 909.249 1503.98 909.345 1501.75 908.388 C 1502.92 902.9 1508.75 902.642 1510.27 892.727 C 1510.06 892.467 1509.86 892.199 1509.64 891.948 C 1507.49 889.508 1506.34 888.724 1503.2 888.421 C 1496.47 893.036 1500.04 903.882 1496.35 910.508 L 1494.98 910.602 C 1494.23 909.89 1493.69 909.428 1493.04 908.682 C 1491.46 906.86 1490.99 905.115 1491.29 902.755 C 1491.77 899.046 1491.18 895.28 1490.84 891.566 C 1494.02 887.142 1497.47 883.888 1502.04 880.93 z"/>
<path transform="translate(0,0)" fill="rgb(0,0,0)" d="M 1400.16 829.027 C 1409.13 828.625 1416.73 831.714 1423.93 836.912 C 1430.46 841.618 1437.08 847.536 1438.35 855.827 C 1436.99 858.908 1435.42 859.483 1432.68 861.354 C 1420.72 847.384 1407.74 842.584 1390.71 837.255 C 1393.6 834.104 1396.76 831.608 1400.16 829.027 z"/>
<path transform="translate(0,0)" fill="rgb(0,0,0)" d="M 1414.07 929.227 C 1414.95 929.711 1415.81 930.107 1416.51 930.875 C 1419.61 934.276 1418.95 939.789 1418.41 943.938 C 1416.05 961.961 1406.28 981.88 1391.4 992.77 C 1382.95 998.951 1372.55 1003.19 1361.95 1001.3 C 1350.9 999.319 1343.06 991.601 1337.08 982.626 C 1331.06 971.179 1326.15 958.052 1322.55 945.643 C 1321.29 941.293 1319.48 936.391 1321.8 932.224 L 1323.75 931.933 C 1325.79 933.949 1327.75 935.814 1330.31 937.171 C 1350.07 947.67 1393.12 935.026 1414.07 929.227 z"/>
<path transform="translate(0,0)" fill="rgb(232,146,149)" d="M 1329.35 943.076 L 1344.27 945.63 A 682.841 682.841 0 0 1 1342.79 975.269 L 1341.63 975.188 C 1336.27 965.006 1332.73 954.039 1329.35 943.076 z"/>
<path transform="translate(0,0)" fill="rgb(232,146,149)" d="M 1404.03 939.252 L 1407.56 938.956 L 1409.12 940.368 C 1410.06 944.585 1409.64 948.075 1408.59 952.257 C 1404.81 967.351 1394.87 981.757 1381.21 989.423 C 1373.62 993.68 1366.04 995.139 1357.69 992.633 C 1354 990.326 1350.83 987.413 1347.56 984.565 C 1350.38 972.228 1350.87 959.715 1351.33 947.12 C 1369.16 947.153 1386.7 942.981 1404.03 939.252 z"/>
<path transform="translate(0,0)" fill="rgb(159,124,112)" d="M 1629.36 1126.71 C 1632.56 1147.74 1638.96 1164.48 1656.26 1177.79 C 1672.02 1189.92 1689.57 1193.64 1709.07 1191.03 C 1700.04 1220 1696.05 1248.16 1693.92 1278.34 C 1693.48 1284.51 1691.86 1293.72 1696.12 1298.63 C 1700.5 1297.64 1707.2 1289.77 1710.92 1286.62 C 1716.98 1281.48 1725.52 1275.18 1733.91 1276.26 C 1738.39 1276.84 1742.76 1280.23 1745.34 1283.82 C 1748.35 1288.03 1748.85 1293.09 1747.87 1298.07 C 1742.2 1327.08 1713.07 1331.49 1692.59 1345.34 C 1693.04 1347.91 1692.91 1347.88 1694.94 1349.48 C 1698.77 1350.02 1701.83 1348.64 1705.41 1347.4 C 1724.51 1369.33 1742.85 1390.37 1772.49 1396.01 C 1773.57 1410.41 1776.35 1427.56 1784.03 1440 C 1787.1 1444.97 1792.17 1450.66 1794.12 1456.05 C 1794.88 1458.16 1794.39 1458.55 1793.45 1460.43 C 1779.46 1469.78 1750.47 1466.01 1734.76 1463.75 C 1717.75 1460.61 1693.97 1448.45 1680.37 1448.42 C 1679.78 1448.42 1679.18 1448.43 1678.59 1448.43 C 1674.36 1434.7 1672.69 1401.7 1671.67 1386.13 C 1673.1 1384.12 1674.84 1381.99 1675.66 1379.65 C 1676.4 1377.52 1676.46 1377.46 1675.37 1375.42 C 1668.41 1374.35 1659.51 1381.67 1652.55 1383.12 C 1647.89 1384.1 1642.14 1383.66 1637.32 1383.64 C 1618.27 1383.56 1596.26 1382.98 1579.8 1372.1 C 1572.86 1367.51 1565.67 1360.25 1564.11 1351.73 C 1563.41 1347.9 1564.15 1344.59 1566.37 1341.41 C 1569.16 1337.42 1577.67 1345.55 1587.07 1343.52 C 1603.64 1339.94 1619.58 1324.77 1628.55 1310.92 C 1631.06 1307.05 1633.61 1303.37 1632.59 1298.75 C 1626.74 1293.4 1604.11 1299.01 1595.17 1297.69 C 1585.02 1296.19 1577.05 1292.55 1568.19 1287.58 C 1571.64 1259.36 1562.2 1259.27 1560.23 1237.56 C 1565.43 1229.83 1580.08 1229.9 1588.14 1225.02 C 1590.67 1223.48 1592.9 1221.64 1594.36 1219.04 C 1602.41 1204.67 1606.62 1185.52 1612.5 1169.97 C 1618.05 1155.3 1625.93 1142.18 1629.36 1126.71 z"/>
<path transform="translate(0,0)" fill="rgb(0,0,0)" d="M 1602.33 1219.58 C 1603.12 1219.58 1604.27 1219.52 1605.02 1219.76 C 1607.59 1220.58 1607.9 1221.75 1608.86 1223.99 C 1608.43 1229.46 1606.2 1232.37 1602.23 1236.02 C 1600.27 1235.44 1599.03 1234.67 1597.31 1233.61 C 1596.56 1232.26 1595.69 1231.34 1595.78 1229.73 C 1596.03 1225.19 1599.24 1222.47 1602.33 1219.58 z"/>
<path transform="translate(0,0)" fill="rgb(0,0,0)" d="M 1634.44 1228.44 C 1636.58 1229.04 1638.56 1229.76 1639.95 1231.6 C 1641.31 1233.38 1641.75 1235.49 1641.27 1237.66 C 1640.12 1242.81 1636.76 1244.92 1632.44 1247.4 C 1631.62 1247.2 1630.35 1246.94 1629.63 1246.56 C 1627.34 1245.38 1627.13 1244.32 1626.41 1242.06 C 1627.14 1236.2 1630.39 1232.5 1634.44 1228.44 z"/>
<path transform="translate(0,0)" fill="rgb(0,0,0)" d="M 1616.2 1176.76 C 1618.75 1177.36 1621.37 1177.96 1623.77 1179.02 C 1630.9 1182.18 1637.44 1187.34 1640.29 1194.7 C 1639.97 1198.09 1639.21 1198.22 1636.85 1200.52 C 1631.45 1196.51 1627.2 1191.64 1621.42 1187.92 C 1618.35 1185.94 1612.99 1183.91 1610.97 1180.99 C 1612 1178.55 1613.96 1178.05 1616.2 1176.76 z"/>
<path transform="translate(0,0)" fill="rgb(166,163,150)" d="M 1884.75 1518.23 C 1892.33 1540.53 1897.2 1565.47 1896.92 1589.11 L 1896.98 1596.87 C 1896.42 1626.49 1892.79 1655.46 1890.64 1684.92 C 1821.13 1715.92 1755.17 1738.26 1677.91 1735.89 C 1665.62 1735.51 1650.09 1735.69 1638.48 1731.58 C 1637.19 1731.12 1635.99 1730.48 1634.79 1729.83 C 1642.24 1728.78 1648.48 1728.35 1655.26 1724.57 C 1675.45 1713.33 1680.68 1683.64 1686.44 1663.14 L 1687.34 1658.52 C 1692.67 1630.86 1692.71 1607.81 1686.78 1580.26 C 1743.58 1574.17 1835.96 1549.45 1884.75 1518.23 z"/>
<path transform="translate(0,0)" fill="rgb(250,243,234)" d="M 1687.34 1658.52 C 1737.93 1654.95 1811.4 1629.83 1857.96 1609.27 C 1866.42 1605.53 1874.82 1601.18 1882.91 1596.67 C 1887.02 1594.38 1891.25 1591.26 1895.64 1589.58 C 1896.07 1589.42 1896.49 1589.27 1896.92 1589.11 L 1896.98 1596.87 L 1895.99 1597.28 C 1883.74 1602.4 1872.39 1609.58 1860.19 1614.9 A 674.13 674.13 0 0 1 1717.09 1659.55 C 1709.5 1661.05 1694.75 1665.85 1687.76 1663.76 C 1687.29 1663.62 1686.87 1663.38 1686.44 1663.14 L 1687.34 1658.52 z"/>
<path transform="translate(0,0)" fill="rgb(166,163,150)" d="M 1884.75 1518.23 C 1892.33 1540.53 1897.2 1565.47 1896.92 1589.11 C 1896.49 1589.27 1896.07 1589.42 1895.64 1589.58 C 1891.25 1591.26 1887.02 1594.38 1882.91 1596.67 C 1874.82 1601.18 1866.42 1605.53 1857.96 1609.27 C 1811.4 1629.83 1737.93 1654.95 1687.34 1658.52 C 1692.67 1630.86 1692.71 1607.81 1686.78 1580.26 C 1743.58 1574.17 1835.96 1549.45 1884.75 1518.23 z"/>
<path transform="translate(0,0)" fill="rgb(236,187,133)" d="M 242.057 1079.37 C 253.372 1078.5 264.017 1078.59 275.288 1079.93 C 196.108 1168.38 211.616 1256.92 192.788 1363.93 A 3909.22 3909.22 0 0 1 178.263 1438.85 C 174.57 1457.13 168.668 1478.14 169.095 1496.74 C 169.262 1504.05 171.874 1509.59 177.125 1514.59 A 304.774 304.774 0 0 0 170.463 1553.29 A 845.855 845.855 0 0 0 160.733 1537.54 C 129.738 1488.27 114.885 1428.28 107.539 1371.07 C 97.9047 1296.04 101.317 1192.96 149.71 1131.11 A 137.979 137.979 0 0 1 242.057 1079.37 z"/>
<path transform="translate(0,0)" fill="rgb(250,243,234)" d="M 606.73 795.433 A 69.7975 69.7975 0 0 1 632.774 814.831 C 647.836 833.109 649.101 854.197 646.914 876.862 A 55.7832 55.7832 0 0 0 643.473 876.277 C 638.373 875.612 632.135 875.84 627.981 879.145 C 627.15 881.481 627.158 881.73 627.748 884.143 C 631.966 886.68 635.894 883.917 640.375 884.418 C 642.938 884.705 643.34 885.387 644.735 887.273 C 645.044 896.785 642.656 913.762 638.407 922.151 C 636.514 922.399 637.239 922.42 635.567 922.259 C 631.53 921.872 627.608 921.662 623.885 923.582 C 622.312 924.393 622.633 924.753 622.235 926.302 C 622.769 927.116 623.005 927.587 623.823 928.249 C 626.685 930.569 630.778 930.226 634.242 930.293 C 636.174 938.793 637.65 948.009 638.332 956.708 C 640.528 984.7 620.193 1007.32 603.004 1027.29 C 590.594 1041.71 577.148 1053.31 557.1 1054.44 C 526.905 1056.14 491.994 1033.64 470.683 1014.23 C 454.204 998.394 438.08 981.881 428.64 960.782 C 432.069 959.327 435.905 958.086 437.756 954.641 C 434.013 951.064 418.627 952.685 410.173 945.068 C 401.288 937.063 395.064 916.43 394.835 904.619 C 394.707 898.005 395.906 892.475 400.729 887.736 C 404.729 883.804 409.657 881.916 415.274 882.085 C 428.158 882.473 440.489 893.551 443.762 905.765 C 444.843 909.799 443.278 914.55 446.279 917.841 L 448.257 917.496 C 449.093 916.314 449.765 915.185 450.179 913.783 C 453.526 902.427 458.754 889.734 453.014 878.626 C 461.329 877.495 469.645 876.352 477.872 874.684 C 526.469 864.83 578.805 837.442 606.73 795.433 z"/>
<path transform="translate(0,0)" fill="rgb(0,0,0)" d="M 602.93 950.637 C 606.953 953.481 613.765 961.474 615.294 966.078 C 616.178 968.744 615.864 970.451 614.693 972.983 C 610.306 976.843 604.784 975.932 599.348 975.761 C 597.936 973.799 597.55 972.863 597.432 970.443 L 598.902 968.832 C 602.966 967.922 606.89 969.028 610.915 969.774 C 607.721 966.229 601.333 961.15 600.407 956.42 C 599.867 953.661 601.348 952.642 602.93 950.637 z"/>
<path transform="translate(0,0)" fill="rgb(0,0,0)" d="M 415.182 896.978 C 415.602 897.011 416.025 897.021 416.443 897.077 C 424.43 898.14 428.647 905.599 433.04 911.524 C 433.04 914.945 432.947 918.405 433.277 921.812 C 433.485 923.961 433.957 926.303 433.34 928.429 C 432.111 932.661 429.235 933.768 425.596 935.567 C 423.514 935.374 422.273 935.343 420.592 934.03 L 420.448 931.777 C 437.684 906.107 416.609 909.992 415.182 896.978 z"/>
<path transform="translate(0,0)" fill="rgb(0,0,0)" d="M 544.781 913.192 C 551.02 912.748 558.317 911.708 564.393 913.353 C 569.487 914.732 573.511 916.393 576.162 921.138 C 576.054 923.622 576.158 923.633 574.483 925.444 L 571.695 925.231 C 561.906 920.188 542.607 923.071 536.691 918.083 L 536.878 916.296 C 539.17 914.113 541.803 913.827 544.781 913.192 z"/>
<path transform="translate(0,0)" fill="rgb(0,0,0)" d="M 546.296 861.315 C 550.704 861.21 555.528 861.354 559.791 862.561 C 563.729 863.675 568.904 866.425 570.734 870.276 C 571.441 871.766 571.14 871.391 570.353 873.089 C 563.646 875.358 556.556 868.346 544 869.714 L 542.547 869.882 C 535.811 871.968 527.608 879.18 520.914 879.014 C 519.107 877.549 519.05 877.414 518.421 875.169 C 519.006 873.847 518.999 873.693 519.969 872.396 C 524.519 866.313 539.204 862.392 546.296 861.315 z"/>
<path transform="translate(0,0)" fill="rgb(0,0,0)" d="M 529.796 961.268 C 538.576 962.993 557.38 975.128 566.664 979.229 C 580.807 985.476 601.209 989.544 613.391 998.304 C 612.434 1005.83 598.766 1018.9 593.704 1024.98 C 588.912 1030.93 583.611 1036.13 576.412 1039.05 C 569.135 1041.99 561.114 1041.71 553.924 1038.64 C 543.268 1034.09 536.221 1024.15 532.033 1013.69 C 526.081 998.821 523.446 976.331 529.796 961.268 z"/>
<path transform="translate(0,0)" fill="rgb(216,128,123)" d="M 533.899 970.951 C 555.629 984.318 578.628 992.565 602.518 1000.96 C 593.265 1013.29 585.309 1025 571.491 1032.65 C 566.408 1033.5 561.574 1033.45 556.684 1031.61 C 546.554 1027.81 542.248 1017.81 538.362 1008.56 C 535.218 996.017 533.782 983.877 533.899 970.951 z"/>
<path transform="translate(0,0)" fill="rgb(232,146,149)" d="M 538.362 1008.56 C 538.639 1008.55 538.917 1008.55 539.195 1008.53 C 544.971 1008.22 560.158 1001.54 564.787 1005.66 C 569.348 1009.71 570.388 1026.3 571.491 1032.65 C 566.408 1033.5 561.574 1033.45 556.684 1031.61 C 546.554 1027.81 542.248 1017.81 538.362 1008.56 z"/>
<path transform="translate(0,0)" fill="rgb(159,124,112)" d="M 1459.7 1487.76 C 1461.26 1487.7 1462.98 1487.61 1464.5 1487.97 C 1466.97 1488.54 1469.66 1489.99 1471.15 1492.04 C 1470.31 1497.61 1460.9 1500.32 1456.83 1503.77 C 1455.19 1505.17 1455.08 1505.2 1454.82 1507.42 L 1456.92 1509.21 C 1465.57 1509.91 1472.73 1497.74 1481.23 1495.01 C 1484.67 1493.91 1487.7 1494.46 1490.8 1496.2 C 1493.28 1497.6 1495.21 1498.99 1495.99 1501.75 C 1492.12 1505.97 1482.53 1508.31 1477.36 1511.36 C 1473.79 1513.46 1470.15 1515.54 1469.08 1519.69 C 1470.41 1521.47 1470.55 1521.6 1472.64 1522.34 C 1473.74 1521.65 1474.87 1520.99 1475.96 1520.28 C 1481.74 1516.46 1494 1512.1 1497.99 1508.84 C 1498.83 1508.15 1499.66 1505.89 1500.02 1504.92 C 1500.18 1504.49 1500.32 1504.05 1500.46 1503.62 C 1502.56 1505.1 1501.91 1508.36 1503.22 1510.34 C 1506 1514.55 1514.59 1518.08 1519 1520.52 C 1515.79 1527.82 1512.74 1535.41 1508.84 1542.38 C 1505.41 1548.53 1501.34 1554.35 1498.1 1560.61 C 1494.44 1567.66 1492.2 1575.47 1488.25 1582.35 C 1479.4 1597.77 1466.59 1604.16 1450.2 1608.6 C 1444.25 1647.34 1463.23 1704.51 1475.93 1741.95 C 1470.78 1750.82 1461.84 1761.83 1459.59 1771.71 C 1459.11 1773.82 1459.12 1773.94 1460.29 1775.85 L 1462.74 1775.93 C 1468.97 1771.81 1473.15 1760.38 1477.11 1753.87 C 1487.44 1736.89 1498.31 1720.21 1508.16 1702.93 C 1516.32 1688.63 1523.48 1673.72 1531.34 1659.24 C 1545.85 1668.99 1559.45 1681.21 1573.07 1692.22 C 1587.34 1703.32 1601.97 1713.55 1617.66 1722.54 C 1607.47 1735.11 1598.92 1748.96 1589.13 1761.84 C 1567.34 1790.51 1539.6 1822.66 1513.09 1846.77 C 1498.06 1860.43 1479.36 1872.65 1458.09 1871.22 C 1448.08 1870.55 1439.92 1865.74 1433.55 1858.11 C 1425.51 1848.48 1421.53 1836.08 1417.9 1824.28 C 1401.71 1771.54 1406.38 1722.95 1404.65 1669.12 C 1403.57 1635.46 1399.89 1600.21 1402.87 1566.69 C 1403.8 1556.18 1412 1513.95 1419.3 1508.4 C 1419.58 1508.18 1419.89 1507.99 1420.19 1507.78 C 1427.64 1502.52 1436.38 1500.7 1444.56 1496.94 C 1449.82 1494.52 1454.82 1490.9 1459.7 1487.76 z"/>
<path transform="translate(0,0)" fill="rgb(0,0,0)" d="M 1496.39 1545.33 C 1496.93 1545.58 1497.51 1545.75 1498.01 1546.08 C 1500 1547.4 1500.07 1548.88 1500.53 1551.02 C 1499.61 1554.41 1498.72 1555.35 1496.07 1557.64 C 1495.47 1557.47 1494.57 1557.25 1494.05 1556.93 C 1492.07 1555.71 1492.21 1554.61 1491.87 1552.51 C 1492.98 1549.22 1493.96 1547.82 1496.39 1545.33 z"/>
<path transform="translate(0,0)" fill="rgb(0,0,0)" d="M 1504.69 1517.72 C 1506.41 1519.15 1506.39 1519.25 1506.89 1521.45 C 1504.72 1527.13 1490.03 1537.17 1484.93 1542.04 C 1482.52 1539.86 1480.61 1538.38 1479.86 1535.19 C 1486.85 1528.64 1496.32 1522.35 1504.69 1517.72 z"/>
<path transform="translate(0,0)" fill="rgb(216,128,123)" d="M 1530.2 1005.05 C 1555.74 1016.93 1579.3 1031.98 1598.92 1052.38 C 1606.75 1060.51 1613.32 1070.38 1622.27 1077.29 C 1618.84 1083.24 1614.76 1089.44 1612.6 1095.99 C 1607.31 1112.05 1605.53 1131.34 1613.71 1146.7 C 1608.49 1158.08 1604.04 1169.63 1600 1181.48 C 1596.65 1191.33 1593.96 1202.27 1588.96 1211.38 C 1582.86 1222.49 1572.06 1223.98 1560.86 1227.21 C 1557.59 1215.36 1541.71 1152.69 1537.54 1146.48 C 1536.4 1144.79 1537.04 1145.33 1534.96 1144.84 C 1528.42 1152.47 1555.27 1221.9 1552.47 1233.34 C 1549.15 1246.95 1555.9 1254.76 1562.13 1266.24 C 1559.64 1290.96 1559.8 1306.51 1566.94 1330.68 C 1566.69 1330.83 1566.43 1330.97 1566.18 1331.12 C 1565.78 1331.36 1565.38 1331.61 1564.98 1331.85 C 1560.46 1334.52 1557.95 1337.72 1556.65 1342.91 C 1554.82 1350.22 1557.94 1357.94 1561.98 1363.94 C 1574.48 1382.47 1589.46 1385.52 1609.76 1389.58 C 1608.58 1391.74 1608.43 1392.54 1609.29 1394.91 C 1610.32 1397.72 1612.58 1401.02 1612.48 1403.98 L 1611.47 1404.41 L 1611.26 1405.51 C 1587.44 1401.26 1559.46 1392.75 1536.58 1384.45 C 1536.65 1371.58 1537.99 1361.32 1528.45 1351.15 C 1504.62 1325.73 1468.87 1319.85 1435.72 1318.8 C 1426.26 1267.99 1424.87 1215.03 1427.27 1163.53 C 1428.03 1147.01 1432.81 1128.08 1431.99 1112 C 1430.82 1110.73 1429.97 1109.74 1429.1 1108.24 C 1437.65 1099.85 1443.96 1090.24 1450.35 1080.18 C 1454.47 1084 1458.13 1087.71 1461.4 1092.3 C 1465.01 1097.38 1481.93 1129.05 1484.88 1130.18 C 1487.3 1129.15 1488.58 1127.9 1490.12 1125.84 C 1506.08 1104.57 1533.25 1030.79 1530.2 1005.05 z"/>
<path transform="translate(0,0)" fill="rgb(230,228,205)" d="M 1480.85 717.042 C 1503.61 723.119 1528.23 725.53 1551.53 728.947 L 1670.3 746.281 C 1692.08 749.328 1714.17 751.289 1735.76 755.462 L 1733.78 756.956 C 1733.83 766.274 1738.71 778.402 1740.81 787.759 A 426.92 426.92 0 0 1 1749.77 841.091 C 1754.43 889.122 1748.51 944.519 1731.94 990.061 C 1727.5 1002.26 1715.22 1023.56 1712.67 1033.8 C 1715.27 1034.95 1717.81 1035.33 1720.59 1035.78 C 1712.55 1035.74 1704.48 1035.73 1696.46 1036.46 C 1667.22 1039.11 1643.34 1051.56 1624.64 1074 C 1621.57 1068.32 1617.48 1063.07 1613.32 1058.16 C 1587.46 1027.71 1554.53 1006.4 1518.08 990.751 C 1508.67 986.714 1498.79 982.153 1488.48 981.324 C 1486.57 967.95 1485.51 954.455 1486.82 940.981 C 1497.08 942.651 1505.25 940.692 1514.08 935.023 C 1536.25 920.777 1550.96 890.954 1556.39 865.945 C 1563.41 833.646 1558.87 796.123 1540.72 768.098 C 1527.62 747.86 1512.46 737.639 1488.9 732.657 L 1480.85 717.042 z"/>
<path transform="translate(0,0)" fill="rgb(159,124,112)" d="M 772.312 1051.38 C 814.117 1048.56 877.832 1068.7 911.975 1092.3 A 79.2672 79.2672 0 0 1 945.067 1144.19 C 950.2 1173.41 937.423 1197.46 921.275 1220.65 C 916.928 1190.21 910.657 1179.77 896.938 1153.02 C 894.382 1148.03 892.406 1140.32 887.693 1137.01 C 886.234 1135.99 885.866 1136.39 884.24 1136.6 C 883.231 1146.8 884.472 1157.57 882.516 1167.6 C 874.45 1208.96 837.304 1243.22 815.087 1277.93 L 804.714 1273.2 C 801.181 1272.77 797.519 1272.46 793.967 1272.83 C 785.937 1273.66 778.613 1278.64 773.729 1284.87 C 764.638 1296.47 763.05 1309.82 764.461 1323.97 C 758.068 1332.25 751.388 1340.96 741.992 1345.99 C 715.103 1360.4 694.281 1343.72 669.207 1336.01 C 664.953 1322.12 656.974 1309.76 650.028 1297.09 C 634.691 1269.12 622.079 1238.41 618.608 1206.48 C 614.814 1171.58 623.361 1141.82 645.597 1114.55 C 677.151 1075.86 723.446 1056.43 772.312 1051.38 z"/>
<path transform="translate(0,0)" fill="rgb(119,90,82)" d="M 1706.65 1043.41 C 1707.59 1043.33 1708.54 1043.26 1709.49 1043.22 C 1745.52 1041.8 1797.13 1051.77 1830.09 1066.55 C 1848.58 1074.84 1866.45 1086.66 1881.03 1100.76 C 1916.32 1134.89 1932.61 1181.63 1932.97 1230.2 C 1933.26 1269.52 1920.28 1313.38 1891.9 1341.67 C 1867.52 1365.99 1810.88 1388.52 1776.21 1387.92 C 1752.65 1387.5 1736.55 1369.46 1721.42 1353.78 C 1718.39 1350.3 1715.57 1346.67 1712.72 1343.04 C 1720.17 1339.97 1727.62 1335.77 1734.01 1330.84 C 1744.25 1322.94 1753.38 1311.61 1754.77 1298.35 C 1755.57 1290.65 1753.47 1282.24 1748.34 1276.33 A 21.1067 21.1067 0 0 0 1732.51 1268.95 C 1719.66 1268.7 1709.35 1279.17 1700.76 1287.39 C 1702.4 1258.87 1705.06 1230.6 1713.41 1203.13 C 1715.62 1195.89 1719.08 1189.22 1721.42 1182.11 C 1722.29 1179.47 1722.38 1178.24 1721.23 1175.75 L 1719.04 1174.98 C 1715.72 1176.17 1713.37 1179.99 1711.2 1182.7 C 1702.88 1183.89 1694.8 1184.34 1686.48 1182.85 C 1671.26 1180.12 1656.22 1170.62 1647.61 1157.69 C 1637 1141.72 1634.43 1118.88 1641.38 1101.02 C 1643.44 1095.72 1648.15 1089.55 1648.84 1084.05 C 1649.04 1082.48 1648.46 1082.29 1647.59 1081.15 C 1647.28 1081.22 1646.96 1081.25 1646.67 1081.36 C 1637.06 1085.21 1621.56 1129.18 1617.55 1140.05 A 134.105 134.105 0 0 1 1616.13 1128.64 C 1614.66 1108.25 1621.86 1089.97 1635.18 1074.71 C 1654.52 1052.56 1678.16 1045.29 1706.65 1043.41 z"/>
<path transform="translate(0,0)" fill="rgb(250,243,234)" d="M 353.439 1033.83 C 356.799 1035.05 356.1 1041.57 356.43 1044.7 C 359.125 1070.25 367.48 1095.99 374.752 1120.55 C 378.512 1133.25 390.865 1169.97 397.042 1179.93 C 398.184 1181.77 398.098 1181.67 400.337 1182.11 C 414.025 1174.32 433.506 1134.89 442.011 1119.83 C 453.306 1129.76 468.316 1136.78 478.193 1147.87 C 485.321 1180.28 493.845 1237.51 484.505 1269.25 C 476.572 1296.21 448.75 1339.32 433.759 1364.64 C 417.071 1365.19 399.545 1365.24 382.934 1363.51 C 380.943 1363.3 377.972 1363.05 376.311 1361.8 C 348.773 1341.12 381.598 1152.23 349.964 1116.22 C 348.614 1114.68 349.306 1115.11 347.213 1115.02 C 347.478 1121.99 351.327 1129.58 353.032 1136.45 C 355.412 1146.05 356.386 1156.17 356.865 1166.02 C 358.638 1202.44 356.487 1239.17 356.735 1275.63 C 356.915 1302.22 359.205 1328.26 361.189 1354.74 C 354.921 1355.63 348.222 1356.23 342.095 1357.78 C 338.641 1358.66 331.874 1360.42 330.057 1363.49 C 338.345 1366.75 355.665 1361.37 365.185 1361.28 L 366.673 1361.27 C 359.25 1367.15 336.012 1382.58 333.627 1390.18 C 334.725 1391.39 334.418 1391.63 335.823 1391.63 C 345.214 1391.62 360.253 1376.39 367.56 1370.38 C 398.116 1373.49 429.148 1372.02 459.793 1371.56 C 454.039 1397.82 449.644 1423.7 440.52 1449.14 L 418.284 1455.13 C 395.913 1461.05 372.51 1468.7 349.407 1470.79 C 336.337 1471.97 309.689 1474.66 298.889 1465.25 C 289.709 1457.25 284.029 1442.92 279.219 1431.99 C 253.402 1373.32 240.8 1309.98 235.88 1246.36 C 235.488 1241.28 235.519 1233.83 231.459 1230.4 L 229.55 1231.3 C 228.553 1233.39 228.086 1235.15 227.93 1237.48 C 226.9 1252.8 229.753 1270.19 231.977 1285.39 C 239.903 1339.56 252.359 1393.08 275.783 1442.79 C 279.751 1451.21 283.84 1460.69 290.118 1467.66 C 301.467 1480.27 322.459 1479.27 338.086 1479.96 C 312.087 1486.76 286.099 1495.64 260.796 1504.7 C 260.218 1507.97 259.748 1510.67 258.104 1513.59 C 246.587 1518.83 201.881 1514.67 190.052 1510.65 C 184.984 1508.93 180.483 1505.93 178.3 1500.88 C 172.746 1488.02 188.63 1427.04 191.919 1410.34 C 197.064 1384.22 202.161 1358.01 205.242 1331.56 C 209.748 1292.87 211.897 1253.3 218.874 1214.99 C 222.406 1195.59 227.645 1175.56 235.022 1157.26 C 256.218 1104.7 300.812 1056.06 353.439 1033.83 z"/>
<path transform="translate(0,0)" fill="rgb(141,186,156)" d="M 219.786 1800.64 C 219.75 1800.31 219.718 1799.98 219.678 1799.65 C 218.292 1788.15 214.168 1777.08 212.507 1765.56 C 206.153 1721.46 206.186 1657.63 234.528 1620.56 C 251.389 1598.5 273.39 1588.58 300.49 1585.2 C 367.99 1576.78 441.276 1618.93 492.138 1659.3 C 562.851 1715.43 609.017 1803.02 641.755 1885.3 C 648.845 1903.12 654.088 1921.62 661.021 1939.45 C 628.596 1935.54 596.204 1932.68 564.038 1926.72 C 443.457 1904.41 328.082 1857 219.786 1800.64 z"/>
<path transform="translate(0,0)" fill="rgb(230,228,205)" d="M 1015.15 1255.07 C 1025.89 1254.73 1038.32 1258.53 1048.88 1260.68 C 1075.77 1266.14 1103.85 1273.37 1131.28 1274.23 C 1139.33 1283.47 1148.07 1291.68 1158.35 1298.41 C 1199.89 1325.59 1273.75 1343.19 1322.5 1356.47 C 1340.25 1361.31 1359.79 1365.28 1376.49 1372.98 C 1385.71 1377.22 1394.25 1383.86 1403.07 1388.95 C 1414.08 1395.3 1425.68 1400.61 1436.66 1407.01 C 1446.79 1412.92 1461.06 1425.72 1472.69 1427.08 C 1476.51 1427.53 1481.64 1426.79 1484.76 1424.53 C 1485.01 1421.57 1485.25 1418.62 1485.6 1415.68 C 1491.4 1421.77 1501.43 1434.02 1510.11 1435.73 C 1513.35 1436.36 1516.22 1435.34 1518.79 1433.41 C 1529.31 1425.52 1534.6 1405.7 1536.52 1393.22 C 1579.63 1405.55 1622.93 1418.45 1667.48 1424.39 A 289.677 289.677 0 0 1 1671.43 1452.81 C 1664.27 1455.97 1656.68 1458.27 1649.29 1460.85 C 1633.92 1466.21 1612.19 1472.04 1599.58 1482.17 C 1571.48 1504.76 1532.33 1602.38 1514.86 1638.55 A 859.85 859.85 0 0 1 1461.68 1663.55 C 1458.51 1647.45 1456.97 1631.64 1456.41 1615.27 C 1460.35 1613.96 1464.34 1612.66 1468.16 1611.03 C 1488.6 1602.3 1495.12 1582.18 1504.7 1564.99 C 1511.04 1553.61 1517.83 1543.45 1522.73 1531.22 C 1524.27 1527.38 1526.97 1520.81 1524.95 1516.86 C 1522.64 1512.37 1517.05 1511.09 1512.64 1509.38 C 1510.75 1505.89 1508.61 1502.48 1505.94 1499.53 A 38.3767 38.3767 0 0 0 1495.19 1491.11 C 1490.35 1488.55 1464.87 1480.29 1459.94 1480.3 C 1451.35 1480.31 1444.97 1488.51 1437.66 1492.07 C 1430.45 1495.58 1422.95 1494.12 1416.88 1500.43 C 1402.71 1515.16 1396.95 1544.71 1395.05 1564.21 C 1393.55 1579.52 1394.56 1595.31 1394.93 1610.69 C 1395.64 1640.08 1397.06 1669.38 1397.09 1698.79 C 1382.46 1704.46 1368.42 1711.97 1354.21 1718.64 L 1261.97 1762.66 C 1236.35 1775.34 1210.3 1787.16 1184.58 1799.63 C 1166.6 1796.26 1148.79 1789.54 1131.4 1783.96 L 1049.02 1757.66 C 1032.83 1752.57 1016.61 1746.93 1000.11 1742.94 C 1006.84 1721.09 1017.11 1700.87 1024.39 1679.26 C 1023.41 1675.5 1022.04 1672.04 1020.56 1668.45 C 1029.84 1644.18 1037.49 1618.91 1043.97 1593.76 C 1069.87 1602.65 1098.31 1611.64 1125.15 1616.91 L 1445.15 1459.28 C 1447.08 1458.32 1449.99 1457.16 1450.67 1455.02 C 1451.45 1452.6 1451.3 1450.12 1449.9 1447.94 C 1447.92 1444.86 1444.18 1443.28 1440.86 1442.15 C 1433.7 1439.74 1425.82 1438.91 1418.5 1436.97 C 1390.88 1429.64 1362.91 1421.93 1335.51 1413.76 L 1033.68 1324.12 C 1014.44 1333.5 993.489 1340.38 973.533 1348.16 A 9179.38 9179.38 0 0 0 870.088 1389.28 C 893.968 1367.39 902.543 1337.91 912.584 1308.1 C 916.451 1306.27 920.552 1304.37 924.111 1301.97 C 929.973 1298.02 931.098 1292.66 932.489 1286.22 C 960.562 1277.26 987.356 1264.85 1015.15 1255.07 z"/>
<path transform="translate(0,0)" fill="rgb(216,128,123)" d="M 406.744 1596.94 C 417.997 1563.88 491.774 1450.41 515.717 1426.37 C 529.268 1412.77 546.737 1402.39 563.892 1393.93 C 598.832 1376.7 640.61 1378.66 676.889 1391.33 C 730.527 1410.07 766.488 1438.11 809.519 1473.75 C 820.596 1482.93 833.409 1491.75 842.935 1502.51 C 843.269 1502.89 843.61 1503.26 843.942 1503.63 C 844.142 1503.86 844.333 1504.1 844.528 1504.33 C 811.533 1510.21 793.197 1516.63 767.896 1539.43 C 759.003 1547.45 749.842 1556.49 743.142 1566.48 C 740.897 1569.83 739.036 1574.05 738.892 1578.13 L 739.437 1579.2 C 741.705 1578.9 742.103 1578.46 743.726 1576.92 C 755.176 1566.11 763.828 1552.76 776.692 1541.32 C 785.512 1533.47 795.912 1525.91 806.598 1520.81 C 819.51 1514.66 833.552 1512.7 847.558 1510.53 C 866.549 1557.83 870.546 1608.45 882.858 1657.54 C 891.599 1692.39 905.776 1725.58 915.245 1760.15 C 917.656 1768.96 916.859 1786.74 922.43 1793.37 L 923.674 1793.58 C 926.61 1790.45 926.967 1786.84 926.85 1782.66 C 926.369 1765.53 920.372 1745.79 914.281 1729.9 C 920.084 1737.29 934.253 1762.38 940.362 1765.37 C 942.554 1764.37 942.075 1764.43 942.924 1762.37 C 939.12 1743.38 921.73 1730.67 911.773 1715.26 C 906.099 1706.48 903.037 1696.51 899.579 1686.73 C 910.963 1679.72 921.919 1672.23 932.864 1664.56 C 959.996 1670.76 981.902 1680.45 997.338 1705.04 A 128.174 128.174 0 0 1 1001.32 1711.96 C 992.521 1750.65 946.23 1837.77 912.806 1858.27 C 896.049 1868.55 869.093 1869.76 850.382 1864.92 C 832.735 1860.36 822.061 1847.51 813.263 1832.4 C 804.805 1817.88 797.217 1801.55 791.494 1785.74 C 783.573 1763.87 776.184 1741.45 769.317 1719.21 C 762.983 1698.7 739.699 1606.75 725.363 1599.25 C 723.117 1599.78 723.025 1600.06 721.481 1601.82 C 721.011 1605.43 731.819 1625.51 733.703 1630.59 C 743.778 1657.79 751.898 1686.26 759.808 1714.17 C 748.944 1729.97 742.945 1748.97 736.845 1767 C 714.436 1833.24 709.464 1871.86 705.21 1941.3 A 789.974 789.974 0 0 0 668.191 1939.99 C 664.717 1916.98 652.442 1889.83 643.512 1868.29 C 606.798 1779.77 558.754 1698.38 480.524 1640.65 C 457.524 1623.67 433.246 1607.91 406.744 1596.94 z"/>
<path transform="translate(0,0)" fill="rgb(173,205,201)" d="M 1131.65 107.621 C 1162.07 109.132 1192.8 114.191 1223.1 117.435 A 16124.5 16124.5 0 0 1 1406.32 136.655 L 1914.94 186.98 L 1914.86 777.478 L 1904.04 775.528 C 1807.28 758.702 1710.34 744.935 1613.21 730.516 A 7836.36 7836.36 0 0 1 1514.64 715.955 C 1503.15 714.085 1490.95 712.986 1479.69 710.228 C 1471.46 708.213 1463.13 700.926 1455.41 697.06 C 1427.98 683.311 1399.6 689.865 1372.07 699.305 C 1362.66 696.941 1352.65 695.95 1343.04 694.507 L 1289.25 686.514 A 4510.82 4510.82 0 0 1 1128.74 660.594 A 43243.1 43243.1 0 0 0 1131.65 107.621 z"/>
<path transform="translate(0,0)" fill="rgb(0,0,0)" d="M 1164.56 139.864 C 1189.21 141.009 1214.45 145.076 1239.03 147.662 L 1414.21 166.423 L 1785.92 203.872 A 5049.85 5049.85 0 0 0 1836.66 209.233 C 1850.53 210.56 1868.29 209.93 1881.2 214.699 C 1882.47 216.993 1882.49 218.43 1882.68 221.004 C 1884.62 247.258 1883.26 274.542 1883.4 300.94 L 1883.56 471 L 1883.68 636.607 C 1883.73 663.96 1885.2 691.898 1883.73 719.182 C 1883.41 725.113 1882.88 728.84 1878.93 733.44 C 1876.36 734.637 1873.88 735.756 1871.01 735.832 C 1860.12 736.117 1848.27 733.413 1837.52 731.714 C 1813.95 727.985 1790.49 723.469 1766.9 719.811 C 1621.12 697.202 1474.59 679.105 1328.56 658.186 L 1216.77 642.719 C 1198.81 640.209 1179.79 638.786 1162.19 634.543 C 1161.47 604.366 1162.15 574.003 1162.18 543.81 L 1162.36 362.803 L 1162.29 223.352 C 1162.24 198.525 1161.12 173.25 1162.23 148.48 C 1162.39 144.973 1162.75 142.889 1164.56 139.864 z"/>
<path transform="translate(0,0)" fill="rgb(250,243,234)" d="M 1169.49 147.515 C 1191.29 149.059 1213.18 152.15 1234.94 154.427 L 1411.7 173.217 L 1702.94 202.35 C 1760.5 208.16 1818.45 212.883 1875.82 220.179 A 28815.8 28815.8 0 0 1 1876.52 611.242 A 3338.35 3338.35 0 0 0 1876.36 672.084 C 1876.61 689.851 1878.66 709.173 1875.57 726.664 C 1871.25 729.155 1865.49 727.884 1860.75 727.282 C 1827 722.994 1793.55 716.542 1759.91 711.551 L 1554.24 682.193 A 29148.8 29148.8 0 0 1 1169.53 628.553 C 1168.45 595.592 1169.12 562.458 1169.2 529.481 L 1169.42 372.45 L 1169.05 223.907 C 1169.04 198.493 1168.55 172.907 1169.49 147.515 z"/>
<path transform="translate(0,0)" fill="rgb(142,17,14)" d="M 1813.66 663.09 A 97.6737 97.6737 0 0 1 1809.61 658.627 C 1806.4 654.869 1801.73 649.523 1802.12 644.336 L 1803.74 644.229 C 1809.12 647.841 1812.57 653.679 1816.32 658.877 L 1813.66 663.09 z"/>
<path transform="translate(0,0)" fill="rgb(142,17,14)" d="M 1775.27 652.548 C 1777.36 646.922 1778.84 641.473 1783.17 637.119 L 1785.27 636.513 C 1786.59 638.601 1786.33 640.051 1785.76 642.384 C 1784.6 647.141 1781.13 652.374 1778.82 656.732 L 1775.27 652.548 z"/>
<path transform="translate(0,0)" fill="rgb(142,17,14)" d="M 1710.98 649.867 C 1719.09 647.119 1729.42 639.1 1735.97 638.145 L 1736.77 639.022 C 1732.77 647.958 1723.87 650.443 1715.53 654.027 L 1710.98 649.867 z"/>
<path transform="translate(0,0)" fill="rgb(86,7,5)" d="M 1715.53 654.027 C 1721.05 658.215 1732.79 665.234 1735.1 671.561 L 1733.78 673.151 C 1728.64 671.896 1722.8 664.715 1718.14 661.603 C 1714.47 659.15 1710.16 658.195 1707.02 655.046 C 1707.45 652.102 1708.75 651.734 1710.98 649.867 L 1715.53 654.027 z"/>
<path transform="translate(0,0)" fill="rgb(86,7,5)" d="M 1775.27 652.548 L 1778.82 656.732 C 1775.1 663.817 1771.28 670.679 1766.18 676.883 C 1763.42 680.233 1760.27 684.665 1755.76 685.087 L 1754.53 683.641 C 1754.51 682.897 1754.15 682.088 1754.45 681.408 C 1755.89 678.192 1761.49 674.369 1763.95 671.325 C 1768.47 665.726 1771.82 658.85 1775.27 652.548 z"/>
<path transform="translate(0,0)" fill="rgb(142,17,14)" d="M 1813.66 663.09 L 1816.32 658.877 C 1822.16 664.38 1828.46 669.252 1834.38 674.622 C 1825.79 680.885 1810.42 690.479 1799.3 689.106 L 1799.71 689.084 C 1800.81 685.907 1804.18 685.031 1807.15 683.605 C 1813.64 680.491 1820.48 678.287 1826.57 674.373 A 333.635 333.635 0 0 0 1813.66 663.09 z"/>
<path transform="translate(0,0)" fill="rgb(216,128,123)" d="M 1632.25 371.484 C 1633.5 371.597 1635.24 371.642 1636.46 372.076 C 1639.15 373.037 1641.26 374.895 1642.52 377.45 C 1644 380.459 1643.85 383.949 1642.59 387.005 C 1640.73 391.538 1637.7 393.132 1633.35 394.748 C 1633.02 394.719 1632.69 394.715 1632.36 394.663 C 1629.42 394.196 1626.25 392.145 1624.66 389.562 C 1622.62 386.24 1622.46 383.087 1623.58 379.469 C 1625.06 374.662 1628.02 373.542 1632.25 371.484 z"/>
<path transform="translate(0,0)" fill="rgb(0,0,0)" d="M 1351.41 389.553 C 1367.13 390.504 1383.21 393.337 1398.87 395.305 C 1415.62 397.41 1433.19 398.58 1449.61 402.428 C 1450.25 408.29 1450.01 414.433 1450.08 420.339 A 3956.12 3956.12 0 0 0 1391.1 413.237 C 1377.81 411.671 1363.92 410.644 1351 407.085 C 1350.9 401.218 1351.13 395.412 1351.41 389.553 z"/>
<path transform="translate(0,0)" fill="rgb(216,128,123)" d="M 1353.98 391.81 C 1384.81 394.262 1416.26 398.977 1446.85 403.581 L 1446.82 418.642 C 1415.82 413.594 1384.08 412.182 1353.32 405.78 L 1353.98 391.81 z"/>
<path transform="translate(0,0)" fill="rgb(216,128,123)" d="M 1350.89 436.351 C 1362.98 436.697 1493.47 452.654 1494.77 454.291 C 1497.89 458.235 1496.3 468.747 1496.15 473.624 C 1473.34 472.588 1449.56 467.995 1426.91 464.927 C 1401.8 461.526 1375.61 459.359 1350.94 453.619 C 1350.62 447.868 1350.79 442.106 1350.89 436.351 z"/>
<path transform="translate(0,0)" fill="rgb(216,128,123)" d="M 1352.03 481.57 C 1379.8 483.464 1408.1 488.589 1435.74 492.26 C 1455.8 494.924 1477.89 496.106 1497.35 501.127 A 475.849 475.849 0 0 1 1496.97 520.818 C 1448.13 515.863 1399.59 507.076 1350.67 502.048 C 1350.7 495.139 1351.26 488.434 1352.03 481.57 z"/>
<path transform="translate(0,0)" fill="rgb(216,128,123)" d="M 1353.79 576.415 C 1354.57 576.42 1355.35 576.41 1356.13 576.452 C 1368.87 577.13 1511.18 596.62 1513.26 598.007 C 1513.82 598.375 1514.16 598.988 1514.61 599.478 C 1515.77 604.799 1514.69 610.247 1514.06 615.602 C 1491.94 615.596 1463.13 609.787 1440.71 606.783 C 1412.62 603.021 1381.18 600.555 1353.79 594.4 C 1352.56 593.03 1351.39 591.835 1350.99 589.959 C 1349.97 585.211 1351.75 580.587 1353.79 576.415 z"/>
<path transform="translate(0,0)" fill="rgb(216,128,123)" d="M 1351.71 532.415 C 1397.53 537.319 1443.28 544.265 1489 550.122 C 1518.29 553.875 1548.15 555.997 1577.21 561.179 C 1577.51 567.963 1577.43 574.796 1577.49 581.588 C 1566.58 581.704 1555 579.006 1544.17 577.384 L 1482.52 568.188 L 1399.48 556.974 C 1384.46 554.974 1368.91 553.597 1354.1 550.498 C 1350.36 545.524 1351.51 538.317 1351.71 532.415 z"/>
<path transform="translate(0,0)" fill="rgb(216,128,123)" d="M 1353.2 296.529 C 1370.85 298.949 1388.75 300.262 1406.48 302.156 C 1469.32 308.872 1532.71 314.149 1595.25 323.149 C 1595.26 329.574 1595.89 336.488 1594.04 342.68 C 1570.13 337.837 1544.26 336.393 1519.96 333.838 L 1416.54 322.197 C 1395.42 319.911 1372.36 319.29 1351.82 313.878 C 1351.65 307.863 1351.6 302.387 1353.2 296.529 z"/>
<path transform="translate(0,0)" fill="rgb(216,128,123)" d="M 1353.16 342.587 C 1376.8 345.447 1595.49 367.558 1601.44 372.249 C 1604.21 377.802 1602.82 384.608 1602.19 390.555 C 1569.59 389.919 1536.12 382.73 1503.72 378.909 C 1453.24 372.952 1402.26 369.569 1351.99 361.695 C 1351.56 355.14 1351.42 348.971 1353.16 342.587 z"/>
<path transform="translate(0,0)" fill="rgb(216,128,123)" d="M 1203.33 208.352 C 1223.07 209.133 1243.62 213.063 1263.39 215.095 L 1429.82 233.203 L 1838.04 274.168 C 1838.38 284.097 1840.49 298.519 1836.42 307.614 C 1809.97 303.95 1783.25 301.7 1756.67 299.006 L 1652.97 288.107 A 15756.7 15756.7 0 0 1 1306.04 250.153 C 1284.96 247.584 1263.73 245.708 1242.59 243.686 C 1232.42 242.714 1221.88 242.242 1211.8 240.553 C 1208.79 240.047 1205.49 239.555 1203.21 237.382 C 1199.63 229.407 1200.9 216.589 1203.33 208.352 z"/>
<path transform="translate(0,0)" fill="rgb(230,228,205)" d="M 228.59 1073.37 C 228.68 1071.17 228.275 1069.4 227.259 1067.44 C 223.248 1059.73 217.546 1052.37 212.857 1045 A 271.182 271.182 0 0 1 195.65 1012.83 C 156.087 926.477 147.788 834.486 164.612 741.543 C 193.323 582.938 301.306 440.287 432.161 349.959 A 899.626 899.626 0 0 1 1000.97 196.924 C 1042.31 199.803 1082.92 206.956 1123.61 214.431 C 1123.57 210.48 1122.57 203.606 1124.65 200.259 C 1125.32 312.718 1123.18 425.273 1122.9 537.744 L 1121.93 620.18 C 1121.73 635.397 1120.85 651.132 1122.01 666.305 C 1161.66 675.487 1202.99 680.478 1243.23 686.701 C 1283.28 692.894 1323.86 700.469 1364.17 704.376 C 1337.7 719.297 1314.8 739.812 1287.72 753.514 C 1276.32 759.283 1264.08 759.789 1252.7 764.504 C 1251.24 765.113 1250.66 765.452 1250.33 767.028 C 1249.25 772.219 1253.87 777.78 1256.84 781.657 C 1262.5 789.032 1268.5 796.04 1275.43 802.253 C 1279.72 806.105 1285.94 809.856 1289.38 814.346 C 1290.21 815.429 1290.14 818.029 1289.75 819.39 C 1289.09 821.739 1287.8 823.169 1285.61 824.178 C 1282.3 825.702 1279.48 825.728 1277.09 828.829 C 1276 832.024 1275.36 835.232 1277.13 838.373 C 1279.25 842.138 1283.72 842.903 1287.54 843.878 C 1288.81 854.07 1286.82 864.892 1286.75 875.185 C 1286.48 916.678 1290.88 951.897 1315.8 986.211 C 1299.92 991.363 1285.02 997.448 1272.64 1008.99 C 1246.45 1033.41 1225.98 1075.76 1206.04 1106.13 C 1191.82 1127.77 1175.48 1148.69 1162.86 1171.28 C 1149.91 1174.81 1139.24 1179.23 1132.29 1191.57 C 1125.94 1202.84 1125.1 1215.28 1121.91 1227.52 C 1120.38 1233.41 1117.67 1239.18 1116.48 1245.1 C 1115.89 1248.07 1116.1 1251.32 1116.93 1254.21 C 1118.53 1259.73 1122.94 1263.8 1126.95 1267.67 C 1090.54 1261.23 1053.22 1256.05 1017.3 1247.4 C 988.966 1257.93 959.734 1267.72 932.083 1279.9 C 929.18 1273.95 926.026 1264.5 919.057 1262.26 C 917.271 1261.69 915.376 1261.46 913.535 1261.15 C 913.085 1261.07 912.636 1260.98 912.186 1260.9 L 911.375 1260.76 C 913.989 1252.73 916.212 1243.53 920.067 1236.05 C 924.788 1226.89 932.045 1218.77 937.497 1209.99 C 955.183 1181.49 960.374 1150.03 944.964 1119.39 C 928.275 1086.2 891.823 1068.9 857.872 1058.03 C 800.655 1039.69 749.064 1037.38 694.29 1065.77 C 659.759 1083.67 634.249 1111.67 616.823 1146.19 C 600.244 1117.04 580.773 1086.15 557.431 1062 C 594.72 1056.28 611.038 1032.18 632.052 1003.49 C 643.665 987.642 648.35 974.778 646.442 954.946 C 645.868 948.981 644.841 942.86 645.005 936.862 C 645.393 922.667 650.431 905.753 654.782 892.247 C 671.142 880.484 689.164 860.829 692.874 840.297 C 695.348 826.612 690.55 812.879 682.594 801.811 C 669.587 783.716 646.495 770.128 625.758 762.959 C 618.165 760.334 609.782 758.772 602.518 755.419 C 595.212 752.047 588.724 746.671 581.708 742.689 C 562.783 731.948 541.284 725.256 519.837 722.007 C 500.454 719.071 481.474 719.982 462.368 724.458 C 444.922 705.557 426.263 692.557 399.822 691.365 C 373.6 690.183 346.393 702.1 327.398 719.765 C 307.328 738.432 294.245 765.735 293.409 793.237 C 293.045 805.193 295.188 817.459 298.594 828.888 C 305.618 852.463 321.521 880.814 299.15 901.777 C 292.778 907.749 283.288 912.058 274.493 911.571 C 269.494 911.294 261.329 909.508 256.83 911.559 L 256.413 913.158 C 259.182 917.816 265.471 919.688 270.456 920.973 C 296.501 927.689 323.613 926.522 347.001 912.331 C 353.034 908.67 358.552 904.111 363.924 899.553 C 379.695 928.541 391.323 946.43 421.505 962.286 C 416.925 974.233 410.31 985.622 404.022 996.747 C 397.744 997.593 390.744 997.994 384.984 1000.77 C 372.765 1006.67 364.087 1017.84 352.934 1025.22 C 344.169 1031.02 333.93 1034.74 324.939 1040.28 C 309.168 1050 294.641 1062.49 280.652 1074.59 C 262.787 1069.56 246.811 1070.73 228.59 1073.37 z"/>
</svg>