<svg version="1.1" xmlns="http://www.w3.org/2000/svg" style="display: block;" viewBox="0 0 2048 2048" width="1024" height="1024">
<defs>
	<linearGradient id="Gradient1" gradientUnits="userSpaceOnUse" x1="572.184" y1="412.853" x2="622.167" y2="433.29">
		<stop class="stop0" offset="0" stop-opacity="1" stop-color="rgb(220,225,218)"/>
		<stop class="stop1" offset="1" stop-opacity="1" stop-color="rgb(253,246,253)"/>
	</linearGradient>
</defs>
<path transform="translate(0,0)" fill="rgb(254,254,254)" d="M 0 0 L 2048 0 L 2048 2048 L 0 2048 L 0 0 z"/>
<path transform="translate(0,0)" fill="rgb(0,0,0)" d="M 1109.79 807.411 C 1110.74 807.619 1112.16 807.888 1113.02 808.274 C 1115.41 809.348 1115.98 810.254 1117.03 812.455 C 1116.26 816.157 1115.35 816.903 1112.92 819.685 C 1111.95 819.42 1110.49 819.067 1109.62 818.618 C 1107.18 817.361 1106.69 816.459 1105.84 814.076 C 1106.29 810.941 1107.73 809.608 1109.79 807.411 z"/>
<path transform="translate(0,0)" fill="rgb(0,0,0)" d="M 1107.27 830.435 C 1109.17 830.668 1110.99 831.081 1112.86 831.508 C 1117.39 837.197 1115.12 879.68 1115.09 889.831 C 1112.85 889.537 1110.79 889.05 1108.61 888.445 C 1105.07 880.421 1107.18 841.89 1107.27 830.435 z"/>
<path transform="translate(0,0)" fill="rgb(0,0,0)" d="M 1076.42 809.705 C 1078.95 809.785 1081.39 809.494 1083.42 811.221 C 1084.96 819.809 1084.03 829.599 1084.03 838.359 L 1084.03 889.203 C 1080.95 888.786 1078.92 889.032 1076.55 886.942 C 1074.37 865.469 1075.74 832.099 1076.42 809.705 z"/>
<path transform="translate(0,0)" fill="rgb(0,0,0)" d="M 1116.77 919.073 A 181.003 181.003 0 0 1 1122.9 918.842 C 1128.11 918.751 1137.75 918.671 1141.56 922.365 C 1141.64 925.179 1141.2 924.9 1139.5 926.947 C 1134.33 927.74 1129.56 923.763 1124.41 923.853 C 1121.32 923.907 1118.08 925.018 1116.18 927.628 C 1114.46 929.994 1114.71 931.239 1115.07 933.906 C 1119.73 940.634 1129.24 939.561 1136.25 942.426 C 1139.16 943.618 1141.6 945.564 1142.52 948.707 C 1143.48 951.952 1142.67 957.046 1140.98 959.928 C 1138.7 963.806 1134.12 965.115 1130.13 966.409 C 1123.69 966.242 1114.05 966.385 1108.73 962.315 C 1107.81 959.887 1107.69 959.988 1108.64 957.599 C 1112.18 956.519 1115.91 958.538 1119.48 959.459 C 1124.82 960.834 1129.2 961.874 1134.17 958.954 C 1136.02 956.618 1136.54 955.376 1136.93 952.423 C 1133.14 944.086 1114.43 945.216 1108.03 936.556 C 1106.85 934.95 1106.38 932.949 1106.78 931.013 C 1107.7 926.474 1113.01 921.374 1116.77 919.073 z"/>
<path transform="translate(0,0)" fill="rgb(0,0,0)" d="M 1153.42 832.218 C 1154.45 832.129 1155.48 832.069 1156.51 832.045 C 1163.32 831.888 1173.8 833.237 1178.32 839.178 C 1179.86 841.198 1179.87 842.15 1179.37 844.39 C 1178.54 844.819 1177.82 845.739 1176.89 845.676 C 1172.94 845.409 1167.02 838.294 1156.02 839.131 C 1151.3 839.491 1146.74 841.297 1143.74 845.07 C 1139.75 850.064 1137.95 858.039 1138.83 864.314 C 1139.58 869.675 1142.42 874.686 1146.84 877.857 C 1152.94 882.222 1160.05 881.683 1167.08 880.717 C 1169.35 879.438 1171.13 877.354 1173.39 876.207 C 1175.57 875.1 1177.32 875.496 1179.5 876.196 L 1179.62 878.091 C 1177.35 882.192 1173.75 884.85 1169.42 886.586 C 1162.03 889.555 1153.36 889.031 1146.1 885.885 C 1139.68 883.097 1134.66 878.108 1132.27 871.476 C 1129.47 863.682 1129.85 854.266 1133.74 846.899 C 1138.24 838.377 1144.54 834.928 1153.42 832.218 z"/>
<path transform="translate(0,0)" fill="rgb(0,0,0)" d="M 926.864 830.976 C 929.564 830.959 931.948 830.724 934.401 832.054 C 936.928 841.748 933.871 853.512 935.209 863.675 C 935.918 869.06 937.927 876.924 942.87 880.075 C 946.244 882.226 949.699 882.305 953.48 881.39 C 984.267 873.935 964.008 844.757 972.129 831.444 C 974.394 830.927 975.55 831.157 977.762 831.817 C 980.323 835.448 979.16 842.618 979.076 847.165 C 979.186 859.895 980.759 874.798 978.552 887.231 L 976.859 888.264 C 974.217 888.252 973.714 888.581 971.712 886.929 C 971.585 884.653 971.408 882.303 971.516 880.027 C 971.543 879.459 971.632 878.896 971.689 878.331 L 969.975 879.54 L 970.617 880.236 C 964.664 884.175 959.474 888.158 952.017 888.361 C 945.449 888.539 937.995 886.376 933.366 881.511 C 923.056 870.676 926.767 845.179 926.864 830.976 z"/>
<path transform="translate(0,0)" fill="rgb(0,0,0)" d="M 960.686 919.105 C 963.423 918.906 966.21 918.825 968.951 918.976 C 973.845 919.246 977.807 921.382 980.996 925.064 C 987.999 933.151 987.086 947.337 986.589 957.408 C 986.435 960.539 986.511 964.464 984.113 966.633 L 980.8 966.233 C 979.538 964.413 979.787 965.214 979.472 963.068 C 979.399 962.573 979.36 962.074 979.304 961.576 C 975.36 961.331 970.911 965.457 966.95 966.642 C 961.195 968.364 954.68 965.648 949.746 962.839 C 949.44 962.281 949.119 961.732 948.829 961.166 C 946.935 957.478 945.05 951.751 946.798 947.746 C 950.855 938.448 969.125 941.766 977.036 938.499 C 978.049 937.272 978.851 936.928 978.739 935.214 C 978.519 931.871 975.97 927.847 973.146 926.038 C 967.328 922.309 960.504 927.29 954.632 928.343 C 951.775 928.855 951.694 928.581 949.495 926.911 C 949.64 926.559 949.756 926.195 949.929 925.856 C 952.297 921.215 956.022 920.432 960.686 919.105 z"/>
<path transform="translate(0,0)" fill="rgb(254,254,254)" d="M 959.479 945.185 C 966.176 944.657 971.672 943.669 977.933 946.706 C 978.789 948.016 979.637 948.633 979.433 950.301 C 978.925 954.443 975.216 958.059 972.296 960.773 A 95.4729 95.4729 0 0 1 967.697 961.172 C 961.688 961.51 957.529 959.854 953.116 955.836 C 952.638 954.538 951.879 953.428 952.244 952.026 C 953.161 948.5 956.5 946.736 959.479 945.185 z"/>
<path transform="translate(0,0)" fill="rgb(0,0,0)" d="M 1075.33 919.175 C 1077.87 919.053 1080.46 918.901 1082.99 919.215 C 1088.57 919.908 1093.5 922.552 1096.69 927.282 C 1099.2 931.001 1102.06 938.662 1101 943.206 C 1100.06 947.261 1069.62 941.957 1063.93 946.884 C 1062.85 947.817 1063.31 948.655 1063.38 949.933 C 1064.91 952.45 1066.84 954.182 1069.15 956.01 C 1074.71 960.407 1079.14 960.776 1086.01 960.012 C 1089.06 958.556 1091.32 956.959 1094.75 957.43 L 1095.63 959.11 C 1094.23 962.089 1091.42 963.817 1088.44 965.035 C 1082.62 967.418 1076.54 967.034 1070.81 964.589 C 1064.93 962.077 1060.03 957.749 1057.65 951.71 C 1055.18 945.413 1055.76 938.248 1058.75 932.231 C 1062.35 924.994 1067.85 921.49 1075.33 919.175 z"/>
<path transform="translate(0,0)" fill="rgb(254,254,254)" d="M 1074.98 925.195 C 1077.4 925.06 1080.08 924.988 1082.47 925.398 C 1087.19 926.206 1090.91 929.767 1093.47 933.585 C 1093.75 936.334 1093.78 936.468 1092.38 938.838 C 1089.24 941.009 1085.13 940.322 1081.46 940.195 L 1062.46 940.403 A 90.8496 90.8496 0 0 1 1063.19 938.236 C 1065.63 931.284 1068.33 928.35 1074.98 925.195 z"/>
<path transform="translate(0,0)" fill="rgb(0,0,0)" d="M 890.33 904.207 C 902.361 904.404 917.965 902.583 928.918 908.145 C 933.694 910.571 937.446 914.442 938.95 919.658 C 940.564 925.254 939.438 931.591 936.568 936.583 C 932.507 943.646 927.335 945.935 919.715 947.888 C 912.183 948.624 904.538 948.303 896.978 948.209 C 897.056 952.183 897.223 956.193 897.129 960.165 C 897.067 962.774 897.45 964.808 895.463 966.666 C 892.925 966.764 892.722 967.237 890.597 965.631 C 888.7 945.549 890.174 924.406 890.33 904.207 z"/>
<path transform="translate(0,0)" fill="rgb(254,254,254)" d="M 897.404 911.267 C 907.351 910.917 919.076 909.549 927.772 915.562 C 930.529 917.469 932.569 920.046 932.925 923.486 C 933.487 928.914 930.758 934.199 927.642 938.409 C 918.77 943.665 907.3 942.339 897.31 942.343 C 897.206 931.991 897.363 921.621 897.404 911.267 z"/>
<path transform="translate(0,0)" fill="rgb(0,0,0)" d="M 1042.39 917.272 L 1044.05 918.067 C 1044.59 918.989 1044.8 919.219 1045.02 920.414 C 1045.78 924.491 1045.28 956.129 1044.69 960.875 C 1044.2 964.827 1043.04 968.893 1040.86 972.254 C 1037.83 976.919 1033.12 979.568 1027.68 980.434 C 1021.33 981.446 1005.91 979.946 1000.89 975.605 C 999.732 974.606 1000.12 974.061 1000.12 972.691 C 1001.54 970.671 1001.64 969.784 1004.03 968.905 C 1006.4 970.558 1008.96 972.317 1011.74 973.192 A 28.4643 28.4643 0 0 0 1034.2 970.721 C 1035.31 969.439 1036.16 968.233 1036.95 966.715 C 1038.49 963.749 1038.72 959.178 1037.64 956.06 C 1027.7 959.383 1018.76 963.694 1008.12 959.52 C 1003.28 957.625 1000.21 953.725 998.453 948.931 C 996.297 943.034 996.108 936.718 999.025 931.048 C 1001.89 925.472 1007.15 921.489 1013.09 919.662 C 1023.4 916.492 1028.34 919.881 1037.06 924.53 C 1038.6 921.507 1039.77 919.463 1042.39 917.272 z"/>
<path transform="translate(0,0)" fill="rgb(254,254,254)" d="M 1015.19 925.192 C 1018.37 924.827 1021.82 924.258 1024.98 925.02 C 1029.44 926.093 1033.46 929.2 1035.68 933.203 C 1037.53 936.554 1038.03 940.475 1036.84 944.141 C 1035 949.765 1031.4 952.482 1026.28 954.982 C 1023.5 955.226 1020.68 955.499 1017.91 955.131 C 1013.2 954.506 1008.51 951.924 1005.84 947.926 A 12.95 12.95 0 0 1 1004.2 937.166 C 1005.87 931.205 1010.11 928.199 1015.19 925.192 z"/>
<path transform="translate(0,0)" fill="rgb(0,0,0)" d="M 1003.22 808.819 C 1004.99 808.987 1006.35 809.179 1008 809.875 C 1011.82 817.772 1009.75 832.29 1009.93 841.249 C 1015.72 836.941 1021.12 833.672 1028.44 832.792 C 1036.17 831.862 1043.99 833.878 1050.02 838.907 C 1055.98 843.886 1059.31 851.18 1059.59 858.904 C 1059.94 868.392 1055.96 875.675 1049.63 882.372 C 1045.75 885.178 1041.1 887.359 1036.39 888.277 C 1028.29 889.856 1021.05 887.074 1014.48 882.428 C 1012.95 881.342 1011.79 880.483 1010.09 879.672 C 1009.29 883.205 1008.8 886.795 1006.56 889.742 C 1005.43 889.423 1003.64 889.368 1003.06 888.252 C 1001.07 884.406 1001.39 814.208 1003.22 808.819 z"/>
<path transform="translate(0,0)" fill="rgb(254,254,254)" d="M 1025.25 839.161 C 1028.27 838.922 1031.52 838.805 1034.54 839.227 C 1040.07 840 1045.51 844.092 1048.45 848.734 C 1051.63 853.761 1052.53 860.279 1050.98 866.012 C 1048.94 873.608 1044.15 877.63 1037.52 881.296 C 1033.83 881.89 1029.79 882.269 1026.09 881.573 C 1018.18 880.081 1014.24 874.742 1010.15 868.365 C 1009.79 863.289 1009.25 857.559 1010.8 852.636 C 1013.11 845.319 1018.79 842.341 1025.25 839.161 z"/>
<path transform="translate(0,0)" fill="rgb(0,0,0)" d="M 852.173 816.046 C 865.852 815.138 884.132 813.394 896.773 819.331 C 903.114 822.309 908.17 827.186 910.309 833.975 C 912.327 840.382 911.67 848.005 908.509 853.937 C 903.957 862.482 897.649 865.324 888.825 867.819 L 887.732 867.957 C 878.615 869.162 869.259 868.397 860.09 868.074 C 860.238 873.826 861.712 884.363 858.31 889.253 C 855.945 889.401 855.692 889.235 853.609 888.063 C 852.485 886.086 851.82 884.466 851.577 882.183 C 850.954 876.335 851.983 870.179 852.033 864.288 L 852.173 816.046 z"/>
<path transform="translate(0,0)" fill="rgb(254,254,254)" d="M 860.304 823.035 C 872.838 822.764 887.332 821.254 897.859 829.463 C 900.957 831.878 903.638 835.004 904.077 839.059 C 904.73 845.095 901.697 851.694 898.123 856.346 C 886.696 863.567 873.343 861.498 860.451 860.996 L 860.304 823.035 z"/>
<path transform="translate(0,0)" fill="rgb(127,86,85)" d="M 799.477 596.255 C 803.774 595.704 808.244 595.748 812.572 595.792 C 830.933 595.979 846.994 603.582 859.759 616.524 C 854.634 622.513 849.114 628.225 843.781 634.034 C 836.183 626.73 828.269 620.716 817.549 618.9 C 807.085 617.127 796.199 619.357 787.605 625.677 A 41.0069 41.0069 0 0 0 771.586 652.521 C 770.08 662.732 772.414 673.843 778.673 682.152 C 784.994 690.541 795.214 695.779 805.544 697.071 C 818.186 698.653 829.037 694.252 838.701 686.427 L 841.593 683.367 C 847.316 682.693 856.084 692.789 860.828 696.502 A 72.2977 72.2977 0 0 1 858.451 700.332 C 851.283 710.947 838.202 716.691 826.003 719.191 C 807.038 723.076 785.708 720.964 769.313 710.084 A 59.028 59.028 0 0 1 744.023 671.711 C 740.814 654.993 743.797 637.179 753.597 623.121 C 764.329 607.726 781.38 599.323 799.477 596.255 z"/>
<path transform="translate(0,0)" fill="rgb(127,86,85)" d="M 1018.59 597.215 L 1046.99 597.202 C 1047.47 618.94 1044.44 655.26 1048.61 674.992 C 1049.81 680.668 1052.13 686.11 1056.23 690.297 C 1061.35 695.515 1068.34 697.459 1075.49 697.497 C 1082.74 697.535 1089.39 695.536 1094.51 690.218 C 1098.65 685.925 1101.03 680.129 1102.14 674.342 C 1105.3 657.908 1103.05 616.601 1102.99 597.428 A 544.014 544.014 0 0 1 1129.87 597.74 L 1129.84 620.5 C 1129.62 645.681 1135.3 687.069 1116.54 706.347 C 1106.11 717.072 1090.49 720.976 1075.93 721.052 C 1060.39 721.133 1044.08 716.441 1032.95 705.136 A 44.5487 44.5487 0 0 1 1021.94 686.48 C 1016.11 666.659 1018.69 619.927 1018.59 597.215 z"/>
<path transform="translate(0,0)" fill="rgb(127,86,85)" d="M 885.676 598.011 C 908.576 598.115 938.104 594.631 959.939 601.069 C 971.183 604.385 982.094 610.641 987.586 621.413 C 993.079 632.188 992.934 646.877 989.012 658.211 C 985.194 669.244 977.994 675.545 967.923 680.683 C 974.03 691.348 989.505 708.957 992.715 719.419 C 990.332 720.517 986.195 720.044 983.5 720.06 L 964.936 720.139 C 957.323 708.451 949.966 696.655 940.473 686.37 C 931.682 685.893 922.74 686.188 913.931 686.155 L 913.916 719.928 L 886.575 719.927 A 4073.44 4073.44 0 0 1 885.676 598.011 z"/>
<path transform="translate(0,0)" fill="rgb(254,254,254)" d="M 913.982 619.501 C 926.663 619.189 944.867 616.752 955.562 624.801 C 960.629 628.615 962.856 634.119 963.461 640.283 C 964.215 647.978 962.037 652.824 957.102 658.575 C 944.083 666.839 928.534 665.069 913.827 664.764 A 1212.9 1212.9 0 0 1 913.982 619.501 z"/>
<path transform="translate(0,0)" fill="rgb(127,86,85)" d="M 1165.23 598.269 C 1197.98 597.959 1243.71 591.889 1270.55 614.408 C 1281.9 623.94 1287.91 637.771 1288.84 652.373 C 1290.09 672.009 1284.7 686.878 1271.71 701.633 C 1250.52 719.016 1230.48 719.441 1204.2 719.407 L 1165.19 719.445 L 1165.23 598.269 z"/>
<path transform="translate(0,0)" fill="rgb(254,254,254)" d="M 1193.49 620.099 C 1211.27 619.443 1234.48 616.787 1248.84 629.571 C 1256.73 636.603 1261.1 647.008 1261.27 657.519 C 1261.44 668.988 1257.05 678.178 1249.36 686.422 C 1233.73 699.573 1212.64 697.205 1193.65 696.983 C 1192.96 671.427 1193 645.661 1193.49 620.099 z"/>
<path transform="translate(0,0)" fill="rgb(230,230,228)" d="M 1728.84 1184.3 C 1766.63 1184.39 1804.53 1187.09 1842.23 1186.81 C 1844.71 1192.21 1848.09 1197.94 1854.03 1200.05 C 1858.29 1201.57 1863.11 1200.27 1866.91 1198.1 C 1871.03 1195.75 1874.47 1191.9 1877.77 1188.53 C 1909.41 1192.37 1949.7 1187.31 1978.16 1203.66 C 1981.21 1205.42 1983.01 1206.96 1984 1210.44 C 1983.63 1212.44 1983.31 1213.51 1981.98 1215.12 C 1971.89 1227.38 1927.09 1232.85 1910.68 1235.16 A 1142.86 1142.86 0 0 1 1797.28 1244.27 C 1742.31 1246.12 1498.72 1246.08 1464.22 1216.47 C 1462.07 1214.62 1461.79 1213.58 1461.7 1210.84 C 1462.38 1209.63 1463.06 1208.62 1464.16 1207.75 C 1482.81 1192.87 1602.32 1182.93 1628.33 1185.41 C 1628.67 1185.44 1629.01 1185.49 1629.34 1185.52 C 1627.02 1188.96 1625.44 1192.28 1625.08 1196.48 C 1624.79 1199.85 1625.86 1202.98 1628.12 1205.48 C 1633.1 1210.98 1641.71 1212.6 1648.76 1212.99 C 1662.16 1213.72 1715.11 1212.24 1723.89 1203.74 C 1729.33 1198.48 1729.02 1191.26 1728.84 1184.3 z"/>
<path transform="translate(0,0)" fill="rgb(230,230,228)" d="M 413.827 1019.75 C 416.288 1018.31 418.252 1017.44 421.114 1017.16 C 433.616 1015.9 446.851 1016.52 459.447 1016.41 C 495.257 1016.1 531.086 1017.4 566.887 1016.34 C 566.252 1026.96 565.332 1041.57 572.748 1050.19 C 576.017 1054 579.847 1054.9 584.687 1055.03 C 604.33 1055.57 663.665 1040.17 677.061 1026.55 C 677.318 1026.28 677.558 1026 677.807 1025.73 C 702.514 1027.13 732.29 1032.6 754.966 1042.25 C 761.219 1044.9 768.103 1048.09 770.813 1054.69 C 770.603 1057.19 770.594 1058.18 769.078 1060.27 C 758.428 1074.97 725.848 1081.26 709.212 1084.21 C 682.811 1088.91 655.76 1093.3 629.045 1095.52 A 1875.74 1875.74 0 0 1 380.625 1099.43 C 339.345 1097.14 297.989 1093.96 257.537 1085.03 C 241.935 1081.58 223.238 1077.81 210.174 1068.16 C 207.56 1066.23 204.933 1063.78 204.707 1060.32 C 204.492 1057.04 205.805 1054.1 207.963 1051.71 C 225.699 1032.09 315.452 1023.24 343.474 1021.4 C 339.955 1030.1 338.829 1041.93 340.27 1051.24 C 340.875 1055.15 341.996 1059.01 345.54 1061.21 C 357.568 1068.68 419.753 1069.16 433.874 1064.77 C 438.909 1063.21 444.036 1060.4 446.363 1055.43 C 448.046 1051.84 447.657 1047.69 446.3 1044.05 C 441.625 1031.51 424.989 1025.01 413.827 1019.75 z"/>
<path transform="translate(0,0)" fill="rgb(127,86,85)" d="M 966.267 48.5 L 1231 48.0849 L 1231.07 163.134 C 1231.07 182.675 1233.41 210.874 1229.02 229.176 C 1227.24 236.615 1222.57 243.832 1217.11 249.114 A 42.8954 42.8954 0 0 1 1196.92 260.127 C 1181.66 263.529 1163.8 261.88 1148.21 261.867 L 1069.19 261.737 L 916.794 261.724 C 894.188 261.772 860.048 264.193 839.09 260.121 C 830.722 258.496 822.991 253.741 816.98 247.793 C 810.779 241.655 806.043 233.746 804.194 225.179 C 800.368 207.46 802.558 183.906 802.551 165.55 L 802.68 48.6543 L 966.267 48.5 z"/>
<path transform="translate(0,0)" fill="rgb(254,254,254)" d="M 1041.2 133.184 L 1054.95 133.126 L 1055.09 189.194 L 1041.08 189.225 L 1041.2 133.184 z"/>
<path transform="translate(0,0)" fill="rgb(254,254,254)" d="M 990.484 133.686 C 994.893 133.538 999.333 133.729 1003.74 133.808 L 1003.72 177.291 L 1028.94 177.366 L 1028.89 189.061 L 990.521 189.01 A 3507.77 3507.77 0 0 1 990.484 133.686 z"/>
<path transform="translate(0,0)" fill="rgb(254,254,254)" d="M 1067.32 133.22 C 1079.61 133.151 1102.93 131.149 1114.19 133.897 C 1114.91 135.394 1115.19 136.493 1115.2 138.162 C 1115.2 141.116 1115.55 142.024 1113.48 144.109 C 1108.1 144.635 1102.64 144.398 1097.24 144.357 L 1097.18 172.384 L 1097.16 189.069 L 1083.95 189.052 L 1083.87 144.027 C 1079.59 144.065 1072.1 145.388 1068.47 142.985 C 1066.47 139.966 1067.13 136.667 1067.32 133.22 z"/>
<path transform="translate(0,0)" fill="rgb(254,254,254)" d="M 887.278 132.388 C 895.243 132.677 900.905 134.198 908.075 137.402 C 905.978 140.494 903.865 143.474 901.505 146.371 C 897.22 144.922 891.873 142.622 887.313 142.873 C 885.106 142.994 882.715 143.519 881.387 145.498 C 879.976 147.601 880.145 148.652 880.606 150.919 C 886.311 155.507 894.909 156.743 901.464 160.329 C 905.19 162.368 909.874 165.525 910.696 170.06 C 911.536 174.694 908.013 179.443 905.114 182.653 C 899.342 189.046 893.141 189.74 885.02 190.227 C 877.386 189.041 871.646 186.591 864.951 182.933 C 866.319 180.054 867.753 177.536 869.58 174.921 C 873.078 173.974 880.963 178.299 884.787 179.328 C 887.69 180.109 891.215 180.517 893.802 178.614 C 895.685 177.228 896.169 175.499 896.636 173.338 C 893.844 167.128 879.793 165.572 873.85 161.805 C 870.594 159.741 867.795 156.785 867.096 152.87 C 866.216 147.941 867.964 142.769 871.016 138.91 C 874.944 133.945 881.38 133.079 887.278 132.388 z"/>
<path transform="translate(0,0)" fill="rgb(254,254,254)" d="M 1124.97 133.681 C 1137.57 133.623 1151.7 132.324 1164.1 134.099 C 1165.48 135.783 1165.66 137.848 1165.36 140.061 C 1164.08 149.228 1144.38 141.396 1138.35 145.464 C 1138.03 146.594 1137.55 147.956 1137.51 149.155 C 1137.43 151.773 1138.33 153.085 1139.93 154.989 C 1146.18 156.627 1155.27 155.416 1161.85 155.334 C 1161.94 157.916 1162.68 162.822 1160.54 164.683 C 1158.23 166.687 1155.33 166.931 1152.43 166.696 C 1147.61 166.305 1142.79 166.263 1137.95 166.177 C 1137.77 169.566 1137.21 172.873 1138.81 175.99 C 1144.92 180.688 1157.73 178.052 1165.4 178.058 L 1165.56 188.976 L 1125.01 188.965 L 1124.97 133.681 z"/>
<path transform="translate(0,0)" fill="rgb(254,254,254)" d="M 944.566 132.273 C 948.963 132.379 953.328 132.511 957.55 133.877 C 965.439 136.43 972.724 142.314 976.356 149.824 C 988.224 174.366 963.151 182.809 961.077 188.594 C 961.992 190.381 963.053 191.272 964.724 192.322 C 970.034 195.657 973.649 193.321 979.175 192.219 C 982.248 193.697 983.598 196.371 985.392 199.125 C 984.188 201.504 980.431 202.939 978.058 204.28 C 977.596 204.38 977.137 204.492 976.673 204.582 C 958.745 208.04 959.049 197.8 947.386 191.176 C 941.875 188.046 935.095 189.542 929.178 185.505 C 922.616 181.027 917.619 174.28 916.258 166.368 A 27.7077 27.7077 0 0 1 920.972 145.711 C 926.912 137.293 934.672 133.838 944.566 132.273 z"/>
<path transform="translate(0,0)" fill="rgb(127,86,85)" d="M 942.093 144.125 C 944.655 143.821 947.483 143.663 950.048 143.985 C 954.324 144.522 958.439 147.446 960.745 151.018 C 963.301 154.976 963.906 159.895 962.877 164.444 C 961.335 171.257 957.098 175.492 951.297 178.983 C 948.663 179.068 945.736 179.306 943.159 178.687 C 938.828 177.646 934.528 174.206 932.302 170.399 C 929.894 166.28 929.428 161.328 930.705 156.763 C 932.517 150.282 936.475 147.337 942.093 144.125 z"/>
<path transform="translate(0,0)" fill="rgb(127,86,85)" d="M 1045.08 1321.06 L 796.253 1320.95 L 726.205 1321.17 C 713.257 1321.21 699.457 1322.22 686.659 1320.29 A 72.2398 72.2398 0 0 1 649.874 1303.14 C 636.286 1290.99 629.673 1273.59 628.773 1255.63 C 627.795 1236.15 633.673 1218.34 646.85 1203.89 C 659.754 1189.75 676.785 1181.46 695.952 1180.75 C 711.496 1180.16 727.246 1180.76 742.806 1180.81 L 826.839 1180.81 L 1109.22 1181.14 L 1264.99 1181.19 C 1286.37 1181.19 1318.72 1179.33 1338.61 1181.87 A 67.7615 67.7615 0 0 1 1377.17 1199.84 A 69.3449 69.3449 0 0 1 1399.01 1249.24 C 1399.48 1267.8 1392.64 1286.59 1379.66 1299.96 C 1369.7 1310.22 1356.81 1316.73 1342.83 1319.43 C 1330.24 1321.87 1316.96 1321.03 1304.2 1320.96 L 1253 1320.71 L 1053.93 1320.95 C 1053.91 1336.06 1054.2 1351.31 1053.16 1366.39 C 1052.42 1351.69 1054.52 1336.24 1052.42 1321.78 L 1050.79 1320.53 C 1048.2 1320.95 1048.11 1320.89 1046.34 1322.8 C 1044.15 1336.98 1045.95 1354.23 1045.99 1368.76 L 1046.08 1479.07 C 1046.06 1496.87 1047.59 1516.65 1045.21 1534.25 C 1043.8 1510.66 1045.04 1486.41 1045.05 1462.74 L 1045.08 1321.06 z"/>
<path transform="translate(0,0)" fill="rgb(254,254,254)" d="M 1063.32 1212.45 C 1066.3 1212.67 1068.18 1212.77 1070.7 1214.6 C 1072.09 1217.41 1071.8 1218.77 1071.39 1221.76 C 1068.6 1221.93 1066.05 1222.48 1063.65 1220.76 C 1062.11 1217.97 1062.86 1215.44 1063.32 1212.45 z"/>
<path transform="translate(0,0)" fill="rgb(254,254,254)" d="M 1062.86 1233.49 C 1065.34 1233.56 1067.89 1233.25 1069.9 1234.91 C 1071.55 1249.48 1070.33 1265.23 1070.25 1279.93 C 1067.96 1279.92 1066 1279.71 1063.75 1279.23 C 1060.73 1270.75 1062.78 1244.03 1062.86 1233.49 z"/>
<path transform="translate(0,0)" fill="rgb(254,254,254)" d="M 1174.01 1220.37 C 1177.24 1220.16 1179.23 1220.26 1182.33 1221.19 C 1184.7 1224.47 1181.54 1227.92 1182.74 1232.06 C 1185.31 1234.14 1188.86 1233.42 1192.13 1233.43 C 1194.08 1234.74 1193.98 1235 1194.72 1237.27 L 1193.6 1239 C 1190.04 1240.53 1186.01 1240.08 1182.2 1240.02 C 1182.14 1248.88 1179.86 1264.75 1184.12 1272.48 C 1187.54 1274.39 1190.55 1273.55 1194.15 1274.5 C 1194.67 1274.63 1195.17 1274.78 1195.68 1274.92 C 1195.17 1276.33 1194.7 1278.11 1193.5 1279.12 C 1191.67 1280.67 1188.16 1280.9 1185.84 1280.66 C 1165.26 1278.55 1181.27 1250.7 1171.64 1240.09 C 1171.54 1239.98 1170.3 1238.69 1170.18 1238.53 C 1168.73 1236.55 1168.76 1236.32 1169.19 1234.07 L 1172.75 1233.09 C 1174.91 1229.62 1174 1224.46 1174.01 1220.37 z"/>
<path transform="translate(0,0)" fill="rgb(254,254,254)" d="M 1033.38 1220.17 C 1035.74 1220.17 1037.91 1220.05 1040.12 1221.03 C 1043.4 1222.5 1040.03 1228.14 1041.14 1231.53 C 1044.24 1233.51 1047.08 1232.42 1050.65 1232.85 C 1052.65 1233.1 1051.79 1232.7 1053.21 1234.51 L 1052.73 1237.85 C 1049.52 1240.5 1044.81 1239.32 1040.78 1239.05 C 1040.7 1248.76 1039.48 1260.13 1041.29 1269.67 C 1042.58 1276.5 1049.87 1271.66 1054.39 1274.72 C 1053.56 1276.03 1052.68 1277.46 1051.57 1278.54 C 1049.64 1280.41 1046.41 1281.42 1043.76 1281.23 C 1025.05 1279.84 1037.61 1246.96 1031.74 1239.57 C 1029.82 1239.48 1027.97 1239.29 1026.06 1239 C 1025.26 1236.94 1025.37 1236.74 1025.9 1234.57 C 1027.87 1233.68 1029.72 1232.7 1031.6 1231.63 C 1033.84 1227.77 1033.32 1224.51 1033.38 1220.17 z"/>
<path transform="translate(0,0)" fill="rgb(254,254,254)" d="M 852.842 1220.25 C 855.602 1221.49 856.164 1221.79 857.229 1224.51 C 856.978 1226.05 856.478 1227.98 856.576 1229.52 C 856.719 1231.77 857.287 1232.02 858.947 1233.19 C 862.118 1233.05 865.221 1232.56 868.164 1233.97 C 868.99 1236.37 869.487 1236.34 868.511 1238.82 C 865.282 1240.72 860.577 1240.04 856.916 1240 C 856.947 1247.32 856.205 1254.79 856.616 1262.1 C 856.87 1266.61 857.227 1270.39 860.763 1273.58 C 863.909 1274.42 866.167 1273.44 869.153 1272.49 L 870.499 1272.06 C 872.336 1273.95 871.714 1275.24 871.693 1277.77 C 868.543 1279.9 863.86 1281.72 859.991 1281.45 C 857.145 1281.25 855.361 1280.42 853.412 1278.33 C 846.694 1271.13 848.881 1251.24 848.972 1242.01 C 847.2 1239 844.579 1240.69 841.655 1238.64 C 841.466 1236.19 841.3 1235.62 842.398 1233.46 C 844.467 1233.34 846.286 1233.19 848.283 1232.62 L 849.389 1230.11 C 848.996 1227.77 848.428 1225.56 849.197 1223.24 C 849.762 1221.53 851.388 1221.12 852.842 1220.25 z"/>
<path transform="translate(0,0)" fill="rgb(254,254,254)" d="M 1097.18 1233.14 C 1103.53 1232.68 1109.86 1232.99 1115.35 1236.58 C 1117.91 1238.25 1119.68 1240.26 1120.27 1243.3 C 1118.63 1245.48 1118.49 1244.95 1115.94 1245.36 C 1113.66 1244.25 1111.36 1243.17 1108.94 1242.37 C 1103.79 1240.68 1096.95 1239.47 1092.09 1242.69 C 1089.61 1244.33 1088.39 1247.09 1088.14 1249.97 C 1087.69 1255.04 1089.07 1265.5 1092.8 1269.33 C 1096.88 1273.51 1102.52 1273.21 1107.91 1272.96 C 1110.17 1271.62 1112.71 1269.72 1115.38 1269.5 C 1116.88 1269.37 1117.09 1270.18 1118.04 1271.15 L 1117.51 1273.43 C 1115.53 1275.62 1113.81 1277.12 1111.11 1278.38 C 1105.66 1280.94 1099.15 1280.65 1093.59 1278.56 C 1088.41 1276.6 1084.27 1272.94 1082.11 1267.8 C 1079.41 1261.35 1079.7 1253.44 1082.28 1247.01 C 1085.36 1239.34 1089.82 1236.41 1097.18 1233.14 z"/>
<path transform="translate(0,0)" fill="rgb(254,254,254)" d="M 795.368 1233.39 C 797.64 1233.24 799.625 1232.88 801.694 1234.05 C 805.828 1240.97 802.884 1251.98 803.25 1259.78 C 803.438 1263.79 803.925 1268.99 807.482 1271.56 C 809.897 1273.3 813.232 1273.45 816.091 1273.08 C 836.112 1270.45 821.272 1242.94 828.508 1233.08 C 831.375 1232.89 831.691 1232.6 833.997 1234.23 C 835.984 1238.43 835.106 1243.93 834.969 1248.5 C 835.056 1258.58 835.758 1269.08 834.573 1279.09 C 832.813 1280.63 833.35 1280.75 830.805 1280.63 C 828.465 1278.43 828.304 1275.71 826.236 1273.38 C 822.573 1276.63 817.64 1280.9 812.386 1280.8 C 808.267 1280.72 803.744 1278.32 801.028 1275.27 C 792.241 1265.4 795.094 1245.75 795.368 1233.39 z"/>
<path transform="translate(0,0)" fill="rgb(254,254,254)" d="M 979.255 1232.42 L 985.461 1233.33 C 986.01 1234.66 986.391 1235.88 986.749 1237.29 L 987.135 1238.87 C 990.716 1238.34 993.286 1235.7 996.352 1233.96 C 999.411 1232.22 1002.35 1231.63 1005.77 1232.66 C 1010.24 1234 1014.28 1237.11 1016.4 1241.28 C 1020.94 1250.22 1020.01 1270.67 1016.89 1280.11 L 1013.87 1280.58 C 1009.61 1272.48 1010.82 1261.66 1011 1252.75 C 1010.41 1248.63 1009.14 1243.78 1005.5 1241.29 C 1002.91 1239.51 999.094 1239.19 996.076 1239.74 C 978.826 1242.88 992.217 1271.09 985.929 1279.94 C 983.627 1280.13 982.348 1280.29 980.265 1279.2 C 977.659 1274.81 979.24 1239.25 979.255 1232.42 z"/>
<path transform="translate(0,0)" fill="rgb(254,254,254)" d="M 879.65 1209.79 C 881.886 1209.77 883.59 1209.55 885.6 1210.67 C 889.565 1218.28 887.199 1232.78 887.064 1241.29 C 891.94 1236.49 896.824 1233.22 903.866 1233.09 C 907.659 1233.02 911.092 1234.25 913.712 1237.04 C 920.213 1243.95 919.04 1259.04 918.779 1267.89 C 918.666 1271.7 918.883 1277.65 915.945 1280.44 L 913.474 1279.85 C 908.615 1274.67 910.789 1260.46 910.901 1253.75 C 910.945 1249.52 910.871 1244.97 907.374 1241.93 C 905.22 1240.06 902.857 1239.6 900.09 1239.82 C 894.245 1240.27 890.725 1244.27 887.407 1248.61 C 887.441 1256.6 889.454 1275.07 884.491 1281.08 L 880.893 1279.9 C 877.459 1275.98 879.335 1219.52 879.65 1209.79 z"/>
<path transform="translate(0,0)" fill="rgb(254,254,254)" d="M 1141.82 1232.38 C 1144.41 1232.53 1147 1232.7 1149.49 1233.48 C 1154.07 1234.9 1157.15 1238.45 1159.03 1242.73 C 1161.83 1249.08 1163.01 1272.72 1160.67 1279.05 L 1158.99 1279.6 L 1152.91 1275.94 C 1149.57 1278.01 1146.2 1279.77 1142.22 1280.07 C 1135.8 1280.54 1131.11 1278.05 1126.45 1273.89 C 1125.51 1271.58 1124.81 1268.97 1124.66 1266.47 C 1124.47 1263.29 1125.36 1259.87 1127.51 1257.47 C 1133.53 1250.77 1144.83 1252.13 1152.98 1251.82 L 1153.76 1250.65 C 1153.65 1247.45 1153.12 1243.51 1150.86 1241.06 C 1145.6 1235.33 1136.79 1242.75 1130.72 1242.42 C 1129.14 1242.33 1129.53 1242.27 1128.49 1240.99 C 1128.62 1239.83 1128.86 1239.07 1129.56 1238.12 C 1132.85 1233.63 1136.65 1233.28 1141.82 1232.38 z"/>
<path transform="translate(0,0)" fill="rgb(127,86,85)" d="M 1138.29 1257.25 C 1141.21 1257.13 1144.14 1256.99 1147.05 1257.03 C 1150.59 1257.08 1152.29 1258.6 1154.63 1261.03 C 1154.94 1262.35 1155.47 1263.34 1154.98 1264.68 C 1153.51 1268.74 1150.07 1271.25 1146.48 1273.32 C 1144.49 1273.53 1141.93 1273.94 1139.94 1273.57 C 1137.65 1273.15 1134.57 1271.48 1133.27 1269.4 C 1131.93 1267.28 1131.42 1265.39 1132.27 1262.93 C 1133.29 1260.03 1135.83 1258.68 1138.29 1257.25 z"/>
<path transform="translate(0,0)" fill="rgb(254,254,254)" d="M 945.072 1233.04 L 945.96 1232.98 C 952.533 1232.59 958.564 1233.29 963.554 1238 C 967.991 1242.18 969.905 1247.79 970.262 1253.74 C 965.377 1264.55 945.557 1253.71 937.277 1259.11 C 936.111 1259.88 936.386 1261.03 936.222 1262.29 C 938.513 1267.55 940.959 1271 946.439 1273.2 C 950.968 1275.02 955.227 1273.86 959.532 1272.07 C 962.103 1270.37 962.508 1269.81 965.537 1269.86 L 966.937 1271.54 C 966.894 1271.88 966.892 1272.22 966.808 1272.56 C 966.133 1275.22 963.642 1277.2 961.33 1278.48 C 955.706 1281.58 948.96 1281.28 942.996 1279.35 C 937.233 1277.5 932.432 1273.56 929.971 1267.96 C 927.135 1261.51 927.4 1253.97 930.034 1247.5 C 933.132 1239.9 937.756 1236.31 945.072 1233.04 z"/>
<path transform="translate(0,0)" fill="rgb(127,86,85)" d="M 946.89 1239.02 C 948.603 1239.01 950.243 1239.07 951.943 1239.34 C 955.142 1239.84 959.971 1243.07 961.428 1246.03 C 962.618 1248.44 962.369 1249.04 961.501 1251.36 C 958.296 1253.32 956.268 1252.85 952.559 1252.86 C 948.948 1252.99 943.46 1253.79 940.063 1252.54 C 937.576 1251.63 937.132 1250.99 936.128 1248.76 C 937.5 1244.3 942.977 1241.1 946.89 1239.02 z"/>
<path transform="translate(0,0)" fill="rgb(254,254,254)" d="M 1216.29 1233.18 C 1222.29 1232.79 1228.11 1233.11 1233.12 1236.82 C 1240.37 1242.19 1241.4 1251.7 1242.57 1259.94 C 1234.89 1260.07 1214.81 1257.17 1208.67 1261.62 C 1207.39 1262.55 1207.71 1263.29 1207.54 1264.72 C 1208.6 1267.08 1209.86 1268.7 1211.81 1270.38 C 1216.63 1274.55 1222.6 1274.02 1228.53 1273.44 C 1230.49 1272.46 1231.99 1271.62 1234.19 1271.31 C 1235.99 1271.05 1235.34 1271.09 1237.05 1272.31 L 1236.85 1274.62 C 1235.66 1276.04 1234.58 1277.33 1233 1278.34 A 18.8808 18.8808 0 0 1 1218.02 1280.78 C 1211.46 1279.15 1205.36 1275.4 1202.08 1269.34 C 1198.76 1263.21 1198.49 1255.52 1200.73 1248.98 C 1203.65 1240.48 1208.41 1236.87 1216.29 1233.18 z"/>
<path transform="translate(0,0)" fill="rgb(127,86,85)" d="M 1215.93 1240 C 1216.21 1239.97 1216.49 1239.93 1216.76 1239.91 C 1222.72 1239.53 1226.15 1240.48 1230.61 1244.56 C 1233.1 1246.84 1234.13 1248.77 1234.34 1252.1 C 1232.09 1254.26 1231.28 1253.82 1228.25 1253.94 C 1222.82 1254.06 1215.83 1254.98 1210.65 1253.28 C 1208.06 1252.43 1207.92 1252.32 1206.76 1250.01 C 1207.85 1245.47 1212.33 1242.53 1215.93 1240 z"/>
<path transform="translate(0,0)" fill="rgb(254,254,254)" d="M 756.679 1215.01 C 759.158 1214.82 761.305 1214.65 763.765 1215.2 C 767.362 1218.79 788.748 1271.76 789.721 1278.02 C 787.887 1279.6 787.724 1279.85 785.345 1280.12 C 780.325 1276.53 779.553 1268.52 775.705 1263.85 C 773.647 1261.36 771.185 1262 768.25 1261.9 L 746.883 1261.92 C 745.246 1266.49 743.289 1274.67 740.045 1278.16 C 737.453 1278.87 737.126 1279.05 734.615 1278.21 C 734.323 1277.55 733.819 1276.95 733.74 1276.24 C 733.398 1273.17 753.782 1224.39 756.679 1215.01 z"/>
<path transform="translate(0,0)" fill="rgb(127,86,85)" d="M 761.234 1226.62 C 765.4 1230.34 770.348 1248.56 772.623 1254.59 C 769.135 1255.77 764.454 1255.13 760.75 1255.09 L 749.821 1255.1 L 761.234 1226.62 z"/>
<path transform="translate(0,0)" fill="rgb(254,254,254)" d="M 1282.97 1212.94 C 1286.08 1213.12 1288.22 1212.6 1290.62 1214.68 C 1291.47 1223.5 1292.31 1274.96 1289.92 1279.68 C 1287.35 1279.97 1286.68 1280.14 1284.33 1279.14 L 1283.53 1274.17 C 1278.97 1274.91 1276.96 1277.63 1273.15 1279.59 C 1268.85 1281.79 1262.24 1278.88 1258.18 1277.3 C 1252.7 1272.61 1249.19 1267.75 1247.96 1260.5 C 1246.82 1253.85 1248.26 1246.49 1252.47 1241.12 C 1255.83 1236.84 1260.59 1234.15 1266.02 1233.64 C 1273.12 1232.98 1277.84 1235.76 1283.1 1240.15 L 1282.97 1212.94 z"/>
<path transform="translate(0,0)" fill="rgb(127,86,85)" d="M 1265.88 1240 C 1268.45 1240.01 1270.87 1240.07 1273.32 1240.91 C 1277.26 1242.27 1280.36 1245.52 1282.12 1249.23 C 1284.36 1253.98 1284.37 1259.43 1282.39 1264.27 C 1280.34 1269.26 1277.36 1271.19 1272.59 1273.34 C 1270.4 1273.26 1268.34 1273.15 1266.22 1272.52 C 1261.85 1271.23 1258.4 1267.98 1256.33 1263.96 A 17.1136 17.1136 0 0 1 1255.35 1250.63 C 1257.19 1245.17 1260.86 1242.38 1265.88 1240 z"/>
<path transform="translate(0,0)" fill="rgb(0,0,0)" d="M 1686.77 632.494 C 1677.86 631.999 1671.36 630.012 1665.21 623.184 C 1654.77 611.617 1652.88 595.668 1649.57 581.174 C 1648.46 576.339 1646.31 570.699 1646.73 565.721 C 1647.39 558.084 1654.06 550.756 1659.77 546.234 C 1672.19 536.379 1688.97 529.731 1704.98 531.948 C 1720.52 534.102 1731.91 542.753 1736.47 558.015 C 1737.64 561.937 1738.27 567.176 1740.79 570.43 C 1743.47 570.543 1746.15 570.666 1748.82 570.961 C 1767.98 573.084 1784.35 589.462 1795.54 603.777 C 1801.68 613.364 1807.9 622.953 1813.44 632.904 C 1830.05 662.75 1844.62 696.833 1870.74 719.817 C 1865.55 731.93 1857.36 740.921 1846.24 747.903 C 1831.57 755.89 1819.67 758.649 1803 757.685 C 1807.03 775.208 1813.93 791.945 1815.57 809.96 C 1811.75 814.062 1807.72 816.944 1807.63 822.787 C 1807.9 825.456 1808.29 826.514 1806.44 828.744 C 1804.88 830.628 1801.12 832.438 1799 833.756 C 1802.65 861.6 1806.65 889.441 1808.74 917.457 C 1809.76 931.177 1809.48 962.684 1812.17 974.021 C 1814.7 984.731 1848.37 1027.57 1856.82 1040.64 C 1865.25 1053.7 1871.68 1069.12 1880.74 1081.5 C 1884.37 1086.47 1889.75 1090.55 1894.59 1094.26 C 1902.29 1100.16 1922.1 1111.24 1923.43 1120.99 C 1925.26 1134.32 1891.5 1173.27 1881.96 1183.95 A 278.487 278.487 0 0 1 1877.77 1188.53 C 1874.47 1191.9 1871.03 1195.75 1866.91 1198.1 C 1863.11 1200.27 1858.29 1201.57 1854.03 1200.05 C 1848.09 1197.94 1844.71 1192.21 1842.23 1186.81 C 1804.53 1187.09 1766.63 1184.39 1728.84 1184.3 C 1729.02 1191.26 1729.33 1198.48 1723.89 1203.74 C 1715.11 1212.24 1662.16 1213.72 1648.76 1212.99 C 1641.71 1212.6 1633.1 1210.98 1628.12 1205.48 C 1625.86 1202.98 1624.79 1199.85 1625.08 1196.48 C 1625.44 1192.28 1627.02 1188.96 1629.34 1185.52 C 1639.25 1179.07 1650.94 1175.55 1660.67 1168.89 C 1667.82 1164.01 1671.55 1159.28 1672.68 1150.54 C 1675.15 1131.36 1671.33 1102.84 1671.04 1082.54 L 1668.86 991.712 C 1668.59 977.443 1667.82 962.861 1668.64 948.614 C 1670.43 917.431 1676.79 885.973 1682.73 855.366 L 1671.39 852.714 C 1679.11 823.208 1688.81 795.047 1689.09 764.184 C 1681.92 772.737 1674.45 783.204 1664.9 789.156 C 1653.21 796.446 1637.81 795.629 1624.65 798.375 C 1610.83 801.259 1597.86 805.392 1583.79 807.599 C 1588.53 815.572 1592.23 823.607 1595.41 832.311 C 1603.62 831.263 1611.83 830.932 1620.09 830.576 A 1631.32 1631.32 0 0 1 1619.65 879.393 C 1610.99 879.779 1602.32 879.509 1593.67 879.362 C 1591.86 886.591 1589.2 893.105 1585.57 899.6 C 1590.78 905.716 1595.64 912.104 1600.54 918.462 C 1592.49 929.014 1582.9 939.23 1573.17 948.241 C 1566.67 942.328 1559.8 937.162 1552.4 932.433 C 1545.69 935.974 1539.06 939.667 1531.84 942.107 L 1531.73 966.398 A 2800.75 2800.75 0 0 1 1485.34 965.95 L 1485.03 940.32 C 1477.97 937.935 1471.2 934.749 1464.4 931.729 C 1457.13 937.109 1450.28 943.173 1443.31 948.943 C 1433.65 940.252 1423.71 930.243 1415.74 919.977 L 1433.35 900.672 C 1430.09 893.82 1427.13 887.129 1424.79 879.905 C 1415.88 878.296 1407.13 876.199 1398.34 874.071 C 1397.65 862.601 1398.08 850.834 1398.05 839.331 C 1407.05 837.109 1416.2 835.775 1425.21 833.385 C 1427.32 827.293 1429.7 821.267 1431.95 815.223 C 1426.68 809.728 1422.24 803.611 1417.68 797.529 C 1423.94 791.047 1434.89 775.761 1443.34 774.15 C 1450.9 772.709 1456.6 778.026 1462.42 782.017 L 1472.77 776.619 C 1476.32 775.157 1479.4 773.883 1482.42 771.483 C 1482.22 769.466 1481.73 766.644 1482.48 764.723 C 1483.53 762.048 1487.1 759.555 1489.51 758.235 C 1502.69 751.039 1520.01 752.744 1533.81 756.724 C 1555.75 748.753 1617.8 740.958 1641.86 741.715 C 1651.06 721.66 1659.93 701.436 1670.34 681.967 C 1677.9 669.628 1687.35 658.873 1696.15 647.448 C 1693.41 642.048 1690.38 637.347 1686.77 632.494 z"/>
<path transform="translate(0,0)" fill="rgb(230,230,228)" d="M 1602.94 793.315 L 1606.86 794.315 L 1607.34 795.646 C 1601.66 799.854 1589.37 800.434 1582.28 801.517 L 1579.74 801.4 L 1578.76 799.988 C 1584.94 795.699 1595.62 794.642 1602.94 793.315 z"/>
<path transform="translate(0,0)" fill="rgb(254,254,254)" d="M 1722.63 615.644 C 1724.26 617.299 1725.15 618.458 1726.02 620.621 C 1725.79 620.972 1707.7 637.12 1705.86 638.799 C 1703.91 640.574 1703.65 641.45 1700.96 641.341 L 1693.74 631.059 C 1707.18 628.79 1714.3 627.142 1722.63 615.644 z"/>
<path transform="translate(0,0)" fill="rgb(254,254,254)" d="M 1509.86 759.318 C 1514.33 758.967 1520 757.815 1523.7 760.929 C 1523.83 763.098 1523.96 763.421 1522.38 765.113 C 1517.46 770.373 1511.18 770.977 1504.43 771.036 C 1499.97 770.296 1492.67 770.688 1489.62 766.956 L 1490.15 765.132 C 1496.27 761.397 1502.91 760.414 1509.86 759.318 z"/>
<path transform="translate(0,0)" fill="rgb(254,254,254)" d="M 1680.08 1143.04 C 1691.88 1145.13 1704.76 1144.4 1716.17 1147.46 C 1718.11 1149.17 1718.2 1149.33 1718.83 1151.84 C 1717.64 1154.49 1716.94 1156.04 1714.42 1157.71 C 1707.86 1160.36 1700.91 1162.18 1693.8 1162.33 C 1689.62 1162.42 1685.59 1161.18 1682.68 1158.08 C 1678.69 1153.83 1679.84 1148.4 1680.08 1143.04 z"/>
<path transform="translate(0,0)" fill="rgb(230,230,228)" d="M 1792.2 755.362 L 1803 757.685 C 1807.03 775.208 1813.93 791.945 1815.57 809.96 C 1811.75 814.062 1807.72 816.944 1807.63 822.787 C 1804.58 800.203 1797.75 777.469 1792.2 755.362 z"/>
<path transform="translate(0,0)" fill="rgb(254,254,254)" d="M 1875.31 1087.1 L 1884.66 1095.65 C 1884.56 1095.91 1884.47 1096.16 1884.37 1096.42 C 1881.46 1103.94 1872.02 1122.09 1864.5 1125.53 L 1862.01 1124.27 A 453.058 453.058 0 0 1 1848.79 1112.31 C 1859.23 1104.9 1867.15 1096.95 1875.31 1087.1 z"/>
<path transform="translate(0,0)" fill="rgb(254,254,254)" d="M 1738.54 582.516 C 1738.77 582.696 1739.03 582.849 1739.23 583.056 C 1745.88 589.753 1754.85 629.06 1755.26 639.537 L 1746.5 631.816 C 1735.91 622.229 1725.98 611.087 1721.4 597.316 C 1729.18 593.43 1733.54 589.448 1738.54 582.516 z"/>
<path transform="translate(0,0)" fill="rgb(230,230,228)" d="M 1517.54 776.383 C 1518.66 776.119 1519.78 775.83 1520.95 775.919 C 1527.71 776.436 1535.08 778.762 1541.98 779.669 C 1560.67 782.131 1579.44 783.951 1598.09 786.658 C 1588.07 789.746 1578.08 792.451 1568.23 796.119 C 1563.92 797.583 1560.13 798.277 1555.58 798.347 C 1533.07 798.692 1506.37 792.597 1490.03 776.511 C 1499.43 777.227 1508.15 777.518 1517.54 776.383 z"/>
<path transform="translate(0,0)" fill="rgb(73,85,88)" d="M 1693.8 537.224 C 1700.34 536.969 1705.89 537.56 1711.98 540.096 C 1720.61 543.686 1728.11 550.472 1731.3 559.404 C 1734.53 568.462 1732.82 575.573 1728.93 583.966 C 1721.78 584.036 1714.87 583.535 1707.76 582.791 C 1706.16 582.564 1704.58 582.349 1703.01 581.952 C 1685.94 577.636 1676.39 563.467 1667.68 549.451 C 1675.76 542.773 1683.62 539.235 1693.8 537.224 z"/>
<path transform="translate(0,0)" fill="rgb(225,157,157)" d="M 1630.32 748.404 C 1632.72 748.125 1635.05 748.152 1637.47 748.194 C 1637.49 748.707 1637.61 749.224 1637.53 749.732 C 1636.8 754.952 1630.3 769.698 1625.99 772.592 C 1606.39 785.767 1568.49 776.203 1546.02 773.273 C 1540.3 772.613 1532.39 772.763 1527.99 768.651 L 1528.11 766.976 C 1539.54 756.238 1611.73 749.749 1630.32 748.404 z"/>
<path transform="translate(0,0)" fill="rgb(254,254,254)" d="M 1664.75 557.709 C 1667.57 560.006 1669.72 564.01 1672.09 566.856 C 1684.7 581.994 1693.49 587.198 1713.32 589.099 C 1715.09 595.422 1717.4 601.316 1719.95 607.361 C 1716.27 613.797 1713.42 617.683 1706.96 621.459 C 1701.5 623.223 1695.72 624.868 1690 625.486 C 1682.91 626.251 1676.01 624.954 1670.59 620.085 C 1658.57 609.285 1655.32 585.602 1654.27 570.379 C 1657.04 565.276 1660.41 561.523 1664.75 557.709 z"/>
<path transform="translate(0,0)" fill="rgb(230,230,228)" d="M 1717.09 1164.02 L 1718.48 1165.4 C 1720.43 1174.67 1722.56 1185.81 1720.16 1195.12 C 1719.58 1197.36 1718.71 1199.17 1716.61 1200.26 C 1710.22 1203.58 1658.98 1205.85 1648.7 1205.42 C 1643.96 1205.22 1639.68 1204.64 1635.16 1203.07 C 1633.68 1201.39 1632.5 1199.84 1632.44 1197.48 C 1632.2 1188.47 1657.14 1178.87 1664.05 1174.79 C 1668.84 1171.95 1673.07 1168.44 1677.33 1164.86 C 1692.02 1170.38 1702.67 1170.43 1717.09 1164.02 z"/>
<path transform="translate(0,0)" fill="rgb(230,230,228)" d="M 1890.59 1100.54 C 1900.63 1106.76 1909.66 1113.29 1917.54 1122.14 C 1910.42 1143.18 1884.52 1170.17 1868.98 1186.86 A 121.217 121.217 0 0 1 1866.57 1189.18 C 1863.37 1192.14 1859.63 1194.17 1855.08 1193.3 C 1853.45 1192.98 1852.15 1192.57 1851.15 1191.22 C 1844.02 1181.61 1860.43 1159.65 1864.06 1150.52 C 1865.91 1145.85 1866.59 1140.33 1867.1 1135.36 L 1867.21 1134.14 C 1876.73 1123.45 1883.83 1113.16 1890.59 1100.54 z"/>
<path transform="translate(0,0)" fill="rgb(73,85,88)" d="M 1792.59 837.977 C 1796.07 842.307 1802.41 922.25 1803.23 935.045 C 1804.06 948.033 1803.08 966.976 1806.82 978.848 C 1810.24 989.696 1832.08 1017.07 1839.68 1028.18 C 1851.02 1044.76 1862.49 1062.05 1872.23 1079.61 C 1863.43 1090.7 1855.78 1099.44 1843.95 1107.35 L 1831.11 1094.37 C 1796.74 1055.49 1758.02 1014.39 1738.42 965.632 C 1751.74 926.813 1765.64 886.872 1773.16 846.485 C 1779.94 844.035 1786.22 841.327 1792.59 837.977 z"/>
<path transform="translate(0,0)" fill="rgb(73,85,88)" d="M 1761.21 849.276 C 1763.42 848.885 1763.45 848.453 1765.49 849.643 C 1763.83 867.557 1745.39 925.109 1738.39 944.699 C 1734.19 956.438 1728.12 968.895 1725.9 981.127 C 1723.05 996.85 1725.13 1014.83 1725.04 1030.84 C 1724.84 1066.51 1724.52 1103.54 1719.01 1138.81 C 1706.4 1140.77 1694.66 1139 1682.31 1136.23 C 1681.13 1135.71 1680.9 1135.04 1680.16 1134.01 C 1677.47 1103.48 1677.94 1071.94 1677.05 1041.26 C 1676.09 1008.32 1673.37 973.855 1675.93 941.027 C 1678.18 912.192 1684.12 883.446 1689.42 855.035 C 1713.98 856.396 1737.15 854.094 1761.21 849.276 z"/>
<path transform="translate(0,0)" fill="rgb(254,254,254)" d="M 1728.84 1184.3 C 1727.18 1173.56 1725.15 1162.75 1725.25 1151.84 C 1725.41 1136.35 1728.37 1120.68 1729.12 1105.12 A 1653.09 1653.09 0 0 0 1731.19 1045.02 C 1731.46 1028.81 1729.47 989.412 1733.89 976.041 L 1734.81 975.67 C 1741.11 986.021 1745.63 997.328 1752.21 1007.51 C 1781.64 1053 1822.27 1097.17 1861.83 1133.97 C 1860.66 1138.98 1859.47 1143.94 1857.36 1148.65 C 1851.93 1160.81 1841.23 1172.9 1842.23 1186.81 C 1804.53 1187.09 1766.63 1184.39 1728.84 1184.3 z"/>
<path transform="translate(0,0)" fill="rgb(225,157,157)" d="M 1731.47 626.865 C 1740.17 630.807 1749.02 642.376 1755.66 649.387 C 1747.76 669.679 1741.21 693.477 1748.1 715.013 C 1754.22 734.171 1767.94 743.414 1784.91 751.868 C 1789.85 776.35 1797.71 799.667 1801.48 824.506 C 1769.13 848.035 1718.22 852.914 1679.57 848.016 C 1687.89 812.19 1695.61 794.104 1696.59 755.549 L 1701.44 748.721 C 1708.74 738.817 1721.44 723.757 1725.31 712.479 C 1726.08 710.231 1726.07 711.187 1725.1 709.061 C 1724.8 709.08 1724.5 709.076 1724.2 709.117 C 1718.38 709.912 1695.09 745.996 1690.21 752.475 C 1663.68 787.696 1659.81 786.694 1617.48 792.633 C 1615.4 790.956 1613.84 789.775 1611.18 789.212 C 1609.45 788.844 1608.68 788.73 1607.43 787.335 L 1607.52 786.065 C 1614.87 783.405 1625.81 780.607 1631.54 775.32 C 1638.41 768.978 1642.27 756.501 1646 748.032 C 1666.2 702.262 1686.98 654.216 1731.47 626.865 z"/>
<path transform="translate(0,0)" fill="rgb(230,230,228)" d="M 1482.25 778.815 C 1486.53 780.38 1492.05 788.288 1496.17 791.165 C 1512.53 802.592 1551.09 807.018 1570.74 803.171 C 1580.4 814.978 1585.42 826.162 1590.33 840.514 C 1597.86 838.707 1605.26 838.423 1612.96 838.214 L 1612.93 872.116 C 1604.89 872.083 1596.81 871.633 1588.78 871.359 C 1585.87 882.115 1582.2 891.703 1577.07 901.611 C 1582.17 906.731 1586.5 912.389 1590.92 918.083 C 1585.18 925.018 1579.3 931.699 1573.11 938.236 C 1566.67 933.305 1560.56 928.09 1554.46 922.748 C 1544.47 928.168 1535.88 932.893 1524.74 935.328 C 1524.6 942.448 1526.24 949.917 1524.24 956.81 C 1521.9 959.412 1520.65 958.794 1517.25 958.984 L 1493.14 958.95 C 1493.06 950.823 1492.51 942.893 1491.65 934.812 C 1481.11 931.85 1472.88 928.04 1463.52 922.315 C 1456.42 927.149 1450.04 933.577 1443.38 939.063 C 1437.21 932.935 1431.12 926.802 1425.33 920.312 C 1430.54 914.043 1436.2 908.11 1441.76 902.155 C 1436.72 892.549 1433.61 884.271 1431.51 873.604 A 472.263 472.263 0 0 1 1405.65 868.725 L 1405.34 845.615 C 1414.02 843.387 1422.62 841.287 1431.45 839.678 C 1434.23 831.53 1436.88 823.431 1440.77 815.729 C 1436.57 809.812 1431.77 804.28 1427.16 798.678 C 1433.21 792.08 1439.62 785.766 1445.86 779.345 C 1451.53 783.454 1456.42 787.68 1461.39 792.635 C 1467.96 787.291 1474.93 783.037 1482.25 778.815 z"/>
<path transform="translate(0,0)" fill="rgb(0,0,0)" d="M 1505.29 803.233 C 1518.19 802.456 1529.71 804.912 1540.3 812.652 C 1552.36 821.468 1559.84 834.768 1561.73 849.498 A 51.9216 51.9216 0 0 1 1550.92 888.561 C 1541.64 900.368 1529.83 905.941 1515.25 907.67 C 1503.92 908.381 1492.92 906.573 1483.13 900.516 A 53.4682 53.4682 0 0 1 1459.42 867.436 A 50.9534 50.9534 0 0 1 1466.89 827.428 C 1476.09 813.807 1489.3 806.258 1505.29 803.233 z"/>
<path transform="translate(0,0)" fill="rgb(254,254,254)" d="M 1501.82 811.128 C 1511.3 810.368 1519.95 810.628 1528.77 814.679 A 45.2146 45.2146 0 0 1 1552.63 841.607 A 46.0894 46.0894 0 0 1 1549.64 877.838 C 1542.97 890.278 1532.21 896.78 1519.02 900.478 C 1509.82 901.394 1501.35 900.997 1492.76 897.24 A 46.4814 46.4814 0 0 1 1467.9 870.199 A 44.671 44.671 0 0 1 1470.61 834.781 C 1477.31 822.169 1488.44 814.993 1501.82 811.128 z"/>
<path transform="translate(0,0)" fill="rgb(0,0,0)" d="M 389.44 376.549 C 373.353 363.074 361.137 344.107 359.329 322.679 C 358.753 315.849 360.137 309.043 364.949 303.925 C 372.62 295.768 388.648 292.094 398.561 286.421 C 406.886 281.655 413.513 275.774 420.637 269.406 C 426 264.612 433.049 256.859 440.824 256.967 A 13.1002 13.1002 0 0 1 450.815 261.664 C 456.547 268.418 457.708 279.873 456.525 288.314 C 455.938 292.501 454.684 296.91 451.896 300.19 C 457.629 318.346 467.665 355.64 458.01 373.382 C 456.179 376.746 453.387 379.656 449.552 380.591 C 444.119 381.915 437.624 381.739 432.001 381.966 L 431.721 395.795 C 441.857 395.777 450.476 395.878 458.118 403.528 C 473.653 419.077 497.926 474.816 510.127 497.045 C 540.894 468.424 570.383 437.624 599.806 407.601 C 612.87 394.27 625.91 378.293 640.595 366.853 C 642.926 365.037 645.22 363.946 648.286 364.26 A 8.69414 8.69414 0 0 1 654.464 367.903 C 656.228 370.388 656.469 373.555 655.718 376.426 C 654.877 379.645 653.011 382.542 650.895 385.07 C 642.981 394.524 632.724 402.963 623.948 411.695 C 609.58 425.993 595.672 441.354 580.423 454.666 C 586.069 460.707 591.043 467.378 590.47 476.078 C 589.828 485.827 581.568 493.734 574.402 499.544 C 570.531 502.682 566.521 505.146 562.144 507.516 C 554.381 524.002 529.349 562.791 512.487 569.262 C 507.486 571.182 502.251 570.744 497.531 568.28 C 483.537 560.973 466.326 533.318 457.284 519.748 C 455.044 522.445 452.689 525.099 450.619 527.927 C 466.064 572.654 484.478 615.91 503.346 659.255 C 515.456 687.076 528.76 715.23 538.592 743.954 C 546.512 767.091 552.769 790.915 559.532 814.415 L 587.072 909.429 C 595.015 937.255 601.788 967.158 614.247 993.332 C 631.302 994.952 662.101 994.89 674.012 1009.15 C 678.051 1013.98 678.751 1018.43 677.973 1024.53 C 677.922 1024.93 677.862 1025.33 677.807 1025.73 C 677.558 1026 677.318 1026.28 677.061 1026.55 C 663.665 1040.17 604.33 1055.57 584.687 1055.03 C 579.847 1054.9 576.017 1054 572.748 1050.19 C 565.332 1041.57 566.252 1026.96 566.887 1016.34 C 531.086 1017.4 495.257 1016.1 459.447 1016.41 C 446.851 1016.52 433.616 1015.9 421.114 1017.16 C 418.252 1017.44 416.288 1018.31 413.827 1019.75 C 424.989 1025.01 441.625 1031.51 446.3 1044.05 C 447.657 1047.69 448.046 1051.84 446.363 1055.43 C 444.036 1060.4 438.909 1063.21 433.874 1064.77 C 419.753 1069.16 357.568 1068.68 345.54 1061.21 C 341.996 1059.01 340.875 1055.15 340.27 1051.24 C 338.829 1041.93 339.955 1030.1 343.474 1021.4 C 345.844 1017.82 348.123 1014.12 350.621 1010.64 C 349.633 958.653 347.148 906.863 348.156 854.835 A 776.12 776.12 0 0 1 350.319 807.076 C 351.256 795.264 353.162 782.91 352.786 771.085 C 352.242 754.013 348.334 736.49 345.83 719.583 A 979.978 979.978 0 0 1 339.011 657.269 C 322.626 641.751 326.901 632.302 317.389 616.078 C 305.717 596.17 266.092 550.992 266.458 529.715 C 266.545 524.653 269.715 519.013 272.224 514.7 C 283.141 495.934 339.616 417.677 354.521 404.264 C 363.023 396.613 375.04 392.774 386.237 391.449 C 387.381 386.502 388.622 381.563 389.44 376.549 z"/>
<path transform="translate(0,0)" fill="rgb(254,254,254)" d="M 548.639 469.368 L 549.286 471.196 L 546.443 475.955 C 541.257 478.156 537.382 486.917 535.384 491.779 C 524.077 498.76 516.409 509.396 505.214 516.325 C 505.393 516.02 505.567 515.711 505.751 515.41 C 506.059 514.907 506.379 514.413 506.689 513.912 C 516.74 497.639 534.909 482.8 548.639 469.368 z"/>
<path transform="translate(0,0)" fill="rgb(254,254,254)" d="M 342.792 516.934 C 343.197 517.452 343.663 517.928 344.006 518.488 C 349.706 527.797 343.273 560.252 341.199 571.344 L 337.446 562.747 C 332.783 552.872 327.238 542.885 324.024 532.438 A 341.295 341.295 0 0 1 342.792 516.934 z"/>
<path transform="translate(0,0)" fill="rgb(254,254,254)" d="M 346.481 1045.9 C 371.408 1054.51 413.369 1054.28 439.057 1047.42 C 440.486 1049.85 440.075 1051.83 440.11 1054.59 C 438.61 1055.72 437.127 1056.81 435.372 1057.51 C 423.306 1062.33 361.599 1060.54 349.696 1055.18 C 347.222 1052.51 347.065 1049.35 346.481 1045.9 z"/>
<path transform="translate(0,0)" fill="rgb(254,254,254)" d="M 574.271 460.666 C 575.966 460.967 576.938 461.635 578.251 462.7 C 581.428 465.278 583.701 468.201 583.875 472.429 C 584.152 479.128 579.154 486.005 574.602 490.445 C 568.266 496.626 563.933 499.085 555.172 498.984 C 552.904 498.196 550.544 497.274 548.437 496.125 C 546.05 494.824 544.467 493.417 543.684 490.76 C 549.161 483.381 566.656 468.213 574.271 460.666 z"/>
<path transform="translate(0,0)" fill="rgb(254,254,254)" d="M 669.155 1014.13 A 7.94535 7.94535 0 0 1 671.727 1019.66 C 671.81 1021.64 670.59 1023.33 669.133 1024.59 C 656.449 1035.64 595.796 1049.13 578.937 1047.82 C 577.044 1044.65 575.392 1041.3 573.663 1038.03 C 596.504 1040.67 650.651 1028.21 669.155 1014.13 z"/>
<path transform="translate(0,0)" fill="url(#Gradient1)" d="M 548.639 469.368 C 565.738 449.401 585.852 431.444 604.388 412.817 A 3177.74 3177.74 0 0 0 629.951 386.859 C 633.483 383.183 636.609 378.966 640.354 375.528 C 642.315 373.728 643.888 372.673 646.562 372.18 L 648.518 373.399 C 648.899 375.72 648.91 375.599 647.632 377.423 C 638.556 390.375 607.816 418.415 594.857 431.34 C 580.929 445.233 567.182 461.214 552.192 473.81 C 550.928 474.873 549.812 475.421 548.173 475.713 C 547.6 475.815 547.02 475.874 546.443 475.955 L 549.286 471.196 L 548.639 469.368 z"/>
<path transform="translate(0,0)" fill="rgb(254,254,254)" d="M 342.553 599.837 C 343.622 599.925 344.461 600.355 345.448 600.753 C 353.765 611.627 357.224 626.152 357.845 639.652 C 356.119 643.038 354.412 647.088 351.421 649.55 C 348.693 651.796 346.477 651.824 343.229 651.396 C 331.713 640.676 328.717 626.979 324.383 612.507 C 330.175 607.801 336.164 603.685 342.553 599.837 z"/>
<path transform="translate(0,0)" fill="rgb(254,254,254)" d="M 392.754 1017.96 C 401.025 1018.89 429.102 1035.37 436.367 1041.83 C 420.05 1044.9 403.293 1044.95 386.753 1044.68 C 376.937 1044.01 363.37 1044.62 354.251 1041.26 C 351.256 1040.15 348.602 1038.28 347.516 1035.13 C 345.701 1029.86 349.306 1024.08 351.653 1019.54 C 364.69 1023.62 370.464 1020.65 382.286 1023.33 C 385.851 1021.72 389.294 1019.78 392.754 1017.96 z"/>
<path transform="translate(0,0)" fill="rgb(254,254,254)" d="M 357.087 964.063 C 370.435 966.137 383.612 967.042 397.087 967.724 C 395.753 976.794 396.36 1006.21 390.646 1011.48 L 375.121 1019.86 C 370.396 1018.81 364.143 1018.08 360.541 1014.64 C 355.647 1009.96 357.149 972.734 357.087 964.063 z"/>
<path transform="translate(0,0)" fill="rgb(254,254,254)" d="M 591.983 955.105 C 596.444 961.937 603.666 987.292 606.719 996.533 C 605.29 998.419 605.873 997.736 604.349 999.422 L 603.305 1000.56 C 603.956 1002.44 603.474 1002.44 605.702 1002.85 C 610.186 1003.68 617.632 1002.19 622.402 1002.02 C 630.282 1001.76 655.011 1003.52 661.216 1007.44 C 662.76 1008.42 662.246 1007.93 662.725 1009.9 C 653.494 1017.74 629.468 1022.85 617.212 1026.31 C 606.253 1028.89 585.174 1035.24 574.532 1031.06 C 571.213 1026.44 573.479 1016.27 574.015 1010.82 C 578.515 1011.32 583.25 1012.34 587.657 1011.04 C 589.397 1008.85 589.195 1008.82 589.05 1005.98 C 587.129 1003.52 581.692 1004.23 578.626 1002.98 C 572.854 1000.63 563.274 974.907 560.124 968.124 C 571.306 965.004 581.553 960.097 591.983 955.105 z"/>
<path transform="translate(0,0)" fill="rgb(254,254,254)" d="M 441.997 300.212 L 443.649 301.127 C 448.178 310.521 452.264 322.976 452.642 333.442 L 449.524 335.225 C 448.667 337.663 449.045 337.52 449.849 339.817 C 450.964 340.723 452.567 341.804 453.295 343.065 C 455.763 347.346 454.122 363.17 452.545 367.94 C 449.303 377.746 434.522 372.348 427.122 375.588 C 422.539 381.366 424.772 400.254 424.858 408.118 C 413.976 405.785 405.075 402.059 395.199 396.956 L 393.747 395.697 C 393.137 389.254 396.806 380.043 397.84 373.29 C 400.643 371.236 402.902 369.717 404.573 366.615 C 404.474 358.723 395.31 354.648 391.193 348.481 C 388.621 344.626 387.887 339.776 388.951 335.282 C 389.559 332.716 390.745 331.167 392.927 329.715 C 400.739 328.58 405.471 334.065 412.416 336.324 C 417.41 331.835 418.365 311.885 419.31 305.166 A 1816.4 1816.4 0 0 1 441.997 300.212 z"/>
<path transform="translate(0,0)" fill="rgb(73,85,88)" d="M 364.757 634.578 C 381.283 636.286 397.619 636.603 414.146 634.757 C 413.031 681.402 416.555 728.111 415.565 774.746 C 415.111 796.091 400.755 956.02 396.707 960.999 C 383.207 960.178 370.001 959.1 356.655 956.881 C 352.995 913.974 354.191 867.668 356.316 824.628 C 357.161 807.524 360.059 789.882 359.786 772.818 C 359.567 759.11 356.781 745.308 354.797 731.749 C 351.377 708.378 347.799 684.508 346.724 660.903 C 349.589 659.353 352.586 657.809 355.098 655.718 C 362.038 649.941 363.732 643.104 364.757 634.578 z"/>
<path transform="translate(0,0)" fill="rgb(73,85,88)" d="M 473.287 610.769 L 474.576 611.341 C 483.05 624.237 490.176 646.042 496.661 660.799 C 509.842 690.795 523.92 721.314 534.13 752.468 C 555.228 816.841 569.166 883.821 591.581 947.774 C 580.248 953.714 569.778 959.156 557.297 962.405 L 552.006 952.521 C 533.255 913.606 515.168 873.293 501.027 832.423 C 493.775 811.461 489.869 786.959 481.088 767.205 C 471.963 746.677 457.615 727.335 445.299 708.548 C 437.782 697.081 430.622 684.699 422.036 674.03 L 422.058 633.61 C 441.286 630.415 458.86 624.142 473.287 610.769 z"/>
<path transform="translate(0,0)" fill="rgb(254,254,254)" d="M 422.185 686.604 C 438.245 710.889 461.453 743.007 474.105 768.884 C 479.621 780.168 481.605 793.082 484.896 805.143 A 476.79 476.79 0 0 0 499.492 850.046 C 509.414 875.755 519.917 901.653 531.58 926.624 C 543.759 952.698 557.252 978.055 569.174 1004.28 C 568.244 1008.26 567.612 1012.32 566.887 1016.34 C 531.086 1017.4 495.257 1016.1 459.447 1016.41 C 446.851 1016.52 433.616 1015.9 421.114 1017.16 C 418.252 1017.44 416.288 1018.31 413.827 1019.75 C 409.312 1017.84 404.99 1015.61 400.627 1013.38 C 401.14 988.127 405.208 962.434 407.859 937.313 A 11011.6 11011.6 0 0 0 420.521 806.686 C 423.856 766.858 422.097 726.551 422.185 686.604 z"/>
<path transform="translate(0,0)" fill="rgb(127,86,85)" d="M 378.022 399.068 C 389.86 398.215 419.074 416.421 431.976 421.341 L 432.046 402.473 C 437.334 402.216 442.56 402.792 447.819 403.272 C 450.993 405.55 453.686 407.808 456.079 410.918 C 468.075 426.51 497.912 485.339 504.411 503.677 C 501.599 506.808 499.202 510.346 496.716 513.738 C 500.53 517.516 503.859 521.087 506.911 525.533 C 518.117 517.138 527.233 505.796 537.986 496.71 C 543.553 501.263 548.908 504.059 555.648 506.393 C 546.027 525.457 524.401 555.766 505.91 566.305 C 486.57 554.058 473.356 531.803 461.201 512.978 C 466.673 503.347 471.061 492.889 470.63 481.624 C 470.313 473.352 468.73 450.611 462.52 444.854 L 461.201 445.276 C 457.808 452.312 462.424 466.759 463.225 474.708 C 466.448 506.647 452.217 504.512 442.234 526.926 C 441.312 528.994 440.688 530.426 441.491 532.616 L 444.079 532.641 C 446.126 534.226 447.063 535.893 448.017 538.245 C 450.804 545.123 452.5 552.619 454.934 559.667 A 1675.1 1675.1 0 0 0 471.163 603.5 C 465.935 608.895 460.047 612.769 453.589 616.515 C 426.097 630.005 394.183 631.052 364.461 626.563 C 359.275 612.048 352.202 598.513 346.012 584.428 C 350.411 558.863 354.677 536.286 348.843 510.469 C 356.538 501.971 377.087 481.318 381.382 472.283 C 382.46 470.015 382.602 469.677 381.732 467.408 L 379.908 467.175 C 374.323 469.317 355.9 492.542 350.229 498.433 C 339.056 510.039 326.724 520.533 315.057 531.64 C 326.276 550.743 333.449 571.608 342.13 591.911 C 334.291 596.424 326.773 601.489 318.93 606.017 C 306.521 590.583 277.717 549.261 272.776 530.719 C 273.813 527.016 275.025 523.635 276.879 520.259 C 287.91 500.165 344.817 421.374 359.755 408.223 C 365.203 403.426 371.21 401.094 378.022 399.068 z"/>
<path transform="translate(0,0)" fill="rgb(230,230,228)" d="M 1607.42 292.532 C 1606.75 277.423 1605.1 262.341 1604.61 247.229 C 1604.51 243.94 1603.82 238.529 1606.29 236.076 C 1614.71 227.698 1651.18 228.798 1663.65 228.826 C 1674.31 228.85 1706.72 227.948 1713.49 235.782 C 1717.7 240.657 1713.63 282.537 1713.46 291.853 C 1741.74 298.186 1767.71 311.238 1792.33 326.161 C 1798.65 320.124 1828.14 284.042 1833.93 283.726 C 1841.31 283.323 1849.96 290.12 1855.39 294.665 C 1866.49 303.943 1909.96 344.085 1908.86 357.185 C 1908.17 365.467 1873.6 395.814 1866.22 402.958 C 1881.48 424.078 1891.62 449.435 1898.41 474.437 C 1910.84 474.801 1952.93 471.666 1961.78 476.733 C 1967.26 483.048 1968.32 492.27 1968.95 500.338 C 1970.24 516.851 1971.92 572.901 1961.42 583.753 C 1956.86 588.464 1908.58 583.01 1898.45 582.478 C 1894.68 607.675 1882.73 632.152 1870.73 654.432 C 1884.91 667.882 1900.98 680.81 1910.55 698.156 C 1902.34 715.567 1884.71 740.33 1869.43 751.803 C 1865.81 754.519 1860.38 757.196 1855.71 756.069 C 1851.37 755.021 1848.76 751.258 1846.24 747.903 C 1857.36 740.921 1865.55 731.93 1870.74 719.817 C 1844.62 696.833 1830.05 662.75 1813.44 632.904 C 1807.9 622.953 1801.68 613.364 1795.54 603.777 C 1784.35 589.462 1767.98 573.084 1748.82 570.961 C 1746.15 570.666 1743.47 570.543 1740.79 570.43 C 1738.27 567.176 1737.64 561.937 1736.47 558.015 C 1731.91 542.753 1720.52 534.102 1704.98 531.948 C 1688.97 529.731 1672.19 536.379 1659.77 546.234 C 1654.06 550.756 1647.39 558.084 1646.73 565.721 C 1646.31 570.699 1648.46 576.339 1649.57 581.174 C 1652.88 595.668 1654.77 611.617 1665.21 623.184 C 1671.36 630.012 1677.86 631.999 1686.77 632.494 C 1690.38 637.347 1693.41 642.048 1696.15 647.448 C 1687.35 658.873 1677.9 669.628 1670.34 681.967 C 1659.93 701.436 1651.06 721.66 1641.86 741.715 C 1617.8 740.958 1555.75 748.753 1533.81 756.724 C 1520.01 752.744 1502.69 751.039 1489.51 758.235 C 1487.1 759.555 1483.53 762.048 1482.48 764.723 C 1481.73 766.644 1482.22 769.466 1482.42 771.483 C 1479.4 773.883 1476.32 775.157 1472.77 776.619 C 1469.05 767.187 1460.62 760.053 1454.03 752.486 C 1445.24 742.38 1414.19 707.491 1415.04 694.431 C 1415.58 686.109 1447.51 666.804 1455.26 660.059 L 1455.93 659.466 C 1440.88 637.052 1427.98 605.432 1424.55 578.82 C 1410.86 578.655 1371.64 586.297 1362.27 579.222 C 1359.27 574.394 1358.34 568.92 1357.86 563.324 C 1356.69 549.625 1354.42 481.745 1363.99 474.218 C 1369.59 469.816 1413.6 474.914 1422.92 475.717 A 303.447 303.447 0 0 1 1453.49 402.271 C 1445.58 393.469 1417.67 369.926 1415.06 360.29 C 1414.12 356.806 1416.8 352.253 1418.63 349.423 C 1427.74 335.345 1472.28 289.855 1486.55 286.917 C 1499 289.718 1519.76 317.447 1528.98 327.475 C 1553.12 310.986 1578.88 299.037 1607.42 292.532 z"/>
<path transform="translate(0,0)" fill="rgb(254,254,254)" d="M 1670.34 681.967 A 442.058 442.058 0 0 1 1654.85 682.171 C 1615.47 681.618 1579.25 665.507 1551.88 637.231 C 1526.25 610.752 1510.03 568.977 1510.91 532.066 C 1511.9 490.636 1527.93 449.475 1558.46 420.879 C 1587.6 393.595 1628.07 378 1667.96 379.727 A 153.097 153.097 0 0 1 1775.54 430.724 A 151.441 151.441 0 0 1 1814.94 542.014 C 1814.06 559.459 1809 591.53 1795.54 603.777 C 1784.35 589.462 1767.98 573.084 1748.82 570.961 C 1746.15 570.666 1743.47 570.543 1740.79 570.43 C 1738.27 567.176 1737.64 561.937 1736.47 558.015 C 1731.91 542.753 1720.52 534.102 1704.98 531.948 C 1688.97 529.731 1672.19 536.379 1659.77 546.234 C 1654.06 550.756 1647.39 558.084 1646.73 565.721 C 1646.31 570.699 1648.46 576.339 1649.57 581.174 C 1652.88 595.668 1654.77 611.617 1665.21 623.184 C 1671.36 630.012 1677.86 631.999 1686.77 632.494 C 1690.38 637.347 1693.41 642.048 1696.15 647.448 C 1687.35 658.873 1677.9 669.628 1670.34 681.967 z"/>
<path transform="translate(0,0)" fill="rgb(0,0,0)" d="M 233.454 1282.41 C 249.394 1284.15 265.435 1288.15 281.187 1291.29 L 373.448 1309.68 L 521.761 1338.4 C 556.26 1344.95 591.218 1350.75 625.46 1358.44 C 630.138 1359.5 636.612 1360.21 639.958 1363.86 C 641.908 1373.59 640.887 1384.73 640.888 1394.68 L 640.874 1445.82 C 640.852 1481.7 641.259 1517.62 640.814 1553.5 C 640.677 1564.56 639.125 1575.55 638.908 1586.61 C 638.184 1623.5 638.561 1660.63 638.923 1697.53 L 716.675 1697.39 C 729.42 1697.36 743.36 1698.48 755.935 1696.83 C 759.364 1696.37 762.222 1695.97 764.903 1693.57 C 776.801 1682.95 761.79 1571.87 772.27 1553.59 C 776.242 1546.66 782.317 1545.64 789.725 1545.26 C 810.892 1544.18 832.504 1545.2 853.716 1545.2 L 979.722 1545.09 C 996.845 1545.05 1014.72 1546.64 1031.71 1545.43 C 1034.94 1545.2 1039.28 1544.92 1041.83 1542.69 C 1044.27 1540.55 1044.84 1537.28 1045.21 1534.25 C 1047.59 1516.65 1046.06 1496.87 1046.08 1479.07 L 1045.99 1368.76 C 1045.95 1354.23 1044.15 1336.98 1046.34 1322.8 C 1048.11 1320.89 1048.2 1320.95 1050.79 1320.53 L 1052.42 1321.78 C 1054.52 1336.24 1052.42 1351.69 1053.16 1366.39 L 1053.13 1482.83 C 1053.1 1500.64 1054.96 1520.62 1052.57 1538.14 C 1052.04 1542.01 1050.72 1544.99 1047.83 1547.69 C 1044.37 1550.92 1040.08 1552.57 1035.42 1553.12 C 1017.57 1555.2 995.299 1552.97 977.013 1553.02 L 826.622 1552.96 C 817.751 1552.95 788.461 1551.01 781.939 1554.07 C 778.148 1555.86 777.327 1563.71 777.033 1567.26 C 776.227 1577 776.833 1587.23 776.853 1597.01 L 777.006 1653.52 C 777.037 1663.68 778.038 1674.88 776.256 1684.87 C 775.255 1690.47 773.086 1696.83 768.61 1700.64 C 765.723 1703.1 762.492 1703.72 758.808 1704.17 C 745.086 1705.84 730.331 1704.57 716.5 1704.6 L 638.769 1705.1 L 638.446 1849.08 C 638.474 1869.99 640.92 1900.43 637.659 1920.35 C 626.946 1928.55 614.436 1934.67 602.489 1940.89 L 1231.34 1940.11 C 1232.46 1900.76 1231.86 1861.27 1231.9 1821.89 C 1231.92 1806.32 1230.04 1787.87 1232.49 1772.56 A 22.1193 22.1193 0 0 1 1239.63 1759.49 C 1242.28 1757.14 1244.9 1755.99 1248.41 1755.49 C 1261.85 1753.57 1276.93 1754.93 1290.6 1754.94 L 1369.07 1754.7 L 1369.24 1595.78 C 1369.24 1574.82 1367.13 1541.62 1369.87 1521.95 C 1370.47 1517.68 1371.73 1514.63 1374.73 1511.45 C 1380.73 1505.08 1392.7 1505.87 1400.75 1505.89 C 1423.58 1505.95 1446.45 1506.59 1469.27 1506.02 L 1469.26 1439.17 C 1469.13 1419.22 1466.19 1389.82 1471.6 1371.17 C 1474.46 1361.31 1481.69 1352.06 1488.84 1344.87 C 1531.67 1301.79 1614.38 1290.78 1673 1290.98 C 1729.8 1291.18 1808.76 1303.65 1849.91 1345.07 C 1859.16 1354.39 1866.17 1365.02 1868.62 1378.15 C 1871.22 1392.09 1869.71 1408.45 1869.67 1422.68 L 1869.66 1501.25 L 1868.93 1859.99 C 1868.78 1875.1 1860.71 1887.51 1850.17 1897.74 C 1826.1 1921.1 1792.39 1931.32 1760.71 1939.75 C 1780.18 1939.36 1942.5 1936.59 1950.86 1939.6 C 1952.04 1941.76 1951.84 1941.83 1951.33 1944.28 C 1949.09 1945.92 1947.77 1946.05 1945.01 1946.14 C 1891.6 1947.76 1837.73 1946.9 1784.27 1947.13 C 1744.48 1947.3 1704.67 1948.67 1664.91 1948.81 L 591.537 1948.23 C 583.166 1955.5 577.761 1960.42 566.043 1959.52 C 546.477 1958.01 527.438 1950.36 507.838 1949.18 C 493.969 1948.36 479.699 1949.03 465.796 1949.04 L 386.056 1949.12 L 102.313 1949.27 C 98.986 1949.24 96.7622 1948.71 94.335 1946.28 L 94.0649 1944.37 C 96.0192 1942.51 97.3342 1942.2 100.018 1941.91 C 111.518 1940.65 124.144 1941.65 135.734 1941.71 A 5627.47 5627.47 0 0 0 200.229 1941.82 L 345.719 1941.45 C 386.063 1941.57 426.399 1942.32 466.739 1941.46 C 442.592 1935.48 417.566 1931.67 393.099 1927.09 L 260.691 1902.28 C 239.049 1898.2 206.817 1894.14 186.896 1887.28 C 181.406 1885.39 178.21 1883.61 175.257 1878.43 C 172.13 1872.96 171.676 1867.62 171.476 1861.47 C 170.192 1822.08 171.278 1782.33 171.258 1742.89 L 171.358 1494.99 L 171.252 1372.85 C 171.275 1360.78 169.441 1334.33 172.379 1323.57 C 175.374 1312.59 216.715 1290.22 227.912 1284.8 C 229.74 1283.91 231.556 1283.13 233.454 1282.41 z"/>
<path transform="translate(0,0)" fill="rgb(165,164,163)" d="M 1477.91 1512.84 C 1482.65 1519.26 1487.68 1525.49 1493.31 1531.17 C 1531.66 1569.86 1617.38 1582.84 1670.87 1583.07 C 1727.17 1583.32 1797.16 1570.88 1842.26 1535.67 C 1852.36 1527.78 1854.38 1521.99 1862.05 1514.37 L 1862.38 1514.95 C 1862.31 1517.37 1862.44 1519.69 1862.61 1522.1 C 1862.11 1525.09 1861.56 1527.05 1859.68 1529.48 C 1834.13 1562.42 1758.61 1582.85 1718.51 1587.67 C 1653.63 1595.48 1551.59 1587.1 1499.08 1545.61 C 1488.53 1537.28 1479.5 1526.61 1477.91 1512.84 z"/>
<path transform="translate(0,0)" fill="rgb(165,164,163)" d="M 1477.1 1626.83 C 1479.37 1629.72 1481.38 1632.75 1483.55 1635.71 C 1510.16 1671.84 1564.89 1686.23 1607.48 1692.67 C 1677.7 1703.3 1768.68 1695.24 1829.64 1657.07 C 1835.76 1653.24 1843.26 1648.56 1848.31 1643.4 C 1853.03 1638.59 1856.37 1632.18 1861.81 1628.17 C 1863.36 1629.77 1862.73 1632.05 1862.72 1634.23 C 1861.65 1636.77 1860.25 1639.04 1858.66 1641.28 C 1836.05 1672.99 1775.83 1691.1 1739.36 1697.84 C 1669.21 1710.8 1563.74 1706.23 1503.76 1664.45 C 1490.2 1655.01 1480.06 1643.52 1477.1 1626.83 z"/>
<path transform="translate(0,0)" fill="rgb(165,164,163)" d="M 1861.72 1745.79 A 18.3364 18.3364 0 0 1 1861.13 1754.16 C 1855.53 1772.33 1830.67 1786.78 1814.69 1794.64 C 1736.75 1832.93 1631.06 1836.44 1549.37 1808.19 C 1521.57 1798.57 1491.84 1784.47 1478.36 1756.81 C 1477.89 1754.87 1477.61 1753.06 1477.33 1751.09 L 1478.07 1750.85 C 1486.88 1759.31 1492.58 1768.39 1502.63 1775.92 C 1559.45 1818.45 1657.36 1824.19 1725.74 1814 C 1777.31 1806.31 1829.63 1789.14 1861.72 1745.79 z"/>
<path transform="translate(0,0)" fill="rgb(165,164,163)" d="M 631.609 1371.96 L 633.423 1372.71 C 635.46 1384.52 633.785 1415.07 633.794 1428.34 L 633.807 1567.83 C 620.972 1577.75 605.582 1585.42 591.56 1593.58 L 590.706 1593.58 C 588.788 1590.1 590.077 1412.3 590.083 1391.54 C 603.485 1384.36 617.813 1378.38 631.609 1371.96 z"/>
<path transform="translate(0,0)" fill="rgb(165,164,163)" d="M 234.66 1288.78 C 261.088 1296.9 293.415 1300.82 321.047 1306.46 A 18325.7 18325.7 0 0 0 501.763 1341.88 L 574.311 1355.87 C 591.834 1359.25 609.556 1362.19 626.834 1366.68 L 591.291 1383.47 C 588.343 1384.91 586.372 1385.23 583.131 1384.79 C 548.47 1380.11 513.471 1371.43 479.139 1364.62 L 299.347 1328.6 C 266.49 1322.03 233.652 1314.94 200.622 1309.32 A 1685.32 1685.32 0 0 1 234.66 1288.78 z"/>
<path transform="translate(0,0)" fill="rgb(165,164,163)" d="M 630.726 1578.94 C 632.097 1580.42 631.963 1582.49 632.019 1584.46 C 632.787 1611.5 631.838 1638.89 631.848 1665.97 A 21736.4 21736.4 0 0 0 631.455 1917 A 662.25 662.25 0 0 0 591.257 1940.1 C 591.2 1940.05 591.127 1940.01 591.084 1939.95 C 591.072 1939.93 589.964 1938.06 589.953 1938.02 C 588.702 1933.61 589.94 1877.2 589.931 1868.73 L 589.958 1603.26 C 603.176 1594.61 617.082 1586.9 630.726 1578.94 z"/>
<path transform="translate(0,0)" fill="rgb(254,254,254)" d="M 1387.73 1513.37 C 1414.91 1513.18 1442.11 1513.51 1469.29 1513.64 L 1469.73 1675.88 C 1469.73 1701.51 1471.24 1728.35 1469.09 1753.83 C 1466.56 1755.67 1462.51 1755.03 1459.5 1754.96 L 1377.05 1754.63 C 1377.03 1729.29 1374.87 1524.3 1378.78 1518.2 C 1380.95 1514.8 1384.08 1514.16 1387.73 1513.37 z"/>
<path transform="translate(0,0)" fill="rgb(254,254,254)" d="M 1477.11 1531.75 C 1479.19 1533.66 1481.03 1536.24 1482.95 1538.34 C 1489.53 1545.54 1496.77 1552.51 1504.9 1557.95 C 1544.14 1584.25 1606.12 1594.65 1653.14 1596.63 C 1723.74 1599.61 1808.32 1586.25 1861.82 1537.03 C 1862.2 1555.03 1864.41 1598.92 1860.51 1614.22 C 1859.69 1617.44 1857.85 1620.38 1856.17 1623.22 C 1852.85 1627.73 1849.48 1632.06 1845.52 1636.04 C 1805.68 1676.05 1721.67 1690.32 1666.16 1690.34 C 1611.91 1690.36 1534.07 1679.01 1494.99 1639.3 C 1488.33 1632.54 1482.83 1624.72 1479.87 1615.62 C 1473.98 1597.55 1477 1552.49 1477.11 1531.75 z"/>
<path transform="translate(0,0)" fill="rgb(254,254,254)" d="M 1861.62 1414.15 C 1863.5 1425.24 1863.1 1491.55 1860.41 1501.45 C 1855.84 1518.32 1836.22 1533 1821.85 1541.26 C 1750.09 1582.48 1652.68 1584.89 1574.03 1563.89 C 1538.72 1554.46 1501.87 1539.83 1482.73 1506.79 C 1481.05 1502.67 1479.19 1498.47 1478.3 1494.1 C 1474.36 1474.62 1477.03 1437.31 1477.25 1416.04 C 1487.15 1428.01 1496.8 1437.35 1510.29 1445.29 C 1579.88 1486.24 1686.49 1491.17 1763.21 1471.07 C 1796.84 1462.25 1843.08 1445.92 1861.62 1414.15 z"/>
<path transform="translate(0,0)" fill="rgb(254,254,254)" d="M 1477.35 1647.78 C 1481.34 1651.5 1484.61 1656.57 1488.59 1660.52 C 1526.79 1698.44 1614.91 1711.22 1668.03 1711.08 C 1732.11 1710.9 1814.98 1695.8 1861.49 1649.03 C 1862.1 1668.42 1864.14 1712.78 1860.54 1730.13 C 1859.6 1734.65 1857.17 1738.8 1855.03 1742.85 A 103.016 103.016 0 0 1 1842.76 1757.84 C 1801.7 1799.12 1723.12 1811.76 1666.69 1811.96 C 1613.23 1812.15 1535.27 1800.8 1496.64 1761.96 C 1489.25 1754.53 1482.62 1745.58 1479.49 1735.46 C 1474.03 1717.84 1477.16 1668.82 1477.35 1647.78 z"/>
<path transform="translate(0,0)" fill="rgb(254,254,254)" d="M 1860.8 1768.92 C 1862.85 1772.3 1862.57 1861.02 1860.86 1868.25 C 1856.9 1884.91 1840.96 1898.53 1826.96 1907.17 C 1763.16 1946.55 1644.87 1948.13 1572.57 1931.11 C 1538.92 1923.2 1499.69 1909.66 1480.59 1878.77 C 1478.98 1875.23 1477.86 1871.89 1477.32 1868.03 C 1475.8 1857.03 1476.76 1845.12 1476.83 1834.01 A 4126.15 4126.15 0 0 1 1477.56 1769.81 C 1481.18 1774.41 1484.97 1778.72 1489.32 1782.66 C 1535.84 1824.76 1626.25 1835.73 1687.4 1832.16 C 1744.48 1828.83 1821.77 1812.84 1860.8 1768.92 z"/>
<path transform="translate(0,0)" fill="rgb(254,254,254)" d="M 1248.83 1762.07 C 1284.01 1761.18 1319.45 1762.03 1354.67 1762.02 C 1392.83 1762 1431.18 1761.17 1469.3 1762.86 L 1469.31 1830.88 C 1469.33 1842.67 1468.28 1855.81 1470.21 1867.43 C 1471.28 1873.89 1473.48 1879.84 1476.76 1885.5 C 1494.72 1916.43 1538.39 1930.09 1570.81 1938.5 L 1570.48 1939.81 L 1572.01 1938.97 L 1572.47 1939.24 C 1569.96 1940.05 1567.47 1939.9 1564.85 1939.96 A 29364.8 29364.8 0 0 0 1239.56 1940.16 C 1239.14 1903.25 1239.66 1866.28 1239.66 1829.36 C 1239.66 1813.53 1237.75 1786.79 1240.55 1772.16 C 1241.53 1767.08 1244.76 1764.8 1248.83 1762.07 z"/>
<path transform="translate(0,0)" fill="rgb(165,164,163)" d="M 1658.43 1297.42 C 1714.78 1295.17 1796.68 1306.89 1839.95 1344.74 C 1851.45 1354.8 1862.2 1369.17 1862.87 1384.98 C 1863.42 1397.99 1857.41 1410.33 1848.87 1419.83 C 1812.5 1460.3 1735.1 1473.15 1683.01 1475.9 C 1625.72 1476.84 1544.58 1467.25 1499.62 1429.76 C 1487.72 1419.83 1477.02 1405.83 1476.02 1389.86 C 1475.13 1375.67 1481.08 1363.21 1490.39 1352.89 C 1528.58 1310.56 1604.42 1300.46 1658.43 1297.42 z"/>
<path transform="translate(0,0)" fill="rgb(0,0,0)" d="M 1655.32 1306.43 C 1710.94 1304.97 1788.54 1312.54 1831.65 1349.74 C 1842.18 1358.82 1851.94 1371.38 1852.55 1385.79 C 1853.04 1397.41 1847.8 1408.08 1840.13 1416.51 C 1806.48 1453.49 1732.12 1465.24 1683.45 1467.61 C 1629.1 1469.13 1545.11 1459.02 1503.46 1422.72 C 1493.98 1414.46 1486.13 1403.27 1485.58 1390.32 C 1485.03 1377.67 1491.7 1366.25 1500.05 1357.26 C 1536.03 1318.57 1604.7 1308.51 1655.32 1306.43 z"/>
<path transform="translate(0,0)" fill="rgb(230,230,228)" d="M 1641.11 1313.41 C 1650.44 1312.31 1660.56 1312.73 1669.96 1312.78 C 1718.56 1313 1779.5 1320.47 1819.75 1349.07 C 1830.86 1356.97 1843.66 1369.39 1845.6 1383.5 C 1846.92 1393.06 1843.38 1402.01 1837.39 1409.35 C 1808.73 1444.51 1741.11 1456.44 1697.86 1460.88 C 1646.77 1462.16 1598.31 1459.45 1549.94 1441.14 C 1536.38 1436 1522.42 1429.98 1511.03 1420.84 C 1502.06 1413.65 1493.5 1403.33 1492.57 1391.45 C 1491.77 1381.17 1496.52 1371.7 1502.96 1364 C 1533.75 1327.16 1595.51 1317.23 1641.11 1313.41 z"/>
<path transform="translate(0,0)" fill="rgb(254,254,254)" d="M 190.717 1314.22 C 222.424 1319.24 254.066 1326.99 285.581 1333.21 C 384.556 1352.75 483.281 1374.48 582.662 1391.83 L 582.941 1596.08 L 573.779 1594.17 C 537.537 1584.99 500.149 1579.28 463.506 1571.79 C 368.567 1552.4 273.121 1534.26 178.562 1513.15 C 177.885 1450.54 177.006 1387.44 178.96 1324.86 C 182.27 1320.2 185.94 1317.31 190.717 1314.22 z"/>
<path transform="translate(0,0)" fill="rgb(0,0,0)" d="M 209.658 1342.76 C 220.264 1343.54 231.769 1347.01 242.201 1349.24 L 306.661 1362.9 A 13691.2 13691.2 0 0 1 500.989 1402.42 C 513.245 1404.97 545.67 1409.46 554.946 1413.89 C 557.178 1427.44 557.436 1551.19 554.685 1562.36 A 14440.8 14440.8 0 0 1 331.88 1517.85 C 290.855 1509.63 248.978 1503.16 208.372 1493.25 C 208.013 1474.01 205.717 1352.94 209.658 1342.76 z"/>
<path transform="translate(0,0)" fill="rgb(225,157,157)" d="M 215.402 1441.27 L 548.499 1508.39 L 548.785 1554.49 L 345.081 1513.62 C 302.056 1505.04 258.628 1497.11 215.833 1487.53 C 215.269 1472.21 214.474 1456.58 215.402 1441.27 z"/>
<path transform="translate(0,0)" fill="rgb(254,254,254)" d="M 215.161 1351.06 C 326.695 1372.34 437.496 1397.83 549.005 1419.27 L 548.984 1500.55 C 515.553 1495.29 482.247 1487.38 449.054 1480.68 L 305.589 1452.61 C 275.394 1446.58 245.331 1439.68 215.031 1434.21 A 6510.13 6510.13 0 0 1 215.161 1351.06 z"/>
<path transform="translate(0,0)" fill="rgb(254,254,254)" d="M 178.563 1520.56 A 13026.9 13026.9 0 0 0 451.067 1576.4 L 532.945 1592.68 C 549.397 1595.95 566.662 1598.52 582.639 1603.62 L 582.566 1821.81 C 582.655 1861.35 584.431 1901.74 582.654 1941.19 C 582.487 1944.91 582.402 1946.28 580.374 1949.39 C 577.16 1950.73 573.808 1952.07 570.325 1952.5 C 560.935 1953.66 500.101 1939.97 485.26 1937.15 L 268.828 1896.17 C 258.2 1894.07 187.326 1882.73 182.862 1877.91 C 179.079 1873.83 178.936 1869.17 178.549 1863.9 C 177.484 1849.4 178.215 1834.44 178.253 1819.9 L 178.273 1743.63 C 178.256 1669.3 177.56 1594.88 178.563 1520.56 z"/>
<path transform="translate(0,0)" fill="rgb(0,0,0)" d="M 238.652 1691.04 C 246.892 1690.56 263.99 1691.35 271.753 1694.18 C 275.614 1695.58 278.548 1697.91 280.207 1701.73 C 282.681 1707.44 283.37 1738.39 280.585 1742.44 C 277.373 1747.12 263.985 1751.4 258.551 1752.84 C 250.413 1751.57 222.213 1748.96 217.048 1743.93 C 210.157 1737.23 213.082 1713.03 212.92 1703.03 C 220.749 1698.12 230.288 1695.17 238.652 1691.04 z"/>
<path transform="translate(0,0)" fill="rgb(254,254,254)" d="M 240.158 1696.89 C 247.583 1696.95 264.352 1696.55 270.308 1700.92 C 272.695 1702.68 273.934 1705.44 274.552 1708.25 C 275.755 1713.7 276.367 1734.07 273.64 1738.56 C 270.959 1740.04 269.648 1741.34 266.548 1741.04 C 260.49 1732.22 269.504 1716.37 263.433 1706.51 C 259.474 1700.08 247.125 1698.68 240.158 1696.89 z"/>
<path transform="translate(0,0)" fill="rgb(254,254,254)" d="M 230.541 1701.94 C 232.243 1701.86 233.739 1701.93 235.436 1702.06 C 242.239 1702.61 251.254 1702.63 255.785 1708.51 C 261.231 1715.59 259.379 1735.72 258.51 1744.36 C 256.092 1745.79 253.13 1744.87 250.483 1744.5 L 220.144 1738.1 L 220.022 1707.55 C 223.295 1705.2 226.901 1703.63 230.541 1701.94 z"/>
<path transform="translate(0,0)" fill="rgb(0,0,0)" d="M 239.992 1593.06 C 247.647 1592.62 270.875 1594.94 277.053 1598.49 C 279.354 1599.82 279.784 1600.88 280.618 1603.35 C 282.679 1609.45 284.756 1639.05 281.222 1643.89 C 277.46 1649.04 264.372 1653.78 258.177 1655.41 C 249.879 1653.74 221.434 1650.28 216.493 1645.64 C 210.542 1640.05 212.912 1613.69 212.441 1605.18 C 220.974 1600.29 230.915 1596.9 239.992 1593.06 z"/>
<path transform="translate(0,0)" fill="rgb(254,254,254)" d="M 238.346 1599.45 C 245.8 1598.23 266.565 1599.42 272.833 1604.05 C 274.292 1605.12 274.435 1607.6 274.659 1609.31 C 275.389 1614.9 277.1 1636.83 273.989 1640.95 C 271.835 1642.18 270.505 1642.95 267.98 1643.22 C 263.269 1637.81 266.915 1622.37 265.605 1614.82 C 264.563 1608.83 262.459 1606.9 257.618 1603.41 C 251.392 1602.78 244.005 1602.23 238.346 1599.45 z"/>
<path transform="translate(0,0)" fill="rgb(254,254,254)" d="M 234.245 1604.33 C 241.282 1605.24 250.447 1605.76 255.617 1611.13 C 262.461 1618.24 259.224 1638.05 259.003 1647.68 A 1099.1 1099.1 0 0 1 246.227 1646.01 C 237.438 1644.27 228.777 1642.21 220.088 1640.04 L 220.008 1609.36 C 224.758 1607.19 229.088 1605.4 234.245 1604.33 z"/>
<path transform="translate(0,0)" fill="rgb(0,0,0)" d="M 237.594 1788.96 C 238.411 1788.94 239.229 1788.94 240.044 1788.99 C 250.206 1789.59 272.378 1789.82 279.012 1797.89 C 285.924 1806.29 282.571 1831.85 281.843 1842.46 C 276.599 1844.91 270.209 1846.88 265.46 1850.1 C 263.547 1851.4 262.005 1851.98 259.792 1852.65 C 251.036 1850.98 222.887 1848.23 217.013 1843.1 C 210.965 1837.82 212.922 1810.46 212.601 1801.31 C 220.629 1796.51 229.674 1794.22 237.594 1788.96 z"/>
<path transform="translate(0,0)" fill="rgb(254,254,254)" d="M 238.859 1795.47 C 246.661 1794.92 261.72 1794.66 268.442 1798.4 C 271.568 1800.14 273.355 1802.74 274.378 1806.11 C 276.081 1811.73 276.504 1834.21 273.788 1839.23 C 271.216 1840.06 270.106 1840.68 267.422 1840.13 C 260.973 1830.2 270.145 1813.23 263.297 1803.42 C 259.287 1797.67 245.711 1797.39 239.498 1796.67 L 238.859 1795.47 z"/>
<path transform="translate(0,0)" fill="rgb(254,254,254)" d="M 230.223 1801.07 C 233.881 1800.55 237.15 1800.66 240.812 1801.12 C 246.837 1801.88 253.899 1802.79 257.826 1807.88 C 259.263 1816.35 260.607 1837.07 257.843 1844.66 L 249.415 1843.29 A 217.749 217.749 0 0 1 220.205 1836.54 L 220.015 1805.95 C 223.354 1804.21 226.814 1802.67 230.223 1801.07 z"/>
<path transform="translate(0,0)" fill="rgb(0,0,0)" d="M 505.323 1840.19 C 516.705 1840.34 537.77 1843 547.993 1847.06 C 549.693 1850.15 549.675 1853.95 549.819 1857.45 C 550.11 1864.5 551.674 1892.67 547.816 1896.6 C 542.18 1902.34 531.002 1901.11 523.671 1900.93 C 515.309 1900.18 485.993 1898.26 480.945 1893.03 C 478.709 1884.15 477.437 1860.88 480.19 1852.06 C 481.568 1847.65 500.442 1842.35 505.323 1840.19 z"/>
<path transform="translate(0,0)" fill="rgb(254,254,254)" d="M 505.532 1846.37 C 506.084 1846.31 506.635 1846.23 507.188 1846.17 C 512.513 1845.63 530.76 1846.85 534.747 1850.18 L 533.486 1851.15 C 531.56 1852.71 529.822 1854.11 527.556 1855.17 C 520.739 1849.73 513.302 1849.59 505.532 1846.37 z"/>
<path transform="translate(0,0)" fill="rgb(254,254,254)" d="M 540.769 1853.98 C 544.525 1859.02 543.314 1884.33 542.618 1891.53 C 540.927 1893.9 537.918 1894.5 535.288 1895.45 C 534.918 1895.11 534.493 1894.82 534.179 1894.43 C 532.026 1891.74 532.813 1863.05 533.298 1857.66 C 535.115 1855.42 538.127 1854.86 540.769 1853.98 z"/>
<path transform="translate(0,0)" fill="rgb(254,254,254)" d="M 495.522 1851.13 C 495.975 1851.09 496.427 1851.04 496.881 1851.01 C 505.506 1850.42 517.831 1853.65 524.401 1859.21 C 527.066 1866.7 527.528 1885.92 525.478 1893.76 L 520.801 1893.35 C 509.464 1892.34 498.041 1891.01 486.944 1888.44 C 486.946 1880.04 483.954 1862.57 487.991 1855.52 C 489.691 1852.55 492.512 1852.23 495.522 1851.13 z"/>
<path transform="translate(0,0)" fill="rgb(0,0,0)" d="M 505.361 1742.1 C 515.875 1742.11 539.003 1745.14 548.401 1748.95 C 552.236 1756.65 550.168 1773.69 550.016 1782.44 C 549.941 1786.75 550.662 1796.6 547.379 1799.61 C 542.357 1804.21 534.061 1803.78 527.753 1803.55 C 516.803 1802.78 488.794 1802.3 482.031 1793.95 C 475.578 1785.97 478.902 1762.08 479.663 1752.07 C 487.64 1748.07 496.977 1745.32 505.361 1742.1 z"/>
<path transform="translate(0,0)" fill="rgb(254,254,254)" d="M 502.612 1748.43 C 503.223 1748.33 503.831 1748.21 504.443 1748.12 C 510.476 1747.23 531.588 1748.84 536.198 1752.25 L 534.209 1752.78 L 529.052 1756.78 C 522.765 1755.2 508.655 1750.8 502.612 1748.43 z"/>
<path transform="translate(0,0)" fill="rgb(254,254,254)" d="M 539.594 1756.99 L 542.025 1757.08 C 544.364 1762 543.965 1788.58 542.37 1794.44 L 536.366 1796.55 L 533.9 1795.79 C 532.573 1791.91 531.621 1762.83 532.95 1759.03 L 539.594 1756.99 z"/>
<path transform="translate(0,0)" fill="rgb(254,254,254)" d="M 494.547 1753.11 C 505.416 1753.71 514.94 1756.73 525.245 1760.12 C 525.493 1767.49 527.689 1790.74 524.335 1795.79 L 520.771 1795.81 A 1092.28 1092.28 0 0 1 487.062 1790.37 C 487.052 1781.44 484.153 1765.13 487.765 1757.29 C 489.123 1754.35 491.745 1754.13 494.547 1753.11 z"/>
<path transform="translate(0,0)" fill="rgb(0,0,0)" d="M 504.318 1645.05 C 518.962 1644.3 536.198 1647.6 550.103 1652.28 C 550.182 1663.92 554.245 1695.88 546.191 1703.93 C 541.773 1708.35 534.487 1707.6 528.752 1707.42 C 520.217 1706.86 511.657 1705.73 503.159 1704.76 C 497.495 1704.12 485.801 1703.79 482.418 1698.77 C 477.698 1691.78 478.077 1666.69 480.468 1658.58 C 482.186 1652.75 498.72 1648.08 504.318 1645.05 z"/>
<path transform="translate(0,0)" fill="rgb(254,254,254)" d="M 541.928 1660.13 C 542.531 1660.68 542.408 1660.46 542.713 1661.58 C 544.052 1666.5 544.219 1696.18 542.121 1700.19 L 534.283 1701.54 C 531.544 1691.98 532.782 1674.15 533.357 1663.84 C 535.459 1661.63 539.088 1661.02 541.928 1660.13 z"/>
<path transform="translate(0,0)" fill="rgb(254,254,254)" d="M 497.205 1657.21 C 498.608 1657.09 499.291 1657 500.629 1656.99 C 507.346 1656.96 520.679 1658.1 525.218 1663.43 C 527.677 1666.32 526.535 1693.45 526.493 1698.87 C 524.341 1700.61 523.205 1699.87 520.575 1699.61 C 509.248 1698.63 498.07 1696.49 486.999 1693.97 C 486.945 1683.11 484.147 1670.54 488.497 1660.37 C 490.885 1657.77 493.902 1657.73 497.205 1657.21 z"/>
</svg>