<svg version="1.1" xmlns="http://www.w3.org/2000/svg" style="display: block;" viewBox="0 0 2048 2048" width="1024" height="1024">
<path transform="translate(0,0)" fill="rgb(254,254,254)" d="M 0 0 L 2048 0 L 2048 2048 L 0 2048 L 0 0 z"/>
<path transform="translate(0,0)" fill="rgb(247,199,92)" d="M 1255.46 1056.98 C 1265.76 1046.44 1284.41 1030.3 1290.1 1017.15 C 1297.72 999.533 1303.78 933.108 1306.46 912.211 C 1312.68 863.708 1320.34 815.39 1326.43 766.855 A 3445.54 3445.54 0 0 1 1341.89 652.569 C 1344.47 635.179 1346.53 617.431 1350.07 600.216 C 1350.93 596.045 1352.03 591.769 1354.57 588.271 C 1356.94 585.019 1360.22 582.806 1363.95 581.415 C 1373.07 578.024 1498.4 542.834 1501.09 542.815 C 1503.54 542.797 1506.11 543.819 1507.73 545.671 C 1509.96 548.223 1510.56 551.672 1509.88 554.923 C 1509.25 557.943 1507.43 560.938 1504.8 562.617 C 1491.06 571.389 1452.72 578.213 1435.34 582.939 C 1414.05 588.725 1393.01 595.135 1371.66 600.74 C 1357.56 683.864 1347.68 767.785 1336.43 851.336 A 11500.3 11500.3 0 0 1 1320.51 967.158 C 1317.66 986.928 1314.09 1006.76 1311.62 1026.56 C 1305.87 1034.35 1298.45 1040.96 1291.73 1047.91 A 503.746 503.746 0 0 0 1266.27 1076.64 C 1263.2 1098.4 1256.94 1111.85 1239.57 1125.82 C 1239.5 1127.25 1239.36 1127.66 1238.87 1128.92 C 1237.3 1133.05 1237.13 1138.99 1236.27 1143.49 C 1232.22 1164.7 1229.06 1186.01 1225.29 1207.26 L 1200.01 1346.79 C 1195.36 1372.72 1188.83 1399.77 1187.67 1426.08 C 1229.83 1395.98 1269.74 1360.25 1305.55 1322.84 C 1311.76 1316.36 1318.98 1307.03 1327.31 1303.42 C 1336.91 1299.25 1348.48 1297.82 1358.68 1295.7 C 1381.37 1291 1404.75 1287.28 1426.79 1280.1 C 1439.72 1260.89 1450.63 1240.1 1463.16 1220.54 C 1416.06 1230.2 1368.78 1242.39 1322.32 1254.81 C 1312.62 1237.56 1293.19 1192.16 1287.92 1173.21 C 1297.38 1166.94 1309.02 1164.3 1319.78 1160.97 C 1321.93 1166.99 1323.75 1172.87 1325.19 1179.09 L 1316.7 1183.22 A 357.714 357.714 0 0 0 1335.73 1227.46 L 1542.43 1177.31 C 1577.82 1168.53 1613.32 1160.4 1648.53 1150.89 A 158.355 158.355 0 0 1 1652.73 1124.37 C 1660.88 1121.42 1678.32 1113.69 1686.52 1118.24 C 1687.99 1119.05 1688.65 1120.15 1689.46 1121.54 C 1689.98 1125.09 1689.29 1127.35 1687.22 1130.19 C 1682.93 1136.1 1678.59 1137.72 1671.83 1139.59 C 1671.3 1150.13 1670.85 1159.16 1667.07 1169.1 C 1638.78 1177.91 1608.67 1181.78 1580.73 1191.59 C 1574.54 1211.07 1568.88 1230.89 1563.6 1250.64 C 1560.5 1262.22 1558.34 1275.32 1553.66 1286.31 C 1548.21 1287.34 1538.52 1290.43 1533.49 1287.6 C 1532.26 1283.31 1552.85 1208.95 1555.8 1197.69 C 1535.38 1202.83 1514.89 1208.57 1494.2 1212.48 A 1589.5 1589.5 0 0 0 1462.34 1262.12 C 1456.11 1272.25 1450.42 1283.76 1443.26 1293.16 C 1440.82 1296.36 1438.01 1299.03 1434.47 1301.01 C 1422.91 1307.49 1401.46 1309.73 1388.28 1312.48 C 1371.06 1316.07 1352.68 1318.73 1335.82 1323.61 C 1327.59 1331.56 1320.2 1340.3 1311.99 1348.28 C 1285.48 1374.11 1257.33 1399.62 1228.38 1422.66 C 1190.09 1453.14 1148.05 1477.14 1105.43 1500.87 C 1086.2 1511.59 1067.17 1522.79 1047.58 1532.85 C 1046.41 1524.7 1045.42 1516.52 1044.34 1508.36 C 1057.4 1504.21 1077.87 1490.18 1090.87 1482.81 C 1114.59 1469.38 1138.73 1456.82 1162.25 1443.02 C 1174.29 1358.81 1191.6 1275.29 1205.18 1191.31 C 1208.85 1168.63 1213.9 1146 1216.4 1123.16 C 1207.64 1117.79 1201.39 1111.65 1198.99 1101.2 C 1196.63 1090.91 1199.65 1080.38 1205.35 1071.71 C 1211.24 1062.75 1220.43 1055.03 1231.14 1052.86 C 1239.94 1051.07 1247.54 1053.13 1255.46 1056.98 z"/>
<path transform="translate(0,0)" fill="rgb(254,254,254)" d="M 1230.33 1073.88 C 1232.05 1073.92 1233.81 1073.94 1235.5 1074.22 A 10.4241 10.4241 0 0 1 1242.92 1079.38 C 1245.06 1083.14 1245 1087.78 1243.57 1091.77 C 1241.47 1097.68 1238.56 1100.39 1233.05 1103.11 C 1231.75 1103.13 1230.28 1103.23 1228.98 1103.05 C 1225.49 1102.59 1222.29 1101.11 1220.36 1098.05 C 1218.53 1095.14 1218.42 1091.61 1219.17 1088.35 C 1220.78 1081.33 1224.44 1077.63 1230.33 1073.88 z"/>
<path transform="translate(0,0)" fill="rgb(32,39,69)" d="M 1656.25 84.0793 C 1657.32 84.1353 1658.39 84.6365 1659.4 84.9764 C 1660.02 85.8492 1660.46 86.3509 1660.78 87.4522 C 1662.04 91.7761 1660.42 98.9213 1659.73 103.35 C 1655.36 131.489 1649.13 159.42 1644.1 187.456 C 1639.06 215.584 1598.22 455.828 1592.91 463.008 C 1591.77 464.543 1589.42 465.734 1587.66 466.328 C 1563.75 474.391 1537.99 479.959 1513.6 486.655 L 1371.64 525.969 L 1229.84 565.934 C 1204.73 573.014 1179.61 580.841 1154.17 586.621 C 1151.63 585.682 1151.18 585.397 1149.41 583.348 C 1148.27 577.195 1208.66 248.648 1216.82 211.749 C 1228.18 207.495 1240.2 204.42 1251.83 200.961 C 1281.96 191.997 1312.37 184.031 1342.5 175.08 L 1656.25 84.0793 z"/>
<path transform="translate(0,0)" fill="rgb(254,254,254)" d="M 1645.52 98.1195 C 1647.64 98.0113 1646.59 97.8304 1648.66 98.7677 C 1650.47 108.08 1638.64 161.753 1636.27 175.398 A 6674.17 6674.17 0 0 1 1603.91 355.538 C 1597.86 388.422 1592.32 421.462 1585.43 454.18 C 1571.67 459.597 1556.85 463.263 1542.59 467.231 A 3637.49 3637.49 0 0 0 1475.1 486.154 C 1371.83 516.359 1267.8 544.077 1164.26 573.356 L 1161.6 573.171 C 1159.61 567.353 1218.64 256.207 1224.82 219.868 C 1247.52 211.223 1271.9 205.49 1295.26 198.849 L 1401.75 168.263 C 1483.03 145.213 1563.83 119.635 1645.52 98.1195 z"/>
<path transform="translate(0,0)" fill="rgb(247,199,92)" d="M 1626.47 119.063 L 1629.04 119.223 C 1633.45 127.841 1579.39 407.918 1574.16 443.996 C 1549.2 449.992 1524.51 457.548 1499.82 464.551 L 1400.39 492.639 A 14013.8 14013.8 0 0 0 1183.02 555.917 C 1181.97 555.687 1180.93 554.963 1179.98 554.456 C 1178.84 551.898 1179.31 549.657 1179.64 546.961 C 1180.76 538.055 1183.05 529.298 1184.4 520.424 C 1192.28 468.585 1202.78 417.194 1212.36 365.653 A 4557.17 4557.17 0 0 1 1230.65 268.84 C 1233.22 255.691 1234.81 242.058 1238.35 229.157 C 1250.54 225.207 1263.57 222.961 1276 219.781 C 1297.54 214.273 1318.92 207.987 1340.27 201.802 L 1626.47 119.063 z"/>
<path transform="translate(0,0)" fill="rgb(254,254,254)" d="M 1612.99 137.138 C 1613.97 137.21 1613.35 137.088 1614.72 137.915 C 1614.08 146.597 1611.36 155.558 1609.72 164.162 A 1342.68 1342.68 0 0 0 1603.1 204.036 C 1590.91 281.068 1576.17 357.607 1562.58 434.378 C 1497.92 449.989 1433.99 469.927 1369.89 487.771 L 1266.07 516.962 C 1242.84 523.543 1219.36 529.628 1196.61 537.75 L 1195.72 537.388 C 1193.76 524.558 1207.65 462.994 1210.89 445.985 C 1218.81 404.413 1225.11 362.458 1232.93 320.854 C 1237.97 294.005 1245.02 267.705 1248.62 240.566 C 1273.6 234.78 1297.94 227.349 1322.6 220.442 L 1455.98 182 C 1508.16 166.51 1560.8 152.626 1612.99 137.138 z"/>
<path transform="translate(0,0)" fill="rgb(177,137,48)" d="M 1317.01 357.163 C 1323.01 355.664 1335.23 350.241 1340.82 352.793 C 1341.67 354.859 1341.71 356.59 1341.83 358.791 C 1341.48 360.091 1340.96 361.322 1340.48 362.578 C 1333.77 366.571 1324.59 367.843 1317.03 369.625 L 1317.01 357.163 z"/>
<path transform="translate(0,0)" fill="rgb(177,137,48)" d="M 1281.15 379.217 C 1281.05 375.762 1280.78 372.899 1282.25 369.706 C 1288.85 363.011 1301.93 362.049 1310.84 359.932 L 1310.43 371.422 C 1300.8 373.913 1290.5 375.867 1281.15 379.217 z"/>
<path transform="translate(0,0)" fill="rgb(177,137,48)" d="M 1256.65 373.297 L 1277.21 368.893 L 1277.95 380.833 C 1268.11 383.734 1257.98 385.856 1247.99 388.236 C 1248.1 384.114 1247.96 380.094 1249.29 376.148 C 1251.92 373.675 1253.17 373.867 1256.65 373.297 z"/>
<path transform="translate(0,0)" fill="rgb(247,199,92)" d="M 1574.03 198.244 C 1574.71 202.262 1573.15 207.506 1572.47 211.54 C 1558.24 217.043 1543.03 219.985 1528.47 224.588 C 1527.89 220.397 1528.06 215.869 1527.9 211.627 C 1543.31 207.26 1558.55 202.359 1574.03 198.244 z"/>
<path transform="translate(0,0)" fill="rgb(247,199,92)" d="M 1409.78 386.279 C 1411.69 385.889 1413.49 385.274 1415.41 385.867 C 1416.8 386.294 1417.22 387.867 1417.91 389.042 C 1417.84 390.55 1418.06 391.335 1417.14 392.648 C 1412.06 399.891 1379.09 406.258 1369.24 408.802 C 1366.51 409.39 1365.87 409.86 1363.36 408.738 C 1361.88 404.997 1363.44 400.352 1364.17 396.513 C 1379.39 394.506 1394.72 389.566 1409.78 386.279 z"/>
<path transform="translate(0,0)" fill="rgb(252,242,201)" d="M 1251.18 364.386 C 1275.72 363.195 1316.26 348.269 1342.53 342.478 C 1342.23 347.838 1342.47 353.506 1341.83 358.791 C 1341.71 356.59 1341.67 354.859 1340.82 352.793 C 1335.23 350.241 1323.01 355.664 1317.01 357.163 C 1313.96 357.814 1313.16 357.926 1310.84 359.932 C 1301.93 362.049 1288.85 363.011 1282.25 369.706 C 1280.78 372.899 1281.05 375.762 1281.15 379.217 L 1277.95 380.833 L 1277.21 368.893 L 1256.65 373.297 C 1256.63 371.103 1256.9 368.447 1255.86 366.465 C 1255.2 365.197 1252.52 364.816 1251.18 364.386 z"/>
<path transform="translate(0,0)" fill="rgb(247,199,92)" d="M 1509.2 359.19 L 1510.76 359.995 C 1511.2 363.794 1509.57 367.719 1508.5 371.335 C 1483.25 376.863 1458.09 384.29 1433.23 391.409 L 1431.89 390.891 C 1430.38 387.74 1431.03 383.185 1431.08 379.735 L 1509.2 359.19 z"/>
<path transform="translate(0,0)" fill="rgb(32,39,69)" d="M 1251.18 364.386 C 1251.22 362.24 1251.25 357.29 1252.82 355.75 C 1256.15 352.463 1333.15 333.734 1344.14 332.381 C 1345.79 333.861 1346.57 334.496 1346.31 336.989 C 1346 339.911 1344.6 340.744 1342.53 342.478 C 1316.26 348.269 1275.72 363.195 1251.18 364.386 z"/>
<path transform="translate(0,0)" fill="rgb(247,199,92)" d="M 1495.61 246.004 C 1498.17 245.835 1496.93 245.654 1499.34 246.554 C 1500.58 249.958 1499.33 254.07 1498.71 257.573 C 1484.27 263.288 1467.97 266.724 1452.92 270.691 A 2091.37 2091.37 0 0 0 1389.24 288.304 C 1387.3 288.904 1388.36 288.814 1386.05 288.322 C 1385.87 287.992 1385.64 287.682 1385.5 287.331 C 1384.51 284.911 1384.35 280.412 1385.56 278.052 C 1386.21 276.783 1387.95 275.832 1389.22 275.295 C 1395.18 272.778 1402.02 272.095 1408.21 270.303 C 1437.28 261.878 1466.66 254.949 1495.61 246.004 z"/>
<path transform="translate(0,0)" fill="rgb(247,199,92)" d="M 1512.04 215.203 C 1513.6 214.963 1514.03 215.073 1515.5 215.493 C 1516.95 219.028 1515.86 223.321 1515.4 227.024 C 1474.66 240.978 1432.32 250.466 1391.32 263.711 C 1389.94 263.883 1390.79 263.916 1388.87 263.006 C 1388.07 258.515 1389.62 253.764 1390.56 249.357 C 1411.06 243.23 1432 238.259 1452.59 232.376 C 1472.4 226.715 1492.01 220.011 1512.04 215.203 z"/>
<path transform="translate(0,0)" fill="rgb(247,199,92)" d="M 1514.51 385.179 L 1516.43 385.52 C 1517.36 388.723 1515.88 392.959 1515.17 396.206 C 1500.2 403.654 1478.43 407.119 1462.05 411.504 A 5039.97 5039.97 0 0 0 1361.16 439.659 C 1360.18 439.112 1360.02 439.163 1359.36 438.243 C 1356.91 434.842 1358.77 428.47 1359.38 424.63 C 1380.63 420.777 1401.86 413.939 1422.75 408.321 A 2323.24 2323.24 0 0 1 1514.51 385.179 z"/>
<path transform="translate(0,0)" fill="rgb(247,199,92)" d="M 1538.12 323.234 C 1539.44 323.592 1538.72 323.221 1539.86 324.96 C 1539.7 329.176 1538.69 332.794 1537.54 336.82 C 1517.91 343.961 1496.43 348.694 1476.26 354.154 L 1369.2 382.983 L 1367.92 382.171 C 1366.79 378.209 1368.01 372.95 1368.46 368.864 C 1425.93 357.555 1481.04 335.899 1538.12 323.234 z"/>
<path transform="translate(0,0)" fill="rgb(247,199,92)" d="M 1553.4 261.12 L 1553.97 261.207 C 1555.84 263.769 1554.17 271.843 1553.96 275.202 C 1527.95 283.976 1500.69 290.183 1474.16 297.266 C 1442.96 305.595 1412 314.681 1380.74 322.811 L 1379.29 321.403 C 1378.89 318.331 1378.31 314.858 1379.63 311.912 C 1380.83 309.229 1382.39 308.889 1384.92 307.961 C 1400.57 302.216 1418.22 298.899 1434.41 294.468 C 1474.15 283.584 1513.97 273.113 1553.4 261.12 z"/>
<path transform="translate(0,0)" fill="rgb(32,39,69)" d="M 1355.6 240.106 C 1357.68 239.77 1358.62 239.604 1360.52 240.577 C 1363.09 246.29 1350.36 301.69 1347.56 310.571 C 1318.64 317.645 1290.24 327.308 1261.24 333.796 C 1258.61 334.031 1257.59 334.532 1255.19 333.21 C 1255.38 318.553 1263.46 280.208 1267.43 264.837 C 1296.85 256.673 1326.03 247.706 1355.6 240.106 z"/>
<path transform="translate(0,0)" fill="rgb(247,199,92)" d="M 1347.65 253.066 L 1348.99 253.225 C 1351.1 258.602 1341.18 294.321 1339.35 302.427 C 1316.71 309.817 1293.08 315.268 1270.22 322.174 C 1268.92 322.334 1269.78 322.303 1267.66 321.811 C 1265.93 315.451 1274.08 281.876 1275.75 273.147 A 6911.56 6911.56 0 0 1 1347.65 253.066 z"/>
<path transform="translate(0,0)" fill="rgb(32,39,69)" d="M 1331.71 385.14 C 1333.79 384.827 1334.75 384.772 1336.68 385.654 C 1336.12 395.275 1324.75 455.909 1321.12 463.286 C 1319.59 466.4 1317.17 468.563 1314.02 469.963 C 1305.33 473.816 1292.39 474.975 1282.89 477.462 C 1264.94 482.161 1247.34 487.807 1229.77 493.739 C 1226.82 493.22 1226.28 493.351 1224.21 491.26 C 1223.19 480.684 1236.28 423.94 1239.1 409.937 C 1249.61 405.304 1261.71 402.946 1272.82 400.035 A 3214.63 3214.63 0 0 1 1331.71 385.14 z"/>
<path transform="translate(0,0)" fill="rgb(247,199,92)" d="M 1322.39 398.104 C 1324.28 399.274 1323.55 398.528 1324.66 400.264 C 1322.61 405.442 1322.18 412.119 1321.09 417.677 C 1318.38 431.474 1315.88 445.379 1312.46 459.02 C 1287.68 466.567 1262.33 472.693 1237.38 479.716 C 1236.76 479.692 1236.21 479.277 1235.64 479.027 C 1238.2 458.916 1243.53 438.629 1246.92 418.57 A 3401.61 3401.61 0 0 0 1322.39 398.104 z"/>
<path transform="translate(0,0)" fill="rgb(32,39,69)" d="M 1954.22 493.162 C 1957.54 492.953 1959.4 492.701 1962.13 494.63 C 1963.21 497.807 1962.23 501.576 1961.66 504.811 C 1952.15 558.192 1940.34 611.324 1929.37 664.423 L 1889.27 859.131 C 1878.48 909.603 1871.31 961.381 1858.36 1011.33 C 1844.5 1017.09 1827.93 1019.64 1813.35 1023.21 L 1717.33 1046.67 L 1362.22 1136.23 C 1361.82 1136.34 1361.44 1136.49 1361.04 1136.57 C 1358.47 1137.15 1356.95 1137.41 1354.7 1136.11 C 1353.82 1132.44 1354.88 1127.8 1355.52 1124.11 A 29925 29925 0 0 1 1413.92 811.342 L 1437.66 687.487 C 1441.61 666.754 1443.7 644.057 1450.31 624.102 L 1683.86 562.638 A 17758.8 17758.8 0 0 0 1954.22 493.162 z"/>
<path transform="translate(0,0)" fill="rgb(254,254,254)" d="M 1949.19 505.128 L 1950.5 505.497 C 1952.58 511.891 1886.7 820.272 1879.51 856.239 L 1860.69 952.517 C 1857.31 969.44 1854.77 987.289 1849.29 1003.65 C 1821.56 1011.89 1792.87 1017.94 1764.77 1024.83 L 1622.31 1060.16 L 1467.55 1098.99 C 1434.54 1107.39 1401.55 1116.67 1368.23 1123.72 C 1367.16 1123.68 1367.85 1123.78 1366.25 1122.98 C 1365.8 1115.56 1369.38 1105.39 1370.8 1097.79 A 5528.36 5528.36 0 0 0 1381.75 1037.17 A 28096 28096 0 0 1 1434.63 756.692 L 1447.38 687.79 C 1450.86 669.578 1454.9 651.344 1457.51 632.984 C 1475.21 626.661 1494.11 622.677 1512.31 617.945 L 1605.74 593.731 A 21722.3 21722.3 0 0 0 1949.19 505.128 z"/>
<path transform="translate(0,0)" fill="rgb(247,199,92)" d="M 1923.15 530.362 C 1925.27 530.347 1925.25 530.184 1927.28 531.279 C 1929.06 535.687 1914.29 596.878 1912.28 606.479 C 1899.91 665.536 1886.57 724.461 1874.95 783.665 C 1864.3 837.956 1853.76 892.108 1842.24 946.231 C 1839.06 961.178 1836.79 976.315 1833.25 991.177 C 1816.85 992.533 1799.94 997.837 1783.95 1001.74 L 1699.52 1022.55 L 1568.84 1055.63 C 1509.95 1070.07 1450.6 1083.7 1392.21 1100.05 C 1391.23 1100.27 1390.04 1100.29 1389.03 1100.39 C 1386.08 1092.09 1412.19 970.64 1415.58 952.22 L 1455.98 729.559 C 1460.95 702.177 1465.05 674.617 1469.7 647.176 C 1482.41 642.844 1495.81 640.105 1508.8 636.619 A 6275.86 6275.86 0 0 1 1583.91 616.554 L 1796.66 562.267 A 4794.71 4794.71 0 0 0 1873.84 541.903 C 1889.85 537.615 1906.64 531.926 1923.15 530.362 z"/>
<path transform="translate(0,0)" fill="rgb(254,254,254)" d="M 1909.24 548.128 L 1910.81 548.948 C 1902.73 575.322 1899.05 604.928 1893.25 632.065 L 1848.03 852.167 C 1839.85 893.344 1833.89 936.2 1822.36 976.557 C 1805.03 983.504 1784.31 986.08 1766.04 990.203 C 1739.64 996.159 1713.37 1002.93 1687.1 1009.4 L 1482.05 1059.78 C 1458.2 1065.45 1434.92 1072.75 1410.81 1077.48 L 1409.36 1076.58 C 1408.83 1067.56 1411.88 1056.32 1413.25 1047.28 C 1415.2 1034.46 1416.54 1021.55 1418.82 1008.79 C 1421.88 991.699 1425.89 974.778 1428.87 957.676 L 1481.41 658.339 C 1533.68 643.07 1586.63 631.275 1639.45 618.3 C 1669.4 610.946 1698.92 601.841 1728.82 594.306 C 1788.88 579.172 1849.71 565.197 1909.24 548.128 z"/>
<path transform="translate(0,0)" fill="rgb(247,199,92)" d="M 1673.13 727.338 A 668.081 668.081 0 0 1 1680.21 726.781 C 1681.76 727.761 1682.39 727.757 1683.07 729.594 C 1685.34 735.747 1681.11 745.698 1678.44 751.354 C 1675.79 751.33 1674.03 751.229 1671.49 750.303 C 1669.28 748.219 1668.37 746.36 1668.09 743.345 C 1667.65 738.524 1669.91 730.943 1673.13 727.338 z"/>
<path transform="translate(0,0)" fill="rgb(247,199,92)" d="M 1689.82 655.952 C 1692.5 655.906 1694.1 655.567 1696.5 656.817 C 1697.74 659.706 1698.35 662.689 1698.03 665.854 C 1697.45 671.516 1695.74 677.749 1691.44 681.605 C 1688.24 680.921 1685.8 680.502 1683.92 677.638 C 1682.07 674.842 1681.9 670.117 1682.55 666.962 C 1683.68 661.525 1685.07 658.919 1689.82 655.952 z"/>
<path transform="translate(0,0)" fill="rgb(247,199,92)" d="M 1680.99 692.489 C 1684.21 692.163 1687.36 692.088 1690.59 692.076 L 1691.55 693.299 C 1691.07 701.622 1688.57 711.875 1684.92 719.395 C 1681.29 719.858 1679.86 719.818 1676.99 717.663 C 1675.87 715.155 1675.35 713.023 1675.35 710.246 C 1675.36 705.166 1677.35 696.094 1680.99 692.489 z"/>
<path transform="translate(0,0)" fill="rgb(247,199,92)" d="M 1629.07 698.807 C 1630.53 698.784 1632.05 698.713 1633.5 698.909 C 1636.02 699.25 1638.58 700.463 1640.01 702.643 C 1641.3 704.632 1641.38 706.932 1640.91 709.176 C 1639.58 715.555 1635.28 719.565 1630.07 723.01 C 1628.99 723.057 1628.1 723.141 1627 722.962 C 1624.5 722.554 1622.01 721.303 1620.62 719.108 C 1619.18 716.834 1619.04 714.01 1619.62 711.455 C 1621.06 705.155 1623.8 702.284 1629.07 698.807 z"/>
<path transform="translate(0,0)" fill="rgb(247,199,92)" d="M 1833.2 743.304 C 1834.29 743.295 1833.53 743.243 1835.39 743.971 C 1836.09 747.604 1834.39 751.636 1833.39 755.13 A 807.459 807.459 0 0 0 1800.21 763.224 C 1797.57 760.561 1797.39 754.398 1796.82 750.782 C 1808.92 748.084 1820.98 745.411 1833.2 743.304 z"/>
<path transform="translate(0,0)" fill="rgb(247,199,92)" d="M 1593.06 949.89 C 1596.68 950.093 1600.18 950.326 1602.83 953.197 C 1604.71 955.221 1605.01 957.532 1604.7 960.173 C 1603.81 967.635 1597.43 972.914 1591.84 977.031 C 1589.75 977.142 1587.63 977.333 1585.57 976.832 C 1583.13 976.237 1581.08 974.697 1580.05 972.374 C 1578.85 969.705 1579.19 966.784 1580.05 964.093 C 1582.27 957.228 1586.71 952.966 1593.06 949.89 z"/>
<path transform="translate(0,0)" fill="rgb(247,199,92)" d="M 1783.73 754.158 C 1784.36 754.036 1785.56 754.244 1786.22 754.295 C 1787.43 757.597 1786.22 762.7 1785.86 766.2 C 1772.57 769.042 1759.4 772.733 1746.25 776.156 C 1745.46 775.515 1744.15 774.522 1743.57 773.723 C 1741.94 771.488 1742.14 770.262 1742.59 767.794 C 1749.97 759.079 1772.85 756.6 1783.73 754.158 z"/>
<path transform="translate(0,0)" fill="rgb(247,199,92)" d="M 1847.48 691.16 L 1849.6 691.472 C 1850.9 695.553 1849.91 700.674 1849.58 704.913 C 1838.1 708.48 1826.17 711.242 1814.47 714.004 C 1812.47 709.708 1810.92 705.157 1809.23 700.723 C 1821.83 697.018 1834.7 694.197 1847.48 691.16 z"/>
<path transform="translate(0,0)" fill="rgb(247,199,92)" d="M 1855.58 618.156 L 1858.52 617.929 L 1859.62 619.064 C 1860.21 623.496 1858.18 628.388 1856.96 632.638 C 1842.65 637.224 1826.91 639.519 1812.21 642.919 L 1809.58 643.352 C 1807.35 639.908 1808.81 633.452 1809.19 629.364 C 1824.23 624.748 1840.25 621.816 1855.58 618.156 z"/>
<path transform="translate(0,0)" fill="rgb(247,199,92)" d="M 1521.54 1000.12 C 1523.93 1000.46 1524.13 1000.85 1525.94 1002.51 C 1526.89 1004.94 1527.1 1005.95 1526.49 1008.5 C 1524.28 1011.74 1521.78 1013.14 1518.13 1014.52 C 1510.69 1017.32 1502.25 1018.13 1494.48 1019.82 C 1481.75 1022.59 1469.11 1025.89 1456.42 1028.81 L 1454.49 1028.9 C 1453.17 1028.2 1452.33 1028.09 1451.65 1026.66 C 1450.81 1024.88 1450.51 1021.38 1451.55 1019.58 C 1456.09 1011.7 1510.09 1002.99 1521.54 1000.12 z"/>
<path transform="translate(0,0)" fill="rgb(247,199,92)" d="M 1533.92 964.293 C 1534.76 964.17 1536.21 963.918 1537.03 963.989 C 1539.5 964.202 1540.25 965.376 1541.78 967.073 C 1542.07 970.115 1541.81 970.779 1540.6 973.62 C 1529.68 982.49 1480.78 989.682 1464.23 992.744 L 1460.46 993.055 C 1458.06 991.782 1457.73 991.569 1456.35 989.244 C 1456.38 986.645 1456.6 985.516 1458 983.314 C 1469.27 976.33 1518.28 967.423 1533.92 964.293 z"/>
<path transform="translate(0,0)" fill="rgb(247,199,92)" d="M 1790.03 634.3 C 1791.66 637.654 1790.35 645.113 1790.18 649.008 C 1780.23 652.435 1769.61 654.554 1759.42 657.259 C 1743.1 661.598 1726.79 666.367 1710.27 669.9 L 1709.48 669.249 C 1708.2 665.161 1709.82 659.359 1710.44 655.135 C 1736.65 647.34 1763.52 641.034 1790.03 634.3 z"/>
<path transform="translate(0,0)" fill="rgb(247,199,92)" d="M 1774.81 877.333 C 1777.02 878.873 1777.52 880.788 1777.91 883.481 C 1778.28 886.042 1777.78 887.52 1776.42 889.614 C 1764.8 894.307 1690.73 911.534 1678.02 912.551 C 1676.86 911.68 1676.23 910.967 1675.69 909.56 C 1674.72 907.047 1675.38 904.381 1676.47 902.075 C 1682.88 896.168 1760.78 880.122 1774.81 877.333 z"/>
<path transform="translate(0,0)" fill="rgb(247,199,92)" d="M 1796.1 704.253 C 1798.14 707.561 1797.01 713.956 1796.93 717.935 C 1764.2 726.553 1730.47 735.126 1697.24 741.471 C 1696.9 741.044 1696.46 740.679 1696.22 740.19 C 1695 737.73 1695.45 732.478 1696.89 730.089 C 1698.28 727.778 1699.59 726.783 1702.12 725.842 C 1712.79 721.864 1725.4 720.366 1736.61 717.906 L 1796.1 704.253 z"/>
<path transform="translate(0,0)" fill="rgb(247,199,92)" d="M 1622.58 741.361 C 1623.73 741.928 1624.5 742.651 1625.46 743.483 C 1626.4 747.232 1625.06 749.904 1623.34 753.129 C 1607.52 782.706 1583.21 810.186 1550.02 819.787 C 1533.41 824.588 1516.79 824.119 1501.44 815.741 C 1499.18 812.889 1497.84 809.823 1498.11 806.15 C 1504.53 799.087 1521.72 809.914 1529.9 811.174 C 1533.67 811.755 1538.29 810.932 1542.06 810.277 C 1569.77 805.459 1591.16 789.845 1606.67 766.677 C 1612 758.719 1616.26 750.117 1621.87 742.334 L 1622.58 741.361 z"/>
<path transform="translate(0,0)" fill="rgb(247,199,92)" d="M 1760.55 917.191 C 1761.21 917.142 1761.87 916.98 1762.52 917.043 C 1764.58 917.243 1766.23 919.052 1766.9 920.895 C 1767.81 923.373 1767.18 924.908 1766.29 927.151 C 1760.29 932.448 1668.89 952.465 1655.23 955.816 C 1654.4 955.894 1652.75 956.092 1651.95 955.961 C 1649.7 955.593 1648.9 953.928 1647.68 952.26 C 1647.66 950.796 1647.32 949.76 1648.26 948.508 C 1654.69 939.931 1742.82 921.262 1760.55 917.191 z"/>
<path transform="translate(0,0)" fill="rgb(247,199,92)" d="M 1817.28 830.276 C 1819.21 832.776 1817.74 840.746 1817.56 844.148 A 2316.35 2316.35 0 0 1 1696.62 872.61 C 1695.6 868.52 1694.41 865.001 1696.48 861.028 C 1702.21 856.787 1802.75 833.566 1817.28 830.276 z"/>
<path transform="translate(0,0)" fill="rgb(247,199,92)" d="M 1581.2 667.171 C 1590.24 666.491 1599.12 666.276 1607.62 669.948 C 1614.39 672.869 1621.49 679.279 1623.82 686.48 C 1624.33 688.041 1623.81 688.183 1623.08 689.478 C 1617.92 689.495 1606.15 678.013 1599.26 676.365 C 1583.52 672.596 1564.2 681.582 1551.52 690.26 C 1531.65 703.862 1518.63 723.182 1514.22 746.773 C 1512.39 760.149 1518.69 765.742 1520.44 777.793 C 1519.45 780.776 1519.27 781.583 1516.88 783.777 C 1514.53 783.983 1513.74 784.127 1511.61 782.906 C 1506.82 780.172 1504.21 773.325 1502.93 768.296 C 1498.64 751.564 1503.43 731.526 1512.33 717.038 C 1526.55 693.905 1554.87 673.593 1581.2 667.171 z"/>
<path transform="translate(0,0)" fill="rgb(247,199,92)" d="M 1853.52 657.144 C 1854.16 657.013 1854.82 657.246 1855.47 657.333 C 1856.08 661.635 1854.35 666.622 1853.4 670.838 C 1829.48 677.18 1805.01 681.889 1780.89 687.415 C 1755.4 693.255 1730.11 699.922 1704.6 705.748 L 1704.17 705.617 C 1702.07 702.672 1702.53 697.353 1702.25 693.699 C 1719.29 687.486 1737.45 683.932 1755.08 679.763 L 1853.52 657.144 z"/>
<path transform="translate(0,0)" fill="rgb(247,199,92)" d="M 1680.86 757.011 C 1683.74 756.769 1686.98 756.628 1689.75 757.544 C 1694.7 759.181 1699.32 762.471 1701.39 767.364 C 1704.27 774.163 1703.44 782.718 1700.41 789.32 C 1695.07 800.942 1685.28 807.866 1673.56 812.039 C 1669.04 812.446 1665.63 812.148 1661.46 810.123 C 1657.05 807.982 1653.98 805.021 1652.41 800.329 C 1649.95 792.994 1651.51 784.335 1654.89 777.555 C 1660.41 766.508 1669.56 760.738 1680.86 757.011 z"/>
<path transform="translate(0,0)" fill="rgb(254,254,254)" d="M 1676.03 772.105 C 1677.43 772.015 1678.84 771.897 1680.25 771.87 C 1683.42 771.809 1685.83 772.332 1687.99 774.935 C 1690 777.368 1690.16 780.269 1689.48 783.213 C 1687.98 789.761 1683.69 793.647 1678.27 797.136 C 1677.98 797.171 1677.68 797.217 1677.39 797.241 C 1673.6 797.541 1669.07 797.573 1666.19 794.655 C 1664.39 792.834 1663.95 790.288 1664.32 787.848 C 1665.46 780.484 1670.29 776.209 1676.03 772.105 z"/>
<path transform="translate(0,0)" fill="rgb(247,199,92)" d="M 1646.26 904.215 C 1649.42 904.133 1650.41 903.829 1653.19 905.486 C 1653.79 907.708 1653.97 908.85 1652.91 911.103 C 1651.47 914.147 1647.24 916.915 1644.25 918.15 C 1630.91 923.652 1608.3 927.339 1593.73 930.765 A 6072.34 6072.34 0 0 1 1470.82 958.337 L 1466.45 958.674 C 1464.41 957.137 1464.38 956.693 1463.51 954.258 C 1463.72 952.497 1463.88 951.023 1464.98 949.542 C 1467.32 946.416 1471.78 944.898 1475.34 943.774 C 1500.57 935.808 1528.09 931.415 1554 925.787 C 1584.85 919.085 1615.47 911.211 1646.26 904.215 z"/>
<path transform="translate(0,0)" fill="rgb(247,199,92)" d="M 1672.23 865.148 L 1674.08 864.974 C 1676.69 866.112 1676.62 866.349 1677.98 868.898 C 1678.04 871.043 1678.14 872.316 1677.15 874.298 C 1675.76 877.075 1670.4 878.634 1667.59 879.562 C 1647.8 886.09 1626.34 890.018 1606.04 894.675 C 1586.1 899.247 1566.29 904.336 1546.35 908.864 C 1522.44 914.292 1498.53 919.161 1474.87 925.642 L 1472.01 925.778 C 1469.44 924.458 1469.38 924.505 1468.23 921.874 C 1468.45 919.606 1468.59 918.284 1469.78 916.264 C 1471.57 913.223 1475.81 910.719 1479.05 909.593 C 1483.57 908.025 1489.01 907.797 1493.76 906.777 C 1504.73 904.425 1515.65 901.596 1526.57 898.994 C 1575.06 887.438 1623.85 877.119 1672.23 865.148 z"/>
<path transform="translate(0,0)" fill="rgb(247,199,92)" d="M 1576.79 701.237 C 1582.67 700.857 1588.23 701.344 1593.34 704.562 C 1598.66 707.912 1601.41 713.243 1602.54 719.289 C 1605.03 732.561 1601.52 746.157 1593.73 757.068 A 57.4105 57.4105 0 0 1 1556.2 780.634 C 1550.92 780.826 1545.74 780.857 1541.13 777.962 C 1535.55 774.465 1532.31 769.824 1530.91 763.401 C 1528.17 750.88 1531.34 739.039 1538.2 728.468 C 1547.52 714.124 1559.94 704.783 1576.79 701.237 z"/>
<path transform="translate(0,0)" fill="rgb(254,254,254)" d="M 1570.16 717.214 C 1573.55 717.196 1577.03 717.107 1580.31 718.094 C 1583.51 719.058 1585.74 721.042 1587.28 724.015 C 1589.97 729.209 1587.8 736.792 1585.74 741.792 C 1581.03 753.171 1573.01 761.14 1561.77 765.882 C 1558.09 766.118 1554.48 766.462 1551.01 764.947 C 1547.98 763.626 1545.62 761.319 1544.5 758.186 C 1542.14 751.576 1544.89 743.075 1547.88 737.112 C 1552.91 727.056 1559.61 720.842 1570.16 717.214 z"/>
<path transform="translate(0,0)" fill="rgb(247,199,92)" d="M 318.987 1577.13 C 300.254 1554.3 279.649 1533.17 261.448 1509.82 C 211.74 1446.04 172.801 1377.77 141.661 1303.25 C 129.421 1273.95 118.077 1244.63 109.658 1213.96 C 95.4543 1162.23 84.759 1108.25 80.415 1054.71 A 893.925 893.925 0 0 1 154.982 624.987 C 164.448 603.729 174.125 582.272 185.663 562.051 A 845.718 845.718 0 0 1 703.377 163.2 A 778.806 778.806 0 0 1 1094.82 160.995 C 1109.85 164.862 1144.96 173.499 1157.08 181.199 C 1159.26 182.585 1160.8 184.585 1161.04 187.236 C 1161.24 189.394 1159.97 191.342 1158.61 192.889 C 1152.99 199.3 1142.33 197.438 1135.5 194.623 C 1118.15 187.474 1098.61 182.742 1080.36 178.324 A 709.121 709.121 0 0 0 860.064 158.646 L 860.248 272.884 C 875.862 284.938 889.519 299.04 906.135 309.917 C 916.538 307.598 927.467 306.886 937.996 305.067 C 956.76 301.826 975.87 297.336 994.873 295.874 C 997.344 286.782 1000.42 277.146 1007.47 270.508 C 1014.54 263.86 1024.53 260.431 1034.18 260.813 C 1044.05 261.204 1054.03 266.285 1060.48 273.706 C 1067.22 281.45 1070.07 292.2 1069.04 302.324 C 1067.99 312.645 1062.35 322.243 1054.17 328.555 C 1046.46 334.515 1036.83 337.352 1027.14 335.864 C 1014.33 333.9 1005.5 325.141 998.28 315.075 C 977.303 317.978 956.41 321.899 935.531 325.44 C 923.734 327.441 911.916 329.991 899.941 330.532 C 884.59 320.465 854.217 293.709 839.949 280.76 C 838.824 240.635 839.04 200.07 839.104 159.904 A 432.701 432.701 0 0 0 754.345 172.29 C 753.17 232.734 755.916 293.501 753.435 353.885 C 771.459 366.482 787.854 382.574 804.968 396.463 C 830.068 416.834 856.984 435.928 880.265 458.398 C 883.008 461.046 885.64 463.455 885.247 467.606 C 884.782 472.516 879.226 476.221 875.785 479.232 L 872.132 478.38 C 850.369 475.332 828.036 471.696 806.036 474.086 C 763.03 478.757 728.083 505.68 694.371 530.406 L 641.605 569.379 C 637.15 572.724 632.671 576.52 627.992 579.514 A 864.656 864.656 0 0 1 601.132 599.724 C 597.436 602.82 593.765 605.953 590.031 609.005 C 564.177 629.854 525.621 655.837 521.623 691.701 C 518.724 717.704 524.303 745.755 529.674 771.227 C 545.376 845.706 569.197 921.641 544.934 997.238 C 542.954 1005.12 540.897 1012.93 539.852 1021.01 C 538.899 1037.11 540.679 1052.7 543.952 1068.46 L 510.907 1100.34 C 500.497 1111.53 489.355 1122.52 479.637 1134.3 C 454.681 1166.86 434.051 1199.95 414.147 1235.73 A 954.114 954.114 0 0 1 399.73 1262.23 C 391.464 1280.08 382.991 1297.96 375.985 1316.34 C 347.676 1390.59 332.741 1469.63 322.207 1548.16 C 321.197 1557.81 320.387 1567.53 318.987 1577.13 z"/>
<path transform="translate(0,0)" fill="rgb(254,254,254)" d="M 601.132 599.724 C 600.949 597.735 601.339 596.084 601.955 594.209 C 604.13 587.588 607.467 581.852 613.975 578.794 C 619.157 576.359 622.853 577.638 627.992 579.514 A 864.656 864.656 0 0 1 601.132 599.724 z"/>
<path transform="translate(0,0)" fill="rgb(254,254,254)" d="M 332.147 959.185 C 335.064 959.541 338.174 959.779 340.791 961.22 C 344.227 963.112 346.588 966.227 347.602 970.005 C 348.802 974.482 347.928 979.402 345.622 983.381 C 342.658 988.495 338.76 991.106 333.172 992.653 C 330.198 992.416 326.716 992.292 324.083 990.775 C 320.294 988.591 317.451 984.719 316.446 980.476 C 315.413 976.117 316.48 971.24 318.928 967.534 C 322.175 962.616 326.503 960.317 332.147 959.185 z"/>
<path transform="translate(0,0)" fill="rgb(254,254,254)" d="M 271.091 841.984 C 273.665 841.825 276.377 841.581 278.932 842.007 C 283.337 842.743 287.38 845.242 289.746 849.067 C 292.193 853.021 292.567 857.741 291.301 862.162 C 289.45 868.628 285.399 872.117 279.792 875.401 C 276.973 875.534 273.963 875.799 271.218 875.011 C 266.976 873.794 263.249 870.444 261.245 866.556 C 259.086 862.363 258.834 857.502 260.343 853.054 C 262.264 847.396 265.984 844.655 271.091 841.984 z"/>
<path transform="translate(0,0)" fill="rgb(254,254,254)" d="M 355.799 672.079 C 358.954 671.911 362.679 671.688 365.745 672.564 C 370.03 673.788 373.918 677.052 376.005 680.969 C 378.28 685.24 378.501 690.274 376.966 694.826 C 374.824 701.174 370.592 704.429 364.871 707.425 C 362.192 707.441 359.507 707.374 356.855 706.956 C 351.975 706.185 347.455 703.156 344.742 699.035 A 15.6089 15.6089 0 0 1 342.7 686.332 C 344.549 679.431 349.812 675.357 355.799 672.079 z"/>
<path transform="translate(0,0)" fill="rgb(254,254,254)" d="M 481.316 911.121 C 484.442 911.146 487.412 911.343 490.347 912.539 A 18.8464 18.8464 0 0 1 500.375 922.384 A 18.3774 18.3774 0 0 1 500.272 937.123 C 497.701 943.024 493.12 945.91 487.308 948.077 C 483.491 948.076 479.82 947.967 476.224 946.534 A 17.0882 17.0882 0 0 1 466.658 936.838 C 464.81 932.109 465.19 926.638 467.475 922.126 C 470.482 916.191 475.194 913.181 481.316 911.121 z"/>
<path transform="translate(0,0)" fill="rgb(254,254,254)" d="M 1026.14 281.168 C 1029.03 280.777 1031.88 280.475 1034.79 280.877 C 1039.72 281.559 1044.64 284.831 1047.48 288.869 A 17.9269 17.9269 0 0 1 1050.34 303.223 C 1048.89 309.692 1044.74 313.246 1039.38 316.671 C 1036.23 317.604 1033.35 318.366 1030.05 317.796 A 17.6023 17.6023 0 0 1 1018.65 310.57 C 1015.38 305.893 1014.38 300.102 1015.4 294.537 C 1016.64 287.773 1020.66 284.767 1026.14 281.168 z"/>
<path transform="translate(0,0)" fill="rgb(254,254,254)" d="M 294.004 1302.91 L 295.405 1303.18 C 298.094 1309.34 292.489 1413.18 291.677 1429.12 C 275.7 1434.83 259.7 1440.85 244.492 1448.41 C 236.109 1437.22 228.584 1425.47 220.947 1413.77 C 207.296 1392.33 194.002 1369.6 183.9 1346.22 C 200.559 1341.13 216.618 1334.07 232.808 1327.68 C 253.255 1319.61 273.947 1311.91 294.004 1302.91 z"/>
<path transform="translate(0,0)" fill="rgb(254,254,254)" d="M 319.152 1293.15 C 346.191 1283.41 372.415 1271.23 399.73 1262.23 C 391.464 1280.08 382.991 1297.96 375.985 1316.34 C 347.676 1390.59 332.741 1469.63 322.207 1548.16 C 303.091 1528.56 268.338 1489.19 256.839 1465.19 C 275.344 1457.83 295.912 1453.18 313.135 1443.11 C 316.275 1419.4 315.716 1394.15 316.367 1370.24 C 317.067 1344.53 318.65 1318.85 319.152 1293.15 z"/>
<path transform="translate(0,0)" fill="rgb(254,254,254)" d="M 148.786 1265.41 A 153.418 153.418 0 0 1 151.176 1264.23 C 177.062 1251.74 476.088 1133.54 477.984 1133.72 C 478.566 1133.77 479.086 1134.11 479.637 1134.3 C 454.681 1166.86 434.051 1199.95 414.147 1235.73 C 398.84 1236.53 337.496 1263.73 320.329 1270.58 L 177.635 1327.36 C 166.051 1307.57 157.24 1286.67 148.786 1265.41 z"/>
<path transform="translate(0,0)" fill="rgb(254,254,254)" d="M 123.959 1184.61 C 177.725 1164.8 230.859 1143.03 284.073 1121.78 L 402.991 1074.95 L 489.957 1040.22 C 506.451 1033.69 522.961 1026.44 539.852 1021.01 C 538.899 1037.11 540.679 1052.7 543.952 1068.46 L 510.907 1100.34 C 493.575 1102.56 458.289 1119.59 439.576 1126.67 A 15460.3 15460.3 0 0 0 267.042 1193.96 C 225.493 1210.67 184.354 1228.01 142.53 1244.09 C 133.54 1224.85 128.93 1205.12 123.959 1184.61 z"/>
<path transform="translate(0,0)" fill="rgb(254,254,254)" d="M 621.11 212.881 C 657.279 197.829 695.166 186.986 733.156 177.666 C 735.18 239.011 733.996 300.896 733.998 362.299 C 745.889 373.441 759.462 383.17 772.088 393.493 C 805.758 421.023 840.705 448.33 872.132 478.38 C 850.369 475.332 828.036 471.696 806.036 474.086 C 763.03 478.757 728.083 505.68 694.371 530.406 L 641.605 569.379 C 635.606 562.944 630.988 560.853 622.863 558.18 C 619.552 536.951 622.015 507.95 622.02 485.931 L 622.061 303.99 L 622.165 248.918 C 622.168 237.074 622.871 224.603 621.11 212.881 z"/>
<path transform="translate(0,0)" fill="rgb(254,254,254)" d="M 493.156 277.922 C 519.778 255.074 568.516 235.162 600.879 220.284 C 603.037 266.461 602.087 312.902 602.074 359.13 L 602.989 561.166 C 595.658 565.866 588.359 572.235 585.382 580.677 C 581.708 591.098 585.77 599.646 590.031 609.005 C 564.177 629.854 525.621 655.837 521.623 691.701 C 518.724 717.704 524.303 745.755 529.674 771.227 C 545.376 845.706 569.197 921.641 544.934 997.238 C 530.878 999.214 512.105 1008.55 498.682 1013.76 C 459.258 1029.04 420.285 1045.31 381.007 1060.92 L 215.57 1126.51 C 183.66 1138.99 151.034 1150.27 119.781 1164.33 C 111.239 1135.54 106.579 1106.86 103.765 1077.02 C 138.565 1065.4 172.322 1050.39 206.523 1037.14 C 238.015 1024.94 271.373 1014.32 301.56 999.339 C 306.915 1004.85 312.048 1008.49 319.55 1010.65 A 37.176 37.176 0 0 0 347.57 1007.55 C 357.234 1002.19 365.112 992.073 367.865 981.362 C 370.178 972.362 368.703 962.021 363.644 954.19 C 358.488 946.207 349.364 940.856 340.142 939.012 C 330.506 937.084 320.569 939.979 312.699 945.64 C 300.453 954.45 296.916 964.684 294.914 978.959 C 231.526 1007.15 165.81 1029.92 101.832 1056.72 C 98.455 1017.93 98.9493 978.356 100.31 939.491 C 148.847 921.477 196.165 899.588 244.392 880.706 C 249.934 886.9 255.385 891.607 263.588 894.055 C 273.282 896.949 284.276 895.364 292.983 890.307 A 36.9858 36.9858 0 0 0 310.195 867.653 C 312.689 858.023 311.797 846.694 306.248 838.243 C 300.653 829.724 290.368 824.583 280.482 823.068 C 271.091 821.628 261.161 824.68 253.787 830.556 C 243.597 838.677 240.593 848.789 239.453 861.185 C 218.565 870.056 197.262 877.97 176.209 886.443 C 151.387 896.433 126.948 906.896 101.789 916.068 C 105.7 885.937 108.07 856.127 113.636 826.152 A 815.387 815.387 0 0 1 303.085 431.639 C 318.166 414.558 335.011 398.651 351.023 382.427 C 353.024 472.794 351.514 563.396 351.921 653.793 C 343.625 656.179 337.001 659.396 331.371 666.172 C 324.776 674.109 322.034 685.386 323.366 695.548 A 33.6832 33.6832 0 0 0 337.515 719.033 A 40.2101 40.2101 0 0 0 367.911 725.517 C 377.4 723.738 386.051 718.582 391.391 710.439 C 397.01 701.871 398.813 687.361 396.024 677.408 C 392.759 665.752 381.761 657.362 371.986 651.415 C 371.294 605.994 372.011 560.592 372.005 515.17 L 371.222 366.026 C 400.782 336.673 437.606 311.267 473.071 289.399 A 7489.18 7489.18 0 0 1 473.334 526.035 A 17111.8 17111.8 0 0 1 473.048 705.426 L 473.751 820.368 C 473.815 844.724 472.181 870.474 475.154 894.623 C 472.357 895.167 469.488 895.737 466.839 896.813 C 459.08 899.966 452.307 908.032 449.15 915.633 A 38.0491 38.0491 0 0 0 449.458 945.521 C 453.467 954.558 461.048 961.346 470.227 964.892 A 39.0389 39.0389 0 0 0 500.92 964.018 A 35.7871 35.7871 0 0 0 519.721 943.036 C 522.98 933.184 522.068 920.595 517.337 911.346 C 512.327 901.553 504.489 897.663 494.566 894.4 C 493.021 859.384 494.2 824.054 493.8 788.988 A 24733.2 24733.2 0 0 1 493.304 440.119 C 493.379 386.09 494.823 331.926 493.156 277.922 z"/>
<path transform="translate(0,0)" fill="rgb(32,39,69)" d="M 641.605 569.379 L 694.371 530.406 C 728.083 505.68 763.03 478.757 806.036 474.086 C 828.036 471.696 850.369 475.332 872.132 478.38 L 875.785 479.232 A 1100.54 1100.54 0 0 1 1022.61 510.086 C 1033.43 513.181 1045.88 515.785 1055.79 521.229 C 1059.26 523.137 1061.95 525.427 1064.24 528.665 C 1071.49 538.904 1072.04 552.552 1073.07 564.619 C 1119.73 597.766 1136.35 644.218 1170.9 686.391 C 1179.19 696.517 1188.86 706.602 1200.96 712.096 C 1204.72 713.799 1218.94 714.794 1219.57 717.979 C 1220.18 721.019 1218.81 724.081 1216.99 726.452 C 1199.93 748.676 1155.43 764.992 1128.25 767.718 C 1110.05 769.545 1091.12 767.744 1073.18 764.437 C 1072.93 772.141 1072.47 779.749 1071.72 787.42 C 1087.27 781.328 1104.94 776.525 1121.25 783.347 C 1126.03 785.347 1131.14 789.061 1132.95 794.119 C 1140.84 816.145 1128.5 882.869 1118.05 903.29 C 1114.32 910.576 1110.19 916.301 1102.1 918.903 C 1095.34 921.077 1084.6 918.325 1080.82 925.195 C 1076.15 933.683 1073.49 935.776 1064.08 938.866 A 151.757 151.757 0 0 1 1059.43 940.323 C 1055.74 962.318 1049.7 984.334 1044.66 1006.08 C 1040.97 1022.02 1038.36 1039.91 1032.42 1055.1 C 1030.7 1059.49 1028.87 1062.45 1024.98 1065.23 C 1014.69 1072.58 999.921 1073.59 987.752 1075.29 C 980.899 1104.31 966.09 1127.29 947.172 1149.87 C 956.658 1159 965.288 1168.02 972.41 1179.19 C 1007.32 1233.94 1027.03 1336.21 1033.99 1400.69 C 1037.86 1436.45 1038.69 1472.84 1044.34 1508.36 C 1045.42 1516.52 1046.41 1524.7 1047.58 1532.85 C 1051.86 1565.75 1058.58 1603.33 1070.61 1634.31 C 1110.58 1664.05 1148.05 1674.34 1195.06 1686.75 A 482.142 482.142 0 0 1 1240.63 1673.46 A 15057.2 15057.2 0 0 1 1311.19 1428.76 C 1316.39 1411.61 1320.41 1394.02 1325.93 1376.98 C 1327.51 1372.12 1329.41 1364.58 1332.91 1360.87 C 1353.75 1354.23 1375.7 1351.04 1397.14 1346.86 A 3393.05 3393.05 0 0 1 1506.12 1326.34 L 1729.45 1284.09 A 8135.69 8135.69 0 0 0 1822.42 1266.71 C 1839.12 1263.45 1858.09 1257.84 1874.99 1257.29 C 1884.21 1256.99 1906.84 1267.2 1915.75 1271.72 C 1918.08 1272.89 1920.17 1273.92 1921.87 1275.94 C 1922.5 1288.92 1914.22 1306.9 1910.83 1319.59 L 1870.08 1469.18 L 1810.63 1687.35 C 1807.05 1700.38 1776.24 1815.02 1774.68 1816.64 C 1771.24 1820.2 1591.53 1853.7 1568.72 1858.1 L 1294.94 1912.28 A 5735.11 5735.11 0 0 0 1235.64 1924.33 C 1221.28 1927.28 1206.16 1931.13 1191.48 1931.58 C 1175.51 1932.06 1158.35 1928.46 1142.49 1926.43 L 1050.64 1914.48 L 934.677 1899.72 C 910.937 1896.81 885.612 1894.88 862.233 1889.91 C 857.473 1888.9 850.733 1886.94 847.743 1882.73 C 843.544 1876.83 844.464 1864.74 844.203 1857.83 L 508.044 1917.29 C 464.2 1925.48 420.135 1933.05 376.395 1941.67 A 4055.49 4055.49 0 0 1 293.168 1957.68 C 283.591 1959.43 274.014 1961.77 264.388 1963.18 C 259.216 1963.94 253.37 1964.43 248.769 1961.58 C 247.719 1959.5 247.203 1957.12 247.738 1954.79 C 248.326 1952.23 249.872 1950.56 252.152 1949.38 C 258.611 1946.04 325.437 1935.48 337.854 1933 A 943.51 943.51 0 0 1 312.594 1669.66 A 1129.27 1129.27 0 0 1 316.396 1610.11 C 317.302 1599.3 319.035 1587.94 318.987 1577.13 C 320.387 1567.53 321.197 1557.81 322.207 1548.16 C 332.741 1469.63 347.676 1390.59 375.985 1316.34 C 382.991 1297.96 391.464 1280.08 399.73 1262.23 A 954.114 954.114 0 0 0 414.147 1235.73 C 434.051 1199.95 454.681 1166.86 479.637 1134.3 C 489.355 1122.52 500.497 1111.53 510.907 1100.34 L 543.952 1068.46 C 540.679 1052.7 538.899 1037.11 539.852 1021.01 C 540.897 1012.93 542.954 1005.12 544.934 997.238 C 569.197 921.641 545.376 845.706 529.674 771.227 C 524.303 745.755 518.724 717.704 521.623 691.701 C 525.621 655.837 564.177 629.854 590.031 609.005 C 593.765 605.953 597.436 602.82 601.132 599.724 A 864.656 864.656 0 0 0 627.992 579.514 C 632.671 576.52 637.15 572.724 641.605 569.379 z"/>
<path transform="translate(0,0)" fill="rgb(254,254,254)" d="M 838.699 1316.38 C 840.886 1316.25 843.077 1316.2 845.267 1316.14 C 847.765 1317.63 848.145 1317.71 849.325 1320.32 C 847.418 1322.26 847.059 1321.86 844.482 1322.23 L 838.766 1323.24 C 836.282 1322.38 835.926 1322.07 834.19 1320.08 L 834.403 1318.92 C 835.796 1317.61 836.973 1317.15 838.699 1316.38 z"/>
<path transform="translate(0,0)" fill="rgb(252,242,201)" d="M 817.963 1313.46 C 820.01 1311.96 819.853 1309.28 820.34 1306.84 C 821.579 1319.04 821.961 1331.67 822.071 1343.94 L 820.497 1342.83 C 819.029 1344.85 818.633 1347.09 818.046 1349.47 C 818.189 1338.17 815.223 1324.19 817.963 1313.46 z"/>
<path transform="translate(0,0)" fill="rgb(254,254,254)" d="M 1052.57 806.787 C 1055.27 810.838 1052.57 834.839 1052.45 841.378 L 1051.31 840.584 C 1049.83 832.831 1045.06 820.74 1046.71 813.194 C 1047.39 810.135 1050.2 808.521 1052.57 806.787 z"/>
<path transform="translate(0,0)" fill="rgb(254,254,254)" d="M 848.934 1398.44 L 851.495 1398.22 C 853.648 1399.18 853.645 1399.47 854.816 1401.55 C 854.908 1403.69 854.543 1405.38 853.055 1407.04 C 850.733 1409.64 847.119 1409.21 843.907 1409.54 L 842.273 1409.95 C 840.002 1409.27 840.058 1408.99 838.714 1406.99 C 838.417 1404.74 838.486 1402.82 839.94 1400.91 C 841.999 1398.2 845.856 1398.72 848.934 1398.44 z"/>
<path transform="translate(0,0)" fill="rgb(254,254,254)" d="M 885.2 1654.35 L 887.105 1654.56 C 887.738 1655.4 888.061 1655.73 888.471 1656.8 C 889.432 1659.32 889.024 1661.26 887.994 1663.59 C 884.404 1665.77 878.97 1664.92 874.862 1664.84 C 872.926 1664.59 872.835 1664.03 871.472 1662.73 C 871.202 1660.14 871.229 1659.95 872.477 1657.67 C 876.116 1654.84 880.759 1654.88 885.2 1654.35 z"/>
<path transform="translate(0,0)" fill="rgb(254,254,254)" d="M 857.809 1466.6 L 858.708 1467.23 C 859.533 1469.96 860.605 1472.33 859.604 1475.16 C 855.964 1478.18 849.85 1477.42 845.247 1477.58 L 844.093 1477.13 C 843.582 1476.35 843.356 1476.12 843.125 1475.08 C 842.499 1472.27 843.157 1470.37 844.648 1468.12 C 848.27 1466.1 853.712 1466.68 857.809 1466.6 z"/>
<path transform="translate(0,0)" fill="rgb(254,254,254)" d="M 839.226 1353.53 C 843.48 1353.05 847.932 1351.87 851.675 1354.2 C 852.425 1357.03 852.529 1359.53 852.565 1362.42 L 850.958 1363.87 C 846.46 1364.33 841.505 1365.76 837.685 1363.14 C 836.975 1361.6 836.607 1360.55 836.77 1358.83 C 837.049 1355.89 836.939 1355.34 839.226 1353.53 z"/>
<path transform="translate(0,0)" fill="rgb(254,254,254)" d="M 848.866 1330.34 C 850.088 1331.75 851.163 1333.44 851.658 1335.26 C 852.34 1337.76 851.528 1338.74 850.418 1340.89 C 846.564 1343.86 842.71 1343.78 838.045 1344.17 C 836.508 1343.32 835 1340.87 834.677 1339.07 C 834.368 1337.34 835.113 1335.21 836.235 1333.9 C 839.566 1330.01 844.221 1330.48 848.866 1330.34 z"/>
<path transform="translate(0,0)" fill="rgb(254,254,254)" d="M 847.193 1444.53 C 849.74 1444.28 851.999 1444.2 854.57 1444.38 C 856.441 1445.72 858 1447.04 858.507 1449.43 C 859.048 1451.97 858.198 1454.14 857.147 1456.38 L 854.252 1457.12 C 852.148 1457.29 849.902 1457.59 847.796 1457.5 C 845.502 1457.39 843.662 1456.03 842.4 1454.13 C 840.901 1451.88 841.234 1450.55 841.575 1448.07 C 843.734 1445.19 843.671 1445.29 847.193 1444.53 z"/>
<path transform="translate(0,0)" fill="rgb(254,254,254)" d="M 850.7 1419.38 L 853.445 1419.33 C 855.137 1421.03 856.19 1423.13 856.698 1425.51 C 857.338 1428.5 856.445 1430.03 855.048 1432.52 C 851.865 1434.71 849.559 1434.23 845.751 1434.37 L 843.454 1434.5 C 841.414 1433.29 840.662 1431.91 840.221 1429.58 C 839.784 1427.26 840.424 1423.88 842.038 1422.02 C 844.319 1419.38 847.471 1419.77 850.7 1419.38 z"/>
<path transform="translate(0,0)" fill="rgb(254,254,254)" d="M 844.807 1374.47 C 847.41 1374.2 849.097 1373.83 851.555 1374.94 C 852.54 1376.41 853.604 1377.87 853.932 1379.66 C 854.379 1382.1 853.384 1385.04 852.059 1387.07 C 851.077 1388.58 848.532 1388.49 846.818 1388.81 L 841.297 1388.96 C 839.146 1387.8 837.752 1386.4 837.02 1383.91 C 836.309 1381.49 836.882 1378.86 838.223 1376.75 C 839.769 1374.32 842.248 1374.75 844.807 1374.47 z"/>
<path transform="translate(0,0)" fill="rgb(254,254,254)" d="M 878.692 1633.43 C 879.733 1633.11 880.831 1633.24 881.913 1633.24 C 884.167 1635.96 884.454 1640.65 885.113 1644.05 L 872.25 1647.33 L 868.628 1646.79 C 865.871 1643.79 865.373 1639.26 864.456 1635.4 L 878.692 1633.43 z"/>
<path transform="translate(0,0)" fill="rgb(254,254,254)" d="M 880.128 1674.45 C 883.953 1674.12 887.842 1674.07 891.68 1673.89 C 892.936 1677.65 895.781 1683.63 894.598 1687.52 L 892.25 1688.09 C 889.823 1688.17 886.968 1688.47 884.577 1688.11 C 881.68 1687.67 877.626 1684.25 876.394 1681.61 C 875.205 1679.07 875.652 1678 876.631 1675.66 L 880.128 1674.45 z"/>
<path transform="translate(0,0)" fill="rgb(254,254,254)" d="M 844.67 1487.78 C 849.658 1487.78 856.935 1486.79 861.09 1489.62 C 863.316 1492.96 863.126 1496.64 863.329 1500.51 C 857.509 1501.02 851.569 1501.04 845.725 1501.24 C 845.237 1496.78 845.005 1492.26 844.67 1487.78 z"/>
<path transform="translate(0,0)" fill="rgb(254,254,254)" d="M 849.557 1511.52 L 864.704 1511.07 C 865.187 1515.07 866.359 1519.95 865.263 1523.86 L 863.006 1524.7 L 847.114 1525.06 C 846.666 1521.77 845.242 1516.13 846.581 1512.99 C 847.132 1511.7 848.328 1511.85 849.557 1511.52 z"/>
<path transform="translate(0,0)" fill="rgb(254,254,254)" d="M 876.45 1608.52 L 877.15 1608.43 C 879.94 1610.91 880.597 1618.39 881.493 1622.19 L 864.237 1624.41 L 862.748 1624.5 C 860.719 1620.26 860.453 1614.41 859.709 1609.76 C 865.265 1609.2 870.877 1608.92 876.45 1608.52 z"/>
<path transform="translate(0,0)" fill="rgb(254,254,254)" d="M 861.428 1534.44 C 863.613 1534.14 864.806 1534.05 866.875 1534.86 C 869.28 1538.45 868.899 1543.84 869.144 1548.06 L 854.903 1549.22 C 853.336 1549.47 852.354 1549.43 850.802 1549.27 C 849.339 1547.37 848.985 1546.26 848.816 1543.88 C 848.611 1541 848.345 1538.12 848.109 1535.25 L 861.428 1534.44 z"/>
<path transform="translate(0,0)" fill="rgb(254,254,254)" d="M 859.484 1558.42 L 870.593 1557.8 C 871.021 1562.1 872.25 1566.02 871.561 1570.36 C 869.533 1572.62 868.175 1572.3 865.238 1572.75 L 853.647 1573.88 C 852.655 1569.91 850.647 1564.78 851.739 1560.77 C 854.476 1558.38 855.931 1558.74 859.484 1558.42 z"/>
<path transform="translate(0,0)" fill="rgb(254,254,254)" d="M 869.581 1583.46 L 872.889 1583.57 C 875.857 1586.4 875.923 1593.24 876.455 1597.15 C 871.806 1598.03 867.078 1598.63 862.398 1599.33 C 860.151 1599.39 859.742 1599.44 857.681 1598.33 C 855.059 1594.27 855.136 1589.52 854.691 1584.83 C 859.629 1584.25 864.628 1583.91 869.581 1583.46 z"/>
<path transform="translate(0,0)" fill="rgb(254,254,254)" d="M 881.73 1824.45 C 887.563 1824.13 903.359 1822.5 907.824 1826.3 C 906.187 1828.35 904.574 1829.15 902.025 1829.74 C 887.441 1833.08 867.978 1833.55 852.764 1835.29 A 379.805 379.805 0 0 0 832.86 1838.37 C 830.461 1834.9 828.407 1831.13 826.25 1827.5 C 844.752 1826.56 863.215 1825.24 881.73 1824.45 z"/>
<path transform="translate(0,0)" fill="rgb(254,254,254)" d="M 848.727 1723.74 C 876.796 1725.1 907.543 1723.28 934.997 1729.58 L 927.571 1740.21 C 898.637 1738.92 870.069 1737.33 841.072 1737.11 C 843.14 1732.34 845.931 1728.1 848.727 1723.74 z"/>
<path transform="translate(0,0)" fill="rgb(254,254,254)" d="M 867.414 1800.47 C 879.954 1800.05 892.545 1800.16 905.092 1800.08 L 905.304 1812.97 A 753.281 753.281 0 0 0 857.247 1814.58 C 849.892 1814.81 843.079 1815.66 835.824 1816.52 C 831.843 1817 826.902 1817.53 823.715 1814.57 C 820.619 1811.69 821.883 1805.02 822.117 1801.22 A 1683.11 1683.11 0 0 0 867.414 1800.47 z"/>
<path transform="translate(0,0)" fill="rgb(254,254,254)" d="M 842.749 1748.5 C 868.236 1747.58 895.731 1747.16 921.071 1750.18 C 918.741 1754.37 917.554 1758.73 914.485 1762.52 C 910.899 1764.22 909.132 1763.59 905.243 1763.19 C 879.43 1762.25 853.691 1762.57 827.877 1763.1 C 829.187 1759.11 830.373 1753.38 833.438 1750.39 C 835.866 1748.02 839.602 1748.5 842.749 1748.5 z"/>
<path transform="translate(0,0)" fill="rgb(254,254,254)" d="M 869.374 1702.07 C 898.49 1700.71 942.524 1702.77 971.37 1707.79 C 966.738 1710.98 962.406 1714.7 958.013 1718.21 C 956.763 1718.94 955.425 1719.21 953.984 1719.25 C 941.531 1719.59 927.725 1717.06 915.248 1716.04 C 896.195 1714.48 877.169 1713.83 858.062 1713.38 C 861.535 1709.37 865.568 1705.76 869.374 1702.07 z"/>
<path transform="translate(0,0)" fill="rgb(254,254,254)" d="M 824.231 1774.43 C 848.151 1773.29 887.11 1771.47 910.087 1775.33 L 907.343 1788.65 C 879.103 1788.89 851.026 1790.28 822.815 1790.99 C 822.929 1785.35 823.365 1780 824.231 1774.43 z"/>
<path transform="translate(0,0)" fill="rgb(254,254,254)" d="M 956.717 1074.62 A 831.06 831.06 0 0 1 970.818 1075.59 C 951.368 1132.62 931.196 1141.44 899.38 1186.41 C 885.662 1205.8 875.694 1226.94 866.5 1248.72 C 864.842 1253.11 862.787 1257.1 860.552 1261.21 C 867.1 1228.54 878.615 1198.14 897.797 1170.71 C 920.319 1138.49 947.52 1114.61 956.717 1074.62 z"/>
<path transform="translate(0,0)" fill="rgb(138,138,156)" d="M 736.544 908.784 C 745.397 920.874 755.652 926.815 769.43 932.046 C 757.003 953.786 742.844 973.753 725.298 991.692 C 719.05 997.46 712.667 1002.82 705.927 1008.01 C 711.226 974.061 723.702 940.491 736.544 908.784 z"/>
<path transform="translate(0,0)" fill="rgb(254,254,254)" d="M 1233.75 1692.28 C 1233.79 1692.32 1233.85 1692.34 1233.88 1692.4 C 1235.93 1696.64 1213.78 1768.48 1210.97 1779.23 C 1204.89 1770.14 1198.52 1761.42 1191.83 1752.77 C 1183.33 1741.34 1174.07 1730.51 1164.95 1719.58 C 1187.6 1707 1208.69 1698.55 1233.75 1692.28 z"/>
<path transform="translate(0,0)" fill="rgb(254,254,254)" d="M 1092.52 795.261 C 1098.54 794.512 1105.26 794 1110.99 796.366 C 1114.41 797.777 1117.39 800.313 1118.66 803.86 C 1125.7 823.418 1115.76 871.819 1106.76 890.579 C 1104.02 896.312 1100.94 902.53 1094.62 904.724 C 1081.13 899.148 1072.23 879.154 1064.69 867.061 C 1066.94 847.927 1065.71 828.842 1067.65 809.809 C 1074.74 802.203 1082.98 798.726 1092.52 795.261 z"/>
<path transform="translate(0,0)" fill="rgb(138,138,156)" d="M 869.888 689.18 C 873.557 691.093 877.627 692.428 881.484 693.935 C 879.511 712.372 873.969 731.565 866.337 748.417 C 851.328 781.557 826.92 807.215 797.714 828.35 C 790.199 833.788 782.254 839.713 773.54 843.032 L 762.423 845.268 C 787.257 787.901 828.225 735.205 869.888 689.18 z"/>
<path transform="translate(0,0)" fill="rgb(158,204,184)" d="M 860.96 1855.92 C 897.638 1857.55 934.73 1863.41 971.219 1867.55 A 13125.3 13125.3 0 0 1 1177.51 1892.37 A 1265.22 1265.22 0 0 1 1172.73 1910.47 L 1170.72 1912.64 C 1163.43 1914.75 897.981 1877.09 859.876 1874.43 C 860.102 1868.26 860.585 1862.08 860.96 1855.92 z"/>
<path transform="translate(0,0)" fill="rgb(158,204,184)" d="M 747.616 1130.72 C 785.415 1150.69 815.475 1172.26 860.551 1164.13 C 861.781 1171.1 863.429 1178.06 864.871 1184.99 C 853.736 1214.91 850.583 1248.05 847.139 1279.6 C 846.919 1284.76 847.742 1294.88 844.032 1298.79 C 842.902 1299.98 841.957 1299.62 840.435 1299.7 C 835.254 1292.94 819.908 1247.06 813.254 1233.91 C 795.196 1198.24 770.451 1163.51 747.616 1130.72 z"/>
<path transform="translate(0,0)" fill="rgb(158,204,184)" d="M 1042.52 1828.41 C 1086.46 1822.39 1121.06 1860.64 1154.03 1854.86 C 1163.13 1853.27 1168.17 1848.43 1173.18 1841.01 L 1191.24 1844.56 C 1188.18 1856.84 1184.55 1869.02 1181.15 1881.22 A 4543.48 4543.48 0 0 1 1061.23 1866.22 A 3842.48 3842.48 0 0 0 949.71 1854.79 C 930.922 1853.28 898.814 1853.8 882.246 1849.38 C 935.359 1841.17 988.883 1832.42 1042.52 1828.41 z"/>
<path transform="translate(0,0)" fill="rgb(254,254,254)" d="M 935.7 1165.79 C 941.841 1204.9 944.303 1244.17 945.973 1283.67 C 946.988 1307.67 948.133 1332.25 946.968 1356.23 C 943.784 1351.5 941.791 1345.45 939.002 1340.38 C 931.162 1326.1 917.587 1317.14 902.839 1311.04 C 889.549 1305.54 876.436 1302.19 862.684 1307.98 C 862.221 1278.57 893.587 1223.35 910.46 1198.41 C 918.177 1187 926.804 1176.29 935.7 1165.79 z"/>
<path transform="translate(0,0)" fill="rgb(254,254,254)" d="M 953.769 799.405 C 969.419 798.922 989.819 799.528 1004.06 806.831 C 1009.07 809.402 1012.79 812.896 1014.44 818.393 C 1019.7 835.954 1009.9 869.079 1001.54 884.945 C 994.155 898.935 984.134 909.454 968.746 914.239 C 963.867 914.726 959.287 915.012 954.418 914.162 C 940.804 911.784 929.239 903.748 921.435 892.459 C 906.151 870.35 903.69 837.49 908.562 811.775 C 922.198 803.755 938.195 800.529 953.769 799.405 z"/>
<path transform="translate(0,0)" fill="rgb(32,39,69)" d="M 970.309 820.322 C 971.01 820.385 971.749 820.431 972.433 820.597 C 975.185 821.263 975.398 821.681 976.965 823.912 C 977.101 827.382 976.051 829.483 974.562 832.57 C 972.799 832.597 972.657 832.267 971.199 831.401 C 969.474 827.819 970.072 824.169 970.309 820.322 z"/>
<path transform="translate(0,0)" fill="rgb(32,39,69)" d="M 970.651 834.953 C 974.138 834.868 977.04 834.624 980.083 836.667 C 983.317 838.837 985.131 842.489 985.549 846.284 C 986.325 853.341 983.611 859.114 979.161 864.32 C 978.796 864.334 978.432 864.363 978.067 864.362 C 973.979 864.343 970.509 863.497 967.575 860.487 C 964.637 857.473 963.338 853.472 963.471 849.307 C 963.666 843.194 966.156 838.903 970.651 834.953 z"/>
<path transform="translate(0,0)" fill="rgb(247,199,92)" d="M 862.684 1307.98 C 876.436 1302.19 889.549 1305.54 902.839 1311.04 C 917.587 1317.14 931.162 1326.1 939.002 1340.38 C 941.791 1345.45 943.784 1351.5 946.968 1356.23 C 947.607 1374.6 946.991 1393.11 946.849 1411.49 C 946.752 1423.96 947.416 1436.89 946.295 1449.28 C 946.284 1434.73 946.458 1420.16 946.118 1405.61 C 934.713 1428.36 921.704 1451.1 896.044 1459.71 C 888.518 1462.24 880.558 1463.08 872.663 1463.41 C 869.842 1436.52 867.861 1409.71 866.205 1382.74 L 865.569 1369.72 C 863.088 1359.47 863.637 1321.43 862.684 1307.98 z"/>
<path transform="translate(0,0)" fill="rgb(254,254,254)" d="M 865.569 1369.72 L 866.692 1368.01 C 874.195 1367.24 886.601 1372.23 892.524 1366.23 C 900.587 1358.06 891.802 1332.13 902.172 1330 C 904.746 1330.61 906.416 1331.23 907.881 1333.6 C 909.704 1336.54 909.858 1340.52 909.789 1343.88 C 909.425 1361.62 905.769 1380.12 903.969 1397.81 C 903.079 1406.54 903.907 1416.65 901.048 1424.97 C 900.242 1427.31 899.322 1428.56 897.285 1430.05 C 894.907 1430.23 893.168 1430.11 891.194 1428.54 C 888.693 1426.55 888.216 1424.01 888.168 1420.95 C 887.975 1408.41 891.039 1395.65 892.36 1383.2 C 883.692 1383.08 874.843 1383.34 866.205 1382.74 L 865.569 1369.72 z"/>
<path transform="translate(0,0)" fill="rgb(158,204,184)" d="M 1877.44 1270.34 C 1885.66 1269.29 1892.81 1273 1900.27 1275.98 C 1854.39 1286.88 1807.09 1294.01 1760.72 1302.82 L 1482.47 1355.66 L 1412.09 1369.04 C 1391.9 1372.71 1371.51 1375.78 1351.64 1380.96 C 1341.15 1409.06 1334.55 1438.83 1326.4 1467.66 L 1284.1 1613.82 A 18137.4 18137.4 0 0 0 1227.68 1808.1 C 1217.69 1841.96 1206.36 1875.54 1197.73 1909.77 C 1196.68 1913.94 1196.42 1916.57 1192.43 1918.9 C 1190.52 1920.01 1190.54 1920.17 1188.3 1919.66 C 1188.14 1919.39 1187.95 1919.14 1187.83 1918.85 C 1186.19 1914.88 1188.23 1908.3 1189.29 1904.23 C 1205.85 1841.14 1226.47 1779.01 1244.11 1716.2 A 10682 10682 0 0 1 1312.98 1475.28 C 1322.87 1441.08 1331.66 1406.52 1342.3 1372.54 C 1362.44 1367.53 1383.4 1364.95 1403.8 1361.12 L 1546.24 1334.46 A 15881.8 15881.8 0 0 1 1793.52 1286.45 C 1821.49 1281.23 1849.35 1274.79 1877.44 1270.34 z"/>
<path transform="translate(0,0)" fill="rgb(254,254,254)" d="M 894.529 697.912 A 313.497 313.497 0 0 1 1011.02 733.167 C 1028.36 742.333 1044.99 752.776 1062.37 761.89 C 1061.22 771.755 1059.7 781.315 1056.77 790.827 C 1047.43 795.331 1038.25 800.228 1029.02 804.951 C 1017.22 794.809 1005.47 790.314 990.391 787.2 C 965.093 782.567 934.223 784.694 910.368 794.705 C 902.045 798.198 895.42 802.051 891.915 810.616 C 873.341 810.261 855.042 813.871 836.472 814.211 C 844.491 807.742 851.424 799.113 857.577 790.905 C 881.31 759.247 885.521 734.838 894.529 697.912 z"/>
<path transform="translate(0,0)" fill="rgb(32,39,69)" d="M 952.454 756.404 A 69.7312 69.7312 0 0 1 971.413 758.038 C 987 761.682 998.449 769.747 1006.99 783.257 C 985.028 775.383 982.637 765.857 955.427 764.356 C 936.411 765.234 920.642 772.571 906.691 785.39 L 905.544 786.464 L 904.567 785.219 C 905.161 781.047 906.311 778.75 909.133 775.584 C 921.381 761.846 934.852 757.738 952.454 756.404 z"/>
<path transform="translate(0,0)" fill="rgb(254,254,254)" d="M 946.118 1405.61 C 946.458 1420.16 946.284 1434.73 946.295 1449.28 C 945.33 1474.17 944.13 1499.16 945.218 1524.06 C 947.191 1569.22 955.271 1612.98 963.987 1657.19 C 966.418 1669.52 968.161 1682.07 970.872 1694.32 C 950.839 1691.05 930.266 1688.96 909.954 1688.94 A 931.047 931.047 0 0 1 885.945 1571.55 C 882.733 1548.27 879.699 1524.8 876.981 1501.46 C 875.508 1488.81 874.653 1475.98 872.663 1463.41 C 880.558 1463.08 888.518 1462.24 896.044 1459.71 C 921.704 1451.1 934.713 1428.36 946.118 1405.61 z"/>
<path transform="translate(0,0)" fill="rgb(254,254,254)" d="M 1100.56 1711.4 C 1107.37 1710.12 1116.8 1709.92 1123.56 1711.29 C 1152.94 1717.28 1188.82 1772 1205.52 1796.99 C 1204.26 1799.5 1203.23 1801.19 1201.26 1803.25 C 1195.74 1797.1 1191.31 1790.07 1186.08 1783.68 C 1166.99 1760.38 1143.84 1740.01 1113.76 1733.29 C 1096.79 1729.5 1080.82 1729.77 1065.83 1739.18 C 1079.7 1740.77 1093.01 1739.99 1106.9 1743.1 C 1149.87 1752.71 1174.92 1785.98 1197.33 1821.4 L 1193.45 1834.1 C 1147.55 1816.62 1141.74 1777.94 1091.24 1771.35 C 1080.07 1770.09 1068.69 1768.74 1057.44 1769.02 C 1053.47 1769.12 1049.96 1769.24 1047.13 1772.2 L 1047.43 1773.78 C 1047.95 1774.21 1076.79 1782.22 1082.46 1784.69 C 1095.95 1790.54 1156.18 1823.51 1159.19 1835.81 C 1159.85 1838.5 1158.95 1839.41 1157.54 1841.49 C 1153.7 1843.62 1150.64 1843.6 1146.32 1842.97 C 1122.62 1839.55 1102.09 1823.41 1079.22 1816.74 C 1069.86 1814.02 1059.76 1813.34 1050.05 1813.49 C 1032.72 1813.76 1015.43 1816.84 998.211 1818.71 C 973.304 1821.43 948.205 1823.34 923.428 1827.06 C 922.157 1819.97 921.14 1812.61 921.223 1805.39 C 921.499 1781.36 933.643 1752.63 950.71 1735.75 C 1000.21 1724.18 1050.1 1717.03 1100.56 1711.4 z"/>
<path transform="translate(0,0)" fill="rgb(254,254,254)" d="M 391.612 1330.7 C 393.132 1339.79 386.036 1367.21 384.375 1378.57 A 2081.14 2081.14 0 0 0 375.614 1447.41 C 367.887 1520.49 365.898 1616.05 377.763 1689.01 C 388.334 1754.02 404.313 1826.83 452.272 1875.24 C 463.321 1886.39 476.167 1895.03 488.847 1904.15 C 471.744 1906.77 454.689 1910.79 437.734 1914.28 C 410.53 1919.03 383.537 1925.58 356.209 1929.45 C 348.098 1904.99 344.343 1878.96 340.675 1853.54 A 913.639 913.639 0 0 1 330.995 1756.22 C 326.46 1633.64 341.409 1490.99 377.481 1373.65 C 381.886 1359.32 385.918 1344.58 391.612 1330.7 z"/>
<path transform="translate(0,0)" fill="rgb(254,254,254)" d="M 949.203 1173.84 C 957.387 1182.21 963.05 1196.85 968.13 1207.55 C 978.65 1229.7 985.683 1253.32 992.173 1276.91 C 999.469 1303.43 1006.32 1330.45 1010.36 1357.69 C 1023.44 1445.9 1022.99 1547.74 1052.35 1631.6 A 68.1661 68.1661 0 0 0 1035.83 1628.77 C 1014.47 1627.73 998.973 1637.59 983.789 1651.43 C 1007.19 1644.04 1033.15 1635.77 1056.53 1647.04 C 1038.76 1654.58 1015.96 1662.42 1006.7 1680.86 L 1007.5 1681.51 C 1029.75 1670 1046.07 1663.91 1070.57 1658.45 L 1083.59 1665.39 A 366.821 366.821 0 0 0 1135.24 1688.9 C 1146.16 1692.76 1157.51 1695.37 1168.3 1699.6 L 1169.56 1700.1 C 1163.99 1703.67 1158.28 1706.51 1152.3 1709.32 A 167.735 167.735 0 0 0 1145.78 1704.7 C 1138.66 1699.92 1130.65 1697.12 1122.15 1696.07 C 1098.53 1693.15 1025.16 1705.31 997.835 1710.76 C 995.314 1706.72 992.919 1702.78 989.776 1699.18 C 986.034 1672.82 979.674 1647.39 974.867 1621.28 A 787.423 787.423 0 0 1 963.45 1521.33 C 961.471 1476.88 965.043 1431.94 965.845 1387.46 C 967.118 1316.92 963 1243.07 949.203 1173.84 z"/>
<path transform="translate(0,0)" fill="rgb(138,138,156)" d="M 1042.7 572.412 C 1048.15 572.019 1054.1 571.503 1059.4 573.14 C 1069.32 576.208 1077.15 583.411 1084.51 590.425 C 1106.02 610.942 1121.13 634.292 1136.8 659.264 C 1145.17 672.611 1153.67 686.643 1163.91 698.644 C 1172.89 709.158 1183.44 716.715 1195.07 724.038 C 1180.42 737.403 1163.78 745.726 1144.63 750.779 C 1107.06 760.693 1077.53 756.586 1044.45 737.254 C 985.798 699.982 943.699 687.051 873.568 685.095 C 908.133 647.3 963.263 597.025 1011.56 579.005 C 1021.82 575.176 1031.82 573.33 1042.7 572.412 z"/>
<path transform="translate(0,0)" fill="rgb(254,254,254)" d="M 1029.93 820.257 C 1030.9 820.662 1032.01 820.823 1032.83 821.473 C 1034.39 822.709 1037.51 847.653 1039.96 852.719 C 1050.57 874.593 1065.74 893.987 1076 916.141 C 1052.42 945.242 1023.02 921.567 1013.7 926.384 C 1013.71 928.882 1014.4 929.743 1016.01 931.539 C 1024.45 940.919 1037.01 940.98 1048.8 941.733 C 1039.04 965.242 1030.83 1000.55 1024.48 1025.76 C 1022.29 1034.46 1020.06 1051.42 1011.63 1056.02 C 993.87 1065.71 943.175 1054.36 925.011 1048.73 C 882.34 1035.53 837.234 1006.91 815.753 966.544 C 812.715 960.835 809.894 954.735 807.956 948.558 C 806.325 943.36 805.587 937.871 803.034 933.024 C 801.151 932.91 800.971 933.441 799.457 934.456 C 796.781 939.747 797.894 946.813 798.747 952.517 C 803.808 986.367 825.99 1015.81 852.992 1035.81 C 848.797 1057.55 844.639 1081.25 848.863 1103.28 C 852.027 1119.79 857.063 1135.69 859.669 1152.39 C 846.332 1154.79 835.831 1154.2 822.562 1151.46 C 797.711 1143.34 758.152 1129.01 738.702 1112.08 C 719.059 1094.98 708.286 1053.09 706.6 1027.92 C 744.452 1004.49 763.62 974.74 782.172 935.428 C 789.619 934.536 798.134 933.561 804.757 929.863 C 804.208 928.848 803.887 927.671 803.111 926.817 C 802.516 926.163 772.664 921.264 766.556 917.933 C 755.829 912.083 749.944 900.871 746.443 889.642 C 747.454 884.735 748.728 879.542 750.486 874.852 C 753.261 867.445 757.303 860.71 764.824 857.432 C 772.643 854.024 783.471 854.036 791.371 857.207 C 791.74 857.356 792.103 857.517 792.47 857.671 C 794.245 855.98 794.276 855.472 794.901 853.062 L 792.528 849.656 C 801.607 844.136 809.091 836.162 818.334 831.023 C 832.541 823.125 874.403 828.377 890.918 830.175 C 890.813 855.385 893.745 880.451 908.735 901.552 C 919.136 916.193 934.934 927.915 952.95 930.749 C 966.816 932.93 980.696 929.654 991.792 920.976 C 1011.31 905.71 1023.31 876.911 1027.07 853.04 C 1028.78 842.17 1028.74 831.178 1029.93 820.257 z"/>
<path transform="translate(0,0)" fill="rgb(32,39,69)" d="M 957.009 971.566 C 963.89 972.806 970.748 977.003 977.673 978.889 C 993.453 983.186 1004.83 977.632 1020.16 976.451 C 1021.26 978.842 1020.29 980.159 1019.59 982.604 C 1014.48 986.914 1007.91 988.039 1001.45 988.661 C 988.51 989.907 970.626 988.609 960.535 979.613 C 957.643 977.034 957.281 975.371 957.009 971.566 z"/>
<path transform="translate(0,0)" fill="rgb(32,39,69)" d="M 773.631 873.334 C 782.41 873.225 796.268 873.851 803.634 878.891 C 804.805 880.947 805.534 881.747 804.435 884.173 C 801.119 891.492 782.196 900.912 774.91 903.624 C 771.604 904.854 770.724 904.141 767.633 902.58 C 773.002 894.948 782.757 892.789 788.072 885.954 C 789.315 884.356 788.966 885.121 788.782 882.882 C 788.001 882.239 787.899 882.08 786.82 881.632 C 781.684 879.498 770.261 879.425 765.479 882.163 C 763.892 883.071 762.714 883.584 760.976 884.102 L 759.713 882.936 C 760.038 880.921 760.355 879.889 761.623 878.213 C 764.451 874.475 769.348 873.983 773.631 873.334 z"/>
<path transform="translate(0,0)" fill="rgb(254,254,254)" d="M 809.578 491.394 C 826.501 490.584 844.241 492.785 861.027 494.87 A 1054.83 1054.83 0 0 1 1011.97 526.362 C 967.981 529.897 912.131 565.619 877.984 593.56 A 610.007 610.007 0 0 0 702.709 833.091 C 693.47 856.003 684.64 878.628 682.141 903.398 C 695.821 877.545 706.777 850.307 720.805 824.513 C 776.835 721.489 854.646 615.585 958.741 557.203 C 978.829 545.936 1004.86 531.461 1028.56 534.539 C 1039.47 535.956 1050.48 539.973 1061.06 542.932 C 1060.06 548.609 1059.67 554.453 1059.09 560.189 C 1049.36 558.757 1039.92 558.299 1030.14 559.606 C 951.651 570.093 865.748 666.414 819.784 726.022 C 771.654 792.5 728.401 870.37 701.628 948.112 C 678.489 1015.3 683.872 1066.99 722.532 1127.13 C 731.558 1141.17 742.217 1154.24 751.711 1167.99 C 762.453 1183.55 771.553 1200.1 781.747 1216 C 790.795 1230.12 801.174 1244.1 808.456 1259.24 L 809.088 1260.57 C 774.663 1216.89 709.102 1167.22 659.693 1140.51 C 635.599 1127.49 609.788 1117.76 588.402 1100.15 C 572.163 1086.78 561.253 1068.78 557.919 1047.88 C 554.048 1023.61 563.501 1002.55 567.757 979.187 C 571.958 956.122 573.907 931.829 572.778 908.435 C 569.771 846.124 545.549 787.657 539.778 725.895 C 537.763 704.328 536.68 682.945 551.532 665.388 C 566.798 647.342 601.973 621.715 621.872 606.307 C 643.855 589.285 666.217 572.927 688.529 556.35 C 709.634 540.669 730.542 524.367 753.576 511.543 C 770.474 502.134 790.111 493.131 809.578 491.394 z"/>
<path transform="translate(0,0)" fill="rgb(32,39,69)" d="M 670.438 911.654 C 673.737 915.701 668.607 930.415 667.443 935.643 C 660.411 967.236 655.141 1000.1 660.431 1032.38 C 666.776 1071.11 688.593 1104.97 713.839 1134.15 C 715.727 1136.33 721.586 1142.09 721.439 1144.79 L 717.802 1142.9 C 690.918 1124.05 668.816 1095.36 656.49 1065 C 636.631 1016.07 650.683 958.307 670.438 911.654 z"/>
<path transform="translate(0,0)" fill="rgb(254,254,254)" d="M 1899.08 1292.5 L 1899.51 1292.88 C 1900.26 1299.78 1867.49 1413.41 1863.39 1428.33 L 1760.19 1803.22 C 1578.19 1838.6 1395.83 1873.07 1214.35 1911.03 C 1212.68 1908.16 1214.65 1903.25 1215.5 1900.16 C 1224.46 1867.57 1235.57 1835.51 1245 1803.04 L 1325.01 1524 C 1337.26 1480.8 1351.9 1437.4 1361.86 1393.65 L 1772.2 1316.45 C 1814.44 1308.85 1856.59 1298.31 1899.08 1292.5 z"/>
<path transform="translate(0,0)" fill="rgb(32,39,69)" d="M 1584.06 1526.2 C 1591.35 1525.34 1598.85 1525.74 1605.16 1529.88 C 1613.49 1535.33 1615.42 1544.56 1617.32 1553.59 C 1618.47 1553.77 1619.6 1554.02 1620.72 1554.32 C 1627.6 1556.18 1632.88 1560.21 1636.23 1566.57 C 1640.26 1574.19 1640.53 1584.08 1637.93 1592.21 C 1636.49 1596.72 1633.38 1600.85 1630.5 1604.56 C 1622.39 1614.99 1612.72 1624.48 1604.09 1634.53 C 1591.42 1649.3 1579.04 1665.89 1564.81 1679.14 C 1562.27 1681.51 1559.34 1683.22 1556.31 1684.87 C 1548.95 1687.13 1541.13 1688.16 1534.03 1684.41 C 1524.05 1679.14 1521.07 1668.87 1518.22 1658.83 C 1517.88 1658.38 1517.61 1657.88 1517.21 1657.49 C 1513.26 1653.7 1509.65 1649.71 1507.16 1644.72 C 1503.55 1637.49 1500.83 1629.38 1503.84 1621.46 C 1508.14 1610.12 1559.89 1544.84 1569.83 1535.26 C 1574.3 1530.96 1578.45 1528.63 1584.06 1526.2 z"/>
<path transform="translate(0,0)" fill="rgb(254,254,254)" d="M 1585.01 1534.06 C 1590.6 1533.99 1595.38 1534.48 1600.16 1537.63 C 1603.46 1539.81 1605.82 1542.89 1606.41 1546.86 C 1607.07 1551.29 1605.41 1555.6 1603.07 1559.27 C 1595.82 1570.63 1585.03 1580.7 1576.05 1590.73 C 1560.09 1608.55 1544.13 1626.4 1529.31 1645.19 C 1527.24 1647.43 1526.07 1648.77 1523.03 1649.07 C 1520.22 1647.07 1518.17 1644.58 1516.38 1641.62 C 1513.41 1636.72 1511.63 1629.9 1513.54 1624.3 C 1517.18 1613.61 1568.42 1548.38 1577.75 1538.91 C 1579.88 1536.73 1582.29 1535.36 1585.01 1534.06 z"/>
<path transform="translate(0,0)" fill="rgb(254,254,254)" d="M 1611.62 1562.88 C 1614.91 1562.88 1618.63 1562.8 1621.75 1563.96 C 1625.2 1565.24 1628.54 1567.97 1629.82 1571.5 C 1632.18 1577.97 1630.28 1586.08 1627.38 1592.07 C 1622.85 1601.42 1569.08 1662.34 1558.51 1671.38 C 1555.81 1673.69 1552.92 1674.95 1549.6 1676.12 C 1543.96 1676.49 1540.55 1675.6 1535.88 1672.33 C 1532.97 1670.28 1530.18 1667.41 1529.98 1663.63 C 1529.84 1660.99 1530.98 1658.99 1532.41 1656.91 C 1539.25 1646.88 1548.28 1637.6 1556.19 1628.36 C 1574.74 1606.7 1594.1 1585.38 1611.62 1562.88 z"/>
<path transform="translate(0,0)" fill="rgb(254,254,254)" d="M 553.589 1085.69 C 572.56 1116.14 600.467 1129.52 631.205 1145.51 C 647.397 1153.94 663.555 1162.84 679.03 1172.52 C 716.671 1196.07 793.065 1258.22 816.878 1294.6 C 819.979 1299.33 821.532 1301.29 820.34 1306.84 C 819.853 1309.28 820.01 1311.96 817.963 1313.46 C 815.223 1324.19 818.189 1338.17 818.046 1349.47 C 818.633 1347.09 819.029 1344.85 820.497 1342.83 L 822.071 1343.94 C 825.56 1447.96 830.224 1590.52 863.541 1687.88 C 793.678 1686.61 716.661 1694.71 651.962 1662.71 C 642.115 1657.84 631.433 1651.91 623.652 1644.01 C 616.398 1636.64 616.774 1622.81 615.679 1613.02 C 612.573 1585.25 610.662 1557.04 612.038 1529.1 C 613.716 1495.04 618.885 1461.62 619.227 1427.37 C 619.439 1406.17 620.055 1384.59 618.307 1363.46 C 613.815 1309.15 595.589 1254.34 556.714 1215.05 C 535.32 1193.43 505.25 1179.07 474.671 1178.99 C 487.34 1184.81 499.834 1189.76 511.954 1196.84 C 537.469 1211.73 555.726 1232.88 570.173 1258.38 C 617.436 1341.79 595.99 1414.95 592.421 1503.35 C 590.517 1550.53 592.402 1601.33 604.37 1647.19 C 589.244 1652.08 574.72 1657.13 561.031 1665.36 C 530.563 1683.68 510.182 1709.81 501.73 1744.34 C 526.598 1702.32 566.002 1670.31 613.804 1657.94 C 620.868 1662.36 627.165 1667.7 633.577 1672.99 C 620.532 1681.32 609.836 1690.05 600.35 1702.37 C 582.914 1725.01 573.999 1754.91 577.548 1783.33 C 584.544 1744.3 613.766 1704.25 644.782 1680.55 C 692.277 1700.12 744.081 1704.02 794.932 1703.92 C 812.505 1703.88 830.079 1702.8 847.648 1703.41 C 835.283 1715.78 825.775 1728.75 819.024 1744.97 C 806.009 1776.26 801.052 1813.69 814.252 1845.77 C 798.302 1848.26 782.47 1851.71 766.556 1854.46 L 621.446 1879.8 C 587.397 1885.97 553.525 1892.82 519.367 1898.43 C 496.463 1888.44 473.931 1872.38 457.245 1853.74 C 388.142 1776.54 384.339 1590.28 390.389 1491.33 A 1120.83 1120.83 0 0 1 418.561 1299.98 C 424.186 1276.19 430.152 1251.55 440.383 1229.25 C 444.987 1219.21 451.183 1209.88 456.979 1200.5 A 497.695 497.695 0 0 1 553.589 1085.69 z"/>
<path transform="translate(0,0)" fill="rgb(247,199,92)" d="M 816.522 1479.51 C 809.722 1489.02 799.976 1494.83 788.505 1496.92 C 779.328 1498.59 769.532 1497.95 760.269 1497.41 C 731.249 1495.72 702.356 1490.77 678.019 1473.73 C 661.492 1462.16 650.373 1445.11 646.983 1425.17 C 641.912 1395.35 649.243 1367.29 666.76 1342.86 C 684.373 1318.31 714.406 1295.82 744.789 1290.94 C 772.176 1286.55 796.452 1297.83 817.963 1313.46 C 815.223 1324.19 818.189 1338.17 818.046 1349.47 C 816.327 1392.54 821.719 1436.73 816.522 1479.51 z"/>
<path transform="translate(0,0)" fill="rgb(254,254,254)" d="M 785.08 1314.39 C 788.36 1314.85 790.731 1315 793.316 1317.3 C 794.689 1320.13 794.346 1323.09 794.049 1326.14 C 790.508 1362.52 783.836 1399.34 778.017 1435.43 C 775.784 1449.28 775.016 1463.9 772.102 1477.53 C 771.099 1482.22 770.059 1485.86 765.873 1488.58 C 763.24 1488.98 761.943 1488.78 759.666 1487.3 C 756.854 1485.47 754.59 1482.01 753.256 1479 C 748.521 1468.33 740.715 1436.12 738.375 1424.01 C 731.709 1424.27 725.023 1424.9 718.367 1425.37 C 716.221 1429.08 712.868 1434.8 708.452 1436.13 C 705.617 1436.98 705.051 1436.46 702.651 1435.1 C 700.756 1432.38 700.168 1430.23 699.514 1426.99 C 704.015 1414.26 710.408 1402.24 715.189 1389.6 C 722.852 1369.36 729.213 1348.07 737.679 1328.21 C 738.333 1326.68 739.209 1325.84 740.531 1324.87 C 743.057 1324.76 743.115 1324.76 745.186 1326.21 C 748.387 1333.7 747.639 1396.36 748.314 1409.72 C 754.732 1409.24 761.166 1408.42 767.572 1407.77 C 772.958 1377.43 774.374 1343.31 785.08 1314.39 z"/>
<path transform="translate(0,0)" fill="rgb(247,199,92)" d="M 731.365 1384.67 C 733.962 1391.29 734.691 1403.49 733.9 1410.51 C 731.324 1412.31 726.917 1412.15 723.796 1412.42 L 722.365 1411.81 C 720.876 1405.66 728.517 1390.7 731.365 1384.67 z"/>
<path transform="translate(0,0)" fill="rgb(247,199,92)" d="M 763.312 1420.4 L 764.869 1420.61 C 765.243 1421.42 765.383 1421.59 765.493 1422.6 C 766.086 1428.08 763.649 1445.23 760.82 1449.63 L 759.185 1448.75 C 755.393 1440.27 753.352 1431.11 751 1422.15 C 754.994 1421.22 759.241 1420.92 763.312 1420.4 z"/>
</svg>