<svg version="1.1" xmlns="http://www.w3.org/2000/svg" style="display: block;" viewBox="0 0 2048 2048" width="1024" height="1024">
<path transform="translate(0,0)" fill="rgb(254,254,254)" d="M 0 0 L 2048 0 L 2048 2048 L 0 2048 L 0 0 z"/>
<path transform="translate(0,0)" fill="rgb(33,30,31)" d="M 382.072 955.996 C 382.291 956.19 382.548 956.349 382.729 956.578 C 384.248 958.503 384.916 960.47 384.896 962.832 C 383.724 965.439 381.897 965.964 379.606 967.341 C 372.358 971.697 378.923 980.575 377.352 987.562 C 375.594 990.243 373.163 990.681 370.279 991.609 C 367.13 980.821 371.252 977.733 370.595 972.001 C 370.307 969.483 366.947 969.348 367.17 965.006 C 369.577 961.166 377.841 958.204 382.072 955.996 z"/>
<path transform="translate(0,0)" fill="rgb(33,30,31)" d="M 334.538 982.801 C 336.158 983.006 337.029 983.421 338.483 984.113 C 339.867 986.41 340.072 987.396 339.865 990.067 C 338.457 992.297 338.529 992.227 335.993 992.964 C 334.396 991.612 334.208 991.481 332.028 991.072 L 329.721 992.728 C 328.475 995.152 327.976 997.014 327.99 999.772 C 328.005 1002.61 328.647 1004.63 330.65 1006.61 C 332.969 1006.54 333.864 1005.62 335.602 1004.22 C 337.407 1002.76 337.774 1002.33 340.092 1001.74 C 341.247 1003.65 340.927 1004.7 340.963 1006.89 C 337.445 1010.07 333.128 1014.74 327.862 1013.89 C 325.367 1013.48 323.725 1011.82 322.522 1009.72 C 320.157 1005.57 320.823 999.473 322.247 995.158 C 324.438 988.516 328.474 985.752 334.538 982.801 z"/>
<path transform="translate(0,0)" fill="rgb(33,30,31)" d="M 358.653 968.935 C 361.823 970.202 364.835 972.971 365.886 976.332 A 7.80398 7.80398 0 0 1 364.851 983.018 C 363.417 985.102 361.307 986.229 358.909 986.762 C 356.614 987.271 356.002 987.703 353.996 986.374 L 354.228 984.535 C 355.865 983.068 357.374 981.574 358.863 979.957 L 358.563 977.899 L 356.001 976.679 C 353.843 977.025 352.764 977.042 351.679 979.284 C 349.786 983.194 350.887 988.719 352.643 992.45 C 355.191 993.324 354.937 992.846 357.224 991.748 C 359.481 990.787 360.864 990.284 363.33 990.41 L 364.368 992.037 C 363.283 995.418 360.256 997.585 357.336 999.386 C 354.004 1001.44 351.123 1002.45 347.24 1001.46 C 345.654 1000.1 344.812 999.68 343.968 997.698 C 341.809 992.629 342.604 984.063 344.851 979.103 C 347.533 973.182 352.924 971.064 358.653 968.935 z"/>
<path transform="translate(0,0)" fill="rgb(33,30,31)" d="M 261.854 1037.77 C 264.515 1039.18 266.307 1040.17 268.135 1042.68 C 268.159 1045.27 268.16 1045.62 266.204 1047.59 C 262.978 1050.84 248.663 1057.37 244.049 1057.59 C 243.017 1054.34 245.935 1047.49 246.623 1043.89 C 248.022 1036.55 242.702 1028.12 245.994 1021.54 C 247.803 1020.4 249.153 1019.65 251.317 1019.43 C 254.155 1019.15 256.72 1019.68 258.853 1021.7 C 262.12 1024.8 260.92 1033.26 260.838 1037.45 C 258.207 1035.47 257.178 1028.57 256.199 1025.44 L 255.583 1026.25 L 255.278 1023.11 C 251.998 1026.89 252.695 1035.01 252.989 1039.89 C 253.138 1042.36 253.102 1043.5 254.728 1045.5 C 257.89 1044.38 259.908 1042.13 261.355 1039.04 C 261.549 1038.63 261.688 1038.19 261.854 1037.77 z"/>
<path transform="translate(0,0)" fill="rgb(33,30,31)" d="M 314.202 991.52 C 316.391 991.77 317.834 992.406 319.794 993.392 L 319.997 995.007 C 318.177 996.994 316.815 998.614 315.538 1001.02 C 315.714 1004.96 315.484 1009.41 316.897 1013.13 C 318.994 1013.65 319.87 1013.9 321.672 1015.19 L 321.214 1017.24 C 313.114 1023.9 291.321 1034.64 281.58 1038.78 C 281.385 1034.89 280.665 1028.76 282.503 1025.2 C 284.887 1020.6 289.168 1019.31 293.637 1017.42 L 295.532 1015.34 C 295.894 1012.73 296.603 1011.86 294.988 1009.61 C 292.815 1010.08 292.504 1010.47 290.857 1012.01 C 290.594 1013.86 290.278 1015.46 289.643 1017.22 C 287.648 1018.46 286.823 1018.77 284.47 1018.59 L 283.264 1016.96 C 283.088 1014.33 283.261 1012 284.575 1009.65 C 286.619 1006 290.534 1003.44 294.628 1002.63 C 297.701 1002.02 299.423 1002.67 301.904 1004.42 C 304.027 1008.37 303.465 1012 304.13 1016.28 C 304.517 1018.77 304.415 1018.9 306.396 1020.3 L 309.242 1019.46 C 311.579 1015.25 308.891 1002.43 308.414 997.444 L 308.258 997.648 L 314.202 991.52 z"/>
<path transform="translate(0,0)" fill="rgb(33,30,31)" d="M 989.087 1428.86 C 990.885 1428.65 992.746 1428.42 994.507 1429.06 C 996.777 1429.9 998.518 1432.15 999.223 1434.39 C 1000.06 1437.07 999.733 1440.02 998.51 1442.52 C 997.56 1444.46 996.186 1445.87 994.435 1447.12 C 983.89 1454.62 967.925 1461.11 955.987 1467.05 C 933.876 1478.05 907.695 1492.99 884.865 1500.94 C 884.664 1500.82 884.442 1500.72 884.261 1500.57 C 880.881 1497.74 874.615 1492.1 874.413 1487.59 C 882.585 1479.06 971.807 1438.22 989.087 1428.86 z"/>
<path transform="translate(0,0)" fill="rgb(33,30,31)" d="M 901.07 856.784 C 902.522 857.122 903.59 857.026 904.601 858.242 C 906.286 860.269 906.57 862.602 906.639 865.137 C 906.971 877.174 905.921 889.308 905.861 901.357 L 906.102 988.115 L 906.013 1321.03 C 900.535 1324.84 892.976 1329.79 886.718 1332.14 C 884.487 1332.98 884.151 1332.96 882.12 1332.01 C 880.67 1329.89 880.342 1329.59 880.274 1327.06 C 884.951 1322.09 891.886 1319.88 897.259 1315.59 C 897.522 1315.38 897.779 1315.16 898.039 1314.95 L 898.01 868.193 C 870.758 880.764 844.325 896.072 817.844 910.235 L 715.199 964.541 C 652.389 998.405 588.535 1030.51 525.512 1064.01 L 316.458 1173.35 C 285.863 1189.35 253.626 1204.07 223.999 1221.71 L 223.84 1701.03 C 252.332 1684.4 281.459 1669.03 310.609 1653.59 C 387.736 1614.06 462.976 1570.74 539.428 1529.93 C 560.96 1518.44 582.402 1505.56 604.34 1494.98 C 607.601 1493.4 612.105 1490.98 615.755 1491.81 C 616.329 1493.17 616.793 1493.51 616.338 1495.04 C 615.335 1498.43 612.13 1500.6 609.283 1502.41 C 596.966 1510.25 582.719 1516.49 569.777 1523.42 L 473.929 1574.71 L 294.068 1672.13 C 271.216 1684.25 248.504 1698.21 225.103 1709.09 C 222.322 1710.38 220.092 1711.22 217.013 1710.51 C 215.655 1708.49 215.682 1707.15 215.456 1704.75 C 214.446 1694.05 215.025 1682.78 214.974 1672.02 L 214.832 1607.57 L 214.947 1415.5 L 214.581 1279.64 C 214.567 1260.68 212.431 1233.65 215.898 1215.87 C 226.076 1209.79 237.07 1204.96 247.622 1199.54 L 302.94 1170.85 L 465.643 1085.71 L 901.07 856.784 z"/>
<path transform="translate(0,0)" fill="rgb(33,30,31)" d="M 956.981 552.935 C 958.668 554.324 959.176 554.845 959.801 556.996 C 961.922 564.29 959.728 576.995 959.773 584.92 L 959.733 733.887 L 959.472 1122.53 C 959.292 1204.52 957.586 1286.85 959.355 1368.81 C 959.454 1373.39 959.722 1378.25 957.555 1382.42 C 955.201 1383.55 954.982 1383.1 952.524 1382.65 C 951.067 1379.98 951.01 1377.39 950.889 1374.41 C 949.809 1347.81 950.976 1320.66 950.989 1294.01 L 951.023 1129.86 L 951.805 565.931 C 924.673 577.731 898.177 593.092 872.33 607.462 L 799.609 647.14 L 578.091 766.232 L 325.723 902.851 L 233.131 952.902 C 212.512 963.98 191.245 974.41 171.312 986.664 L 172.212 1690.25 C 172.149 1724.63 171.369 1759.19 172.635 1793.54 C 191.585 1785.26 209.986 1774.92 228.176 1765.09 L 311.027 1719.93 L 495.416 1621.77 C 513.105 1612.15 615.799 1553.81 625.379 1553.31 C 627.541 1553.19 627.736 1553.47 629.202 1554.87 L 628.726 1557.68 C 626.935 1560.19 625.24 1562.18 622.583 1563.82 C 618.373 1566.42 613.406 1567.96 608.989 1570.24 C 599.831 1574.98 590.846 1580.06 581.711 1584.85 C 558.671 1596.92 536.084 1609.75 513.142 1621.99 A 20390.7 20390.7 0 0 0 274.686 1749.5 L 204.034 1787.22 C 193.808 1792.68 183.676 1799.38 172.987 1803.83 C 170.409 1804.9 168.72 1805.41 166.104 1804.25 C 161.251 1792.47 163.932 1646.17 163.868 1623.71 L 163.757 1184.81 A 8973.02 8973.02 0 0 1 163.054 1042.77 C 163.055 1024.3 160.883 998.478 164.415 980.66 C 182.408 968.987 202.767 959.603 221.723 949.462 L 304.926 904.005 L 567.565 762.467 A 30233.5 30233.5 0 0 1 864.789 602.245 C 895.548 586.106 925.539 567.638 956.981 552.935 z"/>
<path transform="translate(0,0)" fill="rgb(33,30,31)" d="M 900.854 714.798 C 902.203 714.787 903.635 714.939 904.985 715.019 C 905.438 715.683 906.049 716.263 906.343 717.011 C 907.634 720.295 906.903 810.93 906.982 823.62 C 897.684 830.122 886.851 835.071 876.847 840.416 L 820.56 870.268 L 659.571 955.771 L 221.471 1187.14 C 219.594 1187.09 218.661 1186.79 216.929 1186.17 C 212.7 1180.6 214.982 1095.8 215.507 1083.49 C 222.188 1078.7 230.096 1075.2 237.349 1071.31 L 279.711 1048.62 L 440.821 964.096 L 771.766 785.131 C 814.857 761.832 857.263 737.153 900.854 714.798 z"/>
<path transform="translate(0,0)" fill="rgb(254,254,254)" d="M 895.59 726.914 C 897.038 727.093 896.245 726.853 897.846 727.96 C 898.495 739.044 897.902 750.451 897.951 761.573 A 4868.73 4868.73 0 0 0 898.83 817.881 C 878.529 830.7 856.843 841.313 835.692 852.634 L 722.604 912.969 L 407.997 1078.66 A 8542.52 8542.52 0 0 0 225.745 1175.23 L 224.697 1174.88 C 221.692 1169.23 223.465 1100.82 223.497 1088.81 C 243.358 1077.03 264.186 1066.47 284.553 1055.59 L 438.513 975.016 L 688.179 839.627 A 23364.7 23364.7 0 0 0 895.59 726.914 z"/>
<path transform="translate(0,0)" fill="rgb(33,30,31)" d="M 507.964 964.861 L 509.32 965.129 C 512.513 970.083 510.705 983.51 510.557 989.687 C 493.741 1000.06 474.95 1008.79 457.283 1017.63 L 455.982 1017.95 C 452.828 1013.93 454.823 998.443 455.029 992.766 C 471.901 982.456 490.386 973.948 507.964 964.861 z"/>
<path transform="translate(0,0)" fill="rgb(33,30,31)" d="M 632.964 897.853 L 634.703 897.981 C 638.133 902.662 635.781 917.063 635.137 922.948 C 620.471 934.526 600.814 942.916 584.303 951.862 L 583.231 952.129 C 580.348 948.588 582.199 929.208 582.295 923.782 C 598.569 914.485 615.893 905.586 632.964 897.853 z"/>
<path transform="translate(0,0)" fill="rgb(33,30,31)" d="M 571.991 930.987 C 572.042 931.035 572.095 931.08 572.143 931.131 C 576.149 935.336 574.724 949.409 574.743 955.325 C 557.318 966.378 538.707 975.479 520.277 984.707 L 519.362 985.01 L 518.269 983.975 A 1218.42 1218.42 0 0 1 517.833 959.34 C 533.953 948.854 553.835 937.544 571.991 930.987 z"/>
<path transform="translate(0,0)" fill="rgb(33,30,31)" d="M 299.168 1075.79 L 300.721 1075.94 C 304.359 1080.84 302.4 1095.3 301.911 1101.44 C 284.282 1112.87 264.126 1121.82 245.353 1131.35 L 243.701 1131.62 C 240.307 1127.14 241.943 1113.11 242.005 1107.21 A 2293.13 2293.13 0 0 1 299.168 1075.79 z"/>
<path transform="translate(0,0)" fill="rgb(33,30,31)" d="M 445.173 997.915 L 446.558 999.107 C 447.862 1006.9 447.063 1015.63 447.019 1023.55 C 429.768 1034.6 405.199 1048.33 386.449 1055.96 C 382.994 1051.07 384.407 1037.4 384.472 1031.23 C 404.668 1020.07 424.625 1008.41 445.173 997.915 z"/>
<path transform="translate(0,0)" fill="rgb(33,30,31)" d="M 372.59 1038.12 C 373.533 1038.21 372.848 1038.08 374.37 1039.21 C 375.563 1046.41 374.933 1054.33 374.887 1061.64 C 355.677 1075.07 332.94 1084.66 312.333 1095.87 L 310.818 1095.93 C 308.506 1089.21 310.202 1077.64 310.302 1070.35 C 330.953 1059.56 351.492 1047.99 372.59 1038.12 z"/>
<path transform="translate(0,0)" fill="rgb(33,30,31)" d="M 544.237 1183.45 C 552.69 1186.78 561.128 1192.24 569.199 1196.54 A 1713.84 1713.84 0 0 0 614.091 1219.63 C 706.405 1264.91 797.048 1314.2 887.661 1362.79 A 3747.96 3747.96 0 0 0 936.523 1388.3 C 944.804 1392.59 956.32 1397.02 963.297 1403.15 C 965.75 1405.31 967.038 1407.27 967.185 1410.63 C 962.231 1416.27 836.919 1446.72 818.31 1452.15 C 834.122 1476.32 855.256 1497.48 873.586 1519.76 C 928.881 1586.97 987.447 1651.37 1042.71 1718.53 C 1028.83 1728.5 1013.89 1737.31 999.444 1746.46 L 987.572 1754.57 C 978.622 1741.45 967.948 1729.7 957.763 1717.54 C 938.464 1694.52 918.81 1671.9 899.193 1649.15 C 853.239 1595.87 807.964 1541.1 765.766 1484.81 C 758.991 1500.28 754.432 1517.49 748.866 1533.47 A 7048.66 7048.66 0 0 0 719.324 1617.58 C 714.252 1632.76 710.177 1649.56 703.533 1664.02 C 702.558 1666.15 702.483 1667.47 700.249 1668.28 C 697.816 1666.22 696.746 1663.42 695.655 1660.51 C 689.552 1644.19 685.161 1626.83 680.242 1610.11 A 2751.06 2751.06 0 0 0 657.456 1535.9 L 582.79 1303.79 C 573.329 1275.04 563.551 1246.52 554.437 1217.64 C 550.93 1206.53 546.047 1194.97 544.237 1183.45 z"/>
<path transform="translate(0,0)" fill="rgb(33,30,31)" d="M 1242.51 65.2913 C 1249.72 64.2962 1254.2 65.4687 1260.68 68.4182 C 1300.51 86.5577 1338.43 109.292 1377.26 129.431 L 1661.63 278.921 L 1833.43 369.689 L 1896.08 401.897 C 1906.98 407.533 1918.74 412.912 1928.97 419.696 C 1936.81 424.889 1945.32 434.238 1948.49 443.189 C 1948.69 443.778 1948.89 444.373 1949.1 444.961 C 1950.57 449.101 1950.86 452.702 1950.93 457.047 C 1952.36 554.824 1951 652.913 1950.52 750.706 L 1950.81 964.055 L 1950.64 1084.33 C 1950.64 1099.35 1952.71 1140.64 1949.37 1151.62 C 1946.77 1160.13 1930.11 1166.57 1922.66 1170.14 C 1909.12 1165.73 1895.64 1157.63 1883.01 1151.03 C 1851.55 1134.59 1821.08 1116.7 1789.89 1099.84 C 1725.37 1064.99 1659.33 1032.7 1594.48 998.437 C 1548.57 974.173 1503.78 946.911 1456.65 925.016 L 1456.65 1121.13 C 1456.49 1154.75 1457.12 1188.53 1456.1 1222.13 C 1449.09 1231.98 1438.71 1238.29 1427.07 1241.12 C 1413.12 1234.34 1399.6 1226.38 1385.93 1219.04 L 1307.28 1176.89 L 1209.92 1125.27 C 1164.45 1100.68 1119.41 1075.38 1073.61 1051.4 C 1051.03 1039.58 1028.9 1026.57 1005.92 1015.55 L 1006.01 1287.42 C 1005.9 1320.14 1007.31 1353.43 1006.06 1386.08 C 1005.94 1389.22 1005.46 1392.98 1003.5 1395.56 C 1002.05 1397.46 1000.35 1398.56 997.891 1398.54 C 994.194 1398.52 991.593 1395.44 989.125 1393.08 C 987.439 1382.27 988.089 1370.68 988.082 1359.73 L 988.053 1307 L 987.804 1120.57 L 986.635 499.256 A 10833.3 10833.3 0 0 1 790.836 604.135 L 572.638 722.249 L 336.371 849.895 A 10397 10397 0 0 1 133.984 958.302 L 132.806 1684.75 L 132.706 1796.41 C 132.604 1816.33 131.428 1836.7 132.485 1856.57 C 132.758 1861.71 133.076 1869.54 137.005 1873.07 C 140.596 1873.47 143.592 1871.74 146.715 1870.19 C 161.187 1863.04 175.153 1854.7 189.387 1847.07 L 289.398 1793.66 L 552.102 1654.68 L 610.705 1623.28 C 622.588 1616.85 636.203 1607.34 649.373 1604.09 C 650.462 1604.82 650.721 1604.92 651.702 1606.02 C 653.905 1608.49 655.521 1613.62 654.788 1616.85 C 653.541 1622.36 594.63 1651.3 585.631 1656.21 C 579.627 1676.14 576.2 1697.08 571.556 1717.38 C 564.901 1746.48 556.993 1775.55 552.864 1805.14 C 566.432 1798.91 579.51 1790.39 592.666 1783.22 A 4569.6 4569.6 0 0 0 654.193 1749.79 C 678.339 1736.2 702.334 1721.81 727.209 1709.6 C 733.177 1685.61 739.615 1661.82 745.154 1637.71 C 751.126 1611.72 756.256 1584.92 764.064 1559.43 C 764.604 1557.66 765.418 1556.68 766.637 1555.34 C 769.394 1554.01 771.495 1553.6 774.483 1554.29 C 777.424 1554.97 778.756 1556.51 780.349 1558.89 C 782.732 1568.39 763.35 1639.21 760.326 1653.43 C 775.356 1660.43 789.551 1669.55 804.168 1677.41 C 828.452 1690.47 852.85 1703.16 876.845 1716.76 C 887.752 1722.95 900.881 1729.17 909.959 1737.89 C 910.756 1751.77 910.424 1766.1 909.955 1780.01 C 898.054 1791.4 875.324 1801.71 860.493 1809.83 L 791.27 1847.68 L 674.902 1912.31 C 658.258 1921.37 640.426 1933.04 622.716 1939.47 C 618.453 1938.58 614.618 1936.83 610.736 1934.91 C 575.005 1917.18 540.497 1896.23 505.335 1877.32 A 5524.76 5524.76 0 0 1 416.751 1828.79 C 401.508 1820.32 383.345 1812.29 370.111 1801.03 L 370.095 1770.72 C 351.771 1779.79 333.931 1789.86 315.87 1799.45 L 192.641 1865.19 C 177.241 1873.38 153.418 1889.86 137.618 1893.48 C 124.731 1890.58 108.286 1883.35 101.26 1871.61 C 99.6666 1868.95 98.5483 1866.06 97.7923 1863.06 C 96.5716 1858.2 96.2566 1853.06 96.2058 1848.07 L 95.9538 1081.08 L 95.883 897.922 C 95.8737 883.467 93.5657 842.83 96.5398 831.77 C 99.6377 820.251 104.657 812.845 114.234 805.877 C 125.359 797.781 139.52 791.694 151.628 785.047 L 256.977 728.409 L 584.075 551.635 C 626.982 528.425 670.393 506.177 712.816 482.057 L 712.924 188.049 C 718.4 179.709 729.205 173.134 738.735 170.295 C 745.346 168.325 749.956 169.471 756.16 172.178 C 774.301 180.093 791.912 191.277 809.418 200.596 A 10682.3 10682.3 0 0 0 915.355 256.215 L 1104.78 356.623 C 1141.62 376.119 1179.39 394.55 1215.51 415.296 C 1216.54 389.742 1215.61 363.736 1215.65 338.128 L 1215.58 153.585 C 1215.68 129.58 1214.9 105.365 1216.16 81.3933 C 1217.1 79.7621 1218.06 78.1153 1219.18 76.6068 C 1225.32 68.402 1232.98 66.7015 1242.51 65.2913 z"/>
<path transform="translate(0,0)" fill="rgb(254,254,254)" d="M 761.118 358.634 A 7878.28 7878.28 0 0 1 851.716 407.345 C 845.171 411.693 838.203 415.37 831.324 419.157 C 816.717 410.368 799.033 398.884 782.652 394.176 C 779.645 394.813 778.739 396.352 776.594 398.491 L 776.854 401.929 C 781.462 409.567 808.974 419.521 818.178 425.966 C 799.156 436.253 779.692 445.545 760.791 456.127 C 761.325 423.645 761.061 391.121 761.118 358.634 z"/>
<path transform="translate(0,0)" fill="rgb(254,254,254)" d="M 1232.14 194.476 L 1252.92 206.699 L 1253.66 435.452 L 1232.7 424.975 C 1230.22 348.339 1231.86 271.159 1232.14 194.476 z"/>
<path transform="translate(0,0)" fill="rgb(254,254,254)" d="M 386.783 1771.08 C 397.054 1775.25 407.274 1781.64 417.085 1786.86 A 6249.56 6249.56 0 0 1 492.582 1828.17 L 566.045 1868.22 C 583.105 1877.39 601.226 1886.01 617.159 1897.03 L 617.254 1917.78 C 593.61 1906.84 570.809 1892.63 547.873 1880.16 L 386.799 1791.79 L 386.783 1771.08 z"/>
<path transform="translate(0,0)" fill="rgb(254,254,254)" d="M 892.752 1749.97 C 895.367 1753.69 894.044 1765.83 893.995 1770.65 C 879.548 1777.25 865.742 1786.48 851.795 1794.16 C 820.501 1811.38 789.176 1828.3 758.168 1846.06 C 715.371 1870.57 671.474 1893.19 628.339 1917.1 L 627.646 1916.47 C 625.913 1911.27 626.919 1903.12 626.984 1897.52 C 678.068 1865.2 732.712 1837.54 785.727 1808.55 C 821.182 1789.17 856.124 1766.95 892.752 1749.97 z"/>
<path transform="translate(0,0)" fill="rgb(254,254,254)" d="M 730.653 296.048 C 740.032 299.572 749.195 305.254 758.041 309.952 A 2914.22 2914.22 0 0 1 807.405 336.577 C 836.01 352.385 865.365 367.125 893.349 383.988 C 885.22 389.805 875.509 394.399 866.787 399.347 C 845.901 386.137 822.438 375.45 800.497 364.032 C 790.314 358.85 773.375 348.227 762.51 347.032 C 760.221 346.78 759.226 346.786 757.553 348.475 C 754.865 351.19 753.847 357.548 753.415 361.139 C 752.1 372.049 752.973 383.919 752.97 394.925 L 753.018 460.3 C 745.798 464.732 738.143 468.538 730.665 472.516 C 728.549 450.859 729.98 427.854 729.991 406.024 C 730.009 369.412 729.557 332.64 730.653 296.048 z"/>
<path transform="translate(0,0)" fill="rgb(254,254,254)" d="M 730.587 182.981 C 732.862 182.896 735.885 182.503 738.032 183.332 C 747.549 187.002 757.131 194.068 766.286 198.87 A 7571.14 7571.14 0 0 1 853.527 244.946 L 1266.12 463.893 C 1298.31 480.968 1330.22 498.681 1362.57 515.43 C 1381.7 525.332 1411.41 537.943 1427.74 550.282 C 1434.48 555.378 1435.24 558.278 1436.29 566.422 C 1438.84 586.161 1436.9 616.037 1436.87 636.924 L 1436.98 780.143 L 1437.71 1090.98 C 1437.66 1131.62 1438.89 1172.59 1437.79 1213.19 C 1437.69 1216.93 1437.16 1218.73 1434.82 1221.66 C 1430.26 1218.5 1431.91 1207.15 1431.91 1201.74 L 1430.38 680.582 C 1430.32 663.724 1432.15 568.435 1428.08 559.452 C 1426.73 556.476 1419.01 552.656 1416.15 551.079 C 1348.95 513.932 1280.17 479.203 1212.29 443.266 L 899.381 276.589 L 766.15 205.841 C 760.057 202.613 733.095 189.886 730.003 186.73 C 729.571 186.289 729.425 185.64 729.137 185.095 L 730.587 182.981 z"/>
<path transform="translate(0,0)" fill="rgb(254,254,254)" d="M 1237.77 80.7088 C 1238.3 80.7164 1238.84 80.7021 1239.37 80.7315 C 1247.6 81.1853 1259.26 88.2903 1266.76 92.0825 A 8109.87 8109.87 0 0 1 1401.51 163.368 A 24480.5 24480.5 0 0 1 1649 293.144 A 10960.8 10960.8 0 0 1 1831.69 389.274 C 1858.4 403.349 1886.74 416.073 1912.67 431.385 C 1919.71 435.54 1925.59 440.903 1930.98 446.987 C 1932.42 466.536 1931.08 487.201 1931.06 506.866 L 1930.99 630.832 L 1930.92 1017.05 L 1930.9 1113.57 C 1930.91 1121.93 1932.73 1136.47 1931.41 1144.01 C 1931.15 1145.44 1930.88 1145.77 1930.26 1146.89 L 1925.49 1148.78 C 1925 1148.61 1924.32 1148.7 1924.02 1148.28 C 1922.72 1146.45 1924.02 1093.36 1924.08 1085.6 L 1924.09 675.015 C 1924.05 606.169 1926.47 536.989 1924.84 468.186 C 1924.72 462.982 1924.77 454.611 1922.6 449.909 C 1919.99 444.277 1908.84 438.002 1903.53 434.895 C 1882.96 422.853 1861.4 412.08 1840.34 400.878 L 1716.35 335.494 L 1355.07 145.667 A 7490.85 7490.85 0 0 0 1284.6 108.811 C 1270.82 101.749 1255.33 95.2431 1242.64 86.4408 C 1240.29 84.811 1239.13 83.1855 1237.77 80.7088 z"/>
<path transform="translate(0,0)" fill="rgb(254,254,254)" d="M 1455.58 629.311 C 1484.05 644.048 1514.06 657.237 1541.75 673.217 C 1540.96 689.069 1541.74 705.292 1541.74 721.188 L 1541.73 816.421 C 1528.58 811.714 1515.97 804.665 1503.56 798.311 A 1689.84 1689.84 0 0 1 1455.66 773.304 L 1455.58 629.311 z"/>
<path transform="translate(0,0)" fill="rgb(254,254,254)" d="M 958.547 371.927 C 962.415 372.567 966.109 374.913 969.58 376.683 C 917.373 400.373 867.743 430.739 816.929 457.305 L 392.911 684.381 L 206.596 783.832 C 188.303 793.698 141.237 816.863 127.579 829.174 C 125.7 830.868 123.832 832.722 123.022 835.184 C 119.465 845.996 121.389 905.166 121.368 921.729 L 121.22 1120.9 L 121.562 1627.19 L 121.933 1775.19 C 122.002 1801.31 121.527 1827.59 122.294 1853.69 C 122.514 1861.16 122.731 1867.71 126.005 1874.6 L 125.255 1875.46 C 122.626 1874.81 120.127 1872.18 118.755 1869.82 C 116.248 1865.52 115.712 1858.08 115.387 1853.11 C 113.784 1828.62 115.044 1803.29 114.978 1778.68 L 114.727 1628.53 L 114.744 1008.16 L 114.542 892.72 C 114.43 879.711 111.601 851.419 114.532 840.343 C 116.837 831.632 118.4 825.681 125.958 820.199 C 142.348 808.312 171.747 794.93 190.851 784.582 L 331.15 708.731 L 534.397 599.642 C 568.71 581.197 602.727 562.106 637.273 544.111 A 15815 15815 0 0 0 860.612 425.475 C 893.205 407.738 926.773 391.101 958.547 371.927 z"/>
<path transform="translate(0,0)" fill="rgb(254,254,254)" d="M 1899.11 550.064 C 1904.52 552.322 1909.63 555.064 1914.8 557.821 L 1915.17 1148.69 C 1898.21 1137.09 1878.77 1128.16 1860.68 1118.36 A 7703.13 7703.13 0 0 0 1752.21 1060.55 L 1471.63 912.968 C 1466.48 910.122 1461.21 907.495 1455.99 904.798 L 1456 884.174 L 1753.91 1040.45 L 1845.68 1089.48 C 1863.16 1098.86 1880.66 1109.47 1898.96 1117.15 C 1900.68 1096.77 1899.51 1075.5 1899.51 1055 L 1899.62 940.453 L 1899.11 550.064 z"/>
<path transform="translate(0,0)" fill="rgb(254,254,254)" d="M 562.09 1668.84 C 562.16 1668.87 562.243 1668.88 562.299 1668.92 C 562.694 1669.26 563.217 1669.53 563.433 1670 C 565.814 1675.22 529.947 1804.12 533.38 1811 C 537.093 1818.44 549.232 1820.98 556.676 1822.87 C 568.487 1817.7 579.739 1810.45 591.049 1804.22 L 656.95 1767.91 L 706.446 1740.57 C 716.824 1734.93 728.058 1729.77 737.704 1723 C 750.015 1714.36 753.271 1686.02 755.884 1671.71 C 785.194 1684.71 813.948 1701.92 842.014 1717.51 C 857.301 1726 873.045 1733.57 888.338 1742.04 C 857.992 1757.32 828.565 1774.76 798.733 1791.06 C 771.741 1806.47 744.086 1820.77 716.836 1835.72 A 7513.77 7513.77 0 0 0 622.236 1889.17 L 388.749 1761.46 C 417.636 1744.44 448.329 1729.46 477.938 1713.67 C 505.914 1698.75 533.534 1682.57 562.09 1668.84 z"/>
<path transform="translate(0,0)" fill="rgb(254,254,254)" d="M 1233.82 92.3658 C 1242.99 93.7661 1314.82 133.961 1328.64 141.085 L 1718.11 345.756 C 1766.92 371.222 1816.17 396.042 1864.43 422.517 C 1880.86 431.531 1899.86 439.903 1914.77 451.036 C 1916.34 463.261 1915.49 475.788 1915.41 488.096 L 1915.08 545.529 C 1881.94 525.901 1847.76 508.847 1813.87 490.646 L 1575 364.137 C 1513.46 331.524 1451.4 299.34 1390.53 265.516 C 1337.52 236.056 1285.39 204.741 1232.02 175.983 C 1232.16 148.63 1230.62 119.492 1233.82 92.3658 z"/>
<path transform="translate(0,0)" fill="rgb(33,30,31)" d="M 1254.88 126.067 C 1257.35 125.912 1259.86 125.736 1262.29 126.306 C 1269.11 127.904 1274.87 133.73 1278.49 139.474 C 1282.9 146.484 1286.44 155.777 1284.13 164.111 C 1282.58 169.718 1278.64 172.699 1273.8 175.43 C 1271.61 175.594 1269.49 175.761 1267.32 175.318 C 1260.52 173.93 1254.47 167.776 1250.81 162.19 C 1246.29 155.296 1243.05 146.272 1245.1 137.992 C 1246.57 132.051 1249.81 129.124 1254.88 126.067 z"/>
<path transform="translate(0,0)" fill="rgb(254,254,254)" d="M 1267.56 165.713 C 1265.82 165.032 1264.39 164.395 1262.91 163.222 C 1258.09 159.401 1254.14 153.716 1253.67 147.447 C 1253.34 143.013 1254.25 140.513 1257.16 137.23 C 1255.43 146.841 1267.76 155.507 1267.56 165.713 z"/>
<path transform="translate(0,0)" fill="rgb(180,179,180)" d="M 1257.16 137.23 C 1259.3 136.35 1261.26 136.397 1263.38 137.358 C 1266.79 138.907 1269.81 141.86 1272.52 144.383 C 1273.48 149.347 1276.94 157.537 1274.23 162.134 C 1273.18 163.924 1270.59 165.165 1268.57 165.581 C 1268.24 165.649 1267.9 165.669 1267.56 165.713 C 1267.76 155.507 1255.43 146.841 1257.16 137.23 z"/>
<path transform="translate(0,0)" fill="rgb(33,30,31)" d="M 1303.22 150.853 C 1306.27 150.96 1308.82 151.303 1311.57 152.684 C 1320.26 157.035 1326.85 166.52 1329.82 175.573 C 1331.7 181.304 1332.5 188.04 1329.49 193.555 C 1327.08 197.99 1323.28 199.546 1318.69 201.036 C 1316.67 201.019 1314.71 201.023 1312.73 200.547 C 1305.71 198.859 1299.81 193.412 1296.09 187.401 C 1291.78 180.433 1289.41 171.345 1291.75 163.294 C 1293.63 156.855 1297.5 153.859 1303.22 150.853 z"/>
<path transform="translate(0,0)" fill="rgb(254,254,254)" d="M 1305.5 161.218 C 1304.3 172.158 1307.09 180.482 1312.42 189.873 L 1311.91 191.743 C 1310.42 190.715 1308.89 189.671 1307.61 188.383 C 1303.16 183.893 1299.89 176.674 1300.42 170.284 C 1300.77 165.985 1302.21 163.901 1305.5 161.218 z"/>
<path transform="translate(0,0)" fill="rgb(180,179,180)" d="M 1305.5 161.218 C 1308.39 161.128 1310.11 161.75 1312.27 163.644 C 1317.62 168.346 1321.17 176.057 1321.27 183.184 C 1321.31 186.34 1320.5 188.287 1318.34 190.636 C 1315.82 191.797 1314.67 192.148 1311.91 191.743 L 1312.42 189.873 C 1307.09 180.482 1304.3 172.158 1305.5 161.218 z"/>
<path transform="translate(0,0)" fill="rgb(33,30,31)" d="M 1348.84 175.108 C 1351.58 175.058 1354.62 174.849 1357.24 175.801 C 1365.16 178.678 1371.82 187.485 1375.19 194.866 C 1378.05 201.108 1379.59 208.486 1376.93 215.067 C 1374.69 220.593 1371.18 222.761 1365.85 224.924 C 1363.95 224.794 1362.18 224.643 1360.34 224.128 C 1351.8 221.726 1344.92 214.829 1340.97 207.066 C 1337.63 200.511 1335.47 192.095 1338.2 184.948 C 1340.23 179.619 1343.8 177.3 1348.84 175.108 z"/>
<path transform="translate(0,0)" fill="rgb(254,254,254)" d="M 1348.2 188.126 C 1351.48 195.748 1355.28 204.49 1355.45 212.876 C 1352.79 210.304 1350.75 207.619 1349.12 204.276 C 1346.44 198.769 1346.31 193.853 1348.2 188.126 z"/>
<path transform="translate(0,0)" fill="rgb(180,179,180)" d="M 1348.2 188.126 C 1350.28 186.379 1351.3 184.777 1354.26 185.403 C 1359.03 186.411 1362.91 191.91 1364.82 196.034 C 1366.65 199.995 1368.89 206.104 1366.79 210.352 C 1366.31 211.329 1365.71 212.006 1365.05 212.837 L 1358.27 214.85 L 1355.45 212.876 C 1355.28 204.49 1351.48 195.748 1348.2 188.126 z"/>
<path transform="translate(0,0)" fill="rgb(254,254,254)" d="M 1358.27 214.85 C 1358.33 207.215 1355.09 198.348 1353.52 190.787 C 1358.47 197.811 1361.68 204.974 1365.05 212.837 L 1358.27 214.85 z"/>
<path transform="translate(0,0)" fill="rgb(254,254,254)" d="M 729.169 195.578 C 747.982 203.659 766.205 214.798 784.253 224.5 L 895.086 284.177 L 1257.66 475.915 C 1311.93 504.491 1365.41 535.238 1420.7 561.801 C 1419.43 593.624 1420.82 625.877 1421.19 657.746 L 1422.48 809.887 L 1423.68 1220.14 C 1377.03 1193.82 1329.29 1168.9 1282.05 1143.64 A 18076.6 18076.6 0 0 1 1109.31 1050.64 C 1076.83 1033.18 1042.97 1017.41 1011.19 998.744 C 1008.29 997.04 1006.41 996.252 1005.14 993.082 L 1005.09 974.129 C 1052.35 1001.95 1102.11 1026.36 1150.63 1051.99 L 1387.87 1179.41 C 1392.61 1182.01 1404.25 1189.87 1409.21 1188.42 C 1410.61 1185.51 1410.82 1182.64 1410.91 1179.45 C 1411.34 1163.24 1410.48 1146.76 1410.43 1130.51 L 1410.31 1016.26 L 1410.91 647.978 C 1384.66 634.874 1359.05 620.281 1333.01 606.737 L 1004.6 433.793 C 1003.47 421.142 1006.19 384.57 1003.45 376.577 C 999.923 366.28 969.909 354.939 959.758 350.297 C 943.001 356.941 928.196 367.63 911.761 375.04 C 883.491 357.407 853.689 342.261 824.394 326.417 C 792.874 309.37 761.606 291.609 729.361 275.953 C 729.274 249.154 729.781 222.376 729.169 195.578 z"/>
<path transform="translate(0,0)" fill="rgb(33,30,31)" d="M 794.074 252.982 C 796.023 252.949 798.049 252.893 799.982 253.177 C 805.937 254.053 812.293 259.121 815.852 263.758 C 820.126 269.328 822.665 276.692 821.63 283.738 C 820.638 290.482 817.481 294.127 812.06 297.901 C 809.604 298.282 807.27 298.468 804.786 298.17 C 798.736 297.444 793.112 293.361 789.534 288.574 C 784.991 282.493 782.756 274.193 784.207 266.686 C 785.487 260.061 788.578 256.594 794.074 252.982 z"/>
<path transform="translate(0,0)" fill="rgb(150,149,149)" d="M 793.336 265.365 C 795.065 263.338 795.981 262.711 798.536 261.949 C 803.084 262.533 806.116 264.773 808.905 268.385 C 811.526 271.779 814.102 277.166 813.421 281.594 C 813.004 284.304 811.974 286.716 809.662 288.377 C 807.964 289.597 806.173 289.85 804.18 290.221 C 799.113 287.297 794.513 283.653 792.427 277.962 C 790.777 273.462 791.401 269.604 793.336 265.365 z"/>
<path transform="translate(0,0)" fill="rgb(180,179,180)" d="M 793.336 265.365 C 795.775 269.651 791.902 272.3 797.773 275.768 C 799.31 275.749 801.026 275.163 802.098 276.439 C 804.667 279.499 804.084 286.345 804.18 290.221 C 799.113 287.297 794.513 283.653 792.427 277.962 C 790.777 273.462 791.401 269.604 793.336 265.365 z"/>
<path transform="translate(0,0)" fill="rgb(33,30,31)" d="M 839.417 271.004 C 841.751 270.993 843.932 271.254 846.178 271.89 C 852.683 273.729 857.96 279.998 860.998 285.77 C 864.57 292.554 866.478 301.079 863.854 308.512 C 861.938 313.94 858.365 316.876 853.316 319.282 C 850.824 319.204 848.591 319.012 846.235 318.127 C 838.419 315.189 832.256 307.865 829.246 300.255 C 826.711 293.847 826.008 286.306 828.987 279.925 C 831.431 274.687 834.117 273.009 839.417 271.004 z"/>
<path transform="translate(0,0)" fill="rgb(180,179,180)" d="M 839.106 280.351 A 17.9277 17.9277 0 0 1 846.014 282.838 C 850.722 285.7 853.985 290.09 855.241 295.45 C 856.604 301.271 854.899 305.493 851.979 310.469 C 848.273 310.255 845.955 309.532 843.009 307.2 C 838.58 303.695 835.891 298.77 835.235 293.171 C 834.592 287.686 835.784 284.641 839.106 280.351 z"/>
<path transform="translate(0,0)" fill="rgb(33,30,31)" d="M 752.98 229.084 C 754.075 229.171 755.146 229.328 756.225 229.535 C 764.047 231.04 770.092 235.613 774.327 242.329 C 778.242 248.539 780.072 256.463 778.183 263.658 C 776.452 270.251 772.563 273.499 766.906 276.863 C 763.884 277.195 760.671 277.703 757.736 276.662 C 751.949 274.609 747.099 268.903 744.452 263.542 C 740.811 256.169 739.008 246.891 742.119 239.016 C 744.223 233.692 747.929 231.299 752.98 229.084 z"/>
<path transform="translate(0,0)" fill="rgb(254,254,254)" d="M 754.045 238.663 C 757.451 239.823 760.36 241.331 763.131 243.659 C 767.002 246.912 770.439 251.137 770.435 256.472 C 770.431 260.981 768.15 263.711 765.088 266.696 C 761.921 266.893 759.266 266.623 756.513 264.88 C 752.96 262.632 750.902 259.362 750.061 255.275 C 748.687 248.607 750.494 244.206 754.045 238.663 z"/>
<path transform="translate(0,0)" fill="rgb(254,254,254)" d="M 980.156 383.071 C 982.856 383.229 983.83 382.736 985.862 384.724 C 987.138 394.805 986.17 405.68 986.135 415.855 L 985.992 477.631 C 964.031 494.294 936.669 506.372 912.382 519.441 C 865.199 544.83 817.589 569.602 770.679 595.47 L 352.28 821.401 C 279.98 860.126 208.684 900.947 135.266 937.564 C 134.038 938.064 132.752 938.326 131.469 938.652 C 129.185 929.252 130.814 916.165 130.804 906.301 C 130.78 883.311 130.359 860.22 131.21 837.245 C 146.332 823.798 191.312 801.973 211.352 791.104 L 410.77 684.408 L 810.717 470.072 L 902.912 420.776 C 922.011 410.512 960.473 387.964 980.156 383.071 z"/>
<path transform="translate(0,0)" fill="rgb(33,30,31)" d="M 178.512 831.11 C 182.535 831.035 185.951 831.74 189.519 833.687 C 193.983 836.123 196.961 839.441 198.353 844.394 C 200.958 853.668 198.156 864.786 193.545 872.971 C 188.032 882.755 180.347 888.96 169.646 892.139 C 165.931 892.208 162.685 891.836 159.29 890.243 C 154.883 888.174 151.538 885.122 149.911 880.452 C 147.047 872.231 149.124 861.998 152.775 854.357 C 158.249 842.899 166.801 835.476 178.512 831.11 z"/>
<path transform="translate(0,0)" fill="rgb(254,254,254)" d="M 177.848 842.328 C 181.777 842.616 185.282 842.896 187.827 846.366 C 190.385 849.854 190.069 854.588 189.097 858.558 A 38.9612 38.9612 0 0 1 183.49 871.147 C 178.198 861.493 177.73 853.04 177.848 842.328 z"/>
<path transform="translate(0,0)" fill="rgb(254,254,254)" d="M 166.532 850.852 C 167.663 853.021 167.859 854.1 167.947 856.535 C 168.237 864.574 173.944 871.153 174.88 879.116 C 174.277 879.349 173.678 879.591 173.072 879.815 C 169.964 880.961 166.136 881.552 163.164 879.67 C 160.979 878.286 159.697 875.944 159.271 873.447 C 157.787 864.745 161.399 857.534 166.532 850.852 z"/>
<path transform="translate(0,0)" fill="rgb(180,179,180)" d="M 166.532 850.852 C 169.697 846.813 173.311 844.608 177.848 842.328 C 177.73 853.04 178.198 861.493 183.49 871.147 C 180.857 874.457 178.384 876.748 174.88 879.116 C 173.944 871.153 168.237 864.574 167.947 856.535 C 167.859 854.1 167.663 853.021 166.532 850.852 z"/>
<path transform="translate(0,0)" fill="rgb(33,30,31)" d="M 298.421 767.089 C 301.65 766.907 304.528 767 307.576 768.22 C 312.068 770.017 316.068 772.642 317.944 777.273 C 321.4 785.807 318.833 796.733 315.102 804.733 C 309.711 816.296 301.643 823.913 289.832 828.322 C 285.725 828.826 282.272 828.562 278.381 827.019 C 274.598 825.517 271.48 823.246 269.884 819.39 C 266.569 811.384 269.237 801.004 272.466 793.404 C 277.826 780.791 285.9 772.397 298.421 767.089 z"/>
<path transform="translate(0,0)" fill="rgb(254,254,254)" d="M 303.772 778.658 C 306.889 781.263 308.682 783.511 309.164 787.671 C 309.795 793.107 307.179 798.541 304.383 803.03 C 302.38 801.091 301.839 799.274 301.294 796.502 C 300.151 790.676 300.569 783.715 303.772 778.658 z"/>
<path transform="translate(0,0)" fill="rgb(180,179,180)" d="M 298.118 779.146 C 300.333 779.189 301.643 779.309 303.772 778.658 C 300.569 783.715 300.151 790.676 301.294 796.502 C 301.839 799.274 302.38 801.091 304.383 803.03 C 300.913 808.111 296.943 815.083 290.493 816.685 C 288.385 817.209 286.09 817.318 283.927 817.473 C 286.171 816.434 289.24 815.183 290.772 813.194 C 293.549 809.589 291.49 802.808 290.809 798.715 C 295.031 790.578 298.201 789.024 298.118 779.146 z"/>
<path transform="translate(0,0)" fill="rgb(254,254,254)" d="M 283.927 817.473 C 282.952 816.546 281.526 815.356 280.775 814.191 C 278.363 810.446 278.663 805.588 279.821 801.466 C 282.49 791.962 289.749 783.995 298.118 779.146 C 298.201 789.024 295.031 790.578 290.809 798.715 C 291.49 802.808 293.549 809.589 290.772 813.194 C 289.24 815.183 286.171 816.434 283.927 817.473 z"/>
<path transform="translate(0,0)" fill="rgb(33,30,31)" d="M 238.656 799.052 C 242.822 798.844 246.098 799.011 249.834 801.036 C 254.154 803.378 256.957 806.771 258.282 811.521 C 261.209 822.009 256.336 835.688 250.686 844.657 C 245.014 853.66 238.63 858.185 228.428 860.715 C 226.314 860.54 224.275 860.335 222.23 859.733 C 215.092 857.633 211.781 851.948 208.483 845.747 C 208.523 836.613 209.768 828.552 213.885 820.215 C 219.222 809.411 227.259 802.662 238.656 799.052 z"/>
<path transform="translate(0,0)" fill="rgb(254,254,254)" d="M 242.356 809.743 C 245.951 812.173 248.4 814.213 249.218 818.663 C 250.168 823.832 247.94 828.914 245.737 833.452 C 243.721 831.316 242.578 829.38 241.751 826.58 C 240.252 821.507 239.801 814.502 242.356 809.743 z"/>
<path transform="translate(0,0)" fill="rgb(254,254,254)" d="M 225.181 850.066 C 221.562 846.383 219.436 842.802 219.27 837.507 C 219.001 828.978 223.735 821.757 229.518 815.941 C 229.937 824.192 230.345 832.458 231.395 840.657 L 225.181 850.066 z"/>
<path transform="translate(0,0)" fill="rgb(180,179,180)" d="M 229.518 815.941 C 232.955 811.885 237.367 810.886 242.356 809.743 C 239.801 814.502 240.252 821.507 241.751 826.58 C 242.578 829.38 243.721 831.316 245.737 833.452 C 242.474 839.93 239.38 846.851 231.935 849.267 C 229.64 850.012 227.572 850.072 225.181 850.066 L 231.395 840.657 C 230.345 832.458 229.937 824.192 229.518 815.941 z"/>
<path transform="translate(0,0)" fill="rgb(254,254,254)" d="M 1299.66 282.31 C 1328.03 295.575 1355.76 311.021 1383.34 325.892 L 1462.48 367.939 L 1697.89 491.89 C 1748.82 518.742 1799.34 547.032 1851.12 572.189 L 1851.18 745.669 C 1816.38 729.04 1782.63 709.751 1748.48 691.798 L 1533.12 578.906 L 1368.04 495.276 C 1345.29 483.501 1321.27 472.364 1299.51 458.916 C 1298.56 437.179 1299.75 415.022 1299.79 393.236 L 1299.66 282.31 z"/>
<path transform="translate(0,0)" fill="rgb(254,254,254)" d="M 1261.12 211.592 A 11494.4 11494.4 0 0 0 1611.49 401.482 A 17160.2 17160.2 0 0 0 1890.67 549.39 L 1891.03 1104.48 C 1861.23 1087.29 1830.38 1071.84 1800.05 1055.63 L 1575.36 937.288 A 6743.05 6743.05 0 0 0 1506.56 901.199 C 1489.8 892.539 1471.27 884.493 1456.07 873.263 A 8150.92 8150.92 0 0 1 1456.11 783.559 C 1468 789.255 1538.56 827.607 1545.42 827.765 C 1546.36 827.786 1547.27 827.449 1548.2 827.29 C 1552.55 821.483 1550.29 778.566 1550.27 768.253 A 5398.74 5398.74 0 0 0 1550.18 669.33 C 1538.7 660.586 1523.9 654.351 1510.99 647.935 A 1776.32 1776.32 0 0 1 1455.31 619.68 C 1454.98 605.106 1455.73 590.501 1455.35 575.929 C 1454.99 562.075 1451.94 550.913 1441.76 541.142 C 1480.91 560.493 1519.48 581.198 1558.24 601.328 A 8370.53 8370.53 0 0 1 1698.85 674.604 A 7994.86 7994.86 0 0 0 1818.08 737.651 C 1828.7 743.205 1839.04 749.462 1849.72 754.852 C 1852.87 756.445 1854.64 756.677 1857.97 755.592 C 1859.67 752.434 1859.86 748.937 1860.01 745.413 C 1861.51 710.045 1860.13 674.005 1860.2 638.574 C 1860.24 620.542 1862.11 587.824 1859.8 571.162 C 1859.39 568.227 1857.03 566.679 1854.77 565.06 C 1845.19 558.222 1833.61 553.318 1823.13 547.935 L 1773.99 522.359 L 1586.41 424.223 L 1420.8 336.564 C 1383.41 316.349 1340.91 291.541 1302.18 274.767 C 1299.53 273.619 1297.06 272.293 1294.11 272.813 C 1291.72 275.957 1291.67 281.079 1291.41 284.921 C 1290.07 304.564 1291.13 324.818 1291.16 344.537 L 1291.32 456.212 L 1261.56 439.983 C 1262.25 363.902 1261.37 287.682 1261.12 211.592 z"/>
<path transform="translate(0,0)" fill="rgb(33,30,31)" d="M 1605.21 698.525 C 1607.62 698.51 1610.01 698.551 1612.27 699.516 C 1619.56 702.634 1626.67 707.018 1633.75 710.651 A 2827.37 2827.37 0 0 1 1682.52 736.008 L 1785.41 790.328 C 1808.08 802.4 1838.45 814.104 1858.92 828.031 C 1860.28 837.86 1859.52 848.438 1859.5 858.377 L 1859.32 910.856 L 1859.16 958.514 C 1859.12 967.061 1859.87 976.474 1858.2 984.866 C 1855.53 985.13 1853.19 985.253 1850.66 984.186 C 1838.4 979.022 1826.37 971.611 1814.42 965.571 A 5830.8 5830.8 0 0 1 1722.44 918.482 A 4521.56 4521.56 0 0 1 1640.58 875.527 C 1628.56 869.072 1614.96 863.051 1603.96 855.006 L 1603.85 753.41 C 1603.84 739.866 1601.68 710.609 1605.21 698.525 z"/>
<path transform="translate(0,0)" fill="rgb(254,254,254)" d="M 1612.3 709.611 C 1667.15 734.197 1720.15 764.312 1773.08 792.784 C 1798.58 806.497 1825.96 818.371 1850.33 833.913 A 13994.7 13994.7 0 0 0 1850.35 975.175 C 1827.81 962.59 1804.32 951.57 1781.4 939.677 L 1612.07 851.161 C 1611.67 803.992 1612.07 756.781 1612.3 709.611 z"/>
<path transform="translate(0,0)" fill="rgb(254,254,254)" d="M 1005.13 451.642 C 1048.62 476.153 1093.26 498.462 1137.19 522.13 L 1278.27 596.43 A 3894.38 3894.38 0 0 0 1401.38 659.435 L 1402.03 1176.85 C 1393.02 1173.12 1383.9 1166.79 1375.34 1161.96 A 1870.69 1870.69 0 0 0 1326.12 1135.25 L 1099.36 1014.88 L 1038.59 983.154 C 1027.46 977.283 1016.61 970.522 1005.12 965.406 L 1005.13 451.642 z"/>
<path transform="translate(0,0)" fill="rgb(33,30,31)" d="M 1141.5 835.568 C 1153.49 837.837 1171.32 849.71 1183.09 855.642 A 8293.3 8293.3 0 0 1 1316.94 924.399 C 1332.95 932.782 1349.95 940.243 1365.34 949.666 C 1367.19 968.47 1366.05 988.364 1366.1 1007.3 C 1366.14 1021.85 1367.42 1037.67 1365.73 1052.04 C 1365.41 1054.76 1364.28 1056.93 1362.9 1059.26 C 1360.85 1059 1358.96 1058.59 1357.07 1057.73 C 1321.51 1041.55 1282.6 1019.2 1247.46 1000.82 C 1213.14 982.872 1177.83 966.387 1144.07 947.437 C 1142.54 946.578 1141.77 946.609 1141.16 944.841 C 1139.63 940.447 1138.35 850.649 1139.48 840.89 C 1139.71 838.906 1140.58 837.306 1141.5 835.568 z"/>
<path transform="translate(0,0)" fill="rgb(254,254,254)" d="M 1147.94 848.169 A 7171.28 7171.28 0 0 1 1357.1 955.352 L 1357.28 1047.65 C 1324.31 1031.72 1292.22 1014.22 1259.64 997.533 C 1222.54 978.532 1184.74 960.184 1148.33 939.91 A 6933.09 6933.09 0 0 1 1147.94 848.169 z"/>
<path transform="translate(0,0)" fill="rgb(33,30,31)" d="M 1201.75 890.689 C 1204.84 891.006 1208.22 891.172 1210.51 893.556 C 1215.78 899.034 1213.39 914.507 1213.32 921.657 L 1233.01 928.768 C 1233.13 932.853 1234 939.099 1232.49 942.918 C 1231.93 944.345 1231.14 945.563 1229.71 946.166 C 1225.07 948.121 1217.64 944.355 1213.14 942.745 C 1213.32 948.06 1214.8 957.554 1211.31 961.892 C 1210.17 963.31 1208.02 963.17 1206.31 963.444 C 1204.55 962.634 1202.47 961.812 1201.09 960.397 C 1196.37 955.542 1198.31 942.607 1198.5 936.42 C 1190.98 933.568 1184.37 930.701 1178.13 925.517 C 1177.7 921.101 1176.48 915.12 1178.44 911.031 C 1179.23 909.37 1179.98 909.509 1181.57 908.881 C 1186.9 909.67 1191.56 912.976 1196.18 915.611 C 1196.2 911.259 1196.16 906.875 1196.4 902.531 C 1196.71 897.044 1197.54 894.336 1201.75 890.689 z"/>
<path transform="translate(0,0)" fill="rgb(33,30,31)" d="M 1141.17 565.634 C 1153.09 568.565 1165.47 576.559 1176.44 582.146 L 1245.2 617.444 L 1328.84 659.845 C 1341.05 666.137 1355.24 671.857 1366.12 680.059 C 1367.33 726.407 1366.55 773.002 1366.72 819.373 L 1366.89 870.018 C 1366.92 878.267 1367.56 887.177 1366.71 895.364 C 1366.44 898.016 1365.35 899.414 1363.71 901.445 C 1358.85 901.223 1354.3 898.796 1349.99 896.707 C 1332.66 888.313 1142.21 787.849 1140.52 784.966 C 1138.99 782.353 1138.44 589.728 1139.72 571.074 C 1139.86 569.062 1140.42 567.483 1141.17 565.634 z"/>
<path transform="translate(0,0)" fill="rgb(254,254,254)" d="M 1148 684.727 C 1169.28 694.943 1189.91 706.795 1210.86 717.686 A 8969.2 8969.2 0 0 1 1358.02 794.987 L 1358.03 888.914 C 1347.68 884.568 1337.46 878.395 1327.52 873.142 L 1270.03 842.582 A 4600.57 4600.57 0 0 0 1203.38 807.252 C 1184.98 797.708 1166.19 788.587 1148.27 778.174 A 4097.49 4097.49 0 0 1 1148 684.727 z"/>
<path transform="translate(0,0)" fill="rgb(254,254,254)" d="M 1148.51 578.249 C 1173.98 589.824 1198.71 603.482 1223.61 616.254 L 1357.91 685.327 L 1357.94 785.24 C 1340.91 777.994 1321.35 765.843 1304.43 756.998 C 1252.49 729.85 1201.02 700.876 1148.03 675.872 C 1147.94 643.362 1147.67 610.747 1148.51 578.249 z"/>
</svg>