<svg version="1.1" xmlns="http://www.w3.org/2000/svg" style="display: block;" viewBox="0 0 2048 2048" width="1024" height="1024">
<path transform="translate(0,0)" fill="rgb(255,255,255)" d="M 0 0 L 0 2048 L 2048 2048 L 2048 0 L 0 0 z"/>
<path transform="translate(0,0)" fill="rgb(0,0,0)" d="M 1214.39 0 L 1243.86 0 C 1275.22 6.22555 1300.24 13.5311 1318.75 41.2954 C 1327.69 54.7173 1335.14 69.3179 1343.15 83.3185 L 1384.6 155.671 L 1505.16 365.672 C 1530.92 411.329 1557.15 456.522 1581.88 502.773 C 1590.46 518.826 1601.66 535.478 1608.04 552.497 C 1611.45 561.605 1609.69 573.227 1607.81 582.562 C 1606.21 590.525 1603.72 598.153 1600.82 605.729 C 1632.53 609.724 1664.43 612.232 1696.21 615.629 L 1902.03 637.682 L 1981.5 646.104 C 1996.01 647.641 2011.52 648.315 2025.76 651.416 C 2029.69 652.271 2031.96 653.97 2034.83 656.695 C 2037.45 663.069 2038.02 669.995 2038.17 676.829 C 2039.54 740.193 2037.97 803.961 2037.95 867.365 L 2037.96 1260.02 L 2037.85 1588.46 C 2038.02 1656.57 2039.91 1725.13 2037.97 1793.18 C 2037.79 1799.67 2037.45 1805.48 2034.89 1811.56 C 2031.83 1818.81 2026.2 1824.11 2018.9 1826.98 C 2004.93 1832.48 1986.34 1833.03 1971.38 1834.94 A 6149.7 6149.7 0 0 0 1905.48 1843.5 L 1621.65 1881.82 L 1388.39 1913.75 L 1320.46 1923.04 C 1304.44 1925.39 1288.14 1928.73 1271.98 1929.59 A 134.222 134.222 0 0 1 1207.07 1917.25 C 1186.16 1907.64 1167.78 1891.98 1159.6 1869.92 C 1152.25 1850.15 1155.22 1753.9 1155.21 1727.39 L 1154.89 1573.39 C 1147.66 1574.92 1140.14 1576.14 1133.08 1578.3 L 1132.51 1745.86 C 1132.53 1771.62 1135.89 1820.13 1130.41 1842.92 C 1127.3 1855.86 1119.17 1868.46 1109.88 1877.83 C 1102.24 1885.52 1092.66 1891.44 1081.94 1893.51 C 1053.68 1898.96 1024.33 1901.76 995.791 1905.52 L 834.399 1926.33 L 407.611 1982.71 L 184.035 2012.91 A 2654.98 2654.98 0 0 0 133.009 2020.3 C 123.301 2021.76 112.817 2024.23 103.017 2024.21 C 96.6547 2024.2 89.7931 2022.19 83.9741 2019.71 C 70.4053 2013.95 22.8074 1985.92 13.5822 1976.14 C 6.20638 1968.33 6.71658 1957.63 6.45944 1947.61 L 0 1942.86 L 0 456.251 C 10.1057 436.006 13.7182 424.771 32.4143 410.244 C 51.859 395.135 77.5606 387.642 101.962 386.788 C 127.156 385.905 153.181 390.68 178.183 393.545 A 9618.1 9618.1 0 0 1 305.436 408.034 L 821.867 469.407 C 849.827 435.813 873.248 398.473 898.581 362.897 A 15582.7 15582.7 0 0 0 1039.57 162.752 C 1056.41 138.235 1073.81 114.195 1090.92 89.8772 C 1102.87 72.8996 1114.82 51.5427 1130.28 37.6059 C 1154.02 16.2068 1183.81 6.60047 1214.39 0 z M 1223.08 39.3726 C 1207.52 41.2851 1193.9 45.2252 1179.34 50.9321 A 1180.78 1180.78 0 0 1 1215.53 70.9301 C 1192.81 70.9232 1170.94 71.4151 1148.76 77.0872 C 1164.05 83.9721 1179.62 89.9726 1193.08 100.152 C 1169.63 100.761 1146.82 101.678 1123.78 106.578 C 1139.78 114.877 1156.56 121.244 1170.28 133.274 C 1145.97 131.448 1123.6 132.424 1099.95 138.773 C 1116.18 147.637 1132.37 156.19 1147.84 166.379 C 1123.17 165.28 1100.59 166.205 1076.09 169.658 C 1092.43 178.925 1109.47 187.824 1124.91 198.54 C 1100.17 197.152 1075.28 196.221 1051.29 203.86 C 1068.67 213.555 1086.86 220.228 1103.42 231.74 A 165.205 165.205 0 0 0 1027.21 235.575 C 1045.12 244.578 1063.68 252.688 1079.44 265.227 C 1052.59 262.582 1030.24 264.062 1003.78 268.576 C 1020.48 276.64 1038.84 284.445 1053.64 295.736 C 1029.75 292.241 1004.2 292.037 980.971 299.472 C 998.694 308.249 1015.99 318.02 1033.32 327.538 C 1007.32 327.806 983.174 328.918 957.576 334.021 C 975.79 343.023 994.974 350.466 1011.68 362.139 C 986.018 359.071 960.323 359.134 935.174 365.903 C 953.047 377.914 974.919 383.485 993.316 395.465 C 970.021 391.338 931.948 393.063 910.803 404.65 C 930.351 412.085 948.54 420.341 966.955 430.315 C 941.556 427.022 911.358 430.491 886.919 437.59 C 907.096 448.292 929.46 454.255 949.536 464.833 C 922.149 461.373 887.55 463.891 861.7 474.336 C 883.398 482.957 906.076 487.735 927.72 497.06 C 910.192 494.623 858.529 497.794 844.346 508.978 C 844.022 509.233 843.742 509.539 843.441 509.819 L 843.692 511.248 C 856.091 518.013 896.51 525.178 912.18 528.477 C 888.711 528.823 864.281 536.243 840.98 539.812 C 842.661 546.581 844.122 553.542 846.46 560.114 C 868.915 557.195 889.54 554.862 912.17 557.923 C 894.084 562.316 876.188 567.444 858.137 571.854 C 880.393 592.219 909.324 600.154 939.116 598.874 C 976.631 597.262 1015.49 587.442 1052.28 579.956 C 1064.08 577.555 1076.44 574.059 1088.36 572.832 C 1092.03 572.454 1096.15 572.056 1099.09 574.682 C 1102.55 592.515 1100.66 613.304 1100.69 631.481 L 1100.81 737.871 L 1100.18 1242.28 L 1100.05 1394.61 C 1100.02 1420.32 1098.57 1446.78 1100.32 1472.38 C 1101.28 1486.36 1104.73 1498.33 1110.73 1510.9 C 1095.83 1497.29 1087.73 1484.47 1086.81 1463.82 C 1085.68 1438.84 1086.57 1413.5 1086.61 1388.48 L 1086.74 1251.65 L 1086.95 799.787 L 1086.97 665.946 C 1086.97 640.273 1088 614.043 1086.23 588.436 C 1059.16 594.904 1031.69 599.31 1004.64 605.555 L 1004.56 623.165 C 1032.61 621.827 1049.59 620.813 1075.47 632.924 C 1057.91 635.279 1019.58 636.71 1005.15 641.354 L 1005.17 663.893 C 1029.83 666.215 1052.07 669.22 1074.05 681.6 C 1050.84 682.673 1027.44 683.098 1004.27 684.74 L 1004.19 703.166 C 1032.93 700.696 1049.29 702.543 1074.78 717.013 L 1003.95 720.799 L 1003.95 736.627 C 1022.09 737.884 1038.96 741.64 1056.52 746.199 C 1040.34 752.591 1021.76 754.355 1004.67 757.262 L 1004.65 777.984 C 1026.45 779.645 1046.77 782.244 1067.27 790.409 L 1078.52 794.368 C 1053.89 796.305 1029.54 798.102 1004.82 798.093 L 1004.6 814.835 C 1029.87 818.504 1048.75 822.59 1072.07 833.594 C 1049.91 836.023 1027.15 836.793 1004.86 837.37 L 1004.77 851.054 C 1026.87 858.066 1050.67 863.636 1071.72 873.386 C 1050.05 876.783 1027.83 877.905 1005.91 878.097 L 1005.75 892.254 C 1028.05 896.706 1052.21 900.306 1072.28 911.654 C 1064.61 912.21 1007.89 914.701 1006.33 915.966 C 1006.11 919.441 1005.98 922.325 1006.82 925.722 C 1019.41 935.021 1053.85 939.314 1072.95 950.744 C 1050.75 951.517 1028.57 953.626 1006.46 955.645 C 1006.38 959.606 1006.23 963.582 1006.27 967.543 C 1028.75 971.872 1052.41 976.341 1073.14 986.334 C 1050.71 988.713 1028.54 990.157 1006.01 990.957 L 1006.15 1003.18 C 1027.64 1008.22 1048.93 1011.77 1069.81 1019.27 C 1069.4 1019.38 1068.98 1019.49 1068.56 1019.59 C 1050.74 1023.84 1021.17 1021 1006.69 1027.71 L 1005.83 1029.18 C 1007.23 1032.96 1010.7 1034.77 1014.22 1036.35 C 1032.66 1044.68 1053.22 1047.13 1072.46 1056.51 C 1057.57 1058.3 1042.83 1059.68 1027.83 1059.91 C 1021.28 1060.01 1014.31 1058.83 1007.88 1059.28 C 1006.45 1059.38 1006.83 1059.22 1005.91 1060.51 C 1004.87 1061.97 1004.75 1062.59 1004.63 1064.31 C 1005.76 1067.36 1007.76 1068.84 1010.59 1070.22 C 1017.91 1073.78 1027.02 1075.34 1034.87 1077.58 C 1048.89 1081.58 1062.97 1085.88 1076.68 1090.89 C 1061.65 1093.47 1046.97 1094.04 1031.77 1094.03 C 1025.23 1094.02 1018.44 1093.42 1011.94 1093.96 C 1009.52 1094.16 1007.88 1094.54 1006.02 1096.22 C 1005.64 1098.8 1005.99 1100.17 1007.56 1102.35 C 1009.12 1104.53 1011.88 1106.88 1014.29 1108.08 C 1022.67 1112.29 1033.02 1114.84 1041.94 1117.76 C 1052.88 1121.34 1063.48 1125.28 1074.23 1129.33 C 1060.72 1132.24 1046.94 1133.57 1033.15 1134.15 C 1028.68 1134.34 1012.45 1133.45 1009.56 1134.77 C 1008.99 1135.03 1008.64 1135.62 1008.18 1136.05 C 1008 1139.49 1007.75 1142.23 1009 1145.48 C 1018.51 1152.12 1033.36 1153.98 1044.45 1157.2 C 1054.39 1160.09 1064.21 1163.95 1073.12 1169.24 C 1050.34 1173.02 1028.63 1172.54 1005.64 1171.93 C 1005.7 1175.85 1005.33 1180.11 1006.98 1183.74 C 1020 1192.83 1053.86 1196.18 1073.44 1207.2 C 1050.21 1212.07 1028.43 1211.53 1004.96 1210.89 L 1008.65 1223.17 C 1028.63 1231.72 1050.25 1234.46 1070.15 1243.8 C 1048.78 1250.26 1028.15 1249 1006.15 1248.06 C 1006.27 1252.04 1006.25 1256.08 1006.68 1260.04 C 1029.43 1267.74 1051.95 1272.2 1073.04 1284.35 C 1050.36 1286.91 1028.08 1288.17 1005.46 1284.26 L 1008.34 1297.5 C 1018.69 1301.41 1064.18 1315.33 1068.58 1321.64 C 1054.61 1328.03 1031.85 1324.42 1016.72 1323.14 C 1015.29 1323.02 1010.39 1322.13 1009.27 1322.5 C 1008.81 1322.66 1008.63 1323.25 1008.31 1323.62 C 1008.21 1326.48 1007.9 1329.2 1008.89 1331.94 C 1027.04 1345.11 1053.16 1342.98 1072.43 1360.35 C 1057.89 1362.19 1044.13 1362.48 1029.51 1361.39 C 1023.21 1360.92 1012.4 1358.18 1006.89 1360.09 C 1006.53 1362.56 1006.08 1368.17 1007.65 1370.16 C 1013.07 1377.01 1041.75 1382.53 1051.03 1386.08 C 1059.41 1389.28 1067.35 1393.34 1074.5 1398.78 C 1052.01 1399.49 1028.72 1398.88 1006.63 1394.21 C 1006.64 1398.48 1006.5 1402.81 1006.77 1407.07 L 1008.18 1407.81 C 1024.79 1416.41 1055.82 1421.13 1068.23 1434.13 L 1068.19 1435.88 C 1058.38 1440.73 1017.22 1434.15 1006.46 1430.9 C 1007.84 1435.79 1009.41 1440.73 1010.58 1445.68 C 1025.21 1450.38 1061.6 1460.54 1071.85 1468.98 L 1072.8 1471.23 C 1070.86 1473.72 1068.57 1474.14 1065.48 1474.45 C 1050.81 1475.92 1034.69 1473.17 1020.22 1470.79 L 1020.6 1471.33 L 1017.65 1470.6 C 1018.77 1475.87 1025.4 1480.26 1029.7 1483.09 C 1043.51 1492.18 1110.98 1522.7 1126.33 1522.62 C 1145.63 1522.54 1164.83 1519.55 1183.95 1517.13 A 6598.38 6598.38 0 0 1 1265.74 1506.71 A 4458.15 4458.15 0 0 1 1323.82 1500.06 C 1334.62 1498.87 1346.3 1498.4 1356.84 1495.74 C 1369.05 1492.66 1382.92 1486.95 1391.91 1477.94 C 1400.48 1469.35 1407.32 1454.5 1409.87 1442.64 C 1414.55 1420.93 1412.52 1395.53 1412.65 1373.27 C 1412.86 1339.46 1413.28 1305.58 1412.58 1271.77 C 1411.59 1223.94 1412.35 1176.02 1412.26 1128.18 L 1411.94 863.43 L 1412.31 699.009 C 1412.34 667.111 1411.29 634.791 1412.81 602.957 C 1449.66 615.934 1499.07 642.296 1537.87 623.366 C 1552.62 616.173 1563.72 602.403 1568.87 586.95 C 1573.54 572.96 1572.06 564.371 1565.41 551.533 C 1556.05 533.454 1545.04 516.287 1535.32 498.417 C 1485.95 407.686 1433.56 318.803 1382.29 229.15 A 11312 11312 0 0 1 1323.04 124.876 C 1311.13 103.624 1299.71 79.6536 1285.02 60.2504 C 1278.13 51.1439 1267.83 44.8005 1257.01 41.4167 C 1246.5 38.1315 1233.9 37.7928 1223.08 39.3726 z M 107.622 427.591 L 106.389 1984.48 C 138.178 1978.86 170.475 1975.84 202.485 1971.73 L 366.824 1949.91 L 912.126 1877.86 C 966.289 1870.61 1020.55 1864.32 1074.66 1856.52 C 1083.46 1849.71 1091.28 1841.39 1092.76 1829.87 C 1094.12 1819.27 1093.29 1807.81 1093.25 1797.1 L 1093.05 1738.98 C 1092.97 1668.63 1092.12 1598.16 1093.07 1527.82 L 1079.87 1523.52 A 27367.1 27367.1 0 0 0 1079.12 1836.68 L 382.61 1928.32 A 12767 12767 0 0 1 218.813 1949.93 C 187.381 1953.86 152.243 1956.68 121.486 1962.92 L 120.937 1658.5 L 121.307 979.5 L 121.087 732.878 C 121.094 697.36 119.829 661.304 120.926 625.852 C 121.013 623.043 121.558 620.957 123.363 618.75 C 141.038 617.095 178.802 622.534 198.47 624.309 L 372.043 640.529 L 992.728 698.309 L 992.821 684.34 C 919.582 679.091 846.466 670.875 773.344 664.164 L 276.999 616.356 C 258.33 614.477 133.308 605.061 124.148 600.296 C 120.694 582.422 123.023 540.343 123.073 519.085 C 123.127 496.294 121.493 472.441 123.722 449.858 C 149.962 450.108 177.588 455.378 203.722 458.46 L 343.909 474.534 L 711.645 516.163 C 749.545 520.344 787.293 526.131 825.232 529.876 L 830.504 509.39 C 792.162 503.179 753.116 499.827 714.522 495.408 L 490.317 469.696 A 17841.1 17841.1 0 0 0 225.671 439.943 C 187.932 435.976 144.905 429.042 107.622 427.591 z M 92.3545 430.884 C 72.1539 438.561 56.8195 445.267 45.1359 464.237 A 1394.61 1394.61 0 0 0 89.8306 473.038 C 69.3032 480.872 43.6079 487.378 26.5061 501.758 C 46.4538 506.185 66.6147 510.257 86.3549 515.523 C 65.3865 522.29 41.9271 528.582 23.5481 540.969 C 43.6556 547.721 66.1968 551.844 87.0507 555.929 C 66.1217 562.757 43.5875 569.659 24.5488 580.874 C 45.5214 587.987 68.1158 590.264 89.459 596.202 C 69.5502 603.101 41.9488 608.565 25.0031 620.742 C 46.0579 627.025 68.2899 630.683 89.8281 635.104 C 68.5754 641.616 42.1899 647.666 23.5183 659.979 C 44.5818 665.253 67.7635 668.352 87.8961 676.279 C 67.4464 683.411 43.8641 688.783 24.9198 699.109 C 43.7352 705.233 69.8362 711.191 89.4269 714.782 C 70.5504 720.415 40.2032 728.588 24.227 739.371 C 45.1126 746.304 67.1806 749.724 88.3151 756 C 66.8673 762.357 43.9772 768.781 23.516 777.785 C 37.7014 783.463 75.6084 792.306 91.4727 795.008 C 80.5082 797.761 32.088 809.864 26.1801 816.077 C 29.2245 819.503 78.4846 831.812 87.1684 834.69 C 66.1466 840.896 43.8661 846.145 23.9885 855.443 C 45.1383 863.295 68.0252 866.465 89.6012 873.094 C 67.3583 879.629 44.2749 885.947 22.8506 894.87 C 44.1393 903.167 67.6363 906.963 89.601 913.319 C 67.9134 921.216 43.348 924.46 22.5991 934.328 C 43.6779 942.164 66.4737 947.055 88.2303 952.914 C 79.206 954.99 28.4175 966.413 24.5482 971.751 C 31.6295 977.636 76.3969 987.935 88.5744 991.824 C 66.4862 998.864 43.5821 1003.95 21.1181 1009.7 C 42.8625 1019.5 67.983 1024.26 90.8937 1030.88 C 68.7945 1038.35 45.65 1042.32 23.5689 1050.12 C 45.0836 1057.49 67.4126 1062.33 89.1013 1069.2 C 68.1647 1077.38 45.3334 1079.89 24.4215 1088.25 C 44.2238 1096.68 66.2976 1101.48 87.0496 1107.21 C 68.077 1117.15 43.1533 1118.44 22.7908 1125.62 C 42.1916 1135.15 66.0536 1139.94 86.9709 1145.34 C 65.7501 1151.82 44.0054 1155.65 22.7858 1161.83 C 42.7162 1171.48 65.0317 1175.02 85.1857 1183.85 C 65.2847 1190.94 44.5044 1194.12 24.5531 1200.63 C 42.9998 1209.77 65.4911 1213.13 82.8085 1223.15 C 63.4323 1229.88 43.0215 1233.62 23.3825 1239.58 C 44.4906 1247.93 66.6287 1252.95 87.754 1261.04 C 65.8728 1265.89 43.8712 1271.2 22.2683 1277.17 C 43.3922 1285.3 67.9613 1290.53 87.7434 1298.92 C 66.7216 1305.01 44.4161 1308.03 23.8089 1315.01 C 44.5492 1322.83 65.5664 1329.76 86.2772 1337.75 C 65.5125 1341.73 44.8235 1345.28 24.5958 1351.59 C 41.9394 1362.27 63.5476 1366.85 82.2733 1374.81 C 63.8069 1381.67 43.4496 1383.95 24.4929 1389.59 L 31.4285 1393.06 C 48.442 1400.19 66.2063 1406.01 82.7964 1414.02 C 64.3608 1420.25 44.3043 1421.93 25.354 1426.21 C 44.5496 1436.27 65.1212 1442.99 84.8291 1451.86 C 73.6509 1454.79 33.7373 1461.46 27.2952 1465.32 C 27.5406 1465.81 27.6274 1466.43 28.0312 1466.8 C 30.8793 1469.44 41.4052 1471.73 45.3315 1473.07 C 58.0723 1477.43 71.0298 1482.44 82.5881 1489.43 C 63.6553 1494.97 43.2795 1495.98 24.7432 1502.36 C 43.1027 1514.02 65.4839 1519.29 84.9385 1529.14 C 84.5092 1529.27 84.0814 1529.41 83.6506 1529.54 C 73.5821 1532.46 28.7817 1537.35 25.0457 1541.08 C 27.5204 1545.02 74.8541 1563.67 84.2653 1568.69 C 64.674 1573.08 44.2272 1573.88 24.8434 1578.73 C 44.0337 1590.03 66.5576 1595.44 85.4729 1607.34 C 66.223 1613.39 43.9658 1613.81 23.9074 1615.81 C 44.022 1626.71 65.8811 1634.26 86.0531 1644.99 C 70.1482 1649.82 38.2031 1650.21 27.8344 1654.54 L 27.2649 1655.8 C 32.5499 1661.64 75.209 1677.96 86.4805 1684.35 C 66.1201 1689.77 45.1938 1688.79 24.6347 1692.4 C 44.8488 1702.24 65.1427 1713.42 85.9828 1721.81 C 65.4819 1725.31 44.7086 1725.13 24.2525 1728.21 C 44.6473 1738.93 66.3272 1747.13 87.5128 1756.12 C 67.2684 1761.37 45.4257 1762.13 24.6751 1764.71 C 43.9881 1776.35 66.307 1782.26 85.2664 1794.71 C 65.8585 1797.57 46.1129 1797.31 26.7454 1800.48 C 45.419 1812.73 67.4059 1819.42 86.1422 1831.32 C 66.1304 1833.45 45.9984 1833.72 25.989 1835.79 C 45.8351 1847.3 67.9037 1856.33 87.0116 1868.77 C 66.9641 1871.25 46.3507 1870.13 26.4699 1873.2 A 5545.61 5545.61 0 0 0 82.2964 1902.51 C 63.7615 1903.9 44.1658 1904.08 25.874 1907.36 C 45.6092 1918.62 66.2666 1927.88 86.0215 1938.92 C 67.6277 1941.91 48.7643 1942.74 30.1982 1944.34 C 51.4898 1956.88 74.3012 1968.81 94.4387 1983.07 C 96.5658 1885.22 95.0814 1787.06 95.2352 1689.18 L 95.1856 1042.45 L 96.062 671.762 C 96.1663 642.839 98.3487 439.454 95.042 431.107 L 92.3545 430.884 z M 135.45 463.301 C 134.687 505.714 135.298 548.212 135.36 590.634 L 724.453 646.949 L 870.039 660.407 C 910.919 664.379 951.727 668.903 992.673 672.191 C 992.757 657.064 991.809 642.082 991.231 626.978 C 990.921 618.886 991.236 610.656 990.248 602.619 C 986.647 617.972 984.134 638.427 969.675 647.593 C 967.669 648.865 965.531 649.908 963.386 650.92 L 365.239 591.268 L 216.171 576.752 C 194.307 574.583 171.933 573.392 150.219 570.277 C 149.487 540.073 148.964 509.215 149.935 479.024 C 181.812 478.937 214.054 484.574 245.667 488.332 L 407.111 507.257 A 22777.4 22777.4 0 0 1 681.547 538.369 A 7122.71 7122.71 0 0 1 781.588 550.255 C 796.728 552.178 812.235 553.575 827.231 556.301 L 826.172 541.174 C 794.321 539.19 762.429 534.539 730.722 530.945 L 543.489 509.23 L 249.834 475.67 C 211.775 471.334 173.415 468.208 135.45 463.301 z M 627.747 547.8 C 627.005 566.374 627.115 584.953 627.134 603.538 L 865.751 626.624 C 889.965 629.033 914.031 633.091 938.285 635.035 L 938.523 613.276 C 904.452 613.267 868.789 603.658 844.165 578.866 A 279.631 279.631 0 0 1 837.008 571.276 L 685.417 554.084 C 666.244 552.019 646.952 549.332 627.747 547.8 z M 975.991 609.47 C 970.923 609.977 965.859 610.391 960.862 611.403 C 960.8 617.098 959.13 633.358 962.512 637.322 C 969.14 634.362 972.131 629.914 974.7 623.118 C 975.989 619.707 977.909 613.138 976.303 609.764 L 975.991 609.47 z M 944.938 612.372 C 944.817 618.412 943.093 630.627 946.759 635.277 C 947.193 629.145 948.715 619.306 946.494 613.557 L 944.938 612.372 z M 1424.47 637.156 C 1424.5 640.82 1424.42 644.516 1424.6 648.175 A 11610.4 11610.4 0 0 1 1721.99 674.672 L 1820.37 684.411 C 1837.17 686.072 1854.34 688.572 1871.17 689.191 A 8749.02 8749.02 0 0 1 1871.09 797.109 C 1826.76 795.875 1781.98 789.725 1737.76 785.888 L 1543.41 770.981 A 7461.73 7461.73 0 0 0 1464.97 765.013 C 1452.07 764.175 1438.64 762.762 1425.72 763.162 C 1424.61 765.293 1424.22 767.971 1424.86 770.385 C 1425.16 771.494 1425.41 771.696 1426.01 772.501 C 1438.73 776.121 1455.58 775.321 1468.96 776.22 C 1503.34 778.529 1537.8 780.362 1572.14 783.075 A 18277.9 18277.9 0 0 1 1985.46 818.494 L 1986.01 1449.92 L 1986.29 1669.47 C 1986.34 1706.41 1987.17 1743.49 1986.38 1780.42 L 1534.33 1842.05 C 1440.61 1854.29 1346.38 1865.3 1253.09 1880.41 C 1252.93 1765.59 1253.94 1650.72 1252.5 1535.9 C 1243.25 1537.3 1233.88 1538.45 1224.73 1540.37 C 1232.25 1544.32 1240.96 1547.82 1245.9 1555.03 L 1245.96 1557.33 C 1241.1 1561.97 1208.87 1563.02 1199.82 1564.28 C 1195.01 1564.97 1190.18 1565.58 1185.41 1566.57 L 1186.9 1567.12 C 1200.98 1572.33 1237.96 1578.54 1246.12 1589.42 C 1245.78 1591.44 1246.28 1590.91 1244.7 1591.95 C 1236.93 1597.12 1198.49 1597.01 1187.59 1597.36 C 1187.9 1597.56 1188.2 1597.76 1188.51 1597.96 C 1201.12 1605.97 1240.55 1610.74 1245.51 1624.27 L 1245.15 1626.37 C 1233.71 1633.15 1197.25 1625.2 1190.81 1630.66 C 1198.49 1642.31 1243.08 1643.56 1246.53 1657.96 C 1244.19 1660.99 1241.1 1661.72 1237.38 1662.24 C 1221.6 1664.45 1204.73 1662.29 1188.74 1663.12 L 1189.99 1663.92 C 1202.87 1672.1 1240.77 1678.49 1245.54 1692.22 L 1245.02 1694.15 C 1232.77 1699.25 1203.85 1695.98 1189.32 1696.86 L 1190.65 1697.61 C 1205.56 1705.89 1238.13 1712.4 1247.18 1724.67 L 1247.37 1726.95 C 1238.31 1735.23 1205.84 1725.55 1193.14 1731.19 L 1193.3 1732.63 C 1206.36 1742.93 1239.42 1744.89 1247.27 1759.76 C 1246.96 1761.64 1247.41 1761.45 1245.95 1762.36 C 1234.78 1769.29 1201.14 1758.31 1191.09 1764.02 C 1195.97 1773.22 1240.31 1780.35 1246.48 1794.45 C 1245.64 1796.56 1245.71 1796.55 1243.71 1797.39 C 1231.8 1802.36 1199.6 1793.72 1192.05 1798.6 C 1204.18 1809.87 1238.13 1814.69 1246.94 1827.75 C 1246.72 1829.27 1247.08 1829.82 1245.61 1830.71 C 1232.72 1838.44 1203.25 1824.67 1193.18 1832.54 C 1198.08 1843.74 1241.4 1848.41 1245.88 1865.85 C 1244.66 1867.79 1245.42 1867.41 1243.44 1867.87 C 1233.96 1870.09 1207.39 1864.17 1196.76 1862.45 C 1214.64 1877.26 1237.63 1889.46 1261.6 1887.21 C 1280.05 1885.47 1298.59 1881.82 1316.98 1879.33 L 1455.59 1860.76 L 1994.21 1787.7 L 1993.47 1116.37 L 1993.72 858.435 C 1994.01 802.466 1995.32 746.414 1994.73 690.453 C 1963.77 686.482 1932.35 684.488 1901.25 681.741 A 13363.8 13363.8 0 0 1 1722.5 665.615 L 1527.18 646.252 C 1492.98 642.961 1458.81 638.699 1424.47 637.156 z M 1509.73 692.071 C 1505.09 696.245 1502.95 700.011 1502.57 706.367 C 1502.36 709.777 1503.25 713.082 1505.54 715.665 C 1508.82 719.357 1515.25 719.693 1519.89 720.269 C 1533.72 721.983 1547.89 722.481 1561.79 723.492 A 3755.96 3755.96 0 0 1 1629.05 728.951 L 1845.49 748.557 L 1848.5 748.802 C 1852.49 744.637 1850.53 727.192 1850.47 721.245 L 1605.75 699.739 C 1573.97 697.145 1541.56 692.887 1509.73 692.071 z M 172.806 698.855 C 171.776 749.332 172.78 799.847 172.778 850.335 L 173.477 1210 A 58218.2 58218.2 0 0 0 173.865 1886.85 L 1032.69 1780.13 L 1032.39 1503.25 C 1027.97 1499.94 1023.65 1496.82 1018.85 1494.06 L 1019.01 1669.6 C 1018.98 1693.25 1021.62 1741.86 1015.81 1763.31 A 13131.3 13131.3 0 0 1 1015.02 1491.56 C 1009.71 1483.77 1004.82 1476 1000.37 1467.69 L 1000.1 1505.67 C 982.271 1507.72 790.03 1520.25 786.424 1519.21 C 785.72 1519.01 784.423 1518.05 783.965 1517.66 C 775.787 1510.65 778.969 1466.78 779.039 1455.92 C 793.104 1454.71 807.83 1456.67 821.645 1454.41 C 822.87 1452.63 823.025 1451.93 823.423 1449.87 C 827.832 1447.81 973.53 1442.11 995.422 1440.41 C 992.168 1415.04 993.875 1388.24 993.976 1362.67 C 961.682 1363.48 929.269 1364.97 896.978 1365.11 L 897.021 1397.42 C 856.495 1400.63 815.63 1400.46 775.022 1402.65 C 774.661 1396.39 774.371 1390.25 774.634 1383.98 L 876.105 1380.17 L 876.085 1364.82 C 841.987 1365.53 807.893 1367.56 773.8 1368.03 L 773.894 1351.34 C 801.324 1350.87 828.826 1349.17 856.233 1349.09 L 856.413 1331.8 A 6023.13 6023.13 0 0 0 773.952 1333.55 L 773.945 1316.97 A 3977.69 3977.69 0 0 1 825.601 1315.69 L 825.728 1299 C 808.443 1299.22 791.109 1300.02 773.832 1299.89 L 773.924 1284.1 C 792.725 1283.66 811.581 1282.96 830.387 1283.04 L 830.48 1265.99 A 1276.04 1276.04 0 0 0 773.885 1266.93 L 773.882 1250.95 A 3532.13 3532.13 0 0 1 874.74 1248.78 L 874.761 1232.95 C 841.134 1233.13 807.436 1234.95 773.84 1234.81 L 773.891 1217.47 A 4823.3 4823.3 0 0 1 834.289 1217.17 L 834.242 1202.77 L 833.211 1200.72 C 821.368 1197.86 787.837 1200.95 773.423 1200.83 L 773.547 1185.47 A 15476.5 15476.5 0 0 0 940.985 1183.66 C 951.656 1183.51 985.676 1184.87 993.165 1182.31 C 994.327 1179.97 994.787 1178.82 994.549 1176.21 C 992.536 1173.51 991.051 1172.64 987.663 1172.22 C 980.764 1171.38 973.427 1172.57 966.47 1172.71 C 951.875 1173 937.241 1172.75 922.639 1172.85 L 773.737 1173.21 C 773.692 1131.38 772.266 1089.08 773.602 1047.32 C 845.304 1048.77 916.956 1052.38 988.631 1053.94 C 990.017 1053.97 990.866 1053.64 992.036 1052.94 C 993.402 1050.24 993.199 1048.36 992.971 1045.46 L 991.983 1044.28 C 951.902 1041.88 911.558 1041.59 871.418 1040.36 C 834.179 1039.21 796.956 1037.08 759.717 1036.08 L 759.056 1423.15 L 745.234 1424.02 L 745.291 1160.25 C 745.284 1116.91 743.806 1073.07 745.137 1029.78 C 745.21 1027.41 745.575 1025.04 747.275 1023.24 C 748.297 1022.16 749.378 1022.4 750.8 1022.3 C 772.919 1020.77 801.375 1023.6 824.326 1024.37 C 880.316 1026.26 936.72 1028.95 992.722 1029.31 L 992.718 1014.02 L 384.717 993.757 L 304.03 990.927 C 284.782 990.372 241.703 991.704 225.918 986.44 C 224.022 982.588 223.591 978.413 223.36 974.172 C 221.623 942.286 223.249 909.353 223.282 877.36 C 223.318 842.534 221.874 807.071 223.31 772.309 C 223.476 768.268 223.753 763.551 225.143 759.739 C 225.876 757.728 225.369 758.437 227.289 757.36 C 252.576 756.322 279.214 759.984 304.481 761.813 L 459.823 773.335 L 759.507 794.802 A 12379.3 12379.3 0 0 1 991.101 812.968 L 991.051 766.374 L 382.825 716.779 C 331.475 712.917 280.28 707.726 228.957 703.574 C 210.446 702.076 191.337 699.357 172.806 698.855 z M 1424.56 740.945 C 1424.46 744.231 1423.79 748.321 1425.66 751.132 C 1432.04 754.48 1518.61 758.192 1532.85 759.098 C 1566.49 761.238 1600.04 764.309 1633.65 766.802 A 7548.61 7548.61 0 0 1 1741.7 774.719 C 1781.07 778.125 1820.68 783.281 1860.13 785.119 C 1860.28 781.987 1861.05 778.279 1859.17 775.593 C 1857.7 774.834 1856.6 774.359 1854.94 774.174 C 1834.44 771.893 1813.53 771.229 1792.95 769.555 A 9773.29 9773.29 0 0 0 1628.66 756.882 C 1560.66 751.831 1492.67 744.378 1424.56 740.945 z M 240.025 775.609 A 18934.2 18934.2 0 0 0 240.535 972.291 L 778.529 990.66 C 849.792 993.313 921.239 994.903 992.417 999.341 L 992.356 970.372 C 988.805 966.13 985.354 961.712 981.575 957.673 C 966.567 941.617 951.795 924.975 935.938 909.764 C 931.149 923.359 925.953 949.692 917.759 959.998 C 915.022 961.283 915.159 961.29 912.269 960.41 C 904.475 952.496 899.562 924.056 896.343 912.524 C 892.773 899.735 872.635 826.652 865.26 820.781 C 862.565 818.636 858.832 817.954 855.483 817.655 C 826.693 815.084 797.638 813.937 768.787 812.06 L 610.166 801.298 A 36146.5 36146.5 0 0 0 240.025 775.609 z M 1424.73 824.644 A 3181.09 3181.09 0 0 0 1424.94 872.934 C 1485.65 873.732 1546.65 878.46 1607.33 881.106 A 12316.1 12316.1 0 0 1 1817.22 891.571 C 1852.47 893.421 1887.89 894.522 1923.09 897.029 A 63835.2 63835.2 0 0 1 1922.04 1643.82 L 1768.02 1659.96 C 1746.4 1662.1 1724.68 1664.88 1703.01 1666.39 L 1702.4 1330.54 C 1702.42 1294.51 1701.3 1258.39 1701.87 1222.38 A 7288.46 7288.46 0 0 0 1841.6 1220.05 C 1865.23 1219.51 1889.47 1220.08 1913.02 1218.44 L 1913.02 1203.58 C 1842.52 1206.03 1771.7 1208.72 1701.17 1208.95 C 1701.09 1164.44 1700.06 1119.69 1701.22 1075.2 L 1834.89 1076.84 C 1858.52 1077.3 1882.68 1079.02 1906.28 1078.4 C 1909 1078.33 1911.08 1078.34 1913.41 1076.92 C 1913.86 1074.54 1914.2 1072.94 1913.7 1070.53 C 1909.6 1069.06 1905.52 1068.94 1901.21 1068.75 C 1865.45 1067.22 1829.61 1067.12 1793.83 1066.33 A 16833 16833 0 0 0 1538.49 1062.01 L 1468.24 1061.14 C 1455.25 1060.92 1438.75 1058.51 1426.13 1061.34 C 1424.72 1063.5 1425.14 1066.07 1425.19 1068.55 C 1429.65 1072.86 1438.89 1071.82 1444.83 1071.72 C 1486.88 1071.04 1529.16 1072.39 1571.23 1072.84 C 1610.4 1073.26 1649.91 1072.69 1689.01 1075.01 L 1689.98 1394.63 C 1634.15 1399.77 1578 1402.44 1522.05 1406.12 C 1489.77 1408.24 1457.28 1412.09 1424.98 1413.24 L 1425.05 1426.47 C 1476.62 1424.31 1528.02 1416.78 1579.55 1414.83 A 5116.5 5116.5 0 0 1 1655.15 1409.29 C 1663.77 1408.7 1672.78 1406.81 1681.37 1406.82 C 1684.31 1406.82 1686.6 1407.16 1689.33 1408.23 C 1690.99 1410.09 1691.25 1410.22 1691.52 1412.66 C 1689.51 1414.62 1687.12 1414.98 1684.42 1415.32 C 1676.19 1416.36 1667.74 1416.43 1659.46 1417.08 L 1578.22 1422.72 A 6363.62 6363.62 0 0 1 1469.59 1430.33 C 1454.76 1431.25 1439.74 1432.82 1424.9 1433.13 C 1424.87 1436.79 1424.26 1441.48 1425.76 1444.86 C 1442.55 1446.4 1473.9 1442.18 1491.67 1440.9 L 1619.14 1431.87 C 1642.51 1430.15 1666.6 1427 1689.98 1426.96 L 1690 1454.95 C 1622.13 1461.97 1553.51 1464.76 1485.47 1470.42 C 1461.38 1472.43 1436.33 1472.91 1412.54 1477.05 C 1408.7 1481.64 1405.15 1486.19 1401.86 1491.2 C 1426.66 1490.52 1451.61 1487.83 1476.34 1485.88 L 1616.17 1474.39 C 1640.49 1472.39 1665.61 1468.96 1689.99 1468.82 L 1689.99 1496.15 L 1455.02 1515.37 C 1406.05 1519.26 1357.33 1523.12 1308.57 1529.19 C 1294.8 1530.9 1280.53 1531.75 1266.92 1534.22 L 1267.02 1820.21 C 1328.85 1810.41 1391.46 1804.14 1453.6 1796.37 L 1784.57 1754.9 A 8912.89 8912.89 0 0 0 1908.06 1739.85 C 1925.32 1737.6 1942.87 1735.79 1960.01 1732.78 L 1960.18 857.136 C 1932.43 854.368 1904.42 853.411 1876.58 851.814 L 1732.72 843.281 L 1519.7 829.678 C 1488.1 827.861 1456.38 825.518 1424.73 824.644 z M 990.279 854.068 C 982.252 856.397 961.23 859.599 956.86 865.832 C 956.59 869.393 958.078 871.491 960.29 874.128 C 964.876 879.597 970.664 884.487 975.883 889.363 L 992.927 905.145 C 992.963 897.276 994.482 858.272 991.929 854.086 L 990.279 854.068 z M 1425.03 886.004 L 1425.01 1045.58 C 1523.67 1049.17 1622.68 1049.8 1721.4 1051.3 L 1912.93 1055.26 L 1912.53 909.038 L 1852.76 904.674 C 1841.8 903.908 1829.95 902.239 1818.98 903.271 C 1833.8 909.197 1848.58 913.723 1864.05 917.595 C 1853.47 923.236 1842.56 928.161 1831.89 933.609 C 1845.39 955.906 1860.51 977.763 1872.13 1001.1 C 1866.04 1009.22 1859.55 1016.96 1853.01 1024.73 C 1841.91 1003.63 1830.58 982.636 1819.74 961.414 C 1814.51 975.701 1809.11 990.498 1805.66 1005.31 C 1797.89 971.034 1792.1 936.989 1782.44 903.089 A 19054.9 19054.9 0 0 0 1546.45 892.337 C 1506.07 890.586 1465.31 889.462 1425.03 886.004 z M 1425.19 1085.06 A 2431.76 2431.76 0 0 0 1425.56 1125.09 C 1433.61 1133.98 1442.38 1143.3 1448.94 1153.34 C 1442.05 1169.65 1428.58 1190.6 1425.66 1207.6 C 1423.89 1217.87 1424.8 1229.48 1425.44 1239.87 C 1446.49 1261.3 1461.55 1288.44 1482.31 1310.14 L 1541.53 1212.13 C 1549.74 1198.71 1557.28 1183.15 1567.38 1171.09 L 1616.28 1243.7 A 3479.29 3479.29 0 0 1 1655.66 1304.15 C 1663.6 1316.71 1670.82 1330.2 1679.85 1342 L 1679.41 1087.68 C 1644.6 1085.68 1609.4 1086.21 1574.52 1085.98 L 1425.19 1085.06 z M 1711.15 1088.22 L 1711.7 1196.86 C 1739.57 1196.88 1767.41 1195.51 1795.27 1194.99 C 1833.14 1194.27 1871.25 1194.24 1909.06 1192.29 L 1912.03 1191.96 C 1914.7 1187.4 1912.89 1101.4 1912.45 1089.99 A 6470.87 6470.87 0 0 0 1763.42 1088.74 C 1746.01 1088.7 1728.55 1087.96 1711.15 1088.22 z M 1566.68 1195.63 C 1557.39 1209.36 1549.24 1223.99 1540.69 1238.18 L 1506.73 1293.99 C 1498.76 1307.31 1491.4 1321.81 1482.02 1334.16 C 1464.29 1309.06 1445.63 1283.64 1425.18 1260.71 C 1425.17 1264.65 1424.68 1270.02 1426.14 1273.7 C 1429.77 1282.82 1473.88 1338.22 1482.62 1347.36 C 1490.77 1338.86 1496.9 1327.04 1502.99 1316.98 C 1516.19 1295.19 1528.54 1272.86 1541.87 1251.15 C 1550.34 1237.48 1558.99 1223.88 1566.95 1209.91 L 1638.61 1316.51 C 1648.96 1331.92 1658.44 1349.04 1669.76 1363.68 C 1671.79 1366.29 1673.72 1368.28 1676.4 1370.2 L 1678.79 1370.53 C 1681.89 1366.6 1681.21 1355.39 1680.73 1350.35 C 1680.48 1347.72 1680.27 1346.91 1678.74 1344.8 C 1677.7 1347.32 1677.33 1351.45 1674.97 1352.69 C 1666.86 1347.76 1596.91 1239.11 1586.24 1223.38 C 1580.28 1214.59 1574.12 1202.95 1566.68 1195.63 z M 941.693 1198.84 L 941.714 1216.14 C 959.673 1216.08 977.763 1216.47 995.7 1215.6 C 995.688 1210 995.791 1204.43 995.117 1198.87 C 977.32 1198.85 959.485 1198.57 941.693 1198.84 z M 855.024 1199.98 L 855.016 1217.33 L 921.533 1216.23 C 921.572 1210.78 921.692 1205.3 921.588 1199.85 L 855.024 1199.98 z M 987.765 1231.49 L 894.836 1232.34 C 894.554 1237.56 893.383 1243.22 896.252 1247.75 C 898.633 1248.47 900.307 1248.43 902.75 1248.31 L 995.676 1247.25 C 995.892 1242.2 996.98 1236.5 994.446 1232.07 C 992.085 1231.05 990.271 1231.33 987.765 1231.49 z M 1891.92 1234.55 L 1869.87 1235.02 L 1869.94 1250.49 L 1889.25 1249.75 L 1912.95 1248.47 L 1912.95 1233.96 C 1905.95 1234.09 1898.9 1234.07 1891.92 1234.55 z M 1843.44 1235.45 L 1814.99 1236.45 L 1815 1251.79 L 1828.25 1251.62 A 1546.17 1546.17 0 0 1 1856.03 1250.96 L 1855.99 1235.27 L 1843.44 1235.45 z M 1734.51 1237.5 L 1712.05 1237.8 L 1712.07 1254.97 C 1718.61 1254.81 1725.23 1254.85 1731.75 1254.35 C 1739.02 1254.01 1746.34 1253.84 1753.58 1253.18 L 1753.77 1237.28 C 1747.36 1237.34 1740.92 1237.28 1734.51 1237.5 z M 1763.58 1237.35 C 1763.83 1242.57 1763.94 1247.84 1764.4 1253.05 A 1089.4 1089.4 0 0 0 1796.49 1252.56 C 1796.47 1247.19 1796.55 1241.8 1796.43 1236.44 C 1785.5 1236.73 1774.5 1236.77 1763.58 1237.35 z M 899.255 1264.51 L 847.995 1265 L 848.027 1280.93 A 3888.75 3888.75 0 0 0 904.25 1280.57 L 955.017 1280.03 L 954.999 1263.83 L 899.255 1264.51 z M 972.009 1263.78 L 971.999 1279.35 L 995.339 1279.18 L 995.422 1263.82 L 972.009 1263.78 z M 1892.57 1266.58 L 1762.61 1270.88 L 1762.53 1286.28 C 1769.25 1286.02 1776.06 1285.98 1782.75 1285.42 L 1868.49 1282.19 C 1883.25 1281.62 1898.28 1281.6 1912.99 1280.22 L 1912.96 1265.85 C 1906.18 1266.04 1899.33 1266.05 1892.57 1266.58 z M 1716.32 1271.54 C 1714.73 1271.77 1712.81 1271.45 1711.91 1272.94 C 1709.62 1276.71 1711.11 1283.98 1711.15 1288.33 A 1948.21 1948.21 0 0 1 1746.25 1286.96 C 1747.8 1286.85 1750.22 1287.2 1751.17 1285.89 C 1753.69 1282.39 1752.13 1274.85 1752.15 1270.68 A 925.414 925.414 0 0 0 1716.32 1271.54 z M 943.357 1296.45 C 941.461 1297.99 941.767 1298.36 941.585 1300.69 C 941.264 1304.81 941.527 1309.06 941.619 1313.19 C 958.948 1312.99 976.316 1313.04 993.635 1312.5 C 995.918 1309.45 994.891 1299.91 994.808 1295.97 L 943.357 1296.45 z M 847.032 1297.46 A 494.758 494.758 0 0 0 846.837 1314.91 A 3918.79 3918.79 0 0 1 920.414 1313.96 L 920.506 1297.59 A 3707.71 3707.71 0 0 1 847.032 1297.46 z M 1896.92 1297.49 C 1893.86 1297.81 1892.94 1297.48 1890.7 1299.69 C 1889.19 1304.66 1890.21 1309.42 1890.25 1314.5 L 1905.36 1313.87 C 1908.75 1313.41 1910.39 1313.74 1912.87 1311.28 C 1914.43 1306.69 1913.38 1301.82 1913.39 1297.06 C 1907.91 1297.19 1902.39 1297.22 1896.92 1297.49 z M 1855.43 1299.57 A 2068.46 2068.46 0 0 1 1821.15 1300.73 L 1821.14 1317.39 C 1827.46 1317.09 1833.85 1316.95 1840.16 1316.42 C 1851.78 1315.74 1863.4 1314.93 1875.04 1314.9 L 1875.04 1298.9 C 1868.52 1299.08 1861.93 1299.08 1855.43 1299.57 z M 1785.31 1302.56 C 1760.77 1303.49 1735.85 1303.84 1711.41 1306.12 L 1711.55 1322.5 L 1727.25 1321.88 L 1801.23 1318.02 L 1801.22 1301.94 L 1785.31 1302.56 z M 913.303 1330.53 A 3020.66 3020.66 0 0 1 876.208 1330.98 L 876.31 1349.06 A 1091.83 1091.83 0 0 0 914.249 1347.91 A 1001.48 1001.48 0 0 1 951.927 1346.79 L 951.944 1329.99 A 1120.62 1120.62 0 0 0 913.303 1330.53 z M 970.83 1329.68 L 970.874 1346 L 994.236 1345.88 L 994.013 1330.09 A 567.073 567.073 0 0 0 970.83 1329.68 z M 1907.31 1330.43 C 1872.55 1332.38 1837.72 1333.74 1802.98 1335.94 C 1802.99 1340.81 1802.13 1347.37 1804.26 1351.7 C 1805.95 1352.31 1806.96 1352.44 1808.75 1352.28 C 1843.44 1350.87 1878.47 1349.3 1913.03 1345.89 C 1913.2 1341.17 1914.32 1334.69 1911.79 1330.62 C 1910.11 1330.36 1909.03 1330.26 1907.31 1330.43 z M 1772.91 1337.43 C 1752.43 1338.61 1731.82 1339.96 1711.3 1340.08 L 1711.4 1357.11 L 1723.85 1356.89 A 1787.23 1787.23 0 0 1 1783 1353.14 L 1783.06 1337.05 L 1772.91 1337.43 z M 1911.88 1364.43 L 1869.14 1366.8 C 1869.31 1371.38 1869.01 1376.58 1870.16 1381.01 A 392.845 392.845 0 0 0 1912.48 1378.86 C 1912.59 1375.57 1913.75 1367.04 1911.88 1364.43 z M 1838.46 1368.58 L 1753.95 1373.15 C 1754.05 1373.45 1754.15 1373.75 1754.24 1374.05 C 1755.67 1378.53 1755 1383.73 1757.24 1387.72 C 1758.89 1388.21 1760.03 1388.34 1761.75 1388.23 A 3313.21 3313.21 0 0 1 1848.75 1382.88 C 1848.96 1378.9 1850.2 1372.44 1847.94 1369.07 C 1844.91 1367.42 1841.75 1368.22 1838.46 1368.58 z M 1720.51 1374.5 C 1716.91 1374.65 1715.04 1374.27 1712.03 1376.33 C 1709.95 1380.9 1711.3 1386.4 1711.35 1391.3 L 1726.52 1390.9 C 1729.88 1390.69 1731.52 1391.01 1734.29 1389.02 C 1736.41 1384.55 1735.04 1378.86 1735.04 1374.02 L 1720.51 1374.5 z M 1907.96 1401.44 A 8082.47 8082.47 0 0 0 1773.61 1408.98 C 1753.14 1410.23 1731.32 1409.9 1711.11 1413.17 C 1711.05 1422.05 1708.83 1463.52 1712.54 1468.57 C 1714.46 1468.71 1716.06 1468.75 1717.98 1468.57 C 1783.47 1464.62 1848.98 1459.31 1914.47 1455.83 C 1914.48 1448.29 1916.35 1407.33 1914.44 1402.82 C 1914.17 1402.19 1913.48 1401.83 1913 1401.34 L 1907.96 1401.44 z M 950.445 1462.58 C 939.023 1463.2 838.011 1467.17 834.407 1470.32 C 833.826 1471.98 833.949 1471.05 834.335 1473.16 C 835.932 1475.33 837.227 1476.75 840.052 1477.14 C 841.351 1477.33 842.815 1477.04 844.113 1476.91 L 851.894 1476.18 A 4495.27 4495.27 0 0 0 927.938 1471.33 C 939.41 1470.6 951.775 1471.16 963.07 1469.28 C 965.734 1468.84 968.569 1468.31 970.662 1466.51 L 971.002 1465.56 C 969.401 1463.46 967.164 1462.57 964.599 1462.13 C 960.135 1461.35 954.951 1462.21 950.445 1462.58 z M 793.089 1468.5 A 1988.11 1988.11 0 0 0 792.928 1506.03 A 695.246 695.246 0 0 1 823.798 1504.61 C 826.449 1496.23 824.386 1477.27 824.289 1467.76 L 793.089 1468.5 z M 1909.7 1485.48 L 1810.56 1492.5 C 1777.65 1494.96 1744.55 1497.88 1711.57 1499.25 C 1711.52 1513.18 1710.08 1630.98 1712.77 1635.48 L 1715.24 1635.5 L 1842.42 1623.16 C 1866.34 1620.92 1890.69 1619.33 1914.46 1615.99 C 1914.45 1604.97 1915.33 1488.71 1914.21 1486.46 C 1913.96 1485.96 1913.45 1485.64 1913.07 1485.23 L 1909.7 1485.48 z"/>
<path transform="translate(0,0)" fill="rgb(0,0,0)" d="M 922.215 552.049 C 920.465 549.904 918.541 547.738 918.087 544.89 C 917.736 542.694 918.398 540.263 919.501 538.364 C 922.911 532.494 928.03 527.132 931.942 521.503 C 939.925 510.018 947.333 498.076 954.932 486.33 C 1000.72 415.554 1048.74 346.283 1095.49 276.147 C 1134.36 217.827 1172.21 158.793 1212.01 101.089 C 1225.22 81.9329 1237.19 62.0526 1251.63 43.7598 C 1251.78 48.4499 1250.4 53.1027 1248.72 57.4388 C 1241 77.3135 1227.34 95.7164 1215.83 113.572 L 1169.16 185.544 L 1014.03 419.492 A 4648.81 4648.81 0 0 0 930.066 548.793 C 928.605 551.169 928.142 552.943 925.539 554.075 L 922.215 552.049 z"/>
<path transform="translate(0,0)" fill="rgb(0,0,0)" d="M 1111.53 554.441 C 1099.8 555.349 1087.75 558.166 1076.16 560.262 A 6388.3 6388.3 0 0 0 1001.04 574.648 C 989.397 576.911 975.8 581.13 964.033 580.901 C 958.082 580.785 951.861 578.006 947.904 573.531 C 943.823 568.915 942.25 562.963 942.621 556.894 C 943.1 549.065 946.416 541.931 950.384 535.301 C 970.978 500.892 994.776 467.902 1016.85 434.397 L 1169.02 204.352 L 1232.99 105.472 C 1240.72 93.6212 1248.94 76.3732 1259.27 66.9069 C 1261.24 66.9203 1263.6 66.7862 1265.51 67.2264 C 1270.03 68.2669 1273.39 73.3076 1275.86 76.9386 C 1283.27 87.8486 1289.16 100.471 1295.6 112.011 C 1305.81 130.294 1316.49 148.346 1326.81 166.574 L 1386.03 269.63 C 1404.31 301.732 1422.08 334.073 1441.01 365.808 C 1466.7 408.875 1490.88 453.177 1515.35 496.965 C 1526.8 517.463 1543.72 542.34 1551.01 564.164 C 1552.84 569.641 1552.48 575.429 1550.96 580.935 C 1548.03 591.534 1540.56 602.132 1530.61 607.166 C 1524.85 610.079 1518.35 610.514 1512.05 609.499 C 1498.81 607.365 1485.46 600.657 1473.1 595.53 C 1448.04 585.141 1422.61 573.108 1396.77 564.935 C 1395.27 590.535 1396.28 616.687 1396.26 642.341 L 1396.19 781.491 L 1396.35 1207.38 L 1396.47 1354.26 C 1396.44 1379.91 1398.15 1406.81 1395.49 1432.26 C 1394.43 1442.39 1390.81 1452.62 1384.17 1460.47 C 1378.58 1467.08 1370.42 1471.29 1362.21 1473.64 C 1348.27 1477.63 1332.49 1478.16 1318.04 1479.74 L 1244.24 1487.78 C 1211.85 1490.89 1178.92 1497.47 1146.51 1498.98 C 1137.21 1499.42 1130.37 1497.46 1123.48 1490.92 C 1116.79 1484.56 1112.46 1475.07 1111.42 1465.96 C 1108.78 1442.88 1110.81 1412.9 1110.84 1388.94 L 1111.01 1236.69 L 1111.37 781.634 L 1111.68 635.052 C 1111.76 608.26 1112.8 581.185 1111.53 554.441 z M 1263.32 168.627 C 1255.32 179.678 1248.24 191.354 1240.58 202.64 C 1230.21 217.937 1219.31 232.886 1209.19 248.36 C 1192.51 273.867 1176.73 299.94 1159.84 325.315 C 1120.83 383.921 1079.18 441.139 1042.11 500.991 C 1066.02 497.661 1089.95 493.441 1113.76 489.42 C 1124.38 487.627 1136.22 484.189 1147.01 484.655 C 1151.65 484.856 1156.04 486.72 1159.67 489.576 C 1164.5 493.379 1168.28 499.349 1168.86 505.54 C 1169.86 516.166 1169.26 527.337 1169.26 538.026 L 1169.21 598.231 L 1169.11 786.336 L 1169.04 1427.25 C 1200.52 1425.95 1232.35 1421.31 1263.76 1418.32 A 3093.79 3093.79 0 0 0 1340.2 1410.74 L 1339.95 791.554 L 1340.09 601.711 L 1340.08 542.535 C 1340.07 532.598 1339.3 522.196 1340.15 512.322 C 1340.71 505.778 1342.63 499.553 1347.48 494.891 C 1350.98 491.517 1355.42 489.726 1359.94 488.155 C 1372.6 491.201 1384.98 496.668 1397.13 501.375 C 1420.88 510.575 1444.46 520.496 1468.39 529.187 C 1424.26 444.326 1374.39 362.265 1326.59 279.433 A 5529.9 5529.9 0 0 1 1284.47 204.8 C 1277.74 192.902 1271.42 179.614 1263.32 168.627 z"/>
<path transform="translate(0,0)" fill="rgb(0,0,0)" d="M 1984.75 808.353 C 1969.92 809.241 1896.91 803.181 1884.14 798.718 C 1883.65 797.417 1883.52 797.168 1883.19 795.925 C 1881.83 790.672 1881.48 705.128 1882.3 698.085 C 1882.55 695.971 1883.25 694.604 1884.35 692.828 C 1895.98 692.367 1976.94 700.604 1985.82 704.11 C 1985.94 704.398 1986.07 704.679 1986.16 704.975 C 1988.01 710.867 1987.25 789.324 1986.65 799.226 C 1986.45 802.528 1986.26 805.369 1984.75 808.353 z M 1901.39 708.131 A 3461.62 3461.62 0 0 0 1901.44 746.706 C 1911.94 748.892 1925.54 753.104 1936.16 750.438 C 1937.78 748.574 1937.89 748.033 1938.41 745.587 A 380.431 380.431 0 0 1 1945 713.06 C 1930.39 711.941 1915.98 709.165 1901.39 708.131 z M 1957.68 714.13 C 1956.38 724.372 1953.81 734.367 1951.93 744.507 C 1949 760.293 1946.79 776.064 1942.8 791.646 A 417.097 417.097 0 0 0 1959.81 793.395 L 1973.21 794.687 A 3053.85 3053.85 0 0 1 1973.89 716.075 L 1957.68 714.13 z M 1901.49 760.06 L 1901.26 787.726 C 1909.27 788.514 1920.11 790.98 1927.92 789.615 L 1928.91 787.767 L 1933.59 763.211 C 1923.04 761.562 1912.18 760.379 1901.49 760.06 z"/>
<path transform="translate(0,0)" fill="rgb(0,0,0)" d="M 697.752 1426.12 C 646.168 1427.97 594.56 1431.19 543.015 1433.95 L 355.265 1443.35 L 268.046 1448.18 C 256.937 1448.81 245.329 1450.59 234.272 1450.54 C 231.118 1450.52 227.676 1450.25 225.146 1448.18 C 223.539 1446.87 223.748 1443.37 223.608 1441.4 C 222.073 1419.82 223.219 1397.31 223.178 1375.64 L 223.23 1241.65 L 223.464 1088.14 C 223.526 1064.96 222.253 1041.22 223.536 1018.12 C 223.79 1013.55 224.319 1011.53 227.342 1008.09 C 252.205 1007.72 277.322 1009.1 302.201 1009.63 A 17090.1 17090.1 0 0 1 509.431 1016.39 L 658.17 1020.51 C 678.637 1021.07 699.231 1020.65 719.659 1022.05 C 722.676 1022.25 724.17 1022.52 726.53 1024.45 C 728.182 1028.32 727.926 1034.02 728.024 1038.17 C 729.313 1092.6 728.079 1147.32 728.326 1201.78 C 728.663 1275.97 730.194 1350.16 729.902 1424.35 A 938.578 938.578 0 0 1 697.752 1426.12 z M 239.442 1025.18 L 239.883 1272.64 C 239.882 1319.48 237.754 1370.53 240.175 1416.96 A 7089.97 7089.97 0 0 1 335.294 1277.1 C 349.11 1257.12 362.332 1233.95 377.786 1215.47 C 379.941 1212.89 381.964 1210.56 385.464 1209.94 C 389.478 1209.24 392.388 1211.78 395.218 1214.25 C 404.59 1222.43 412.567 1233.67 420.569 1243.19 C 436.918 1262.64 453.313 1281.94 468.932 1301.99 C 502.952 1253.75 533.899 1203.34 566.446 1154.1 C 569.083 1150.58 571.759 1146.52 576.298 1145.37 A 8.23991 8.23991 0 0 1 583.493 1147 C 593.079 1155 616.978 1197.53 625.163 1210.38 C 655.003 1257.22 687.048 1303.54 714.024 1352.06 A 27460.4 27460.4 0 0 1 712.121 1038.77 C 686.171 1036.97 659.999 1037.21 633.999 1036.27 A 12404.4 12404.4 0 0 0 422.285 1030.72 C 361.345 1029.59 300.39 1025.62 239.442 1025.18 z M 578.324 1168.62 C 551.244 1209.12 524.877 1250.03 497.457 1290.31 C 488.565 1303.38 480.664 1318.56 470.618 1330.63 C 463.748 1322.58 457.774 1313.85 451.14 1305.61 C 440.98 1292.99 429.959 1281.08 419.544 1268.67 C 409.143 1256.28 399.181 1243.2 388.164 1231.37 C 356.389 1276.03 325.329 1321.33 294.26 1366.49 C 280.146 1387 260.171 1412.04 249.369 1433.79 C 262.244 1433.92 275.646 1433.6 288.45 1432.21 L 593.64 1417.24 C 634.324 1415.3 675.228 1411.58 715.937 1410.9 L 716.234 1380.02 A 13006.3 13006.3 0 0 1 616.959 1228.43 C 609.112 1216.22 586.13 1176.62 578.324 1168.62 z"/>
<path transform="translate(0,0)" fill="rgb(0,0,0)" d="M 348.939 1165.99 C 336.353 1166.65 324.168 1163.58 313.652 1156.56 C 301.696 1148.59 292.515 1134.57 290.159 1120.37 A 53.4773 53.4773 0 0 1 300.789 1079.06 C 311.196 1065.59 325.155 1059.56 341.562 1057.31 C 353.516 1056.83 365.561 1059.71 375.365 1066.76 C 387.267 1075.32 396.016 1089.27 398.33 1103.72 C 400.61 1117.95 396.752 1134.03 388.135 1145.57 C 378.014 1159.13 364.879 1163.54 348.939 1165.99 z"/>
<path transform="translate(0,0)" fill="rgb(0,0,0)" d="M 1718.38 1190.02 C 1717.19 1158.65 1717.84 1126.72 1718.15 1095.32 A 10186.9 10186.9 0 0 1 1906.95 1097.19 C 1906.97 1111.45 1908.86 1176.49 1905.84 1184.44 L 1903.25 1185.11 C 1880.54 1186.85 1857.63 1186.81 1834.87 1187.39 L 1718.38 1190.02 z"/>
<path transform="translate(0,0)" fill="rgb(0,0,0)" d="M 389.074 1248.64 C 397.917 1258.08 405.676 1268.81 413.835 1278.86 A 1115.25 1115.25 0 0 0 449.974 1321.46 C 455.622 1327.89 461.37 1335.7 467.915 1341.2 C 469.519 1342.55 471.407 1343.28 473.503 1342.83 C 476.209 1342.25 477.713 1340.84 479.273 1338.68 C 488.445 1326 496.218 1311.58 504.962 1298.48 L 577.526 1190.46 C 586.972 1196.94 664.496 1322.58 676.818 1341.39 C 685.732 1355.01 695.539 1368.04 704.305 1381.75 C 707.48 1386.71 712.14 1393.41 710.81 1399.42 C 699.466 1402.56 684.61 1401.71 672.737 1402.35 L 594.326 1406.41 L 312.753 1420.33 C 299.003 1421.36 285.115 1421.67 271.331 1422.16 C 281.444 1402.03 296.27 1383.17 308.971 1364.55 L 389.074 1248.64 z"/>
<path transform="translate(0,0)" fill="rgb(0,0,0)" d="M 240.943 1788.89 C 237.701 1789.36 234.253 1790.05 230.975 1790.12 C 228.16 1790.19 226.403 1789.51 224.279 1787.64 C 220.487 1775.4 222.658 1745.34 222.672 1730.94 L 222.985 1626.53 C 223.048 1587.24 221.752 1547.6 222.77 1508.35 C 222.87 1504.5 223.073 1500.91 224.198 1497.19 C 237.902 1491.86 269.722 1492.07 285.292 1491 L 369.258 1485.22 L 748.535 1461.42 C 753.484 1460.88 758.78 1461.05 763.772 1460.9 L 763.603 1734.86 C 743.319 1738.83 721.345 1739.52 700.731 1741.65 A 8082.1 8082.1 0 0 1 568.814 1754.94 L 240.943 1788.89 z M 717.806 1485.58 L 244.287 1516.2 L 244.64 1754.09 C 251.035 1753.25 257.489 1752.19 263.916 1751.7 C 354.216 1741.46 444.801 1733.51 535.202 1724.2 L 677.88 1709.78 C 698.128 1707.8 718.545 1705.06 738.831 1703.72 L 738.928 1484.55 C 731.899 1484.88 724.82 1485.05 717.806 1485.58 z"/>
<path transform="translate(0,0)" fill="rgb(0,0,0)" d="M 266.393 1536.34 A 32970.8 32970.8 0 0 0 710.595 1505.42 C 713.091 1505.15 714.702 1504.92 717.143 1505.71 C 721.515 1511.52 718.897 1527.62 718.619 1534.59 C 683.92 1536.04 649.121 1539.54 614.454 1541.99 C 502.157 1549.94 389.895 1560.29 277.526 1566.95 C 274.264 1567.16 271.071 1567.81 268.158 1566.03 C 263.532 1559.14 266.342 1544.56 266.393 1536.34 z"/>
<path transform="translate(0,0)" fill="rgb(0,0,0)" d="M 1320 1541.2 C 1361.63 1536.31 1403.92 1533.92 1445.72 1530.46 L 1676.38 1511.4 C 1680.98 1510.72 1685.96 1510.82 1690.62 1510.57 L 1690.6 1536.9 C 1673.69 1539.49 1656.26 1540.38 1639.21 1541.9 L 1546.78 1549.96 A 16828.3 16828.3 0 0 1 1333.76 1568.26 C 1329.17 1568.75 1324.51 1568.89 1319.9 1569.17 L 1320 1541.2 z"/>
<path transform="translate(0,0)" fill="rgb(0,0,0)" d="M 779.821 1623.3 C 779.612 1610.01 776.248 1574.93 782.506 1564.8 C 791.562 1560.04 804.321 1561.48 814.341 1560.14 C 822.25 1559.08 829.907 1556.71 837.857 1555.72 C 856.695 1553.39 875.876 1552.38 894.799 1550.87 A 8487.56 8487.56 0 0 1 993.749 1543.45 C 996.294 1543.23 997.196 1542.98 999.484 1544.02 C 1002.05 1559.95 1000.18 1590.97 1000.19 1608.36 C 929.754 1612.01 859.39 1620.4 789.165 1626.89 L 779.821 1623.3 z M 963.53 1565.46 C 943.18 1566.4 845.573 1570.46 833.074 1576.33 C 831.915 1578.32 832.747 1579.25 833.26 1581.41 C 835.449 1582.56 836.348 1582.33 838.754 1582.22 A 5269.4 5269.4 0 0 0 923.376 1575.74 C 935.622 1574.77 948.612 1574.96 960.69 1573.16 C 963.517 1572.74 965.761 1572.34 968.17 1570.69 C 968.907 1568.15 968.778 1568.11 967.763 1565.64 C 966.041 1565.27 965.37 1565.25 963.53 1565.46 z M 811.622 1573.58 A 491.011 491.011 0 0 1 793.32 1574.11 L 793.316 1612.87 L 801.755 1612.24 C 808.927 1611.74 816.152 1611.03 823.337 1610.87 C 823.435 1598.26 823.397 1585.64 823.639 1573.03 C 819.64 1573.21 815.614 1573.29 811.622 1573.58 z"/>
<path transform="translate(0,0)" fill="rgb(0,0,0)" d="M 1319.27 1585.19 C 1360.96 1582.87 1402.94 1577.38 1444.57 1573.58 L 1682.48 1552.4 C 1684.82 1552.09 1686.49 1551.98 1688.81 1552.5 C 1691.17 1555.43 1691.35 1559.27 1691.14 1562.91 C 1690.82 1568.21 1690.86 1573.52 1690.84 1578.83 C 1654.34 1580.82 1617.5 1585.57 1581.08 1589.1 L 1434.19 1602.87 C 1398.53 1606.57 1362.55 1611.5 1326.75 1613.19 L 1319.18 1613.6 A 872.231 872.231 0 0 1 1319.27 1585.19 z"/>
<path transform="translate(0,0)" fill="rgb(0,0,0)" d="M 267.339 1589.59 C 415.038 1581.27 562.413 1565.53 710.072 1556.43 C 712.324 1556.24 713.981 1556.2 716.178 1556.76 C 720.678 1562.41 717.988 1577.93 717.674 1584.82 C 628.082 1590.37 538.394 1598.97 448.943 1606.51 C 390.867 1611.41 331.641 1614.47 273.825 1621.16 C 271.533 1621.42 269.91 1621.72 267.675 1620.98 C 266.422 1610.79 267.257 1599.87 267.339 1589.59 z"/>
<path transform="translate(0,0)" fill="rgb(0,0,0)" d="M 1319.76 1629.18 C 1335.84 1626.29 1352.52 1625.42 1368.77 1623.87 L 1445.2 1616.52 L 1684.02 1593.4 C 1685.92 1593.07 1687.41 1593.06 1689.32 1593.26 C 1693.47 1598.44 1691.17 1613.99 1691.08 1620.58 C 1667.21 1621.98 1643.25 1625.35 1619.43 1627.55 A 10758.9 10758.9 0 0 0 1418.99 1647.86 C 1388.07 1651.13 1357.21 1655.04 1326.24 1657.69 C 1323.62 1657.99 1323.03 1658.28 1320.52 1657.23 C 1316.97 1650.76 1319.53 1636.65 1319.76 1629.18 z"/>
<path transform="translate(0,0)" fill="rgb(0,0,0)" d="M 266.53 1643.22 C 322.376 1637.41 378.416 1633.77 434.35 1628.93 L 609.542 1614.65 C 644.042 1611.75 678.456 1607.98 712.988 1605.44 L 716.5 1605.31 C 721.033 1610.12 718.709 1627.52 718.529 1634.23 C 645.457 1639.38 572.301 1646.74 499.369 1653.61 L 273.237 1675.01 C 271.075 1675.07 270.109 1675.07 268.024 1674.32 C 264.182 1667.04 266.442 1651.68 266.53 1643.22 z"/>
<path transform="translate(0,0)" fill="rgb(0,0,0)" d="M 1319.08 1673.44 C 1332.89 1670.65 1347.43 1669.71 1361.43 1668.21 L 1429.86 1660.96 L 1680.68 1635.4 C 1683.94 1634.77 1687.69 1634.86 1691.03 1634.63 L 1691 1661.65 C 1674.46 1664.6 1657.28 1666.1 1640.58 1667.98 L 1559.18 1677.07 C 1483.49 1685.79 1407.65 1695.53 1331.76 1702.15 L 1319 1703.4 L 1319.08 1673.44 z"/>
<path transform="translate(0,0)" fill="rgb(0,0,0)" d="M 778.26 1673.66 C 781.772 1670.71 785.106 1667.53 789.643 1666.37 C 807.054 1661.91 827.404 1662.17 845.368 1660.28 A 9073.5 9073.5 0 0 1 999.888 1645.47 C 1002.38 1650.04 1000.46 1701.88 1000.33 1710.48 C 939.606 1719.23 877.864 1721.84 816.829 1727.42 C 811.089 1727.94 792.334 1732.12 788.287 1730.58 C 786.463 1729.89 784.287 1728.08 782.583 1727.02 C 781.415 1726.02 780.225 1725.41 779.734 1723.9 C 776.692 1714.49 779.394 1686.4 778.26 1673.66 z M 954.769 1669.42 C 933.102 1671.16 842.443 1676.54 828.293 1682.39 L 828.342 1685.12 C 834.48 1688.3 838.676 1687.62 845.245 1686.89 C 860.156 1685.65 963.705 1676.79 969.071 1674.05 L 969.757 1673.02 C 968.587 1671.07 967.388 1669.71 965.051 1669.12 C 961.885 1668.32 957.966 1669.08 954.769 1669.42 z M 821.213 1677.41 L 792.573 1679.49 C 792.467 1685.04 790.813 1712.81 793.454 1715.82 C 793.616 1716 793.861 1716.09 794.064 1716.23 C 803.779 1715.25 813.747 1714.68 823.368 1713.06 C 823.391 1706.74 824.988 1681.85 822.074 1677.59 L 821.213 1677.41 z"/>
<path transform="translate(0,0)" fill="rgb(0,0,0)" d="M 265.893 1698.65 C 325.538 1690.15 388.483 1685.94 448.618 1680.24 A 23210.1 23210.1 0 0 1 716.005 1655.46 L 717.492 1656.29 C 719.361 1665.04 718.086 1675.99 718.055 1685 C 703.954 1687.48 689.041 1687.96 674.756 1689.19 A 3858.72 3858.72 0 0 0 601.967 1696.04 L 378.724 1717.95 C 341.923 1721.55 305.02 1724.63 268.299 1728.96 C 264.738 1725.27 266.133 1704.62 265.893 1698.65 z"/>
<path transform="translate(0,0)" fill="rgb(0,0,0)" d="M 1337.82 1719.91 C 1337.47 1719.98 1337.12 1720.05 1336.77 1720.12 C 1333.44 1720.71 1329.59 1721.89 1326.77 1719.93 C 1325.79 1717.43 1325.77 1716.22 1326.23 1713.57 C 1374.79 1706.34 1424.36 1702.39 1473.19 1697.02 L 1681.65 1673.4 C 1683.83 1673.01 1685.97 1673.02 1688.18 1672.96 C 1690.3 1674.37 1690.37 1674.41 1691.22 1676.8 L 1690.01 1678.62 C 1683.14 1682.08 1601.56 1689.08 1586.71 1690.75 L 1491.17 1702.18 A 5983.66 5983.66 0 0 0 1337.82 1719.91 z"/>
</svg>