<?xml version="1.0" encoding="UTF-8" standalone="no"?>
<svg
   version="1.1"
   style="display: block;"
   viewBox="0 0 2048 2048"
   width="1024"
   height="1024"
   id="svg85"
   sodipodi:docname="microsoft sql server advanced forms.svg"
   inkscape:version="1.4 (e7c3feb100, 2024-10-09)"
   xmlns:inkscape="http://www.inkscape.org/namespaces/inkscape"
   xmlns:sodipodi="http://sodipodi.sourceforge.net/DTD/sodipodi-0.dtd"
   xmlns="http://www.w3.org/2000/svg"
   xmlns:svg="http://www.w3.org/2000/svg">
  <defs
     id="defs85" />
  <sodipodi:namedview
     id="namedview85"
     pagecolor="#ffffff"
     bordercolor="#000000"
     borderopacity="0.25"
     inkscape:showpageshadow="2"
     inkscape:pageopacity="0.0"
     inkscape:pagecheckerboard="0"
     inkscape:deskcolor="#d1d1d1"
     inkscape:zoom="0.42308774"
     inkscape:cx="209.17647"
     inkscape:cy="616.89331"
     inkscape:window-width="1920"
     inkscape:window-height="1011"
     inkscape:window-x="0"
     inkscape:window-y="0"
     inkscape:window-maximized="1"
     inkscape:current-layer="svg85" />
  <path
     transform="translate(0,0)"
     fill="rgb(28,34,75)"
     d="M 119.988 1668.22 C 127.922 1668.4 149.294 1666.08 155.562 1671.47 C 156.482 1672.26 157.447 1673.46 157.25 1674.73 C 156.806 1677.6 153.865 1679.81 151.752 1681.58 C 144.019 1682.03 125.273 1683.63 118.893 1679.5 C 116.397 1677.88 116.295 1677.35 115.771 1674.64 C 116.755 1671.65 117.863 1670.42 119.988 1668.22 z"
     id="path5" />
  <path
     transform="translate(0,0)"
     fill="rgb(28,34,75)"
     d="M 1912.05 1667.52 C 1915.08 1667.41 1919.53 1666.82 1922.41 1667.76 C 1925.63 1668.81 1927.81 1672.3 1929.1 1675.19 C 1928.9 1676.61 1929.1 1677.62 1927.99 1678.66 C 1921.57 1684.7 1901.26 1682.27 1892.75 1682.22 C 1890.24 1682.26 1887.32 1682.5 1884.89 1681.84 C 1882.12 1681.08 1878.4 1677.71 1877.66 1674.87 C 1877.04 1672.47 1877.48 1671.95 1878.75 1670.09 C 1886.1 1665.51 1903.35 1667.57 1912.05 1667.52 z"
     id="path11" />
  <path
     transform="translate(0,0)"
     fill="rgb(28,34,75)"
     d="M 1311.66 223.028 C 1322.06 222.923 1356.28 220.351 1363.84 224.799 C 1366.24 226.208 1366.41 226.846 1367.22 229.327 C 1366.82 232.542 1365.93 233.659 1363.99 236.11 C 1354.87 237.82 1320.06 239.048 1312.7 235.578 C 1310.22 234.412 1309.74 233.197 1308.79 230.755 C 1309.03 227.424 1309.84 225.801 1311.66 223.028 z"
     id="path13" />
  <path
     transform="translate(0,0)"
     fill="rgb(28,34,75)"
     d="M 379.286 983.118 C 389.925 983.054 425.137 980.386 432.773 985.467 C 435.102 987.017 435.154 987.73 435.775 990.28 C 435.021 993.444 434.011 994.901 431.84 997.297 C 423.499 998.596 384.787 999.275 378.953 995.183 C 377.08 993.869 375.744 992.561 375.7 990.15 C 375.645 987.139 377.477 985.223 379.286 983.118 z"
     id="path14" />
  <path
     transform="translate(0,0)"
     fill="rgb(28,34,75)"
     d="M 1180.12 223.15 A 4688.02 4688.02 0 0 1 1246.54 223.233 C 1259.63 223.291 1274.11 222.171 1287 224.333 C 1289.22 226.391 1289.52 226.69 1290.31 229.59 C 1289.67 232.972 1287.92 234.65 1285.69 237.098 C 1272.27 236.923 1186.45 238.517 1180.27 235.472 C 1178.19 234.447 1177.15 232.692 1176.96 230.41 C 1176.69 227.259 1178.28 225.388 1180.12 223.15 z"
     id="path19" />
  <path
     transform="translate(0,0)"
     fill="rgb(28,34,75)"
     d="M 249.138 983.137 C 269.63 982.723 290.2 983.057 310.7 982.978 C 323.221 982.93 336.823 981.851 349.224 983.311 C 352.307 983.674 354.42 984.168 357.019 985.872 C 358.233 988.098 358.586 988.938 357.872 991.588 C 357.032 994.706 354.909 996.147 352.396 997.792 C 334.182 998.752 315.519 997.977 297.259 997.99 C 283.29 998 268.668 998.963 254.783 997.85 C 251.594 997.594 249.252 997.254 246.501 995.591 C 244.985 993.364 244.211 992.451 244.615 989.578 C 245.053 986.464 246.91 984.993 249.138 983.137 z"
     id="path22" />
  <path
     transform="translate(0,0)"
     fill="rgb(28,34,75)"
     d="M 346.447 1024.3 C 369.321 1023.94 392.261 1024.46 415.144 1024.37 C 429.556 1024.31 445.064 1022.96 459.311 1024.49 C 462.362 1024.82 464.439 1025.32 467.025 1026.98 C 468.299 1029.02 469.134 1029.9 468.411 1032.45 C 467.531 1035.55 465.472 1036.81 462.89 1038.38 C 462.518 1038.39 462.146 1038.42 461.774 1038.43 C 438.672 1039.21 415.235 1038.4 392.095 1038.36 C 377.603 1038.33 361.255 1039.8 347.041 1037.67 C 343.441 1037.13 343.026 1036.92 340.314 1034.41 C 339.594 1032.16 338.859 1030.75 340.134 1028.46 C 341.668 1025.71 343.761 1025.31 346.447 1024.3 z"
     id="path25" />
  <path
     transform="translate(0,0)"
     fill="rgb(28,34,75)"
     d="M 1278.27 261.48 C 1319.59 261.539 1361.27 260.73 1402.55 261.826 C 1405.89 261.915 1411.15 261.491 1413.19 264.492 C 1414.56 266.508 1414.37 269.076 1413.53 271.246 C 1412.5 273.905 1410.45 274.672 1408.05 275.717 L 1322.66 275.653 C 1309.04 275.663 1294.26 277.172 1280.83 275.569 C 1277.61 275.185 1274.7 274.571 1273 271.556 C 1271.99 269.776 1271.74 267.224 1272.71 265.37 C 1274.15 262.594 1275.52 262.377 1278.27 261.48 z"
     id="path26" />
  <path
     transform="translate(0,0)"
     fill="rgb(222,76,88)"
     d="M 1434.01 2016 L 2048 2015.86 L 2048 2048 L 1434.08 2048 L 1434.01 2016 z"
     id="path32" />
  <path
     transform="translate(0,0)"
     fill="rgb(222,76,88)"
     d="M 0 2015.98 L 399.396 2015.9 C 473.188 2015.94 547.418 2017.52 621.169 2015.57 L 621.121 2048 L 0 2048 L 0 2015.98 z"
     id="path33" />
  <path
     transform="translate(0,0)"
     fill="rgb(222,76,88)"
     d="M 494.4 245.28 L 507.159 244.477 C 511.242 249.885 514.426 256.464 517.883 262.323 C 525.218 264.087 532.152 266.034 539.165 268.825 C 544.41 264.461 549.172 260.897 555.581 258.404 C 562.284 261.837 566.572 264.823 571.049 270.933 C 569.572 276.62 567.538 282.258 565.731 287.852 C 569.749 295.005 573.817 302.087 578.164 309.045 C 586.062 311.473 593.105 311.98 598.263 319.487 C 599.809 321.737 600.365 324.246 599.822 326.932 C 597.915 336.381 588.214 341.123 580.918 346.026 C 579.777 353.988 576.943 361.971 574.762 369.713 C 577.61 375.117 583.286 381.383 582.766 387.786 C 582.309 393.418 575.455 398.152 571.47 401.549 C 564.369 399.893 557.639 397.591 551.06 394.457 C 543.913 398.187 536.154 401.778 530.402 407.521 C 529.029 412.315 528.53 418.956 525.973 423.182 C 523.575 427.144 521.158 427.884 516.935 428.882 C 514.781 428.846 512.482 428.897 510.37 428.449 C 503.424 426.977 499.492 415.578 496.115 409.937 C 488.888 406.723 481.266 405.283 473.498 404.1 C 469.343 407.473 464.205 413.41 458.413 413.011 C 452.807 412.625 447.301 405.754 443.467 402.068 L 449.967 382.248 C 444.363 374.123 440.78 364.879 434.92 356.897 C 432.186 356.42 429.412 355.954 426.718 355.285 C 422.326 354.193 418.199 351.405 416 347.36 C 414.437 344.483 414.298 341.094 415.436 338.04 C 418.513 329.789 426.941 327.107 434.312 323.927 C 437.448 315.983 439.95 307.919 442.427 299.755 C 439.753 296.049 435.226 291.061 433.674 286.882 C 432.822 284.587 433.159 283.344 434.05 281.129 C 436.091 276.052 440.479 271.083 445.578 269.029 C 450.329 269.441 456.422 274.328 460.739 276.617 C 467.543 274.094 473.912 270.627 480.783 268.169 C 482.952 262.376 483.382 253.345 487.124 248.569 C 489.397 245.668 491.019 245.908 494.4 245.28 z"
     id="path34" />
  <path
     transform="translate(0,0)"
     fill="rgb(254,254,254)"
     d="M 501.239 305.156 C 508.9 304.262 515.887 304.373 522.864 308.077 A 31.1339 31.1339 0 0 1 538.309 327.865 C 540.58 336.687 539.335 346.457 534.389 354.169 C 529.533 361.741 522.451 365.707 513.856 367.583 C 507.156 368.078 501.62 368.561 495.261 365.802 A 31.6997 31.6997 0 0 1 478.148 347.689 A 31.6437 31.6437 0 0 1 479.124 322.883 C 483.773 313.316 491.675 308.682 501.239 305.156 z"
     id="path35" />
  <path
     transform="translate(0,0)"
     fill="rgb(28,34,75)"
     d="M 335.83 494.296 C 339.425 493.681 344.243 492.983 347.413 495.204 C 354.52 500.184 356.329 514.365 358.315 522.414 C 375.305 525.129 390.024 528.353 404.907 537.377 C 409.37 532.744 420.387 518.972 427.033 518.523 C 429.993 518.323 433.949 520.797 436.334 522.252 C 445.101 527.6 458.919 536.461 461.483 546.872 C 460.038 555.688 452.695 563.544 447.518 570.632 C 456.085 581.898 461.675 593.814 467.162 606.75 C 474.191 606.781 489.951 605.021 495.967 608.349 C 498.582 609.795 500.166 614.498 500.929 617.194 C 503.152 625.046 505.989 642.944 502.091 650.202 C 493.994 657.346 481.581 658.127 471.284 659.651 C 468.994 673.167 465.48 684.634 460.182 697.277 C 466.319 702.747 476.019 709.597 479.82 716.864 C 481.19 719.484 481.068 721.332 480.057 724.035 C 476.952 732.341 465.169 749.529 456.661 752.428 C 450.631 754.483 432.762 743.254 426.999 740.12 C 415.547 748.281 404.365 753.819 391.134 758.581 C 390.253 767.68 392.18 782.177 385.936 789.368 C 382.344 793.506 377.281 793.395 372.241 793.895 C 364.945 794.488 356.097 796.988 349.293 793.392 C 341.817 789.44 339.624 770.972 337.61 763.365 C 325.427 760.839 314.099 757.488 302.387 753.328 C 296.572 758.378 287.668 768.137 280.565 770.671 C 277.931 771.61 274.368 770.344 271.908 769.315 C 263.688 765.877 250.847 757.143 247.416 748.815 C 247.57 739.254 255.293 728.397 259.79 720.109 C 251.432 709.939 245.807 699.653 240.231 687.791 C 230.974 686.897 220.171 687.739 211.265 685.031 C 209.598 684.524 208.585 683.24 207.837 681.701 C 203.841 673.477 200.737 653.455 203.705 644.734 C 210.561 637.91 222.596 635.161 231.575 631.954 C 233.735 620.306 236.823 609.494 240.956 598.384 C 233.701 589.53 224.664 582.144 218.771 572.23 C 223.013 563.15 233.732 545.815 243.333 542.571 C 253.093 539.273 266.037 548.186 274.48 552.541 C 284.2 545.001 294.113 538.858 305.009 533.14 C 304.183 525.579 300.878 510.744 305.363 504.277 C 310.709 496.569 327.18 495.83 335.83 494.296 z"
     id="path36" />
  <path
     transform="translate(0,0)"
     fill="rgb(254,254,254)"
     d="M 341.096 500.4 C 341.921 500.316 342.972 500.542 343.803 500.634 C 349.689 506.818 351.629 520.346 353.795 528.585 C 374.368 530.62 389.23 535.034 407.379 544.953 C 413.571 536.862 419.231 531.864 427.039 525.544 C 427.258 525.367 427.473 525.185 427.69 525.005 C 434.519 529.156 452.74 539.194 454.491 547.792 C 455.803 554.235 445.099 559.316 442.176 564.519 C 440.819 566.933 440.383 570.634 441.5 573.254 C 443.55 578.066 448.726 581.876 451.45 586.413 C 456.319 594.526 459.166 604.249 462.068 613.216 C 473.133 612.299 484.026 612.751 495.042 614.041 C 496.772 624.965 496.819 636.356 497.269 647.403 C 486.778 650.726 475.517 652.374 464.787 654.88 C 464.849 670.36 458.449 684.826 452.36 698.732 C 459.631 706.278 467.913 712.645 474.846 720.575 C 469.454 730.25 463.343 739.14 456.062 747.499 C 445.684 743.973 436.605 737.055 426.53 732.657 C 412.969 742.045 400.476 748.891 385.072 754.797 C 384.581 765.408 384.374 776.108 382.76 786.619 C 377.289 787.532 371.745 788.085 366.239 788.752 C 361.502 789.096 356.673 788.986 351.92 789.06 A 1024.92 1024.92 0 0 1 342.633 757.834 C 327.658 755.517 315.177 752.026 301.713 745.023 C 293.668 752.109 285.865 759.084 277.392 765.678 C 268.697 761.228 261.058 754.441 253.616 748.209 C 256.356 738 262.696 728.648 267.951 719.544 C 256.29 707.438 250.099 696.193 243.381 680.897 C 236.087 680.864 219.83 682.614 214.31 677.613 C 208.543 672.388 209.327 655.229 208.773 647.823 C 218.213 643.436 228.21 640.455 238.087 637.215 C 239.452 622.563 243.179 609.781 248.718 596.178 C 241.437 587.828 233.302 580.068 225.714 571.981 C 229.641 565.184 239.262 549.492 247.343 548.068 C 255.639 546.606 267.848 556.714 274.537 561.02 C 286.367 551.17 297.983 543.942 311.562 536.812 C 311.305 526.637 309.961 516.548 309.809 506.336 C 320.016 503.459 330.606 501.843 341.096 500.4 z"
     id="path37" />
  <path
     transform="translate(0,0)"
     fill="rgb(28,34,75)"
     d="M 345.672 577.317 A 66.6249 66.6249 0 0 1 392.58 589.804 A 67.2186 67.2186 0 0 1 418.513 633.783 C 420.928 651.213 416.777 670.346 405.866 684.334 C 394.416 699.012 377.625 707.312 359.406 709.68 C 344.154 711.736 326.02 706.122 313.651 697.281 A 65.7961 65.7961 0 0 1 287.144 654.273 C 284.266 636.391 287.687 617.955 298.527 603.26 C 310.376 587.197 326.387 580.12 345.672 577.317 z"
     id="path38" />
  <path
     transform="translate(0,0)"
     fill="rgb(254,254,254)"
     d="M 344.414 583.243 C 359.763 582.1 374.138 584.368 387.017 593.252 A 60.7908 60.7908 0 0 1 412.304 632.962 C 415.149 649.557 410.648 667.9 400.46 681.312 C 390.546 694.363 376.332 701.626 360.268 703.661 A 64.1202 64.1202 0 0 1 320.911 694.6 C 307.22 686.179 297.253 673.2 293.543 657.469 C 289.752 641.397 292.399 623.66 301.471 609.772 C 311.663 594.17 326.724 586.945 344.414 583.243 z"
     id="path39" />
  <path
     transform="translate(0,0)"
     fill="rgb(28,34,75)"
     d="M 1138.16 515.999 C 1152.43 488.871 1165.04 456.156 1196.79 446.346 C 1210.36 442.151 1224.36 438.972 1238.09 435.293 A 6300.1 6300.1 0 0 1 1321.12 413.394 L 1517.01 362.142 L 1721.95 307.691 C 1753.5 299.34 1785.39 288.965 1817.35 282.531 C 1824.2 281.15 1831.59 280.963 1838 284.17 C 1843.67 287.008 1847.3 291.933 1849.1 297.934 C 1850.49 302.563 1850.69 307.65 1849.27 312.291 C 1843.65 330.645 1822.77 367.123 1813.24 385.423 C 1804.1 402.994 1795.79 421.765 1785.84 438.825 C 1781.87 445.617 1775.87 452.622 1769.19 456.796 C 1753.76 466.427 1690.43 480.558 1669.08 485.93 C 1630.23 495.704 1591.8 506.826 1553.07 516.981 L 1304.07 581.725 L 1178.84 614.494 C 1157.74 620.106 1135.19 627.991 1113.91 631.975 C 1108.6 632.968 1103.89 633.637 1099.08 630.719 A 183.672 183.672 0 0 1 1092.23 626.287 C 1073.51 681.609 1054.39 732.301 1015.44 777.244 C 1031.98 772.213 1049.5 767.245 1064.26 758.032 C 1087.95 743.251 1131.95 691.789 1162.42 707.487 C 1166.7 709.692 1170.47 713.179 1173.95 716.463 C 1320.77 654.12 1571.11 645.043 1719.47 705.031 C 1750.95 717.76 1788.59 734.667 1802.77 767.992 C 1805.77 775.036 1807.39 782.17 1807.67 789.82 C 1808.79 820.479 1807.13 851.755 1807.29 882.488 A 17131.1 17131.1 0 0 1 1807.23 1164.11 A 25204.4 25204.4 0 0 1 1807.66 1457.38 C 1807.49 1493.63 1808.82 1530.25 1807.39 1566.44 C 1807.21 1571.03 1806.06 1575.48 1804.24 1579.69 C 1791.35 1609.51 1751.09 1626.99 1722.76 1637.55 C 1697.93 1646.8 1672.27 1653.46 1646.38 1658.99 C 1633.41 1661.76 1619.34 1663.29 1606.75 1667.27 C 1652.92 1666.51 1699.09 1667.57 1745.26 1667.36 L 1815.25 1667.69 C 1825.79 1667.71 1836.62 1666.73 1847.11 1667.47 C 1850.87 1667.74 1857.67 1668.36 1860.36 1671.49 C 1861.64 1672.98 1861.1 1673.76 1860.89 1675.47 C 1858.6 1678.55 1857.23 1680.54 1853.19 1681.14 C 1842.14 1682.8 1829.51 1681.27 1818.24 1681.31 A 7320.19 7320.19 0 0 1 1725.33 1681.23 L 1438.42 1681.16 L 218.284 1681.39 C 210.951 1681.44 192.555 1683.39 186.95 1678.76 C 185.895 1677.89 186.071 1677.1 185.863 1675.86 C 187.58 1672.09 189.611 1670.01 193.585 1668.58 C 199.896 1666.32 244.032 1668.02 253.319 1668 L 413.584 1667.64 C 399.271 1660.09 382.575 1650.03 377.593 1633.5 C 373.605 1620.26 379.397 1607.09 385.833 1595.7 C 390.601 1587.27 396.186 1579.19 401.521 1571.11 C 392.258 1574.52 382.911 1577.14 373.391 1579.69 C 370.954 1595.79 369.799 1614.26 355.752 1624.98 C 346.46 1632.06 334.438 1634.49 322.981 1632.88 C 312.498 1631.41 302.995 1626.45 296.866 1617.68 C 289.395 1606.99 288.448 1594.36 287.499 1581.79 C 267.537 1577.56 249.919 1569.05 231.848 1559.93 C 219.764 1570.13 206.16 1580.83 189.312 1579.15 C 177.967 1578.01 167.447 1571.65 160.394 1562.81 C 153.276 1553.9 149.601 1542.12 151.091 1530.74 C 152.876 1517.11 161.78 1506.73 170.669 1496.96 C 160.966 1479.64 154.665 1462.82 149.373 1443.77 C 132.934 1442.5 116.664 1441 105.192 1427.49 C 98.0934 1419.13 95.2145 1408.22 96.1354 1397.38 A 41.2922 41.2922 0 0 1 112.118 1367.75 C 123.45 1358.88 137.872 1357.09 151.808 1356.95 C 155.937 1338.39 162.605 1321.29 173.224 1305.43 C 162.545 1293.88 151.57 1281.45 152.154 1264.6 C 152.527 1253.84 157.705 1243.41 165.756 1236.32 A 40.2484 40.2484 0 0 1 195.583 1226.41 C 209.89 1227.65 220.624 1236.7 230.058 1246.66 C 248.581 1237.24 267.101 1229.34 287.547 1225.05 C 287.514 1208.41 285.752 1192.58 298.795 1179.79 C 307.052 1171.7 318.67 1167.68 330.148 1168.06 A 42.2226 42.2226 0 0 1 360.603 1182.3 C 372.093 1195.47 368.451 1208.63 369.997 1224.44 C 390.148 1229.73 406.703 1238.24 425.135 1247.48 C 437.226 1236.92 447.238 1227.48 464.68 1229.02 C 477.058 1230.12 488.466 1236.83 496.05 1246.58 C 502.451 1254.81 505.996 1265.55 504.522 1275.98 C 502.434 1290.78 492.353 1300.49 481.856 1309.98 C 486.748 1318.5 492.167 1327 496.305 1335.89 L 496.868 1335.73 C 498.669 1334.14 555.066 1224.87 556.711 1217.52 C 558.983 1207.36 558.673 1196.1 559.215 1185.71 A 1637.61 1637.61 0 0 1 562.771 1130.48 C 569.97 1049.44 583.41 966.426 613.438 890.432 C 617.533 880.655 621.876 870.865 625.339 860.844 C 627.949 853.292 629.625 845.421 632.485 837.957 C 643.042 810.395 656.099 781.848 670.217 755.902 C 659.899 724.433 649.648 691.116 665.468 659.443 C 675.61 639.137 694.256 624.612 715.672 617.69 C 730.848 612.786 746.261 612.585 762.057 612.992 L 764.483 602.491 C 747.943 600.491 695.77 595.848 683.706 589.316 C 681.662 585.652 681.912 582.965 683.032 579.089 C 684.601 573.661 687.083 569.407 690.62 565.045 C 671.988 572.771 654.705 580.862 634.423 572.452 C 622.41 567.47 612.462 558.555 607.532 546.353 C 602.82 534.692 602.792 521.026 607.835 509.466 C 613.923 495.51 627.233 485.744 641.204 480.527 C 668.642 470.28 698.01 477.201 724.183 461.555 C 766.42 436.305 756.631 386.967 820.06 379.113 C 836.347 377.097 852.263 379.271 867.123 386.283 C 887.915 396.093 904.378 408.338 912.339 430.636 C 926.823 471.205 917.739 531.647 899.192 569.662 C 889.519 589.488 874.363 601.719 853.53 608.812 C 843.855 612.107 833.583 614.183 823.684 616.769 L 823.227 618.129 C 827.064 622.888 848.354 632.923 854.728 637.192 C 867.011 645.418 941.619 703.067 946.084 711.896 C 948.048 715.781 949.477 719.001 953.851 720.578 C 957.877 722.029 962.748 719.606 966.126 717.601 C 1001 696.898 1035.46 632.233 1050.68 594.678 C 1057.19 578.609 1061.57 559.968 1070.77 545.315 C 1082.02 527.39 1107.61 507.326 1129.99 512.934 C 1132.78 513.633 1135.56 514.785 1138.16 515.999 z"
     id="path40" />
  <path
     transform="translate(0,0)"
     fill="rgb(222,76,88)"
     d="M 879.392 1617.99 C 886.833 1619.13 894.581 1620.55 901.545 1623.5 C 906.634 1625.65 913.397 1629.15 915.165 1634.88 C 916.003 1637.6 915.525 1639.99 914.371 1642.5 C 910.886 1650.09 900.929 1655.23 893.493 1657.86 C 862.802 1668.7 822.612 1662.52 793.773 1648.89 C 791.281 1647.04 789.037 1644.72 786.762 1642.6 C 788.689 1637.27 791.109 1632.11 793.376 1626.92 C 796.192 1629.74 799.028 1632.52 802.158 1634.99 C 821.028 1649.88 845.897 1655.45 869.559 1652.62 C 878.102 1651.61 890.818 1648.79 896.079 1641.55 C 897.984 1638.93 898.209 1636.33 897.437 1633.25 C 895.686 1626.26 885.132 1621.53 879.392 1617.99 z"
     id="path41" />
  <path
     transform="translate(0,0)"
     fill="rgb(254,254,254)"
     d="M 787.067 561.202 C 795.286 570.064 803.216 576.908 813.32 583.531 C 811.263 595.017 805.33 616.081 807.758 626.975 C 809.011 628.184 810.036 629.07 811.591 629.864 C 811.509 630.861 810.528 632.024 810.002 632.878 C 802.148 637.926 780.783 627.03 771.515 625.231 C 771.103 625.151 770.689 625.083 770.275 625.009 A 1314.04 1314.04 0 0 0 787.067 561.202 z"
     id="path42" />
  <path
     transform="translate(0,0)"
     fill="rgb(240,122,127)"
     d="M 721.568 819.622 A 236.828 236.828 0 0 1 708.817 801.673 C 687.677 768.882 662.292 720.05 671.348 680.214 C 675.478 662.043 687.038 646.999 702.783 637.235 C 702.794 637.674 702.822 638.113 702.815 638.552 C 702.744 642.857 689.012 662.349 686.435 667.585 C 665.8 709.522 705.616 777.444 729.292 812.887 L 721.568 819.622 z"
     id="path43" />
  <path
     transform="translate(0,0)"
     fill="rgb(222,76,88)"
     d="M 390.189 1608.64 C 393.517 1611.52 396.15 1615.73 398.967 1619.14 C 409.506 1631.91 420.271 1639.35 436.375 1643.41 C 448.038 1646.35 468.35 1648.6 478.84 1641.79 C 481.733 1639.91 483.676 1637.24 484.374 1633.85 C 485.817 1626.83 481.823 1620.86 478.334 1615.18 C 490.868 1618.12 502.166 1621.48 510.376 1632.07 C 511.584 1635.22 512.829 1638.06 512.425 1641.5 C 511.819 1646.65 507.229 1651.25 503.116 1653.95 C 485.505 1665.49 460.106 1665.2 440.239 1661.41 C 423.164 1658.16 403.177 1650.41 393.355 1635.16 C 387.568 1626.17 387.882 1618.53 390.189 1608.64 z"
     id="path44" />
  <path
     transform="translate(0,0)"
     fill="rgb(254,254,254)"
     d="M 812.886 1576.69 C 827.586 1580.9 841.904 1581.18 857.044 1580.91 C 855.035 1590.3 853.145 1600.45 856.126 1609.82 C 860.342 1623.07 872.69 1629.3 884.087 1635.39 C 879.745 1637.17 875.522 1638.54 870.996 1639.76 C 867.687 1640.25 864.32 1640.72 860.974 1640.86 C 836.153 1641.92 817.298 1631.07 799.778 1614.58 C 805.87 1602.04 809.624 1590.18 812.886 1576.69 z"
     id="path45" />
  <path
     transform="translate(0,0)"
     fill="rgb(254,254,254)"
     d="M 426.36 1540.3 C 430.948 1542.55 435.442 1545.84 439.942 1548.37 C 447.578 1552.66 455.464 1556.41 463.367 1560.18 C 457.8 1564.9 446.349 1572.65 445.186 1580.38 C 443.512 1591.5 458.066 1606.66 464.421 1614.92 C 467.594 1619.04 471.782 1623.85 471.095 1629.34 C 468.918 1631.73 467.375 1631.91 464.347 1632.91 C 454.885 1633.41 446.267 1633.33 437.112 1630.6 C 419.766 1625.44 408.283 1613.62 399.794 1598.18 C 403.926 1588.56 410.178 1579.56 414.867 1570.15 C 419.591 1560.68 422.838 1550.27 426.36 1540.3 z"
     id="path46" />
  <path
     transform="translate(0,0)"
     fill="rgb(222,76,88)"
     d="M 1212.2 455.144 L 1213.21 455.343 C 1213.48 459.307 1199.02 482.146 1195.98 487.529 C 1172.5 529.08 1150.82 571.546 1127.83 613.373 C 1122.19 615.412 1115.55 618.389 1109.58 618.89 C 1104.98 619.275 1102.51 618.023 1098.98 615.19 C 1101.52 603.893 1120.12 576.846 1126.96 565.542 C 1133.61 563.732 1139.82 562.214 1145.37 557.912 C 1150.84 553.682 1155.12 547.961 1155.65 540.869 C 1156.16 533.986 1153.83 529.723 1149.5 524.634 C 1156.19 511.012 1162.96 497.155 1170.87 484.2 C 1181.44 466.91 1192.64 459.848 1212.2 455.144 z"
     id="path47" />
  <path
     transform="translate(0,0)"
     fill="rgb(222,76,88)"
     d="M 1819.55 294.903 C 1823.95 294.744 1828.47 294.7 1832.72 296.032 C 1835.44 296.884 1837.43 297.931 1838.6 300.677 C 1839.56 302.935 1837.47 307.128 1836.57 309.442 C 1828.03 331.317 1814.9 352.766 1804.21 373.753 C 1796.07 389.738 1779.63 425.981 1769.91 438.667 C 1765.95 443.832 1759.53 446.676 1753.72 449.222 C 1747.92 451.552 1741.68 453.216 1735.71 455.093 A 4111.9 4111.9 0 0 0 1788.79 352.258 C 1797.91 334.218 1807.23 310.797 1819.55 294.903 z"
     id="path48" />
  <path
     transform="translate(0,0)"
     fill="rgb(222,76,88)"
     d="M 1694.1 328.216 L 1694.42 328.55 C 1694.72 331.876 1618.51 472.946 1610.87 487.317 C 1600.97 489.588 1591.14 492.443 1581.31 495.024 L 1580.45 493.59 C 1586.87 475.657 1598.25 457.941 1607.26 441.064 A 5909.68 5909.68 0 0 0 1662.28 337.558 C 1673.06 334.944 1683.55 331.591 1694.1 328.216 z"
     id="path49" />
  <path
     transform="translate(0,0)"
     fill="rgb(222,76,88)"
     d="M 1533.59 370.993 C 1534.7 370.887 1534.04 370.828 1535.49 371.643 C 1533.68 380.311 1518.85 403.321 1514.02 412.296 C 1493.15 451.024 1473.09 490.437 1450.57 528.237 C 1441 531.648 1431.09 534.163 1421.31 536.902 L 1419.86 536.904 L 1419.44 535.6 C 1428.53 515.492 1440.76 496.145 1451.19 476.655 C 1468.73 443.883 1485.16 409.652 1505.94 378.79 C 1515.24 376.446 1524.41 373.759 1533.59 370.993 z"
     id="path50" />
  <path
     transform="translate(0,0)"
     fill="rgb(222,76,88)"
     d="M 1375.03 412.187 C 1375.48 412.624 1375.44 413.38 1375.61 413.988 C 1366.55 431.85 1355.66 448.739 1346.09 466.341 C 1327.06 501.384 1308.7 537.101 1288.44 571.44 C 1277.29 573.653 1266.36 577.261 1255.51 580.617 C 1255.1 580.162 1254.99 579.512 1254.77 578.944 C 1260.86 564.495 1269.62 550.619 1277.2 536.87 A 4881.3 4881.3 0 0 0 1319.41 459.438 C 1325.99 447.175 1333.29 435.147 1339.03 422.474 C 1351.12 419.356 1363.29 416.467 1375.03 412.187 z"
     id="path51" />
  <path
     transform="translate(0,0)"
     fill="rgb(222,76,88)"
     d="M 1133.77 1391.49 C 1144.07 1399.28 1153.03 1408.37 1164.25 1415.04 C 1228.9 1453.43 1323.22 1466.91 1396.85 1473.11 L 1395.96 1495.7 C 1395.29 1495.77 1394.63 1495.87 1393.95 1495.91 C 1381.68 1496.66 1366.98 1493.21 1354.58 1491.69 C 1296.66 1484.62 1189.14 1465.68 1147.3 1423.43 C 1138.04 1414.07 1133.65 1404.52 1133.77 1391.49 z"
     id="path52" />
  <path
     transform="translate(0,0)"
     fill="rgb(222,76,88)"
     d="M 1134.16 1191.47 C 1142.91 1196.61 1151.65 1208.64 1162.86 1215.05 C 1231.7 1254.42 1317.13 1267.65 1395.05 1273.02 L 1395 1296.9 C 1330.43 1292.29 1191.71 1271.23 1145.23 1223.76 C 1134.97 1213.28 1134.1 1205.41 1134.16 1191.47 z"
     id="path53" />
  <path
     transform="translate(0,0)"
     fill="rgb(222,76,88)"
     d="M 1133.78 993.515 C 1142.54 1001.14 1151.42 1009.2 1161.28 1015.37 C 1231.7 1059.42 1341.35 1073.18 1423.06 1076.37 L 1423.01 1100.11 C 1347.23 1098.37 1199.43 1079.57 1144.32 1023.42 C 1134.46 1013.38 1133.72 1006.87 1133.78 993.515 z"
     id="path54" />
  <path
     transform="translate(0,0)"
     fill="rgb(222,76,88)"
     d="M 1792.69 995.822 C 1792.91 997.115 1792.99 998.327 1793 999.642 C 1793.12 1010.59 1788.68 1018.42 1780.97 1026.05 C 1760.02 1046.77 1728.15 1058.86 1700.52 1067.65 C 1614.37 1095.03 1526.25 1101.42 1436.35 1100.8 C 1435.17 1093.11 1435.89 1084.72 1435.97 1076.93 C 1466.67 1077.25 1497.42 1077.48 1528.08 1075.64 C 1598.58 1071.39 1693.83 1056.64 1756.35 1022.11 C 1769.73 1014.72 1781.31 1005.95 1792.69 995.822 z"
     id="path55" />
  <path
     transform="translate(0,0)"
     fill="rgb(222,76,88)"
     d="M 1791.09 1195.95 C 1792.67 1197.65 1793.06 1200.77 1792.88 1202.98 C 1792.15 1212.27 1782.62 1222.23 1775.96 1228.24 C 1758.74 1243.76 1736.39 1253.26 1714.89 1261.24 C 1621.78 1295.77 1507.97 1302.69 1409.25 1298.18 C 1406.49 1293.37 1408.31 1279.82 1408.46 1273.9 C 1516.81 1279.55 1706.41 1271.3 1791.09 1195.95 z"
     id="path56" />
  <path
     transform="translate(0,0)"
     fill="rgb(222,76,88)"
     d="M 1793.06 1391.59 C 1794.11 1391.89 1793.41 1391.61 1794.88 1392.93 C 1794.88 1393.45 1794.9 1393.97 1794.88 1394.49 C 1794.6 1405.27 1783.7 1419.64 1775.98 1426.88 C 1719.8 1479.55 1576.63 1495.1 1501.94 1497.9 C 1471.97 1499.02 1441.93 1497.89 1411.98 1496.91 C 1410.75 1496.6 1411.48 1496.91 1410.09 1495.46 C 1409.17 1488.49 1409.91 1480.9 1410.1 1473.86 L 1434.74 1474.8 C 1529.74 1477.56 1676.27 1465.76 1759.46 1417.34 C 1771.93 1410.08 1782.59 1401.49 1793.06 1391.59 z"
     id="path57" />
  <path
     transform="translate(0,0)"
     fill="rgb(254,254,254)"
     d="M 897.678 440.88 L 898.464 441.685 C 901.15 453.88 901.426 467.821 901.166 480.241 C 900.564 509.084 892.52 543.796 870.735 564.338 C 861 573.518 848.533 580.018 834.838 579.352 C 819.26 578.596 807.402 568.983 797.568 557.855 C 792.566 550.132 789.571 541.835 786.245 533.31 C 782.023 532.275 778.301 531.353 774.844 528.606 C 772.466 526.716 770.325 524.325 770.389 521.077 C 770.543 513.215 783.88 510.385 789.844 507.731 C 829.828 489.94 864.498 469.647 897.678 440.88 z"
     id="path58" />
  <path
     transform="translate(0,0)"
     fill="rgb(28,34,75)"
     d="M 872.448 487.13 C 878.498 486.641 885.678 487.233 891.323 489.58 L 891.958 492.702 C 891.833 492.78 891.714 492.867 891.583 492.936 C 887.618 495.045 884.111 494.968 879.789 493.578 C 875.653 492.247 874.459 491.01 872.448 487.13 z"
     id="path59" />
  <path
     transform="translate(0,0)"
     fill="rgb(28,34,75)"
     d="M 894.509 506.743 C 895.21 507.479 895.344 507.454 895.655 508.473 C 896.343 510.722 895.715 513.446 894.53 515.423 C 892.857 518.213 889.228 520.843 885.958 521.287 C 882.858 521.707 881.37 520.318 878.953 518.793 C 878.025 517.006 877.57 515.494 877.16 513.525 L 878.168 512.199 C 881.781 513.227 884.855 513.757 888.615 513.76 C 891.905 511.886 892.586 509.949 894.509 506.743 z"
     id="path60" />
  <path
     transform="translate(0,0)"
     fill="rgb(28,34,75)"
     d="M 837.678 496.52 L 841.332 497.396 C 843.604 499.741 845.395 501.714 848.474 503.017 C 850.942 503.135 852.085 503.085 854.265 501.846 C 855.897 500.919 857.087 500.388 858.965 500.015 C 861.461 501.451 861.364 502.695 862.299 505.349 C 859.56 507.221 857.112 508.488 853.845 509.213 C 849.725 510.128 845.506 510.05 842.09 507.236 C 838.752 504.487 838.261 500.513 837.678 496.52 z"
     id="path61" />
  <path
     transform="translate(0,0)"
     fill="rgb(28,34,75)"
     d="M 834.933 532.643 C 836.139 533.791 837.143 534.912 838.094 536.282 C 838.753 537.231 839.391 538.196 840.078 539.124 C 842.169 541.949 844.658 543.664 848.263 544.015 C 852.386 544.417 857.151 541.302 860.142 538.84 C 861.666 537.586 862.837 536.601 864.672 535.803 C 866.433 537.896 865.781 538.45 865.628 541.072 C 863.424 544.162 861.339 546.788 857.771 548.342 C 852.778 550.516 845.867 550.176 840.952 547.934 C 837.578 546.395 834.902 543.935 833.811 540.295 C 832.879 537.19 833.636 535.435 834.933 532.643 z"
     id="path62" />
  <path
     transform="translate(0,0)"
     fill="rgb(222,76,88)"
     d="M 676.357 772.378 C 679.723 774.786 691.971 799.003 695.511 804.636 C 702.574 815.875 710.331 826.644 718.068 837.423 C 726.638 831.592 734.832 825.145 743.118 818.918 C 768.831 839.814 789.659 852.13 821.62 861.136 C 817.577 871.693 813.44 882.782 807.617 892.506 C 806.404 894.531 806.507 894.407 804.244 894.994 C 761.747 898.231 715.079 894.948 675.48 878.181 C 662.72 872.778 651.018 865.6 639.18 858.471 C 649.766 829.539 662.091 799.682 676.357 772.378 z"
     id="path63" />
  <path
     transform="translate(0,0)"
     fill="rgb(254,254,254)"
     d="M 1116.8 525.119 C 1124.26 524.596 1132.55 525.314 1138.54 530.306 C 1141.24 532.563 1143.2 535.789 1143.04 539.427 C 1142.91 542.229 1141.5 544.731 1139.46 546.581 C 1132.61 552.784 1123.46 551.273 1115.06 550.645 C 1106.77 554.178 1099.84 561.007 1095.83 569.06 C 1087.63 585.514 1084.03 606.011 1078.99 623.682 C 1064.58 674.222 1043.74 728.128 1007.17 766.746 C 1002 772.205 995.971 778.882 989.19 782.348 C 976.424 788.874 952.875 787.637 938.426 788.053 C 930.441 788.062 922.438 787.675 914.457 787.422 C 927.027 767.876 936.395 749.67 943.445 727.534 C 944.211 728.051 944.97 728.58 945.754 729.069 C 951.598 732.709 957.988 733.41 964.6 731.617 C 996.983 722.832 1040.55 649.249 1054.22 618.522 C 1063.01 598.77 1068.37 576.48 1078.69 557.612 C 1087.26 541.936 1099.39 530.276 1116.8 525.119 z"
     id="path64" />
  <path
     transform="translate(0,0)"
     fill="rgb(254,254,254)"
     d="M 1798.98 301.235 C 1800.88 301.185 1800.04 300.915 1801.52 301.95 A 4867.72 4867.72 0 0 1 1720.2 458.355 C 1691.14 465.357 1662.31 473.676 1633.24 480.791 L 1631.28 480.787 L 1630.87 479.419 C 1636.45 462.869 1656.44 430.406 1665.62 413.388 C 1681.6 383.739 1696.25 353.161 1713.01 323.958 C 1739.36 314.598 1771.46 307.732 1798.98 301.235 z"
     id="path65" />
  <path
     transform="translate(0,0)"
     fill="rgb(254,254,254)"
     d="M 1643.6 342.104 L 1646.36 342.028 C 1646.54 344.957 1570.6 483.982 1561.83 500.278 C 1532.59 508.562 1502.79 515.298 1473.29 522.637 L 1471.22 522.633 C 1470.81 520.458 1471.89 518.616 1472.86 516.675 C 1481.82 498.891 1492.28 481.702 1501.7 464.134 A 5504.8 5504.8 0 0 1 1554.54 365.657 C 1582.86 356.304 1614.5 349.889 1643.6 342.104 z"
     id="path66" />
  <path
     transform="translate(0,0)"
     fill="rgb(254,254,254)"
     d="M 1322.01 427.255 L 1322.37 427.574 C 1322.39 433.961 1246.38 566.38 1236.19 585.38 A 2982.63 2982.63 0 0 1 1146.5 608.843 C 1145.8 608.56 1146.26 608.819 1145.58 607.543 C 1160.82 577.507 1177.57 548.099 1193.43 518.366 C 1205.28 496.14 1216.45 471.983 1230.38 451.047 C 1260.58 442.07 1291.49 435.094 1322.01 427.255 z"
     id="path67" />
  <path
     transform="translate(0,0)"
     fill="rgb(254,254,254)"
     d="M 1486.17 384.268 C 1485.54 391.437 1410.37 525.463 1401.32 542.882 C 1370.09 550.052 1339.16 560.113 1307.64 565.804 C 1307.15 562.688 1385.27 422.969 1393.24 408.683 A 2661.12 2661.12 0 0 1 1486.17 384.268 z"
     id="path68" />
  <path
     transform="translate(0,0)"
     fill="rgb(254,254,254)"
     d="M 1143.29 717.092 C 1146.1 716.834 1149.44 716.55 1152.17 717.29 C 1161.05 719.695 1170.66 729.85 1174.5 737.963 C 1176.8 742.822 1177.38 747.9 1175.31 752.952 C 1172.42 759.974 1163.25 769.334 1156.06 772.057 C 1143 776.995 1138.6 760.434 1128.7 757.053 C 1124.48 755.61 1119.21 759.645 1115.77 761.847 C 1101.56 770.947 1088.56 782.446 1075.01 792.513 C 1052.1 809.53 1025.96 823.491 999.44 833.894 C 934.119 859.514 857.152 866.184 791.672 837.495 C 776.871 830.22 764.755 820.612 753.954 808.215 C 771.167 794.52 787.836 780.344 804.592 766.11 C 816.226 773.094 828.108 779.611 840.781 784.523 C 907.63 810.432 1012.54 805.663 1074.4 766.892 C 1097.97 752.119 1115.89 729.054 1141.93 717.68 L 1143.29 717.092 z"
     id="path69" />
  <path
     transform="translate(0,0)"
     fill="rgb(222,76,88)"
     d="M 770.275 625.009 C 770.689 625.083 771.103 625.151 771.515 625.231 C 780.783 627.03 802.148 637.926 810.002 632.878 C 810.528 632.024 811.509 630.861 811.591 629.864 C 817.641 628.265 822.115 631.257 827.234 634.234 C 855.02 650.39 880.679 673.447 905.718 693.531 C 915.221 701.152 924.678 709.178 934.985 715.694 C 926.813 741.993 914.837 765.651 897.828 787.444 C 886.735 785.162 874.959 783.45 864.443 779.145 C 872.458 746.645 875.467 719.107 868.616 685.889 C 867.199 679.02 865.649 669.976 861.875 663.959 C 860.302 661.451 859.124 660.619 856.407 659.592 C 853.802 660.353 853.325 660.588 851.423 662.511 C 850.929 664.054 850.583 665.31 850.757 666.948 C 851.429 673.273 853.461 679.712 854.735 685.979 A 228.41 228.41 0 0 1 858.738 717.109 A 163.033 163.033 0 0 1 851.545 774.444 C 838.495 769.601 826.335 763.813 814.108 757.159 L 819.798 749.252 C 807.089 730.887 793.084 713.42 779.866 695.418 C 767.404 678.445 755.482 660.397 742.023 644.239 C 740.295 642.164 738.605 640.179 736.002 639.263 C 733.462 639.802 731.727 640.492 730.106 642.687 C 728.801 644.454 728.527 645.443 729.057 647.557 C 730.345 652.695 796.161 739.716 803.628 749.282 C 779.064 770.535 754.82 792.835 729.292 812.887 C 705.616 777.444 665.8 709.522 686.435 667.585 C 689.012 662.349 702.744 642.857 702.815 638.552 C 702.822 638.113 702.794 637.674 702.783 637.235 C 721.538 621.911 749.371 629.131 770.275 625.009 z"
     id="path70" />
  <path
     transform="translate(0,0)"
     fill="rgb(254,254,254)"
     d="M 1134.01 1032.4 C 1139.3 1035.73 1143.61 1041.26 1148.62 1045.14 C 1157.83 1052.28 1169.08 1058.4 1179.43 1063.7 C 1195.97 1072.17 1213.2 1078.08 1230.85 1083.71 C 1312.47 1109.76 1399.63 1116.48 1484.9 1114.84 C 1568.15 1113.25 1733.97 1094.16 1793.69 1032.02 C 1793.2 1062.4 1794.05 1092.92 1794.09 1123.32 C 1794.1 1136.97 1795.29 1151.87 1793.11 1165.3 C 1792.49 1169.09 1790.76 1172.35 1788.96 1175.7 A 80.0803 80.0803 0 0 1 1777.54 1189.83 C 1764.68 1202.25 1748.45 1210.16 1732.28 1217.32 C 1653.83 1252.06 1547.02 1263 1462 1261.84 C 1373.44 1260.63 1279.77 1252.6 1197.64 1217.01 C 1178.69 1208.8 1159.73 1199.76 1145.25 1184.61 C 1141.03 1180.19 1136.69 1175.02 1135.14 1169.02 C 1131.68 1155.68 1133.42 1138.33 1133.37 1124.52 A 3111.24 3111.24 0 0 1 1134.01 1032.4 z"
     id="path71" />
  <path
     transform="translate(0,0)"
     fill="rgb(254,254,254)"
     d="M 1793.84 1230.04 C 1795.34 1236.33 1794.9 1354.49 1793.38 1363.41 C 1791.08 1376.89 1774.61 1390.87 1764.03 1398.28 C 1733.55 1419.64 1695.09 1431.34 1659.12 1439.84 C 1548.14 1466.07 1421.92 1468.01 1309.68 1448.66 C 1258.61 1439.85 1169.01 1418.03 1138.19 1374.37 C 1136.13 1371.14 1134.76 1368.38 1134.21 1364.54 C 1132 1348.97 1133.37 1331.41 1133.34 1315.65 C 1133.3 1287.17 1132.74 1258.55 1133.68 1230.1 C 1143.4 1238.87 1153.58 1247.07 1164.83 1253.8 C 1235.53 1296.06 1350.24 1309.97 1431.15 1312.47 C 1533.93 1315.66 1715.1 1304.04 1793.84 1230.04 z"
     id="path72" />
  <path
     transform="translate(0,0)"
     fill="rgb(254,254,254)"
     d="M 1793.99 826.836 C 1796.28 838.241 1794.21 864.861 1794.17 877.585 L 1794.04 933.818 C 1794.01 944.167 1794.73 955.17 1793.32 965.404 C 1791.41 979.344 1781.11 989.379 1770.31 997.361 C 1699.92 1049.38 1551.53 1063.86 1465.72 1063.93 A 963.708 963.708 0 0 1 1321.51 1052.81 C 1262.8 1043.74 1171.04 1023.27 1134.58 973.553 C 1131.18 965.204 1133.52 847.294 1133.38 827.016 A 196.067 196.067 0 0 0 1140.42 834.138 C 1213.33 903.602 1392.31 918.659 1487.83 915.956 C 1579.54 913.36 1727.85 896.832 1793.99 826.836 z"
     id="path73" />
  <path
     transform="translate(0,0)"
     fill="rgb(254,254,254)"
     d="M 299.809 1235.01 L 299.65 1221.12 C 299.582 1210.2 298.852 1196.56 307.422 1188.4 C 313.22 1182.87 321.331 1180.66 329.193 1180.95 C 336.934 1181.22 345.265 1183.97 350.571 1189.85 C 360.02 1200.3 357.179 1221.2 356.935 1234.35 C 382.395 1241.29 403.712 1249.55 426.243 1263.45 C 435.8 1254.45 447.658 1241.91 461.591 1241.12 C 468.691 1240.72 475.555 1243.98 480.704 1248.7 C 486.985 1254.45 491.404 1262.79 491.451 1271.42 C 491.533 1286.32 474.256 1299.59 464.43 1309.18 C 474.559 1322.61 483.049 1336.53 489.512 1352.08 C 483.078 1366.52 423.023 1490.75 419.804 1492 C 418.374 1492.44 418.432 1492.39 416.866 1493.03 C 407.738 1496.77 404.13 1508.71 400.678 1517.03 C 405.571 1523.24 412.113 1528.33 418.089 1533.46 C 415.053 1540.24 412.254 1547.02 409.671 1553.99 C 393.895 1560.92 378.225 1567.29 361 1569.33 C 359.688 1582.16 360.828 1599.9 352.487 1610.42 C 347.548 1616.65 339.981 1620.28 332.124 1620.95 C 324.483 1621.59 316.547 1619.28 310.712 1614.24 C 299.26 1604.34 299.504 1584.59 298.812 1570.65 C 272.559 1566.03 253.086 1556.92 230.236 1543.75 C 221.059 1552.25 208.791 1565.33 195.877 1567.09 C 188.374 1568.12 181.064 1565.04 175.409 1560.24 C 168.414 1554.31 163.103 1545.24 162.816 1535.93 C 162.359 1521.03 177.758 1508.09 187.329 1498.2 C 173.667 1476.47 164.731 1458.15 161.346 1432.54 C 147.958 1431.68 129.852 1432.49 119.11 1423.56 C 112.921 1418.41 109.413 1410.98 108.873 1403 C 108.343 1395.14 110.472 1386.65 115.749 1380.66 C 126.199 1368.79 146.744 1369.54 161.338 1368.59 C 166.296 1345.51 174.423 1324.44 189.013 1305.68 C 180.293 1294.92 163.618 1280.13 164.52 1265.39 C 164.985 1257.78 169.131 1250.6 174.762 1245.59 C 179.905 1241.02 186.55 1238.06 193.531 1238.59 C 205.404 1239.51 221.67 1253.88 229.421 1262.66 C 251.946 1248.87 274.004 1240.23 299.809 1235.01 z"
     id="path74" />
  <path
     transform="translate(0,0)"
     fill="rgb(28,34,75)"
     d="M 315.64 1302.33 C 315.834 1302.3 316.027 1302.26 316.223 1302.24 C 342.071 1299.55 366.899 1305.79 387.872 1321.21 C 409.267 1336.95 425.083 1362.14 429.062 1388.5 A 102.58 102.58 0 0 1 409.897 1464.55 C 392.284 1488.01 367.958 1500.68 339.247 1504.64 C 315.283 1508.52 287.785 1499.96 268.42 1486.01 A 101.796 101.796 0 0 1 226.632 1417.86 A 101.432 101.432 0 0 1 245.727 1341.82 C 262.599 1319.32 288.139 1306.28 315.64 1302.33 z"
     id="path75" />
  <path
     transform="translate(0,0)"
     fill="rgb(254,254,254)"
     d="M 327.185 1314.41 A 87.7453 87.7453 0 0 1 387.268 1337.26 A 90.7732 90.7732 0 0 1 417.054 1400.01 A 87.1812 87.1812 0 0 1 394.133 1463.52 C 376.434 1482.82 354.98 1491.18 329.212 1492.42 C 306.592 1491.94 285.807 1485.04 268.662 1470 A 88.2634 88.2634 0 0 1 238.585 1407.76 A 89.237 89.237 0 0 1 260.896 1344.03 C 278.488 1324.5 301.394 1315.84 327.185 1314.41 z"
     id="path76" />
  <path
     transform="translate(0,0)"
     fill="rgb(254,254,254)"
     d="M 1793.65 1427.8 C 1793.1 1459.01 1794.39 1490.39 1794.69 1521.61 C 1794.82 1535.14 1795.82 1549.48 1794.24 1562.9 C 1792.43 1578.33 1783.9 1588.22 1772.04 1597.35 C 1749.89 1614.39 1721.22 1624.94 1694.65 1633.16 C 1588.94 1665.84 1459.93 1671.09 1350.65 1656.71 C 1288.17 1648.49 1178.58 1630.85 1138.04 1578.07 C 1135.82 1573.88 1134.53 1570.32 1133.98 1565.58 C 1132.19 1550.08 1133.4 1533.29 1133.49 1517.64 L 1134.04 1428.6 A 129.684 129.684 0 0 0 1140.03 1434.42 C 1219.91 1505.79 1417.43 1516.92 1518.49 1511.14 C 1597.2 1506.64 1738.82 1489.39 1793.65 1427.8 z"
     id="path77" />
  <path
     transform="translate(0,0)"
     fill="rgb(254,254,254)"
     d="M 1459.28 678.453 C 1544.06 676.191 1707.22 693.356 1773.58 751.232 C 1784.27 760.562 1794.55 773.113 1795.18 787.93 C 1795.79 802.1 1786.14 815.038 1776.67 824.695 C 1765.86 835.717 1752.61 843.607 1739.03 850.742 C 1659.65 892.466 1547.48 901.576 1459 902.742 C 1376.69 901.734 1269.22 890.237 1194.3 853.763 C 1172.37 843.085 1143.2 826.783 1135.27 801.843 C 1133.02 794.761 1133.02 788.444 1136.42 781.805 C 1141.65 780.916 1147.47 784.452 1152.75 785.013 C 1159.52 785.733 1169.21 779.592 1174.19 775.475 C 1182.1 768.949 1188.87 759.418 1189.71 748.931 C 1190.46 739.458 1187.08 734.154 1181.31 727.268 C 1269.71 691.825 1364.69 680.63 1459.28 678.453 z"
     id="path78" />
  <path
     transform="translate(0,0)"
     fill="rgb(254,254,254)"
     d="M 833.868 864.293 C 926.624 878.385 1014.52 853.276 1089.68 798.083 A 341.188 341.188 0 0 0 1119.32 773.686 L 1119.82 1330.55 L 1120.05 1490.85 L 1119.96 1539.48 C 1119.95 1548.55 1119.28 1558.36 1120.47 1567.36 C 1121.99 1578.79 1129.21 1588.99 1137.14 1597.04 C 1180.56 1641.13 1275.1 1660.56 1335.19 1667 C 1316.72 1669.72 1296.08 1667.97 1277.37 1667.93 L 1166.98 1667.65 L 987.19 1667.9 C 958.611 1667.94 929.707 1669.06 901.179 1667.94 C 910.535 1663.42 921.798 1658.05 925.57 1647.57 C 927.84 1641.26 928.202 1633.67 925.193 1627.54 C 920.719 1618.42 909.711 1612.82 900.34 1609.95 C 890.794 1607.02 875.95 1608.51 868.62 1605.18 C 865.492 1598.49 868.672 1585.94 869.899 1578.81 C 876.872 1576.97 881.343 1576.38 885.179 1569.62 C 889.159 1562.62 889.824 1551.83 891.66 1543.92 C 896.605 1514.48 904.573 1484.97 911.216 1455.84 A 10033.6 10033.6 0 0 0 944.859 1303.92 C 950.215 1279.29 956.521 1254.68 960.992 1229.88 C 961.617 1226.42 961.424 1224.11 960.308 1220.75 C 952.56 1197.41 939.714 1174.42 929.289 1152.09 A 7178.53 7178.53 0 0 0 849.495 988.181 L 825.718 941.37 C 821.945 933.917 816.502 925.243 814.288 917.258 C 814.133 916.698 813.995 916.134 813.849 915.572 C 821.064 898.726 826.806 881.237 833.868 864.293 z"
     id="path79" />
  <path
     transform="translate(0,0)"
     fill="rgb(75,74,90)"
     d="M 633.984 871.671 C 645.498 877.845 657.056 884.616 669.056 889.772 C 697.85 902.145 730.768 907.803 762.035 908.892 C 776.141 909.383 790.405 908.355 804.45 909.11 C 807.589 911.099 811.214 912.959 813.849 915.572 C 813.995 916.134 814.133 916.698 814.288 917.258 C 816.502 925.243 821.945 933.917 825.718 941.37 L 849.495 988.181 A 7178.53 7178.53 0 0 1 929.289 1152.09 C 939.714 1174.42 952.56 1197.41 960.308 1220.75 C 961.424 1224.11 961.617 1226.42 960.992 1229.88 C 956.521 1254.68 950.215 1279.29 944.859 1303.92 A 10033.6 10033.6 0 0 1 911.216 1455.84 C 904.573 1484.97 896.605 1514.48 891.66 1543.92 C 882.135 1541.18 865.466 1543.96 855.123 1544.08 C 845.575 1544.18 836.131 1543.68 826.62 1542.93 L 817.914 1541.67 C 809.087 1539.85 800.331 1537.56 791.572 1535.43 C 790.288 1544.29 786.793 1558.87 792.344 1566.62 C 794.37 1569.45 797.747 1571.24 800.673 1572.98 C 799.595 1581.8 797.812 1589.58 794.23 1597.74 C 787.661 1612.71 767.748 1637.39 779.633 1653.04 C 785.752 1661.1 796.295 1664.81 805.635 1667.66 C 765.3 1668.65 724.957 1668.04 684.613 1668.04 A 15885.4 15885.4 0 0 1 503.85 1667.83 C 512.513 1663.54 520.844 1657.9 523.969 1648.22 C 526.076 1641.7 525.363 1633.66 522.216 1627.58 C 510.351 1604.65 479.458 1608.48 465.324 1595.95 C 461.618 1592.66 458.832 1587.61 456.624 1583.23 C 462.367 1576.32 468.177 1569.44 474.482 1563.03 L 495.43 1568.45 C 503.6 1559.28 511.736 1549.73 517.967 1539.1 C 516.556 1537.99 463.083 1513.96 459.155 1512.76 L 452.324 1508.81 C 440.757 1505.06 431.954 1494.99 419.804 1492 C 423.023 1490.75 483.078 1366.52 489.512 1352.08 A 73.2677 73.2677 0 0 0 494.526 1344.79 C 496.419 1341.61 497.17 1339.43 496.305 1335.89 L 496.868 1335.73 C 498.669 1334.14 555.066 1224.87 556.711 1217.52 C 558.983 1207.36 558.673 1196.1 559.215 1185.71 A 1637.61 1637.61 0 0 1 562.771 1130.48 C 569.97 1049.44 583.41 966.426 613.438 890.432 A 33.2003 33.2003 0 0 0 617.245 890.786 C 622.143 891.005 625.992 890.618 629.715 887.247 C 630.973 882 632.157 876.757 633.984 871.671 z"
     id="path80" />
  <path
     transform="translate(0,0)"
     fill="rgb(254,254,254)"
     d="M 817.914 1541.67 C 818.806 1516.39 824.628 1490.39 828.307 1465.37 L 849.472 1323.96 C 851.562 1310.72 856.407 1268.74 860.085 1259.48 C 860.547 1258.32 861.045 1257.41 862.021 1256.61 C 864.058 1254.95 865.32 1254.97 867.768 1254.96 C 869.871 1257.09 870.041 1258.42 869.957 1261.43 C 869.756 1268.64 867.301 1276.21 866.187 1283.35 L 856.206 1348.28 C 846.192 1413.12 837.307 1478.21 826.62 1542.93 L 817.914 1541.67 z"
     id="path81" />
  <path
     transform="translate(0,0)"
     fill="rgb(254,254,254)"
     d="M 633.984 871.671 C 645.498 877.845 657.056 884.616 669.056 889.772 C 697.85 902.145 730.768 907.803 762.035 908.892 C 776.141 909.383 790.405 908.355 804.45 909.11 C 803.079 912.551 801.814 916.061 799.964 919.279 C 760.118 925.223 711.789 917.631 674.032 905.267 C 662.337 926.727 651.351 938.973 629.557 950.078 C 622.464 971.843 619.022 995.208 615.243 1017.73 A 2294.89 2294.89 0 0 0 597.158 1153.91 C 595.576 1169.86 594.33 1219.92 589.544 1231.28 C 580.931 1251.72 570.465 1271.49 560.968 1291.55 L 506.945 1407.49 A 5596.24 5596.24 0 0 0 475.923 1477.37 C 471.055 1488.42 466.391 1503.19 459.155 1512.76 L 452.324 1508.81 C 455.765 1491.1 468.068 1470.53 475.514 1453.62 A 4942.1 4942.1 0 0 1 540.347 1311.99 C 547.871 1296.36 554.978 1280.52 562.635 1264.95 C 568.483 1253.05 575.768 1240.73 580.174 1228.25 C 585.227 1213.93 585.402 1173.41 586.919 1156.03 C 589.656 1124.66 608.977 962.288 620.702 941.253 C 622.891 937.326 635.795 934.737 640.106 931.69 C 650.35 924.449 658.611 912.852 665.487 902.548 C 653.523 897.221 641.323 893.567 629.715 887.247 C 630.973 882 632.157 876.757 633.984 871.671 z"
     id="path82" />
  <path
     transform="translate(0,0)"
     fill="rgb(75,74,90)"
     d="M 613.438 890.432 A 33.2003 33.2003 0 0 0 617.245 890.786 C 622.143 891.005 625.992 890.618 629.715 887.247 C 641.323 893.567 653.523 897.221 665.487 902.548 C 658.611 912.852 650.35 924.449 640.106 931.69 C 635.795 934.737 622.891 937.326 620.702 941.253 C 608.977 962.288 589.656 1124.66 586.919 1156.03 C 585.402 1173.41 585.227 1213.93 580.174 1228.25 C 575.768 1240.73 568.483 1253.05 562.635 1264.95 C 554.978 1280.52 547.871 1296.36 540.347 1311.99 A 4942.1 4942.1 0 0 0 475.514 1453.62 C 468.068 1470.53 455.765 1491.1 452.324 1508.81 C 440.757 1505.06 431.954 1494.99 419.804 1492 C 423.023 1490.75 483.078 1366.52 489.512 1352.08 A 73.2677 73.2677 0 0 0 494.526 1344.79 C 496.419 1341.61 497.17 1339.43 496.305 1335.89 L 496.868 1335.73 C 498.669 1334.14 555.066 1224.87 556.711 1217.52 C 558.983 1207.36 558.673 1196.1 559.215 1185.71 A 1637.61 1637.61 0 0 1 562.771 1130.48 C 569.97 1049.44 583.41 966.426 613.438 890.432 z"
     id="path83" />
  <path
     transform="translate(0,0)"
     fill="rgb(254,254,254)"
     d="M 626.124 904.239 C 627.111 904.683 628.269 905.142 629.123 905.817 C 630.588 906.974 631.159 908.587 631.504 910.348 C 632.283 914.321 630.037 918.461 627.996 921.669 C 626.171 920.972 624.08 920.185 623.324 918.252 C 621.602 913.85 624.542 908.382 626.124 904.239 z"
     id="path84" />
  <path
     transform="translate(0,0)"
     fill="rgb(254,254,254)"
     d="M 517.967 1539.1 C 555.573 1460.08 598.999 1383.61 638.474 1305.46 C 649.162 1284.31 663.634 1263.39 672.134 1241.39 C 676.655 1229.69 678.379 1215.6 681.371 1203.36 A 3347.16 3347.16 0 0 1 703.336 1116.91 C 707.231 1102.26 738.309 983.961 744.638 979.456 C 747.453 979.608 749.807 979.675 752.431 980.854 C 753.53 985.443 736.289 1035.15 733.791 1044.85 C 740.053 1051.09 744.932 1058.65 750.256 1065.69 L 779.272 1103.93 L 836.752 1180.95 C 847.017 1194.54 858.159 1207.59 868.112 1221.38 C 870.207 1224.29 872.843 1227.56 873.811 1231.03 C 873.187 1232.97 872.87 1233.77 871.285 1235.18 C 870.176 1236.17 870.268 1236.4 868.929 1236.08 C 866.473 1235.48 864.8 1233.67 863.141 1231.87 C 847.305 1214.74 833.652 1194.18 819.581 1175.5 L 730.699 1056.79 L 720.295 1087.62 C 729.94 1104.58 744.097 1119.65 756.052 1135.01 A 3669.87 3669.87 0 0 0 835.531 1235.37 C 833.719 1253.33 830.21 1271.44 827.632 1289.33 L 810.815 1407.25 L 799.476 1490.37 C 797.337 1505.26 795.872 1521.01 791.572 1535.43 C 790.288 1544.29 786.793 1558.87 792.344 1566.62 C 794.37 1569.45 797.747 1571.24 800.673 1572.98 C 799.595 1581.8 797.812 1589.58 794.23 1597.74 C 787.661 1612.71 767.748 1637.39 779.633 1653.04 C 785.752 1661.1 796.295 1664.81 805.635 1667.66 C 765.3 1668.65 724.957 1668.04 684.613 1668.04 A 15885.4 15885.4 0 0 1 503.85 1667.83 C 512.513 1663.54 520.844 1657.9 523.969 1648.22 C 526.076 1641.7 525.363 1633.66 522.216 1627.58 C 510.351 1604.65 479.458 1608.48 465.324 1595.95 C 461.618 1592.66 458.832 1587.61 456.624 1583.23 C 462.367 1576.32 468.177 1569.44 474.482 1563.03 L 495.43 1568.45 C 503.6 1559.28 511.736 1549.73 517.967 1539.1 z"
     id="path85" />
  <g
     id="g85"
     transform="translate(-51.99867,12)">
    <path
       fill="#f3f3f3"
       d="m 952.77093,1695.6163 h 181.82737 v 181.8274 H 952.77093 Z"
       id="path1"
       style="stroke-width:7.90554" />
    <path
       fill="#f35325"
       d="m 960.67647,1703.5218 h 79.05533 v 79.0554 h -79.05533 z"
       id="path2"
       style="stroke-width:7.90554" />
    <path
       fill="#81bc06"
       d="m 1047.6374,1703.5218 h 79.0554 v 79.0554 h -79.0554 z"
       id="path3"
       style="stroke-width:7.90554" />
    <path
       fill="#05a6f0"
       d="m 960.67647,1790.4827 h 79.05533 v 79.0554 h -79.05533 z"
       id="path4"
       style="stroke-width:7.90554" />
    <path
       fill="#ffba08"
       d="m 1047.6374,1790.4827 h 79.0554 v 79.0554 h -79.0554 z"
       id="path5-3"
       style="stroke-width:7.90554" />
  </g>
  <text
     xml:space="preserve"
     style="font-weight:600;font-size:128px;font-family:Montserrat;-inkscape-font-specification:'Montserrat Semi-Bold';text-align:start;writing-mode:lr-tb;direction:ltr;text-anchor:start;fill:#011e49;stroke-width:135.375"
     x="675.65308"
     y="2012.1724"
     id="text85"><tspan
       sodipodi:role="line"
       id="tspan85"
       x="675.65308"
       y="2012.1724"
       style="font-size:128px;stroke-width:135.375">SQL Server</tspan></text>
</svg>
