<svg version="1.1" xmlns="http://www.w3.org/2000/svg" style="display: block;" viewBox="0 0 2048 2048" width="1024" height="1024">
<path transform="translate(0,0)" fill="rgb(253,253,253)" d="M 0 0 L 2048 0 L 2048 2048 L 0 2048 L 0 0 z"/>
<path transform="translate(0,0)" fill="rgb(20,31,47)" d="M 803.655 756.22 C 806.089 752.355 808.012 749.089 812.735 747.912 L 814.977 748.684 C 815.358 750.154 815.767 750.438 815 751.904 C 812.878 755.956 807.9 757.163 803.9 758.639 L 803.655 756.22 z"/>
<path transform="translate(0,0)" fill="rgb(20,31,47)" d="M 1149.08 580.921 C 1150.52 580.827 1150.88 580.757 1152.45 580.898 C 1154.73 581.101 1158.14 582.14 1159.47 584.09 C 1161.23 586.676 1160.6 588.443 1160.26 591.289 C 1157.44 590.281 1153.18 589.045 1151.07 586.806 C 1148.89 584.506 1149 583.892 1149.08 580.921 z"/>
<path transform="translate(0,0)" fill="rgb(20,31,47)" d="M 905.262 688.818 C 907.301 688.648 908.937 688.791 910.968 688.968 L 911.622 690.033 C 909.715 693.315 906.246 695.346 903.215 697.529 C 900.737 698.485 899.995 698.902 897.405 698.552 L 897.38 696.586 C 899.575 692.949 901.716 691.12 905.262 688.818 z"/>
<path transform="translate(0,0)" fill="rgb(20,31,47)" d="M 533.077 1337.63 C 536.139 1337.45 539.716 1338.71 542.185 1340.52 C 545.265 1342.78 546.06 1344.97 546.513 1348.64 C 543.252 1348.08 539.809 1347.34 537.039 1345.43 C 534.028 1343.35 533.547 1341.07 533.077 1337.63 z"/>
<path transform="translate(0,0)" fill="rgb(20,31,47)" d="M 1227.05 626.529 C 1230.56 627.208 1234.75 628.169 1237.55 630.51 C 1239.99 632.546 1239.87 634.496 1240 637.435 C 1236.46 636.907 1232.47 636.006 1229.68 633.616 C 1227.23 631.513 1227.25 629.537 1227.05 626.529 z"/>
<path transform="translate(0,0)" fill="rgb(20,31,47)" d="M 1117 921.183 C 1118.47 921.687 1119.81 921.741 1120.72 923.101 C 1123.37 927.035 1121.84 933.335 1121.28 937.771 C 1119.85 937.471 1118.67 937.048 1117.32 936.528 C 1114.46 931.958 1116.21 926.179 1117 921.183 z"/>
<path transform="translate(0,0)" fill="rgb(20,31,47)" d="M 852.023 721.669 C 853.881 722.81 853.377 722.214 854.498 723.923 C 855.566 725.552 855.274 724.789 854.782 727.003 C 852.143 729.84 849.075 730.952 845.564 732.458 L 844.021 732.415 L 842.46 729.887 C 842.527 729.628 842.562 729.358 842.66 729.109 C 844.197 725.229 848.415 723.134 852.023 721.669 z"/>
<path transform="translate(0,0)" fill="rgb(20,31,47)" d="M 1166.73 590.094 C 1170.13 590.764 1174.97 592.667 1177.22 595.429 C 1179.2 597.855 1178.93 598.745 1178.46 601.576 C 1175.58 600.533 1172.1 599.366 1169.46 597.776 C 1167.03 596.307 1166.1 595.274 1165.28 592.595 L 1166.73 590.094 z"/>
<path transform="translate(0,0)" fill="rgb(20,31,47)" d="M 927.802 675.736 C 929.719 676.326 929.956 676.551 931.308 678.05 C 930.008 682.615 923.704 685.04 919.781 687.25 C 918.725 686.861 918.046 686.112 917.201 685.385 L 917.583 683.172 C 920.476 679.84 924.052 677.95 927.802 675.736 z"/>
<path transform="translate(0,0)" fill="rgb(20,31,47)" d="M 1264.55 650.76 C 1267.58 650.619 1270.51 651.068 1273.25 652.389 C 1277.42 654.395 1279.2 657.262 1280.56 661.539 C 1278.89 661.427 1277.13 661.315 1275.51 660.876 C 1270.56 659.539 1266.83 655.101 1264.55 650.76 z"/>
<path transform="translate(0,0)" fill="rgb(20,31,47)" d="M 867.337 711.558 C 868.746 711.613 870.075 712.319 871.387 712.816 L 872.11 714.667 C 870.484 718.177 867.617 720.054 864.649 722.418 C 862.785 722.949 861.917 723.069 860.044 722.53 C 860.065 721.891 860.019 721.245 860.107 720.611 C 860.16 720.226 860.345 719.87 860.464 719.499 L 860.048 719.236 C 861.881 715.46 863.867 713.845 867.337 711.558 z"/>
<path transform="translate(0,0)" fill="rgb(20,31,47)" d="M 889.788 699.918 C 890.55 700.941 890.632 701.725 890.907 702.95 C 888.458 707.795 883.367 709.659 878.69 711.843 C 877.599 709.952 877.567 709.534 877.556 707.335 C 880.474 702.745 884.863 701.605 889.788 699.918 z"/>
<path transform="translate(0,0)" fill="rgb(20,31,47)" d="M 1116.09 685.182 C 1118.32 685.462 1118.8 685.458 1120.66 686.867 C 1122.45 691.381 1121.64 696.874 1121.49 701.669 C 1119.8 701.713 1118.74 701.517 1117.15 700.932 C 1114.63 696.511 1115.82 690.138 1116.09 685.182 z"/>
<path transform="translate(0,0)" fill="rgb(20,31,47)" d="M 1182.78 601.958 C 1186.56 601.662 1192.92 602.778 1195.68 605.648 C 1198 608.049 1197.6 609.21 1197.44 612.302 C 1195.05 611.919 1193.17 611.292 1190.99 610.212 C 1187.04 608.253 1184.18 606.151 1182.78 601.958 z"/>
<path transform="translate(0,0)" fill="rgb(20,31,47)" d="M 949.947 661.774 L 951.92 663.581 L 951.806 665.882 C 949.015 669.498 944.285 671.97 940.494 674.482 C 939.476 673.752 938.914 672.935 938.152 671.953 L 938.526 669.777 C 941.45 666.165 945.977 664.089 949.947 661.774 z"/>
<path transform="translate(0,0)" fill="rgb(20,31,47)" d="M 833.917 733.854 C 835.893 734.375 835.708 734.545 836.96 735.999 C 836.886 736.287 836.852 736.588 836.737 736.862 C 835.152 740.631 829.157 742.985 825.631 744.776 C 824.6 744.429 823.564 743.156 822.761 742.412 L 822.989 740.302 C 826.05 737.159 829.996 735.678 833.917 733.854 z"/>
<path transform="translate(0,0)" fill="rgb(20,31,47)" d="M 1117.86 869.338 C 1119.57 869.894 1120.26 870.407 1121.46 871.731 C 1122.88 877.364 1122.27 881.937 1120.68 887.464 C 1119.01 886.761 1118.06 886.052 1116.76 884.787 C 1115.33 879.124 1116.56 874.952 1117.86 869.338 z"/>
<path transform="translate(0,0)" fill="rgb(20,31,47)" d="M 1117.73 711.287 C 1119.59 711.957 1119.96 712.305 1121.29 713.654 C 1122.79 718.795 1122.93 723.675 1120.48 728.548 C 1118.65 728.115 1117.97 727.822 1116.72 726.4 C 1115.15 720.855 1115.96 716.683 1117.73 711.287 z"/>
<path transform="translate(0,0)" fill="rgb(20,31,47)" d="M 1116.82 630.521 C 1118.81 631.209 1119.71 632 1121.17 633.492 C 1122.99 638.575 1122.17 643.334 1120.83 648.449 C 1118.51 648.078 1119.67 648.455 1117.41 647.201 C 1115.47 641.496 1116.23 636.404 1116.82 630.521 z"/>
<path transform="translate(0,0)" fill="rgb(20,31,47)" d="M 970.188 649.63 C 971.304 650.089 972.096 650.861 973.028 651.614 L 972.83 653.879 C 970.174 657.356 966.096 659.473 962.46 661.818 L 959.671 659.525 L 959.478 657.226 C 961.707 653.755 966.659 651.67 970.188 649.63 z"/>
<path transform="translate(0,0)" fill="rgb(20,31,47)" d="M 1116.76 737.185 L 1119.95 738.24 C 1123.29 742.842 1121.34 749.745 1120.57 754.967 C 1118.25 754.739 1118.44 754.584 1116.73 753.248 C 1114.71 747.739 1115.82 742.851 1116.76 737.185 z"/>
<path transform="translate(0,0)" fill="rgb(20,31,47)" d="M 1116.89 896.204 C 1118.69 896.514 1119.61 896.897 1121.1 897.963 C 1123.71 903.174 1122.22 907.334 1120.86 912.779 C 1118.94 912.496 1118.18 911.975 1116.7 910.745 C 1114.64 905.625 1115.63 901.43 1116.89 896.204 z"/>
<path transform="translate(0,0)" fill="rgb(20,31,47)" d="M 1118.88 946.486 C 1121.39 948.713 1121.81 951.816 1122.03 955.055 C 1122.35 959.865 1121.44 962.1 1118.54 965.614 L 1117.33 965.003 C 1116.52 963.936 1116.2 963.166 1116 961.829 C 1115.17 956.26 1115.41 951.058 1118.88 946.486 z"/>
<path transform="translate(0,0)" fill="rgb(20,31,47)" d="M 1115.75 764.055 C 1118.32 764.509 1118.96 764.547 1120.94 766.192 C 1122.84 771.119 1121.72 776.045 1120.84 781.112 C 1119.44 781.043 1118.26 781.462 1117.34 780.239 C 1114.36 776.3 1115.56 768.756 1115.75 764.055 z"/>
<path transform="translate(0,0)" fill="rgb(20,31,47)" d="M 1117.72 603.388 C 1119.5 604.114 1119.92 604.556 1121.2 605.914 C 1122.66 611.362 1121.74 616.356 1120.55 621.776 L 1118.01 621.079 C 1116.49 619.601 1116.72 620.281 1116.33 618.856 C 1114.97 613.845 1115.17 607.976 1117.72 603.388 z"/>
<path transform="translate(0,0)" fill="rgb(20,31,47)" d="M 1116.74 816.218 C 1119.14 816.741 1119.58 816.832 1121.36 818.479 C 1123.13 823.947 1122.39 828.966 1120.76 834.389 L 1118.02 833.39 C 1114.91 828.135 1116.16 822.006 1116.74 816.218 z"/>
<path transform="translate(0,0)" fill="rgb(20,31,47)" d="M 1117.74 973.318 C 1119.65 974.054 1119.94 974.442 1121.23 975.934 C 1122.72 981.243 1122.48 986.422 1120.71 991.639 C 1118.77 990.963 1117.94 990.243 1116.54 988.748 C 1114.8 983.248 1115.86 978.642 1117.74 973.318 z"/>
<path transform="translate(0,0)" fill="rgb(20,31,47)" d="M 1118.84 998.594 C 1120.88 1000.42 1121.52 1002.01 1121.92 1004.69 C 1122.59 1009.21 1122.47 1014.19 1119.58 1017.9 C 1117.57 1016.66 1116.49 1015.73 1115.97 1013.32 C 1114.81 1007.95 1116.01 1003.18 1118.84 998.594 z"/>
<path transform="translate(0,0)" fill="rgb(20,31,47)" d="M 1052.06 600.835 L 1055 601.293 L 1055.72 602.526 C 1053.62 607.782 1048.62 609.899 1043.83 612.266 C 1041.73 611.412 1041.63 611.339 1040.42 609.419 C 1042.25 604.802 1047.84 602.92 1052.06 600.835 z"/>
<path transform="translate(0,0)" fill="rgb(20,31,47)" d="M 988.939 637.682 C 990.917 638.061 991.09 638.21 992.531 639.461 L 992.332 641.604 C 989.49 645.12 985.856 647.018 982.031 649.292 C 980.988 649.102 980.071 648.586 979.108 648.152 C 978.556 646.638 978.186 646.698 978.708 645.46 C 980.429 641.373 985.143 639.305 988.939 637.682 z"/>
<path transform="translate(0,0)" fill="rgb(20,31,47)" d="M 1116.59 790.822 C 1117.05 790.981 1117.51 791.121 1117.96 791.299 C 1120.29 792.223 1121.21 793.126 1122.04 795.466 C 1123.5 799.576 1122 803.887 1120.23 807.629 C 1118.9 807.056 1117.99 806.37 1116.83 805.515 C 1114.22 800.269 1115.33 796.378 1116.59 790.822 z"/>
<path transform="translate(0,0)" fill="rgb(20,31,47)" d="M 1117.76 842.241 C 1119.65 842.998 1120.39 843.426 1121.54 845.126 C 1122.86 850.542 1122.99 856.655 1120.21 861.627 C 1118.97 860.963 1118.37 860.874 1117.61 859.804 C 1114.39 855.299 1116.42 847.058 1117.76 842.241 z"/>
<path transform="translate(0,0)" fill="rgb(20,31,47)" d="M 1118.51 1077.68 L 1120.6 1080.1 C 1122.31 1086.31 1121.98 1091.67 1120.09 1097.8 C 1117.94 1096.91 1117.17 1096.8 1116.16 1094.53 C 1114.02 1089.73 1116.23 1082.04 1118.51 1077.68 z"/>
<path transform="translate(0,0)" fill="rgb(20,31,47)" d="M 1115.74 1053.29 C 1118.28 1053.48 1118.95 1053.44 1121.03 1054.85 C 1123.09 1060.1 1121.98 1064.48 1120.37 1069.72 C 1117.77 1069.52 1117.92 1069.48 1116.13 1067.55 C 1114.69 1062.77 1115.36 1058.19 1115.74 1053.29 z"/>
<path transform="translate(0,0)" fill="rgb(20,31,47)" d="M 1245.86 637.531 C 1249.37 638.275 1255.1 639.174 1257.44 642.011 C 1259.61 644.64 1259.12 646.843 1259.13 649.996 C 1255.61 648.553 1251.53 647.209 1248.53 644.804 C 1245.86 642.657 1246.09 640.626 1245.86 637.531 z"/>
<path transform="translate(0,0)" fill="rgb(20,31,47)" d="M 1073.34 586.919 C 1073.39 586.944 1073.46 586.954 1073.51 586.994 C 1075.27 588.468 1075.35 588.629 1075.66 590.829 C 1073.6 595.445 1067.7 597.555 1063.31 599.247 L 1061.44 596.883 L 1061.9 594.593 C 1064.9 590.919 1069.22 589.109 1073.34 586.919 z"/>
<path transform="translate(0,0)" fill="rgb(20,31,47)" d="M 636.954 1401.95 C 640.112 1401.87 642.665 1402.27 645.441 1403.78 C 649.646 1406.07 652.156 1409.31 653.499 1413.84 C 650.528 1414.01 647.458 1412.74 644.862 1411.36 C 640.553 1409.08 638.464 1406.53 636.954 1401.95 z"/>
<path transform="translate(0,0)" fill="rgb(20,31,47)" d="M 1117.59 657.425 C 1119.67 658.006 1119.91 658.096 1121.33 659.701 C 1122.64 665.317 1122.42 671.115 1120.51 676.566 C 1118.62 676.085 1117.94 675.7 1116.65 674.246 C 1115.1 668.641 1115.34 662.805 1117.59 657.425 z"/>
<path transform="translate(0,0)" fill="rgb(20,31,47)" d="M 569.61 1358.78 C 573.825 1360.67 581.388 1363.01 583.183 1367.6 C 583.825 1369.24 582.567 1370.47 581.825 1371.93 C 579.31 1370.81 576.864 1369.45 574.459 1368.11 C 571.613 1366.52 568.563 1364.81 567.627 1361.47 L 569.61 1358.78 z"/>
<path transform="translate(0,0)" fill="rgb(20,31,47)" d="M 683.03 1430.8 C 687.394 1431.31 694.522 1432.6 697.216 1436.5 C 699.092 1439.22 698.708 1440.1 698.348 1443.24 C 694.428 1441.48 689.726 1439.75 686.329 1437.12 C 683.648 1435.05 683.452 1434.1 683.03 1430.8 z"/>
<path transform="translate(0,0)" fill="rgb(20,31,47)" d="M 589.154 1372.97 C 593.913 1372.88 598.422 1374.09 602.252 1377.04 C 605.362 1379.44 605.894 1381.27 606.383 1385.08 C 603.261 1384.26 600.064 1382.85 597.208 1381.36 C 593.013 1379.18 590.648 1377.54 589.154 1372.97 z"/>
<path transform="translate(0,0)" fill="rgb(20,31,47)" d="M 1118.19 1025.47 C 1120.33 1026.72 1121.21 1028.44 1121.77 1030.83 C 1122.98 1036.01 1122.39 1040.86 1119.46 1045.29 C 1117.61 1043.86 1116.54 1042.8 1115.75 1040.55 C 1114.02 1035.62 1116.14 1029.93 1118.19 1025.47 z"/>
<path transform="translate(0,0)" fill="rgb(20,31,47)" d="M 1116.99 576.197 C 1118.67 577.115 1119.97 577.822 1120.97 579.549 C 1123.29 583.575 1121.97 589.804 1120.74 593.979 C 1118.09 593.377 1117.59 593.336 1115.68 591.457 C 1113.75 585.982 1115.16 581.52 1116.99 576.197 z"/>
<path transform="translate(0,0)" fill="rgb(20,31,47)" d="M 1115.48 1132.54 C 1118.13 1132.97 1119.16 1132.77 1121.09 1134.71 C 1122.8 1139.66 1121.44 1145.1 1120.78 1150.19 C 1118.18 1149.89 1117.88 1149.82 1115.85 1148.18 C 1114.1 1143.24 1115.1 1137.69 1115.48 1132.54 z"/>
<path transform="translate(0,0)" fill="rgb(20,31,47)" d="M 1116.88 1105.21 L 1119.91 1106.61 C 1123.38 1111.62 1121.25 1118.19 1120.27 1123.75 C 1117.7 1123.16 1117.18 1123.25 1115.45 1121.32 C 1113.76 1115.71 1114.94 1110.6 1116.88 1105.21 z"/>
<path transform="translate(0,0)" fill="rgb(20,31,47)" d="M 661.269 1415.49 C 665.74 1416.48 671.331 1419.89 674.423 1423.3 C 676.45 1425.54 676.459 1426.52 676.268 1429.45 C 671.307 1428.05 663.631 1424.85 660.988 1420.19 C 660.04 1418.51 660.859 1417.26 661.269 1415.49 z"/>
<path transform="translate(0,0)" fill="rgb(20,31,47)" d="M 612.794 1386.56 C 615.91 1386.85 618.7 1388.06 621.473 1389.46 C 626.165 1391.82 629.977 1394.32 631.613 1399.39 C 626.313 1399.18 621.308 1397.43 617.033 1394.23 C 613.945 1391.92 613.378 1390.32 612.794 1386.56 z"/>
<path transform="translate(0,0)" fill="rgb(20,31,47)" d="M 1099.75 571.873 C 1100.76 574.392 1100.84 574.401 1100.05 576.976 C 1095.4 581.589 1089.81 584.463 1083.89 587.127 C 1082.87 585.91 1082.25 584.855 1081.6 583.404 C 1084.23 577.466 1094.18 574.43 1099.75 571.873 z"/>
<path transform="translate(0,0)" fill="rgb(20,31,47)" d="M 1114.97 560.737 C 1117.27 560.656 1118.85 560.867 1121.01 561.729 C 1124.56 563.148 1127.15 564.976 1128.69 568.567 L 1127.81 570.205 C 1124.51 571.196 1122.34 570.442 1119.16 569.552 C 1115.8 568.11 1112.53 571.829 1108.58 571.604 C 1106.83 569.942 1106.93 569.919 1106.66 567.496 C 1108.63 564.133 1111.7 562.694 1114.97 560.737 z"/>
<path transform="translate(0,0)" fill="rgb(20,31,47)" d="M 463.127 1282.98 C 464.738 1282.86 466.385 1282.74 467.999 1282.85 C 488.904 1284.25 479.5 1296.04 486.914 1306.27 C 488.114 1307.93 491.347 1309.72 492.923 1311.45 L 492.531 1313.51 C 490.596 1314.76 490.324 1314.82 488.025 1314.93 C 482.189 1315.22 481.909 1315.43 478.074 1319.64 C 473.506 1322.21 468.138 1323.66 462.923 1322.59 C 458.214 1321.63 454.257 1318.75 451.754 1314.67 A 21.3698 21.3698 0 0 1 449.566 1297.38 C 451.767 1289.97 456.655 1286.57 463.127 1282.98 z"/>
<path transform="translate(0,0)" fill="rgb(253,253,253)" d="M 465.376 1288.78 C 466.79 1288.83 466.929 1288.8 468.497 1289.08 C 472.701 1289.83 477.265 1292.69 479.524 1296.34 C 481.49 1299.52 481.749 1303.43 480.712 1306.98 C 479.224 1312.07 475.179 1314.37 470.809 1316.78 C 469.064 1316.89 467.252 1317.03 465.508 1316.86 C 462.148 1316.55 458.313 1314.44 456.377 1311.67 C 454.411 1308.85 454.254 1305.64 454.814 1302.37 C 455.958 1295.71 460.007 1292.35 465.376 1288.78 z"/>
<path transform="translate(0,0)" fill="rgb(20,31,47)" d="M 719.887 1434.21 C 724.194 1433.98 728.077 1434.03 732.095 1435.81 C 736.797 1437.9 740.52 1441.64 742.307 1446.5 C 744.213 1451.68 743.81 1457.54 741.533 1462.53 C 738.284 1469.65 733.421 1472.39 726.338 1474.98 C 723.629 1474.69 720.744 1474.48 718.136 1473.67 C 712.775 1471.99 707.999 1467.63 705.715 1462.53 A 19.2433 19.2433 0 0 1 705.348 1447.49 C 708.055 1440.48 713.245 1437.08 719.887 1434.21 z"/>
<path transform="translate(0,0)" fill="rgb(253,253,253)" d="M 724.469 1440.13 C 726.102 1440.45 727.814 1440.76 729.37 1441.36 C 732.706 1442.65 735.521 1445.6 736.658 1448.98 C 737.89 1452.63 737.233 1456.69 735.475 1460.06 C 732.698 1465.38 729.083 1467.16 723.586 1468.99 C 721.8 1468.56 720.088 1468.15 718.435 1467.32 C 714.792 1465.5 712.032 1462.65 710.876 1458.68 A 13.205 13.205 0 0 1 712.086 1448.62 C 714.951 1443.43 718.998 1441.66 724.469 1440.13 z"/>
<path transform="translate(0,0)" fill="rgb(20,31,47)" d="M 1117.55 1161.03 C 1120.13 1161.45 1122.85 1161.81 1125.31 1162.73 C 1130.7 1164.74 1135.48 1169.4 1137.61 1174.75 A 20.1477 20.1477 0 0 1 1137.19 1190.51 C 1134.16 1197.21 1128.89 1200.65 1122.25 1203.24 C 1118.79 1203.2 1115.43 1202.85 1112.19 1201.52 C 1107.24 1199.49 1103.36 1195.84 1101.35 1190.84 C 1099.11 1185.24 1099.64 1178.74 1102.28 1173.38 C 1105.56 1166.71 1110.69 1163.34 1117.55 1161.03 z"/>
<path transform="translate(0,0)" fill="rgb(253,253,253)" d="M 1116.01 1168.93 C 1118.04 1168.8 1120.18 1168.63 1122.18 1169.12 C 1125.77 1170.01 1129.2 1172.47 1131.05 1175.68 C 1132.95 1178.98 1133.12 1183.02 1131.89 1186.58 C 1130.13 1191.64 1126.53 1193.85 1122.01 1196.25 C 1120.46 1196.47 1118.98 1196.66 1117.42 1196.46 C 1114.04 1196.02 1110.85 1194.53 1108.81 1191.73 C 1106.52 1188.61 1106.21 1184.72 1106.89 1181.01 C 1107.99 1175.08 1111.15 1172.12 1116.01 1168.93 z"/>
<path transform="translate(0,0)" fill="rgb(20,31,47)" d="M 1304.31 654.137 C 1308.54 653.886 1312.05 654.043 1315.88 656.055 C 1320.64 658.554 1323.95 662.724 1325.37 667.9 A 22.281 22.281 0 0 1 1322.88 685.313 C 1319.35 691.192 1314.69 693.397 1308.27 695.096 C 1305.31 694.999 1301.98 694.629 1299.22 693.545 C 1293.93 691.474 1289.44 687.135 1287.46 681.783 A 19.5099 19.5099 0 0 1 1288.22 666.44 C 1291.62 659.402 1297.37 656.791 1304.31 654.137 z"/>
<path transform="translate(0,0)" fill="rgb(253,253,253)" d="M 1307.55 660.064 C 1309.02 660.382 1310.56 660.663 1311.98 661.201 C 1315.36 662.483 1318.09 665.532 1319.27 668.912 C 1320.57 672.655 1320.02 676.715 1318.26 680.22 C 1315.7 685.329 1311.88 687.346 1306.62 688.94 L 1305.58 688.725 C 1303.88 688.384 1302.08 688.093 1300.47 687.44 C 1297.15 686.097 1294.3 682.894 1293.2 679.512 C 1292.03 675.891 1292.71 671.937 1294.59 668.681 C 1297.59 663.49 1301.98 661.515 1307.55 660.064 z"/>
<path transform="translate(0,0)" fill="rgb(20,31,47)" d="M 1199.65 1225.43 C 1233.84 1223.5 1268.88 1230.66 1300.51 1243.48 C 1331.4 1256.01 1364.87 1274.9 1383.83 1303.11 C 1390.96 1313.72 1395.91 1325.25 1400.82 1336.99 C 1419.19 1348.07 1465.39 1366.83 1474.8 1386.12 C 1477.42 1391.51 1478.05 1397.94 1476.11 1403.65 C 1473.27 1412.02 1465.8 1417.96 1458.19 1421.84 C 1424.05 1439.27 1373.76 1434.42 1338.61 1422.94 C 1319.9 1430.11 1301.63 1438.09 1282.74 1444.89 C 1257.87 1453.83 1229.57 1461.38 1206.58 1474.26 C 1201.63 1499.17 1190.24 1521.26 1172.11 1539.1 C 1164.34 1546.76 1136.91 1571.53 1125.89 1570.33 C 1123.3 1570.05 1121.48 1569.27 1119.92 1567.11 C 1118.49 1565.14 1117.71 1562.77 1117.88 1560.34 C 1118.42 1552.66 1122.67 1543.56 1124.8 1536.04 C 1126.98 1528.36 1128.4 1520.66 1129.56 1512.77 A 403.969 403.969 0 0 0 1050.58 1567.91 C 990.369 1622.19 937.719 1688.44 909.532 1765.06 C 905.614 1775.71 899.042 1789.1 898.999 1800.43 C 898.977 1806.14 903.006 1806.91 907.6 1809.02 C 936.753 1822.39 963.572 1837.2 985.856 1860.94 C 1007.72 1884.22 1022.8 1909.55 1032.01 1940.12 C 1034.86 1949.56 1037.48 1959.56 1037.12 1969.49 C 1037.1 1969.9 1037.08 1970.31 1037.06 1970.72 C 1033.78 1973.81 1031.31 1975.3 1026.74 1973.72 C 1019.3 1971.14 1013.2 1964.24 1006.52 1960.1 A 717.427 717.427 0 0 0 934.704 1921.87 C 872.683 1893.84 804.682 1876.17 736.251 1879.65 C 726.214 1880.16 715.788 1881.03 705.886 1882.76 C 701.086 1883.6 696.181 1885.44 691.331 1885.71 C 687.78 1885.92 684.198 1884.85 681.755 1882.14 C 680.161 1880.37 679.489 1878.69 679.53 1876.29 C 679.754 1863.06 700.597 1839.36 710.28 1830.88 C 747.886 1797.94 787.332 1793.15 835.039 1796.17 L 831.961 1772.49 C 817.632 1660.12 831.447 1549.01 883.249 1447.47 C 892.715 1428.91 902.638 1409.01 915.425 1392.49 C 895.234 1355.64 876.452 1343.87 838.049 1327.86 C 830.754 1324.82 820.868 1322.03 815.034 1316.7 C 812.782 1314.64 810.965 1311.84 811.222 1308.66 C 811.673 1303.08 816.758 1298.58 821.068 1295.68 C 828.863 1290.43 838.319 1286.92 847.045 1283.52 C 888.425 1267.41 935.59 1257.82 979.998 1261.62 C 1002.38 1263.53 1021.59 1269.47 1043.28 1273.5 L 1044.55 1273.73 C 1094.08 1242.67 1141.39 1228.59 1199.65 1225.43 z"/>
<path transform="translate(0,0)" fill="rgb(253,253,253)" d="M 1188.27 1410.9 C 1189.83 1411.27 1190.51 1411.13 1191.63 1412.43 C 1197.24 1418.88 1196.6 1444.97 1195.54 1453.92 C 1191.06 1492.08 1174.43 1518.98 1144.35 1542.45 C 1142.39 1543.97 1139.98 1546.38 1137.48 1546.05 L 1138.22 1543.16 C 1146.44 1503.38 1144.9 1483.76 1127.65 1446.69 C 1144.45 1431.17 1167.03 1419.04 1188.27 1410.9 z"/>
<path transform="translate(0,0)" fill="rgb(253,253,253)" d="M 937.655 1277.41 C 965.63 1272.49 1005.46 1279.8 1032.75 1287.06 C 993.499 1315.26 960.681 1344.47 931.37 1383 C 930.391 1384.29 931.073 1383.74 929.066 1384.27 C 905.809 1339.66 874.962 1325.06 829.865 1308.57 C 864.344 1292.44 899.72 1281.41 937.655 1277.41 z"/>
<path transform="translate(0,0)" fill="rgb(253,253,253)" d="M 1223.75 1354.41 C 1254.75 1348.92 1283.9 1364.38 1311.84 1374.98 C 1328.07 1381.13 1344.66 1386.94 1361.3 1391.9 C 1383.58 1398.53 1416.85 1408.79 1439.81 1403.07 C 1446.52 1401.4 1453.81 1396.67 1459.87 1393.38 C 1461.74 1393.57 1461.75 1393.99 1463.09 1395.21 C 1463.09 1396.4 1463.16 1396.56 1462.77 1397.85 C 1460.64 1404.77 1449.25 1410.1 1443 1412.07 C 1425.9 1417.46 1408.29 1418.39 1390.49 1417.03 C 1357.62 1414.51 1318.13 1404.33 1286.18 1395.49 C 1280.74 1393.99 1270.13 1388.44 1264.77 1390.52 L 1264.64 1392.11 C 1273.62 1403.82 1306.49 1407.22 1320.79 1411.44 L 1322.07 1411.82 C 1305.11 1421.27 1286.31 1427.26 1268.1 1433.73 A 2625.05 2625.05 0 0 1 1204.84 1455.82 C 1204.87 1436.2 1203.16 1420.17 1195.03 1402.2 C 1170.38 1408.59 1135.47 1426.12 1119.36 1446.28 C 1125.62 1461.09 1129.87 1475.78 1131.24 1491.8 C 1120.95 1500.07 1108.47 1506.39 1097.3 1513.49 C 1085.37 1521.06 1074.02 1529.63 1062.61 1537.96 C 990.185 1595.46 920.24 1680.22 891.226 1769.04 C 893.619 1742.77 897.35 1716.05 904.03 1690.5 C 922.52 1619.78 962.984 1545.94 1009.21 1489.78 C 1059.79 1428.33 1142.04 1362.33 1223.75 1354.41 z"/>
<path transform="translate(0,0)" fill="rgb(253,253,253)" d="M 714.269 1849.06 C 741.129 1822.08 774.815 1809.81 812.884 1809.97 C 821.978 1810.01 838.316 1815.18 845.199 1808.54 C 849.79 1804.1 849.196 1799.01 849.172 1792.97 C 849.113 1778.08 846.56 1762.83 845.22 1748 A 694.322 694.322 0 0 1 842.519 1682.77 C 842.647 1660.68 843.376 1638.63 846.297 1616.71 C 859.082 1520.8 902.408 1418.17 970.645 1348.55 C 1030.32 1287.67 1116.07 1241.36 1202.72 1240.66 C 1246.21 1240.3 1284.86 1250.83 1322.76 1271.78 C 1335.82 1279 1348.76 1287.11 1359.48 1297.59 C 1373.95 1311.73 1380.6 1326.82 1386.19 1345.94 C 1406.49 1358.38 1427.75 1369.08 1448.08 1381.48 C 1450.39 1382.89 1451.79 1383.85 1453.18 1386.27 C 1452.57 1389.02 1451.57 1389.83 1449.17 1391.3 C 1426.92 1404.88 1384.24 1391 1361.09 1384.18 C 1346.26 1379.82 1314.68 1371.01 1302.3 1363.14 C 1253.54 1342.49 1217.18 1340.44 1167.23 1360.64 C 1048.15 1408.78 963.735 1519.46 915.36 1634.77 A 429.254 429.254 0 0 0 882.837 1787.4 C 882.682 1795.37 881.661 1806.67 884.79 1814.11 C 886.03 1817.06 888.186 1818.15 890.894 1819.56 C 902.312 1825.5 914.929 1829.04 926.289 1835.25 C 970.323 1859.32 1007.47 1900.04 1018.71 1949.98 C 1007.81 1944 997.529 1936.97 986.637 1930.94 C 947.442 1909.21 905.832 1890.47 862.333 1879.21 C 862.189 1869.73 864.087 1839.35 860.247 1832.19 L 858.605 1831.29 C 857.284 1831.84 856.043 1831.89 855.461 1833.31 C 852.179 1841.34 854.657 1867.44 855.294 1877.07 C 802.781 1865.53 751.503 1858.49 698.152 1869.27 C 703.123 1862.16 708.168 1855.26 714.269 1849.06 z"/>
<path transform="translate(0,0)" fill="rgb(20,31,47)" d="M 1302.3 1363.14 C 1298.52 1359.2 1297.55 1355.71 1297.82 1350.26 C 1297.97 1347.14 1299.07 1344.12 1301.62 1342.13 C 1303.56 1340.63 1306.49 1340.72 1308.79 1341.28 C 1309.38 1341.42 1309.96 1341.62 1310.55 1341.79 C 1313.32 1346.07 1316.2 1351.84 1314.87 1357.17 C 1314.2 1359.82 1313 1361.77 1310.59 1363.17 C 1308.06 1364.65 1304.98 1363.69 1302.3 1363.14 z"/>
<path transform="translate(0,0)" fill="rgb(20,31,47)" d="M 803.9 758.639 C 801.266 765.255 802.933 788.784 802.939 797.052 L 803.115 919.621 C 803.211 942.36 805.284 967.025 801.954 989.517 C 800.213 1001.27 795.963 1012.83 790.249 1023.23 A 114.578 114.578 0 0 1 756.337 1061.66 C 737.904 1074.73 714.246 1086.52 694.544 1098.34 L 534.108 1193.37 L 365.783 1294.02 A 4142.09 4142.09 0 0 1 267.042 1353.61 C 249.691 1363.89 229.634 1379.26 210.155 1384.3 C 203.261 1386.09 193.885 1380.77 187.972 1377.24 C 174.964 1369.49 138.698 1350.02 135.754 1335.62 C 132.314 1318.79 134.548 1290.28 134.605 1272.35 L 134.837 1141.5 L 134.43 945.823 L 134.156 888.485 C 134.092 876.614 133.481 864.349 134.746 852.534 A 123.158 123.158 0 0 1 154.201 797.376 C 162.491 784.864 172.654 773.475 185.051 764.92 C 205.322 750.931 227.75 739.356 248.939 726.764 L 366.261 656.177 L 573.55 532.083 A 10938 10938 0 0 1 700.933 455.335 C 705.906 452.44 711.7 448.416 717.435 447.435 C 722.773 446.522 728.554 446.709 733.832 447.917 C 747.846 451.125 776.624 466.448 788.544 475.162 C 795.614 480.33 799.709 487.604 801.536 496.134 C 805.201 513.239 802.958 533.728 802.975 551.257 L 803.074 690.737 C 803.054 709.452 800.699 738.04 803.504 755.375 C 803.55 755.658 803.605 755.939 803.655 756.22 L 803.9 758.639 z"/>
<path transform="translate(0,0)" fill="rgb(253,253,253)" d="M 148.865 895.262 C 160.668 900.641 172.801 909.499 183.4 917.026 C 183.777 928.521 183.38 940.15 183.32 951.658 C 176.834 951.541 157.415 937.429 148.949 934.392 A 2435.35 2435.35 0 0 1 148.865 895.262 z"/>
<path transform="translate(0,0)" fill="rgb(253,253,253)" d="M 149.012 936.645 C 159.082 944.822 172.047 950.697 183.394 956.917 C 182.923 1089.96 182.112 1223.16 183.731 1356.19 C 172.405 1349.09 160.572 1342.68 151.553 1332.64 C 147.282 1315.98 149.333 1295.7 149.389 1278.46 L 149.541 1211.85 L 149.012 936.645 z"/>
<path transform="translate(0,0)" fill="rgb(253,253,253)" d="M 786.869 554.026 C 789.682 557.7 787.861 588.565 787.78 594.679 C 765.16 605.759 743.751 620.062 722.291 633.237 A 7726.66 7726.66 0 0 1 633.604 686.837 L 368.577 847.228 C 312.164 881.778 256.3 917.638 198.943 950.604 C 195.836 945.706 197.87 918.687 197.961 911.568 C 222.969 892.657 251.828 876.972 278.643 860.66 L 406.003 783.13 A 28275.9 28275.9 0 0 1 786.869 554.026 z"/>
<path transform="translate(0,0)" fill="rgb(253,253,253)" d="M 722.924 461.056 C 734.461 460.626 748.965 470.33 758.777 475.818 C 747.894 484.696 733.875 491.436 721.818 498.812 A 8761.29 8761.29 0 0 1 642.895 546.753 A 17221.4 17221.4 0 0 0 341.993 728.81 L 276.896 768.625 C 263.332 776.88 248.906 784.718 236.459 794.602 C 203.753 820.573 190.007 859.198 185.389 899.489 C 173.062 891.938 159.82 886.005 147.668 878.139 C 147.766 855.612 150.476 834.083 161.125 813.914 C 168.699 799.568 178.123 787.765 191.266 778.251 C 217.951 758.935 252.514 741.6 281.396 723.732 C 375.964 665.227 472.231 609.102 567.84 552.301 L 660.353 496.698 C 677.745 486.147 704.488 466.718 722.924 461.056 z"/>
<path transform="translate(0,0)" fill="rgb(253,253,253)" d="M 769.901 486.978 C 770.764 486.853 771.635 486.774 772.506 486.718 A 12.5731 12.5731 0 0 1 782.162 490.208 C 791.292 498.896 788.273 523.964 788.448 536.147 C 770.258 549.195 749.432 559.446 730.22 570.993 L 602.423 648.081 L 213.59 884.299 L 200.313 892.253 C 201.754 881.397 204.544 870.502 207.955 860.108 C 213.923 841.921 223.304 823.283 238.066 810.61 C 257.02 794.338 283.279 781.683 304.67 768.398 L 477.937 662.735 L 656.492 554.974 L 725.782 512.672 C 740.328 503.873 754.7 494.617 769.901 486.978 z"/>
<path transform="translate(0,0)" fill="rgb(20,31,47)" d="M 290.389 794.871 C 291.518 794.902 292.649 794.944 293.773 795.054 C 296.375 795.311 298.763 796.513 300.179 798.801 C 301.906 801.595 301.587 805.249 300.745 808.275 A 34.6071 34.6071 0 0 1 283.984 829.303 C 282.473 829.185 280.938 829.096 279.45 828.789 C 277.155 828.317 275.264 826.935 274.164 824.844 C 272.422 821.535 273.079 817.201 274.26 813.817 C 277.338 804.996 282.093 799.013 290.389 794.871 z"/>
<path transform="translate(0,0)" fill="rgb(253,253,253)" d="M 289.23 804.591 L 290.676 806.167 C 291.061 807.893 291.413 809.46 291.058 811.242 C 290.181 815.638 287.214 818.493 283.706 820.948 C 282.665 819.442 282.008 818.4 281.949 816.503 C 281.797 811.629 286.07 807.707 289.23 804.591 z"/>
<path transform="translate(0,0)" fill="rgb(20,31,47)" d="M 329.665 768.914 C 330.067 768.908 330.469 768.881 330.871 768.897 C 333.803 769.012 336.799 770.076 338.633 772.493 C 341.178 775.847 340.67 780.526 339.62 784.318 C 336.879 794.218 331.251 800.859 322.607 806.037 C 320.949 806.061 319.414 806.066 317.802 805.572 C 315.379 804.83 313.331 803.291 312.236 800.963 C 310.789 797.885 311.184 794.096 312.076 790.92 C 314.944 780.704 320.725 774.142 329.665 768.914 z"/>
<path transform="translate(0,0)" fill="rgb(253,253,253)" d="M 327.823 779.682 C 328.934 780.498 329.294 781.297 329.983 782.468 C 329.912 787.976 327.641 790.696 323.86 794.494 L 321.973 794.007 C 321.141 792.771 320.542 792.424 320.676 790.823 C 321.062 786.25 324.775 782.755 327.823 779.682 z"/>
<path transform="translate(0,0)" fill="rgb(20,31,47)" d="M 246.214 821.02 C 248.154 820.791 250.011 820.554 251.965 820.872 C 254.446 821.276 256.82 822.588 258.1 824.826 C 259.936 828.034 259.391 832.177 258.481 835.567 C 255.809 845.525 250.67 851.978 241.766 856.824 C 239.994 856.948 238.299 857.03 236.535 856.682 C 233.892 856.161 231.447 854.793 230.077 852.375 C 228.442 849.487 228.683 845.774 229.48 842.676 C 232.065 832.621 237.626 826.303 246.214 821.02 z"/>
<path transform="translate(0,0)" fill="rgb(253,253,253)" d="M 244.412 831.459 L 247.22 833.924 C 247.926 835.546 248.543 836.852 248.29 838.685 C 247.747 842.627 244.85 845.204 241.89 847.491 C 240.04 846.739 239.551 846.105 238.502 844.426 C 238.06 838.917 241.067 835.478 244.412 831.459 z"/>
<path transform="translate(0,0)" fill="rgb(253,253,253)" d="M 787.829 601.007 C 790.503 609.46 788.811 698.827 788.823 715.279 L 788.844 886.908 C 788.825 917.635 789.69 948.699 788.469 979.383 C 788.166 987.002 787.324 993.863 784.683 1001.05 C 778.598 1017.62 767.409 1034.85 753.279 1045.68 C 741.842 1054.45 728.626 1061.55 716.228 1068.86 A 6369.67 6369.67 0 0 1 650.585 1106.96 L 466.103 1216.11 C 401.279 1254.63 337.293 1294.53 271.977 1332.21 C 253.216 1343.03 233.592 1358.05 214.028 1366.68 C 209.147 1368.84 206.455 1367.47 201.749 1365.7 C 199.714 1363.24 198.22 1361.69 197.975 1358.42 C 196.908 1344.21 197.825 1329.26 197.821 1314.97 L 197.779 1225.87 L 197.299 960.18 A 34703.6 34703.6 0 0 1 536.505 753.512 L 675.637 669.33 C 712.956 646.476 749.925 622.876 787.829 601.007 z"/>
<path transform="translate(0,0)" fill="rgb(20,31,47)" d="M 333.137 1184.9 C 334.896 1186.09 335.972 1186.74 337.207 1188.5 A 551.09 551.09 0 0 0 336.932 1209.28 L 336.225 1210.57 L 339.069 1210.33 C 338.687 1210.8 338.298 1211.26 337.922 1211.74 C 336.442 1213.6 336.931 1212.78 336.102 1214.68 C 334.567 1216.22 334.544 1216.31 332.407 1216.59 C 332.13 1216.01 331.767 1215.46 331.575 1214.85 C 330.056 1209.99 330.669 1189.12 333.137 1184.9 z"/>
<path transform="translate(0,0)" fill="rgb(20,31,47)" d="M 278.663 1215.71 L 279.448 1216.44 C 281.069 1220.61 280.558 1226.68 280.573 1231.13 C 280.592 1236.55 279.764 1244.85 275.841 1248.81 L 274.675 1248.21 C 273.507 1244.81 274.362 1241.66 274.934 1238.22 C 275.051 1235.92 275.745 1230.52 274.375 1228.89 C 272.289 1230.92 271.385 1232.27 268.53 1233 L 266.504 1231.62 L 266.386 1230.01 C 269.391 1224.84 274.59 1220.14 278.663 1215.71 z"/>
<path transform="translate(0,0)" fill="rgb(20,31,47)" d="M 333.137 1184.9 C 341.639 1181.46 349.343 1176.02 356.923 1170.94 A 1499.24 1499.24 0 0 1 357.775 1200.49 C 350.991 1205.45 343.534 1210.75 336.102 1214.68 C 336.931 1212.78 336.442 1213.6 337.922 1211.74 C 338.298 1211.26 338.687 1210.8 339.069 1210.33 L 336.225 1210.57 L 336.932 1209.28 A 551.09 551.09 0 0 1 337.207 1188.5 C 335.972 1186.74 334.896 1186.09 333.137 1184.9 z"/>
<path transform="translate(0,0)" fill="rgb(253,253,253)" d="M 337.207 1188.5 C 341.806 1186.27 346.382 1183.89 351.095 1181.92 C 351.843 1187.22 352.795 1192.56 352.974 1197.92 C 347.434 1201.42 341.669 1204.7 336.932 1209.28 A 551.09 551.09 0 0 1 337.207 1188.5 z"/>
<path transform="translate(0,0)" fill="rgb(20,31,47)" d="M 609.429 890.905 C 611.71 890.688 611.943 890.847 613.986 891.931 L 614.287 893.894 C 609.883 900.327 543.58 938.218 531.487 945.085 L 529.964 945.501 C 527.712 944.128 528.248 944.348 527.638 942.012 C 529.43 936.425 599.018 897.134 609.429 890.905 z"/>
<path transform="translate(0,0)" fill="rgb(20,31,47)" d="M 318.022 1193.77 L 318.915 1194.14 C 321.462 1198.17 319.878 1217.53 319.727 1223.17 C 312.464 1228.8 303.962 1233.4 295.785 1237.59 L 294.679 1237 C 292.178 1228.77 293.97 1215.55 293.991 1206.74 L 318.022 1193.77 z"/>
<path transform="translate(0,0)" fill="rgb(253,253,253)" d="M 312.598 1202.87 C 315.528 1205.73 314.608 1215.72 314.68 1219.81 L 300.695 1228.37 L 300.015 1228.27 C 298.13 1224.63 299.282 1214.75 299.329 1210.35 L 312.598 1202.87 z"/>
<path transform="translate(0,0)" fill="rgb(20,31,47)" d="M 645.018 838.745 L 646.805 839.355 C 648.268 841.554 648.199 841.372 647.708 843.973 C 641.246 852.367 544.49 906.42 529.369 915.071 C 528.151 914.998 527.354 914.452 526.279 913.914 C 526.683 911.149 527.856 909.577 530.013 907.766 C 538.105 900.976 548.81 895.953 557.96 890.59 C 585.106 874.68 620.432 857.114 645.018 838.745 z"/>
<path transform="translate(0,0)" fill="rgb(20,31,47)" d="M 650.656 804.812 L 652.348 804.995 C 654.497 806.513 654.553 806.331 655.069 808.882 C 651.706 814.745 546.297 875.776 529.678 886.037 C 529.152 886.406 528.439 886.378 527.812 886.518 C 527.101 884.376 527.071 883.337 527.542 881.132 C 529.557 878.417 531.965 876.601 534.768 874.742 C 543.183 869.161 552.458 864.864 561.029 859.525 L 650.656 804.812 z"/>
<path transform="translate(0,0)" fill="rgb(20,31,47)" d="M 733.748 724.829 L 735.639 726.109 L 735.778 728.771 C 733.939 731.506 731.51 733.078 728.772 734.847 C 717.971 741.824 706.439 747.895 695.399 754.525 L 633.241 792.466 L 573.691 827.977 C 559.055 836.791 544.593 846.206 529.484 854.181 L 527.551 852.584 L 527.512 850.243 C 532.155 843.517 714.677 735.162 733.748 724.829 z"/>
<path transform="translate(0,0)" fill="rgb(20,31,47)" d="M 744.739 915.795 C 744.846 915.8 744.954 915.8 745.062 915.81 C 747.853 916.058 748.929 915.724 750.817 917.865 C 752.289 928.905 753.314 979.867 751.073 989.432 C 750.156 993.343 745.854 996.815 742.734 999.053 C 729.618 1008.46 712.189 1016.26 697.953 1024.6 L 596.813 1085.11 C 594.016 1085.66 593.101 1086.27 590.504 1084.95 C 587.963 1075.51 589.704 1021.65 589.893 1007.98 C 603.665 995.569 634.408 979.694 651.335 969.91 L 744.739 915.795 z"/>
<path transform="translate(0,0)" fill="rgb(253,253,253)" d="M 743.726 923.918 C 746.93 928.348 745.001 980.954 744.967 990.377 C 728.265 1001.82 708.719 1011.07 691.084 1021.19 A 2716.54 2716.54 0 0 0 597.266 1077.04 C 594.64 1065.12 596.426 1024.27 596.81 1010.05 C 643.778 979.388 695.129 952.286 743.726 923.918 z"/>
<path transform="translate(0,0)" fill="rgb(20,31,47)" d="M 674.754 983.849 C 675.33 984.762 675.552 985.973 675.866 987.006 C 674.044 993.354 663.966 998.146 658.756 1002.13 A 436.858 436.858 0 0 1 665.093 1001.24 C 668.019 1000.83 670.714 1000.38 673.422 1002 C 675.836 1003.46 676.029 1004.46 676.513 1006.97 C 675.768 1009.25 675.043 1010.94 673.482 1012.79 C 669.078 1018.02 661.945 1022.72 655.09 1023.48 L 654.44 1020.43 C 656.02 1016.93 662.566 1013.73 665.596 1010.91 C 667.05 1009.56 667.865 1009.43 667.937 1007.45 C 663.074 1007.45 659.267 1009.64 654.962 1011.66 C 654.719 1006.56 654.925 1001.49 655.093 996.393 C 661.328 991.598 667.933 987.749 674.754 983.849 z"/>
<path transform="translate(0,0)" fill="rgb(20,31,47)" d="M 713.132 960.639 L 715.972 961.985 C 720.368 967.962 718.668 979.315 718.494 986.475 C 713.493 990.515 708.386 993.685 702.812 996.868 L 702.802 974.092 C 698.958 976.433 692.972 979.084 690.587 982.918 C 690.9 987.927 691.633 993.483 690.821 998.447 C 690.398 1001.04 689.974 1004.23 687.861 1005.83 C 687.701 1005.73 687.508 1005.66 687.38 1005.52 C 682.77 1000.44 684.298 984.673 684.465 977.936 C 694.197 972.491 703.619 966.458 713.132 960.639 z"/>
<path transform="translate(0,0)" fill="rgb(253,253,253)" d="M 710.348 968.453 C 712.363 969.947 712.648 971.228 712.98 973.6 C 713.711 978.824 713.29 982.54 710.189 986.744 C 708.182 985.117 707.948 984.004 707.547 981.572 C 706.623 975.957 707.104 972.884 710.348 968.453 z"/>
<path transform="translate(0,0)" fill="rgb(20,31,47)" d="M 641.498 1002.9 C 641.664 1003 641.846 1003.09 641.998 1003.21 C 645.376 1005.99 645.384 1025.25 645.702 1030.17 C 637.294 1035.79 628.65 1041.36 619.567 1045.81 L 618.005 1045.02 C 615.41 1037.8 617.255 1025.3 617.661 1017.5 C 624.735 1011.7 633.627 1007.59 641.498 1002.9 z"/>
<path transform="translate(0,0)" fill="rgb(253,253,253)" d="M 637.04 1011.9 C 640.288 1015.21 639.16 1023.34 639.124 1027.79 C 634.479 1031.31 629.561 1034.13 624.506 1037.01 L 623.503 1036.74 C 621.752 1032.28 622.691 1025.67 622.763 1020.88 C 627.31 1017.54 632.186 1014.76 637.04 1011.9 z"/>
<path transform="translate(0,0)" fill="rgb(20,31,47)" d="M 547.994 1033.73 L 549.396 1034.27 C 553.336 1039 550.941 1099.18 550.87 1109.77 C 548.475 1112.27 545.986 1114.43 543.108 1116.35 C 525.243 1128.25 505.914 1138.34 487.545 1149.49 C 461.434 1165.33 435.601 1182.26 409.09 1197.36 C 405.947 1199.15 402.957 1200.95 399.362 1201.62 C 396.334 1194.62 398 1142.84 397.946 1130.11 C 373.844 1142.48 350.515 1156.63 327.026 1170.11 C 301.282 1184.89 275.435 1199.16 250.125 1214.69 C 250.123 1238.27 249.611 1261.97 250.666 1285.52 C 283.263 1264.99 316.84 1246.1 349.487 1225.66 C 356.692 1221.24 379.714 1205.74 386.311 1205.73 L 386.738 1207.42 C 386.09 1208.64 385.48 1209.83 384.587 1210.89 C 382.938 1212.86 380.707 1214.63 378.563 1216.03 C 372.805 1219.78 366.546 1222.85 360.68 1226.46 A 3041.6 3041.6 0 0 1 291.032 1268.51 C 277.887 1276.28 263.131 1286.72 250.055 1293.46 C 248.691 1294.17 247.488 1294.45 245.97 1294.59 C 241.865 1286.45 243.766 1223.66 243.69 1211.21 C 306.895 1173.25 371.205 1137.08 434.762 1099.68 C 460.766 1084.38 486.363 1068.43 512.49 1053.33 C 524.149 1046.59 535.785 1039.43 547.994 1033.73 z"/>
<path transform="translate(0,0)" fill="rgb(253,253,253)" d="M 543.59 1042.91 C 546.607 1046.23 544.597 1099.9 544.441 1106.77 C 529.284 1118.29 510.967 1127.34 494.614 1137.2 L 405.378 1191.68 C 402.277 1182.76 404.487 1137.02 404.608 1124.56 C 451.545 1098.43 497.02 1069.71 543.59 1042.91 z"/>
<path transform="translate(0,0)" fill="rgb(20,31,47)" d="M 525.853 1070.46 C 527.459 1071.28 527.717 1071.59 528.129 1073.44 C 529.609 1080.1 529.104 1097.6 524.714 1103 L 523.393 1102.87 C 521.411 1099.95 521.906 1096.87 521.994 1093.5 C 522.133 1090.43 522.677 1087.13 521.553 1084.26 C 519.575 1085.5 517.738 1086.72 515.503 1087.48 L 514.012 1085.99 C 514.504 1081.41 522.623 1074.25 525.853 1070.46 z"/>
<path transform="translate(0,0)" fill="rgb(20,31,47)" d="M 430.557 1125.55 C 432.397 1127.02 432.627 1127.43 433.062 1129.93 C 434.388 1137.55 434.093 1153.67 429.544 1160.24 L 427.969 1160.24 C 426.349 1157.45 426.668 1154.93 426.763 1151.84 L 427.96 1135.98 C 426.22 1138.82 424.881 1141.12 422.153 1143.09 L 420.628 1142.38 C 420.481 1141.17 420.4 1141.02 420.599 1139.61 C 421.502 1133.21 425.833 1129.36 430.557 1125.55 z"/>
<path transform="translate(0,0)" fill="rgb(20,31,47)" d="M 506.751 1082.01 C 510.25 1087.26 507.843 1104.64 507.532 1111.43 C 500.753 1116.07 493.479 1120.2 486.495 1124.54 C 484.582 1115.6 486.396 1106.17 484.317 1096.97 C 491.682 1091.76 499.073 1086.75 506.751 1082.01 z"/>
<path transform="translate(0,0)" fill="rgb(253,253,253)" d="M 501.707 1091.93 L 502.372 1092.54 C 503.862 1097.2 502.828 1104 502.713 1108.94 C 499.225 1110.56 495.845 1112.46 492.442 1114.25 C 489.945 1111.64 490.9 1102.42 490.874 1098.79 L 501.707 1091.93 z"/>
<path transform="translate(0,0)" fill="rgb(20,31,47)" d="M 469.861 1104.94 C 472.565 1109.08 471.825 1125.94 473.339 1132.22 C 465.577 1138.39 456.591 1142.55 448.909 1149.03 L 447.852 1148.48 C 445.186 1142.86 446.478 1124.51 446.351 1117.13 C 454.43 1113.85 462.18 1109.08 469.861 1104.94 z"/>
<path transform="translate(0,0)" fill="rgb(253,253,253)" d="M 464.104 1113.91 L 465.098 1114.79 C 466.496 1119.76 465.997 1125.7 466.073 1130.86 L 453.808 1138.07 L 452.726 1137.59 C 451.263 1132.48 451.933 1126.12 451.921 1120.81 L 464.104 1113.91 z"/>
<path transform="translate(0,0)" fill="rgb(20,31,47)" d="M 467.568 853.063 C 469.153 852.885 469.243 852.848 471.007 852.789 C 474.296 852.68 478.051 853.338 480.209 856.098 C 482.358 858.848 482.531 863.207 482.741 866.539 C 484.375 892.513 482.623 919.595 482.554 945.663 C 482.514 960.675 484.78 1001.41 481.558 1013.91 C 479.698 1021.13 475.857 1027.43 470.117 1032.2 C 461.612 1039.27 451.181 1044.66 441.673 1050.29 A 5314.94 5314.94 0 0 1 394.543 1077.87 A 11312.6 11312.6 0 0 0 256.603 1158.82 C 253.921 1160.71 250.542 1163.27 247.274 1163.81 C 245.601 1164.08 245.967 1163.83 244.397 1162.7 C 241.796 1146.46 243.724 1123.43 243.776 1106.2 A 5382.02 5382.02 0 0 1 244.81 981.611 C 319.031 938.855 392.645 894.543 467.568 853.063 z"/>
<path transform="translate(0,0)" fill="rgb(253,253,253)" d="M 469.046 859.753 C 471.931 859.998 472.301 859.885 474.485 861.723 C 475.888 864.884 476.22 867.861 476.395 871.293 C 477.125 885.616 476.09 900.292 476.144 914.655 C 476.22 934.832 478.845 998.198 474.838 1013.29 C 473.512 1018.28 471.041 1023.63 466.86 1026.85 C 457.06 1034.41 444.858 1040.22 434.101 1046.38 L 385.639 1074.61 A 15100.7 15100.7 0 0 0 255.398 1151.7 L 252.431 1153.23 L 251.03 1152.18 C 249.085 1144.96 250.869 1121.08 250.872 1111.71 L 250.933 985.804 C 264.456 977.353 278.633 969.896 292.453 961.936 A 4904.17 4904.17 0 0 1 371.127 916.587 C 403.767 897.823 435.797 877.371 469.046 859.753 z"/>
<path transform="translate(0,0)" fill="rgb(20,31,47)" d="M 369.824 934.161 C 382.559 933.785 390.33 938.103 400.553 944.878 C 410.173 942.303 420.094 937.655 430.292 939.263 C 437.416 940.387 442.823 944.783 446.936 950.525 C 451.958 957.538 453.146 965.631 451.346 973.973 C 445.141 1002.73 418.381 1018.66 396.217 1034.38 A 978.05 978.05 0 0 1 350.906 1065.29 C 338.343 1073.46 321.036 1086.15 305.764 1087.78 C 300.501 1088.34 294.774 1087.32 290.7 1083.74 C 286.086 1079.67 284.712 1073.34 284.574 1067.44 C 284.02 1043.85 302.5 1022.3 318.106 1006.66 C 322.239 989.946 324.529 975.648 333.961 960.776 C 342.499 947.316 353.916 937.682 369.824 934.161 z"/>
<path transform="translate(0,0)" fill="rgb(253,253,253)" d="M 367.503 941.164 C 380.87 940.121 389.066 944.944 399.571 952.355 C 408.706 949.219 418.369 945.506 428.205 946.814 C 433.556 947.525 439.144 949.517 442.468 953.998 C 446.349 959.23 446.133 966.933 444.869 973.003 C 439.352 999.51 411.987 1015.1 391.634 1029.53 C 378.601 1038.78 365.619 1047.94 352.242 1056.69 C 341.481 1063.28 330.718 1070.29 319.366 1075.83 C 313.875 1078.51 305.136 1082.34 299.108 1079.53 C 295.811 1077.99 294.001 1075.69 292.77 1072.35 C 288.203 1059.98 297.812 1036.86 306.095 1027.39 C 311.723 1020.96 319.84 1015.33 323.926 1007.79 C 326.117 1003.74 325.983 997.194 326.939 992.645 C 328.08 987.219 330.107 981.844 332.422 976.811 C 339.984 960.372 350.191 947.582 367.503 941.164 z"/>
<path transform="translate(0,0)" fill="rgb(20,31,47)" d="M 1827.69 82.1806 C 1831.71 81.9263 1835.95 81.5243 1839.92 82.43 C 1852.09 85.2076 1888.73 104.584 1899.06 112.506 C 1905.32 117.309 1911.05 123.306 1911.99 131.426 C 1914.76 155.34 1913.19 180.894 1913.34 205.056 L 1912.99 372.557 L 1914.19 860.436 C 1902.16 871.286 1886.24 878.703 1872.4 887.115 L 1773.98 946.094 A 23213.2 23213.2 0 0 1 1433.57 1147.22 C 1426.97 1150.91 1420.44 1154.82 1413.31 1157.4 C 1400.18 1150.54 1366.47 1132.18 1356.7 1123.2 C 1354.57 974.65 1356.75 825.957 1355.85 677.385 A 10952.1 10952.1 0 0 1 1355.53 485.17 C 1355.79 462.957 1353.73 439.77 1356.06 417.762 C 1358.19 397.569 1365.29 379.034 1375.7 361.706 A 112.042 112.042 0 0 1 1407.09 327.563 C 1416.53 320.86 1427.17 315.75 1437.1 309.814 L 1517.61 262.44 L 1711.73 147.823 C 1734.81 134.096 1806.79 87.3858 1827.69 82.1806 z"/>
<path transform="translate(0,0)" fill="rgb(253,253,253)" d="M 1827.6 95.9174 C 1841.83 95.9108 1859.45 107.491 1871.74 114.424 C 1847.07 126.783 1823.7 142.358 1799.94 156.418 L 1660.8 238.877 L 1537.28 311.638 C 1512.05 326.276 1485.14 340.157 1461.07 356.534 C 1429.21 378.206 1416.06 413.548 1409.22 449.784 L 1408.47 453.093 L 1406.79 453.853 C 1394.45 448.542 1383.92 439.537 1371.52 434.039 L 1369.93 433.344 C 1370.9 421.705 1372 410.161 1375.08 398.845 C 1380.74 378.001 1393.47 357.489 1410.05 343.566 C 1423.15 332.573 1439.81 324.503 1454.56 315.874 L 1540.74 265.701 L 1706.97 167.767 A 7310.28 7310.28 0 0 1 1827.6 95.9174 z"/>
<path transform="translate(0,0)" fill="rgb(253,253,253)" d="M 1370.9 449.548 C 1382.96 455.548 1397.56 463.375 1407.87 471.953 L 1408.06 1136.45 A 595.909 595.909 0 0 1 1371.37 1115.36 C 1370.76 1089.83 1371.46 1064.1 1371.49 1038.56 L 1371.31 877.691 L 1370.91 605.927 C 1370.87 553.835 1370.02 501.626 1370.9 449.548 z"/>
<path transform="translate(0,0)" fill="rgb(253,253,253)" d="M 1884.67 122.823 C 1887.71 123.989 1890.56 125.089 1892.93 127.4 C 1902.62 136.841 1899.01 158.872 1898.89 171.548 C 1874.45 187.51 1848.46 201.576 1823.25 216.3 L 1721.77 276.151 L 1433.91 445.126 L 1424.42 450.906 A 127.063 127.063 0 0 1 1427.99 432.173 C 1433.52 411.06 1444.25 388.555 1460.82 373.854 C 1471.53 364.358 1486.91 357.299 1499.3 350.092 L 1587.11 299.55 L 1884.67 122.823 z"/>
<path transform="translate(0,0)" fill="rgb(20,31,47)" d="M 1534.3 346.64 C 1537.28 347.568 1539.27 348.778 1540.5 351.81 C 1541.71 354.775 1541.15 358.598 1540.11 361.545 C 1537.39 369.267 1532.78 374.071 1525.42 377.365 C 1523.66 376.684 1522.13 375.995 1520.85 374.526 C 1518.91 372.302 1519.19 368.858 1519.88 366.203 C 1521.85 358.676 1527.69 350.693 1534.3 346.64 z"/>
<path transform="translate(0,0)" fill="rgb(20,31,47)" d="M 1466.83 388.628 C 1469.36 389.855 1470.64 390.842 1472 393.361 C 1473.63 396.352 1473.5 400.072 1472.44 403.209 C 1469.74 411.219 1464.03 416.12 1456.77 419.875 C 1454.37 419.3 1453.08 419.022 1451.51 416.867 C 1449.83 414.55 1450.22 411.222 1450.85 408.613 C 1452.98 399.829 1459.33 393.118 1466.83 388.628 z"/>
<path transform="translate(0,0)" fill="rgb(20,31,47)" d="M 1496.46 368.94 C 1499.45 368.589 1501.29 368.482 1504.21 369.603 C 1506 371.59 1506.78 372.584 1506.79 375.359 C 1506.82 383.2 1499.58 393.077 1494.08 398.11 C 1490.61 399.101 1488.84 399.293 1485.45 398.051 C 1484 395.667 1483.52 394.318 1483.79 391.48 C 1484.56 383.271 1490.12 373.946 1496.46 368.94 z"/>
<path transform="translate(0,0)" fill="rgb(20,31,47)" d="M 1571.17 323.678 C 1571.46 323.75 1571.75 323.806 1572.04 323.893 C 1575.04 324.82 1577.25 326.291 1578.56 329.249 C 1579.91 332.284 1579.49 335.758 1578.38 338.785 C 1575.58 346.385 1569.9 352.192 1562.73 355.683 C 1560.03 355.011 1557.86 354.576 1556.25 352.005 C 1554.74 349.587 1554.92 346.569 1555.55 343.908 C 1557.51 335.543 1564.03 328.081 1571.17 323.678 z"/>
<path transform="translate(0,0)" fill="rgb(253,253,253)" d="M 1896.68 190.869 C 1896.76 190.923 1896.86 190.959 1896.93 191.031 C 1899.14 193.347 1898.74 196.833 1898.71 199.927 L 1899.14 853.082 C 1884.07 861.012 1869.55 870.683 1854.97 879.527 L 1788.61 919.185 A 17110.1 17110.1 0 0 1 1542.44 1065.05 C 1503.31 1088.12 1464.85 1113.67 1424.62 1134.69 L 1423.24 1134.03 C 1421.17 1119.21 1423.14 1090.42 1423.18 1074.3 L 1423.1 940.316 L 1422.6 469.111 L 1661.77 328.739 C 1739.93 282.639 1817.29 234.819 1896.68 190.869 z"/>
<path transform="translate(0,0)" fill="rgb(20,31,47)" d="M 1566.55 646.746 C 1567.41 644.596 1568.94 642.104 1570.54 640.424 C 1572.38 638.488 1573.6 638.365 1576.13 638.522 C 1578.56 640.249 1579 642.398 1579.88 645.092 C 1577.02 646.1 1574.93 646.217 1571.97 646.132 C 1569.47 646.985 1569.19 647.513 1566.55 646.746 z"/>
<path transform="translate(0,0)" fill="rgb(20,31,47)" d="M 1566.43 738.622 C 1568.14 735.755 1569.37 734.167 1572.17 732.314 C 1574.61 732.033 1575.88 731.688 1577.91 733.492 C 1580.24 735.555 1581.24 739.283 1581.01 742.28 C 1580.84 744.415 1580.69 745.935 1579.05 747.447 C 1578.74 747.731 1578.35 747.909 1578 748.141 L 1575.6 748.27 C 1575.23 744.598 1575.33 740.759 1572.72 737.897 C 1571.15 738.063 1572.02 737.912 1569.84 738.585 C 1567.45 739.321 1568.63 739.379 1566.43 738.622 z"/>
<path transform="translate(0,0)" fill="rgb(20,31,47)" d="M 1566.55 646.746 C 1569.19 647.513 1569.47 646.985 1571.97 646.132 C 1571.46 650.399 1568.83 656.847 1570.18 660.745 C 1572.99 663.615 1574.45 663.091 1577.98 664.429 C 1577.19 665.422 1576.34 666.64 1575.32 667.429 C 1572.94 669.268 1571.3 669.544 1568.4 669.305 C 1566.88 668.228 1566.08 667.342 1565.38 665.632 C 1562.84 659.415 1563.86 652.721 1566.55 646.746 z"/>
<path transform="translate(0,0)" fill="rgb(20,31,47)" d="M 1579.88 645.092 C 1580.22 651.903 1580.29 657.88 1577.98 664.429 C 1574.45 663.091 1572.99 663.615 1570.18 660.745 C 1568.83 656.847 1571.46 650.399 1571.97 646.132 C 1574.93 646.217 1577.02 646.1 1579.88 645.092 z"/>
<path transform="translate(0,0)" fill="rgb(20,31,47)" d="M 1566.43 738.622 C 1568.63 739.379 1567.45 739.321 1569.84 738.585 C 1572.02 737.912 1571.15 738.063 1572.72 737.897 C 1575.33 740.759 1575.23 744.598 1575.6 748.27 L 1578 748.141 C 1579.29 750.258 1579.83 751.813 1579.21 754.354 C 1578.58 756.927 1577.15 758.99 1574.83 760.32 C 1572.82 761.467 1569.87 761.846 1567.67 761.092 C 1565.32 760.289 1563.77 758.646 1562.9 756.358 C 1561.3 752.171 1564.37 742.436 1566.43 738.622 z"/>
<path transform="translate(0,0)" fill="rgb(253,253,253)" d="M 1572.72 737.897 C 1575.33 740.759 1575.23 744.598 1575.6 748.27 C 1575.36 749.175 1575.04 750.466 1574.69 751.301 C 1573.75 753.553 1573.63 754.07 1571.34 754.839 L 1569.96 753.263 C 1568.52 746.925 1569.53 743.478 1572.72 737.897 z"/>
<path transform="translate(0,0)" fill="rgb(20,31,47)" d="M 1520.63 560.551 C 1522.23 561.559 1523.2 562.253 1524.19 563.92 C 1526.29 567.447 1525.76 574.932 1524.8 578.742 C 1523.05 585.639 1520.79 589.778 1514.65 593.396 C 1513.23 592.715 1512.53 591.964 1511.43 590.872 C 1509.61 584.904 1509.61 578.951 1511.29 572.94 C 1513.11 566.414 1514.75 563.923 1520.63 560.551 z"/>
<path transform="translate(0,0)" fill="rgb(20,31,47)" d="M 1576.64 529.669 C 1578.08 530.656 1578.92 531.448 1579.82 533.001 C 1582.61 537.839 1581.64 545.224 1579.57 550.116 C 1577.18 555.781 1575.15 557.449 1569.52 559.773 C 1567.96 558.583 1566.56 557.293 1565.49 555.617 C 1563.29 552.163 1563.12 546.317 1564.41 542.531 C 1566.7 535.814 1570.53 532.812 1576.64 529.669 z"/>
<path transform="translate(0,0)" fill="rgb(253,253,253)" d="M 1572.95 537.53 C 1573.75 538.064 1574.46 538.873 1575.15 539.543 C 1576.24 544.235 1575.15 548.291 1573.24 552.61 C 1572.75 552.368 1572.21 552.201 1571.76 551.883 C 1570.58 551.056 1569.89 549.902 1569.64 548.527 C 1568.86 544.248 1570.74 541.032 1572.95 537.53 z"/>
<path transform="translate(0,0)" fill="rgb(20,31,47)" d="M 1547.56 546.701 C 1549.19 547.716 1550.15 548.327 1551.15 550.011 C 1553.69 554.247 1553.2 561.117 1551.73 565.603 C 1549.65 571.921 1547.4 574.589 1541.47 577.496 C 1539.69 576.92 1538.54 576.068 1537.06 574.945 C 1535.21 570.794 1534.84 566.609 1536.04 562.176 C 1538.08 554.588 1540.9 550.571 1547.56 546.701 z"/>
<path transform="translate(0,0)" fill="rgb(20,31,47)" d="M 1599.07 516.072 C 1601.25 514.269 1602.34 513.29 1605.21 512.795 C 1607.51 513.853 1608.41 514.563 1609.19 517.083 C 1610.9 522.612 1609.88 533.55 1606.72 538.401 C 1605.95 539.584 1605.29 540.284 1604.15 541.057 C 1602.62 542.418 1601.34 542.829 1599.46 543.571 C 1597.89 543.404 1596.93 543.682 1595.77 542.459 C 1593.33 539.897 1593.12 535.721 1593.2 532.355 C 1593.35 526.438 1594.64 520.21 1599.07 516.072 z"/>
<path transform="translate(0,0)" fill="rgb(253,253,253)" d="M 1598.24 535.538 C 1598.77 529.89 1599.6 525.321 1601.61 519.961 L 1604.14 520.052 L 1601.93 519.393 L 1604.25 520.439 C 1605 525.693 1604.94 533.969 1601.47 538.354 C 1601.29 538.579 1601.07 538.763 1600.87 538.967 L 1598.24 535.538 z"/>
<path transform="translate(0,0)" fill="rgb(20,31,47)" d="M 1517.12 763.696 C 1519.61 763.787 1521.85 763.725 1523.76 765.624 C 1526.4 768.234 1526.96 771.872 1526.54 775.393 C 1525.63 783.002 1522.05 788.252 1516.22 792.893 C 1515.9 792.881 1515.59 792.892 1515.27 792.856 C 1513.08 792.598 1511.09 791.615 1509.77 789.792 C 1507.85 787.147 1507.51 783.439 1507.89 780.288 C 1508.79 772.906 1511.44 768.26 1517.12 763.696 z"/>
<path transform="translate(0,0)" fill="rgb(253,253,253)" d="M 1517.28 769.505 C 1519.34 771.1 1520.02 772.187 1520.32 774.842 C 1520.81 779.107 1518.25 783.159 1515.88 786.435 C 1514.19 784.719 1513.54 783.044 1513.18 780.654 C 1512.54 776.378 1514.78 772.714 1517.28 769.505 z"/>
<path transform="translate(0,0)" fill="rgb(20,31,47)" d="M 1517.14 670.493 C 1520.07 670.453 1521.19 670.453 1523.73 672.179 C 1526.08 675.461 1526.86 678.299 1526.51 682.364 C 1525.89 689.797 1522.92 695.927 1517.44 700.848 C 1515.45 700.906 1513.65 700.707 1511.98 699.485 C 1509.41 697.605 1508.62 694.341 1508.52 691.332 C 1508.28 683.464 1511.92 676.103 1517.14 670.493 z"/>
<path transform="translate(0,0)" fill="rgb(253,253,253)" d="M 1518.07 677.567 C 1518.9 678.758 1519.19 679.048 1519.78 680.514 C 1521.59 685.071 1518.32 691.903 1516.26 695.825 C 1514.44 693.979 1513.73 692.616 1513.51 689.978 C 1513.1 685.045 1515.08 681.308 1518.07 677.567 z"/>
<path transform="translate(0,0)" fill="rgb(20,31,47)" d="M 1494.64 774.528 C 1496.24 775.394 1497.23 776.118 1498.33 777.621 C 1500.85 781.072 1500.56 787.797 1499.64 791.725 C 1497.87 799.244 1495.44 803.239 1489.02 807.363 C 1486.84 806.218 1485.2 805.218 1483.88 803.055 C 1481.94 799.884 1482.04 794.469 1482.84 790.981 C 1484.55 783.563 1488.31 778.477 1494.64 774.528 z"/>
<path transform="translate(0,0)" fill="rgb(253,253,253)" d="M 1493.11 781.54 L 1494.69 784.016 C 1495.02 790.258 1493.52 794.805 1490.53 800.241 C 1489.15 798.562 1488.95 797.136 1488.72 795.046 C 1488.14 789.564 1489.65 785.722 1493.11 781.54 z"/>
<path transform="translate(0,0)" fill="rgb(20,31,47)" d="M 1491.11 576.591 C 1493.64 576.93 1495.38 576.715 1497.07 578.883 C 1499.44 581.909 1499.65 587.142 1499.17 590.781 C 1498.16 598.513 1495.97 603.471 1489.79 608.152 C 1487.64 607.91 1486.39 607.29 1484.52 606.223 C 1482.03 602.86 1481.05 599.817 1481.34 595.579 C 1481.88 587.595 1485.32 581.779 1491.11 576.591 z"/>
<path transform="translate(0,0)" fill="rgb(253,253,253)" d="M 1490.65 584.67 C 1491.32 585.374 1491.92 585.916 1492.37 586.825 C 1494.69 591.557 1491.76 597.14 1489.72 601.355 C 1488.16 599.914 1487.51 598.178 1487.08 596.12 C 1486.18 591.761 1488.38 588.167 1490.65 584.67 z"/>
<path transform="translate(0,0)" fill="rgb(20,31,47)" d="M 1543.24 746.273 C 1545.87 747.089 1547.34 747.675 1548.92 750.035 C 1551.4 753.731 1551.57 759.971 1550.85 764.194 C 1549.62 771.4 1547.82 775.662 1541.91 779.965 C 1540.01 779.434 1538.11 778.787 1536.78 777.232 C 1534.56 774.644 1533.93 770.511 1533.97 767.223 C 1534.06 759.049 1537.51 751.872 1543.24 746.273 z"/>
<path transform="translate(0,0)" fill="rgb(253,253,253)" d="M 1542.56 754.565 C 1543.56 755.268 1543.98 755.986 1544.67 756.981 C 1545.66 762.81 1545.08 767.683 1542.49 773.02 C 1541.19 772.521 1540.94 772.071 1540.08 771.02 C 1539.02 764.938 1540.17 760.185 1542.56 754.565 z"/>
<path transform="translate(0,0)" fill="rgb(20,31,47)" d="M 1494.5 683.738 C 1496.6 685.078 1497.88 686.149 1498.86 688.515 C 1501.36 694.486 1499.94 702.967 1497.31 708.635 C 1495.15 713.281 1492.58 714.668 1487.92 716.495 C 1486.05 715.581 1484.63 714.596 1483.39 712.869 C 1481.21 709.826 1481.06 704.407 1481.84 700.899 C 1483.6 692.962 1487.98 688.144 1494.5 683.738 z"/>
<path transform="translate(0,0)" fill="rgb(253,253,253)" d="M 1491.24 692.408 L 1493.22 693.299 C 1493.82 694.48 1494.26 695.553 1494.39 696.888 C 1494.87 701.844 1493.3 706.242 1490.2 710.027 C 1488.64 709.071 1487.73 708.34 1487.18 706.509 C 1485.75 701.67 1488.69 696.282 1491.24 692.408 z"/>
<path transform="translate(0,0)" fill="rgb(20,31,47)" d="M 1545.52 653.501 C 1547.95 654.3 1549.5 655.046 1550.78 657.299 C 1553.78 662.546 1552.81 670.117 1551.05 675.578 C 1549.15 681.503 1547.09 683.963 1541.64 686.862 C 1539.79 686.102 1538.01 685.504 1536.72 683.882 C 1533.79 680.206 1533.64 674.066 1534.63 669.695 C 1536.29 662.317 1539.28 657.652 1545.52 653.501 z"/>
<path transform="translate(0,0)" fill="rgb(253,253,253)" d="M 1543.24 662.267 C 1544.16 662.731 1544.76 663.352 1545.52 664.044 C 1546.67 669.779 1545.8 674.836 1543.52 680.176 C 1542.12 679.621 1541.86 679.151 1540.94 678.009 C 1539.89 672.301 1541.19 667.6 1543.24 662.267 z"/>
<path transform="translate(0,0)" fill="rgb(20,31,47)" d="M 1603.09 620.546 C 1603.51 620.634 1603.94 620.684 1604.34 620.812 C 1606.72 621.562 1608.08 622.655 1609.26 624.853 C 1611.63 629.284 1611.01 635.955 1609.83 640.617 C 1607.98 647.958 1606.04 651.552 1599.54 655.452 C 1598.19 654.777 1596.89 654.126 1595.86 652.975 C 1592.93 649.708 1592.48 644.329 1592.87 640.166 C 1593.57 632.469 1597.1 625.366 1603.09 620.546 z"/>
<path transform="translate(0,0)" fill="rgb(253,253,253)" d="M 1602.36 628.688 C 1603.29 629.557 1603.74 630.185 1604.12 631.465 C 1605.66 636.611 1603.64 643.998 1601.24 648.592 C 1599.88 647.389 1599.4 646.841 1598.91 645.034 C 1597.49 639.761 1600.08 633.323 1602.36 628.688 z"/>
<path transform="translate(0,0)" fill="rgb(20,31,47)" d="M 1605.7 712.611 C 1607.42 713.733 1608.5 714.52 1609.6 716.31 C 1612.44 720.956 1611.77 728.671 1610.14 733.581 C 1607.79 740.628 1605.06 744.099 1598.54 747.5 C 1597.01 746.596 1595.56 745.777 1594.52 744.272 C 1591.79 740.321 1591.98 733.614 1593.18 729.176 C 1595.29 721.378 1598.83 716.633 1605.7 712.611 z"/>
<path transform="translate(0,0)" fill="rgb(253,253,253)" d="M 1603.5 719.762 C 1604.76 721.268 1605.07 721.874 1605.34 723.804 C 1606.18 729.869 1604.51 735.651 1600.87 740.488 C 1599.6 739.56 1599.39 739.791 1599 738.542 C 1597.2 732.78 1600.51 724.621 1603.5 719.762 z"/>
<path transform="translate(0,0)" fill="rgb(20,31,47)" d="M 1633.03 697.937 C 1635.51 698.556 1637.27 698.952 1638.88 701.086 C 1641.18 704.158 1641.14 709.55 1640.44 713.126 C 1638.98 720.568 1635.91 726.038 1629.75 730.336 C 1629.09 730.272 1628.42 730.285 1627.78 730.145 C 1625.21 729.589 1623.81 728.041 1622.61 725.807 C 1619.86 720.666 1621.3 713.051 1623.29 707.933 C 1625.36 702.625 1627.91 700.256 1633.03 697.937 z"/>
<path transform="translate(0,0)" fill="rgb(253,253,253)" d="M 1631.04 704.434 L 1633.81 705.3 C 1634.34 706.054 1634.67 706.41 1634.9 707.406 C 1636.12 712.669 1633.37 719.136 1631.14 723.774 C 1630.42 723.739 1629.53 723.315 1628.85 723.082 C 1628.25 722.001 1628.17 721.972 1627.8 720.59 C 1626.4 715.43 1628.25 708.779 1631.04 704.434 z"/>
<path transform="translate(0,0)" fill="rgb(20,31,47)" d="M 1633.06 603.825 C 1634.82 604.492 1636.65 605.007 1637.87 606.558 C 1640.46 609.844 1640.73 615.505 1640.13 619.443 C 1638.9 627.604 1635.29 633.274 1628.65 637.892 C 1628.14 637.755 1627.62 637.658 1627.13 637.481 C 1625.12 636.764 1623.88 635.414 1622.95 633.532 C 1620.23 628.046 1621.11 621.022 1622.99 615.441 C 1625.01 609.429 1627.4 606.608 1633.06 603.825 z"/>
<path transform="translate(0,0)" fill="rgb(253,253,253)" d="M 1632.03 609.489 C 1633.56 611.007 1633.71 611.198 1634.06 613.232 C 1635.13 619.459 1633.35 627.25 1629.88 632.456 C 1628.34 630.676 1628.09 630.416 1627.74 628.089 C 1626.74 621.39 1627.92 614.94 1632.03 609.489 z"/>
<path transform="translate(0,0)" fill="rgb(20,31,47)" d="M 1632.56 494.766 C 1635.14 495.454 1636.9 496.018 1638.69 498.114 C 1640.74 500.511 1641.2 504.215 1640.84 507.226 C 1639.86 515.426 1634.9 521.728 1628.73 526.758 C 1628.06 526.901 1627.18 527.129 1626.5 527.066 C 1624.32 526.862 1622.72 525.73 1621.6 523.843 C 1619.28 519.913 1620.69 512.042 1621.78 507.966 C 1623.69 500.902 1626.27 498.286 1632.56 494.766 z"/>
<path transform="translate(0,0)" fill="rgb(253,253,253)" d="M 1629.2 501.144 C 1632.1 501.943 1632.7 501.895 1634.61 504.152 C 1636.13 509.734 1633.46 513.645 1630.84 518.447 L 1628.04 519.65 L 1626.89 518.272 C 1625.78 512.36 1626.86 506.628 1629.2 501.144 z"/>
<path transform="translate(0,0)" fill="rgb(20,31,47)" d="M 1794.49 622.918 L 1796.28 623.699 C 1797.6 626.047 1797.65 625.991 1797.14 628.62 C 1792.69 634.115 1693.19 689.88 1678.47 698.129 C 1676.88 697.824 1677.47 698.094 1676.1 697.191 C 1674.65 696.239 1675.2 696.802 1674.77 694.721 C 1676.56 691.758 1678.33 689.952 1681.19 687.98 C 1692.53 680.182 1705.44 674.144 1717.4 667.278 L 1794.49 622.918 z"/>
<path transform="translate(0,0)" fill="rgb(20,31,47)" d="M 1821.95 516.674 C 1823.74 517.705 1823.22 517.12 1824.31 518.838 C 1825.37 520.515 1824.87 520.741 1824.46 522.557 C 1817.11 531.229 1692.77 601.273 1674.27 610.524 C 1673.8 610.315 1673.27 610.195 1672.86 609.896 C 1671.28 608.774 1671.25 607.807 1671.26 606.031 C 1676.53 599.184 1803.18 528.68 1821.95 516.674 z"/>
<path transform="translate(0,0)" fill="rgb(20,31,47)" d="M 1823.26 416.763 C 1823.33 416.788 1823.41 416.8 1823.47 416.84 C 1825.75 418.288 1825.63 418.397 1826.21 420.983 C 1825.81 421.808 1825.61 422.777 1825 423.457 C 1821.4 427.413 1801.87 437.028 1795.93 440.525 C 1754.33 465.029 1712.91 490.072 1670.82 513.719 C 1670.69 513.654 1670.55 513.62 1670.44 513.525 C 1668.58 511.871 1668.59 511.482 1668.45 509.12 C 1670.54 505.549 1673.79 503.495 1677.19 501.279 C 1700.31 486.219 1725.83 473.439 1749.73 459.523 C 1774.07 445.352 1798.08 429.278 1823.26 416.763 z"/>
<path transform="translate(0,0)" fill="rgb(20,31,47)" d="M 1823.38 440.813 C 1825.74 441.689 1825.32 441.666 1826.54 443.633 C 1825.54 447.367 1823.31 449.103 1820.23 451.336 C 1794.6 469.924 1757.32 488.844 1729.24 504.952 A 5536.41 5536.41 0 0 0 1547.51 613.014 C 1520.84 629.238 1492.23 643.657 1467.22 662.286 C 1464.92 662.976 1465.42 662.768 1463.48 661.755 L 1463.02 659.666 C 1464.63 655.446 1468.41 653.075 1472.01 650.627 C 1492.03 637.015 1514.39 626.104 1535.02 613.281 C 1630.15 554.131 1727.94 499.4 1823.38 440.813 z"/>
<path transform="translate(0,0)" fill="rgb(56,164,160)" d="M 1584.43 860.743 C 1589.36 862.317 1593.31 864.904 1597.49 867.871 C 1604.09 872.562 1614.02 878.919 1615.47 887.406 C 1612.74 900.019 1563.06 935.461 1551.31 944.798 L 1531.51 960.311 C 1543.29 931.16 1557.99 878.152 1584.43 860.743 z"/>
<path transform="translate(0,0)" fill="rgb(56,164,160)" d="M 1664.71 812.568 C 1675.86 816.912 1694.09 821.644 1702.81 829.899 C 1703.83 830.859 1705.47 832.501 1705.25 833.96 C 1704.01 842.283 1660.75 877.907 1652.29 885.836 C 1644.37 893.008 1636.55 899.909 1627.96 906.291 C 1629.06 875.054 1641.47 834.596 1664.71 812.568 z"/>
<path transform="translate(0,0)" fill="rgb(56,164,160)" d="M 1745.84 762.037 C 1747.44 762.267 1749.09 762.532 1750.64 763.001 C 1757.73 765.147 1799.11 781.721 1801.47 786.13 C 1795.21 793.848 1757.61 814.184 1746.72 821.194 C 1735.61 828.509 1725 836.022 1714.88 844.672 C 1716.4 825.166 1720.04 806.085 1727.3 787.878 C 1731.19 778.134 1735.63 766.446 1745.84 762.037 z"/>
<path transform="translate(0,0)" fill="rgb(20,31,47)" d="M 1670.08 451.757 L 1671.83 453.032 L 1672.27 455.969 C 1671.12 458.565 1669.72 459.789 1667.43 461.338 C 1646.88 475.226 1622.27 487.777 1600.51 499.995 C 1573.62 515.094 1547.15 530.884 1520.38 546.192 C 1504.06 555.52 1480.45 566.65 1466.78 578.711 C 1466.75 597.036 1466.45 615.414 1467.18 633.726 C 1484.58 627.143 1511.89 608.06 1528.73 597.815 C 1555.02 581.819 1581.88 566.807 1608.11 550.723 C 1618.99 544.047 1635.78 531.484 1647.51 527.522 C 1649.51 526.848 1649.53 526.805 1651.5 527.758 C 1652.05 530.305 1651.66 530.198 1650.59 532.423 C 1635.31 543.246 1476.58 637.788 1469.7 638.608 C 1467.79 638.837 1465.25 638.667 1463.85 637.138 C 1458.27 631.039 1460.27 583.971 1460.54 573.795 C 1482.1 557.713 1513.61 542.282 1537.46 528.621 L 1670.08 451.757 z"/>
<path transform="translate(0,0)" fill="rgb(20,31,47)" d="M 1821.87 542.8 L 1824.42 545.318 C 1824.65 546.697 1825.22 547.654 1824.35 548.897 C 1819.78 555.442 1598.67 676.911 1570.72 692.933 C 1540.97 709.988 1511.96 728.82 1481.79 745.075 C 1477.41 747.435 1472.9 749.168 1468.13 750.569 C 1465.57 749.327 1464.11 748.382 1462.64 745.885 C 1459.69 740.881 1459.71 691.324 1461.68 684.24 C 1462.37 681.754 1463.41 679.608 1465.47 677.958 C 1480.8 665.697 1510.2 651.15 1528.42 640.482 L 1670.62 557.64 C 1675.16 554.572 1677.74 553.139 1683.29 553.016 L 1683.83 556.346 C 1670.69 568.075 1651.27 576.157 1635.94 584.955 L 1530.75 646.539 C 1512.15 657.464 1492.26 667.574 1474.55 679.814 C 1471.59 681.862 1469.25 684.143 1466.98 686.93 C 1466.93 698.039 1464.46 736.043 1469.34 743.036 C 1471.71 743.477 1473.55 742.896 1475.61 741.733 C 1484.86 736.512 1493.73 730.267 1502.88 724.805 A 4800.93 4800.93 0 0 1 1586.33 675.921 C 1664.74 631.439 1744.49 589.057 1821.87 542.8 z"/>
<path transform="translate(0,0)" fill="rgb(20,31,47)" d="M 1845.39 319.957 C 1848.78 319.722 1852.71 319.447 1855.59 321.631 C 1858.44 323.804 1858.9 327.069 1859.24 330.359 C 1860.3 340.678 1859.85 351.415 1859.9 361.797 L 1859.99 419.079 C 1860.02 484.712 1859.18 550.491 1860.95 616.101 C 1849.02 625.207 1835.25 632.689 1822.39 640.45 A 4404.8 4404.8 0 0 1 1737.38 689.807 L 1545.98 799.814 C 1528.21 810.007 1510.79 820.976 1493.32 831.687 C 1486.76 835.709 1479.51 841.575 1472.4 844.303 C 1470.81 844.912 1468.78 845.369 1467.08 845.173 C 1465.45 844.984 1464.54 844.352 1463.53 843.145 C 1456.71 834.978 1459.86 787.183 1461.22 775.824 C 1463.33 772.636 1465.49 769.98 1468.54 767.624 C 1477.45 760.73 1488.4 755.8 1498.15 750.176 A 3951.03 3951.03 0 0 1 1560.63 714.297 C 1600.62 691.608 1639.97 666.319 1680.91 645.522 C 1683.5 644.207 1685.65 643.21 1688.55 643.631 L 1689.08 645.649 C 1688.37 648.255 1687.92 649.611 1685.59 651.152 C 1670.6 661.075 1653.04 668.616 1637.39 677.573 L 1519.24 745.347 C 1502.49 754.933 1483.74 763.945 1468.19 775.269 C 1467.85 775.512 1467.52 775.764 1467.19 776.011 C 1466.63 784.846 1465.36 831.762 1468.45 836.943 C 1470.46 837.422 1471.95 837.079 1473.81 836.18 C 1484.3 831.122 1494.95 822.678 1505.04 816.575 L 1577.75 773.434 C 1670.04 719.81 1763.2 667.688 1854.14 611.789 C 1854.08 579.7 1855.7 337.053 1851.25 327.701 C 1845.4 325.095 1836.6 331.676 1831.76 334.716 C 1797.77 356.067 1762.74 375.977 1728.2 396.445 L 1497.84 533.595 C 1491.27 537.591 1484.37 541.49 1478.29 546.205 C 1474.67 549.012 1471.61 552.94 1467.8 555.387 C 1466.14 556.449 1465.39 556.754 1463.48 556.754 C 1462.57 554.827 1462.67 554.811 1463.41 552.89 C 1465.78 546.664 1471.87 541.876 1477.23 538.265 C 1500.72 522.438 1526.4 508.547 1550.82 494.123 L 1687.62 413.425 L 1791.09 351.253 C 1808.88 340.65 1826.77 328.995 1845.39 319.957 z"/>
</svg>