<svg version="1.1" xmlns="http://www.w3.org/2000/svg" style="display: block;" viewBox="0 0 2048 2048" width="1024" height="1024">
<path transform="translate(0,0)" fill="rgb(254,254,254)" d="M 0 0 L 2048 0 L 2048 2048 L 0 2048 L 0 0 z"/>
<path transform="translate(0,0)" fill="rgb(43,43,43)" d="M 374.719 1277.45 C 433.828 1276.02 493.073 1276.65 552.202 1276.71 C 577.04 1276.74 619.457 1274.64 642.788 1278.48 C 650.02 1279.67 658.303 1283.7 663.742 1288.61 C 670.815 1294.99 669.283 1307.29 669.462 1316 C 670.346 1358.91 667.621 1401.79 667.221 1444.69 C 666.41 1531.63 666.594 1618.39 664.34 1705.33 L 662.189 1813.25 C 661.823 1827.25 662.672 1842.69 660.808 1856.52 C 660.216 1860.91 658.439 1864.94 655.267 1868.06 C 651.747 1871.52 642.836 1871.88 637.953 1872.15 C 603.449 1874.04 564.362 1872.16 529.491 1872.1 L 364.554 1873.13 C 312.582 1873.43 260.605 1875.01 208.64 1875.91 C 177.687 1876.45 145.341 1878.37 114.568 1874.84 C 104.349 1873.67 90.5701 1871.05 82.4252 1864.4 C 75.3416 1858.61 74.6165 1848.03 74.5464 1839.57 C 74.3277 1813.16 76.9843 1786.85 79.1848 1760.56 L 88.3269 1653.01 C 97.4294 1543.98 103.654 1432.95 97.8624 1323.61 C 97.6192 1319.02 97.0472 1312.17 100.601 1308.67 C 106.181 1303.18 120.02 1301.52 127.645 1299.84 C 208.337 1282.07 292.419 1280.29 374.719 1277.45 z"/>
<path transform="translate(0,0)" fill="rgb(254,254,254)" d="M 435.173 1298.49 A 6548.38 6548.38 0 0 1 570.051 1298.79 C 593.485 1298.98 625.045 1297.28 647.477 1301.97 C 646.666 1354.53 648.053 1407.09 647.642 1459.63 C 647.393 1491.44 644.783 1523.1 644.206 1554.9 C 642.995 1621.55 643.652 1688.43 643.925 1755.1 C 643.989 1770.6 646.616 1847.06 642.531 1854.46 C 608.388 1857.21 572.487 1854.66 538.195 1854.35 L 310.202 1851.63 A 6791.47 6791.47 0 0 0 213.951 1852.36 C 183.804 1852.94 152.724 1854.59 122.687 1851.77 C 114.526 1851.01 106.307 1849.93 98.9111 1846.19 C 96.7338 1841.33 96.5664 1835.32 96.7254 1830.04 C 97.0578 1819.02 98.4209 1807.94 99.201 1796.93 L 104.137 1724.11 A 7865.38 7865.38 0 0 0 113.034 1523.8 C 114.765 1454.63 112.085 1385.86 109.59 1316.75 C 143.688 1307.88 180.914 1306.94 215.964 1304.8 C 289.195 1300.32 361.835 1299.06 435.173 1298.49 z"/>
<path transform="translate(0,0)" fill="rgb(43,43,43)" d="M 372.981 1346.43 C 426.562 1344.75 474.89 1360.74 516.959 1393.9 A 206.681 206.681 0 0 1 594.259 1531.5 C 600.89 1590.77 580.618 1653 543.341 1699.13 C 503.31 1748.66 447.253 1777.97 384.249 1784.89 C 322.711 1787.84 267.987 1771.37 221.245 1730.48 C 183.672 1697.62 162.335 1653.71 159.182 1603.85 A 253.528 253.528 0 0 1 222.736 1421.34 C 261.344 1377.85 314.611 1349.74 372.981 1346.43 z"/>
<path transform="translate(0,0)" fill="rgb(254,254,254)" d="M 542.938 1565.44 L 545.895 1565.44 C 541.265 1569.96 530.269 1574.18 524.308 1577.06 C 522.967 1575.22 521.807 1573.52 519.978 1572.13 C 519.568 1571.81 519.149 1571.51 518.735 1571.21 L 519.112 1569.87 C 525.813 1566.26 535.466 1566.19 542.938 1565.44 z"/>
<path transform="translate(0,0)" fill="rgb(254,254,254)" d="M 251.476 1548.22 L 251.985 1548.32 L 252.368 1549.53 C 242.623 1555.61 233.538 1559.6 222.236 1561.75 L 221.078 1561.64 L 220.58 1560.19 C 225.792 1553.92 243.513 1550.02 251.476 1548.22 z"/>
<path transform="translate(0,0)" fill="rgb(254,254,254)" d="M 330.484 1565.21 C 332.946 1564.92 334.85 1564.93 337.296 1565.33 C 338.996 1567.05 339.298 1567.38 339.909 1569.69 L 338.657 1571.1 C 333.371 1572.84 327.443 1572.22 321.926 1572.16 L 308.7 1571.69 C 315.869 1568.68 322.913 1566.91 330.484 1565.21 z"/>
<path transform="translate(0,0)" fill="rgb(254,254,254)" d="M 495.998 1592.45 L 496.394 1592.89 C 495.796 1598.83 485.927 1610.94 482.52 1616.36 L 481.43 1614.87 C 482.597 1607.81 483.563 1600.68 485.627 1593.82 C 488.799 1592.28 492.506 1592.6 495.998 1592.45 z"/>
<path transform="translate(0,0)" fill="rgb(254,254,254)" d="M 286.026 1524 L 280.446 1528.89 L 276.956 1533.75 L 275.974 1533.38 C 275.329 1532 274.413 1529.51 272.78 1528.97 C 264.726 1526.29 257.501 1529.84 247.949 1524.38 C 260.394 1523.22 273.504 1523.98 286.026 1524 z"/>
<path transform="translate(0,0)" fill="rgb(254,254,254)" d="M 310.685 1601.88 L 311.45 1603.24 C 311.011 1609.66 305.824 1620.49 301.797 1625.55 C 300.577 1627.08 295.049 1627.09 292.925 1627.33 L 292.544 1626.61 C 297.602 1617.79 304.015 1609.54 310.685 1601.88 z"/>
<path transform="translate(0,0)" fill="rgb(254,254,254)" d="M 502.568 1526.52 A 252.721 252.721 0 0 1 510.56 1526.42 C 509.052 1533.84 497.919 1549.07 492.99 1555.41 C 492.085 1556.41 491.098 1557.17 490.048 1558.01 C 489.739 1553.41 500.54 1533.93 502.568 1526.52 z"/>
<path transform="translate(0,0)" fill="rgb(254,254,254)" d="M 443.067 1569.32 C 452.348 1568.65 461.859 1568.86 471.174 1568.67 C 468.7 1571.52 466.116 1574.28 463.578 1577.07 C 461.722 1578.69 459.755 1580.21 457.846 1581.77 C 454.35 1581.94 453.752 1576.49 451.476 1574 C 449.646 1571.99 445.578 1570.5 443.067 1569.32 z"/>
<path transform="translate(0,0)" fill="rgb(254,254,254)" d="M 382.493 1631.29 C 387.98 1630.38 398.396 1636.61 403.672 1638.97 C 398.54 1639.18 393.387 1639.12 388.25 1639.15 C 381.433 1639.22 372.133 1640.21 366.026 1636.7 L 366.505 1635.19 C 368.893 1634.12 371.139 1633.1 373.747 1632.7 L 382.493 1631.29 z"/>
<path transform="translate(0,0)" fill="rgb(254,254,254)" d="M 194.142 1576.42 L 197.614 1576.59 L 197.951 1577.8 C 193.295 1583.52 185.83 1587.39 179.536 1591.08 L 178.408 1591.62 L 176.946 1590.63 C 175.114 1586.46 174.939 1581.86 174.428 1577.38 C 181.018 1577.23 187.567 1576.86 194.142 1576.42 z"/>
<path transform="translate(0,0)" fill="rgb(254,254,254)" d="M 387.837 1569.02 C 394.346 1569.07 412.755 1566.67 417.282 1570.62 C 415.629 1573.55 412.805 1574.34 409.875 1575.91 C 405.444 1578.19 397.865 1584.25 393.363 1584.64 C 393.988 1582.6 394.466 1580.63 394.854 1578.54 C 393.414 1574.63 390.623 1572 387.837 1569.02 z"/>
<path transform="translate(0,0)" fill="rgb(254,254,254)" d="M 223.569 1525.46 L 233.276 1525.21 C 225.987 1536.1 217.49 1545.82 208.993 1555.77 C 212.029 1549.58 215.315 1543.78 219.012 1537.96 C 220.316 1535.5 221.347 1534.6 220.804 1531.81 C 212.493 1526.09 200.261 1528.52 190.792 1529.73 L 190.865 1528.56 C 197.314 1524.02 215.519 1525.71 223.569 1525.46 z"/>
<path transform="translate(0,0)" fill="rgb(254,254,254)" d="M 505.934 1621.47 L 506.6 1621.86 C 508.357 1626.04 507.933 1631.7 508.117 1636.22 C 500.703 1636.59 493.251 1636.64 485.829 1636.82 L 485.072 1636.73 L 484.536 1635.75 C 491.065 1628.61 495.754 1622.35 505.934 1621.47 z"/>
<path transform="translate(0,0)" fill="rgb(254,254,254)" d="M 270.618 1569.41 C 274.187 1568.88 279.182 1568.58 282.348 1570.48 L 282.061 1571.87 C 276.993 1575.91 270.127 1578.15 263.9 1579.72 C 259.25 1580.48 254.859 1581.8 250.352 1583.13 L 253.876 1571.12 C 259.452 1570.87 265.068 1570.03 270.618 1569.41 z"/>
<path transform="translate(0,0)" fill="rgb(254,254,254)" d="M 375.463 1591.1 L 375.397 1592.67 C 367.671 1605.51 359.347 1616.24 348.047 1626.16 C 347.818 1624.86 347.766 1623.88 348.004 1622.53 C 350.608 1607.75 363.623 1598.22 375.463 1591.1 z"/>
<path transform="translate(0,0)" fill="rgb(254,254,254)" d="M 378.58 1523.6 C 381.122 1523.41 380.019 1523.07 381.942 1524.43 C 381.491 1533.02 366.695 1560.83 361.787 1568.99 L 360.21 1569.31 C 362.071 1555.28 371.245 1544.21 373.524 1530.7 C 374.12 1527.17 368.16 1526.64 366.203 1523.95 C 370.382 1524.13 374.415 1523.9 378.58 1523.6 z"/>
<path transform="translate(0,0)" fill="rgb(254,254,254)" d="M 295.179 1524.41 A 389.262 389.262 0 0 0 312.986 1524.41 C 305.398 1532.27 300.125 1542.37 294.247 1551.54 C 292.733 1554.11 291.341 1557.45 288.514 1558.51 C 285.902 1552.16 294.108 1533.03 295.069 1525.4 C 295.111 1525.07 295.143 1524.74 295.179 1524.41 z"/>
<path transform="translate(0,0)" fill="rgb(254,254,254)" d="M 231.044 1596.96 L 231.796 1598.4 C 228.491 1603.83 211.358 1622.1 206.118 1627.46 C 201.616 1632.05 194.765 1636.78 188.324 1636.97 C 186.981 1635.92 187.68 1636.63 186.507 1634.59 C 189.278 1626.22 222.364 1603.05 231.044 1596.96 z"/>
<path transform="translate(0,0)" fill="rgb(254,254,254)" d="M 565.583 1523.67 C 567.79 1523.98 568.087 1523.74 569.858 1525.25 C 573.047 1534.45 574.106 1546.93 572.592 1556.58 C 570.756 1558.72 567.833 1558.85 565.142 1559.56 L 563.114 1559.45 C 562.899 1559.21 562.65 1558.99 562.469 1558.73 C 559.421 1554.21 557.563 1533.44 559.637 1528.22 C 560.736 1525.46 563.136 1524.87 565.583 1523.67 z"/>
<path transform="translate(0,0)" fill="rgb(254,254,254)" d="M 429.339 1526.1 C 436.46 1526.42 443.547 1526.16 450.667 1525.94 C 447.22 1537.65 442.507 1550.42 435.17 1560.29 L 425.993 1572.43 C 429.489 1560.6 434.565 1546.91 434.036 1534.46 C 433.854 1530.18 432.252 1528.85 429.339 1526.1 z"/>
<path transform="translate(0,0)" fill="rgb(254,254,254)" d="M 434.039 1581.17 C 436.81 1581 440.135 1580.56 442.863 1581.14 C 444.83 1581.56 445.245 1581.71 446.422 1583.37 C 440.61 1590.35 432.506 1598.03 428.742 1606.33 C 424.641 1615.38 426.152 1632.23 420.698 1639.76 L 407.97 1639.78 C 413.686 1625.79 422.036 1606.2 421.013 1590.87 C 420.824 1588.04 418.972 1588.12 418.794 1585.89 C 423.829 1583.96 428.83 1582.53 434.039 1581.17 z"/>
<path transform="translate(0,0)" fill="rgb(254,254,254)" d="M 285.095 1584.26 L 309.175 1583.78 C 294.306 1608.08 285.552 1611.04 276.901 1641.43 A 900.232 900.232 0 0 1 257.937 1642.86 A 2047.51 2047.51 0 0 1 234.841 1642.92 C 238.869 1640.45 260.823 1630.06 264.912 1631.33 C 268.029 1632.29 267.928 1635.43 272.123 1635.56 C 278.036 1629.9 284.588 1593.22 285.095 1584.26 z"/>
<path transform="translate(0,0)" fill="rgb(254,254,254)" d="M 351.844 1648.45 C 353.186 1648.21 354.028 1648.29 355.365 1648.45 C 354.925 1665.62 355.409 1682.64 356.023 1699.8 C 353.418 1700.11 350.507 1700.5 348.054 1701.48 C 343.812 1703.18 340.104 1707.07 338.536 1711.34 C 336.935 1715.71 337.406 1720.47 339.373 1724.62 C 342.975 1732.24 348.614 1734.41 356.062 1736.89 C 355.966 1746.28 356.614 1755.68 357.091 1765.06 C 316.575 1759.04 285.337 1751.41 251.081 1727.5 A 183.067 183.067 0 0 1 191.699 1651.39 C 232.392 1661.67 309.654 1653.63 351.844 1648.45 z"/>
<path transform="translate(0,0)" fill="rgb(254,254,254)" d="M 565.662 1577.45 C 568.153 1577.18 568.043 1576.78 570.299 1578.21 C 570.397 1578.68 570.512 1579.14 570.595 1579.6 C 571.604 1585.26 569.368 1593.34 568.062 1598.91 C 560.897 1629.44 547.734 1656.68 528.815 1681.73 C 504.291 1714.2 466.193 1741.46 427.333 1753.64 C 409.627 1759.19 391.264 1761.93 372.946 1764.57 C 373.236 1754.66 373.147 1744.73 373.191 1734.83 C 378.083 1731.74 381.655 1728.3 384.855 1723.47 C 386.322 1718.7 387.572 1713.6 384.992 1708.96 C 381.557 1702.78 374.469 1701.12 368.161 1699.51 C 369.41 1682.31 368.644 1665.25 366.792 1648.12 A 934.229 934.229 0 0 0 497.976 1649.35 C 510.822 1648.67 524.767 1648.8 537.232 1645.44 C 541.28 1644.35 545.077 1641.93 548.679 1639.83 C 544.763 1639.2 540.96 1638.33 537.106 1637.4 C 539.337 1635.1 542.26 1632.55 543.868 1629.81 C 550.07 1619.24 555.964 1598.53 553.177 1586.32 C 550.292 1585.89 547.151 1592.19 544.195 1593.58 C 541.645 1594.79 540.929 1594.36 538.513 1593.41 L 538.066 1591.84 C 538.987 1590.34 539.929 1588.82 541.036 1587.45 C 547.536 1579.38 556 1578.14 565.662 1577.45 z"/>
<path transform="translate(0,0)" fill="rgb(254,254,254)" d="M 358.022 1367.4 C 362.644 1366.57 367.867 1366.95 372.575 1366.88 C 368.209 1383.81 367.766 1401.1 368.448 1418.49 C 365.277 1420.64 362.111 1422.79 359.506 1425.63 C 356.538 1428.87 354.397 1433.2 354.685 1437.69 C 355.228 1446.14 362.265 1451.36 368.227 1456.3 C 369.429 1475.22 367.937 1494.73 367.268 1513.68 C 340.167 1511.47 312.55 1513.68 285.419 1514.5 C 260.696 1515.24 236.069 1514.88 211.336 1516.17 C 205.684 1516.76 189.525 1519.81 185.13 1518.18 C 185.045 1517.79 184.919 1517.41 184.876 1517.02 C 183.133 1501.18 208.665 1462.38 218.485 1450.01 C 253.361 1406.04 301.61 1373.97 358.022 1367.4 z"/>
<path transform="translate(0,0)" fill="rgb(254,254,254)" d="M 379.56 1366.99 C 423.909 1366.67 463.509 1380.69 498.703 1407.44 C 532.209 1432.9 563.093 1474.39 568.583 1517.2 C 568.718 1518.24 568.908 1518.34 567.845 1519.17 C 565.711 1520.86 564.733 1520.4 562.447 1519.67 C 559.949 1517.05 559.784 1516.62 559.052 1513.06 L 557.432 1512.16 C 542.398 1520.51 406.625 1515.01 379.484 1514.37 C 380.325 1495.82 380.609 1477.11 380.689 1458.55 C 387.77 1454.94 394.303 1450.23 396.988 1442.39 C 398.433 1438.17 398.23 1433.72 396.122 1429.76 C 392.85 1423.62 387.427 1421.11 381.061 1419.18 C 381.178 1401.83 379.861 1384.37 379.56 1366.99 z"/>
<path transform="translate(0,0)" fill="rgb(43,43,43)" d="M 1824.06 1270.46 C 1847.05 1270.18 1951.6 1265.85 1964.7 1278.37 C 1975.03 1288.23 1974.65 1305 1975.14 1318.27 C 1976.64 1359.47 1974.31 1400.59 1972.7 1441.76 L 1966.74 1602 L 1960.65 1770.73 C 1959.71 1798.51 1960.44 1827.29 1957.78 1854.89 C 1957.3 1859.85 1956.38 1863.87 1952.71 1867.43 C 1949.07 1870.96 1939.32 1870.65 1934.36 1870.84 C 1894.95 1872.31 1855.01 1870.84 1815.53 1871.02 A 13083.8 13083.8 0 0 0 1520.34 1874.06 C 1489.05 1875.68 1401.23 1881.35 1377.24 1860.16 C 1371.86 1855.4 1369.43 1849.07 1369.21 1842.02 C 1368.93 1832.87 1370.55 1823.41 1371.49 1814.3 A 909.309 909.309 0 0 0 1375.02 1772.94 C 1379.2 1711.98 1383.52 1650.96 1386.74 1589.95 A 10426.7 10426.7 0 0 0 1395.89 1376.25 C 1396.34 1362.51 1393.81 1323.96 1396.37 1313.71 C 1397.01 1311.12 1398.65 1308.74 1400.51 1306.87 C 1406.37 1300.98 1416.85 1298.39 1424.78 1296.54 C 1472.87 1285.31 1532.55 1283.5 1582.32 1280.57 A 6577.53 6577.53 0 0 1 1824.06 1270.46 z"/>
<path transform="translate(0,0)" fill="rgb(254,254,254)" d="M 1773.51 1294.49 C 1830.43 1291.88 1893.28 1293.32 1950.12 1297.48 C 1952.86 1334.19 1950.45 1372.37 1949.71 1409.2 L 1947.21 1575.26 A 12563.7 12563.7 0 0 1 1943.47 1769.13 C 1942.89 1794.55 1945.24 1826.62 1940.71 1851.12 C 1924.24 1853.92 1906.12 1852.96 1889.44 1852.96 A 3539.73 3539.73 0 0 1 1792.81 1851.63 A 6690.68 6690.68 0 0 0 1570.74 1850 C 1541.98 1850.27 1412.74 1859.15 1394.36 1844.15 C 1393.27 1841.32 1393.14 1838.91 1393.21 1835.88 C 1393.4 1827.92 1395.04 1819.81 1395.58 1811.8 A 1989.62 1989.62 0 0 0 1399.16 1743.03 C 1401.21 1686.69 1403.63 1630.43 1404.8 1574.05 L 1406.94 1447.68 C 1407.08 1431.18 1406.07 1322.24 1408.5 1315.49 C 1438.5 1297.64 1720.68 1295.16 1773.51 1294.49 z"/>
<path transform="translate(0,0)" fill="rgb(43,43,43)" d="M 1656.7 1346.43 A 376.362 376.362 0 0 1 1746.61 1353.04 C 1771.08 1358.07 1798.4 1368.46 1812.77 1390.16 C 1814.01 1410 1812.76 1430.77 1812.91 1450.72 C 1813.24 1493.15 1813.78 1535.5 1813.57 1577.94 C 1813.33 1625.27 1815.72 1673.41 1812.88 1720.63 C 1812.55 1726.05 1812.26 1734.07 1808.66 1738.31 C 1789.94 1760.37 1718.95 1771.61 1690.75 1773.19 L 1689.34 1773.32 C 1649.27 1776.82 1572.37 1777.62 1541.28 1750.57 C 1536.48 1746.4 1534.93 1742.99 1534.53 1736.63 C 1533.35 1717.95 1534.65 1698.51 1534.71 1679.74 L 1535.08 1556 L 1535 1457.41 C 1535.03 1441 1533.67 1423.13 1536 1406.94 C 1537.26 1398.2 1541.28 1390.71 1547.08 1384.14 C 1571.95 1355.97 1621.21 1348.56 1656.7 1346.43 z"/>
<path transform="translate(0,0)" fill="rgb(254,254,254)" d="M 1739.24 1368.23 A 108.837 108.837 0 0 1 1741.29 1368.45 C 1756.26 1370.24 1785.78 1377.89 1795.38 1389.99 L 1794.09 1391.59 C 1791.51 1392.19 1788.62 1391.92 1785.96 1391.93 A 1190.79 1190.79 0 0 1 1729.87 1391.25 C 1732.4 1383.42 1736.03 1375.81 1739.24 1368.23 z"/>
<path transform="translate(0,0)" fill="rgb(254,254,254)" d="M 1629.68 1365.39 C 1634.53 1364.59 1639.93 1365.04 1644.85 1365.03 A 965.127 965.127 0 0 0 1633.43 1388.5 C 1618.04 1388.3 1602.63 1387.59 1587.25 1387 C 1580.46 1386.81 1573.65 1386.89 1566.86 1386.87 C 1585.69 1373.45 1607.06 1368.33 1629.68 1365.39 z"/>
<path transform="translate(0,0)" fill="rgb(254,254,254)" d="M 1665.71 1366.17 L 1715.87 1368.89 C 1714.36 1374.87 1712.96 1383.39 1709.6 1388.54 C 1708.49 1390.23 1708.11 1389.84 1706.25 1390.21 C 1688.86 1390.12 1671.42 1389.32 1654.03 1388.84 C 1657.99 1381.25 1661.01 1373.38 1665.71 1366.17 z"/>
<path transform="translate(0,0)" fill="rgb(254,254,254)" d="M 1725.72 1400.09 A 1771.4 1771.4 0 0 1 1792.06 1401.07 C 1785.22 1406.92 1778.32 1410.54 1770.2 1414.21 C 1751.31 1420.78 1732.91 1423.21 1713.01 1424.28 C 1717.07 1416.14 1721.47 1408.14 1725.72 1400.09 z"/>
<path transform="translate(0,0)" fill="rgb(254,254,254)" d="M 1649.05 1398.36 C 1667.04 1398.78 1686.54 1397.38 1704.31 1400.24 C 1700.79 1408.09 1695.54 1415.3 1690.87 1422.5 L 1690.32 1423.58 C 1686.02 1427.02 1649.32 1426.9 1641.29 1427.05 C 1643.02 1417.15 1645.27 1407.69 1649.05 1398.36 z"/>
<path transform="translate(0,0)" fill="rgb(254,254,254)" d="M 1559.5 1396.11 C 1582.89 1395.18 1606.63 1397.02 1630.01 1397.93 C 1626.37 1405.64 1623.25 1413.53 1621.03 1421.77 C 1620.37 1423.89 1620.43 1423.79 1618.51 1424.91 C 1604.67 1425.83 1586.73 1420.85 1573.95 1415.61 C 1568.35 1413.32 1558.62 1408.93 1557 1402.45 C 1556.29 1399.57 1557.96 1398.23 1559.5 1396.11 z"/>
<path transform="translate(0,0)" fill="rgb(254,254,254)" d="M 1801.05 1413.12 C 1801.83 1419.95 1801.09 1427.68 1801.05 1434.6 C 1787.18 1441.82 1773.06 1448.23 1758.2 1453.18 C 1750.89 1455.61 1737.29 1456.49 1731.55 1460.06 C 1729.69 1461.23 1729.3 1462.77 1728.73 1464.8 C 1725.61 1476.07 1725.6 1499.65 1731.44 1509.51 C 1733.75 1513.41 1737.2 1516.46 1741.75 1517.31 C 1745.13 1517.95 1748.59 1517.36 1751.8 1516.22 C 1757.51 1514.19 1762.62 1510.28 1768.01 1507.51 C 1779.32 1501.7 1790.58 1497.67 1800.95 1490.06 C 1800.64 1495.76 1801.23 1503.36 1799.31 1508.68 C 1793.89 1523.73 1765.34 1532 1751.27 1535.93 C 1746.19 1537.35 1739.2 1538.28 1734.65 1540.88 C 1731.96 1542.41 1730.6 1544.01 1729.76 1546.97 C 1726.6 1558.2 1727.05 1580.29 1732.89 1590.37 C 1734.88 1593.81 1737.28 1596.21 1741.32 1596.96 C 1753.39 1599.23 1790.62 1578.89 1801.04 1572.14 C 1800.17 1579.4 1799.91 1586.72 1799.54 1594.02 C 1787.99 1601.38 1775.69 1608.48 1762.7 1612.97 C 1753 1616.31 1742.71 1618.49 1733.24 1622.4 C 1730.02 1623.73 1727.2 1625.25 1725.93 1628.71 C 1722.62 1637.72 1723.56 1660.91 1727.82 1669.49 C 1729.72 1673.32 1732.82 1677.25 1737.15 1678.37 C 1750.54 1681.83 1787.7 1662.72 1799.53 1655.53 C 1800.01 1662.7 1800.02 1669.87 1800.08 1677.05 C 1786.22 1686.05 1771.28 1694.9 1755.44 1699.91 C 1748.74 1702.03 1734.3 1703.35 1729.98 1709.09 C 1724.91 1715.83 1727.29 1731.54 1729.16 1739.46 C 1729.93 1742.73 1731.58 1747.47 1734.94 1748.94 C 1745.48 1753.54 1783.57 1729.81 1794.37 1724.56 C 1796.08 1723.73 1797.83 1722.32 1799.67 1722.95 C 1799.67 1725.87 1798.7 1728.07 1797.65 1730.72 C 1787.29 1739.58 1743.96 1750.06 1729.11 1753.15 C 1687.44 1761.81 1584.73 1763.32 1549.01 1739.78 C 1571.06 1745.49 1593.04 1751.14 1615.71 1753.78 C 1642.18 1756.87 1669.07 1756.18 1695.68 1756.15 C 1696.84 1745.13 1699.83 1726.25 1694.34 1716.17 C 1680.64 1712.29 1664.59 1715.64 1650.43 1715.57 C 1637.02 1715.5 1623.8 1714.33 1610.5 1712.64 C 1588.71 1708.88 1566.84 1703.33 1547 1693.39 L 1547.1 1663.19 C 1582.11 1678.01 1618.21 1684.06 1656.04 1684.81 C 1665.21 1685 1675.62 1685.65 1684.5 1683.12 C 1688.48 1681.99 1693.28 1679.88 1695.14 1675.92 C 1697.94 1669.94 1698.31 1646.13 1696.15 1639.87 C 1694.5 1635.11 1689.91 1632.98 1685.77 1630.8 C 1631.52 1633.91 1597.73 1631.43 1547.45 1608.38 C 1547.02 1598 1547.17 1587.61 1547.22 1577.23 C 1581.65 1596.55 1618.48 1600.89 1657.29 1600.8 C 1665.8 1600.78 1676.03 1601.58 1684.21 1599.1 C 1688.78 1597.71 1692.55 1594.85 1694.71 1590.55 C 1698.43 1583.16 1698.94 1562.77 1695.92 1555.03 C 1694.2 1550.62 1689.91 1547.38 1685.38 1546.38 C 1674.07 1543.9 1660.83 1546.24 1649.23 1546.11 C 1612.92 1545.71 1580.58 1537 1547.44 1522.59 C 1546.75 1514.82 1547.02 1506.83 1546.93 1499.02 L 1548.6 1499.88 C 1584.18 1517.88 1623.22 1522.74 1662.6 1522.04 C 1670.47 1521.9 1680.96 1522.74 1688.34 1519.98 C 1691.53 1518.79 1694.21 1516.69 1695.56 1513.5 C 1698.59 1506.31 1698.07 1486.64 1695.18 1479.62 C 1693.06 1474.47 1689.73 1472.26 1684.38 1471.21 C 1671.15 1468.63 1654.86 1471.09 1641.18 1470.44 C 1609.43 1468.92 1577.06 1458.51 1547.84 1446.41 L 1547.88 1426.22 C 1573.56 1444.09 1602.52 1448.53 1633.09 1450.44 C 1679.37 1453.32 1765.71 1444.3 1801.05 1413.12 z"/>
<path transform="translate(0,0)" fill="rgb(43,43,43)" d="M 1166.78 1261.47 C 1194.7 1260.51 1222.79 1260.65 1250.73 1260.72 C 1263.89 1260.75 1278.69 1259.51 1291.67 1261.74 C 1296.12 1262.51 1300.29 1264.54 1303.79 1267.36 C 1311.06 1273.22 1314.75 1281.44 1315.43 1290.62 C 1317.17 1313.86 1315.01 1344.09 1314.66 1368.3 A 11013.2 11013.2 0 0 1 1311.13 1539.26 L 1305.51 1730 A 7219.54 7219.54 0 0 1 1303.6 1822.36 C 1303.29 1834.79 1303.56 1847.49 1302.66 1859.88 C 1302.41 1863.3 1301.47 1866.31 1299.11 1868.87 C 1295.28 1873.02 1287.83 1872.6 1282.42 1872.81 C 1245.85 1874.21 1208.61 1872.22 1171.95 1872.38 A 14445 14445 0 0 0 864.5 1874.69 C 832.123 1875.18 749.221 1881.16 723.862 1864.03 C 719.282 1860.93 715.602 1856.72 714.596 1851.15 C 710.324 1827.53 717.821 1795.25 720.203 1770.97 L 728.446 1678.58 A 3741.63 3741.63 0 0 0 741.13 1415.44 A 2520.38 2520.38 0 0 0 740.95 1346.18 C 740.695 1332.81 739.241 1318.71 740.297 1305.44 C 740.684 1300.58 741.579 1293.46 744.917 1289.59 C 761.24 1270.68 1114.75 1262.46 1166.78 1261.47 z"/>
<path transform="translate(0,0)" fill="rgb(254,254,254)" d="M 1197.95 1283.48 A 4406.46 4406.46 0 0 1 1251.16 1283.44 C 1260.87 1283.48 1271.08 1282.88 1280.7 1284.06 C 1284.95 1284.57 1289.48 1285.17 1292.24 1288.66 C 1296.78 1317.59 1293.2 1354.61 1292.76 1384.7 L 1289.23 1583.89 L 1287.61 1764.1 C 1287.19 1793.77 1288.32 1824.64 1284.78 1854.09 C 1198.4 1854.29 1112.1 1850.59 1025.74 1849.43 C 962.532 1848.59 899.429 1850.02 836.237 1851.04 C 816.974 1851.46 753.143 1855.43 739.437 1845.72 C 736.919 1828.02 740.94 1807.06 742.383 1789.21 A 6317.2 6317.2 0 0 0 746.704 1724.53 A 6142.17 6142.17 0 0 0 756.396 1501.7 A 3839.24 3839.24 0 0 0 756.84 1381.58 C 756.614 1363.9 751.973 1314.38 755.93 1300.84 C 764.227 1296.59 784.738 1296.54 794.74 1295.62 C 928.601 1283.25 1063.64 1285.06 1197.95 1283.48 z"/>
<path transform="translate(0,0)" fill="rgb(43,43,43)" d="M 1019.66 1318.44 C 1073.48 1316.04 1129.83 1338.83 1170.07 1374.28 A 239.337 239.337 0 0 1 1250.01 1538.65 C 1253.58 1600.59 1230.34 1661.67 1189.16 1707.79 C 1160.68 1739.68 1116.44 1765.24 1075.3 1775.97 C 1058.99 1780.22 1042.81 1782.04 1026.05 1782.97 C 964.85 1783.74 910.508 1768.88 863.98 1727.5 C 820.433 1688.78 794.968 1632.29 791.984 1574.37 A 249.131 249.131 0 0 1 858.096 1394.53 A 231.224 231.224 0 0 1 1019.66 1318.44 z"/>
<path transform="translate(0,0)" fill="rgb(254,254,254)" d="M 1084.7 1351.75 C 1118.08 1360.48 1146.21 1382.26 1170.76 1405.52 C 1166.65 1409.13 1162.41 1411.98 1157.8 1414.89 A 205.732 205.732 0 0 1 1129.58 1428.87 C 1118.75 1397.17 1107.62 1376.16 1084.7 1351.75 z"/>
<path transform="translate(0,0)" fill="rgb(254,254,254)" d="M 959.749 1350.19 C 960.061 1353.97 949.516 1363.44 946.915 1367.03 C 933.909 1384.97 926.324 1405.23 919.078 1425.94 C 907.042 1423.21 895.346 1418.64 883.755 1414.45 L 868.627 1409.2 C 892.851 1381.34 924.659 1361.42 959.749 1350.19 z"/>
<path transform="translate(0,0)" fill="rgb(254,254,254)" d="M 1125.92 1669.5 C 1135.63 1674.3 1154.38 1701.14 1161.96 1710.76 C 1141.4 1728.54 1117.28 1741.23 1092.25 1751.44 C 1082.66 1755.06 1072.94 1757.79 1062.99 1760.15 C 1093.83 1734.16 1110.55 1706.02 1125.92 1669.5 z"/>
<path transform="translate(0,0)" fill="rgb(254,254,254)" d="M 915.861 1673.94 C 920.571 1679.24 923.77 1689.92 926.966 1696.48 C 940.018 1723.28 958.363 1746.37 983.509 1762.63 C 971.825 1761.09 960.546 1758.78 949.266 1755.34 C 923.226 1747.33 896.285 1734.36 876.549 1715.29 C 888.452 1700.18 901.613 1686.82 915.861 1673.94 z"/>
<path transform="translate(0,0)" fill="rgb(254,254,254)" d="M 1075.31 1566.52 C 1092.64 1566.13 1110 1566.14 1127.33 1565.99 C 1126.71 1588.38 1122.66 1610.63 1118.26 1632.53 C 1110.51 1627.58 1102.82 1622.82 1094.64 1618.59 C 1074.23 1609.46 1053.29 1602.65 1030.94 1600.62 L 1031.15 1566.81 C 1045.81 1566.15 1060.63 1566.54 1075.31 1566.52 z"/>
<path transform="translate(0,0)" fill="rgb(254,254,254)" d="M 916.053 1567.29 C 949.179 1566.51 982.453 1567.02 1015.6 1566.87 A 1191.71 1191.71 0 0 0 1015 1600.49 C 1005.18 1601.58 995.584 1603.13 985.877 1604.94 C 962.65 1611.79 943.343 1622.36 923.048 1635.23 C 919.596 1612.82 916.042 1590 916.053 1567.29 z"/>
<path transform="translate(0,0)" fill="rgb(254,254,254)" d="M 1010.08 1341.3 C 1011.38 1341.13 1012.63 1341.25 1013.93 1341.31 C 1015.55 1344.72 1013.96 1436.12 1013.96 1446.24 C 993.357 1444.59 972.852 1439.91 952.771 1435.25 L 934.045 1430.77 C 939.157 1411.74 947.619 1390.67 958.928 1374.55 C 972.018 1355.91 987.733 1345.35 1010.08 1341.3 z"/>
<path transform="translate(0,0)" fill="rgb(254,254,254)" d="M 1025.9 1341.09 C 1036.61 1342 1045.73 1343.71 1055.19 1348.94 C 1087.1 1366.57 1103.52 1401.59 1113.39 1435 L 1103.24 1438.32 C 1078.93 1445.18 1054.15 1446.02 1029.09 1446.48 L 1025.9 1341.09 z"/>
<path transform="translate(0,0)" fill="rgb(254,254,254)" d="M 1030.96 1624.78 C 1061.4 1627.45 1086.65 1637.65 1111.11 1655.76 C 1101.21 1682.35 1094.89 1697.03 1076.8 1719.41 C 1062.97 1735.25 1048.9 1745.56 1028.65 1751.65 A 4288.02 4288.02 0 0 0 1030.96 1624.78 z"/>
<path transform="translate(0,0)" fill="rgb(254,254,254)" d="M 1013.91 1625.42 C 1015.64 1627.21 1015.15 1738.56 1015.18 1751.54 C 995.872 1745.5 980.149 1735.88 966.237 1721.16 C 950.263 1703.14 941.007 1682.23 931.888 1660.24 C 957.106 1639.04 981.078 1628.95 1013.91 1625.42 z"/>
<path transform="translate(0,0)" fill="rgb(254,254,254)" d="M 1117.49 1459.09 L 1118.71 1459.67 C 1126.05 1478.35 1126.85 1523.38 1127.31 1543.68 A 7402.66 7402.66 0 0 1 1043.35 1544.01 C 1039.57 1544.11 1036.38 1544.31 1032.78 1543 C 1031.2 1535.09 1031.98 1526.22 1031.83 1518.12 L 1030.81 1470.76 C 1060.93 1471.06 1088.78 1468.97 1117.49 1459.09 z"/>
<path transform="translate(0,0)" fill="rgb(254,254,254)" d="M 928.408 1450.32 C 956.677 1459.21 984.514 1466.47 1014.08 1469.42 A 7196.06 7196.06 0 0 0 1014.04 1544.16 L 1004.25 1544.19 L 916.094 1544.07 C 915.988 1513.39 920.434 1479.95 928.408 1450.32 z"/>
<path transform="translate(0,0)" fill="rgb(254,254,254)" d="M 1184.84 1425.84 C 1185.04 1425.97 1185.27 1426.07 1185.46 1426.22 C 1189.68 1429.69 1193.19 1435.17 1196.33 1439.6 C 1217.14 1468.93 1228.13 1507.35 1230.21 1542.95 L 1181.54 1543.64 L 1144.1 1543.88 C 1143.24 1513.49 1141.37 1484.03 1134.05 1454.4 C 1152.06 1447.95 1169.76 1437.54 1184.84 1425.84 z"/>
<path transform="translate(0,0)" fill="rgb(254,254,254)" d="M 1143.5 1566.01 L 1229.75 1565.79 C 1227.97 1602.69 1215.75 1636.07 1195.82 1666.96 C 1190.42 1674.84 1184.97 1682.58 1179.04 1690.08 C 1164.51 1673.22 1149.47 1657.66 1133.46 1642.2 C 1140.18 1617.42 1142.37 1591.57 1143.5 1566.01 z"/>
<path transform="translate(0,0)" fill="rgb(254,254,254)" d="M 858.756 1420.55 C 877.075 1429.01 894.476 1438.01 913.572 1444.79 C 904.72 1477.56 900.106 1510.29 898.883 1544.16 L 864.5 1544.24 A 1889.04 1889.04 0 0 0 809.972 1544.85 C 810.905 1532.28 812.054 1519.7 814.937 1507.4 C 821.899 1477.68 838.514 1443.52 858.756 1420.55 z"/>
<path transform="translate(0,0)" fill="rgb(254,254,254)" d="M 826.313 1567.53 C 850.781 1566.73 875.422 1567.18 899.912 1567.05 C 900.404 1594.18 904.116 1619.12 909.862 1645.58 C 896.655 1656.61 885.248 1669.32 874.21 1682.45 C 869.445 1688.55 865.334 1694.75 861.357 1701.38 C 826.408 1662.22 812.211 1619.7 809.153 1568.08 L 826.313 1567.53 z"/>
<path transform="translate(0,0)" fill="rgb(43,43,43)" d="M 1052.48 137.533 C 1083.3 136.606 1114.29 136.87 1145.12 137.049 C 1162.23 137.148 1198.1 135.874 1212.87 140.207 C 1221.36 142.697 1230.59 148.097 1236.69 154.506 C 1242.64 160.77 1245.69 171.1 1247.01 179.53 C 1250.32 200.742 1248.24 224.55 1248.2 246.047 A 6792.59 6792.59 0 0 1 1247.46 369.534 C 1262.89 365.878 1278.76 363.335 1294.49 361.427 C 1352.94 354.339 1476.43 351.41 1523.57 389.031 C 1530.84 394.838 1535.92 402.032 1537.87 411.23 C 1541.07 426.292 1538.87 445.918 1539.43 461.778 C 1541.51 521.143 1539.59 585.581 1545.86 644.213 C 1559.76 647.806 1573.33 652.788 1585.12 661.127 C 1597.49 669.878 1607.75 681.986 1610.02 697.453 C 1611.87 710.114 1607.22 722.957 1599.52 732.916 C 1569.68 771.532 1495.72 791.508 1448.45 797.54 C 1403.51 803.275 1352.74 801.945 1315.29 773.039 A 387.264 387.264 0 0 1 1239.96 791.435 C 1250.54 803.739 1263.27 814.492 1275.35 825.276 L 1334.41 877.106 C 1362.57 901.881 1389.42 928.85 1416.7 954.655 C 1464.84 1000.2 1510.77 1049.35 1554.37 1099.25 C 1568.61 1115.56 1581.63 1132.93 1595.98 1149.13 C 1607.67 1142.87 1616.49 1131.04 1628.88 1126.21 C 1631.97 1125.01 1635.07 1124.52 1638.13 1126.13 C 1640.95 1127.62 1641.84 1131.53 1642.44 1134.4 C 1644.59 1144.76 1648.4 1214.24 1647.67 1225.26 C 1647.49 1227.89 1646.82 1231.46 1645.12 1233.59 C 1643.41 1235.72 1642.12 1236.29 1639.49 1236.7 C 1626.09 1233.19 1559.24 1207.47 1551.77 1200.18 C 1550.23 1198.67 1548.41 1196.8 1548.9 1194.45 C 1550.98 1184.4 1578.02 1167.21 1587.18 1160.29 A 2688.22 2688.22 0 0 0 1470.12 1028.87 C 1426 983.416 1379.66 940.394 1334.18 896.332 C 1298.38 861.641 1259.24 831.089 1226.23 793.428 C 1220.34 794.434 1214.35 794.875 1208.39 795.241 C 1150.5 798.796 1091.42 784.919 1047.27 746.06 L 1003.65 746.072 C 1006.58 870.376 1008.07 994.918 1012.65 1119.16 C 1028.48 1119.36 1044.92 1115.64 1060.57 1116.98 C 1064.84 1117.35 1066.38 1118.76 1069.02 1122.02 C 1069.45 1123.76 1069.63 1125.55 1069.51 1127.35 C 1069.29 1130.61 1067.78 1133.63 1066.03 1136.33 C 1059.47 1146.43 1051.22 1155.79 1044.08 1165.52 C 1035.45 1177.27 1017.21 1207.26 1007.32 1214.97 C 1004.7 1217.01 1002.58 1217.04 999.427 1216.64 C 991.201 1211.3 978.771 1183.95 971.8 1174.31 C 961.659 1160.29 941.817 1142.9 934.541 1129.35 C 934.587 1127.63 934.23 1126.79 935.427 1125.4 C 941.471 1118.37 987.158 1120.89 998.741 1120.11 C 997.167 995.396 992.202 870.731 990.817 746.011 C 950.609 745.675 910.264 746.554 870.045 746.819 C 859.286 754.328 850.388 765.582 841.191 774.913 C 812.42 804.102 784.959 834.457 756.435 863.84 L 606.552 1019.13 C 560.541 1066.16 513.479 1112.37 469.528 1161.33 C 480.048 1169.53 496.041 1176.92 503.61 1187.89 C 503.716 1190.55 502.781 1191.5 500.992 1193.34 C 493.533 1201.01 427.258 1234.46 416.608 1235.03 C 414.918 1234.05 413.958 1233.35 412.84 1231.68 C 405.633 1220.97 410.037 1145.99 413.72 1131.96 C 414.7 1128.23 415.992 1125.06 419.432 1123.05 C 426.766 1123.7 449.931 1146.95 456.754 1152.99 C 476.817 1133.32 495.994 1112.57 515.42 1092.27 L 604.269 999.526 A 22544.2 22544.2 0 0 1 851.286 746.354 A 138.22 138.22 0 0 1 848.834 746.459 A 4448.05 4448.05 0 0 1 725.516 748.59 C 702.357 748.882 670.947 751.497 649.024 747.252 C 637.953 745.108 628.114 739.727 619.97 732.018 C 613.715 726.097 608.976 718.955 606.251 710.765 C 600.074 692.198 602.092 660.19 601.648 640.034 A 16533.7 16533.7 0 0 1 600.094 356.019 A 4456.43 4456.43 0 0 1 600.516 245.034 C 600.829 227.459 600.139 208.859 602.672 191.47 C 603.655 184.722 606.4 178.251 611.296 173.409 C 616.86 167.905 624.823 165.399 632.302 163.696 C 645.763 160.629 659.903 160.174 673.638 159.049 A 3681.9 3681.9 0 0 0 721.236 154.733 A 4146.35 4146.35 0 0 1 1052.48 137.533 z"/>
<path transform="translate(0,0)" fill="rgb(254,254,254)" d="M 1511 633.012 C 1514.13 635.103 1517.34 648.347 1518.72 652.404 C 1511.45 657.801 1503.39 662.1 1495.39 666.289 L 1493.93 666.68 L 1492.47 665.799 C 1489.66 658.29 1489.28 650.103 1488.76 642.171 C 1495.71 638.332 1503.58 635.825 1511 633.012 z"/>
<path transform="translate(0,0)" fill="rgb(254,254,254)" d="M 425.93 1141.62 A 559.271 559.271 0 0 0 484.037 1187.87 L 463.168 1198.92 A 511.784 511.784 0 0 1 423.175 1217.48 C 421.33 1192.09 423.999 1166.94 425.93 1141.62 z"/>
<path transform="translate(0,0)" fill="rgb(254,254,254)" d="M 1627.68 1142.67 C 1627.89 1142.85 1628.13 1143.01 1628.3 1143.23 C 1632.53 1148.82 1633.3 1207.51 1633.73 1219.74 C 1619.98 1213.82 1606.27 1207.77 1592.24 1202.54 C 1584.27 1199.88 1576.35 1197.24 1568.6 1193.95 C 1587.6 1176.1 1608.83 1160.79 1627.68 1142.67 z"/>
<path transform="translate(0,0)" fill="rgb(254,254,254)" d="M 1041.64 1132.47 C 1043.39 1132.25 1044.66 1132.31 1046.39 1132.66 L 1046.85 1134.13 C 1041.5 1147.92 1029.04 1161.1 1020.29 1173.09 C 1014.35 1181.23 1008.86 1189.67 1003.36 1198.11 C 998.29 1191.1 993.803 1183.6 989.151 1176.31 C 980.071 1162.13 970.207 1149.01 959.586 1135.98 C 986.881 1134.37 1014.31 1133.6 1041.64 1132.47 z"/>
<path transform="translate(0,0)" fill="rgb(254,254,254)" d="M 1547.32 668.223 C 1552.8 669.134 1558.28 671.698 1563.07 674.499 C 1572.79 680.187 1583.42 689.34 1586.04 700.702 C 1587.44 706.783 1586.1 712.734 1582.82 717.973 C 1566.87 743.472 1513.3 759.267 1485.42 766.425 C 1422.25 782.643 1373.01 784.106 1315.44 749.993 C 1302.23 752.442 1289.21 757.402 1276.13 760.692 C 1229.91 772.325 1184.62 775.87 1137.5 766.573 C 1117.16 762.206 1099.07 754.508 1080.71 744.94 L 1156.67 743.575 C 1172.56 743.285 1189.17 743.983 1204.88 741.468 C 1222.04 738.721 1232.38 730.463 1242.38 716.83 A 95.32 95.32 0 0 0 1247.24 718.882 C 1266.09 726.288 1289.91 728.028 1309.99 729.809 C 1380.48 736.058 1455.89 735.366 1521.57 705.582 C 1531.23 701.204 1546.34 693.126 1546.4 681.02 C 1546.42 677.111 1545.11 673.614 1546.64 669.821 C 1546.86 669.284 1547.09 668.755 1547.32 668.223 z"/>
<path transform="translate(0,0)" fill="rgb(254,254,254)" d="M 1522.56 433.76 C 1522.77 433.936 1523.01 434.076 1523.19 434.287 C 1524.02 435.301 1524.11 436.566 1524.15 437.81 L 1528.31 584.677 C 1529.02 605.842 1530.68 626.973 1531.03 648.149 C 1529.49 642.197 1528.49 635.579 1525.6 630.125 C 1523.63 626.399 1520.99 623.58 1516.79 622.473 C 1506.65 619.803 1489.63 625.97 1480.91 631.353 C 1478.09 633.098 1476.02 635.102 1475.38 638.517 C 1473.92 646.393 1477.51 666.536 1481.8 672.906 C 1483.95 676.101 1487.18 678.394 1491.04 678.939 C 1503.98 680.767 1521.93 667.825 1531.53 660.191 C 1532.37 667.391 1532.99 674.46 1533.14 681.709 C 1484.72 709.787 1402.38 718.778 1346.5 716.375 C 1313.72 715.279 1280.82 711.998 1249.09 703.412 C 1254.98 682.897 1253.58 664.266 1253.25 643.253 A 2636.91 2636.91 0 0 0 1251.86 585.168 C 1250.65 545.106 1249.26 504.639 1250.2 464.572 C 1257.69 466.629 1265.48 468.032 1273.15 469.121 C 1335.28 477.932 1472.19 471.701 1522.56 433.76 z"/>
<path transform="translate(0,0)" fill="rgb(43,43,43)" d="M 1401.08 645.351 C 1406.54 644.837 1413.89 643.371 1419 645.718 C 1423.49 647.779 1426.17 651.218 1427.62 655.886 C 1429.96 663.402 1430.71 681.443 1426.22 688.22 C 1422.91 693.22 1411.66 693.374 1406.24 694.591 C 1401.68 695.615 1395.79 697.343 1391.18 696.126 C 1387.89 695.257 1384.97 692.479 1383.47 689.492 C 1378.89 680.376 1378.92 660.759 1382.3 651.295 C 1387.34 646.468 1394.48 646.286 1401.08 645.351 z"/>
<path transform="translate(0,0)" fill="rgb(254,254,254)" d="M 1411.42 658.488 L 1413.95 658.394 C 1417.41 663.251 1416.03 674.496 1416.01 680.566 L 1397.83 683.636 L 1395.99 683.825 C 1392.15 679.004 1392.89 666.039 1392.54 659.654 C 1398.82 659.122 1405.14 658.868 1411.42 658.488 z"/>
<path transform="translate(0,0)" fill="rgb(43,43,43)" d="M 1501.89 549.19 C 1504.93 548.971 1508.37 548.79 1511.25 549.934 C 1516.78 552.122 1520.74 558.539 1522.76 563.826 C 1525.41 570.759 1526.63 579.422 1523.26 586.33 C 1518.48 596.118 1505.05 599.049 1495.55 602.575 C 1491.49 603.468 1487.91 604.669 1483.94 602.669 C 1479.2 600.274 1476.21 594.613 1474.71 589.739 C 1472.26 581.73 1470.64 569.338 1474.86 561.791 C 1479.25 553.93 1493.74 551.605 1501.89 549.19 z"/>
<path transform="translate(0,0)" fill="rgb(254,254,254)" d="M 1502.4 561.948 L 1505.36 562.133 C 1509.05 566.083 1511.29 575.446 1513.37 580.73 C 1508.22 585.037 1502.9 587.744 1496.67 590.013 C 1495.79 590.251 1494.33 590.675 1493.46 590.771 C 1491.94 590.939 1490.66 591.021 1489.56 589.892 C 1485.34 585.594 1485.91 574.307 1485.5 568.329 C 1490.99 565.866 1496.75 563.98 1502.4 561.948 z"/>
<path transform="translate(0,0)" fill="rgb(43,43,43)" d="M 1408.39 567.228 C 1411.96 566.965 1416.41 567.4 1419.4 569.58 C 1424.53 573.318 1426.39 580.61 1427.18 586.572 C 1428.17 594.059 1429.29 606.878 1423.63 612.696 C 1417.32 619.197 1402.92 619.545 1394.24 620.642 C 1391.55 620.894 1387.96 621.556 1385.36 620.706 C 1381.36 619.397 1379.09 613.856 1377.96 610.222 C 1375.41 601.977 1373.26 584.396 1377.97 576.876 C 1381.98 570.474 1401.23 568.638 1408.39 567.228 z"/>
<path transform="translate(0,0)" fill="rgb(254,254,254)" d="M 1404.8 581.398 C 1405.32 581.32 1405.84 581.194 1406.38 581.164 C 1407.69 581.089 1409.76 580.843 1410.7 581.902 C 1414.5 586.189 1413.5 598.442 1413.83 604.107 C 1407.67 605.559 1401.42 606.734 1395.22 608.026 C 1393.32 608.498 1393.17 608.504 1391.17 607.915 C 1387.67 601.38 1387.73 592.117 1386.97 584.83 C 1392.84 582.973 1398.72 582.213 1404.8 581.398 z"/>
<path transform="translate(0,0)" fill="rgb(43,43,43)" d="M 1500.87 473.151 C 1503.24 473.021 1506.11 472.665 1508.31 473.723 C 1514.57 476.734 1519.36 486.07 1521.12 492.403 C 1523 499.173 1523.21 506.832 1519.57 513.074 C 1513.54 523.382 1500.29 525.684 1489.73 528.459 C 1486.87 528.804 1483.35 529.135 1480.63 527.962 C 1475.25 525.644 1471.72 518.398 1470.09 513.142 C 1467.76 505.598 1465.22 493.522 1469.43 486.431 C 1473.8 479.065 1492.95 475.462 1500.87 473.151 z"/>
<path transform="translate(0,0)" fill="rgb(254,254,254)" d="M 1501.26 486.01 C 1501.66 486.144 1502.05 486.307 1502.39 486.549 C 1506.62 489.55 1508.41 500.05 1509.82 504.908 C 1503.27 510.35 1496.07 513.484 1488.34 516.855 C 1487.33 517.024 1486.4 516.738 1485.41 516.564 C 1481.66 510.714 1481.54 500.07 1480.67 493.209 C 1487.43 490.575 1494.38 488.354 1501.26 486.01 z"/>
<path transform="translate(0,0)" fill="rgb(43,43,43)" d="M 1410.35 489.309 C 1412.94 489.007 1416.39 489.733 1418.47 491.374 C 1422.58 494.617 1423.8 501.529 1424.44 506.433 C 1425.3 513.098 1427.18 530.422 1421.94 535.194 C 1414.95 541.541 1396.45 541.547 1387.24 542.481 C 1384.46 543.12 1382.16 542.764 1379.74 541.186 C 1375.77 538.599 1374.2 532.613 1373.43 528.276 C 1372.27 521.738 1370.55 503.377 1375.42 498.539 C 1382 491.987 1401.26 490.814 1410.35 489.309 z"/>
<path transform="translate(0,0)" fill="rgb(254,254,254)" d="M 1409.18 502.371 L 1409.76 502.765 C 1412.73 507.453 1411.96 520.517 1412.33 526.364 C 1404.31 528.255 1396.33 529.652 1388.14 530.448 C 1384.46 524.925 1385.06 514.186 1384.77 507.643 C 1392.58 504.8 1400.96 503.387 1409.18 502.371 z"/>
<path transform="translate(0,0)" fill="rgb(43,43,43)" d="M 1270.43 650.116 C 1281.72 649.527 1294.04 652.216 1305.39 652.988 C 1315.35 653.668 1326.1 652.26 1335.88 654.188 C 1341.22 661.865 1339.82 678.615 1339.09 687.712 C 1338.63 693.548 1336.62 696.306 1332.32 700.112 C 1317.26 704.549 1281.68 699.717 1266.74 693.951 C 1265.74 684.458 1264.68 674.407 1264.91 664.871 C 1265.08 658.41 1265.63 654.609 1270.43 650.116 z"/>
<path transform="translate(0,0)" fill="rgb(43,43,43)" d="M 1269.9 569.018 C 1277.61 568.67 1333.48 574.447 1337.51 577.723 C 1339.36 581.414 1339.83 584.274 1339.74 588.42 C 1339.47 600.689 1340.93 614.214 1331.43 623.349 C 1331.06 623.438 1330.71 623.545 1330.34 623.614 C 1320.36 625.502 1273.47 621.483 1266.32 615.069 C 1260.32 609.683 1261.46 590.616 1262.3 582.956 C 1263.01 576.463 1264.92 573.146 1269.9 569.018 z"/>
<path transform="translate(0,0)" fill="rgb(43,43,43)" d="M 1266.13 491.243 C 1280.22 490.494 1315.44 493.082 1329.5 495.277 C 1332.97 495.819 1335.93 496.426 1337.97 499.517 C 1341.58 504.991 1341.15 528.227 1339.4 534.767 C 1338.25 539.038 1335.94 540.987 1332.22 543.087 C 1331.42 543.22 1330.62 543.349 1329.82 543.445 C 1319.78 544.651 1270.47 541.364 1263.63 534.374 C 1257.42 528.026 1258.61 513.808 1259.16 505.546 C 1259.57 499.328 1261.47 495.318 1266.13 491.243 z"/>
<path transform="translate(0,0)" fill="rgb(254,254,254)" d="M 1018.06 160.501 A 6263.7 6263.7 0 0 1 1140.41 160.796 C 1160.18 160.907 1183.95 159.003 1203.18 162.387 C 1208.27 163.283 1215.11 166.003 1218.74 169.797 C 1221.66 172.849 1222.34 184.675 1222.58 189.022 C 1223.43 204.515 1223.19 220.211 1223.49 235.733 L 1225.21 354.561 A 11766.5 11766.5 0 0 0 1232.82 660.523 C 1233.32 676.902 1230.9 699.652 1218.56 711.859 C 1212.33 718.026 1204.3 719.276 1195.93 720.307 C 1181.28 722.113 1166.18 721.751 1151.44 721.841 A 6034.08 6034.08 0 0 0 1091.05 722.33 C 1002.8 723.471 914.481 722.59 826.25 724.579 L 720.047 726.112 C 699.267 726.529 672.906 729.471 652.741 725.521 A 35.9015 35.9015 0 0 1 635.06 716.243 A 35.9789 35.9789 0 0 1 624.378 695.564 C 621.728 678.717 622.627 660.438 622.284 643.388 A 4744.66 4744.66 0 0 1 620.455 551.915 L 615.275 231.266 C 614.987 216.617 614.157 195.812 625.428 184.792 C 631.033 179.312 641.903 177.577 649.444 176.409 C 684.044 171.047 725.43 170.878 760.975 169.007 A 5680.56 5680.56 0 0 1 1018.06 160.501 z"/>
<path transform="translate(0,0)" fill="rgb(43,43,43)" d="M 926.283 215.467 A 7631.59 7631.59 0 0 1 1089.07 215.09 C 1113.81 215.152 1141.34 212.969 1165.76 215.912 C 1174.19 216.928 1183.04 218.399 1189.51 224.243 C 1199.41 233.18 1202.93 244.778 1203.37 257.714 C 1204.23 282.957 1203.21 308.596 1203.12 333.876 A 10504.3 10504.3 0 0 1 1201.8 487.534 A 4577.92 4577.92 0 0 0 1201.06 544.877 C 1200.91 560.47 1201.44 576.941 1198.8 592.323 C 1196.95 603.081 1192.01 613.65 1184.41 621.518 C 1176.57 629.642 1165.89 633 1155.02 634.928 C 1131.13 639.163 1104.37 636.808 1080.04 636.822 L 950.5 637.019 L 798.28 637.501 C 771.59 637.589 740.406 640.017 714.476 635.941 C 704.855 634.429 695.42 630.988 688.036 624.456 C 677.821 615.42 674.199 602.446 673.628 589.267 C 672.778 569.688 673.841 549.831 673.758 530.208 A 3369.95 3369.95 0 0 1 675.234 372.43 C 676.124 337.248 674.155 297.261 679.85 262.794 C 681.75 251.301 685.057 239.626 693.393 231.022 C 700.155 224.041 711.071 220.212 720.518 218.668 C 744.509 214.746 778.326 218.524 803.727 218.42 C 844.573 218.253 885.43 216.125 926.283 215.467 z"/>
<path transform="translate(0,0)" fill="rgb(254,254,254)" d="M 732.882 565.888 L 733.656 566.693 C 731.42 573.189 723.946 580.885 719.757 586.523 L 708.213 588.091 C 707.02 586.974 707.272 586.662 707.042 585.108 C 711.416 577.464 725.562 571.147 732.882 565.888 z"/>
<path transform="translate(0,0)" fill="rgb(254,254,254)" d="M 825.055 338.919 C 835.316 346.665 839.793 358.073 847.469 367.9 C 838.256 376.573 832.699 374.268 825.056 379.918 C 821.733 382.375 818.762 385.958 815.907 388.956 C 815.349 389.497 814.43 390.423 813.823 390.853 C 810.331 393.33 801.872 385.973 797.118 384.733 C 796.729 384.631 796.338 384.543 795.948 384.448 C 804.756 368.819 815.522 354.149 825.055 338.919 z"/>
<path transform="translate(0,0)" fill="rgb(254,254,254)" d="M 971.778 401.633 C 972.581 402.217 973.303 402.901 974.017 403.59 C 979.127 408.519 996.568 430.467 996.709 436.85 C 990.921 437.568 978.26 442.755 973.668 446.311 C 970.923 448.437 969.366 449.617 965.769 449.462 C 955.811 448.564 947.377 451.252 937.68 450.655 C 949.29 434.476 960.274 417.883 971.778 401.633 z"/>
<path transform="translate(0,0)" fill="rgb(254,254,254)" d="M 851.153 377.79 C 851.997 378.052 851.94 377.963 852.769 378.646 C 859.867 384.486 908.154 462.598 908.669 470.818 C 907.251 472.836 907.608 473.234 905.061 473.755 C 903.27 472.136 901.466 470.703 899.529 469.273 C 890.491 469.312 886.48 479.886 880.779 485.382 C 879.998 484.916 879.329 484.159 878.436 483.986 C 874.516 483.225 846.32 506.843 838.55 505.652 C 837.288 503.509 836.455 502.268 836.335 499.715 C 839.538 493.315 848.834 491.004 854.554 487.354 C 856.617 486.038 857.794 484.452 858.139 481.961 C 858.458 479.666 857.826 476.598 856.336 474.773 C 854.673 472.736 853.363 472.912 850.98 472.773 C 847.912 474.703 847.93 477.485 847.036 480.905 C 842.979 483.869 838.057 481.559 834.367 483.952 C 831.259 485.967 829.934 488.821 828.945 492.244 C 829.287 493.901 829.774 495.073 830.636 496.51 C 831.903 498.62 831.724 497.45 831.2 499.869 C 825.857 501.638 820.746 498.346 815.16 499.339 C 807.263 500.743 803.205 507.253 798.853 513.248 L 796.301 516.758 C 792.723 517.831 790.758 516.489 787.276 515.316 L 772.392 519.032 C 770.885 512.648 770.872 497.532 768.187 492.809 C 767.469 491.548 764.24 491.007 762.813 490.536 C 764.116 487.683 765.333 485.268 765.517 482.074 C 760.82 473.593 743.96 491.245 736.06 488.721 C 735.182 486.715 734.955 486.116 735.452 483.867 C 737.817 473.168 759.207 464.748 767.736 459.638 C 770.976 457.697 772.872 456.306 773.824 452.593 C 772.908 450.023 772.778 449.056 770.733 447.317 C 766.628 447.552 762.683 452.827 758.731 454.599 C 756.333 453.818 755.698 453.347 754.67 450.792 C 754.626 450.683 753.943 448.079 754.031 447.718 C 755.125 443.233 783.791 402.493 789.061 393.152 C 792.467 394.162 795.986 394.837 799.456 395.597 C 800.996 397.683 802.804 400.64 805.015 402.048 C 817.058 409.714 826.231 387.491 839.661 384.007 C 844.475 382.758 847.276 380.758 851.153 377.79 z"/>
<path transform="translate(0,0)" fill="rgb(43,43,43)" d="M 859.519 409.96 C 862.378 410.19 866.33 410.729 868.712 412.434 C 871.337 414.312 872.742 416.151 873.15 419.344 L 871.605 421.035 C 868.181 422.003 865.105 420.506 861.86 419.441 C 857.466 422.792 853.578 425.411 848.477 427.648 C 845.312 426.987 842.545 425.73 839.471 424.839 C 835.082 423.566 834.435 423.716 830.548 425.747 C 828.698 426.936 826.789 428.298 824.814 429.26 C 822.604 430.337 821.383 430.488 819.061 429.831 L 818.195 427.903 C 818.585 426.515 818.582 426.323 819.312 424.852 C 822.366 418.693 827.428 416.617 833.487 414.401 C 838.667 415.479 843.81 416.997 848.934 418.332 C 852.5 415.532 855.785 412.569 859.519 409.96 z"/>
<path transform="translate(0,0)" fill="rgb(254,254,254)" d="M 1000.06 441.563 C 1003.93 443.811 1018.35 468.396 1021.75 473.392 C 1031.31 487.417 1040.99 501.309 1050.26 515.533 C 1058.73 528.52 1066.78 542.081 1076.3 554.328 C 1083.52 563.62 1091.92 571.851 1099.82 580.548 C 1090.51 581.263 1076.89 579.357 1069.42 585.536 C 1066.05 588.318 1062.45 592.38 1058.37 594.003 C 1044.98 599.329 1039.1 586.558 1028.43 582.155 C 1022.38 579.662 1017.35 580.917 1011.6 583.368 C 1007.99 584.908 1005.1 586.286 1003.57 590.023 L 1004.79 591.624 C 1011.45 594.444 1016.52 592.123 1023.07 590.176 C 1032.02 594.769 1040.18 602.201 1050.63 603.075 C 1062.43 604.061 1071.8 595.29 1080.31 588.346 C 1084.73 588.659 1091.5 589.946 1095.51 588.125 C 1097.7 587.129 1099.81 586.113 1102.06 585.215 C 1108.35 587.266 1122 605.195 1126.97 610.795 C 1076.75 609.03 1026.36 610.032 976.115 610.301 C 926.573 610.306 877.002 611.471 827.468 610.332 A 1928.16 1928.16 0 0 1 852.408 578.953 C 854.412 579.528 856.422 580.061 858.436 580.599 C 868.918 583.399 878.915 580.267 889.258 578.491 C 894.313 577.622 895.321 578.029 899.265 580.887 C 905.318 582.084 915.083 572.653 921.023 570.085 C 921.401 569.922 921.784 569.769 922.164 569.611 C 925.146 570.472 929.245 572.1 932.381 571.876 C 934.912 571.694 935.676 571.032 937.192 569.275 L 936.856 566.768 C 934.231 563.469 931.617 561.685 927.427 560.802 C 920.059 559.25 914.393 562.634 908.571 566.754 C 907.415 567.572 906.338 568.523 905.014 569.08 C 900.536 570.964 862.379 572.229 857.359 570.137 C 858.391 564.39 924.721 469.019 933.279 459.297 C 945.548 462.358 960.183 461.966 972.411 458.523 L 983.365 455.493 C 988.244 449.865 996.379 447.45 1000.06 441.563 z"/>
<path transform="translate(0,0)" fill="rgb(43,43,43)" d="M 997.541 473.351 C 999.402 471.826 1001.34 470.301 1003.36 468.995 C 1006.2 467.162 1008.64 466.395 1011.99 467.153 C 1014.08 468.563 1014.97 469.228 1015.88 471.602 C 1013.79 476.063 1009.18 474.487 1005.36 476.206 C 1005 476.369 1004.66 476.583 1004.31 476.772 C 1001.47 479.633 999.63 481.51 995.558 482.078 C 992.072 480.847 989.761 477.625 987.35 474.937 C 985.317 475.703 983.15 476.661 981.036 477.14 C 978.641 477.683 977.336 477.535 975.255 476.326 L 975.132 474.127 C 977.212 470.527 980.144 468.973 983.601 466.807 C 989.176 466.832 993.176 470.331 997.541 473.351 z"/>
<path transform="translate(0,0)" fill="rgb(254,254,254)" d="M 731.407 234.399 C 754.153 232.624 777.828 234.279 800.661 234.623 L 917.693 235.713 L 1070.3 235.715 C 1099.68 235.889 1129.7 235.45 1158.97 238.111 C 1164.34 238.6 1169.69 239.73 1173.84 243.424 C 1179.87 248.79 1180.63 257.964 1180.99 265.555 C 1181.9 284.579 1180.86 304.063 1180.77 323.133 L 1180.18 441.185 L 1179.89 528.092 C 1179.82 545.355 1180.55 563.174 1178.67 580.334 C 1177.83 587.997 1175.94 597.475 1170.43 603.142 C 1163.26 610.517 1153.65 610.857 1144.02 611.122 C 1126.07 592.526 1106.21 574.175 1090.03 554.064 C 1068 526.669 1049.82 495.019 1030.63 465.536 C 1020.41 451.135 990.703 401.755 978.835 393.145 C 976.233 391.258 973.736 390.465 970.503 391.144 C 959.832 393.386 925.074 448.513 917.146 459.742 C 902.999 437.645 849.638 341.575 830.996 331.968 C 828.029 330.439 823.647 330.445 820.541 331.661 C 807.123 336.913 707.561 499.745 695.121 525.833 C 695.1 467.727 693.216 409.614 692.821 351.503 C 692.648 326.113 690.734 299.152 693.561 273.968 C 694.627 264.466 696.694 252.123 703.112 244.736 C 710.423 236.322 721.042 235.388 731.407 234.399 z"/>
<path transform="translate(0,0)" fill="rgb(43,43,43)" d="M 1052.26 341.311 A 2158.9 2158.9 0 0 0 1111.79 341.923 C 1122.34 341.825 1133.99 340.227 1144.44 341.395 C 1148.09 341.803 1151.62 343.718 1153.57 346.918 C 1154.9 349.105 1155.27 351.749 1154.47 354.196 C 1153.27 357.823 1150.45 359.734 1147.16 361.225 C 1129.17 361.51 1062.9 364.723 1050.72 361.196 C 1047.9 360.38 1046.12 358.504 1044.79 355.949 C 1043.62 353.696 1043.29 351.242 1044.26 348.825 C 1045.77 345.064 1048.77 342.99 1052.26 341.311 z"/>
<path transform="translate(0,0)" fill="rgb(43,43,43)" d="M 965.446 299.217 C 993.951 298.354 1022.83 299.538 1051.38 299.415 C 1079.3 299.295 1107.91 297.715 1135.72 299.168 C 1140.62 299.424 1146.48 299.635 1149.66 303.981 C 1151.32 306.254 1151.74 309.092 1151.39 311.821 C 1150.85 315.971 1149.06 317.641 1145.85 319.95 C 1119.45 321.389 1092.46 319.972 1066 320.067 C 1035.23 320.178 1003.92 321.843 973.185 320.108 C 968.418 319.839 963.085 319.115 960.079 314.894 C 958.57 312.775 958.167 310.056 958.713 307.54 C 959.596 303.466 962.229 301.436 965.446 299.217 z"/>
<path transform="translate(0,0)" fill="rgb(43,43,43)" d="M 894.157 255.152 A 68.3812 68.3812 0 0 1 902.444 255.132 C 913.151 255.737 923.78 260.258 930.739 268.564 C 938.479 277.802 940.743 289.866 939.489 301.608 C 936.968 325.23 919.775 362.546 901.231 377.663 C 898.751 378.796 896.684 380.123 893.889 379.434 C 879.362 368.678 863.408 334.645 858.578 317.315 C 854.865 303.995 854.199 288.761 861.535 276.514 C 868.797 264.388 880.862 258.212 894.157 255.152 z"/>
<path transform="translate(0,0)" fill="rgb(254,254,254)" d="M 886.122 277.125 C 893.227 276.697 899.72 276.121 906.491 278.887 C 913.998 281.953 919.931 287.684 923.059 295.196 C 925.178 300.283 925.745 305.922 923.482 311.067 C 920.313 318.274 914.113 321.452 907.254 324.359 C 901.379 326.447 896.147 326.512 890.258 324.239 C 882.482 321.238 875.585 314.549 872.575 306.75 C 870.335 300.949 870.231 294.262 872.785 288.545 C 875.638 282.158 879.836 279.604 886.122 277.125 z"/>
</svg>