<svg version="1.1" xmlns="http://www.w3.org/2000/svg" style="display: block;" viewBox="0 0 2048 2048" width="1024" height="1024">
<defs>
	<linearGradient id="Gradient1" gradientUnits="userSpaceOnUse" x1="585.393" y1="1674.67" x2="566.554" y2="1679.11">
		<stop class="stop0" offset="0" stop-opacity="1" stop-color="rgb(29,19,11)"/>
		<stop class="stop1" offset="1" stop-opacity="1" stop-color="rgb(55,27,18)"/>
	</linearGradient>
</defs>
<path transform="translate(0,0)" fill="rgb(250,248,239)" d="M 0 0 L 2048 0 L 2048 2048 L 0 2048 L 0 0 z"/>
<path transform="translate(0,0)" fill="rgb(250,248,239)" d="M 1213.06 155.622 C 1201.67 137.107 1184.33 114.985 1165.58 103.476 C 1160.65 100.446 1142.1 94.3048 1140.21 91.1586 C 1139.45 89.8931 1139.72 88.8983 1140.1 87.6573 C 1140.99 84.7783 1142.71 83.0345 1145.37 81.7193 C 1155.3 76.8051 1176.51 77.2495 1187.87 76.3598 C 1262.83 70.492 1349.79 67.9689 1421.01 95.0406 C 1444.32 103.903 1464 115.477 1482.29 132.429 C 1479.21 126.852 1461.81 101.304 1462.51 96.964 C 1464.92 94.7049 1466.97 94.028 1470.31 94.1728 C 1485.05 94.8122 1547.05 127.823 1559.97 137.037 C 1572.13 145.707 1582.87 156.233 1593.83 166.33 C 1606.02 169.201 1627.5 174.575 1637.56 181.397 C 1640.89 182.801 1644.04 184.014 1646.9 186.261 C 1661.43 188.867 1676.64 198.468 1689.71 205.212 C 1752.8 237.756 1804.07 275.496 1845.04 334.423 C 1912.72 431.772 1933.82 558.253 1939.34 674.21 C 1941.13 711.894 1941.05 749.488 1942.09 787.184 C 1942.18 790.46 1941.77 792.52 1945.47 793.103 C 1947.21 793.378 1949.03 792.917 1950.78 793.236 C 1966.18 793.095 1991.42 797.003 2002.78 807.768 C 2003.73 810.219 2003.56 810.122 2002.57 812.589 C 1993.8 820.413 1953.51 824.067 1939.39 828.175 C 1938.55 850.97 1937.49 873.902 1935.84 896.653 C 1938.22 898.511 1940.62 900.38 1941.39 903.48 C 1941.94 905.727 1941.38 908.101 1939.89 909.868 C 1939.29 910.577 1938.05 911.279 1937.25 911.775 C 1935.24 914.766 1933.07 964.427 1931.59 973.454 C 1935.74 981.651 1943.02 992.657 1943.09 1001.92 C 1941.97 1004.3 1942.04 1004.3 1939.64 1005.37 C 1937.08 1005.27 1935.46 1005.02 1933.12 1003.94 C 1929.63 1011.19 1929.73 1023.27 1928.83 1031.28 C 1925.4 1061.68 1922.83 1101.49 1906.78 1128.06 C 1915.3 1158.03 1918.53 1190.57 1924.64 1221.22 C 1927.54 1235.71 1932.52 1249.31 1936.02 1263.55 C 1938.37 1273.06 1938.76 1282.65 1942.06 1291.97 C 1954.18 1301.82 1966.43 1312.53 1976.69 1324.33 C 1973.55 1351.73 1967.36 1378.75 1963.1 1406 C 1958.97 1432.37 1956.69 1459.05 1952.65 1485.35 C 1952.12 1488.82 1951.32 1491.7 1949.51 1494.7 C 1947.26 1496.04 1947.24 1495.72 1944.65 1495.11 C 1938.11 1489.55 1903.29 1411.6 1896.2 1397.36 C 1887.37 1379.35 1878.02 1361.61 1868.15 1344.15 C 1872.47 1330.12 1880.5 1318.32 1885.85 1304.86 C 1881.62 1287.75 1878.34 1270.43 1876.02 1252.97 C 1873.88 1253.73 1872.99 1254.82 1871.65 1256.59 C 1860.3 1271.62 1851.1 1294.84 1840.39 1311.88 C 1807.27 1364.62 1770.14 1404.68 1723.22 1445.16 L 1841.79 1705.77 L 1873.85 1774.58 C 1880.29 1788.28 1889.7 1803.86 1893.02 1818.58 C 1888.21 1826.54 1846.44 1834.74 1835.83 1837.36 C 1718.08 1867.6 1600.5 1898.5 1483.1 1930.07 C 1472.82 1932.79 1392.55 1955.27 1389.31 1955.15 C 1388.66 1955.13 1388.07 1954.78 1387.45 1954.6 C 1377.09 1939.75 1370.19 1920.04 1362.52 1903.52 C 1351.34 1879.46 1339.37 1855.7 1328.85 1831.35 C 1328.51 1831.43 1328.17 1831.5 1327.83 1831.58 C 1311.31 1835.56 1295.17 1843.13 1279.01 1848.48 C 1249.27 1858.33 1218.86 1866.89 1188.56 1874.87 C 1073.97 1905.05 947.864 1919.29 829.558 1910.62 C 787.17 1907.51 746.124 1900.52 704.162 1894.56 C 687.278 1915.37 672.291 1936.72 661.318 1961.32 C 656.955 1971.1 653.795 1988.13 647.835 1996.16 C 646.398 1998.1 645.581 1998.62 643.154 1998.88 C 634.568 1999.83 617.729 1989.3 610.022 1985.53 C 543.432 1953 480.085 1914.72 417.628 1874.93 C 374.006 1847.14 331.525 1818.1 286.309 1792.86 C 255.946 1775.92 224.163 1760.34 190.813 1750.22 C 182.837 1747.8 174.677 1745.23 166.499 1743.61 C 160.272 1742.37 153.792 1742.07 147.693 1740.28 C 146.305 1739.87 145.335 1739.29 144.237 1738.36 C 143.091 1735.75 142.47 1734.4 142.72 1731.47 C 145.625 1727.02 189.785 1707 198.005 1702.64 C 213.722 1694.16 229.171 1685.2 244.329 1675.75 C 217.253 1634.41 193.583 1590.93 173.554 1545.75 C 106.91 1396.68 72.4426 1220.87 97.6599 1058.45 C 102.594 1026.66 109.089 994.392 120.731 964.303 C 153.942 878.47 241.086 833.22 319.429 796.272 C 379.269 768.051 441.38 744.988 500.977 716.253 C 545.044 695.006 586.719 669.928 624.317 638.514 C 657.061 611.157 685.396 577.164 708.645 541.492 C 723.122 519.279 736.125 496.139 750.697 473.96 C 802.687 394.834 863.196 324.644 940.2 268.901 C 1000.69 225.488 1068.27 192.935 1139.92 172.7 C 1151.42 169.405 1163.03 166.499 1174.73 163.985 C 1186.15 161.614 1202.01 160.798 1212.32 155.988 C 1212.57 155.872 1212.81 155.744 1213.06 155.622 z"/>
<path transform="translate(0,0)" fill="rgb(42,28,23)" d="M 1213.06 155.622 C 1201.67 137.107 1184.33 114.985 1165.58 103.476 C 1160.65 100.446 1142.1 94.3048 1140.21 91.1586 C 1139.45 89.8931 1139.72 88.8983 1140.1 87.6573 C 1140.99 84.7783 1142.71 83.0345 1145.37 81.7193 C 1155.3 76.8051 1176.51 77.2495 1187.87 76.3598 C 1262.83 70.492 1349.79 67.9689 1421.01 95.0406 C 1444.32 103.903 1464 115.477 1482.29 132.429 C 1479.21 126.852 1461.81 101.304 1462.51 96.964 C 1464.92 94.7049 1466.97 94.028 1470.31 94.1728 C 1485.05 94.8122 1547.05 127.823 1559.97 137.037 C 1572.13 145.707 1582.87 156.233 1593.83 166.33 C 1606.02 169.201 1627.5 174.575 1637.56 181.397 C 1640.89 182.801 1644.04 184.014 1646.9 186.261 C 1661.43 188.867 1676.64 198.468 1689.71 205.212 C 1752.8 237.756 1804.07 275.496 1845.04 334.423 C 1912.72 431.772 1933.82 558.253 1939.34 674.21 C 1941.13 711.894 1941.05 749.488 1942.09 787.184 C 1942.18 790.46 1941.77 792.52 1945.47 793.103 C 1947.21 793.378 1949.03 792.917 1950.78 793.236 C 1966.18 793.095 1991.42 797.003 2002.78 807.768 C 2003.73 810.219 2003.56 810.122 2002.57 812.589 C 1993.8 820.413 1953.51 824.067 1939.39 828.175 C 1938.55 850.97 1937.49 873.902 1935.84 896.653 C 1938.22 898.511 1940.62 900.38 1941.39 903.48 C 1941.94 905.727 1941.38 908.101 1939.89 909.868 C 1939.29 910.577 1938.05 911.279 1937.25 911.775 C 1935.24 914.766 1933.07 964.427 1931.59 973.454 C 1935.74 981.651 1943.02 992.657 1943.09 1001.92 C 1941.97 1004.3 1942.04 1004.3 1939.64 1005.37 C 1937.08 1005.27 1935.46 1005.02 1933.12 1003.94 C 1929.63 1011.19 1929.73 1023.27 1928.83 1031.28 C 1925.4 1061.68 1922.83 1101.49 1906.78 1128.06 C 1915.3 1158.03 1918.53 1190.57 1924.64 1221.22 C 1927.54 1235.71 1932.52 1249.31 1936.02 1263.55 C 1938.37 1273.06 1938.76 1282.65 1942.06 1291.97 C 1954.18 1301.82 1966.43 1312.53 1976.69 1324.33 C 1973.55 1351.73 1967.36 1378.75 1963.1 1406 C 1958.97 1432.37 1956.69 1459.05 1952.65 1485.35 C 1952.12 1488.82 1951.32 1491.7 1949.51 1494.7 C 1947.26 1496.04 1947.24 1495.72 1944.65 1495.11 C 1938.11 1489.55 1903.29 1411.6 1896.2 1397.36 C 1887.37 1379.35 1878.02 1361.61 1868.15 1344.15 C 1872.47 1330.12 1880.5 1318.32 1885.85 1304.86 C 1881.62 1287.75 1878.34 1270.43 1876.02 1252.97 L 1878.52 1251.12 C 1880.52 1245.1 1871.48 1215.74 1869.71 1207.76 C 1853.24 1142.38 1841.2 1075.88 1821.44 1011.3 C 1817.26 1007.57 1813.04 1003.73 1808.46 1000.5 C 1803.43 996.943 1790.78 992.265 1788 987.493 C 1786.65 985.177 1787.13 983.797 1787.6 981.362 C 1788.62 980.179 1788.99 979.256 1790.59 978.874 C 1798.06 977.089 1810.01 986.682 1816.22 990.688 L 1812.48 977.72 C 1803.87 974.999 1795.1 972.295 1786.05 971.626 C 1760.97 969.772 1757.6 983.996 1741.49 997.253 C 1739.1 999.218 1737.26 1000.17 1734.18 999.909 C 1733.39 999.156 1732.68 998.552 1732.11 997.581 C 1729.74 993.536 1730.55 987.297 1731.14 982.883 C 1733.14 968.139 1739.26 944.214 1752.25 935.131 C 1767.54 924.435 1783.79 930.674 1800.12 933.152 L 1801.02 932.404 C 1799.95 930.887 1799.98 930.704 1798.18 929.751 C 1790.23 925.538 1779.69 924.707 1771.04 922.14 C 1741.73 913.441 1739.56 903.306 1705.94 914.774 C 1703.21 914.2 1703.19 913.861 1701.36 911.687 C 1700.58 908.516 1701.36 906.302 1703.07 903.638 C 1710 892.786 1728.88 877.635 1741.59 875.072 C 1753.84 872.601 1769.02 875.475 1779.5 882.106 C 1780.91 882.995 1780.06 882.803 1781.9 882.519 C 1779.34 879.169 1772.36 876.64 1768.47 874.957 C 1726.95 856.981 1687.24 881.052 1679.78 878.819 L 1678.64 876.591 C 1679.38 867.14 1691.48 854.201 1698.51 848.173 C 1699.01 847.743 1699.52 847.324 1700.01 846.89 C 1705.45 842.145 1712.1 840.597 1718.87 838.454 C 1712.06 837.741 1705.31 837.145 1698.45 837.466 C 1682.2 838.228 1634.44 845.426 1621.51 833.745 C 1619.3 831.751 1619.26 831.075 1618.87 828.283 C 1620.06 826.58 1620.47 825.901 1622.46 825.084 C 1630.42 821.816 1643.09 823.759 1651.74 823.13 C 1659.69 822.552 1667.57 820.773 1675.58 820.161 C 1704 817.993 1725.19 826.545 1750.62 837.873 C 1749.88 837.261 1749.13 836.662 1748.37 836.074 C 1681.74 785.246 1595.8 772.891 1522.06 816.091 C 1516.51 819.346 1498.42 835.916 1493.72 835.795 C 1491.1 835.728 1490.25 835.092 1488.44 833.455 C 1487.87 831.631 1487.71 830.519 1487.98 828.581 C 1490.29 812.396 1514.32 787.258 1527.19 777.616 C 1557.99 754.557 1599.51 741.514 1637.89 742.086 C 1650.84 742.279 1663.65 744.34 1676.44 746.18 C 1659.18 739.089 1639.74 735.474 1621.74 730.471 C 1578.29 718.399 1530.59 701.271 1493.73 674.96 C 1480.78 665.717 1431.56 623.391 1431.08 609.021 C 1430.98 606.091 1431.7 605.388 1433.35 603.13 C 1438.02 601.162 1441.97 604.817 1446.19 607.084 C 1496.08 633.836 1553.55 656.105 1610.04 662.774 C 1634.09 665.613 1659.87 664.322 1683.46 669.711 C 1688.81 670.934 1694.08 672.014 1699.32 673.707 C 1700.14 672.139 1699.79 671.499 1699.63 669.778 C 1696.36 665.588 1691.1 665.836 1686.29 665.032 C 1590.59 649.063 1496.98 623.103 1414.76 570.189 C 1405.78 564.405 1387.03 553.923 1381.35 545.324 C 1379.52 542.57 1379.19 540.668 1379.73 537.461 C 1385.88 531.893 1398.6 539.719 1405.19 542.214 C 1445.09 557.312 1485.19 563.24 1527.72 563.196 C 1539.48 563.183 1551.61 563.471 1563.28 561.902 L 1564.77 561.695 C 1508.02 547.741 1436.89 527.347 1390.68 489.978 C 1383.8 484.389 1377.48 478.141 1371.81 471.324 C 1363.67 461.608 1332.85 418.792 1333.02 407.266 C 1333.06 404.298 1333.39 404.024 1335.45 402.193 C 1338.3 402.145 1340.26 402.755 1342.86 403.892 C 1349.71 406.88 1356.12 411.342 1362.79 414.752 C 1373.15 420.048 1384.55 424.494 1395.5 428.5 C 1421.12 437.871 1447.29 443.899 1474.25 447.746 C 1417.86 428.784 1344.71 404.628 1305.73 357.595 C 1299.4 349.95 1283.25 327.826 1285.65 317.595 C 1286.26 314.972 1287.65 314.531 1289.77 313.307 C 1295.04 313.716 1300.61 317.396 1305.38 319.624 C 1332.53 332.338 1360.7 342.724 1389.61 350.669 C 1371.32 340.44 1351.63 333.009 1333.49 322.3 C 1274.3 287.351 1254.7 232.007 1224 174.955 C 1220.65 168.328 1216.87 161.994 1213.06 155.622 z"/>
<path transform="translate(0,0)" fill="rgb(250,248,239)" d="M 1646.9 186.261 C 1661.43 188.867 1676.64 198.468 1689.71 205.212 C 1752.8 237.756 1804.07 275.496 1845.04 334.423 C 1912.72 431.772 1933.82 558.253 1939.34 674.21 C 1941.13 711.894 1941.05 749.488 1942.09 787.184 C 1942.18 790.46 1941.77 792.52 1945.47 793.103 C 1947.21 793.378 1949.03 792.917 1950.78 793.236 C 1949.3 793.816 1947.15 793.865 1945.53 794.048 C 1930.13 795.782 1917.57 800.849 1903.78 807.55 C 1912.35 792.084 1921.72 776.242 1925.84 758.882 C 1928.16 748.865 1929.73 738.69 1930.54 728.44 C 1931.44 716.581 1932.3 667.864 1925.88 659.703 C 1922.93 655.959 1919.09 656.105 1914.69 655.693 C 1911.67 661.951 1911.03 678.426 1909.04 686.45 C 1899.25 725.857 1878.59 761.722 1849.41 789.956 C 1858.96 773.03 1867.98 755.869 1875.04 737.728 C 1898.85 676.526 1911.15 594.043 1883.69 532.169 C 1880.37 524.706 1875.74 511.731 1867.63 508.614 C 1864.69 508.966 1864.53 508.923 1862.4 510.952 C 1860.45 516.766 1865.94 534.567 1866.58 542.388 C 1870.45 589.334 1853.73 660.106 1822.34 696.32 C 1822.1 696.594 1821.86 696.862 1821.62 697.133 C 1840.2 648.694 1844.4 598.695 1845.71 547.251 C 1847.03 495.241 1840.42 444.535 1821.23 395.989 C 1818.3 388.59 1814.39 376.804 1808.44 371.27 C 1806.35 369.33 1805.23 369.149 1802.46 369.19 C 1800.65 371.038 1800.09 372.333 1799.76 374.942 C 1798.5 385.068 1799.01 396.081 1798.73 406.317 C 1798 432.389 1797.52 458.584 1792.93 484.329 C 1790.25 499.307 1785.81 512.138 1778.66 525.538 C 1783.58 502.534 1786.94 478.74 1786.73 455.171 C 1786.56 435.545 1783.03 416.015 1780.07 396.662 C 1773.64 354.662 1764.78 313.109 1758.48 271.145 C 1755.7 267.274 1753.78 266.526 1749.31 264.938 C 1748.74 264.214 1748.59 263.979 1747.81 263.282 C 1739.06 255.437 1703.64 231.621 1693.41 231.662 C 1687.31 226.696 1681.71 219.342 1675.97 213.72 C 1666.45 204.395 1656.04 195.956 1646.9 186.261 z"/>
<path transform="translate(0,0)" fill="rgb(213,210,202)" d="M 1646.9 186.261 C 1661.43 188.867 1676.64 198.468 1689.71 205.212 C 1752.8 237.756 1804.07 275.496 1845.04 334.423 C 1912.72 431.772 1933.82 558.253 1939.34 674.21 C 1941.13 711.894 1941.05 749.488 1942.09 787.184 C 1942.18 790.46 1941.77 792.52 1945.47 793.103 C 1947.21 793.378 1949.03 792.917 1950.78 793.236 C 1949.3 793.816 1947.15 793.865 1945.53 794.048 C 1930.13 795.782 1917.57 800.849 1903.78 807.55 C 1912.35 792.084 1921.72 776.242 1925.84 758.882 C 1928.16 748.865 1929.73 738.69 1930.54 728.44 C 1931.44 716.581 1932.3 667.864 1925.88 659.703 C 1922.93 655.959 1919.09 656.105 1914.69 655.693 C 1918.5 621.885 1906.67 555.092 1899.06 521.751 C 1886.27 465.688 1868 405.308 1836.38 356.771 C 1823.84 337.526 1808.01 319.52 1792.16 302.946 C 1782.05 292.374 1770.9 278.984 1758.48 271.145 C 1755.7 267.274 1753.78 266.526 1749.31 264.938 C 1748.74 264.214 1748.59 263.979 1747.81 263.282 C 1739.06 255.437 1703.64 231.621 1693.41 231.662 C 1687.31 226.696 1681.71 219.342 1675.97 213.72 C 1666.45 204.395 1656.04 195.956 1646.9 186.261 z"/>
<path transform="translate(0,0)" fill="rgb(213,210,202)" d="M 1908.12 982.539 C 1915.08 987.333 1929.53 996.022 1933.12 1003.94 C 1929.63 1011.19 1929.73 1023.27 1928.83 1031.28 C 1925.4 1061.68 1922.83 1101.49 1906.78 1128.06 C 1903.13 1114.14 1899.57 1100.19 1896.12 1086.22 C 1904.32 1067.07 1905.31 1007.06 1908.12 982.539 z"/>
<path transform="translate(0,0)" fill="rgb(250,248,239)" d="M 1865.12 971.096 C 1882.18 970.703 1893.65 973.27 1908.12 982.539 C 1905.31 1007.06 1904.32 1067.07 1896.12 1086.22 C 1885.44 1048.06 1874.51 1009.59 1865.12 971.096 z"/>
<path transform="translate(0,0)" fill="rgb(250,248,239)" d="M 1693.41 231.662 C 1703.64 231.621 1739.06 255.437 1747.81 263.282 C 1748.59 263.979 1748.74 264.214 1749.31 264.938 C 1747.41 267.607 1747.15 269.22 1747.06 272.498 C 1746.79 281.883 1747.84 291.509 1748.01 300.923 C 1748.43 323.705 1747.87 348.396 1744.08 370.892 C 1738.7 315.837 1728.81 275.606 1693.41 231.662 z"/>
<path transform="translate(0,0)" fill="rgb(213,210,202)" d="M 1913.78 839.2 C 1920.9 833.888 1931.03 831.076 1939.39 828.175 C 1938.55 850.97 1937.49 873.902 1935.84 896.653 C 1927.91 892.923 1919.21 888.995 1910.6 887.283 C 1909.17 886.999 1907.76 886.683 1906.33 886.376 L 1908.14 885.746 C 1911.94 880.012 1913.52 847.461 1913.78 839.2 z"/>
<path transform="translate(0,0)" fill="rgb(213,210,202)" d="M 1905.5 912.499 C 1916.02 910.672 1926.67 910.657 1937.25 911.775 C 1935.24 914.766 1933.07 964.427 1931.59 973.454 C 1924.09 961.833 1914.2 952.884 1903.46 944.326 C 1905.14 934.036 1905.36 922.903 1905.5 912.499 z"/>
<path transform="translate(0,0)" fill="rgb(250,248,239)" d="M 1858.72 899.422 C 1873.48 874.227 1888.4 854.457 1913.78 839.2 C 1913.52 847.461 1911.94 880.012 1908.14 885.746 L 1906.33 886.376 C 1887.84 884.747 1873.99 889.252 1858.72 899.422 z"/>
<path transform="translate(0,0)" fill="rgb(250,248,239)" d="M 1903.46 944.326 C 1882.73 934.942 1867.61 945.276 1857.11 941.426 L 1857.03 939.739 C 1864.96 929.69 1893.38 916.845 1905.5 912.499 C 1905.36 922.903 1905.14 934.036 1903.46 944.326 z"/>
<path transform="translate(0,0)" fill="rgb(250,248,239)" d="M 1615.26 196.239 C 1622 196.858 1628.38 199.083 1635.1 199.675 C 1641.79 233.206 1645.18 268.757 1643.53 302.926 L 1642.68 303.135 C 1641.29 295.07 1641.82 286.436 1640.81 278.239 C 1637.15 248.423 1629.01 222.89 1615.26 196.239 z"/>
<path transform="translate(0,0)" fill="rgb(213,210,202)" d="M 1593.83 166.33 C 1606.02 169.201 1627.5 174.575 1637.56 181.397 C 1635.21 183.604 1633.97 184.604 1633.69 187.936 C 1633.38 191.675 1634.44 196.004 1635.1 199.675 C 1628.38 199.083 1622 196.858 1615.26 196.239 C 1611.57 192.541 1598.94 172.941 1593.83 166.33 z"/>
<path transform="translate(0,0)" fill="rgb(150,143,132)" d="M 1241.07 86.4457 C 1296.07 83.3845 1356.08 86.1293 1408.47 104.112 C 1458.84 121.402 1487.32 145.253 1507.65 195.19 C 1513.21 208.853 1516.91 223.56 1523.53 236.74 L 1524.21 238.07 C 1523.53 194.456 1505.69 149.529 1484.43 112.134 C 1510.57 122.721 1537.93 135.349 1560.3 152.685 C 1614.16 194.419 1625.69 241.182 1630.81 305.601 C 1633.8 343.251 1634.06 381.737 1638.67 419.158 C 1642.57 404.419 1644.33 388.812 1646.71 373.753 C 1656.29 313.02 1658.78 268.395 1649.33 207.161 C 1668.1 224.704 1686.52 238.517 1700.6 260.687 C 1723.07 296.044 1728.86 337.715 1732.81 378.564 C 1734.11 391.962 1736.16 406.148 1734.02 419.514 C 1728.88 451.636 1715.87 481.865 1708.96 513.437 C 1741.01 453.765 1752.55 403.402 1758.41 336.5 C 1762.15 349.891 1763.23 364.764 1765.31 378.562 C 1772.1 423.508 1779.13 458.065 1771.45 504.368 C 1768.8 520.897 1765.18 537.256 1760.61 553.358 C 1757.46 564.416 1753.42 575.537 1751.06 586.776 C 1750.46 589.642 1749.94 592.189 1750.95 595.017 L 1752.2 595.007 C 1761.62 583.601 1764.99 566.859 1771.85 553.861 C 1778.32 541.607 1787.71 531.074 1793.88 518.489 C 1809.25 487.134 1810.05 433.926 1809.82 398.857 C 1818.14 418.497 1824.25 439.002 1828.03 459.993 C 1838.88 519.498 1836.59 613.599 1818.72 671.451 C 1812.05 693.215 1802.01 713.796 1788.95 732.44 C 1778.99 707.8 1769.7 682.912 1759.92 658.204 C 1732.59 586.008 1692.43 514.941 1650.82 450.043 C 1582.8 343.953 1465.64 211.768 1355.94 149.335 C 1347.42 144.482 1326.03 131.009 1317.55 129.516 C 1315.47 129.148 1315.36 129.173 1313.53 130.371 C 1314.86 138.046 1326.13 140.471 1330.28 146.465 L 1327.48 146.476 C 1327.34 149 1328.96 150.524 1330.55 152.435 C 1336.96 160.141 1345.03 167.235 1352.1 174.382 C 1366.59 188.75 1380.76 203.434 1394.6 218.424 C 1466.04 295.744 1535.51 380.034 1589.7 470.575 C 1534.2 455.23 1480.53 438.644 1426.92 417.488 C 1401.14 407.316 1375.25 397.269 1352.1 381.743 C 1333.02 368.945 1316.71 353.155 1304.27 333.808 C 1321.46 339.525 1337.99 347.263 1355.23 352.972 C 1397.77 367.065 1464.56 379.307 1508.54 381.548 C 1488.46 373.06 1467.25 366.909 1446.67 359.752 C 1405.53 345.445 1363.09 327.928 1327.03 303.145 C 1250.35 250.448 1251.95 149.079 1168.7 90.6868 C 1192.78 88.6107 1216.91 87.1965 1241.07 86.4457 z"/>
<path transform="translate(0,0)" fill="rgb(250,248,239)" d="M 1342.32 154.825 C 1352.22 156.434 1381.87 179.63 1391.96 186.89 C 1461.78 237.133 1521.88 298.733 1575.23 366.044 C 1621.69 423.788 1662.83 485.611 1698.16 550.759 C 1762.78 671.761 1808.84 818.794 1846.47 950.429 C 1867.85 1023.65 1886.56 1097.63 1902.56 1172.21 C 1907.11 1193.71 1912.36 1215.38 1915.9 1237.05 L 1914.24 1238.12 C 1905.79 1240.56 1897.57 1241.73 1888.81 1242.18 C 1875.44 1170.43 1857.15 1099.14 1838.74 1028.53 C 1830.32 996.247 1821.27 964.298 1812.13 932.218 C 1804.34 904.868 1796.76 877.505 1787.22 850.697 C 1776.45 820.43 1763.78 790.875 1751.51 761.196 C 1679.63 587.358 1586.85 424.748 1465.51 280.521 C 1427.72 235.604 1387.92 191.97 1342.32 154.825 z"/>
<path transform="translate(0,0)" fill="rgb(150,143,132)" d="M 1354.8 424.874 C 1371.66 432.181 1388.48 440.109 1406.06 445.498 C 1466.77 464.103 1531.49 464.886 1593.49 476.862 C 1600.84 488.216 1640.41 551.309 1640.25 558.401 C 1615.39 563.235 1591 555.678 1566.88 549.736 C 1517.04 537.457 1435.54 512.656 1396.44 478.35 C 1379.49 463.477 1366.39 444.07 1354.8 424.874 z"/>
<path transform="translate(0,0)" fill="rgb(150,143,132)" d="M 1879.01 552.673 C 1899.68 616.511 1881.12 705.05 1850.69 763.94 C 1845.43 774.09 1839.56 783.908 1833.11 793.342 C 1828.55 800.11 1822.41 806.818 1819.26 814.306 C 1820.12 816.519 1820.43 816.83 1822.29 818.331 C 1825.75 818.995 1828.02 818.473 1831.11 816.924 C 1838.91 813 1845.91 806.678 1852.61 801.129 C 1886.81 772.777 1903.96 737.641 1918.7 696.506 C 1918.19 716.467 1917.76 736.142 1913.46 755.742 C 1905.17 788.5 1891.1 811.634 1864.03 832.278 C 1853.13 840.587 1841.73 848.098 1831.32 857.04 C 1824.09 832.113 1815.48 807.14 1806.59 782.76 C 1801.5 768.82 1794.98 754.57 1791.57 740.142 C 1793.05 741.279 1793.74 741.646 1795.62 741.77 C 1798.03 740.061 1800.33 738.2 1802.5 736.198 C 1838.05 703.759 1864.67 654.418 1873.89 607.345 C 1877.43 589.267 1878.22 571.023 1879.01 552.673 z"/>
<path transform="translate(0,0)" fill="rgb(150,143,132)" d="M 1642.51 561.031 C 1650.37 568.732 1685.03 639.167 1691.54 653.555 C 1630.5 643.868 1568.68 628.994 1511.29 605.882 C 1481.88 594.449 1452.71 579.575 1426.3 562.305 C 1483.03 577.808 1538.25 578.348 1596.26 571.306 C 1611.89 569.408 1628.32 568.371 1642.51 561.031 z"/>
<path transform="translate(0,0)" fill="rgb(150,143,132)" d="M 1461.71 630.612 C 1474.52 634.207 1487.3 641.127 1499.78 646.016 C 1525.38 656.047 1552.48 664.801 1579.42 670.36 C 1621.55 679.049 1664.82 675.497 1706.51 686.873 C 1713.53 699.176 1718.76 712.817 1724.24 725.848 C 1731.42 742.879 1738.71 759.76 1746.65 776.451 C 1741.93 774.62 1739.68 769.749 1736.47 766.108 C 1727.14 755.527 1709.44 746.943 1696.69 741.343 C 1674.2 731.465 1650.1 726.109 1626.59 719.283 C 1561.76 700.461 1511.55 677.757 1461.71 630.612 z"/>
<path transform="translate(0,0)" fill="rgb(150,143,132)" d="M 1624.65 753.421 C 1652.76 750.505 1682.23 759.377 1707.51 770.97 C 1723.26 778.194 1748.04 790.375 1757.42 805.663 C 1764.62 817.403 1768.89 833.041 1773.74 846.021 C 1750.64 819.022 1721.27 804.088 1689.26 790.367 C 1685.6 788.844 1681.93 787.424 1678.15 786.244 C 1637.66 773.603 1592.02 774.058 1552.13 788.808 C 1538.95 793.679 1526.63 800.373 1514.21 806.867 C 1542.87 774.029 1581.56 757.046 1624.65 753.421 z"/>
<path transform="translate(0,0)" fill="rgb(150,143,132)" d="M 1942.82 805.271 C 1955.04 803.962 1966.69 805.678 1978.63 808.074 C 1965.16 810.666 1951.39 812.992 1938.18 816.728 C 1898.87 827.85 1872.72 852.504 1852.99 887.581 C 1850.3 892.78 1848.04 898.279 1845.64 903.623 C 1841.21 890.66 1835.83 876 1833.51 862.557 C 1835.84 863.712 1836.23 864.111 1838.84 863.157 C 1854.19 857.546 1886.15 830.309 1903.58 820.463 C 1916.15 813.358 1928.67 808.186 1942.82 805.271 z"/>
<path transform="translate(0,0)" fill="rgb(116,104,100)" d="M 1937.02 1303.58 C 1945.06 1307.18 1953.22 1317.94 1958.74 1324.58 C 1954.94 1327.83 1951 1330.92 1946.93 1333.84 C 1937.8 1340.48 1922.63 1350.61 1911.06 1351.53 C 1907.92 1351.78 1904.37 1350.99 1901.26 1350.5 C 1894.24 1348.3 1887.61 1346.02 1881 1342.76 C 1883.4 1334 1888.69 1326.39 1893.48 1318.78 C 1899.12 1322.53 1904.54 1324.07 1911.38 1323.09 C 1923.14 1321.41 1930.43 1312.53 1937.02 1303.58 z"/>
<path transform="translate(0,0)" fill="rgb(150,143,132)" d="M 1963.84 1334.93 L 1964.63 1335.79 L 1964.31 1339.26 L 1965.37 1340.12 L 1964.11 1340.45 C 1956.69 1375.67 1951.37 1411.06 1946.25 1446.67 L 1942.98 1429.22 C 1939.09 1404.9 1933.77 1380.83 1927.06 1357.13 C 1941.24 1352.67 1952.31 1343.93 1963.84 1334.93 z"/>
<path transform="translate(0,0)" fill="rgb(150,143,132)" d="M 1749.35 883.195 C 1758.06 882.955 1766.12 884.323 1773.88 888.432 C 1786.68 895.211 1791.67 904.726 1795.91 917.874 C 1786.55 916.388 1777.52 913.148 1768.61 910.039 C 1750.58 903.07 1735.93 897.242 1716.39 902.06 C 1725.97 891.92 1735.53 886.039 1749.35 883.195 z"/>
<path transform="translate(0,0)" fill="rgb(150,143,132)" d="M 1769.43 939.312 C 1782.19 939.059 1792.67 941.75 1804.36 946.708 C 1806.14 952.294 1806.99 958.133 1808.02 963.893 C 1794.78 960.638 1782.93 960.368 1769.35 961.351 C 1757.86 965.259 1750.54 971.609 1742.2 980.036 C 1744.31 970.699 1746.23 960.031 1751.2 951.769 C 1755.68 944.322 1761.22 941.407 1769.43 939.312 z"/>
<path transform="translate(0,0)" fill="rgb(116,104,100)" d="M 1889.65 1359.74 C 1898.5 1360.62 1907.32 1361.46 1916.21 1361.9 C 1923.85 1378.72 1930.55 1424.93 1934.15 1445.15 L 1932.56 1444.84 C 1919.64 1415.93 1904.16 1387.89 1889.65 1359.74 z"/>
<path transform="translate(0,0)" fill="rgb(150,143,132)" d="M 1725.94 845.239 C 1737.93 844.099 1764.2 853.074 1774.04 859.619 C 1777.21 861.731 1778.2 864.596 1779.2 868.107 L 1778.55 869.211 C 1773.07 866.162 1767.72 863.315 1761.82 861.148 L 1760.4 860.634 C 1739.32 855.632 1719.53 858.023 1698.34 860.576 C 1705.97 851.247 1714.49 847.741 1725.94 845.239 z"/>
<path transform="translate(0,0)" fill="rgb(150,143,132)" d="M 1888.96 897.14 C 1898.17 896.611 1906.73 897.418 1915.83 898.856 C 1897.49 903.445 1882.75 909.968 1866.45 919.302 C 1863.74 920.867 1861.02 922.456 1858.24 923.897 C 1855.58 925.274 1853.88 925.656 1851.05 924.734 L 1851.02 922.78 C 1858.58 909.51 1874.72 901.084 1888.96 897.14 z"/>
<path transform="translate(0,0)" fill="rgb(150,143,132)" d="M 1876.05 950.295 C 1880.46 949.704 1885.84 949.628 1890.17 950.601 C 1905.05 953.943 1913.5 967.363 1920.91 979.444 C 1917.2 976.244 1913.34 973.272 1909.47 970.277 C 1903.55 966.702 1897.61 963.088 1890.76 961.58 C 1883.47 959.974 1865.55 963.026 1860.69 958.166 C 1860.78 956.747 1860.56 957.044 1861.42 955.872 C 1864.84 951.187 1870.76 951.13 1876.05 950.295 z"/>
<path transform="translate(0,0)" fill="rgb(150,143,132)" d="M 1929.79 1288.08 L 1930.67 1289.15 C 1930.79 1291.28 1930.9 1292.07 1929.77 1293.98 C 1925.77 1300.74 1916.18 1309.71 1908.58 1311.5 C 1904.9 1312.37 1902.93 1311.16 1899.98 1309.28 C 1896.95 1305 1895.26 1301.19 1893.58 1296.27 C 1906.29 1294.01 1917.75 1293.4 1929.79 1288.08 z"/>
<path transform="translate(0,0)" fill="rgb(213,210,202)" d="M 1924.14 1266.02 C 1926.93 1267.98 1927.43 1275.08 1928.03 1278.35 C 1917.38 1283.53 1906.75 1285.15 1895.21 1287.09 L 1893.89 1286.75 C 1891.53 1284.17 1891.28 1280.01 1890.66 1276.65 C 1903.07 1274.64 1913.15 1272.56 1924.14 1266.02 z"/>
<path transform="translate(0,0)" fill="rgb(250,248,239)" d="M 1919.75 1249.5 C 1921.33 1252.14 1922.03 1256.13 1922.93 1259.1 C 1911.42 1262.8 1901.31 1265.45 1889.23 1266.27 C 1888.44 1264.91 1887.55 1263.48 1886.98 1262.01 C 1886 1259.45 1886.12 1258.18 1887.07 1255.69 C 1892.98 1251.23 1911.88 1250.89 1919.75 1249.5 z"/>
<path transform="translate(0,0)" fill="rgb(42,28,23)" d="M 1319.67 1811.86 C 1288.91 1742 1255.2 1673.47 1224.08 1603.76 C 1198.74 1546.98 1175.79 1488.91 1152.7 1431.18 C 1147.09 1417.15 1127.69 1375.13 1126.35 1364.03 C 1127.72 1360.99 1130.5 1359.57 1133.44 1358.25 C 1146.45 1352.41 1162.37 1349.59 1176.15 1345.46 L 1282.03 1314.08 L 1526.96 1240.38 C 1552.21 1232.92 1577.24 1224.46 1602.6 1217.48 C 1607.74 1216.07 1612.45 1214.63 1617.63 1216.46 C 1625 1224.13 1639.75 1262.35 1645.19 1274.21 L 1712.55 1421.48 C 1716.08 1429.36 1719.4 1437.43 1723.22 1445.16 L 1841.79 1705.77 L 1873.85 1774.58 C 1880.29 1788.28 1889.7 1803.86 1893.02 1818.58 C 1888.21 1826.54 1846.44 1834.74 1835.83 1837.36 C 1718.08 1867.6 1600.5 1898.5 1483.1 1930.07 C 1472.82 1932.79 1392.55 1955.27 1389.31 1955.15 C 1388.66 1955.13 1388.07 1954.78 1387.45 1954.6 C 1377.09 1939.75 1370.19 1920.04 1362.52 1903.52 C 1351.34 1879.46 1339.37 1855.7 1328.85 1831.35 C 1326.1 1824.75 1322.76 1818.31 1319.67 1811.86 z"/>
<path transform="translate(0,0)" fill="rgb(250,248,239)" d="M 1607.03 1230.12 L 1608.44 1229.95 C 1611.54 1231.68 1612.91 1235.13 1614.43 1238.28 C 1635.63 1282.33 1655.02 1327.59 1675.16 1372.16 L 1765.39 1570.46 C 1802.07 1651.61 1841.06 1731.76 1877.04 1813.22 L 1531.22 1903.84 C 1490.28 1914.65 1449.1 1924.84 1408.37 1936.4 L 1394.12 1940.22 C 1383.99 1922.15 1375.8 1902.28 1366.98 1883.5 L 1311.81 1763.47 C 1287.3 1709.36 1261.02 1656.02 1237.32 1601.55 C 1203.95 1524.87 1173.65 1447.06 1141.52 1369.89 C 1157.48 1364.11 1174.21 1359.85 1190.5 1355.03 L 1271.71 1330.71 C 1383.4 1296.95 1495.62 1264.79 1607.03 1230.12 z"/>
<path transform="translate(0,0)" fill="rgb(42,28,23)" d="M 1613.06 1340.71 C 1615.69 1340.93 1617.35 1341.38 1619.73 1342.53 C 1621.25 1344.84 1621.77 1345.34 1621.37 1348.22 C 1620.15 1356.92 1601.68 1374.72 1595.2 1381.56 C 1555.67 1423.23 1497.35 1451.02 1440.09 1453.98 C 1410.69 1455.49 1381.54 1454.17 1352.7 1461.4 C 1322.31 1469.01 1295.8 1484.6 1269.46 1500.93 C 1266.25 1500.27 1263.75 1499.52 1261.59 1496.92 C 1261.27 1494.47 1261.17 1493.91 1262.65 1491.73 C 1267.52 1484.63 1281.86 1478.37 1289.37 1474.21 C 1319.65 1457.44 1352.22 1445.05 1387.11 1443.26 C 1407.6 1442.21 1428.19 1442.92 1448.64 1441.03 C 1500.04 1436.28 1551 1408.09 1586.96 1371.74 C 1596.57 1362.02 1604.35 1351.16 1613.06 1340.71 z"/>
<path transform="translate(0,0)" fill="rgb(42,28,23)" d="M 1666.81 1477.78 C 1669.74 1478.09 1671.55 1478.2 1673.92 1480.17 C 1675 1482.73 1675.37 1484.03 1674.54 1486.77 C 1670.58 1499.9 1648.52 1520.4 1638.31 1529.57 C 1595.78 1567.74 1544.89 1591.32 1487.5 1594.18 C 1461.48 1595.47 1435.04 1595.01 1409.58 1601.29 C 1380.04 1608.57 1355.87 1622.95 1330.02 1638.26 C 1328.78 1637.86 1328.2 1637.73 1326.99 1637.01 C 1324.38 1635.44 1323.25 1633.83 1322.63 1631 C 1323.19 1629.57 1323.82 1628.36 1324.89 1627.24 C 1331.45 1620.4 1342.99 1615.12 1351.34 1610.61 C 1407.49 1580.29 1435.7 1585.4 1495 1580.92 C 1550.39 1576.74 1602.95 1548.27 1641.23 1508.68 C 1650.39 1499.22 1657.52 1488.43 1666.12 1478.56 L 1666.81 1477.78 z"/>
<path transform="translate(0,0)" fill="rgb(42,28,23)" d="M 1575.21 1286.93 C 1576.82 1287.53 1579.09 1288.22 1580.42 1289.35 C 1582.04 1290.73 1582.74 1292.7 1582.39 1294.77 C 1580.93 1303.43 1560.91 1315.48 1553.85 1320.8 C 1500.59 1360.88 1453.86 1382.26 1385.84 1383.91 C 1360.65 1384.52 1334.2 1383.59 1309.53 1389.17 C 1280.93 1395.63 1254.78 1410.22 1229.68 1424.9 C 1227.24 1424.45 1224.87 1423.23 1222.94 1421.67 C 1221.64 1420.61 1221.98 1419.92 1221.8 1418.35 C 1224.86 1411.11 1238.26 1405.14 1245 1401.49 C 1262.25 1392.13 1281.51 1382.33 1300.68 1377.8 C 1351.68 1365.73 1403.1 1376.87 1453.81 1360.85 C 1500.52 1346.09 1537.65 1316.95 1575.21 1286.93 z"/>
<path transform="translate(0,0)" fill="rgb(42,28,23)" d="M 1694.17 1548.57 C 1697.25 1549.16 1698.68 1549.47 1701.12 1551.6 C 1701.97 1553.81 1702.46 1554.73 1701.98 1557.13 C 1699.77 1568.05 1681.16 1586.12 1673.35 1594.02 C 1634.9 1632.92 1579.06 1664.52 1524.01 1668.72 C 1494.78 1670.94 1466.06 1669.77 1437.39 1677.21 C 1410.13 1684.28 1385.95 1698.34 1362.49 1713.47 C 1361.47 1713.35 1360.5 1713.3 1359.5 1712.94 C 1357.05 1712.05 1355.71 1710.73 1354.44 1708.54 C 1354.7 1705.97 1354.84 1705.26 1356.58 1703.21 C 1362.75 1695.87 1374.44 1690.87 1382.84 1686.39 C 1411.72 1671 1441.09 1660.51 1473.98 1658.08 C 1489.24 1656.96 1504.58 1657.21 1519.84 1656.06 C 1576.87 1651.76 1632.76 1619.33 1671.42 1577.91 C 1679.83 1568.9 1686.1 1557.94 1694.17 1548.57 z"/>
<path transform="translate(0,0)" fill="rgb(42,28,23)" d="M 1634.49 1410.72 C 1636.84 1410.84 1638.36 1411.5 1640.49 1412.49 C 1642.12 1414.74 1642.49 1415.25 1642.13 1418.2 C 1641.02 1427.34 1622.74 1446.51 1616.34 1453.24 C 1578.38 1493.09 1523.33 1520.72 1468.25 1524.36 C 1439.15 1526.29 1409.91 1524.99 1381.16 1530.93 C 1351.81 1536.99 1325.47 1549.82 1300.6 1566.22 C 1298.79 1566.34 1297.41 1566.05 1295.64 1565.72 C 1293.41 1564.06 1292.62 1563.26 1291.75 1560.61 C 1291.98 1559.26 1292.28 1558.21 1293.13 1557.1 C 1298.59 1550.04 1310.52 1544.82 1318.47 1540.62 C 1351.91 1522.96 1387.24 1514.85 1424.82 1513.27 C 1440.93 1512.59 1457.08 1512.7 1473.16 1511.26 C 1525.4 1506.56 1576.93 1476.79 1612.45 1438.89 C 1620.37 1430.43 1626.29 1420.37 1633.78 1411.54 L 1634.49 1410.72 z"/>
<path transform="translate(0,0)" fill="rgb(42,28,23)" d="M 1753.58 1696.68 C 1755.42 1696.87 1756.88 1697.28 1758.65 1697.81 C 1760.33 1699.55 1761.4 1700.3 1761.32 1702.95 C 1761.03 1712.4 1742.8 1728.84 1736.36 1734.91 C 1698.33 1770.78 1647.66 1801.72 1595.82 1811.46 C 1578.16 1814.78 1560.36 1815.12 1542.51 1816.62 C 1499.98 1820.19 1465.75 1835.65 1432.7 1862.2 C 1428.8 1860.95 1427.56 1860.26 1425.17 1856.99 C 1424.84 1846.61 1447.06 1835.49 1455.61 1830.49 C 1501.33 1803.76 1529.01 1806.13 1579.14 1800.84 C 1629.15 1795.56 1683.2 1765.55 1720.18 1732.06 C 1732.34 1721.05 1742.49 1708.67 1753.58 1696.68 z"/>
<path transform="translate(0,0)" fill="rgb(42,28,23)" d="M 1713.98 1628.51 C 1716.19 1629.55 1718.01 1630.26 1719.46 1632.34 C 1720.71 1634.15 1720.62 1636.15 1719.95 1638.17 C 1718.02 1644.04 1709.77 1651.97 1705.56 1656.5 C 1672.7 1691.92 1617.26 1727.71 1570.36 1738.36 C 1537.05 1745.92 1502.35 1742.06 1469.41 1752 C 1453.25 1756.87 1436.96 1763.61 1422.53 1772.42 C 1413.18 1778.12 1404.28 1785.04 1394.32 1789.61 C 1393.37 1789.18 1391.48 1788.48 1390.66 1787.73 C 1388.77 1785.97 1388.61 1784.93 1388.31 1782.55 C 1390.88 1775.17 1402.36 1769.73 1408.82 1765.81 C 1431.17 1752.26 1456.36 1740.03 1482.26 1735.26 C 1525.6 1727.28 1555.92 1734.05 1599.99 1715.11 C 1631.39 1701.62 1662.73 1680.2 1687.38 1656.66 C 1696.45 1647.99 1704 1637.85 1713.14 1629.28 L 1713.98 1628.51 z"/>
<path transform="translate(0,0)" fill="rgb(42,28,23)" d="M 260.52 1665.47 C 302.677 1638.47 339.025 1605.69 367.608 1564.45 C 376.25 1551.98 389.803 1523.2 397.38 1514.55 C 399.042 1512.66 400.185 1511.8 402.83 1512.19 C 416.306 1514.17 456.134 1531.07 471.548 1537.01 C 544.824 1565.2 618.993 1595.33 686.388 1635.94 C 733.452 1664.29 777.996 1698.68 819.239 1734.9 C 831.598 1745.75 861.707 1771.08 869.592 1783.73 C 870.36 1784.96 870.717 1786.11 870.943 1787.53 C 869.776 1789.91 869.126 1791.61 866.474 1792.59 C 862.797 1793.96 858.029 1794.13 854.103 1794.97 C 845.571 1796.9 837.161 1799.32 828.915 1802.24 C 787.437 1816.99 750.741 1845.67 719.798 1876.53 C 714.37 1882.38 709.225 1888.39 704.162 1894.56 C 687.278 1915.37 672.291 1936.72 661.318 1961.32 C 656.955 1971.1 653.795 1988.13 647.835 1996.16 C 646.398 1998.1 645.581 1998.62 643.154 1998.88 C 634.568 1999.83 617.729 1989.3 610.022 1985.53 C 543.432 1953 480.085 1914.72 417.628 1874.93 C 374.006 1847.14 331.525 1818.1 286.309 1792.86 C 255.946 1775.92 224.163 1760.34 190.813 1750.22 C 182.837 1747.8 174.677 1745.23 166.499 1743.61 C 160.272 1742.37 153.792 1742.07 147.693 1740.28 C 146.305 1739.87 145.335 1739.29 144.237 1738.36 C 143.091 1735.75 142.47 1734.4 142.72 1731.47 C 145.625 1727.02 189.785 1707 198.005 1702.64 C 213.722 1694.16 229.171 1685.2 244.329 1675.75 L 260.52 1665.47 z"/>
<path transform="translate(0,0)" fill="rgb(250,248,239)" d="M 405.405 1525.53 C 430.607 1535.78 456.708 1544.12 482.015 1554.26 C 549.694 1581.36 617.184 1609.79 679.745 1647.56 C 709.893 1665.76 738.309 1686.25 766.135 1707.78 C 796.043 1730.93 825.242 1755.89 851.204 1783.44 C 834.836 1786.66 819.363 1791.62 804.251 1798.72 C 746.343 1825.95 691.795 1878.43 660.404 1934.19 C 651.397 1950.19 644.793 1966.82 638.577 1984.03 C 633.083 1982.24 627.957 1980.07 622.712 1977.66 C 560.946 1948.45 502.011 1912.98 444.25 1876.63 C 366.752 1827.86 259.208 1747.66 168.956 1731.87 C 247.491 1693.29 323.395 1648.31 375.034 1575.79 C 386.435 1559.78 395.839 1542.67 405.405 1525.53 z"/>
<path transform="translate(0,0)" fill="rgb(42,28,23)" d="M 564.993 1621.93 C 605.364 1625.68 724.018 1694.2 750.454 1724.62 C 745.377 1734.05 737.024 1742.27 730.474 1750.75 C 720.92 1763.12 711.963 1776.08 703.254 1789.06 C 684.432 1817.1 667.333 1848.84 653.675 1879.67 C 648.043 1892.39 643.577 1905.56 638.148 1918.35 C 636.655 1921.87 635.494 1925.16 631.806 1926.67 C 623.373 1925.84 615.474 1919.68 608.452 1915.25 C 571.778 1891.7 534.261 1869.49 495.976 1848.66 C 479.509 1839.61 425.632 1813.23 415.495 1803.79 C 413.191 1801.64 412.197 1800.02 412.031 1796.89 C 419.482 1779.64 516.373 1669.2 534.057 1650.48 C 543.074 1640.93 553.509 1628.32 564.993 1621.93 z"/>
<path transform="translate(0,0)" fill="rgb(250,248,239)" d="M 566.822 1635.68 C 572.797 1635.85 580.357 1638.97 586.141 1640.92 C 634.348 1657.16 696.07 1693.33 734.649 1726.35 C 709.444 1753.16 690.58 1786.29 671.254 1817.36 C 671.289 1814 671.216 1810.63 671.035 1807.27 C 670.562 1799.42 668.813 1762.32 663.481 1757.58 C 651.175 1753.89 622.583 1760.45 609.719 1763.88 L 601.979 1743.71 L 594.359 1725.72 C 603.613 1722.76 612.543 1719.33 621.535 1715.68 C 621.99 1721.05 622.671 1725.59 625.324 1730.35 C 629.635 1738.08 636.452 1741.15 644.542 1743.53 C 647.065 1743.01 649.598 1742.47 652.072 1741.74 C 658.226 1739.94 663.882 1736.33 666.869 1730.48 C 669.67 1725 671.243 1718.03 669.195 1712.05 C 667.553 1707.26 663.686 1702.73 658.979 1700.75 C 646.284 1695.4 636.797 1706.08 626.184 1710.1 L 625.836 1707.28 C 618.154 1704.26 572.497 1723.13 563.024 1727.14 C 561.129 1719.94 560.191 1712.54 558.429 1705.29 C 557.279 1703.8 556.541 1703.14 554.784 1702.34 C 542.859 1696.88 508.957 1708.86 495.854 1713.13 C 517.938 1685.91 541.637 1660.05 566.822 1635.68 z"/>
<path transform="translate(0,0)" fill="url(#Gradient1)" d="M 576.286 1665.9 C 577.175 1665.92 578.067 1665.92 578.951 1666.01 C 581.641 1666.28 584.927 1668 586.424 1670.38 C 588.165 1673.15 588.172 1676.05 587.223 1679.07 C 585.589 1684.27 582.23 1686.26 577.605 1688.67 C 576.229 1688.52 574.827 1688.4 573.476 1688.08 C 570.273 1687.31 567.249 1685.38 565.922 1682.25 C 564.998 1680.07 565.093 1677.71 565.876 1675.51 C 567.731 1670.3 571.494 1668.1 576.286 1665.9 z"/>
<path transform="translate(0,0)" fill="rgb(93,32,30)" d="M 454.363 1770.78 C 489.246 1761.16 521.913 1757.03 557.965 1756.22 C 562.997 1782.69 571.68 1808.74 578.668 1834.77 C 582.988 1841.07 586.014 1861.32 588.659 1869.87 C 591.144 1877.9 594.368 1885.75 597.475 1893.56 C 577.686 1878.47 554.484 1866.83 532.731 1854.84 C 497.598 1835.48 462.122 1816.72 427.193 1796.99 C 432.236 1790.51 443.702 1773.07 450.332 1769.88 C 451.831 1769.16 452.944 1770.19 454.363 1770.78 z"/>
<path transform="translate(0,0)" fill="rgb(150,143,132)" d="M 454.363 1770.78 C 489.246 1761.16 521.913 1757.03 557.965 1756.22 C 562.997 1782.69 571.68 1808.74 578.668 1834.77 L 569.957 1831.88 C 569.628 1831.87 569.296 1831.88 568.969 1831.84 C 560.158 1830.75 544.193 1805.61 537.759 1798.19 L 537.03 1797.36 C 513.561 1793.23 479.475 1788.05 460.9 1772.93 C 458.559 1772.41 456.57 1771.68 454.363 1770.78 z"/>
<path transform="translate(0,0)" fill="rgb(42,28,23)" d="M 460.9 1772.93 C 473.596 1774.82 531.746 1786.39 540.764 1791.65 C 544.936 1794.08 548.391 1798.62 551.254 1802.47 C 558.148 1811.73 564.112 1821.93 569.957 1831.88 C 569.628 1831.87 569.296 1831.88 568.969 1831.84 C 560.158 1830.75 544.193 1805.61 537.759 1798.19 L 537.03 1797.36 C 513.561 1793.23 479.475 1788.05 460.9 1772.93 z"/>
<path transform="translate(0,0)" fill="rgb(150,143,132)" d="M 584.891 1729.16 C 589.862 1735.3 597.682 1759.72 602.173 1769.17 C 599.837 1770.83 596.845 1772.63 595.028 1774.83 C 593.628 1776.52 593.725 1777.07 593.844 1779.12 L 595.52 1780.53 C 618.376 1772.05 633.968 1770.13 658.103 1767.91 C 659.962 1789.23 662.927 1810.77 663.294 1832.17 C 659.798 1838.2 656.453 1844.32 653.263 1850.52 L 650.058 1859.76 C 640.094 1849.12 626.356 1835.46 613.217 1829.27 L 588.516 1833.34 C 580.686 1800.68 571.449 1768.77 565.359 1735.68 L 584.891 1729.16 z"/>
<path transform="translate(0,0)" fill="rgb(93,32,30)" d="M 606.565 1837.08 C 607.537 1836.91 607.885 1836.8 608.967 1836.81 C 621.037 1836.94 638.744 1857.01 647.112 1865.24 C 640.387 1879.89 633.702 1894.39 628.867 1909.8 C 627.848 1911.57 628.572 1910.82 626.555 1911.9 C 616.653 1909.22 605.317 1900.28 598.331 1892.94 C 597.891 1874.53 593.015 1858.48 589.529 1840.59 C 595.454 1839.91 600.837 1838.71 606.565 1837.08 z"/>
<path transform="translate(0,0)" fill="rgb(150,143,132)" d="M 542.683 1711.41 C 544.768 1711.1 545.78 1711.03 547.738 1711.86 C 553.592 1720.06 554.393 1737.29 556.667 1747.23 C 527.151 1744.6 494.103 1750.34 466.244 1759.61 L 455.289 1763.83 C 460.259 1756.59 466.112 1749.76 471.557 1742.87 C 476.032 1737.21 480.497 1730.83 486.326 1726.48 C 498.368 1717.49 527.394 1713.2 542.683 1711.41 z"/>
<path transform="translate(0,0)" fill="rgb(148,105,96)" d="M 642.652 1711.26 C 645.091 1710.99 647.623 1710.67 650.082 1710.68 C 652.57 1710.69 655.709 1712.08 657.363 1713.99 C 659.103 1716 660.01 1718.04 659.699 1720.73 C 659.075 1726.16 655.272 1729.1 651.036 1731.93 C 649.267 1732.13 647.241 1732.47 645.471 1732.32 C 642.294 1732.06 638.47 1730.07 636.661 1727.33 C 635.121 1725.01 634.528 1722.8 635.047 1720.05 C 635.908 1715.48 639.003 1713.57 642.652 1711.26 z"/>
<path transform="translate(0,0)" fill="rgb(42,28,23)" d="M 427.424 1588.5 C 428.645 1588.86 429.924 1589.2 431.044 1589.83 C 438.107 1593.84 439.762 1606.89 441.528 1614.12 C 451.904 1611.05 464.074 1606.16 474.929 1606.22 C 477.724 1606.23 479.674 1606.51 481.695 1608.53 L 480.98 1610.76 C 471.789 1619.82 455.909 1622.37 443.752 1625.62 L 445.96 1638.5 C 446.54 1642.48 447.243 1646.62 447.071 1650.65 C 446.936 1653.8 446.32 1656.23 444.028 1658.33 C 443.716 1658.21 443.385 1658.13 443.091 1657.96 C 435.564 1653.81 433.136 1636.05 431.258 1628.21 C 424.627 1630.77 416.405 1634.94 409.273 1632.29 C 407.542 1631.65 407.796 1631.16 407.15 1629.6 C 407.62 1628.26 407.649 1627.96 408.541 1626.64 C 412.763 1620.42 423.025 1618.66 429.72 1616.81 C 428.105 1608.49 423.766 1596.35 427.424 1588.5 z"/>
<path transform="translate(0,0)" fill="rgb(42,28,23)" d="M 352.675 1665.36 C 353.881 1665.63 354.945 1665.99 355.957 1666.75 C 361.714 1671.07 364.157 1680.38 365.77 1687.06 C 374.844 1683.84 390.319 1676.78 399.625 1680 C 401.65 1680.69 400.893 1680.22 402.03 1682.33 C 401.893 1682.68 401.797 1683.05 401.619 1683.38 C 397.518 1690.99 377.82 1695.24 369.804 1697.81 C 372.246 1705.1 374.875 1712.28 375.87 1719.93 C 374.839 1722.73 374.146 1723.6 371.519 1724.81 C 370.599 1724.62 370.16 1724.6 369.286 1724.02 C 363.156 1719.98 360.183 1708.09 357.933 1701.48 C 351.939 1703.57 345.521 1706.1 339.225 1706.99 C 334.76 1707.62 330.911 1707.69 327.291 1704.93 L 327.362 1702.64 C 333.627 1694.57 345.659 1692.72 355.005 1690.26 C 353.233 1686.13 351.059 1681.78 349.921 1677.44 C 348.633 1672.53 350.03 1669.41 352.675 1665.36 z"/>
<path transform="translate(0,0)" fill="rgb(42,28,23)" d="M 250.329 1702.12 C 252.86 1702.33 252.719 1701.86 254.605 1703.83 L 253.898 1705.71 C 244.499 1714.61 231.594 1719.89 219.733 1724.6 C 228.716 1729.29 241.963 1735.37 247.806 1743.86 L 247.475 1745.51 C 244.61 1746.96 241.737 1745.94 238.74 1745.36 C 229.429 1742.66 211.362 1737.09 206.311 1728.34 C 205.152 1726.33 204.733 1724.14 205.866 1721.99 C 209.83 1714.47 241.191 1704.26 250.329 1702.12 z"/>
<path transform="translate(0,0)" fill="rgb(42,28,23)" d="M 610.726 1930.02 C 616.297 1931.15 637.266 1939.03 641.333 1942.59 C 642.709 1943.8 642.27 1943.47 642.493 1945.52 C 641.28 1946.9 641.573 1946.89 639.862 1947.57 C 634.859 1949.55 629.89 1947.16 625.127 1945.54 C 625.561 1945.98 626 1946.41 626.428 1946.85 C 630.647 1951.21 634.116 1956.09 633.963 1962.32 C 633.064 1963.76 632.951 1964.61 631.259 1965.22 C 626.679 1966.88 620.908 1963.53 616.679 1961.79 C 608.583 1958.42 598.098 1954.08 591.798 1947.86 C 590.159 1946.24 589.803 1946.1 589.743 1943.72 C 590.034 1943.6 590.313 1943.45 590.616 1943.37 C 598.444 1941.28 612.378 1949.88 619.381 1953.47 C 616.278 1948.51 611.804 1943.95 609.705 1938.43 C 608.375 1934.94 609.255 1933.17 610.726 1930.02 z"/>
<path transform="translate(0,0)" fill="rgb(42,28,23)" d="M 791.161 1747.71 C 802.781 1750.41 813.912 1758.5 822.119 1767.01 C 825.441 1770.46 827.714 1772.66 827.644 1777.58 C 824.643 1782.15 796.37 1789.75 789.376 1792.23 C 784.23 1794.01 779.01 1795.26 773.723 1796.53 C 784.701 1785.23 798.619 1777.24 813.904 1773.44 C 807.568 1766.58 799.303 1761.66 793.124 1754.72 C 790.789 1752.1 790.905 1751.18 791.161 1747.71 z"/>
<path transform="translate(0,0)" fill="rgb(42,28,23)" d="M 418.756 1538.6 C 425.186 1539.13 434.529 1541.74 440.053 1545.18 C 442.296 1546.58 443.217 1547.44 443.751 1550.01 L 441.82 1551.56 C 437.798 1552.5 434.187 1551.35 430.266 1550.44 L 429.171 1550.21 C 425.411 1552.61 427.528 1558.77 423.57 1561.99 C 422.85 1561.99 421.71 1562.02 421.039 1561.79 C 419.193 1561.16 418.289 1559.8 417.599 1558.09 C 415.392 1552.6 416.312 1543.84 418.756 1538.6 z"/>
<path transform="translate(0,0)" fill="rgb(42,28,23)" d="M 405.791 1538.47 C 405.944 1538.49 406.098 1538.51 406.249 1538.54 C 408.703 1539.1 410.378 1539.03 411.469 1541.59 C 414.959 1549.8 408.608 1566.47 406.003 1574.43 L 403.518 1574.24 C 402.025 1573.05 401.84 1573.24 401.272 1571.24 C 398.804 1562.51 401.517 1546.24 405.791 1538.47 z"/>
<path transform="translate(0,0)" fill="rgb(213,210,202)" d="M 1213.06 155.622 C 1216.87 161.994 1220.65 168.328 1224 174.955 C 1089.73 194.297 965.459 257.016 870.142 353.549 C 844.224 379.794 821.473 408.302 799.417 437.813 C 782.26 461.241 765.976 485.297 750.599 509.93 C 739.756 527.389 729.626 545.487 717.992 562.426 C 691.092 601.51 658.527 636.375 621.368 665.876 C 576.362 701.489 524.701 727.927 472.609 751.473 C 384.084 791.486 259.62 833.58 188.705 899.914 C 173.451 914.182 159.929 931.377 149.433 949.428 C 132.018 979.377 124.785 1019.2 118.844 1053.07 C 105.246 1130.58 106.599 1209.25 117.874 1286.96 C 133.54 1397.81 169.111 1504.93 222.872 1603.13 C 234.316 1624.14 246.095 1646.3 260.52 1665.47 L 244.329 1675.75 C 217.253 1634.41 193.583 1590.93 173.554 1545.75 C 106.91 1396.68 72.4426 1220.87 97.6599 1058.45 C 102.594 1026.66 109.089 994.392 120.731 964.303 C 153.942 878.47 241.086 833.22 319.429 796.272 C 379.269 768.051 441.38 744.988 500.977 716.253 C 545.044 695.006 586.719 669.928 624.317 638.514 C 657.061 611.157 685.396 577.164 708.645 541.492 C 723.122 519.279 736.125 496.139 750.697 473.96 C 802.687 394.834 863.196 324.644 940.2 268.901 C 1000.69 225.488 1068.27 192.935 1139.92 172.7 C 1151.42 169.405 1163.03 166.499 1174.73 163.985 C 1186.15 161.614 1202.01 160.798 1212.32 155.988 C 1212.57 155.872 1212.81 155.744 1213.06 155.622 z"/>
<path transform="translate(0,0)" fill="rgb(213,210,202)" d="M 1319.67 1811.86 C 1322.76 1818.31 1326.1 1824.75 1328.85 1831.35 C 1328.51 1831.43 1328.17 1831.5 1327.83 1831.58 C 1311.31 1835.56 1295.17 1843.13 1279.01 1848.48 C 1249.27 1858.33 1218.86 1866.89 1188.56 1874.87 C 1073.97 1905.05 947.864 1919.29 829.558 1910.62 C 787.17 1907.51 746.124 1900.52 704.162 1894.56 C 709.225 1888.39 714.37 1882.38 719.798 1876.53 C 732.839 1878.12 745.922 1880.99 758.923 1883.04 C 779.044 1886.25 799.294 1888.6 819.616 1890.07 C 990.055 1901.8 1160.95 1875.07 1319.67 1811.86 z"/>
<path transform="translate(0,0)" fill="rgb(213,210,202)" d="M 1869.71 1207.76 C 1871.48 1215.74 1880.52 1245.1 1878.52 1251.12 L 1876.02 1252.97 C 1873.88 1253.73 1872.99 1254.82 1871.65 1256.59 C 1860.3 1271.62 1851.1 1294.84 1840.39 1311.88 C 1807.27 1364.62 1770.14 1404.68 1723.22 1445.16 C 1719.4 1437.43 1716.08 1429.36 1712.55 1421.48 C 1723.78 1414.29 1734.17 1404.44 1743.93 1395.35 C 1800 1343.09 1838.34 1277 1869.71 1207.76 z"/>
<path transform="translate(0,0)" fill="rgb(93,32,30)" d="M 900.059 855.119 C 903.683 854.884 907.617 854.614 911.229 855.026 C 918.596 855.867 925.975 859.615 930.392 865.631 C 936.917 874.517 937.163 888.928 935.469 899.53 C 927.59 948.828 867.14 997.713 828.622 1025.94 C 826.469 1034.31 824.104 1042.24 821.03 1050.33 C 825.104 1044.93 829.179 1039.79 834.111 1035.15 C 852.926 1017.44 892.243 988.448 918.916 989.801 C 925.339 990.127 931.244 992.42 935.472 997.397 C 940.899 1003.79 942.463 1011.72 941.807 1019.89 C 940.789 1032.57 935.6 1044.71 931.264 1056.54 C 921.6 1082.92 909.795 1109.55 906.887 1137.69 C 923.862 1131.03 937.133 1119.37 950.394 1107.22 C 954.58 1103.38 959.129 1098.11 964.054 1095.31 L 964.916 1096.08 C 965.47 1111.26 954.99 1124.02 945.47 1134.72 C 932.673 1149.11 912.88 1167.21 892.517 1167.98 C 884.777 1168.27 877.6 1165.62 872.161 1160.06 C 850.621 1138.05 871.265 1091.05 880.205 1067.11 C 883.692 1057.76 888.962 1046.91 888.926 1036.81 C 888.913 1033.06 888.212 1030.67 885.384 1028.03 C 882.364 1026.84 880.189 1026.84 877.08 1027.6 C 856.401 1032.63 839.788 1048.28 828.922 1065.92 C 814.861 1088.76 802.976 1127.79 809.195 1154.44 C 802.4 1159.77 795.372 1164.77 786.35 1165.05 C 781.074 1165.22 776.121 1163.44 772.28 1159.79 C 763.657 1151.62 764.022 1139.42 763.848 1128.49 C 753.27 1140.17 740.241 1150.25 725.908 1156.88 C 704.973 1166.57 677.007 1170.59 655.019 1162.01 C 637.969 1155.35 630.192 1143.3 623.121 1127.34 C 611.923 1137.77 601.285 1147.98 588.084 1155.91 C 576.575 1162.45 561.192 1168.45 547.844 1165.37 C 540.836 1163.75 535.39 1159.39 531.843 1153.18 C 517.673 1128.38 535.492 1076.5 543.047 1050.65 C 547.126 1036.69 558.028 995.955 570.543 989.679 C 581.521 984.174 598.427 989.702 609.261 993.766 C 596.657 1022.36 584.629 1051.44 577.215 1081.88 C 574.915 1091.33 567.758 1118.24 574.113 1126.76 C 575.605 1128.75 577.633 1129.8 580.141 1129.89 C 591.35 1130.25 612.3 1107.22 620.406 1099.03 C 621.879 1080.21 625.472 1062.44 634.06 1045.46 C 647.403 1019.09 672.368 996.918 700.556 987.717 C 716.512 982.509 736.857 981.029 752.097 989.194 C 758.337 992.537 763.325 997.682 765.167 1004.65 C 767.116 1012.02 765.507 1020.09 761.604 1026.55 C 756.958 1034.24 748.01 1041.64 739.095 1043.58 C 734.627 1044.56 731.561 1043.64 727.792 1041.19 C 725.859 1032.98 740.263 1021.45 739.897 1010.89 C 739.793 1007.89 738.473 1005.51 736.061 1003.73 C 732.778 1001.3 728.522 1001.28 724.662 1001.96 C 707.699 1004.97 693.221 1016.52 683.725 1030.48 C 669.783 1050.98 662.764 1082.77 667.86 1107.17 C 669.867 1116.78 674.3 1126.1 682.894 1131.45 C 693 1137.75 706.635 1136.54 717.697 1133.55 C 733.478 1129.29 759.876 1113.45 767.832 1098.97 C 774.288 1087.22 776.351 1063.69 780.008 1049.85 C 791.517 1006.28 805.708 964.211 828.446 925.118 C 844.986 896.682 866.501 864.001 900.059 855.119 z"/>
<path transform="translate(0,0)" fill="rgb(250,248,239)" d="M 908.05 883.714 C 909.664 883.716 910.785 884.037 912.327 884.463 C 913.339 885.864 914.169 886.501 914.292 888.301 C 915.687 908.765 858.559 975.374 842.757 992.452 C 841.43 993.757 842.263 993.154 840.112 994.035 C 840.148 992.48 840.09 992.585 840.463 990.768 C 841.81 984.221 845.877 976.719 848.534 970.511 C 861.625 939.916 879.557 902.533 908.05 883.714 z"/>
<path transform="translate(0,0)" fill="rgb(93,32,30)" d="M 1656.71 872.01 C 1661.13 871.916 1665.11 872.108 1669.26 873.795 C 1674.91 876.097 1678.97 879.861 1681.14 885.623 C 1691.52 913.155 1657.54 962.748 1646.53 987.727 C 1658.75 987.927 1670.96 987.638 1683.15 986.859 C 1692.01 986.233 1701.71 984.079 1710.52 984.831 C 1711.53 986.52 1711.8 987.798 1711.84 989.731 C 1711.98 996.402 1710.35 1002.35 1705.52 1007.13 C 1690.87 1021.6 1652.01 1017.97 1632.8 1017.85 C 1623.73 1039.69 1615.61 1067.07 1616.26 1090.74 C 1616.59 1102.62 1619.67 1115.64 1628.89 1123.82 C 1635.02 1129.25 1642.79 1130.97 1650.8 1130.25 C 1677.39 1127.87 1697.4 1101.36 1712.89 1082.26 C 1717.42 1084.56 1721.39 1086.36 1723.23 1091.39 C 1723.2 1094.12 1722.7 1096.04 1721.46 1098.49 C 1709.5 1122.01 1673.22 1153.9 1647.25 1161.92 C 1631.29 1166.85 1612.46 1166.57 1597.6 1158.35 C 1581.36 1149.38 1575.61 1134.59 1570.97 1117.7 C 1558.5 1135.18 1543.91 1152.38 1523.42 1160.51 C 1510.95 1165.46 1497.46 1166 1485.12 1160.31 C 1466.08 1151.55 1458.29 1133.23 1451.77 1114.76 C 1435.08 1135.74 1414.63 1151.9 1393.55 1168.17 C 1389.76 1165.68 1385.71 1163.43 1384.5 1158.79 C 1394.41 1145.37 1409.04 1133.76 1420.48 1121.34 C 1429.13 1112.32 1437 1102.68 1444.69 1092.85 C 1442.8 1082.13 1430.85 1024.43 1422.77 1019.41 C 1420.56 1018.03 1418.27 1018.06 1415.91 1018.92 C 1402.1 1023.94 1386.33 1061.21 1379.37 1074.96 C 1375.88 1072.51 1372.57 1069.73 1369.21 1067.09 C 1376.23 1049.53 1384.49 1031.42 1394.43 1015.33 C 1402.85 1001.7 1415.05 986.245 1431.55 982.716 C 1440.54 980.794 1450.31 982.543 1457.83 987.895 C 1476.3 1001.04 1481.23 1032.76 1485 1053.58 C 1496.68 1035.96 1513.44 994.063 1529.87 984.763 C 1533.58 982.663 1541.06 981.392 1545.03 983.23 C 1547.29 984.279 1548.15 985.8 1548.49 988.177 C 1550.54 1002.25 1499.06 1056.1 1488.09 1067.85 C 1489.98 1083.36 1491.98 1101.03 1498.44 1115.38 C 1501.66 1122.54 1506.5 1129.42 1514.23 1132.09 C 1521.75 1134.69 1529.86 1132.44 1536.62 1128.77 C 1550.25 1121.37 1566.14 1103.86 1570.46 1088.81 C 1573.38 1078.64 1573.91 1067.19 1576.05 1056.75 C 1579.04 1042.8 1582.66 1029 1586.91 1015.38 C 1582.83 1014.69 1578.52 1014.33 1575.18 1011.69 C 1573.18 1010.1 1571.67 1007.53 1571.64 1004.94 C 1571.6 1001.89 1573.24 999.03 1575.17 996.784 C 1581.1 989.869 1588.88 987.129 1597.71 986.431 C 1604.97 971.044 1610.86 955.026 1617.95 939.564 C 1623.78 926.875 1630.67 914.756 1636.98 902.312 C 1641.17 894.034 1645.07 883.661 1650.82 876.511 C 1652.41 874.539 1654.54 873.248 1656.71 872.01 z"/>
<path transform="translate(0,0)" fill="rgb(93,32,30)" d="M 1331.66 857.124 C 1334.13 857.012 1333.08 856.635 1334.86 858.081 C 1334.84 858.401 1334.85 858.725 1334.8 859.041 C 1333.23 868.981 1318.74 886.529 1310.93 892.315 C 1287.29 909.819 1252.48 901.414 1225.91 896.979 L 1225.25 898.1 C 1212.29 920.302 1203.25 945.212 1194.5 969.277 C 1174.3 1024.78 1147.91 1102.16 1163.21 1160.89 C 1153.76 1166.07 1142.69 1168.1 1132.14 1165.26 C 1123.33 1162.88 1114.58 1157.04 1110.25 1148.86 C 1097.85 1125.45 1131.2 1027.78 1140.55 999.262 C 1153.67 961.362 1166.42 923.253 1186.37 888.252 C 1163.62 883.899 1126.07 880.914 1104.52 889.788 C 1100.68 891.371 1096.74 893.863 1095.54 898.111 C 1092.37 909.319 1110.26 920.583 1114.12 930.15 C 1115.5 933.579 1115.61 937.549 1113.91 940.892 C 1112.05 944.533 1108.52 947.058 1104.67 948.254 C 1096.42 950.821 1086.81 950.45 1079.13 946.4 C 1071.53 942.388 1066.82 934.971 1064.58 926.849 C 1061.5 915.698 1062.83 903.335 1068.71 893.325 C 1099.91 840.169 1199.53 861.771 1250.26 863.878 C 1277.39 865.004 1305.31 863.977 1331.66 857.124 z"/>
<path transform="translate(0,0)" fill="rgb(93,32,30)" d="M 430.309 854.425 C 458.275 853.142 489.599 856.874 512.458 874.464 C 528.755 887.004 538.257 904.807 540.715 925.13 C 543.788 950.531 538.373 978.347 522.063 998.57 C 499.632 1026.38 461.607 1034.89 427.844 1038.42 C 457.395 1056.18 477.376 1084.42 492.116 1115.05 C 498.979 1129.31 510.991 1156.96 504.887 1172.8 C 503.143 1177.33 499.789 1180.62 495.347 1182.51 C 486.623 1186.22 469.81 1185.44 461.008 1181.97 C 457.284 1180.5 453.104 1177.4 451.594 1173.55 C 447.823 1163.94 448.033 1151.22 446.559 1140.97 C 444.241 1123.99 439.612 1107.4 432.8 1091.67 C 423.151 1069.48 408.394 1054.2 390.568 1038.46 C 391.961 1032.39 393.579 1026.77 395.874 1020.98 C 407.381 1021.2 418.745 1021.25 430.037 1018.72 C 453.116 1013.54 471.764 998.236 484.123 978.426 C 494.153 962.349 500.738 935.924 495.874 917.2 C 492.522 904.297 484.986 894.201 473.414 887.489 C 439.532 867.837 390.595 879.799 362.45 904.407 C 351.066 914.36 341.777 938.206 326.691 941.307 C 324.828 941.689 322.841 941.475 321.308 940.316 C 318.494 938.188 317.824 935.037 317.474 931.698 C 316.072 918.34 319.436 895.992 328.615 885.66 C 348.857 862.874 401.162 856.341 430.309 854.425 z"/>
<path transform="translate(0,0)" fill="rgb(93,32,30)" d="M 1314.48 983.293 C 1324.45 982.678 1334.78 983.525 1343.58 988.707 C 1351.2 993.196 1355.71 1000.67 1357.6 1009.18 C 1360.92 1024.08 1357.23 1038.76 1349.33 1051.52 C 1329.5 1083.6 1293.45 1093.59 1259.05 1101.56 C 1261.11 1109.1 1263.14 1116.57 1268.15 1122.79 C 1273.86 1129.86 1282.02 1133.29 1290.92 1134.23 C 1324.11 1137.76 1352.18 1118.37 1376.34 1098.23 C 1379.39 1102.42 1381.73 1106.83 1384.12 1111.41 C 1381.36 1115.2 1377.96 1118.55 1374.77 1121.98 C 1354.52 1141.8 1330.21 1158.81 1301.97 1164.46 C 1281.36 1168.58 1256.88 1167.72 1239.11 1155.28 C 1225.88 1146.02 1218.52 1131.82 1216.13 1116.15 C 1211.52 1085.88 1223.99 1053.73 1241.76 1029.69 C 1259.35 1005.91 1284.81 987.587 1314.48 983.293 z"/>
<path transform="translate(0,0)" fill="rgb(250,248,239)" d="M 1318.78 1001.03 C 1320.2 1001.04 1322.17 1000.87 1323.52 1001.26 C 1325.01 1001.69 1326.29 1002.36 1327.1 1003.69 C 1329.32 1007.35 1328.69 1012.87 1327.83 1016.87 C 1322 1044.09 1292.16 1066.16 1269.99 1079.86 C 1267.09 1081.6 1264.06 1083.17 1261.1 1084.8 C 1263.63 1071.28 1268.24 1058.23 1274.78 1046.12 C 1284.04 1028.83 1299.11 1006.92 1318.78 1001.03 z"/>
<path transform="translate(0,0)" fill="rgb(93,32,30)" d="M 404.049 896.308 C 414.24 895.837 424.187 896.98 434.097 899.296 C 409.148 955.453 362.691 1080.72 365.256 1140.07 C 365.565 1147.22 367.153 1153.31 369.437 1160.03 C 364.319 1163.92 359.102 1166.31 353.093 1168.42 C 345.526 1169.36 337.95 1168.4 331.424 1164.22 C 325.315 1160.3 321.66 1153.72 320.242 1146.73 C 310.368 1098.01 346.727 1006.57 364.219 958.832 C 369.48 944.474 378.214 916.279 386.987 904.483 C 391.212 898.803 397.43 897.466 404.049 896.308 z"/>
<path transform="translate(0,0)" fill="rgb(93,32,30)" d="M 610.934 916.389 C 616.389 916.702 622.266 916.944 627.218 919.492 C 630.386 921.121 632.904 923.638 633.56 927.286 C 634.542 932.75 631.295 938.574 627.878 942.575 C 619.809 952.022 608.922 956.385 596.871 957.616 C 590.9 957.503 584.866 957.388 579.513 954.346 C 576.561 952.67 574.794 950.43 574.091 947.049 C 573.061 942.093 576.463 935.875 579.352 932.11 C 587.097 922.016 598.726 917.789 610.934 916.389 z"/>
<path transform="translate(0,0)" fill="rgb(213,210,202)" d="M 527.646 201.421 C 529.674 201.083 531.745 201.099 533.798 201.029 C 579.594 199.46 625.078 209.251 659.402 241.604 C 691.501 272.313 710.03 314.554 710.882 358.969 C 712.962 430.621 671.196 493.251 629.278 547.625 C 609.144 573.742 588.22 598.662 565.463 622.562 C 513.957 676.655 447.789 715.199 371.384 717.132 C 325.454 719.586 275.445 709.917 239.342 679.827 C 207.044 652.91 191.562 613.871 187.828 572.777 C 180.221 489.08 223.453 402.978 276.13 340.253 C 338.343 266.173 430.221 209.618 527.646 201.421 z"/>
<path transform="translate(0,0)" fill="rgb(213,210,202)" d="M 1827.5 134.413 C 1832.36 134.009 1837.28 134.156 1842.14 134.53 C 1872.93 136.907 1901.46 154.063 1906.86 186.501 C 1907.55 190.635 1906.59 204.673 1908.59 206.601 C 1911.44 209.34 1920.42 208.464 1924.46 209.968 C 1934.05 213.531 1943.42 220.382 1950.03 228.149 C 1960.19 240.089 1964.58 255.143 1963.33 270.659 C 1962.26 283.963 1955.8 298.646 1945.25 307.201 C 1933.54 316.699 1919.87 318.921 1905.36 317.125 C 1886.03 311.226 1868.55 295.903 1853.22 283.086 C 1831.27 264.736 1784.89 222.804 1771.85 198.957 C 1769.01 193.704 1767.33 187.906 1766.91 181.95 C 1766.23 172.033 1769.8 162.905 1776.28 155.466 C 1788.96 140.93 1809.02 135.709 1827.5 134.413 z"/>
<path transform="translate(0,0)" fill="rgb(213,210,202)" d="M 1844.5 1399.15 C 1857.56 1398.33 1867.79 1401.41 1877.94 1410.02 C 1898.19 1427.2 1909.67 1458.31 1912.07 1484.13 C 1914.68 1512.36 1906.71 1550.35 1887.79 1572.24 C 1879.43 1581.92 1869.8 1586.42 1857.26 1587.43 C 1849.34 1587.32 1842.97 1586.43 1835.64 1583.19 C 1816.33 1574.65 1798.51 1555.36 1791.38 1535.5 C 1781.79 1508.83 1795.65 1461.2 1807.42 1436.82 C 1815.64 1419.8 1825.99 1405.52 1844.5 1399.15 z"/>
<path transform="translate(0,0)" fill="rgb(213,210,202)" d="M 155.954 717.304 C 164.155 716.579 172.522 718.185 179.522 722.685 C 188.486 728.448 193.459 737.917 195.686 748.108 C 201.037 772.598 194.454 795.78 180.943 816.348 C 169.947 833.086 156.314 843.633 136.579 847.833 C 128.064 848.495 119.951 847.327 112.719 842.465 C 103.403 836.203 98.4206 825.382 96.6315 814.588 C 92.5912 790.21 100.691 762.158 115.121 742.383 C 125.375 728.331 138.635 719.919 155.954 717.304 z"/>
<path transform="translate(0,0)" fill="rgb(213,210,202)" d="M 801.983 153.169 C 810.254 152.704 817.744 152.653 825.44 156.166 C 834.384 160.249 840.85 168.224 844.172 177.36 C 849.228 191.267 847.542 207.728 841.154 220.923 C 833.481 236.774 821.281 245.952 804.854 251.534 C 795.43 252.834 786.729 252.454 778.282 247.604 C 769.074 242.318 762.961 232.929 760.412 222.761 C 756.636 207.694 760.36 190.243 768.468 177.13 C 776.349 164.386 787.496 156.543 801.983 153.169 z"/>
</svg>