<svg version="1.1" xmlns="http://www.w3.org/2000/svg" style="display: block;" viewBox="0 0 2048 2048" width="1024" height="1024">
<path transform="translate(0,0)" fill="rgb(254,253,245)" d="M 0 0 L 2048 0 L 2048 2048 L 0 2048 L 0 0 z"/>
<path transform="translate(0,0)" fill="rgb(86,32,36)" d="M 855.802 1317.8 C 869.026 1314.88 884.779 1308.19 898.238 1308.9 L 899.606 1309.88 C 897.752 1313.38 893.407 1314.73 889.84 1315.81 C 879.215 1319.02 867.032 1321.59 855.983 1322.65 L 855.802 1317.8 z"/>
<path transform="translate(0,0)" fill="rgb(86,32,36)" d="M 891.419 1272.72 C 892.499 1272.84 891.955 1272.7 893.249 1273.31 C 894.771 1274.02 894.489 1274.36 895.023 1275.86 C 889.82 1284.27 865.88 1300.52 856.539 1305.04 C 855.128 1304.76 855.608 1305.03 854.492 1304.16 C 853.23 1303.18 853.757 1303.7 853.497 1301.52 C 858.913 1294.28 883.051 1278.43 891.419 1272.72 z"/>
<path transform="translate(0,0)" fill="rgb(86,32,36)" d="M 858.62 1334.1 C 875.644 1337.09 895.141 1338.72 911.468 1344.2 C 914.008 1345.05 915.512 1345.49 916.713 1347.99 L 915.658 1350.99 C 907.644 1349.89 860.933 1343.19 857.275 1338.81 C 858.202 1337.51 858.539 1336.99 858.625 1335.33 C 858.647 1334.92 858.622 1334.51 858.62 1334.1 z"/>
<path transform="translate(0,0)" fill="rgb(86,32,36)" d="M 1216.64 385.94 C 1218.96 386.573 1219.09 386.732 1220.65 388.583 C 1220.6 390.005 1220.4 390.91 1219.63 392.125 L 1145.06 508.636 C 1195.15 500.048 1243.88 494.991 1294.74 494 C 1305.21 493.796 1317.57 492.395 1327.75 494.694 C 1329.73 495.142 1330.46 495.073 1331.57 496.863 C 1330.25 499.223 1328.66 500.403 1326.46 501.856 C 1319 506.785 1310.34 510.471 1302.62 515.117 A 2857.65 2857.65 0 0 0 1243.51 552.251 C 1197.54 581.839 1154.18 616.175 1112.69 651.673 C 1127.39 653.522 1142.19 654.449 1156.89 656.318 A 790.208 790.208 0 0 1 1240.4 671.224 C 1248.05 672.943 1258.63 673.992 1265.07 678.426 L 1265.26 680.72 C 1261.96 684.528 1241.31 690.887 1235.3 693.365 A 1703.26 1703.26 0 0 0 1149.31 731.548 A 2333.84 2333.84 0 0 0 870.453 894.725 C 859.742 901.914 806.915 940.351 799.09 941.62 L 798.062 940.512 C 800.249 931.603 812.254 921.151 818.176 913.912 C 874.507 845.053 936.738 785.054 1005.37 728.645 C 985.211 729.682 964.963 733.02 944.975 735.738 C 913.822 739.974 882.796 744.257 851.792 749.518 C 834.661 752.425 817.467 756.618 800.23 758.545 C 807.314 738.086 836.424 700.971 850.521 682.912 A 1026.94 1026.94 0 0 1 1216.64 385.94 z"/>
<path transform="translate(0,0)" fill="rgb(247,225,142)" d="M 1204.83 398.924 L 1205.18 399.231 C 1205.31 399.711 1205.66 400.182 1205.57 400.671 C 1204.9 404.242 1140.61 501.543 1132.35 517.641 C 1150.66 515.735 1169.17 510.659 1187.57 508.198 C 1229.44 502.599 1271.12 500.811 1313.32 501.029 C 1294.24 514.842 1272.39 525.771 1252.5 538.529 C 1202.45 570.629 1152.04 606.266 1108.15 646.488 C 1105.56 648.869 1102.34 651.52 1102.19 655.284 C 1103.95 657.446 1106.3 657.849 1108.94 658.223 C 1119.17 659.671 1129.7 660.09 1139.99 661.319 C 1176.71 665.705 1213.3 670.868 1248.98 680.747 C 1195.84 700.274 1145.39 724.972 1095.38 751.357 A 2392.58 2392.58 0 0 0 882.453 877.73 A 1199.17 1199.17 0 0 0 820.151 921.243 C 861.042 871.348 906.73 825.3 954.007 781.483 A 828.124 828.124 0 0 1 986.27 753.062 C 996.824 744.389 1014.9 733.688 1022.49 722.687 L 1021.3 721.111 C 1003.47 716.455 841.076 743.998 812.59 749.828 C 826.199 727.368 841.722 706.593 857.585 685.702 C 950.26 563.662 1069.93 470.064 1204.83 398.924 z"/>
<path transform="translate(0,0)" fill="rgb(215,187,159)" d="M 828.945 1774.58 C 857.634 1772.35 887.342 1773.4 916.156 1773.31 A 7634.08 7634.08 0 0 1 1097.39 1775.08 L 1200.78 1777.84 C 1221.61 1778.32 1243.5 1777.46 1264.17 1779.75 C 1270.84 1785.7 1277.07 1792.17 1283.87 1797.95 C 1249.77 1806.85 1214.27 1822.82 1195.77 1854.42 C 1192.86 1859.39 1189.48 1865.53 1190.82 1871.51 C 1191.72 1875.55 1194.79 1878.15 1198.27 1880.06 C 1236.98 1901.26 1399.33 1895.9 1448.22 1890.72 C 1465.83 1888.86 1483.75 1886.11 1500.64 1880.75 C 1509.71 1877.87 1521.17 1873.96 1525.83 1865.03 C 1529.57 1857.85 1529.47 1848.65 1529.96 1840.74 A 998.567 998.567 0 0 1 1571.2 1831.92 C 1613.83 1853.69 1726.97 1856.76 1771.87 1842.52 C 1785.57 1838.17 1793.68 1832.43 1801.18 1819.81 C 1808.4 1823.49 1829.21 1825.08 1838.33 1826.74 C 1861.56 1830.99 1886.41 1835.94 1908.18 1845.33 C 1914.04 1847.85 1920.92 1851.72 1923.2 1858.1 C 1924.16 1860.78 1924.46 1863.7 1922.91 1866.25 C 1916.39 1877.05 1891.3 1883.72 1879.46 1887.51 C 1830.95 1903.03 1777.77 1909.43 1727.33 1915.88 A 4219.32 4219.32 0 0 1 1406.58 1941.74 A 7592.7 7592.7 0 0 1 1087.17 1948.57 A 10825.2 10825.2 0 0 1 552.487 1933.74 A 4147.25 4147.25 0 0 1 362.378 1920.59 C 305.722 1915.22 247.728 1908.3 192.589 1893.77 C 179.997 1890.45 165.255 1886.8 153.774 1880.51 C 148.009 1877.35 142.273 1873.04 140.36 1866.54 C 140.815 1863.49 141.121 1862.71 143.06 1860.32 C 174.603 1821.5 406.173 1802.03 464.218 1795.37 L 479.042 1803.24 C 460.491 1817.72 445.133 1831.98 433.298 1852.62 C 426.632 1864.24 416.71 1883.22 420.809 1896.89 C 422.595 1902.85 427.052 1907.32 432.469 1910.17 C 444.317 1916.4 460.002 1914.91 472.459 1911.12 C 513.574 1898.59 555.944 1855.28 575.516 1817.99 C 591.003 1816.58 606.498 1816.12 621.983 1814.46 C 655.142 1810.88 686.213 1803.12 717.818 1792.6 C 721.064 1796.86 724.428 1800.51 728.577 1803.92 C 763.04 1832.27 829.848 1864.73 875.88 1859.01 C 880.516 1858.43 885.536 1856.91 888.435 1852.99 C 891.107 1849.37 891.234 1844.75 890.382 1840.5 C 885.154 1814.42 849.787 1788 828.945 1774.58 z"/>
<path transform="translate(0,0)" fill="rgb(86,32,36)" d="M 1498.56 75.4034 C 1506.43 74.0786 1515.52 74.5529 1523.48 74.7106 C 1588.37 75.9959 1647.52 101.956 1692.59 148.753 A 231.423 231.423 0 0 1 1757.2 313.597 A 232.409 232.409 0 0 1 1686.33 477.618 A 234.434 234.434 0 0 1 1547.41 541.315 C 1531.4 542.852 1515.48 542.33 1499.43 541.959 C 1487.15 554.312 1473.32 573.352 1461.87 587.417 C 1443.66 609.789 1424.76 631.663 1406.83 654.245 A 1413.68 1413.68 0 0 1 1355.77 718.467 C 1354.01 720.571 1353.3 721.696 1350.52 722.011 C 1349.64 719.012 1350.61 716.338 1351.47 713.429 C 1355.15 701.034 1360.67 689.031 1365 676.803 C 1383.38 624.863 1404.26 573.883 1422.94 522.034 C 1407.34 515.331 1392.9 505.572 1379.78 494.898 A 247.722 247.722 0 0 1 1289.18 327.938 C 1283.03 266.075 1300.32 204.457 1340.08 156.172 C 1379.83 107.904 1437.08 81.3468 1498.56 75.4034 z"/>
<path transform="translate(0,0)" fill="rgb(254,253,245)" d="M 1546.14 233.381 C 1561.85 232.297 1578.57 237.277 1591.12 246.734 A 68.742 68.742 0 0 1 1617.79 292.107 A 69.0807 69.0807 0 0 1 1604.3 343.364 C 1591.18 360.623 1573.34 368.633 1552.29 371.406 A 66.2291 66.2291 0 0 1 1506.6 357.451 A 69.5959 69.5959 0 0 1 1479.88 310.305 C 1477.75 292.771 1483.28 273.612 1494.25 259.789 C 1507.11 243.581 1526.01 235.699 1546.14 233.381 z"/>
<path transform="translate(0,0)" fill="rgb(86,32,36)" d="M 1539.1 253.117 C 1550.66 252.081 1562.41 252.754 1573.07 257.76 C 1583.95 262.875 1591.59 271.996 1595.64 283.243 A 50.1605 50.1605 0 0 1 1593.42 323.045 C 1586.17 337.377 1574.3 344.732 1559.46 349.303 C 1547.59 350.864 1536 350.271 1525.17 344.598 A 50.5489 50.5489 0 0 1 1500.28 314.16 C 1496.72 301.774 1498.58 288.703 1505.04 277.602 C 1512.7 264.46 1524.59 256.702 1539.1 253.117 z"/>
<path transform="translate(0,0)" fill="rgb(254,253,245)" d="M 1542.33 260.188 C 1551.14 259.206 1559.73 259.62 1567.87 263.465 C 1577.75 268.127 1584.99 277.041 1588.57 287.257 C 1592.35 298.029 1591.95 310.133 1586.62 320.31 C 1580.47 332.043 1570.12 338.288 1557.78 341.844 C 1547.4 343.539 1536.98 342.619 1527.64 337.513 A 40.4621 40.4621 0 0 1 1507.95 311.603 C 1505.12 300.317 1506.88 287.882 1513.21 278.064 C 1520.25 267.147 1530.12 262.766 1542.33 260.188 z"/>
<path transform="translate(0,0)" fill="rgb(230,107,85)" d="M 1513.38 93.4287 C 1519.46 93.2227 1525.46 93.2104 1531.53 93.567 C 1589.35 96.9656 1645.39 122.478 1683.92 166.083 C 1723.87 211.293 1741.57 269.149 1737.84 328.921 C 1704.49 321.695 1670.91 312.785 1638.05 303.539 C 1634.95 276.12 1629.79 258.182 1610.5 238.035 C 1609.34 236.865 1608.17 235.753 1606.92 234.681 C 1589.43 219.693 1566.86 210.854 1543.64 212.823 C 1513.17 215.408 1491.9 231.199 1472.9 253.853 C 1425.81 237.685 1378.35 222.063 1332.01 203.824 C 1338.68 188.155 1348.86 173.485 1360.28 160.916 C 1401.04 116.063 1454.07 96.4763 1513.38 93.4287 z"/>
<path transform="translate(0,0)" fill="rgb(254,253,245)" d="M 1312.61 248.711 C 1342.74 260.064 1373.38 270.421 1403.93 280.568 C 1422.41 286.705 1441.24 293.671 1460.21 298.066 C 1460.63 305.217 1460.86 312.443 1462.3 319.476 C 1466.99 342.373 1480.67 363.505 1500.39 376.251 C 1519.72 388.74 1544.65 393.013 1567.08 388.14 C 1591.31 382.876 1609.05 368.712 1622.35 348.238 C 1657.46 358.599 1693.09 366.318 1728.55 375.291 C 1721.05 402.285 1706.4 428.151 1688.59 449.646 C 1653.27 492.278 1598.54 519.114 1543.76 524.16 C 1527.68 526.309 1510.78 524.761 1494.64 523.857 C 1481.44 536.519 1470.25 552.871 1459.09 567.386 C 1430.72 604.262 1404.18 642.456 1376.32 679.674 C 1381.23 667.184 1387.3 655.039 1392.62 642.691 A 6158.98 6158.98 0 0 0 1426.61 561.671 C 1433.02 546.128 1441.15 529.761 1445.07 513.399 C 1434.68 506.565 1422.36 501.904 1411.56 495.538 C 1384.26 479.456 1358.55 453.155 1341.66 426.42 C 1306.91 371.396 1298.46 311.664 1312.61 248.711 z"/>
<path transform="translate(0,0)" fill="rgb(86,32,36)" d="M 608.995 1144.97 C 601.1 1133.59 593.655 1122.03 587.301 1109.71 C 573.469 1082.89 560.251 1055.21 550.461 1026.63 C 534.103 978.858 526.758 924.527 524.758 874.257 C 524.207 860.434 521.641 840.608 525.827 827.441 C 527.544 826.316 527.998 826.249 530.014 826.399 C 541.102 827.222 565.982 853.941 573.358 862.217 C 641.632 938.821 670.904 1043.73 665.221 1144.9 C 688.819 1148.58 712.437 1155.08 733.973 1165.55 C 782.401 1189.11 803.132 1213.4 829.47 1258.82 C 835.559 1269.32 842.78 1280.2 847.43 1291.35 C 850.941 1299.77 852.364 1308.28 855.357 1316.6 L 855.802 1317.8 L 855.983 1322.65 C 855.89 1327.33 856.758 1332.51 856.226 1337.06 C 855.528 1343.05 853.108 1349.58 851.241 1355.31 C 840.775 1387.41 822.57 1412.54 798.707 1436.03 C 825.166 1467.03 853.505 1511.54 850.185 1553.82 C 849.178 1566.64 844.756 1579.7 836.75 1589.86 C 853.542 1633.76 867.425 1689.58 847.607 1734.67 C 841.339 1748.94 832.057 1760.47 821.036 1771.34 C 823.633 1772.47 826.232 1773.77 828.945 1774.58 C 849.787 1788 885.154 1814.42 890.382 1840.5 C 891.234 1844.75 891.107 1849.37 888.435 1852.99 C 885.536 1856.91 880.516 1858.43 875.88 1859.01 C 829.848 1864.73 763.04 1832.27 728.577 1803.92 C 724.428 1800.51 721.064 1796.86 717.818 1792.6 C 686.213 1803.12 655.142 1810.88 621.983 1814.46 C 606.498 1816.12 591.003 1816.58 575.516 1817.99 C 555.944 1855.28 513.574 1898.59 472.459 1911.12 C 460.002 1914.91 444.317 1916.4 432.469 1910.17 C 427.052 1907.32 422.595 1902.85 420.809 1896.89 C 416.71 1883.22 426.632 1864.24 433.298 1852.62 C 445.133 1831.98 460.491 1817.72 479.042 1803.24 L 464.218 1795.37 C 455.557 1789.89 447.435 1784.1 439.726 1777.34 C 417.88 1773.35 395.07 1771.95 372.971 1769.69 C 323.545 1764.62 271.84 1759.24 223.928 1745.63 C 218.167 1743.99 209.647 1741.48 206.854 1735.67 C 205.804 1733.49 206.708 1730.41 207.381 1728.19 C 210.528 1717.8 215.697 1707.54 219.98 1697.56 C 229.475 1675.43 239.64 1653.3 247.791 1630.64 A 1444.7 1444.7 0 0 0 186.103 1617.85 C 171.903 1615.32 154.4 1614.59 141.111 1609.05 C 139.512 1607.16 138.815 1606.5 138.531 1603.94 C 136.718 1587.59 190.465 1516.84 202.449 1501.77 C 212.66 1488.93 223.829 1476.85 233.958 1463.98 C 204.727 1441.51 175.081 1420.47 143.933 1400.72 C 134.102 1394.49 92.2424 1373.61 89.2338 1366.67 C 88.5665 1345.31 133.719 1269.16 147.264 1247.53 C 154.77 1235.54 186.877 1182.49 197.066 1180.15 C 200.867 1181.02 203.627 1182.77 206.693 1185.14 C 222.17 1197.09 235.793 1212.15 248.711 1226.75 C 296.08 1280.3 337.154 1342.43 364.418 1408.75 C 368.898 1419.65 375.465 1432.63 376.664 1444.38 C 377.039 1448.06 376.206 1450.06 373.603 1452.7 C 363.713 1462.7 345.895 1474.32 334.376 1484.41 C 303.127 1511.78 274.926 1540.44 247.975 1571.95 C 275.098 1579.83 337.37 1601.78 356.511 1622.04 C 349.476 1635.07 343.898 1648.93 337.902 1662.46 L 317.032 1708.58 C 345.138 1712.52 373.454 1717.3 401.77 1719.35 A 205.699 205.699 0 0 1 391.694 1674.83 C 382.367 1595.31 411.828 1502.72 461.122 1440.01 C 458.732 1437.24 456.594 1434.4 454.613 1431.33 C 429.402 1392.28 422.421 1338.34 432.122 1293.33 C 442.841 1243.6 474.936 1208.2 516.458 1181.16 C 445.066 1137.01 391.983 1065.31 358.978 989.233 A 450.533 450.533 0 0 1 327.043 883.267 C 325.745 875.81 322.828 865.125 325.678 857.904 C 328.637 856.479 331.047 857.337 334.06 858.463 C 359.174 867.839 385.139 885.555 406.511 901.678 C 492.659 966.665 549.543 1047.82 593.208 1145.64 C 598.461 1145.57 603.745 1145.21 608.995 1144.97 z"/>
<path transform="translate(0,0)" fill="rgb(107,79,72)" d="M 434.859 1509.66 C 449.146 1517.41 463.625 1524.73 477.974 1532.34 C 471.09 1539.14 464.621 1546.23 458.16 1553.42 L 451.84 1559.97 A 287.406 287.406 0 0 1 421.019 1545.83 A 1816.71 1816.71 0 0 0 434.859 1509.66 z"/>
<path transform="translate(0,0)" fill="rgb(107,79,72)" d="M 411.477 1584.53 C 425.219 1594.89 442.12 1602.38 457.408 1610.3 C 453.213 1617.15 448.141 1623.18 443.025 1629.35 C 440.123 1632.44 437.236 1635.28 433.933 1637.95 C 423.806 1635.42 414.043 1632.35 404.526 1628.04 A 1177.4 1177.4 0 0 1 411.477 1584.53 z"/>
<path transform="translate(0,0)" fill="rgb(107,79,72)" d="M 537.417 846.363 C 560.986 865.857 580.137 893.643 596.383 919.16 C 589.116 926.658 580.506 933.357 572.807 940.452 C 564.638 947.758 557.228 956.176 549.636 964.087 C 546.594 951.312 545.405 937.835 543.811 924.809 C 540.599 898.562 537.855 872.822 537.417 846.363 z"/>
<path transform="translate(0,0)" fill="rgb(254,253,245)" d="M 808.506 1781.89 L 809.825 1782.38 C 834.529 1791.88 865.519 1815.01 875.563 1840.24 C 876.357 1842.24 876.369 1842.29 875.551 1844.36 C 872.299 1843.33 866.459 1833.62 863.461 1830.67 C 852.996 1820.39 840.281 1811.08 825.949 1807.17 C 822.478 1806.22 816.177 1804.25 812.978 1806.07 C 816.744 1812.05 834.73 1819.33 841.53 1823.6 C 851.045 1829.8 858.797 1836.71 865.98 1845.49 C 823.893 1843.41 779.934 1823.72 745.415 1800.18 C 770.09 1800.03 787.261 1794.43 808.506 1781.89 z"/>
<path transform="translate(0,0)" fill="rgb(247,225,142)" d="M 805.986 1562.55 C 806.523 1562.84 807.104 1563.06 807.597 1563.42 C 820.53 1572.84 837.577 1640.62 839.685 1657.88 C 843.573 1689.7 841.925 1724.32 821.16 1750.4 C 802.783 1773.49 779.541 1783 750.843 1786.09 C 744.576 1786.3 738.28 1786.1 732.01 1786.03 C 764.468 1766.49 790.312 1747.73 809.396 1713.92 C 830.44 1676.65 830.993 1638.24 818.468 1598.06 C 814.845 1586.43 809.414 1575.32 806.255 1563.59 C 806.162 1563.25 806.076 1562.9 805.986 1562.55 z"/>
<path transform="translate(0,0)" fill="rgb(254,253,245)" d="M 491.303 1808.76 C 499.589 1809.43 508.333 1812.04 516.543 1813.61 C 530.786 1816.33 544.558 1817.74 559.056 1817.99 C 538.268 1853.63 511.017 1880.16 473.714 1897.97 C 479.255 1884.6 488.845 1870.37 498.262 1859.32 C 501.236 1855.83 505.798 1852.81 508.239 1849.06 C 509.367 1847.32 509.299 1847.16 508.929 1845.06 C 507.28 1844.71 507.705 1844.62 505.912 1845.1 C 491.521 1849 475.688 1876.43 468.998 1888.84 C 466.988 1893.31 465.627 1897.9 464.197 1902.58 C 456.755 1903.31 449.535 1903.75 442.057 1903.6 C 445.317 1895.16 449.154 1887.88 454.19 1880.36 A 309.108 309.108 0 0 1 465.997 1863.92 C 470.565 1858.07 484.393 1846.23 484.378 1838.87 L 482.814 1838.22 C 467.332 1842.61 450.882 1869.58 443.242 1883.21 C 440.417 1888.26 438.748 1894.1 435.205 1898.67 L 433.505 1897.82 C 431.494 1894.82 431.092 1892.74 431.658 1889.26 C 436.338 1860.4 468.062 1824.73 491.303 1808.76 z"/>
<path transform="translate(0,0)" fill="rgb(168,122,95)" d="M 254.383 1653.69 C 258.957 1671.67 257.544 1691.65 263.017 1709.25 C 263.604 1711.13 263.313 1711.3 265.081 1712.22 C 272.853 1705.22 288.745 1673.73 296.822 1662.58 C 297.262 1673.46 298.802 1710.61 303.638 1718.48 C 308.736 1726.77 393.282 1734.44 409.404 1737.43 L 413.968 1745.55 C 416.46 1749.9 419.267 1754.11 421.928 1758.35 C 356.119 1752.99 288.191 1744.53 224.065 1728.53 C 227.545 1718.26 232.626 1708.19 236.744 1698.11 C 242.77 1683.36 248.085 1668.33 254.383 1653.69 z"/>
<path transform="translate(0,0)" fill="rgb(107,79,72)" d="M 339.528 874.436 C 370.752 892.76 402.191 912.537 428.323 937.785 C 418.689 968.77 415.343 1001.95 410.813 1033.98 C 410.374 1039.78 409.34 1045.41 408.289 1051.12 C 378.28 1010.99 345.171 924.374 339.528 874.436 z"/>
<path transform="translate(0,0)" fill="rgb(247,225,142)" d="M 599.207 926.858 C 599.67 927.12 600.181 927.311 600.595 927.644 C 607.374 933.109 612.755 948.77 616.25 956.644 C 642.922 1016.74 652.798 1077.85 650.82 1143.39 C 642.677 1143.11 634.236 1142.68 626.134 1143.57 L 617.5 1130.92 C 584.58 1082.08 565.956 1027.41 550.654 971.112 C 565.094 955.117 581.677 939.425 599.207 926.858 z"/>
<path transform="translate(0,0)" fill="rgb(254,253,245)" d="M 705.367 1513.39 C 723.228 1511.87 739.397 1514.8 755.19 1523.54 C 784.765 1539.89 800.748 1574.21 809.469 1605.39 C 818.876 1639.03 818.313 1675.49 800.576 1706.35 C 772.544 1755.12 719.646 1777.86 667.762 1791.59 C 645.511 1796.49 623.367 1799.42 600.775 1802.14 A 113.014 113.014 0 0 0 605.269 1797.24 C 639.2 1757.76 636.703 1666.48 633.035 1616.42 C 643.799 1619.03 659.405 1623.86 669.666 1617.8 A 13.6599 13.6599 0 0 0 676.121 1608.83 C 680.38 1589.18 655.256 1550.28 644.714 1533.71 C 665.05 1523.09 682.322 1515.92 705.367 1513.39 z"/>
<path transform="translate(0,0)" fill="rgb(247,225,142)" d="M 198.205 1201.67 C 198.683 1201.79 199.177 1201.86 199.638 1202.03 C 208.364 1205.3 219.122 1218.62 225.735 1225.4 C 271.646 1272.47 315.439 1338.93 342.431 1398.69 C 348.961 1413.14 354.245 1428.26 359.468 1443.23 C 347.668 1454.55 333.883 1464.17 321.486 1474.87 C 291.572 1500.71 261.836 1529.1 237.078 1560 C 232.8 1565.34 227.965 1571.11 228.786 1578.34 C 230.78 1582.15 235.312 1584.03 239.075 1585.74 C 249.564 1590.49 261.048 1593.6 271.928 1597.38 C 294.052 1605.05 316.845 1613.78 337.189 1625.42 C 331.834 1638.72 326.146 1651.8 319.487 1664.5 C 314.853 1657.11 311.099 1648.48 305.614 1641.71 C 303.254 1638.8 301.037 1636.82 297.155 1636.44 C 293.993 1637.64 292.823 1640.35 291.147 1643.08 A 793.35 793.35 0 0 1 277.296 1664.55 C 274.014 1656.33 270.261 1647.69 268.522 1638.97 C 267.381 1633.25 270.819 1624.44 267.535 1619.63 C 263.809 1614.17 168.952 1599.41 156.892 1597.1 C 162.069 1586.21 169.54 1575.79 176.185 1565.75 A 729.738 729.738 0 0 1 222.548 1502.1 C 232.899 1489.41 244.359 1477.54 254.299 1464.55 C 232.527 1435.91 140.644 1379.28 106.302 1360 C 128.374 1304.77 162.467 1249.1 198.205 1201.67 z"/>
<path transform="translate(0,0)" fill="rgb(247,225,142)" d="M 432.666 943.425 C 446.876 954.229 459.178 967.456 471.12 980.655 C 512.556 1026.45 544.368 1076.6 569.826 1132.85 C 576.985 1148.66 593.434 1191.42 603.274 1202.13 L 604.87 1202.2 L 606.406 1200.31 C 608.539 1187.98 602.828 1173.16 599.205 1161.41 A 230.037 230.037 0 0 1 704.211 1170.59 C 740.345 1182.36 782.338 1206.25 800.109 1241.52 C 790.907 1255.77 782.424 1269.07 779.042 1285.92 L 782.422 1285.05 L 785.731 1288.01 C 795.013 1296.41 807.421 1304.11 820.38 1303.33 C 824.28 1303.1 827.287 1301.61 830.72 1299.92 C 830.126 1297.09 829.396 1294.71 828.292 1292.03 L 827.146 1292.01 A 192.479 192.479 0 0 1 825.526 1294.19 C 823.842 1296.41 822.992 1298.3 820.088 1298.7 C 814.652 1294.74 811.165 1268.56 808.28 1260.63 L 805.302 1252.38 L 806.616 1250.24 L 808.279 1250.75 C 818.963 1263.39 826.172 1278.82 833.064 1293.75 C 842.835 1311.89 843.371 1331.12 837.499 1350.64 C 825.802 1389.54 786.369 1436.93 750.909 1456.67 C 759.928 1458.47 770.869 1451.86 778.93 1448.22 L 786.672 1443.62 C 809.658 1473.38 839.582 1516.01 834.211 1555.87 C 833.214 1563.27 830.947 1569.35 827.782 1576.06 C 822.616 1566.63 817.819 1558.01 810.256 1550.3 C 805.699 1521.33 798.411 1479.19 780.582 1455.63 C 779.895 1454.72 779.227 1453.8 778.532 1452.9 C 777.388 1461.9 787.126 1481.03 789.645 1490.82 A 656.56 656.56 0 0 1 803.566 1564.82 C 801.858 1561.44 799.931 1558.21 797.913 1555 C 782.819 1531.02 760.445 1513.37 732.479 1507.28 C 699.158 1500.03 669.215 1510.24 641.347 1528.12 C 635.151 1520.64 616.088 1494.37 607.223 1493.01 C 607.336 1495.66 609.016 1497.88 610.499 1499.99 C 632.018 1530.55 646.348 1544.98 661.911 1581.58 C 664.583 1587.87 667.968 1594.62 668.653 1601.48 C 668.995 1604.9 668.602 1607.66 666.334 1610.28 C 648.02 1616.58 605.348 1597.24 589.644 1587.69 C 583.384 1583.88 575.88 1575.65 568.833 1574.3 L 568.213 1575.61 C 568.354 1576 568.46 1576.41 568.636 1576.79 C 577.387 1595.76 608.057 1607.89 626.148 1615.6 C 628.359 1634.51 628.558 1654.2 628.295 1673.23 C 627.829 1706.88 623.699 1752.94 607.121 1782.44 C 602.787 1790.15 597.333 1796.27 591.026 1802.41 L 580.25 1802.48 C 532.352 1802.54 479.796 1798.35 444.048 1762.21 C 411.494 1729.29 404.56 1681.14 405.001 1636.86 C 415.947 1641.1 426.793 1644.62 438.288 1647.05 C 448.888 1636.27 458.246 1622.07 464.355 1608.27 C 451.471 1596.38 428.632 1587.09 412.994 1578.95 C 414.938 1570.19 417.191 1561.6 419.687 1552.98 C 428.823 1557.05 441.299 1567.26 451.38 1566.49 C 461.149 1565.74 480.151 1541.15 486.554 1533.07 C 476.493 1521.28 450.626 1510.62 436.295 1503.52 C 445.038 1483.57 455.548 1465.41 467.443 1447.23 C 471.144 1447.68 473.778 1448.51 477.218 1446.92 C 478.377 1440.64 469.568 1432.07 466.164 1426.81 C 462.511 1421.17 460.235 1414.41 457.751 1408.19 C 443.857 1373.42 439.752 1333.09 447.533 1296.34 C 458 1246.91 489.353 1217.16 530 1190.45 C 540.589 1196.08 563.017 1211.63 574.325 1211.35 L 575.242 1209.86 C 570.316 1198.48 503.393 1154.74 488.479 1142.06 A 421.619 421.619 0 0 1 415.364 1061 C 417.351 1046.96 417.757 1032.63 419.479 1018.53 C 422.551 993.366 427.296 968.188 432.666 943.425 z"/>
<path transform="translate(0,0)" fill="rgb(86,32,36)" d="M 767.196 1217.56 C 769.087 1218.19 770.755 1219.07 772.268 1220.4 C 775.351 1223.11 776.863 1229.61 777.046 1233.52 A 37.0286 37.0286 0 0 1 768.044 1259.8 C 765.701 1259.42 764.302 1258.82 762.599 1257.09 C 758.219 1252.63 757.901 1242.7 758.339 1236.91 C 759.026 1227.86 760.393 1223.53 767.196 1217.56 z"/>
<path transform="translate(0,0)" fill="rgb(86,32,36)" d="M 642.273 1410.68 C 645.307 1409.51 648.079 1407.99 651.379 1408.78 C 652.053 1411.11 651.758 1411.31 650.573 1413.35 C 646.345 1420.63 638.511 1427.29 632.199 1432.78 C 626.037 1436.64 620.136 1442.53 614.305 1447.01 C 611.036 1449.52 605.656 1454.49 601.373 1453.93 C 600.791 1452.57 600.193 1451.91 600.511 1450.39 C 602.634 1440.23 633.098 1417.78 642.273 1410.68 z"/>
<path transform="translate(0,0)" fill="rgb(86,32,36)" d="M 637.959 1388.38 C 641.543 1388.05 643.386 1387.51 646.725 1388.98 L 647.066 1390.53 C 645.15 1392.98 643.759 1393.43 640.945 1394.48 C 621.793 1399.23 601.251 1404.29 581.487 1404.93 C 576.869 1405.08 569.956 1405.45 566.512 1402.18 L 567.112 1400.47 C 575.921 1393.78 624.431 1389.92 637.959 1388.38 z"/>
<path transform="translate(0,0)" fill="rgb(86,32,36)" d="M 637.909 1371.02 C 634.512 1369.75 578.539 1369.57 567.016 1367.74 C 564.395 1367.32 563.25 1366.91 561.776 1364.73 C 562.158 1363.13 561.994 1362.51 563.359 1361.39 C 573.139 1353.37 630.931 1363.06 646.309 1365.02 C 645.467 1367.8 645.545 1369.1 643.147 1370.83 L 637.909 1371.02 z"/>
<path transform="translate(0,0)" fill="rgb(86,32,36)" d="M 697.701 1221.87 C 703.9 1221.73 707.287 1222.25 712.743 1225.39 C 723.539 1231.62 735.828 1242.82 738.59 1255.35 C 739.357 1258.84 738.948 1260.26 737.071 1263.25 C 734.497 1262.84 731.714 1262.49 729.343 1261.36 C 720.449 1257.1 700.213 1236.51 696.949 1226.91 C 696.132 1224.51 696.666 1224.05 697.701 1221.87 z"/>
<path transform="translate(0,0)" fill="rgb(86,32,36)" d="M 670.873 1328.1 C 662.784 1324.17 655.66 1319.7 649.471 1313.07 C 632.418 1294.81 633.33 1273.84 634.065 1250.49 C 635.559 1249.49 634.805 1249.7 636.782 1249.74 C 651.122 1249.98 737.638 1277.8 744.137 1287.63 C 746.209 1290.77 745.5 1297.17 745.264 1300.7 C 744.899 1301 744.526 1301.29 744.167 1301.59 C 741.23 1304.11 739.771 1308.69 737.512 1311.85 C 728.04 1325.09 709.333 1333.11 693.51 1332.68 C 685.8 1332.47 678.214 1330.31 670.873 1328.1 z"/>
<path transform="translate(0,0)" fill="rgb(254,253,245)" d="M 642.398 1259.72 C 661.03 1265.71 679.608 1271.58 698.505 1276.7 C 696.168 1282.45 694.166 1288.07 693.635 1294.31 C 692.645 1305.95 696.558 1314.7 703.738 1323.48 L 704.885 1324.41 C 702.676 1325.15 700.62 1324.98 698.338 1324.86 C 682.721 1324.05 666.639 1318.93 656.14 1306.84 C 644.943 1293.96 641.321 1276.36 642.398 1259.72 z"/>
<path transform="translate(0,0)" fill="rgb(254,253,245)" d="M 830.72 1299.92 C 830.126 1297.09 829.396 1294.71 828.292 1292.03 L 827.146 1292.01 A 192.479 192.479 0 0 1 825.526 1294.19 C 823.842 1296.41 822.992 1298.3 820.088 1298.7 C 814.652 1294.74 811.165 1268.56 808.28 1260.63 L 805.302 1252.38 L 806.616 1250.24 L 808.279 1250.75 C 818.963 1263.39 826.172 1278.82 833.064 1293.75 C 842.835 1311.89 843.371 1331.12 837.499 1350.64 C 825.802 1389.54 786.369 1436.93 750.909 1456.67 C 745.929 1456.69 740.14 1458.29 735.173 1459.03 C 726.583 1460.31 718.158 1460.06 709.529 1459.23 C 684.978 1456.88 664.861 1449.13 642.925 1438.56 C 639.482 1436.9 634.624 1435.73 632.199 1432.78 C 638.511 1427.29 646.345 1420.63 650.573 1413.35 C 651.758 1411.31 652.053 1411.11 651.379 1408.78 C 648.079 1407.99 645.307 1409.51 642.273 1410.68 C 642.123 1405.17 641.909 1399.92 640.945 1394.48 C 643.759 1393.43 645.15 1392.98 647.066 1390.53 L 646.725 1388.98 C 643.386 1387.51 641.543 1388.05 637.959 1388.38 C 637.62 1383.14 636.357 1376.01 637.909 1371.02 L 643.147 1370.83 C 645.545 1369.1 645.467 1367.8 646.309 1365.02 C 648.111 1353.06 663.521 1337.46 670.873 1328.1 C 678.214 1330.31 685.8 1332.47 693.51 1332.68 C 709.333 1333.11 728.04 1325.09 737.512 1311.85 C 739.771 1308.69 741.23 1304.11 744.167 1301.59 C 744.526 1301.29 744.899 1301 745.264 1300.7 C 756.334 1295.3 768.115 1291.42 779.042 1285.92 L 782.422 1285.05 L 785.731 1288.01 C 795.013 1296.41 807.421 1304.11 820.38 1303.33 C 824.28 1303.1 827.287 1301.61 830.72 1299.92 z"/>
<path transform="translate(0,0)" fill="rgb(86,32,36)" d="M 791.157 1311.94 C 794.027 1312.39 797.928 1312.95 799.884 1315.3 C 801.344 1317.06 801.744 1318.71 801.642 1320.93 C 801.36 1327.02 795.748 1332.5 791.416 1336.17 C 790.287 1336.16 788.645 1336.27 787.517 1335.96 C 785.095 1335.3 783.075 1333.77 781.899 1331.52 C 780.597 1329.04 780.773 1326.16 781.476 1323.54 C 783.042 1317.71 786.079 1314.9 791.157 1311.94 z"/>
<path transform="translate(0,0)" fill="rgb(86,32,36)" d="M 789.632 1366.74 L 791.432 1368.38 C 793.055 1375.98 778.426 1407.68 773.924 1415.58 L 774.082 1414.7 L 774.363 1413.24 C 776.37 1402.39 779.577 1391.92 782.655 1381.33 A 623.601 623.601 0 0 0 761.494 1388.74 C 759.03 1394.49 757.39 1400.77 755.513 1406.75 C 752.208 1416.57 749.342 1426.48 744.478 1435.68 C 743.896 1426.14 753.948 1387.53 758.577 1378.09 L 759.679 1378.23 C 760.291 1378.3 760.905 1378.36 761.517 1378.43 C 764.909 1378.85 767.9 1379.56 771.124 1378.08 C 771.51 1377.9 771.885 1377.7 772.269 1377.51 C 778.496 1374.54 783.978 1370.66 789.632 1366.74 z"/>
<path transform="translate(0,0)" fill="rgb(86,32,36)" d="M 1159.26 1092.14 C 1166.77 1085.05 1176.05 1080.57 1182.7 1072.52 C 1209.08 1040.56 1188.49 997.689 1216.32 955.446 C 1243.05 914.889 1286.46 889.41 1326.88 864.54 C 1387.85 827.032 1445.5 793.87 1513.99 771.628 C 1535.52 764.634 1557.67 759.347 1579.6 753.756 C 1619.12 743.685 1664.63 734.762 1705.42 735.928 C 1713.12 736.148 1727.06 736.141 1732.16 742.808 C 1734.01 745.228 1733.99 748.346 1733.15 751.138 C 1728.51 766.549 1650.61 811.197 1633.25 825.989 C 1668.46 824.48 1703.48 823.726 1738.72 825.319 C 1773.19 826.877 1908.09 840.438 1930.83 860.673 C 1933.51 863.055 1935.11 865.618 1935.26 869.293 C 1935.48 874.55 1930.89 879.705 1927.22 882.889 C 1916.92 891.831 1902.56 897.285 1890.26 902.954 C 1831.77 929.925 1771.65 947.053 1708.3 957.965 C 1688.36 961.399 1668.63 964.853 1648.39 965.996 C 1654.61 977.829 1662.34 989.286 1667.69 1001.51 C 1677.08 1022.99 1683.67 1045.79 1691.29 1067.95 C 1697.84 1086.96 1705.66 1106.03 1714 1124.31 C 1733.31 1166.69 1755.35 1207.59 1775.65 1249.47 A 1728.85 1728.85 0 0 1 1818.94 1348.93 A 435.27 435.27 0 0 1 1834.89 1398.33 C 1837.47 1407.91 1839.45 1417.81 1842.66 1427.19 C 1847.3 1440.76 1855.45 1452.96 1860.48 1466.44 C 1881.04 1521.61 1889.78 1586.62 1871.92 1643.66 A 232.92 232.92 0 0 1 1797.06 1755.14 C 1805.86 1770.36 1808.68 1793.61 1804.2 1810.63 C 1803.37 1813.76 1802.42 1816.83 1801.18 1819.81 C 1793.68 1832.43 1785.57 1838.17 1771.87 1842.52 C 1726.97 1856.76 1613.83 1853.69 1571.2 1831.92 A 998.567 998.567 0 0 0 1529.96 1840.74 C 1529.47 1848.65 1529.57 1857.85 1525.83 1865.03 C 1521.17 1873.96 1509.71 1877.87 1500.64 1880.75 C 1483.75 1886.11 1465.83 1888.86 1448.22 1890.72 C 1399.33 1895.9 1236.98 1901.26 1198.27 1880.06 C 1194.79 1878.15 1191.72 1875.55 1190.82 1871.51 C 1189.48 1865.53 1192.86 1859.39 1195.77 1854.42 C 1214.27 1822.82 1249.77 1806.85 1283.87 1797.95 C 1277.07 1792.17 1270.84 1785.7 1264.17 1779.75 C 1228.73 1741.05 1206.21 1695.54 1208.35 1641.89 C 1210.28 1593.28 1231.95 1550.84 1267.46 1518.14 A 215.716 215.716 0 0 1 1288.29 1501.22 C 1242.44 1496.54 1195.55 1489.38 1154.05 1467.88 C 1149.07 1471.03 1144.14 1474.42 1138.85 1477.02 C 1132.6 1467.67 1127.92 1457.8 1123.48 1447.49 C 1118.26 1449.42 1110.59 1453.47 1105.07 1451.44 C 1103.37 1450.82 1103.51 1450.08 1102.82 1448.56 C 1103.79 1441.99 1108.31 1437.32 1112.32 1432.3 C 1105.73 1426.6 1097.57 1422.57 1090.02 1418.26 C 1097.5 1409.58 1105.24 1401.12 1112.75 1392.47 C 1106.57 1388.6 1097.63 1385.24 1092.67 1380.12 C 1092.34 1377.96 1092.39 1377.78 1093.83 1376.08 C 1099.12 1369.84 1113.36 1365.29 1121.23 1363.75 C 1119.03 1358.93 1114.98 1352.54 1116.78 1347.17 C 1117.37 1345.44 1118.16 1345.29 1119.57 1344.31 C 1127.9 1342.72 1140.72 1347.09 1149.25 1348.7 C 1150.62 1340.31 1152.96 1333.42 1156.78 1325.82 C 1165.27 1331.65 1172.52 1338.76 1179.62 1346.17 C 1201.88 1339.13 1223.77 1327.71 1245.08 1318.2 C 1268.56 1307.72 1293.18 1298.25 1315.57 1285.62 C 1297.14 1279.19 1279.35 1272.51 1262.19 1263.04 C 1225.44 1242.78 1188.61 1207.56 1170.14 1169.46 C 1158.22 1144.86 1156.44 1118.99 1159.26 1092.14 z"/>
<path transform="translate(0,0)" fill="rgb(230,107,85)" d="M 1207.84 1175.41 C 1211.89 1176.22 1215.07 1177.74 1218.39 1180.23 C 1234.87 1192.57 1245.39 1214.49 1248.01 1234.49 C 1246.43 1233.73 1244.95 1232.98 1243.45 1232.06 C 1220 1217.75 1213.94 1201.01 1207.84 1175.41 z"/>
<path transform="translate(0,0)" fill="rgb(107,79,72)" d="M 1709.29 752.522 L 1710.22 752.527 C 1708.1 757.502 1641.02 798.937 1629.98 806.957 C 1621.35 813.231 1613.52 819.816 1605.93 827.336 C 1600.57 828.538 1587.25 832.828 1582.21 830.312 L 1582.39 827.776 C 1586.18 806.535 1587.46 791.484 1577.98 771.532 C 1620.14 759.631 1665.56 753.69 1709.29 752.522 z"/>
<path transform="translate(0,0)" fill="rgb(247,225,142)" d="M 1564.8 774.266 L 1567.93 774.307 C 1569.18 775.412 1570.31 776.422 1571.14 777.898 C 1579.76 793.215 1575.06 817.123 1571.08 832.998 C 1559.69 834.724 1548.25 836.487 1537.06 839.259 C 1526.11 841.969 1514.3 846.598 1503.02 847.107 C 1492.83 847.567 1481.33 844.394 1471.01 843.694 C 1447.64 842.11 1425.45 843.979 1402.41 847.572 L 1385.12 851.095 C 1434.6 816.728 1505.91 787.813 1564.8 774.266 z"/>
<path transform="translate(0,0)" fill="rgb(107,79,72)" d="M 1782.16 844.65 C 1815.08 848.621 1887.75 855.971 1915.33 869.14 L 1915.57 870.318 C 1912.63 876.368 1905.55 877.656 1900.05 880.611 C 1876.33 893.342 1849.68 903.4 1824.22 912.123 C 1801.3 922.488 1742.22 936.2 1716.38 939.272 C 1723.66 935.113 1730.48 930.053 1736.92 924.717 C 1764.09 902.235 1778.76 880.001 1782.16 844.65 z"/>
<path transform="translate(0,0)" fill="rgb(168,122,95)" d="M 1754.99 1247.35 C 1766.35 1264.9 1774.27 1285.75 1781.86 1305.19 C 1700.47 1316.12 1628.53 1340.35 1555.99 1379.11 C 1549.69 1382.62 1543.28 1385.67 1536.72 1388.65 C 1578.51 1334.45 1632.55 1291.38 1696.73 1266.46 C 1715.42 1259.2 1735.55 1255.44 1753.9 1247.82 C 1754.26 1247.67 1754.62 1247.51 1754.99 1247.35 z"/>
<path transform="translate(0,0)" fill="rgb(247,225,142)" d="M 1302.03 1811.26 C 1306.45 1810.83 1317.06 1817.93 1321.36 1819.96 A 274.835 274.835 0 0 0 1370.32 1837.61 C 1416.83 1849.49 1463.83 1847.13 1511.06 1842.37 C 1511.31 1845.71 1511.72 1849.21 1511.6 1852.55 C 1511.51 1855.1 1510.5 1857.16 1508.6 1858.89 C 1484.05 1881.35 1332.74 1877.72 1295.41 1876.88 A 1367.77 1367.77 0 0 1 1234.32 1872.79 C 1241.43 1859.25 1250.59 1848.33 1264.7 1841.8 C 1283 1833.34 1303.11 1834 1321.76 1840.73 C 1318.35 1836.52 1315.42 1833.11 1310.63 1830.47 C 1287.92 1817.99 1254.61 1828.08 1236.62 1845.03 C 1230.24 1851.04 1221.87 1868.16 1214.98 1870.11 C 1213.07 1869.42 1212.24 1869.04 1211.35 1867.1 C 1210.23 1864.65 1212.98 1860.88 1214.27 1858.88 C 1233.46 1829.27 1269.45 1818.21 1302.03 1811.26 z"/>
<path transform="translate(0,0)" fill="rgb(168,122,95)" d="M 1809.69 1395.36 C 1811.54 1394.94 1813.15 1394.97 1815.05 1394.93 C 1820.77 1400.85 1826.94 1442.91 1828.5 1453.41 C 1752.24 1450.33 1638.67 1487.14 1569.4 1519.18 L 1554.98 1525.47 C 1621.12 1450.34 1711.36 1408.95 1809.69 1395.36 z"/>
<path transform="translate(0,0)" fill="rgb(247,225,142)" d="M 1849.11 1484.78 C 1858.1 1500.16 1864.64 1555.64 1864.85 1573.42 C 1865.07 1591.71 1863.39 1610.6 1858.82 1628.33 C 1843.24 1688.7 1797.34 1748.11 1738.91 1772.21 C 1729.59 1776.05 1693.47 1783.76 1689.62 1787.72 L 1689.82 1790.01 C 1690.9 1790.86 1691.89 1791.55 1693.26 1791.87 C 1699.09 1793.22 1706.71 1791.91 1712.6 1791.11 C 1738.58 1787.56 1761.21 1779.28 1783.7 1765.95 C 1786.22 1771.55 1788.2 1776.99 1789.31 1783.06 C 1791.23 1793.54 1791.17 1805.82 1784.71 1814.77 C 1775.06 1828.15 1753.72 1829.45 1738.66 1831.73 A 462.972 462.972 0 0 1 1596.55 1823.65 C 1661.38 1801.92 1718.71 1770.31 1767.12 1721.61 C 1813.83 1674.62 1842.52 1618.23 1848.08 1551.72 C 1849.94 1529.53 1849.17 1507.03 1849.11 1484.78 z"/>
<path transform="translate(0,0)" fill="rgb(247,225,142)" d="M 1659.64 841.435 C 1696.91 840.346 1735.22 840.134 1772.29 844.307 C 1771.66 849.271 1770.98 854.196 1769.76 859.054 C 1761.07 893.589 1731.89 921.451 1702.07 938.97 C 1681.03 951.328 1627.09 954.95 1603.24 948.875 C 1616.85 963.304 1630.19 967.697 1641.65 986.727 C 1656.73 1011.76 1665.19 1041.69 1674.49 1069.28 A 667.863 667.863 0 0 0 1694.79 1123.24 C 1703.49 1143.82 1713.61 1164.26 1723.93 1184.07 C 1733.26 1201.96 1744.79 1220.58 1750.24 1240.09 C 1728.79 1243.37 1707.95 1250.63 1688.02 1259.08 C 1631.41 1283.07 1576.29 1322.1 1538.5 1370.93 C 1531.46 1380.02 1523.47 1389.96 1519.4 1400.79 C 1518.23 1403.91 1517.83 1405.67 1519.24 1408.72 C 1522.53 1409.91 1524.66 1408.52 1527.45 1406.66 C 1538.14 1399.57 1549.57 1393.7 1560.85 1387.62 C 1629.55 1350.64 1708.01 1322.59 1785.96 1314.73 C 1797 1337.27 1805.41 1362.17 1813.27 1385.98 C 1790.91 1388.48 1769.21 1391.17 1747.4 1396.96 C 1680.75 1414.67 1604.26 1455.5 1558.77 1507.74 C 1552.78 1514.62 1544.57 1523.01 1540.41 1531.01 C 1538.92 1533.86 1538.69 1536.01 1539.56 1539.05 C 1544.28 1541.23 1551.12 1536.68 1555.62 1534.65 C 1637.45 1497.78 1739.13 1463.31 1829.93 1463.78 A 940.239 940.239 0 0 1 1831.59 1493.44 C 1834.88 1575.2 1820.98 1638.51 1763.71 1700.37 C 1687.62 1782.57 1576.93 1824.78 1466.25 1829 C 1437.51 1829.7 1408.97 1828.67 1380.82 1822.25 C 1327.1 1810.01 1279.31 1782.43 1249.66 1734.87 A 164.974 164.974 0 0 1 1229.59 1611.9 C 1240.79 1563.72 1274.59 1528.56 1315.67 1503.05 C 1345.87 1503.08 1375.18 1500.44 1404.51 1492.96 C 1422.23 1488.45 1473.96 1469.4 1482.68 1452.66 C 1483.63 1450.83 1483.39 1451.63 1482.8 1449.35 C 1475.57 1450.6 1463.18 1460.57 1454.81 1463.62 C 1358.68 1498.59 1241.16 1492.86 1148.39 1450.17 C 1145.65 1453.56 1143.44 1457.32 1141.13 1461.01 C 1136.43 1451.43 1131.13 1442.85 1125.24 1434.01 C 1125.26 1432.51 1125.43 1430.61 1124.99 1429.16 C 1123.46 1424.17 1112.4 1418.37 1107.98 1415.45 C 1113.08 1411.4 1119.16 1406.89 1123.44 1402.01 C 1125.65 1399.49 1127.05 1396.81 1126.72 1393.38 C 1126.11 1386.85 1118.24 1382.45 1113.48 1378.93 C 1121.01 1375.68 1128.61 1373.82 1136.55 1371.87 C 1134.22 1366.45 1131.84 1361.56 1128.61 1356.61 C 1135.25 1359.13 1143.15 1362.73 1150.27 1363.13 C 1166.5 1364.04 1156.69 1352.12 1162.9 1346.19 L 1165.32 1346.36 C 1168.97 1350.45 1168 1357.3 1171.43 1361.33 C 1172.35 1362.41 1173.27 1363.36 1174.74 1363.42 C 1187.39 1363.96 1329.85 1295.85 1349.46 1286.34 C 1360.71 1280.89 1371.65 1274.73 1382.93 1269.34 C 1395.23 1263.48 1419.88 1254.97 1429.37 1247.47 C 1431.2 1246.02 1430.77 1246.79 1431.04 1244.8 C 1416.09 1240.68 1356.45 1268.7 1341.3 1275.84 C 1312.89 1268.16 1284.49 1258.11 1259.54 1242.33 A 121.002 121.002 0 0 0 1247.52 1201.29 C 1238.47 1183.37 1226.71 1170.73 1207.3 1164.39 C 1200.4 1166.35 1195.82 1169.43 1190.2 1173.72 C 1180.66 1159.53 1175.25 1141.83 1174.74 1124.81 C 1183.44 1115.93 1198.36 1108.88 1204.42 1098.07 C 1205.48 1096.18 1205.25 1097.03 1204.65 1094.73 C 1200.57 1091.31 1195.46 1089.45 1190.63 1087.3 C 1208.68 1064.08 1212.37 1043.7 1214.24 1015.13 C 1214.87 1005.51 1215.52 995.999 1218.46 986.764 C 1223.37 971.312 1233.33 957.998 1244.13 946.152 C 1295.39 889.944 1375.44 860.976 1450.79 860.786 C 1469.15 860.74 1490.52 866.534 1507.95 864.521 C 1522.26 862.869 1536.43 855.613 1550.72 852.719 C 1586.29 845.516 1623.47 843.199 1659.64 841.435 z"/>
<path transform="translate(0,0)" fill="rgb(86,32,36)" d="M 1396.07 963.956 C 1398.58 963.91 1398.78 963.561 1400.98 965.002 C 1397.65 972.52 1361.11 989.877 1352.16 994.959 C 1353.65 998.717 1355.16 1002.49 1356.44 1006.33 C 1363.39 1027.15 1362.63 1053.21 1352.61 1072.94 C 1344.65 1088.62 1331.83 1101.33 1314.71 1106.43 C 1303.73 1109.7 1291.58 1109.37 1281.55 1103.43 C 1269.22 1096.12 1262.72 1083.64 1259.21 1070.26 C 1257.14 1060.92 1256.53 1051.06 1255.45 1041.56 C 1252.41 1043.78 1249.26 1046.38 1245.98 1048.21 C 1243.52 1049.59 1241.12 1050.19 1238.39 1049.07 C 1236.33 1048.23 1235.46 1046.63 1235.11 1044.53 C 1234.14 1038.69 1235.58 1019.88 1239.11 1015.24 L 1240.52 1015.86 C 1244.15 1022.97 1243.92 1030.28 1244.15 1038.07 C 1293.48 1010.02 1343.18 984.658 1396.07 963.956 z"/>
<path transform="translate(0,0)" fill="rgb(254,253,245)" d="M 1341.55 1000.04 C 1341.82 1000.27 1342.12 1000.46 1342.36 1000.72 C 1349.42 1008.17 1349.72 1031.01 1349.27 1040.82 C 1348.83 1050.23 1347.36 1069.59 1339.12 1075.42 C 1336.39 1077.34 1335.11 1076.74 1332.05 1076.2 C 1327.26 1071.85 1324.37 1066.39 1322.64 1060.19 C 1317.6 1042.1 1321.73 1021.52 1330.92 1005.56 C 1334.26 1003.34 1337.93 1001.75 1341.55 1000.04 z"/>
<path transform="translate(0,0)" fill="rgb(86,32,36)" d="M 1364.12 1097.2 A 74.3349 74.3349 0 0 1 1413.88 1109.72 C 1428.3 1119.56 1439.02 1135.6 1442.22 1152.8 C 1445.24 1169.09 1442.16 1187.51 1432.67 1201.21 C 1421.46 1217.4 1405.11 1224.62 1386.33 1227.9 C 1371.22 1229.7 1356.07 1227.36 1342.67 1219.95 A 66.992 66.992 0 0 1 1310.54 1178.9 C 1306.12 1162.84 1307.79 1144.99 1316.09 1130.43 C 1326.58 1112.03 1344.32 1102.55 1364.12 1097.2 z"/>
<path transform="translate(0,0)" fill="rgb(230,107,85)" d="M 1371.63 1107.35 C 1386.01 1106.79 1399.62 1110.85 1410.97 1119.9 C 1423.46 1129.86 1430.99 1145 1432.49 1160.82 C 1433.84 1174.97 1429.51 1190.04 1420.2 1200.88 C 1410.34 1212.35 1396.88 1216.87 1382.32 1218.18 C 1368.25 1218.33 1355.22 1216.61 1343.4 1208.11 C 1330.48 1198.82 1321.19 1184.37 1318.96 1168.52 A 53.5929 53.5929 0 0 1 1330.3 1127.55 C 1340.89 1114.52 1355.56 1109.24 1371.63 1107.35 z"/>
</svg>