<svg version="1.1" xmlns="http://www.w3.org/2000/svg" style="display: block;" viewBox="0 0 2048 2048" width="1024" height="1024">
<path transform="translate(0,0)" fill="rgb(244,236,216)" d="M 0 0 L 2048 0 L 2048 2048 L 0 2048 L 0 0 z"/>
<path transform="translate(0,0)" fill="rgb(171,119,110)" d="M 242.205 1308.07 C 242.652 1308.11 243.101 1308.12 243.547 1308.17 C 247.961 1308.7 252.196 1310.59 254.783 1314.36 C 257.002 1317.59 257.36 1321.62 256.359 1325.34 C 254.855 1330.94 251.172 1333.79 246.362 1336.57 C 243.771 1336.36 240.714 1336.31 238.282 1335.36 C 234.867 1334.02 232.016 1330.4 230.736 1327.07 C 229.388 1323.56 229.647 1319.79 231.345 1316.45 C 233.794 1311.63 237.298 1309.83 242.205 1308.07 z"/>
<path transform="translate(0,0)" fill="rgb(171,119,110)" d="M 441.049 1498.91 C 443.333 1498.93 445.857 1499.14 448.061 1499.77 C 451.877 1500.84 455.134 1503.76 456.886 1507.28 A 13.6986 13.6986 0 0 1 457.522 1518.21 C 455.655 1523.41 451.903 1525.96 447.079 1528.17 C 445.078 1528.09 442.99 1528.1 441.025 1527.69 C 437.389 1526.92 433.763 1524.12 431.843 1520.98 A 13.6305 13.6305 0 0 1 430.452 1510.13 C 432.144 1504.29 436.003 1501.77 441.049 1498.91 z"/>
<path transform="translate(0,0)" fill="rgb(171,119,110)" d="M 405.123 1664.09 C 407.379 1663.96 409.76 1663.76 412.007 1664.04 C 415.587 1664.48 419.631 1667.25 421.69 1670.14 C 423.875 1673.22 424.596 1677.22 423.814 1680.89 C 422.548 1686.83 418.924 1689.85 414.06 1693.04 C 412.058 1693.12 409.984 1693.22 407.99 1693 C 404.16 1692.57 400.005 1690.03 397.731 1686.95 C 395.395 1683.79 394.762 1679.98 395.484 1676.15 C 396.587 1670.3 400.369 1667.17 405.123 1664.09 z"/>
<path transform="translate(0,0)" fill="rgb(171,119,110)" d="M 199.059 1462.06 C 201.478 1461.95 203.915 1461.84 206.29 1462.41 C 210.645 1463.45 214.652 1466.52 216.895 1470.39 C 219.105 1474.19 219.444 1478.82 218.133 1482.99 C 216.346 1488.68 212.056 1491.43 207.121 1494.21 C 204.5 1494.45 201.998 1494.61 199.406 1494.02 C 194.926 1493 190.95 1490.35 188.684 1486.29 C 186.414 1482.24 186.235 1477.37 187.787 1473.03 C 189.833 1467.3 193.891 1464.73 199.059 1462.06 z"/>
<path transform="translate(0,0)" fill="rgb(171,119,110)" d="M 336.932 1263.04 C 339.521 1262.65 342.449 1262.47 345.05 1262.85 C 349.868 1263.54 354.548 1266.83 357.131 1270.9 C 359.523 1274.67 360.349 1279.47 359.217 1283.8 C 357.611 1289.95 353.712 1293.43 348.352 1296.42 C 345.943 1296.74 343.469 1297.1 341.041 1296.79 C 336.455 1296.2 332 1294.09 329.245 1290.28 C 326.393 1286.34 325.668 1281.62 326.524 1276.89 C 327.748 1270.13 331.451 1266.73 336.932 1263.04 z"/>
<path transform="translate(0,0)" fill="rgb(171,119,110)" d="M 422.149 1312.1 C 425.277 1311.85 428.678 1311.68 431.726 1312.58 C 437.406 1314.27 442.522 1318.39 445.232 1323.66 A 19.5484 19.5484 0 0 1 446.244 1339.48 C 443.688 1346.41 438.487 1350.08 432.012 1353.02 C 428.561 1353.17 425.041 1353.24 421.665 1352.38 C 416.037 1350.96 410.986 1347 408.355 1341.81 A 20.0658 20.0658 0 0 1 407.464 1325.62 C 410.181 1318.45 415.427 1315.08 422.149 1312.1 z"/>
<path transform="translate(0,0)" fill="rgb(171,119,110)" d="M 326.68 1595.18 C 330.674 1595.43 334.452 1596.05 337.984 1598.05 C 342.726 1600.75 346.163 1605.01 347.612 1610.29 A 20.7738 20.7738 0 0 1 344.868 1627.1 C 340.678 1633.53 335.403 1635.37 328.209 1636.83 C 324.18 1636.68 320.562 1636.03 317.001 1634.03 C 312.188 1631.32 308.844 1627 307.515 1621.63 A 20.9933 20.9933 0 0 1 310.495 1605.07 C 314.455 1599.03 319.84 1596.66 326.68 1595.18 z"/>
<path transform="translate(0,0)" fill="rgb(246,213,149)" d="M 162.257 928.839 C 161.673 927.844 161.329 926.969 161.157 925.821 C 160.182 919.339 160.711 912.13 160.775 905.574 C 161.077 874.611 167.174 846.974 185.539 821.559 C 191.202 813.723 210.341 792.795 219.431 791.306 C 214.987 814.653 213.897 838.734 212.852 862.44 C 196.321 881.444 173.044 906.381 162.257 928.839 z"/>
<path transform="translate(0,0)" fill="rgb(215,157,127)" d="M 1599.01 1878.42 L 1597.58 1877.4 C 1601.69 1874.25 1609 1872.64 1613.95 1870.96 C 1640.12 1862.03 1666.98 1854.33 1694.88 1857.88 C 1728.06 1862.1 1758.79 1879.3 1785.64 1898.41 C 1789.61 1901.24 1796.27 1904.87 1799.05 1908.81 C 1799.52 1909.48 1799.52 1909.6 1799.72 1910.23 C 1770.78 1908.61 1742.14 1904.09 1713.53 1899.64 C 1675.04 1893.66 1637.02 1887.08 1599.01 1878.42 z"/>
<path transform="translate(0,0)" fill="rgb(215,157,127)" d="M 1546.16 1619.48 C 1546.55 1617.36 1546.37 1615.86 1548.02 1614.38 C 1567.85 1645.49 1585.32 1695.42 1577.08 1732.44 C 1571.46 1757.66 1556.54 1779.75 1539.22 1798.47 C 1536.78 1801.11 1533.12 1806.21 1530.13 1808.11 C 1529.12 1808.76 1528.88 1808.74 1527.85 1808.97 C 1525.93 1806.74 1526.62 1803.62 1526.79 1800.8 C 1530.82 1740.19 1543.83 1680.34 1546.16 1619.48 z"/>
<path transform="translate(0,0)" fill="rgb(215,157,127)" d="M 1521.67 1807.66 C 1506.24 1778.94 1490.5 1747.2 1492.81 1713.79 C 1494.92 1683.21 1508.72 1658.17 1525.49 1633.34 C 1530.2 1626.37 1535.02 1618.28 1541.42 1612.78 L 1542.22 1613.75 L 1544.03 1612.47 C 1546.15 1614.28 1545.79 1616.78 1546.16 1619.48 C 1543.83 1680.34 1530.82 1740.19 1526.79 1800.8 L 1524.54 1805.61 L 1523.8 1805.13 L 1522.93 1795.86 C 1522.22 1799.73 1522.04 1803.75 1521.67 1807.66 z"/>
<path transform="translate(0,0)" fill="rgb(254,254,254)" d="M 1542.22 1613.75 L 1544.03 1612.47 C 1546.15 1614.28 1545.79 1616.78 1546.16 1619.48 C 1543.83 1680.34 1530.82 1740.19 1526.79 1800.8 L 1524.54 1805.61 L 1523.8 1805.13 L 1522.93 1795.86 C 1522.35 1771.41 1527.71 1745.04 1530.9 1720.7 C 1535.53 1685.34 1539.69 1649.33 1542.22 1613.75 z"/>
<path transform="translate(0,0)" fill="rgb(171,119,110)" d="M 318.449 1399.96 C 323.682 1399.52 327.293 1400.14 331.381 1403.69 C 348.925 1418.93 351.952 1466.53 353.161 1488.73 C 353.378 1492.7 353.984 1499.71 351.292 1502.76 C 337.909 1504.54 318.791 1498.05 305.756 1494.34 C 290.003 1489.12 274.154 1480.91 266.376 1465.35 C 262.643 1457.88 261.335 1448.47 264.283 1440.5 C 265.963 1435.96 269.183 1432.45 273.608 1430.47 C 283.101 1426.23 293.32 1429.36 302.51 1432.7 C 302.787 1428.62 303.353 1424.48 304.288 1420.5 C 306.492 1411.11 310.279 1405.07 318.449 1399.96 z"/>
<path transform="translate(0,0)" fill="rgb(244,236,216)" d="M 320.305 1407.45 C 322.432 1407.75 324.365 1408.5 326.042 1409.87 C 342.415 1423.25 343.832 1474.51 345.137 1494.53 C 330.228 1492.52 315.766 1489.14 301.721 1483.75 C 294.436 1480.62 287.378 1477 281.574 1471.48 C 275.398 1465.61 271.464 1458.86 271.279 1450.19 C 271.191 1446.07 271.676 1440.96 275.031 1438.09 C 283.56 1430.79 299.19 1441.39 308.35 1442.43 C 314.65 1434.91 306.882 1420.54 320.305 1407.45 z"/>
<path transform="translate(0,0)" fill="rgb(215,157,127)" d="M 1599.01 1878.42 C 1637.02 1887.08 1675.04 1893.66 1713.53 1899.64 C 1742.14 1904.09 1770.78 1908.61 1799.72 1910.23 L 1802.57 1913.14 C 1801.87 1915.38 1801.62 1915.08 1799.76 1916.3 L 1799.19 1918.08 C 1786.08 1928.8 1764 1936.86 1747.91 1941.74 C 1715.69 1951.52 1683.8 1950.14 1653.83 1934.08 C 1640.29 1926.82 1601.35 1896.78 1597.15 1882.98 C 1597.42 1880.84 1597.88 1880.19 1599.01 1878.42 z"/>
<path transform="translate(0,0)" fill="rgb(254,254,254)" d="M 1599.01 1878.42 C 1637.02 1887.08 1675.04 1893.66 1713.53 1899.64 C 1742.14 1904.09 1770.78 1908.61 1799.72 1910.23 L 1802.57 1913.14 C 1801.87 1915.38 1801.62 1915.08 1799.76 1916.3 C 1778.32 1915.01 1756.34 1911.06 1735.07 1907.95 C 1688.55 1901.15 1643 1893.39 1597.15 1882.98 C 1597.42 1880.84 1597.88 1880.19 1599.01 1878.42 z"/>
<path transform="translate(0,0)" fill="rgb(215,157,127)" d="M 504.931 315.071 C 528.707 321.85 576.1 377.915 587.798 398.993 C 611.362 441.453 615.007 502.495 602.178 548.934 C 601.629 550.922 601.431 551.737 599.93 553.212 L 598.65 551.835 A 3221.52 3221.52 0 0 0 504.931 315.071 z"/>
<path transform="translate(0,0)" fill="rgb(215,157,127)" d="M 194.268 312.521 C 273.806 289.562 356.103 269.739 438.163 258.474 C 440.05 260.26 440.38 260.192 440.596 262.735 C 438.064 268.867 428.754 275.193 423.616 279.292 C 401.219 297.161 378.659 313.692 351.97 324.731 A 189.041 189.041 0 0 1 207.388 324.907 C 203.618 323.326 200.194 321.871 197.063 319.183 L 196.84 317.646 C 194.99 315.851 194.991 314.952 194.268 312.521 z"/>
<path transform="translate(0,0)" fill="rgb(254,254,254)" d="M 194.268 312.521 C 273.806 289.562 356.103 269.739 438.163 258.474 C 440.05 260.26 440.38 260.192 440.596 262.735 C 397.531 270.883 354.075 278.111 311.33 287.782 C 272.895 296.477 234.929 307.555 196.84 317.646 C 194.99 315.851 194.991 314.952 194.268 312.521 z"/>
<path transform="translate(0,0)" fill="rgb(215,157,127)" d="M 194.268 312.521 C 194.306 312.198 194.308 311.869 194.384 311.553 C 195.251 307.941 199.368 303.405 201.579 300.401 C 217.233 279.131 235.031 260.356 257.177 245.649 C 288.28 224.993 323.217 219.953 359.523 227.696 C 372.393 230.441 435.096 247.779 441.264 257.312 L 438.163 258.474 C 356.103 269.739 273.806 289.562 194.268 312.521 z"/>
<path transform="translate(0,0)" fill="rgb(215,157,127)" d="M 500.543 314.186 L 504.931 315.071 A 3221.52 3221.52 0 0 1 598.65 551.835 L 593.563 553.018 L 593.498 554.227 C 588.059 552.145 555.783 522.416 549.437 516.576 C 514.093 484.045 484.417 445.577 482.571 395.638 C 481.823 375.412 486.369 329.353 500.543 314.186 z"/>
<path transform="translate(0,0)" fill="rgb(254,254,254)" d="M 500.543 314.186 L 504.931 315.071 A 3221.52 3221.52 0 0 1 598.65 551.835 L 593.563 553.018 C 592.342 540.99 583.985 526.372 579.821 514.882 A 3993.4 3993.4 0 0 0 526.295 376.927 C 517.916 356.193 506.846 335.59 500.543 314.186 z"/>
<path transform="translate(0,0)" fill="rgb(254,254,254)" d="M 1860.49 1216.01 C 1875.9 1219.7 1905.47 1258.41 1913.92 1272.08 A 183.819 183.819 0 0 1 1940.51 1347.5 C 1941 1351.78 1941.98 1357.09 1941.02 1361.34 C 1940.97 1361.56 1940.86 1361.76 1940.78 1361.97 C 1941.84 1364.94 1942.12 1365.29 1941.31 1368.29 L 1939.68 1369.95 C 1943.66 1378.04 1936.23 1399.04 1933.47 1407.1 C 1927.76 1423.73 1907.26 1464.91 1891.44 1472.58 C 1891.13 1472.73 1890.81 1472.86 1890.49 1473 C 1888 1475.45 1887.1 1476.82 1883.38 1477.22 C 1878.93 1473.75 1874.9 1467.94 1871.25 1463.51 C 1853.15 1441.55 1838.12 1419.2 1828.94 1391.98 C 1827 1386.24 1822.43 1372.69 1825.12 1367.31 C 1823.87 1365.01 1824.13 1363.66 1824.13 1361.08 C 1822.19 1324.72 1836.22 1288.17 1846.09 1253.74 C 1848.89 1243.97 1851.49 1227.97 1857.24 1219.8 L 1858.33 1216.64 L 1860.49 1216.01 z"/>
<path transform="translate(0,0)" fill="rgb(246,213,149)" d="M 1939.68 1369.95 C 1943.66 1378.04 1936.23 1399.04 1933.47 1407.1 C 1927.76 1423.73 1907.26 1464.91 1891.44 1472.58 C 1891.13 1472.73 1890.81 1472.86 1890.49 1473 C 1893.62 1457.66 1894.79 1433.77 1898.56 1420.77 C 1903.14 1404.97 1927.69 1381.92 1939.68 1369.95 z"/>
<path transform="translate(0,0)" fill="rgb(246,213,149)" d="M 1825.12 1367.31 C 1848.85 1383.55 1871.15 1399.97 1892.16 1419.68 C 1890.39 1439.14 1887.91 1458.17 1883.38 1477.22 C 1878.93 1473.75 1874.9 1467.94 1871.25 1463.51 C 1853.15 1441.55 1838.12 1419.2 1828.94 1391.98 C 1827 1386.24 1822.43 1372.69 1825.12 1367.31 z"/>
<path transform="translate(0,0)" fill="rgb(246,213,149)" d="M 1860.49 1216.01 C 1875.9 1219.7 1905.47 1258.41 1913.92 1272.08 A 183.819 183.819 0 0 1 1940.51 1347.5 C 1941 1351.78 1941.98 1357.09 1941.02 1361.34 C 1940.97 1361.56 1940.86 1361.76 1940.78 1361.97 C 1925.9 1375.9 1912.55 1391.59 1898.95 1406.76 C 1903.26 1340.13 1886.65 1276.64 1860.49 1216.01 z"/>
<path transform="translate(0,0)" fill="rgb(246,213,149)" d="M 1824.13 1361.08 C 1822.19 1324.72 1836.22 1288.17 1846.09 1253.74 C 1848.89 1243.97 1851.49 1227.97 1857.24 1219.8 C 1885.63 1291.28 1895.24 1336.25 1893 1413.22 C 1872.33 1394.7 1849.25 1373.3 1824.13 1361.08 z"/>
<path transform="translate(0,0)" fill="rgb(246,213,149)" d="M 221.72 785.653 L 225.602 787.835 L 226.294 787.578 C 227.789 794.136 252.228 812.58 258.16 820.305 A 243.416 243.416 0 0 1 301.897 911.512 C 304.258 920.922 308.742 934.634 307.577 944.26 C 308.34 947.498 309.196 950.345 308.621 953.696 C 320.986 978.442 300.329 1074.89 291.117 1101.92 C 290.752 1102.99 290.577 1103.29 290.135 1104.2 L 289.388 1107.43 L 287.751 1107.68 L 284.639 1104.84 C 283.219 1104.68 282.993 1104.74 281.464 1104.1 C 275.568 1101.67 268.842 1095.06 263.811 1091.07 A 292.148 292.148 0 0 1 177.415 978.405 C 171.64 965.417 169.497 951.364 164.121 938.487 L 163.495 937.026 C 161.864 934.074 162.052 932.063 162.257 928.839 C 173.044 906.381 196.321 881.444 212.852 862.44 C 213.897 838.734 214.987 814.653 219.431 791.306 C 220.112 789.386 220.927 787.529 221.72 785.653 z"/>
<path transform="translate(0,0)" fill="rgb(254,254,254)" d="M 221.72 785.653 L 225.602 787.835 C 219.992 813.724 219.338 841.248 218.988 867.679 C 249.863 891.59 280.895 915.555 307.577 944.26 C 308.34 947.498 309.196 950.345 308.621 953.696 C 282.127 925.091 252 898.357 219.905 876.173 C 223.93 938.038 240.791 995.493 265.405 1052.19 C 272.979 1069.63 284.152 1086.21 290.135 1104.2 L 289.388 1107.43 L 287.751 1107.68 L 284.639 1104.84 C 255.792 1046.48 230.142 987.583 219.426 922.908 C 216.531 905.435 215.605 887.901 213.635 870.33 C 195.299 890.793 176.734 912.898 163.495 937.026 C 161.864 934.074 162.052 932.063 162.257 928.839 C 173.044 906.381 196.321 881.444 212.852 862.44 C 213.897 838.734 214.987 814.653 219.431 791.306 C 220.112 789.386 220.927 787.529 221.72 785.653 z"/>
<path transform="translate(0,0)" fill="rgb(246,213,149)" d="M 226.294 787.578 C 227.789 794.136 252.228 812.58 258.16 820.305 A 243.416 243.416 0 0 1 301.897 911.512 C 304.258 920.922 308.742 934.634 307.577 944.26 C 280.895 915.555 249.863 891.59 218.988 867.679 C 219.338 841.248 219.992 813.724 225.602 787.835 L 226.294 787.578 z"/>
<path transform="translate(0,0)" fill="rgb(246,213,149)" d="M 163.495 937.026 C 176.734 912.898 195.299 890.793 213.635 870.33 C 215.605 887.901 216.531 905.435 219.426 922.908 C 230.142 987.583 255.792 1046.48 284.639 1104.84 C 283.219 1104.68 282.993 1104.74 281.464 1104.1 C 275.568 1101.67 268.842 1095.06 263.811 1091.07 A 292.148 292.148 0 0 1 177.415 978.405 C 171.64 965.417 169.497 951.364 164.121 938.487 L 163.495 937.026 z"/>
<path transform="translate(0,0)" fill="rgb(171,119,110)" d="M 1775.35 1465.19 C 1779.73 1464.86 1784.47 1464.49 1788.82 1465.22 C 1799.28 1466.97 1808.62 1472.44 1814.77 1481.14 C 1837.32 1512.99 1821.51 1573.79 1815.13 1609.6 C 1822.66 1598.79 1828.98 1587.23 1835.74 1575.94 C 1852.57 1547.82 1868.77 1518.62 1880.66 1487.98 C 1880.25 1488.48 1879.71 1489.69 1879.4 1490.27 L 1881.06 1490.07 C 1880.32 1490.85 1862.66 1535.9 1860.16 1541.38 C 1848.27 1567.47 1834.12 1591.86 1819.69 1616.59 C 1831.69 1609.22 1842.59 1599.64 1854.47 1591.91 C 1883.86 1572.8 1918.69 1554.36 1954.85 1562.31 C 1966.91 1564.96 1977.77 1570.97 1984.33 1581.75 C 1991.34 1593.26 1992.49 1607.14 1989.11 1620.01 C 1983.32 1642.13 1966.31 1663.83 1951.17 1680.41 C 1893.68 1743.34 1817.58 1762.57 1737.7 1781.4 C 1712.62 1787.31 1686.23 1792.62 1662.13 1801.74 C 1643.3 1808.87 1617.75 1829.26 1598.36 1840.37 C 1528.21 1880.57 1403.67 1935.41 1321.61 1912.68 C 1285.79 1902.75 1257.28 1877.69 1239.24 1845.63 C 1226.73 1823.42 1218.47 1796.31 1225.78 1771 C 1231.03 1752.81 1244.17 1738.27 1260.63 1729.3 C 1283.64 1716.77 1310.82 1714.78 1335.76 1722.37 C 1366.11 1731.6 1391.95 1754.67 1406.57 1782.61 C 1415.52 1799.7 1419.05 1818.89 1413.04 1837.57 C 1407.73 1854.08 1396.59 1865.26 1381.32 1872.99 A 115.341 115.341 0 0 1 1377.4 1874.61 C 1357.92 1882.29 1335.1 1881.01 1316.09 1872.53 C 1293.81 1862.6 1272.36 1841.53 1263.7 1818.53 C 1258.4 1804.44 1257.48 1788.89 1264.18 1775.03 A 47.2171 47.2171 0 0 1 1292 1750.73 C 1307.34 1745.77 1323.23 1748.54 1337.36 1755.57 C 1353.99 1763.84 1368.19 1778.39 1373.78 1796.36 C 1377.32 1807.74 1377.01 1819.95 1371.34 1830.58 C 1366.3 1840.01 1357.59 1847.52 1347.27 1850.6 C 1335.15 1854.23 1321.73 1851.16 1311.05 1844.83 C 1298.99 1837.68 1289.39 1826.14 1286.06 1812.38 C 1285.12 1808.49 1284.59 1803.66 1287.28 1800.31 C 1288.92 1798.27 1291.37 1797.32 1293.89 1797 C 1307.95 1795.19 1304.3 1808.59 1308.07 1816.79 C 1309.95 1820.87 1314.48 1824.87 1318.02 1827.51 C 1324.18 1832.11 1331.78 1835.23 1339.56 1834.01 C 1345.09 1833.15 1351.29 1830.35 1354.56 1825.64 C 1358.19 1820.39 1358.12 1813.64 1357.13 1807.59 C 1354.96 1794.27 1345.86 1783.23 1335 1775.74 C 1325.01 1768.85 1312.49 1765.51 1300.43 1768.11 C 1292.64 1769.79 1285.82 1774.24 1281.66 1781.11 C 1276.54 1789.57 1276.66 1799.04 1279.19 1808.32 C 1284.13 1826.39 1298.56 1842.35 1314.62 1851.49 C 1329.72 1860.07 1348.72 1863.52 1365.6 1858.67 C 1376.89 1855.43 1386.9 1848.35 1392.6 1837.94 C 1398.6 1826.98 1398.36 1814.74 1394.66 1803.09 C 1386.44 1777.21 1365.83 1757.56 1342.19 1745.41 A 79.0943 79.0943 0 0 0 1280.84 1740.52 C 1266.53 1745.18 1253.93 1754.23 1247.24 1768.05 C 1239.15 1784.76 1241.6 1802.96 1247.77 1819.76 C 1258.51 1849.01 1281.65 1875.43 1310.21 1888.29 C 1361.93 1911.58 1437.62 1891.53 1488.64 1871.78 C 1519.18 1859.96 1615.25 1815.99 1634.3 1793.42 C 1652.88 1771.4 1667.35 1666.12 1674.55 1634.33 C 1680.67 1607.33 1688.23 1580.19 1699.53 1554.84 C 1714.71 1520.79 1738.86 1479.2 1775.35 1465.19 z"/>
<path transform="translate(0,0)" fill="rgb(244,236,216)" d="M 1780.35 1483.05 C 1781.24 1482.98 1782.14 1482.94 1783.04 1482.93 C 1789.56 1482.83 1794.67 1484.67 1799.28 1489.41 C 1810.91 1501.38 1811.61 1523.57 1811.09 1539.2 C 1808.84 1606.01 1785.97 1642.51 1743.76 1690.82 A 788.932 788.932 0 0 1 1681.62 1754.76 C 1676.04 1759.85 1670.13 1764.56 1664.28 1769.34 C 1683.65 1708.64 1687.39 1644.48 1708.75 1584.36 C 1721.14 1549.48 1745.55 1499.62 1780.35 1483.05 z"/>
<path transform="translate(0,0)" fill="rgb(244,236,216)" d="M 1923.49 1579.21 C 1935.07 1578.06 1948.49 1577.56 1959.03 1583.22 A 24.2881 24.2881 0 0 1 1971.09 1598.63 C 1974 1610.19 1967.58 1623.17 1961.82 1632.93 C 1909.98 1720.76 1822.37 1740.56 1731.4 1764.07 L 1688.07 1774.38 C 1720.35 1748.49 1754.48 1708.79 1780.69 1676.52 C 1787.64 1667.95 1792.81 1657.63 1800.39 1649.66 C 1808.28 1641.36 1819.04 1635.01 1828.48 1628.61 C 1856.73 1609.43 1889.54 1585.75 1923.49 1579.21 z"/>
<path transform="translate(0,0)" fill="rgb(171,119,110)" d="M 242.394 695.736 C 202.39 726.584 154.604 752.46 102.176 745.39 C 87.5474 743.418 74.1575 737.228 65.0203 725.234 C 56.384 713.897 54.576 700.109 56.6421 686.365 C 64.4128 634.674 134.303 576.984 175.28 547.227 C 209.276 522.54 245.075 501.084 281.817 480.777 L 329.603 454.233 C 339.229 448.985 351.475 444.975 359.635 437.628 C 370.89 427.494 384.391 403.865 393.398 390.492 A 1102.12 1102.12 0 0 1 428.931 340.143 C 496.106 249.896 631.546 112.319 755.573 132.151 C 778.836 135.871 800.78 146.686 814.791 166.118 A 76.8724 76.8724 0 0 1 828.471 224.247 C 824.115 249.597 807.183 274.152 786.187 288.688 C 771.154 299.095 753.04 303.461 734.968 300.126 C 717.274 296.861 700.353 286.751 690.072 271.856 A 67.6653 67.6653 0 0 1 679.594 221.576 C 682.872 204.08 692.919 189.989 707.536 180.06 C 722.729 169.741 742.885 162.326 761.416 165.626 A 45.2371 45.2371 0 0 1 791.804 185.793 C 798.838 196.564 801.536 209.246 798.556 221.856 A 47.0101 47.0101 0 0 1 776.598 251.397 C 766.577 257.247 752.039 260.44 740.711 256.978 C 734.38 255.043 729.228 250.859 726.124 245.002 C 722.357 237.891 722.153 229.682 724.599 222.104 A 40.7806 40.7806 0 0 1 745.042 198.491 C 755.544 193.284 764.353 197.386 772.665 193.918 L 772.731 192.401 C 766.959 186.342 759.762 184.09 751.48 183.956 C 736.908 183.721 720.341 192.407 710.038 202.489 A 44.1632 44.1632 0 0 0 696.901 233.998 C 696.847 246.962 702.656 259.567 711.94 268.506 C 721.788 277.989 735.455 283.559 749.185 282.861 C 766.077 282.002 780.181 271.759 790.841 259.326 C 803.25 244.853 811.026 226.487 809.374 207.221 C 808.007 191.279 800.617 177.295 788.324 167.16 C 768.501 150.817 741.675 148.293 716.981 150.847 C 618.8 161 521.801 256.654 462.888 329.993 C 445.919 351.118 429.748 373.182 413.863 395.137 C 414.286 490.035 434.432 725.709 365.568 795.901 C 355.789 805.869 342.706 812.803 328.508 812.872 C 314.648 812.94 302.628 807.361 293.076 797.407 C 269.277 772.606 265.274 729.652 266.207 697.128 C 266.74 678.536 269.162 659.621 272.545 641.328 C 266.157 655.252 261.49 670.075 256.331 684.494 C 250.287 701.387 243.919 717.794 239.267 735.156 C 234.619 752.503 231.4 770.394 226.294 787.578 L 225.602 787.835 L 221.72 785.653 C 218.872 773.622 238.004 710.188 242.394 695.736 z"/>
<path transform="translate(0,0)" fill="rgb(244,236,216)" d="M 392.813 429.816 C 395.613 433.629 396.143 544.053 396.128 555.774 C 396.054 611.878 393.455 742.183 351.013 782.943 C 344.869 788.844 336.513 793.584 327.748 793.171 C 317.241 792.676 309.942 785.87 303.167 778.634 C 296.962 769.465 292.821 759.224 290.081 748.518 C 262.795 641.911 340.241 517.573 392.813 429.816 z"/>
<path transform="translate(0,0)" fill="rgb(244,236,216)" d="M 344.146 467.173 L 344.26 467.291 C 344.883 470.785 326.344 503.121 323.524 508.479 C 301.143 551.002 279.145 593.77 261.919 638.705 C 257.888 649.218 253.241 659.929 250.516 670.836 C 225.374 696.468 189.797 714.266 155.136 722.648 C 132.768 728.058 106.388 731.895 85.7801 719.3 C 82.8662 716.889 80.1097 713.974 78.3463 710.604 C 73.85 702.01 74.6545 692.133 77.3639 683.114 C 82.6903 665.383 94.7624 649.232 106.557 635.284 C 167.184 563.589 262.046 510.487 344.146 467.173 z"/>
<path transform="translate(0,0)" fill="rgb(171,119,110)" d="M 1347.4 381.846 C 1349.23 331.975 1362.45 269.777 1400.1 234.523 C 1413.06 222.389 1429.31 213.546 1447.51 214.103 C 1467.25 214.707 1484.46 226.658 1497.25 240.885 C 1532.11 279.656 1539.16 333.063 1543.96 382.804 C 1570.5 365.144 1605.65 343.994 1639.04 350.376 C 1655.08 353.441 1668.24 363.043 1677.1 376.611 C 1694.89 403.852 1691.78 440.74 1685.12 471.013 A 218.823 218.823 0 0 1 1682.65 480.879 C 1718.33 465.706 1755.74 455.298 1793.5 470.308 C 1813.73 478.351 1828.73 493.761 1837.09 513.788 C 1847.51 538.751 1844.44 567.07 1834.31 591.582 C 1807.06 657.501 1723.74 706.469 1660.17 732.913 C 1713.31 732.637 1769.91 740.955 1809.43 780.091 C 1824.8 795.315 1837.29 816.205 1837.28 838.41 C 1837.28 850.534 1833.29 862.115 1824.56 870.715 C 1809.82 885.226 1789.42 887.784 1769.73 887.275 C 1725.52 886.13 1681.74 878.978 1638.6 869.722 C 1689.18 898.499 1733.61 934.15 1749.86 992.832 C 1755.61 1013.6 1757.02 1039.63 1745.57 1058.8 C 1735.69 1075.34 1716.55 1085.15 1698.28 1089.33 C 1663.1 1097.39 1629.3 1085.29 1599.81 1066.42 C 1590.97 1060.77 1581.64 1054.56 1573.8 1047.54 C 1569.61 1043.79 1563.71 1036.19 1558.69 1034.22 A 278.245 278.245 0 0 1 1549.29 999.125 C 1532.33 947.547 1523.25 893.094 1509.76 840.561 L 1508.03 833.875 C 1504.6 819.858 1502.49 805.49 1498.52 791.616 C 1497.96 789.045 1497.25 786.786 1496.31 784.328 C 1492.23 765.746 1485.8 745.067 1484.92 726.15 C 1483.38 721.712 1482.33 715.77 1482.56 711.075 C 1482.32 709.341 1481.97 707.854 1481.5 706.177 C 1475.77 700.147 1466.57 696.038 1459.37 691.987 L 1454.81 689.634 A 3903.77 3903.77 0 0 1 1380.17 648.166 C 1377.75 647.105 1375.48 645.772 1373.16 644.491 C 1356.49 634.296 1338.14 625.793 1320.84 616.629 C 1315.66 614.522 1310.25 612.133 1305.87 608.614 A 10034.4 10034.4 0 0 0 1125.54 517.915 C 1083.71 497.168 1042.03 475.288 999.358 456.361 C 993.5 453.677 987.826 450.813 982.169 447.727 C 988.013 425.046 994.761 408.596 1015.79 396.022 C 1045.52 378.24 1084.95 379.113 1117.48 387.503 C 1136.84 392.496 1156.65 400.546 1174.11 410.397 C 1170.15 372.549 1175.01 328.534 1199.87 298.02 C 1211.22 284.083 1226.38 274.14 1244.51 272.156 C 1261.26 270.325 1276.55 276.025 1289.26 286.621 C 1318.58 311.079 1333.5 347.398 1347.4 381.846 z"/>
<path transform="translate(0,0)" fill="rgb(254,254,254)" d="M 999.358 456.361 C 1000.69 440.105 1005.31 425.949 1018.37 415.197 C 1037.11 399.758 1064.16 396.739 1087.49 399.374 C 1148.97 406.319 1202.79 443.812 1240.26 491.562 C 1259.9 516.593 1274.5 544.398 1288.72 572.712 C 1294.64 584.504 1301.02 596.342 1305.87 608.614 A 10034.4 10034.4 0 0 0 1125.54 517.915 C 1083.71 497.168 1042.03 475.288 999.358 456.361 z"/>
<path transform="translate(0,0)" fill="rgb(254,254,254)" d="M 1544.03 392.968 C 1569.26 378.231 1608.39 359.694 1638.47 368.207 C 1650.27 371.547 1658.94 379.923 1664.55 390.617 C 1678.51 417.206 1672.66 460.925 1666.64 489.664 C 1652.7 498.781 1638.67 507.709 1625.78 518.293 C 1563.92 569.075 1518.46 640.449 1482.56 711.075 C 1482.32 709.341 1481.97 707.854 1481.5 706.177 C 1475.77 700.147 1466.57 696.038 1459.37 691.987 C 1512.63 601.543 1544.41 498.239 1544.03 392.968 z"/>
<path transform="translate(0,0)" fill="rgb(254,254,254)" d="M 1498.52 791.616 C 1528.6 783.32 1559.09 772.469 1588.32 761.559 C 1603.99 755.712 1620.25 747.759 1636.59 744.241 C 1645.63 742.294 1655.53 743.066 1664.71 743.371 C 1698.1 744.483 1730.79 748.72 1760.43 765.334 C 1781.5 777.148 1810.4 801.236 1817.33 825.339 C 1819.89 834.241 1819.98 844.819 1815.01 852.934 C 1809.25 862.325 1798.36 866.637 1788.02 868.759 C 1750.47 876.469 1644.15 860.905 1605.79 852.55 C 1572.92 845.391 1542.19 834.749 1508.03 833.875 C 1504.6 819.858 1502.49 805.49 1498.52 791.616 z"/>
<path transform="translate(0,0)" fill="rgb(254,254,254)" d="M 1509.76 840.561 C 1584.35 853.589 1663.09 884.088 1708.12 948.084 C 1724.79 971.771 1740.77 1004.45 1735.72 1034.31 C 1733.85 1045.37 1728.77 1053.91 1719.59 1060.47 C 1703.63 1071.86 1680.89 1076.73 1661.69 1073.08 C 1631.94 1067.41 1601.36 1048.52 1579.23 1028.36 C 1568.93 1018.97 1559.69 1008.39 1549.29 999.125 C 1532.33 947.547 1523.25 893.094 1509.76 840.561 z"/>
<path transform="translate(0,0)" fill="rgb(254,254,254)" d="M 1191.43 421.327 C 1188.66 383.253 1187.91 338.726 1214.62 308 C 1223.18 298.149 1234.84 290.196 1248.24 289.543 C 1261.86 288.879 1273.98 296.555 1283.51 305.58 C 1350.63 369.182 1366.66 553.74 1373.16 644.491 C 1356.49 634.296 1338.14 625.793 1320.84 616.629 C 1306.42 569.805 1278.76 511.844 1247.51 473.942 C 1230.96 453.868 1212.05 437.023 1191.43 421.327 z"/>
<path transform="translate(0,0)" fill="rgb(254,254,254)" d="M 1484.92 726.15 C 1494.11 704.945 1507.4 684.879 1520.08 665.621 C 1565.38 596.788 1626.26 522.056 1705.1 491.084 C 1731.09 480.875 1761.71 475.797 1788.18 487.359 A 60.6514 60.6514 0 0 1 1820.81 521.518 C 1829.43 543.912 1825.58 568.607 1815.8 589.928 C 1773.06 683.037 1609.4 744.231 1519.86 776.847 C 1512.52 779.521 1504.06 783.316 1496.31 784.328 C 1492.23 765.746 1485.8 745.067 1484.92 726.15 z"/>
<path transform="translate(0,0)" fill="rgb(254,254,254)" d="M 1380.17 648.166 C 1380.05 591.893 1377.49 536.942 1369.8 481.126 A 430.148 430.148 0 0 0 1363.12 442.905 C 1360.41 430.494 1355.54 417.374 1355.65 404.668 C 1356.06 358.87 1378.65 280.468 1410.42 248.735 C 1419.57 239.598 1431.08 232.01 1444.46 231.989 C 1458.83 231.967 1471.54 240.533 1481.12 250.575 C 1520.87 292.223 1529.22 364.234 1527.5 419.743 C 1525.15 495.325 1506.35 566.01 1478.3 635.9 C 1471.17 653.689 1464 672.823 1454.81 689.634 A 3903.77 3903.77 0 0 1 1380.17 648.166 z"/>
<path transform="translate(0,0)" fill="rgb(142,76,53)" d="M 411.833 941.758 C 434.372 909.423 458.475 878.026 482.057 846.438 L 633.51 644.516 L 725.927 520.166 A 5032.54 5032.54 0 0 1 767.072 464.546 C 775.593 453.15 783.906 441.239 793.495 430.717 A 93.7031 93.7031 0 0 1 830.73 406.091 C 868.792 392.621 897.954 406.971 931.764 423.448 L 982.169 447.727 C 987.826 450.813 993.5 453.677 999.358 456.361 C 1042.03 475.288 1083.71 497.168 1125.54 517.915 A 10034.4 10034.4 0 0 1 1305.87 608.614 C 1310.25 612.133 1315.66 614.522 1320.84 616.629 C 1338.14 625.793 1356.49 634.296 1373.16 644.491 C 1375.48 645.772 1377.75 647.105 1380.17 648.166 A 3903.77 3903.77 0 0 0 1454.81 689.634 L 1459.37 691.987 C 1466.57 696.038 1475.77 700.147 1481.5 706.177 C 1481.97 707.854 1482.32 709.341 1482.56 711.075 C 1482.33 715.77 1483.38 721.712 1484.92 726.15 C 1485.8 745.067 1492.23 765.746 1496.31 784.328 C 1497.25 786.786 1497.96 789.045 1498.52 791.616 C 1502.49 805.49 1504.6 819.858 1508.03 833.875 L 1509.76 840.561 C 1523.25 893.094 1532.33 947.547 1549.29 999.125 A 278.245 278.245 0 0 0 1558.69 1034.22 C 1587.04 1152.16 1621.26 1268.59 1650.99 1386.18 C 1655.7 1404.79 1663.18 1424.54 1651.97 1442.36 C 1645.65 1452.41 1636.93 1456.28 1626.24 1460.15 C 1605.57 1467.65 1584.01 1473.45 1562.94 1479.78 A 4396.42 4396.42 0 0 1 1421.14 1520.05 L 1109.5 1605.37 L 795.62 1691.76 C 740.757 1706.96 684.88 1726.04 629.226 1737.51 C 623.069 1735.64 618.221 1733.36 612.936 1729.69 C 608.711 1716.35 605.585 1702.43 602.053 1688.88 L 577.021 1590 A 20657.3 20657.3 0 0 1 511.332 1339.97 A 18722.4 18722.4 0 0 1 437.575 1047.09 C 429.175 1012.13 418.595 977.017 411.833 941.758 z"/>
<path transform="translate(0,0)" fill="rgb(246,213,149)" d="M 1569.88 1470.71 C 1577 1459.28 1587.04 1448.49 1595.4 1437.81 C 1610.64 1418.37 1625.64 1396.68 1643.12 1379.27 C 1647.15 1396.14 1657.58 1421.52 1647.66 1437.43 C 1635.46 1457 1591.43 1464.75 1569.88 1470.71 z"/>
<path transform="translate(0,0)" fill="rgb(171,119,110)" d="M 604.882 914.872 C 605.568 916.653 606.242 917.791 606.046 919.726 A 1418.62 1418.62 0 0 0 613.639 966.858 C 561.407 955.256 502.12 945.955 448.61 945.986 C 443.043 944.476 439.525 942.762 433.522 942.978 C 448.794 939.139 464.639 937.948 479.95 934.363 L 486.899 933.247 C 511.775 929.984 536.563 925.42 561.344 921.489 C 575.776 919.2 590.609 917.867 604.882 914.872 z"/>
<path transform="translate(0,0)" fill="rgb(142,76,53)" d="M 604.882 914.872 C 605.568 916.653 606.242 917.791 606.046 919.726 C 591.48 923.492 575.399 924.648 560.486 926.876 L 483.417 939.023 C 472.9 940.711 457.983 941.355 448.61 945.986 C 443.043 944.476 439.525 942.762 433.522 942.978 C 448.794 939.139 464.639 937.948 479.95 934.363 L 486.899 933.247 C 511.775 929.984 536.563 925.42 561.344 921.489 C 575.776 919.2 590.609 917.867 604.882 914.872 z"/>
<path transform="translate(0,0)" fill="rgb(171,119,110)" d="M 1288.06 767.74 C 1320.79 753.231 1389.53 733.433 1424.89 732.777 C 1404.13 747.542 1381.8 759.67 1361.41 775.065 C 1338.74 792.181 1318.96 812.153 1297.22 830.211 C 1292.87 809.633 1292.71 788.172 1288.06 767.74 z"/>
<path transform="translate(0,0)" fill="rgb(246,213,149)" d="M 1618.68 1287 L 1641.01 1370.73 L 1643.12 1379.27 C 1625.64 1396.68 1610.64 1418.37 1595.4 1437.81 C 1587.04 1448.49 1577 1459.28 1569.88 1470.71 L 1561.04 1473.53 C 1536.51 1482.78 1510.07 1488.21 1484.98 1495.95 C 1495.51 1460.3 1503.42 1424.72 1510.78 1388.32 C 1541.13 1370.24 1570.77 1350.39 1593.06 1322.57 C 1602.24 1311.11 1609.73 1298.57 1618.68 1287 z"/>
<path transform="translate(0,0)" fill="rgb(254,254,254)" d="M 1641.01 1370.73 L 1643.12 1379.27 C 1625.64 1396.68 1610.64 1418.37 1595.4 1437.81 C 1587.04 1448.49 1577 1459.28 1569.88 1470.71 L 1561.04 1473.53 C 1561.93 1468.3 1631.91 1380.67 1641.01 1370.73 z"/>
<path transform="translate(0,0)" fill="rgb(246,213,149)" d="M 419.771 950.029 C 438.2 949.749 456.609 951.29 474.973 952.682 A 1149.53 1149.53 0 0 1 731.693 1003.88 A 1560.32 1560.32 0 0 1 790.405 1023.9 C 802.447 1028.38 814.756 1034.3 827.089 1037.66 C 845.587 1047.31 865.984 1054.25 884.989 1063.03 C 926.904 1082.4 967.476 1102.84 1007.98 1125.03 C 1019.77 1131.48 1035.97 1137.61 1045.97 1146.34 C 1037.12 1156.42 1029.73 1168.59 1022.04 1179.61 L 1018.18 1184.91 C 993.028 1169.34 964.786 1156.47 938.077 1143.72 C 826.077 1090.26 687.784 1038.43 565.512 1016.16 A 778.88 778.88 0 0 0 476.366 1004.73 C 462.001 1003.76 447.583 1004.04 433.209 1003.13 L 431.189 997.108 C 427.393 981.436 423.002 965.826 419.771 950.029 z"/>
<path transform="translate(0,0)" fill="rgb(254,254,254)" d="M 431.189 997.108 C 588.915 995.47 787.007 1065.84 929.267 1132.57 A 1645.83 1645.83 0 0 1 992.154 1163.86 C 1002.03 1168.97 1012.59 1173.78 1022.04 1179.61 L 1018.18 1184.91 C 993.028 1169.34 964.786 1156.47 938.077 1143.72 C 826.077 1090.26 687.784 1038.43 565.512 1016.16 A 778.88 778.88 0 0 0 476.366 1004.73 C 462.001 1003.76 447.583 1004.04 433.209 1003.13 L 431.189 997.108 z"/>
<path transform="translate(0,0)" fill="rgb(246,213,149)" d="M 686.107 1716.61 C 672.593 1719.81 659.299 1724.43 645.845 1727.96 C 639.704 1729.57 628.076 1733.05 622.385 1729.74 L 622.274 1728.49 C 647.341 1699.98 670.615 1669.42 693.886 1639.44 A 4080.29 4080.29 0 0 0 796.532 1503.66 A 23954.8 23954.8 0 0 0 1038.07 1166.91 C 1129.14 1038.56 1222.32 900.792 1342.31 797.641 C 1382.19 763.363 1429.34 737.18 1475.95 713.346 A 1046.24 1046.24 0 0 0 1485.5 762.099 L 1486.48 767.163 C 1423.25 798.877 1365.24 844.952 1315.05 894.507 C 1252.69 956.069 1196.86 1029.61 1144.15 1099.53 C 1060.68 1210.26 981.782 1324.1 901.27 1436.96 C 857.987 1497.64 814.336 1558.45 769.378 1617.89 L 718.147 1684.64 C 710.501 1694.46 702.29 1703.92 694.932 1713.94 C 692.011 1714.86 689.079 1715.88 686.107 1716.61 z"/>
<path transform="translate(0,0)" fill="rgb(254,254,254)" d="M 686.107 1716.61 C 686.337 1715.03 686.916 1713.73 687.842 1712.43 C 695.854 1701.15 705.503 1690.64 714.133 1679.79 A 3503.6 3503.6 0 0 0 755.16 1626.33 A 15352.6 15352.6 0 0 0 880.427 1455.36 C 965.221 1338.07 1046.67 1218.61 1134.13 1103.22 C 1221.74 987.625 1310.05 868.871 1434.66 790.354 C 1445.34 783.627 1474.55 764.386 1485.5 762.099 L 1486.48 767.163 C 1423.25 798.877 1365.24 844.952 1315.05 894.507 C 1252.69 956.069 1196.86 1029.61 1144.15 1099.53 C 1060.68 1210.26 981.782 1324.1 901.27 1436.96 C 857.987 1497.64 814.336 1558.45 769.378 1617.89 L 718.147 1684.64 C 710.501 1694.46 702.29 1703.92 694.932 1713.94 C 692.011 1714.86 689.079 1715.88 686.107 1716.61 z"/>
<path transform="translate(0,0)" fill="rgb(246,213,149)" d="M 417.208 944.824 A 123.153 123.153 0 0 1 419.675 940.809 C 427.557 928.447 436.856 916.767 445.615 905.007 L 489.552 846.087 L 649.203 633.031 L 748.18 500.065 C 763.198 479.758 782.867 449.527 799.508 432.127 C 811.287 419.81 828.531 411.056 845.14 407.644 A 85.92 85.92 0 0 1 890.024 410.587 C 904.66 415.587 918.715 423.484 932.598 430.3 A 5598.56 5598.56 0 0 0 1006.93 466.564 A 8219.17 8219.17 0 0 1 1321.02 623.998 L 1412.73 673.161 C 1433.24 684.396 1453.94 695.338 1473.51 708.175 C 1458.18 716.905 1441.2 726.053 1424.89 732.777 C 1389.53 733.433 1320.79 753.231 1288.06 767.74 C 1286.33 757.386 1284.94 746.943 1283.41 736.558 L 1282.07 731.919 C 1285.81 727.809 1297.67 726.278 1303.34 724.572 C 1322.97 718.667 1341.67 710.84 1360.03 701.76 C 1327.93 680.478 1290.02 662.379 1255.72 644.511 L 1074.48 551.586 L 972.62 499.824 C 954.194 490.553 935.579 479.742 916.024 473.048 C 898.495 467.047 879.647 466.395 861.508 470.02 C 842.286 473.86 823.436 482.83 809.147 496.364 C 796.461 508.378 786.623 523.355 776.44 537.459 A 2281.39 2281.39 0 0 1 741.126 585.574 A 12580.4 12580.4 0 0 0 594.173 785.976 A 4598.73 4598.73 0 0 1 515.479 895.42 C 506.066 908.017 496.945 921.158 486.899 933.247 L 479.95 934.363 C 464.639 937.948 448.794 939.139 433.522 942.978 A 1442.32 1442.32 0 0 0 417.208 944.824 z"/>
<path transform="translate(0,0)" fill="rgb(254,254,254)" d="M 479.95 934.363 C 480.408 932.511 481.486 930.754 482.556 929.183 C 490.242 917.904 499.072 907.15 507.244 896.201 L 552.236 835.039 L 678.304 660.585 C 701.499 628.815 725.518 597.638 748.609 565.815 C 765.003 543.222 780.583 517.805 799.855 497.605 A 116.992 116.992 0 0 1 881.876 461.795 C 895.261 461.507 909.77 463.718 922.219 468.703 C 942.807 476.947 962.562 488.048 982.301 498.129 L 1069.97 542.694 A 18038.7 18038.7 0 0 1 1295.27 658.52 C 1313.29 668.119 1355.74 688.367 1369.05 701.226 C 1343.34 719.054 1313.15 727.934 1283.41 736.558 L 1282.07 731.919 C 1285.81 727.809 1297.67 726.278 1303.34 724.572 C 1322.97 718.667 1341.67 710.84 1360.03 701.76 C 1327.93 680.478 1290.02 662.379 1255.72 644.511 L 1074.48 551.586 L 972.62 499.824 C 954.194 490.553 935.579 479.742 916.024 473.048 C 898.495 467.047 879.647 466.395 861.508 470.02 C 842.286 473.86 823.436 482.83 809.147 496.364 C 796.461 508.378 786.623 523.355 776.44 537.459 A 2281.39 2281.39 0 0 1 741.126 585.574 A 12580.4 12580.4 0 0 0 594.173 785.976 A 4598.73 4598.73 0 0 1 515.479 895.42 C 506.066 908.017 496.945 921.158 486.899 933.247 L 479.95 934.363 z"/>
<path transform="translate(0,0)" fill="rgb(246,213,149)" d="M 486.899 933.247 C 496.945 921.158 506.066 908.017 515.479 895.42 A 4598.73 4598.73 0 0 0 594.173 785.976 A 12580.4 12580.4 0 0 1 741.126 585.574 A 2281.39 2281.39 0 0 0 776.44 537.459 C 786.623 523.355 796.461 508.378 809.147 496.364 C 823.436 482.83 842.286 473.86 861.508 470.02 C 879.647 466.395 898.495 467.047 916.024 473.048 C 935.579 479.742 954.194 490.553 972.62 499.824 L 1074.48 551.586 L 1255.72 644.511 C 1290.02 662.379 1327.93 680.478 1360.03 701.76 C 1341.67 710.84 1322.97 718.667 1303.34 724.572 C 1297.67 726.278 1285.81 727.809 1282.07 731.919 C 1282.02 725.124 1282.35 716.28 1276.9 711.259 C 1272.31 707.031 1265.54 706.548 1259.62 706.988 C 1240.93 708.377 1221.79 712.313 1203.24 715.097 L 1089.97 732.102 L 752.692 781.777 L 647.338 796.505 C 633.484 798.482 602.41 800.551 590.578 806.548 C 588.416 811.022 588.092 815.323 588.251 820.257 C 588.704 834.339 592.74 849.647 595.202 863.523 C 598.196 880.399 600.29 898.37 604.882 914.872 C 590.609 917.867 575.776 919.2 561.344 921.489 C 536.563 925.42 511.775 929.984 486.899 933.247 z"/>
<path transform="translate(0,0)" fill="rgb(254,254,254)" d="M 619.482 968.372 A 3620.39 3620.39 0 0 0 601.647 867.051 C 598.634 850.765 592.66 828.54 592.912 812.587 C 598.154 809.802 604.267 808.66 610.086 807.698 C 646.053 801.75 682.452 797.706 718.541 792.458 L 999.296 751.453 L 1155.75 728.084 C 1178.67 724.558 1254.43 710.96 1271.42 713.457 C 1279.72 726.314 1286.77 812.901 1291.82 836.348 C 1217.95 907.992 1153.69 994.695 1093.87 1078.21 C 1080.25 1097.24 1060.65 1120.94 1050.04 1141.04 C 1027.54 1129.49 1005.71 1116.54 983.441 1104.54 A 1741.28 1741.28 0 0 0 896.037 1061.43 C 872.344 1050.44 848.369 1039.23 823.667 1030.7 C 809.785 1024.27 794.977 1019.25 780.606 1014.03 C 728.56 995.116 673.764 979.478 619.482 968.372 z"/>
<path transform="translate(0,0)" fill="rgb(142,76,53)" d="M 1068.76 949.347 C 1071.99 956.656 1075.41 1012.38 1076.57 1025.74 C 1074.92 1027.64 1072.06 1027.52 1069.61 1027.97 L 1068.93 1027.74 C 1066.24 1023.88 1061.83 960.264 1062 952.577 C 1063.63 950.067 1065.97 950.139 1068.76 949.347 z"/>
<path transform="translate(0,0)" fill="rgb(142,76,53)" d="M 949.223 958.98 C 951.595 958.879 954.707 958.486 956.896 959.548 C 959.889 961.001 960.924 964.13 961.981 966.994 C 970.009 988.764 985.279 1009.76 990.317 1032.47 C 988.777 1034.26 988.378 1034.28 986.076 1034.94 C 978.011 1031.44 979.314 1018.17 972.889 1012.53 C 971.632 1011.43 969.432 1011.94 967.828 1011.98 C 959.841 1013.32 951.574 1013.86 943.514 1014.74 C 941.309 1021.97 940.873 1029.53 938.043 1036.59 C 935.717 1038.67 934.57 1039.19 931.635 1039.82 L 930.166 1038.82 C 931.356 1025.88 936.439 1012.17 939.67 999.521 C 943.109 986.064 945.752 972.435 949.223 958.98 z"/>
<path transform="translate(0,0)" fill="rgb(254,254,254)" d="M 954.197 968.658 C 958.146 972.051 967.804 998.006 970.552 1004.47 C 967.22 1005.55 963.595 1006.03 960.149 1006.68 A 576.68 576.68 0 0 1 945.406 1008.36 C 949.135 995.414 951.167 981.803 954.197 968.658 z"/>
<path transform="translate(0,0)" fill="rgb(142,76,53)" d="M 1014.63 953.364 C 1023.69 952.353 1032.69 952.335 1040.6 957.534 C 1045.65 960.852 1049.52 966.087 1050.46 972.125 C 1051.28 977.355 1049.63 982.558 1046.37 986.683 C 1037.67 997.703 1021.39 998.023 1008.56 999.53 L 1009.13 1010.31 C 1009.81 1015.27 1011.75 1022.53 1011.12 1027.37 C 1010.79 1029.91 1009.69 1030.86 1007.75 1032.35 C 1005.76 1032.76 1005.87 1033.11 1003.98 1032.05 C 997.909 1014.51 999.233 977.102 995.849 956.431 C 1002.1 955.044 1008.28 954.139 1014.63 953.364 z"/>
<path transform="translate(0,0)" fill="rgb(254,254,254)" d="M 1015 960.406 C 1019.24 959.867 1024.89 959.42 1029.05 960.553 C 1033.7 961.823 1038.3 964.91 1040.6 969.223 C 1042.15 972.121 1042.42 975.294 1041.43 978.418 C 1039.6 984.156 1035.39 986.747 1030.31 989.395 C 1022.78 991.118 1015 992.1 1007.37 993.316 C 1006.78 982.966 1005.59 972.672 1005.36 962.299 C 1007.38 960.711 1012.31 960.735 1015 960.406 z"/>
<path transform="translate(0,0)" fill="rgb(215,157,127)" d="M 1066.67 797.363 C 1069.7 796.92 1073.49 795.955 1076.4 797.212 C 1078.72 798.221 1079.59 799.204 1080.26 801.555 C 1078.31 804.042 1076.18 804.707 1073.23 805.399 C 1059.27 808.667 1044.57 810.333 1030.37 812.419 L 950.91 823.727 C 854.922 837.867 758.623 850.65 662.761 865.576 C 658.732 866.168 653.88 867.212 649.836 866.456 C 647.707 866.057 647.396 866.131 646.086 864.326 L 647.179 861.588 C 648.782 859.859 649.997 859.305 652.235 858.83 C 664.732 856.178 677.873 855.12 690.523 853.173 L 789.353 838.39 L 1066.67 797.363 z"/>
<path transform="translate(0,0)" fill="rgb(215,157,127)" d="M 1081.7 854.346 C 1083.64 853.939 1086.02 853.468 1087.97 854.04 C 1090.57 854.802 1091.18 855.576 1092.19 857.824 L 1090.75 860.45 C 1088.23 862.477 1085.24 863.079 1082.12 863.677 C 1064.69 867.015 1046.77 868.923 1029.21 871.506 L 923.728 886.875 L 670.688 923.408 C 669.328 923.758 667.955 924.113 666.567 924.328 C 663.136 924.859 660.34 923.757 657.63 921.701 L 657.83 919.933 C 661.071 916.539 665.115 915.509 669.593 914.612 C 683.804 911.767 698.743 910.535 713.121 908.567 A 7280.86 7280.86 0 0 0 791.06 897.294 L 1081.7 854.346 z"/>
<path transform="translate(0,0)" fill="rgb(246,213,149)" d="M 1178.35 761.174 C 1192.2 759.78 1205.32 761.729 1217.6 768.514 C 1231.01 775.922 1241.41 789.615 1245.42 804.424 A 57.0053 57.0053 0 0 1 1239.28 848.859 C 1230.47 863.835 1217.45 872.39 1200.82 876.747 C 1185.38 878.73 1171.55 877.221 1157.85 869.35 C 1144.4 861.623 1134.67 849.226 1130.74 834.187 C 1126.64 818.512 1129.55 801.48 1137.89 787.674 C 1147.45 771.864 1161.03 765.34 1178.35 761.174 z"/>
<path transform="translate(0,0)" fill="rgb(254,254,254)" d="M 1184.85 798.065 C 1188.49 797.874 1192.43 798.189 1195.84 799.546 C 1201.23 801.692 1205.5 806.41 1207.43 811.848 A 21.9668 21.9668 0 0 1 1206.31 829.156 C 1203.22 835.139 1198.51 837.966 1192.33 840.12 C 1187.74 840.137 1183.23 839.817 1178.95 837.975 C 1174.02 835.848 1169.88 831.748 1167.98 826.699 A 21.0279 21.0279 0 0 1 1169.02 809.665 C 1172.47 803.112 1177.95 799.987 1184.85 798.065 z"/>
<path transform="translate(0,0)" fill="rgb(246,213,149)" d="M 433.209 1003.13 C 447.583 1004.04 462.001 1003.76 476.366 1004.73 A 778.88 778.88 0 0 1 565.512 1016.16 C 687.784 1038.43 826.077 1090.26 938.077 1143.72 C 964.786 1156.47 993.028 1169.34 1018.18 1184.91 A 28315.2 28315.2 0 0 1 796.88 1493.44 A 5430.11 5430.11 0 0 1 720.577 1595.54 C 707.691 1612.44 695.197 1630.17 681.216 1646.17 L 676.823 1652.27 C 658.225 1677.31 638.117 1702.26 617.565 1725.72 C 609.17 1697.94 603.059 1669.02 595.913 1640.88 A 12352 12352 0 0 0 555.511 1485.68 A 25478.7 25478.7 0 0 1 470.941 1158.51 C 458.161 1106.84 444.326 1055.17 433.209 1003.13 z"/>
<path transform="translate(0,0)" fill="rgb(254,254,254)" d="M 705.723 1384.1 C 707.558 1339.57 716.193 1265.45 697.513 1224.38 C 687.993 1203.45 660.164 1198.29 640.368 1190.99 C 620.242 1183.57 597.428 1173.38 588.258 1152.53 C 584.906 1144.91 583.182 1135.99 586.504 1128.05 C 588.929 1122.25 593.743 1117.9 599.534 1115.59 C 608.872 1111.87 619.208 1114.04 628.043 1118.11 C 664.902 1135.09 690.122 1184.42 703.342 1220.64 C 705.975 1202.64 709.333 1185.47 717.746 1169.15 C 726.008 1153.12 740.952 1135.01 758.891 1129.73 C 765.869 1127.68 774.394 1127.68 780.794 1131.52 C 784.989 1134.03 787.72 1138.06 788.836 1142.79 C 795.226 1169.88 752.09 1201.74 735.205 1219.39 C 726.065 1228.95 718.408 1239.2 711.241 1250.29 C 718.25 1296.21 717.065 1342.54 711.683 1388.53 C 726.63 1364.9 745.59 1342.61 767.453 1325.07 C 781.489 1313.81 805.111 1298.82 823.852 1301.49 C 830.455 1302.44 836.572 1305.84 840.304 1311.45 C 843.718 1316.59 844.736 1322.68 843.306 1328.68 C 833.74 1368.75 756.268 1366.37 726.768 1384.94 C 720.992 1388.58 714.849 1394.04 711.633 1400.16 C 704.707 1413.33 703.153 1436.55 700.294 1451.65 A 922.611 922.611 0 0 1 690.709 1496.99 C 701.72 1481.51 712.777 1467.04 727.18 1454.49 C 740.12 1443.22 761.072 1427.92 779.262 1429.62 C 785.246 1430.18 791.044 1432.78 794.694 1437.68 C 797.951 1442.05 798.935 1447.59 798.152 1452.92 C 792.304 1492.76 715.302 1497.1 686.688 1518.07 C 686.357 1518.31 686.033 1518.56 685.706 1518.81 C 678.228 1554.8 673.998 1610.5 681.216 1646.17 L 676.823 1652.27 C 667.679 1622.08 672.154 1586.04 673.491 1554.84 C 644.985 1545.27 600.951 1544.6 582.856 1516.75 C 579.132 1511.02 577.213 1504.22 578.977 1497.46 C 580.535 1491.49 584.708 1486.6 589.991 1483.53 C 597.982 1478.89 607.847 1478.67 616.615 1480.93 C 644.848 1488.22 661.505 1514.53 674.979 1538.09 C 681.256 1506.82 688.958 1475.85 695.329 1444.6 C 698.159 1430.71 702.035 1415.5 702.391 1401.31 C 702.508 1396.64 701.803 1392.44 699.194 1388.48 C 684.981 1366.95 644.18 1366.61 621.364 1361.83 C 607.411 1358.9 594.781 1352.91 586.911 1340.39 C 582.347 1333.14 580.239 1324.06 582.6 1315.67 C 584.126 1310.24 587.676 1306.03 592.632 1303.4 C 603.192 1297.8 615.187 1298.81 626.166 1302.39 C 663.16 1314.45 688.979 1351.11 705.723 1384.1 z"/>
<path transform="translate(0,0)" fill="rgb(246,213,149)" d="M 605.38 1485.22 C 610.133 1485.33 614.899 1486.53 619.328 1488.24 C 644.087 1497.78 661.445 1523.45 671.791 1546.71 C 665.577 1545.67 659.383 1544.17 653.219 1542.86 C 637.591 1539.31 619.764 1536.27 605.596 1528.58 C 597.073 1523.95 587.782 1516.49 585.17 1506.73 C 584.036 1502.49 584.424 1498 586.927 1494.31 C 591.141 1488.11 598.482 1486.44 605.38 1485.22 z"/>
<path transform="translate(0,0)" fill="rgb(246,213,149)" d="M 770.83 1436.13 C 774.244 1435.91 778.188 1435.35 781.495 1436.45 C 785.529 1437.8 789.011 1441.01 790.558 1444.98 C 792.299 1449.45 791.57 1454.53 789.692 1458.82 C 778.663 1484.01 733.973 1490.09 710.758 1498.57 C 704.779 1500.69 698.908 1503.31 693.031 1505.72 C 710.618 1475.43 736.74 1447.11 770.83 1436.13 z"/>
<path transform="translate(0,0)" fill="rgb(246,213,149)" d="M 813.969 1308.17 C 818.656 1307.81 823.73 1307.29 828.164 1309.23 C 832.585 1311.16 836.249 1315.8 837.713 1320.34 C 838.94 1324.14 838.408 1327.99 836.51 1331.47 C 822.403 1357.32 772.086 1362.07 746.465 1369.73 C 739.786 1372.1 733.266 1375.01 726.73 1377.76 C 727.044 1377.23 727.35 1376.7 727.672 1376.18 C 731.674 1369.67 737.291 1363.62 742.314 1357.9 C 761.712 1335.81 784.788 1315.33 813.969 1308.17 z"/>
<path transform="translate(0,0)" fill="rgb(246,213,149)" d="M 761.573 1135.07 C 767.52 1134.7 775.297 1134.98 780.048 1139.2 C 782.158 1141.07 783.301 1143.25 783.542 1146.06 C 785.69 1171.11 734.984 1209.05 719.582 1227.67 L 718.751 1228.69 C 715.743 1232.91 712.719 1237.04 709.435 1241.05 C 708.462 1218.42 712.817 1192.73 722.887 1172.3 C 731.119 1155.6 743.589 1141.22 761.573 1135.07 z"/>
<path transform="translate(0,0)" fill="rgb(246,213,149)" d="M 603.313 1306.24 C 609.516 1306 614.904 1306.11 620.959 1307.83 C 651.863 1316.58 678.558 1346.59 693.76 1373.64 A 803.285 803.285 0 0 0 680.257 1367.52 C 676.206 1365.95 672.194 1364.84 667.987 1363.77 C 647.87 1358.69 624.764 1359.5 606.161 1349.71 C 598.669 1345.76 591.155 1339.76 588.907 1331.21 C 587.46 1325.71 588.027 1317.8 591.092 1312.9 C 593.674 1308.78 598.927 1307.39 603.313 1306.24 z"/>
<path transform="translate(0,0)" fill="rgb(246,213,149)" d="M 603.884 1120.21 C 609.747 1119.82 614.824 1120.05 620.42 1122.07 C 653.562 1134.03 676.613 1174.32 690.48 1204.52 L 680.436 1199.72 C 654.334 1187.9 611.19 1180.84 595.856 1153.99 C 592.415 1147.97 589.694 1138.9 591.821 1132.02 C 593.754 1125.77 598.319 1122.98 603.884 1120.21 z"/>
<path transform="translate(0,0)" fill="rgb(246,213,149)" d="M 1486.48 767.163 L 1515.44 891.995 A 5447.19 5447.19 0 0 0 1550.39 1028.07 C 1555.66 1048.01 1560.15 1068.15 1565.89 1087.96 L 1567.63 1093.92 L 1579.68 1140.54 C 1581.62 1148.18 1583.05 1156.61 1585.64 1163.98 L 1587.64 1171.05 C 1589.49 1178.2 1591.14 1185.52 1593.53 1192.51 L 1594.54 1197.32 C 1601.05 1220.34 1608.45 1243.69 1613.38 1267.08 L 1618.68 1287 C 1609.73 1298.57 1602.24 1311.11 1593.06 1322.57 C 1570.77 1350.39 1541.13 1370.24 1510.78 1388.32 C 1503.42 1424.72 1495.51 1460.3 1484.98 1495.95 L 1479.88 1497.78 C 1401.21 1517.98 1323.18 1541.03 1244.8 1562.34 L 1163.01 1584.48 C 1151.11 1587.69 1137.56 1590.08 1126.18 1594.57 L 1119.37 1596.49 C 1106.96 1599.94 1085.35 1608.02 1073.58 1608.96 L 1061.43 1611.96 C 1008.37 1628.42 954.132 1641.28 900.638 1656.29 L 826.486 1676.92 C 816.152 1679.77 803.588 1684.71 792.949 1685.29 C 784.746 1687.88 776.586 1690.53 768.203 1692.5 C 744.547 1701.2 719.307 1707.44 694.932 1713.94 C 702.29 1703.92 710.501 1694.46 718.147 1684.64 L 769.378 1617.89 C 814.336 1558.45 857.987 1497.64 901.27 1436.96 C 981.782 1324.1 1060.68 1210.26 1144.15 1099.53 C 1196.86 1029.61 1252.69 956.069 1315.05 894.507 C 1365.24 844.952 1423.25 798.877 1486.48 767.163 z"/>
<path transform="translate(0,0)" fill="rgb(254,254,254)" d="M 1274.51 1160 C 1276.81 1159.99 1279.28 1160.32 1281.42 1161.2 C 1285.93 1163.05 1289.39 1166.93 1291.13 1171.43 C 1298.81 1191.25 1286.24 1223.46 1277.78 1241.39 C 1267.12 1238.46 1257.43 1232.08 1248.47 1225.79 C 1238.44 1218.37 1226.96 1208.88 1221.85 1197.19 C 1219.94 1192.81 1218.51 1186.17 1220.77 1181.64 C 1222.21 1178.73 1224.34 1176.84 1227.48 1176.06 C 1236.69 1173.79 1247.31 1179.29 1255.09 1183.72 C 1260.07 1172.45 1263.51 1166.07 1274.51 1160 z"/>
<path transform="translate(0,0)" fill="rgb(246,213,149)" d="M 1275.27 1165.67 C 1276.47 1165.97 1277.68 1166.3 1278.83 1166.75 C 1282.02 1167.98 1284.25 1171.15 1285.57 1174.19 C 1292.7 1190.55 1280.81 1219.42 1274.91 1235.25 C 1265.41 1230.16 1256.4 1225.04 1247.98 1218.27 C 1244.07 1215.31 1240.28 1211.93 1236.87 1208.41 C 1232.32 1203.72 1224.37 1194.79 1225.51 1187.79 C 1225.88 1185.54 1227.22 1183.99 1229.33 1183.12 C 1237.57 1179.72 1250.96 1187.38 1258.14 1190.93 C 1262.53 1180.56 1265.35 1171.96 1275.27 1165.67 z"/>
<path transform="translate(0,0)" fill="rgb(254,254,254)" d="M 1130.93 1478.08 C 1123.69 1446.84 1092.37 1401.53 1104.83 1369.51 C 1107.44 1362.79 1112.39 1356.76 1119.1 1353.88 C 1125.79 1351.02 1132.74 1351.52 1139.31 1354.41 C 1148.43 1358.41 1154.44 1366.17 1157.69 1375.43 C 1168.73 1406.91 1154.22 1445.58 1140.57 1473.87 C 1167.74 1456.7 1209.56 1418.05 1241.75 1416.29 C 1248.47 1415.92 1256.14 1416.93 1261.26 1421.73 C 1266.31 1426.46 1268.52 1433.91 1268.69 1440.65 C 1268.92 1450.05 1264.77 1459.07 1258.13 1465.6 C 1238.98 1484.41 1202.02 1488.44 1176.67 1487.38 C 1163.05 1486.81 1149.59 1484.33 1135.94 1483.93 C 1121.45 1493.81 1108.13 1507.17 1094.47 1518.31 A 999.709 999.709 0 0 1 1015.72 1576.3 C 1035.52 1570.95 1054.7 1567.3 1075.29 1569.87 C 1093.36 1572.12 1114.64 1579.72 1126.18 1594.57 L 1119.37 1596.49 C 1106.96 1599.94 1085.35 1608.02 1073.58 1608.96 L 1061.43 1611.96 C 1008.37 1628.42 954.132 1641.28 900.638 1656.29 L 826.486 1676.92 C 816.152 1679.77 803.588 1684.71 792.949 1685.29 C 784.746 1687.88 776.586 1690.53 768.203 1692.5 C 767.757 1691.69 767.987 1692.26 768.077 1690.64 C 778.711 1682.31 794.606 1676.76 806.847 1670.98 L 888.929 1632.64 A 98.6944 98.6944 0 0 1 887.509 1623.53 C 883.923 1593.13 886.186 1555.52 906.219 1530.63 C 911.815 1523.67 919.695 1517.07 928.946 1516.29 A 20.7902 20.7902 0 0 1 944.766 1521.54 C 950.467 1526.68 952.525 1534.65 952.765 1542.07 C 953.855 1575.75 926.023 1603.9 905.056 1626.8 C 944.714 1612.68 986.096 1590.86 1018.73 1564.14 C 1009.89 1550.31 998.106 1538.63 989.679 1524.35 C 979.977 1507.91 970.518 1483.63 975.95 1464.33 C 977.626 1458.38 981.275 1453.1 986.792 1450.14 C 992.829 1446.9 1000.02 1446.84 1006.39 1449.11 C 1019.24 1453.68 1028.01 1466.24 1033.24 1478.3 C 1045.03 1505.51 1040.76 1532.47 1030.28 1559.21 C 1064.02 1532.81 1100.63 1508.62 1130.93 1478.08 z"/>
<path transform="translate(0,0)" fill="rgb(246,213,149)" d="M 973.642 1602.19 C 998.112 1586.45 1024.19 1577.62 1053.48 1576.02 C 1078.41 1574.66 1100.31 1579.56 1119.37 1596.49 C 1106.96 1599.94 1085.35 1608.02 1073.58 1608.96 C 1052.97 1594.53 998.341 1597.97 973.642 1602.19 z"/>
<path transform="translate(0,0)" fill="rgb(246,213,149)" d="M 929.336 1522.18 C 933.203 1522.46 937.501 1523.44 940.408 1526.16 C 944.827 1530.3 946.017 1538.04 946.133 1543.78 C 946.743 1573.7 921.81 1599.51 902.906 1619.87 L 895.454 1627.66 C 889.13 1601.25 892.765 1565.2 906.588 1541.54 C 911.969 1532.34 918.835 1525.01 929.336 1522.18 z"/>
<path transform="translate(0,0)" fill="rgb(246,213,149)" d="M 1121.84 1359.06 C 1127.13 1358.37 1132.27 1358.47 1137.24 1360.58 C 1143.96 1363.43 1148.24 1368.52 1150.92 1375.21 C 1162.15 1403.13 1149.16 1438.87 1137.92 1464.62 L 1136.39 1466.55 C 1135.88 1466.13 1135.3 1465.79 1134.86 1465.3 C 1131.41 1461.51 1128.84 1450.6 1126.81 1445.64 C 1118.37 1425.05 1104.6 1400.33 1109.29 1377.19 C 1111 1368.77 1114.69 1363.61 1121.84 1359.06 z"/>
<path transform="translate(0,0)" fill="rgb(246,213,149)" d="M 991.872 1454.07 C 1000.53 1453.64 1006.84 1454.9 1013.6 1460.73 C 1026.02 1471.44 1032.02 1490.79 1033.18 1506.68 C 1034.1 1519.31 1031.96 1548.4 1023.4 1558.24 C 1017.07 1551.4 1011.25 1543.57 1005.65 1536.11 C 992.985 1519.25 977.554 1493.06 981.207 1470.96 C 982.488 1463.22 985.703 1458.72 991.872 1454.07 z"/>
<path transform="translate(0,0)" fill="rgb(246,213,149)" d="M 1235.85 1423.1 C 1238.06 1422.9 1240.28 1422.7 1242.5 1422.65 C 1248.17 1422.51 1255.24 1424.89 1259.25 1429.02 C 1262.13 1431.98 1263.44 1435.65 1263.39 1439.76 C 1263.29 1447.65 1258.58 1455.04 1253.08 1460.38 C 1233.34 1479.57 1199.8 1481.3 1173.98 1480.8 C 1164.53 1480.07 1155.17 1479.33 1145.81 1477.81 C 1172.16 1459.45 1204.74 1431.81 1235.85 1423.1 z"/>
<path transform="translate(0,0)" fill="rgb(246,213,149)" d="M 792.949 1685.29 C 801.176 1678.87 813.487 1674.83 823.081 1670.38 C 854.903 1655.63 887.025 1642.08 919.226 1628.22 C 932.909 1622.32 947.067 1613.61 961.421 1610.05 C 981.308 1605.13 1044.54 1602.23 1061.43 1611.96 C 1008.37 1628.42 954.132 1641.28 900.638 1656.29 L 826.486 1676.92 C 816.152 1679.77 803.588 1684.71 792.949 1685.29 z"/>
<path transform="translate(0,0)" fill="rgb(254,254,254)" d="M 1510.83 1200.83 C 1506.79 1178.97 1490.37 1093.7 1481.18 1077.94 C 1477.47 1071.58 1469.28 1066.37 1464.18 1060.92 C 1456.24 1052.45 1448.67 1042.42 1442.34 1032.71 C 1418.61 996.293 1407.66 959.054 1405.9 915.866 C 1405.52 906.414 1404.49 895.95 1406.45 886.673 L 1407.11 887.549 L 1409.77 886.053 L 1408.12 888.094 C 1448.51 952.899 1470.86 1015.1 1491.39 1088.23 A 1044.7 1044.7 0 0 1 1517.99 1204.35 C 1521.8 1179.54 1527.81 1155.32 1537.79 1132.2 C 1541.87 1122.74 1556.06 1091.85 1565.89 1087.96 L 1567.63 1093.92 L 1579.68 1140.54 C 1581.62 1148.18 1583.05 1156.61 1585.64 1163.98 L 1587.64 1171.05 C 1589.49 1178.2 1591.14 1185.52 1593.53 1192.51 L 1594.54 1197.32 C 1601.05 1220.34 1608.45 1243.69 1613.38 1267.08 L 1618.68 1287 C 1609.73 1298.57 1602.24 1311.11 1593.06 1322.57 C 1570.77 1350.39 1541.13 1370.24 1510.78 1388.32 C 1503.42 1424.72 1495.51 1460.3 1484.98 1495.95 L 1479.88 1497.78 C 1477.44 1490.82 1489.67 1456.36 1491.97 1446.72 C 1480.27 1442.99 1468.71 1438.91 1457.77 1433.26 C 1394.66 1400.67 1376.64 1343.68 1356.33 1280.8 C 1370.1 1290.26 1382.57 1303.33 1394.79 1314.8 C 1434.37 1351.99 1472.01 1388.61 1493.44 1439.68 C 1507.88 1383.13 1521.1 1270.38 1512.13 1213.31 C 1503.72 1211.14 1493.95 1209.84 1486.07 1206.23 C 1471.49 1199.55 1456.7 1194.13 1443.97 1184.11 C 1417.56 1163.33 1403.79 1134.29 1389.72 1104.77 C 1386.66 1098.35 1381.34 1091.16 1380.47 1084.12 L 1381.37 1083.07 C 1386.39 1084.61 1398.26 1095.93 1403.21 1099.8 C 1449.11 1135.67 1474.07 1154.55 1510.83 1200.83 z"/>
<path transform="translate(0,0)" fill="rgb(246,213,149)" d="M 1587.64 1171.05 C 1589.49 1178.2 1591.14 1185.52 1593.53 1192.51 C 1571.45 1201.28 1552.87 1205.9 1528.97 1205.83 C 1544.8 1191.56 1567.47 1177.92 1587.64 1171.05 z"/>
<path transform="translate(0,0)" fill="rgb(246,213,149)" d="M 1611.23 1280.8 L 1612.49 1281.65 C 1612.46 1282.02 1612.47 1282.39 1612.4 1282.76 C 1611.31 1288.47 1605 1295.73 1601.61 1300.52 C 1578.46 1333.29 1553.06 1355.6 1518.6 1376.05 L 1517.85 1375.9 L 1517.39 1374.43 C 1538.5 1329.68 1574.45 1310.46 1611.23 1280.8 z"/>
<path transform="translate(0,0)" fill="rgb(246,213,149)" d="M 1395.5 1101.81 C 1403.68 1106.68 1411.49 1114.07 1419.05 1119.93 C 1449.82 1143.76 1484.21 1170.28 1504.65 1204.22 C 1491.28 1202.32 1477.42 1195.94 1465.52 1189.78 C 1437.34 1175.19 1420.15 1152.04 1405.86 1124.37 C 1402.09 1117.07 1398.01 1109.64 1395.5 1101.81 z"/>
<path transform="translate(0,0)" fill="rgb(246,213,149)" d="M 1412.19 908.508 C 1412.48 908.703 1412.79 908.87 1413.06 909.093 C 1418.17 913.333 1422.89 925.279 1425.91 931.286 C 1445.36 969.979 1469.53 1022.75 1477.26 1065.2 C 1475.31 1063.68 1473.56 1062.07 1471.87 1060.26 C 1433.47 1019.21 1410.35 965.161 1412.19 908.508 z"/>
<path transform="translate(0,0)" fill="rgb(246,213,149)" d="M 1567.63 1093.92 L 1579.68 1140.54 C 1581.62 1148.18 1583.05 1156.61 1585.64 1163.98 C 1563.81 1174.66 1544.57 1186.39 1525.35 1201.2 C 1529.53 1170.52 1545.35 1114.77 1567.63 1093.92 z"/>
<path transform="translate(0,0)" fill="rgb(246,213,149)" d="M 1368.99 1298.97 C 1378.59 1306.23 1387.44 1316.42 1396.21 1324.84 C 1431.55 1358.79 1466.14 1392.57 1486.78 1437.95 C 1476.78 1435.64 1466.53 1430.49 1457.56 1425.61 C 1406.94 1398.06 1384.89 1352.25 1368.99 1298.97 z"/>
<path transform="translate(0,0)" fill="rgb(246,213,149)" d="M 1594.54 1197.32 C 1601.05 1220.34 1608.45 1243.69 1613.38 1267.08 C 1602.22 1279.99 1589.56 1289.46 1576.02 1299.66 C 1548.44 1320.46 1526.91 1341.35 1511.67 1372.81 C 1519.53 1338.32 1521.18 1297.39 1521.16 1261.91 C 1521.16 1248.12 1519.33 1233.69 1520.6 1220.01 C 1520.84 1217.41 1521.1 1214.42 1523.54 1213.01 C 1528.01 1210.42 1548.68 1211.86 1555.7 1210.89 C 1565.72 1209.51 1575.94 1206.95 1585.19 1202.82 C 1588.01 1201.56 1591.52 1200.3 1593.8 1198.17 C 1594.07 1197.91 1594.29 1197.6 1594.54 1197.32 z"/>
</svg>