<svg version="1.1" xmlns="http://www.w3.org/2000/svg" style="display: block;" viewBox="0 0 2048 2048" width="1024" height="1024">
<path transform="translate(0,0)" fill="rgb(254,254,254)" d="M 0 0 L 2048 0 L 2048 2048 L 0 2048 L 0 0 z"/>
<path transform="translate(0,0)" fill="rgb(85,110,128)" d="M 1574.78 1459.52 C 1561.55 1474.7 1544.18 1487.12 1528.62 1499.87 C 1491.6 1530.19 1454.91 1557.58 1412.75 1580.4 C 1391.12 1592.11 1368.32 1601.54 1346.72 1613.31 C 1341.01 1609.83 1335.79 1604.71 1330.3 1600.77 C 1319.56 1593.09 1308.46 1587.03 1296.71 1581.1 C 1310.54 1572.91 1318.26 1562.01 1330.05 1551.85 C 1347.43 1550.55 1364.51 1545.91 1381.38 1541.74 C 1450.11 1524.74 1515.72 1498.92 1574.78 1459.52 z"/>
<path transform="translate(0,0)" fill="rgb(112,153,168)" d="M 222.129 596.791 C 220.975 614.071 217.224 631.816 214.829 649.028 A 711.194 711.194 0 0 0 208.324 726.105 C 202.909 907.022 271.135 1087.26 385.428 1226.17 A 982.869 982.869 0 0 0 443.563 1290.29 C 459.168 1305.8 475.633 1320.43 490.744 1336.45 A 716.367 716.367 0 0 1 481.794 1355.8 C 476.773 1348.62 467.429 1341.77 460.915 1335.79 C 449.026 1324.88 437.35 1314.06 426.263 1302.32 C 370.37 1243.16 324 1182.55 286.084 1110.34 C 234.621 1012.32 203.934 908.313 198.577 797.572 C 195.221 728.179 201.44 663.296 222.129 596.791 z"/>
<path transform="translate(0,0)" fill="rgb(112,153,168)" d="M 137.233 972.713 C 140.398 976.623 143.314 1010.42 144.382 1018.62 C 150.05 1062.14 159.421 1107.48 171.543 1149.7 C 196.868 1237.93 230.211 1317 279.846 1394.26 A 823.24 823.24 0 0 0 695.754 1727.93 C 740.94 1744.19 786.042 1754.91 832.827 1765.14 C 850.494 1797.21 865.9 1829.85 885.232 1861.11 C 854.604 1860.63 805.003 1846.86 775.428 1838.02 A 867.569 867.569 0 0 1 446.378 1658.79 C 425.956 1640.93 406.706 1621.4 387.629 1602.11 C 374.657 1589 363.204 1575.22 351.187 1561.27 A 894.89 894.89 0 0 1 137.233 972.713 z"/>
<path transform="translate(0,0)" fill="rgb(112,153,168)" d="M 1904.68 978.362 A 867.552 867.552 0 0 1 1666.72 1596.24 C 1554.89 1715.48 1403.68 1806 1244.04 1843.31 C 1178.12 1858.71 1110.85 1865.03 1043.32 1867.17 C 1026.42 1867.7 1009.68 1867.43 992.787 1866.84 C 995.353 1853.13 997.878 1839.5 1002.17 1826.2 C 1015.85 1783.79 1044 1744.09 1080.77 1718.68 C 1096.23 1708 1113.67 1699.09 1131.27 1692.51 C 1139.03 1689.61 1148.94 1687.46 1155.99 1683.44 C 1176.3 1689.29 1195.77 1701.05 1206.49 1719.71 C 1211.12 1727.77 1214.59 1736.79 1219.79 1744.47 C 1232.25 1762.89 1253.47 1775.44 1275.11 1779.54 C 1298.39 1783.96 1326.66 1780.37 1346.46 1766.62 C 1364.35 1754.18 1380.28 1734.99 1384.05 1713.02 C 1389.66 1680.35 1380.12 1655.36 1361.42 1628.84 A 761.251 761.251 0 0 0 1589.34 1476.18 C 1606.69 1459.43 1621.82 1440.62 1638.97 1423.85 C 1656.8 1406.43 1677.59 1392.22 1695.34 1374.49 C 1767.24 1302.62 1822.29 1213.49 1859.65 1119.3 C 1877.98 1073.09 1890.14 1025.72 1904.68 978.362 z"/>
<path transform="translate(0,0)" fill="rgb(112,153,168)" d="M 810.736 1499.94 C 815.252 1458.59 821.952 1418.35 834.676 1378.62 C 863.7 1287.99 924.932 1204.37 998.806 1145.14 C 1039.11 1112.83 1082.74 1087.79 1130.65 1068.4 C 1167.91 1053.32 1206.73 1040.62 1242.79 1022.8 C 1273.24 1007.75 1300.33 986.284 1325.43 963.6 C 1346.48 944.575 1366.8 924.346 1384.39 902.039 C 1434.97 837.91 1465.04 758 1473.99 677.162 C 1485.16 576.301 1454.82 461.313 1403.24 374.555 C 1389.76 351.889 1372.9 329.669 1356.35 309.1 C 1325.35 270.562 1286.96 238.802 1245.63 211.962 C 1227.63 200.277 1209.44 188.497 1190.39 178.582 C 1127.38 145.787 1055.43 127.755 985.125 120.301 C 786.797 99.2731 595.457 179.098 443.53 302.164 C 432.869 310.8 422.587 319.822 412.105 328.663 L 411.492 328.383 C 420.525 313.997 453.577 284.673 467.044 272.924 C 574.633 179.061 703.562 116.823 842.525 85.1795 A 850.802 850.802 0 0 1 1475.27 192.207 C 1621.82 284.688 1738.03 410.041 1809.47 568.504 A 761.677 761.677 0 0 1 1860.04 717.332 A 689.745 689.745 0 0 1 1809.35 1173.65 C 1799.03 1194.79 1788.18 1215.86 1775.57 1235.75 C 1760.94 1258.83 1743.23 1278.64 1727.1 1300.46 C 1727.22 1300.16 1727.34 1299.85 1727.46 1299.55 C 1732.75 1286.42 1740.53 1273.68 1747.05 1261.09 A 406.083 406.083 0 0 0 1771.19 1206.13 C 1814.51 1086.26 1830.28 975.144 1818.78 848.021 C 1814.23 797.756 1805.37 746.165 1790.95 697.76 C 1781.93 667.5 1769.94 637.667 1757.76 608.54 C 1745.03 578.095 1729.77 549.368 1713.22 520.842 A 875.258 875.258 0 0 0 1290.92 152.917 A 754.484 754.484 0 0 0 977.694 94.9033 C 968.44 95.1 934.046 95.1276 926.698 97.7424 C 926.43 97.8377 926.182 97.9802 925.923 98.099 L 925.797 98.446 L 929.256 98.311 L 929.013 98.6258 C 971.879 99.0438 1013.28 101.008 1055.56 108.835 C 1143.54 125.123 1230.33 167.882 1299.49 224.294 C 1317.62 239.083 1334.49 255.585 1350.85 272.283 C 1371.44 293.298 1388.34 315.439 1404.82 339.783 A 521.231 521.231 0 0 1 1497.31 639.017 C 1497 668.146 1493 696.887 1487.13 725.38 C 1467.98 818.385 1423.5 897.07 1355.72 963.451 C 1310.1 1008.13 1256.16 1040.29 1197.03 1063.69 C 1161.48 1077.75 1124.95 1090.15 1090.69 1107.21 C 1014.69 1145.07 953.02 1204.64 906.836 1275.3 C 896.125 1291.69 885.622 1308.51 877.168 1326.19 A 503.12 503.12 0 0 0 830.083 1529.78 C 828.741 1639.69 860.536 1744.34 919.287 1836.98 C 928.949 1852.22 937.997 1868.37 948.934 1882.7 C 953.96 1889.29 964.19 1897.59 966.681 1905.3 C 966.65 1905.65 966.57 1906 966.588 1906.35 C 966.783 1910.14 970.581 1914.57 972.47 1917.84 C 973.267 1919.22 972.99 1918.8 973.09 1920.73 C 971.572 1920.62 971.768 1920.93 970.796 1919.88 C 968.319 1917.2 967.311 1912.79 965.368 1909.59 C 961.447 1903.14 956.709 1896.88 952.219 1890.8 C 950.938 1897.37 950 1903.75 949.494 1910.42 C 920.084 1877.94 896.736 1840.19 876.888 1801.25 C 829.338 1707.96 810.152 1628.47 809.957 1523.58 A 849.531 849.531 0 0 1 586.672 1427.74 C 566.852 1415.61 548.191 1401.65 528.636 1389.1 L 535.59 1365.35 C 556.634 1383.06 580.244 1398.03 603.894 1412.01 C 669.444 1450.74 737.562 1478.98 810.736 1499.94 z"/>
<path transform="translate(0,0)" fill="rgb(17,42,76)" d="M 875.851 401.277 C 894.684 426.15 913.833 471.766 920.21 502.084 C 922.933 515.03 923.779 528.299 923.96 541.504 C 955.153 505.574 998.055 482.631 1042.34 467.22 C 1047.62 500.311 1049.82 533.4 1046.35 566.829 C 1044.83 581.509 1041.82 595.993 1040.14 610.644 C 1070.69 590.214 1098.32 575.511 1131.76 560.371 C 1143.94 554.853 1156.24 548.774 1169.07 544.906 C 1167.49 593.695 1151.76 643.776 1129.79 687.157 C 1123.92 698.745 1116.51 709.492 1110.68 721.044 C 1176.23 718.073 1229.18 723.735 1289.93 750.392 C 1217.3 832.147 1117.95 898.13 1006.16 904.774 A 130.771 130.771 0 0 1 997.034 905.024 C 1009.28 911.657 1021.36 917.55 1032.87 925.546 C 1078.26 957.096 1116.4 1006.14 1139.34 1056.18 A 343.836 343.836 0 0 1 881.096 1024.32 C 841.794 1001.85 808.055 972.081 782.206 934.802 A 336.993 336.993 0 0 1 751.392 1029.2 C 730.809 1070.53 702.126 1107.64 673.531 1143.64 C 619.508 1211.64 561.32 1280.75 535.59 1365.35 L 528.636 1389.1 C 510.355 1453.89 511.349 1518.52 516.236 1585.11 C 491.157 1555.95 469.073 1523.62 447.456 1491.85 C 451.233 1445.46 464.71 1398.9 481.794 1355.8 A 716.367 716.367 0 0 0 490.744 1336.45 C 513.563 1291.89 535.813 1256.16 566.647 1216.6 C 581.828 1197.12 597.283 1177.61 613.338 1158.85 C 677.537 1083.81 753.769 1003.14 764.478 900.25 C 729.303 948.363 645.864 984.751 588.347 993.684 C 510.478 1005.78 429.888 983.768 360.526 948.804 C 369.014 938.525 379.133 929.761 389.141 921.008 C 427.008 887.891 468.058 861.673 515.026 843.338 C 498.026 834.782 480.205 826.626 464.196 816.295 C 404.961 778.069 333.218 704.807 299.889 642.613 C 355.392 634.059 415.301 633.717 470.094 647.087 A 424.629 424.629 0 0 1 434.054 485.585 C 433.786 474.046 433.393 461.936 435.108 450.52 C 466.974 465.595 533.953 512.639 558.965 536.165 C 558.602 490.062 562.302 446.22 580.284 403.209 C 615.103 425.83 646.874 453.804 671.258 487.656 C 684.84 456.161 701.22 426.255 726.045 402.137 C 755.224 430.922 775.812 468.179 793.017 504.967 C 811.12 463.37 840.93 429.633 875.851 401.277 z"/>
<path transform="translate(0,0)" fill="rgb(254,254,254)" d="M 773.163 640.051 L 772.382 638.149 L 773.453 637.012 C 780.795 635.803 788.518 635.542 795.89 636.613 C 796.207 639.577 796.628 641.881 795.376 644.708 C 792.809 645.429 794.07 645.438 791.595 644.761 L 790.687 641.678 C 787.117 639.336 780.413 641.188 776.214 641.728 C 775.238 640.624 774.525 640.522 773.163 640.051 z"/>
<path transform="translate(0,0)" fill="rgb(254,254,254)" d="M 742.066 634.321 C 744.892 632.779 747.493 631.079 750.75 630.709 C 750.866 633.573 748.433 636.334 746.907 638.783 C 744.236 647.498 743.915 656.15 743.665 665.201 C 741.433 660.806 739.18 656.511 736.58 652.315 L 737.279 651.319 C 740.172 647.367 740.991 639.23 742.066 634.321 z"/>
<path transform="translate(0,0)" fill="rgb(254,254,254)" d="M 891.625 599.642 C 892.582 599.938 894.117 600.362 894.953 600.858 C 897.379 602.298 897.693 603.57 898.432 606.059 C 897.377 611.956 893.37 615.132 889.195 618.976 L 881.543 611.376 C 884.64 607.047 887.459 603.048 891.625 599.642 z"/>
<path transform="translate(0,0)" fill="rgb(254,254,254)" d="M 735.018 563.359 C 737.071 563.913 738.855 564.667 740.303 566.315 C 745.271 571.967 744.744 582.878 743.978 589.822 C 743.786 591.563 743.356 591.397 742.051 592.431 C 737.343 587.166 732.247 580.69 731.497 573.417 C 731.047 569.062 732.241 566.623 735.018 563.359 z"/>
<path transform="translate(0,0)" fill="rgb(254,254,254)" d="M 818.684 553.608 C 819.091 553.633 819.5 553.644 819.906 553.684 C 822.898 553.982 825.706 554.724 827.38 557.44 C 831.589 564.269 825.15 579.809 822.587 586.697 C 821.061 587.9 820.96 587.669 819.129 587.813 C 816.435 585.12 815.887 580.743 815.441 577.113 C 814.488 569.362 813.624 560.006 818.684 553.608 z"/>
<path transform="translate(0,0)" fill="rgb(254,254,254)" d="M 860.463 566.457 C 861.524 566.728 862.605 566.948 863.583 567.479 C 865.994 568.787 867.287 570.887 868.002 573.448 C 870.313 581.722 863.617 592.666 859.45 599.526 C 857.013 597.994 854.115 596.926 851.477 595.75 C 853.577 585.154 852.779 575.03 860.463 566.457 z"/>
<path transform="translate(0,0)" fill="rgb(254,254,254)" d="M 773.9 549.858 C 775.937 550.08 778.042 550.18 779.866 551.23 C 783.534 553.341 784.883 558.25 785.579 562.126 C 786.805 568.954 785.908 579.594 781.905 585.291 C 780.394 584.454 778.808 583.647 777.541 582.449 C 772.225 577.421 769.082 565.341 769.104 558.383 C 769.118 554.09 771.037 552.614 773.9 549.858 z"/>
<path transform="translate(0,0)" fill="rgb(254,254,254)" d="M 751.859 641.801 L 755.852 642.493 C 758.807 644.159 760.586 644.739 762.381 647.667 C 762.35 663.974 759.041 680.078 759.061 696.458 C 757.518 693.092 756.083 689.616 754.313 686.365 C 748.052 670.327 747.713 658.367 751.859 641.801 z"/>
<path transform="translate(0,0)" fill="rgb(254,254,254)" d="M 749.52 628.46 C 758.848 625.237 766.515 624.317 776.355 624.294 L 775.258 624.552 C 800.444 623.703 828.074 625.357 847.8 643.433 C 849.049 644.578 849.972 645.848 850.93 647.234 C 844.339 645.539 838.634 641.869 831.849 640.516 C 830.114 638.597 828.373 636.62 826.479 634.856 C 821.949 630.638 817.346 630.78 811.495 631.233 C 803.457 633.847 798.177 630.332 790.797 627.206 L 789.496 626.809 L 788.202 629.225 C 780.669 630.683 774.245 630.645 766.978 633.429 C 766.064 633.779 765.004 634.068 764.047 634.343 C 761.542 632.981 759.636 633.107 756.891 633.177 L 755.903 632.213 C 760.92 629.612 766.851 628.588 772.309 627.197 L 772.252 626.635 C 764.692 626.694 756.849 629.063 749.52 628.46 z"/>
<path transform="translate(0,0)" fill="rgb(17,35,67)" d="M 324.849 654.354 C 336.931 661.745 348.361 670.613 359.829 678.923 A 8130.6 8130.6 0 0 1 432.647 732.935 C 456.239 750.336 480.765 765.223 504.981 781.572 C 497.401 782.01 476.871 765.824 468.604 761.415 L 469.265 762.991 L 469.159 762.901 C 475.695 767.933 490.213 773.267 493.761 780.681 C 467.705 767.14 436.684 741.642 412.117 723.733 L 348.117 677.328 C 339.608 671.237 330.656 665.772 322.271 659.513 C 323.272 659.547 324.296 659.395 325.273 659.617 C 329.383 660.551 373.707 692.99 381.184 698.433 C 388.246 703.575 394.53 710.053 402.587 713.712 C 400.421 711.174 397.404 709.867 394.851 707.76 C 384.616 699.317 328.519 661.463 325.435 655.575 C 325.225 655.175 325.044 654.761 324.849 654.354 z"/>
<path transform="translate(0,0)" fill="rgb(254,254,254)" d="M 796.282 646.423 C 798.906 642.813 797.957 638.424 800.044 636.297 C 802.8 639.562 804.609 643.866 806.577 647.651 C 804.188 665.333 800.813 682.872 797.879 700.469 C 789.695 706.528 783.116 714.788 775.564 721.612 C 777.067 716.971 779.182 712.602 780.523 707.896 C 784.514 693.895 785.842 679.49 787.422 665.074 A 1126.78 1126.78 0 0 0 789.553 652.659 L 796.282 646.423 z"/>
<path transform="translate(0,0)" fill="rgb(254,254,254)" d="M 777.254 644.361 C 780.305 644.19 781.895 643.496 784.386 645.375 C 786.464 651.397 783.593 658.306 783.019 664.492 C 780.717 684.625 778.331 704.049 771.937 723.391 C 771.001 725.317 769.873 727.034 768.707 728.827 L 767.561 728.087 C 765.992 720.793 764.337 713.459 763.777 706.006 C 762.869 693.928 763.943 658.312 769.073 647.684 C 771.489 645.185 774 644.976 777.254 644.361 z"/>
<path transform="translate(0,0)" fill="rgb(17,35,67)" d="M 790.797 627.206 C 798.177 630.332 803.457 633.847 811.495 631.233 C 817.346 630.78 821.949 630.638 826.479 634.856 C 828.373 636.62 830.114 638.597 831.849 640.516 C 838.634 641.869 844.339 645.539 850.93 647.234 C 853.557 649.872 854.368 653.954 855.81 657.326 L 848.963 662.737 C 843.635 666.649 831.587 677.478 825.579 678.2 L 825.568 676.97 L 821.941 673.78 L 819.885 683.864 L 801.588 697.716 L 797.879 700.469 C 800.813 682.872 804.188 665.333 806.577 647.651 C 804.609 643.866 802.8 639.562 800.044 636.297 C 797.957 638.424 798.906 642.813 796.282 646.423 L 795.376 644.708 C 796.628 641.881 796.207 639.577 795.89 636.613 C 796.55 635.174 797.134 633.78 797.693 632.293 C 796.855 632.075 795.442 631.726 794.669 631.44 C 791.943 630.43 791.979 629.76 790.797 627.206 z"/>
<path transform="translate(0,0)" fill="rgb(254,254,254)" d="M 812.007 634.317 C 815.556 636.171 818.91 638.05 822.181 640.364 C 818.764 643.155 815.479 646.05 811.595 648.177 C 811.364 644.502 808.641 641.236 808.938 637.716 C 809.075 636.097 810.844 635.288 812.007 634.317 z"/>
<path transform="translate(0,0)" fill="rgb(254,254,254)" d="M 830.647 657.905 C 835.307 658 842.813 655.677 846.868 657.919 C 848.232 658.673 848.525 661.287 848.963 662.737 C 843.635 666.649 831.587 677.478 825.579 678.2 L 825.568 676.97 C 826.371 670.365 828.543 664.181 830.647 657.905 z"/>
<path transform="translate(0,0)" fill="rgb(254,254,254)" d="M 810.993 649.82 C 813.85 650.36 815.754 651.119 818.549 650.212 C 820.519 647.872 823.226 643.629 825.983 642.582 C 826.669 648.136 822.733 647.644 825.569 656.888 C 827.272 662.44 823.879 668.57 821.941 673.78 L 819.885 683.864 L 801.588 697.716 C 805.67 682.124 808.228 665.718 810.993 649.82 z"/>
<path transform="translate(0,0)" fill="rgb(254,254,254)" d="M 709.628 619.086 C 711.908 615.995 714.435 613.347 717.474 610.976 C 740.895 592.707 781.979 588.307 810.471 592.604 C 840.821 597.181 871.371 608.922 889.929 634.282 C 884.381 638.483 878.539 642.176 872.677 645.917 C 869.795 640.032 866.298 634.86 861.924 629.996 C 845.4 611.621 818.879 603.12 794.759 602.167 C 782.643 601.688 755.739 602.171 746.39 610.851 C 738.469 613.887 730.95 620.954 727.263 628.586 C 726.245 630.691 725.586 632.953 724.827 635.157 C 724.571 635.899 724.295 636.633 724.033 637.372 C 720.973 631.153 714.059 624.579 709.628 619.086 z"/>
<path transform="translate(0,0)" fill="rgb(254,254,254)" d="M 1154.59 585.741 C 1156.3 598.472 1139.14 644.872 1133.57 657.834 C 1098.09 740.385 1033.97 808.615 949.83 842.199 C 950.265 837.464 963.725 832.763 967.979 830.556 C 984.114 822.183 998.958 810.362 1012.58 798.353 C 1084.55 734.902 1116.52 671.586 1154.59 585.741 z"/>
<path transform="translate(0,0)" fill="rgb(254,254,254)" d="M 442.341 486.81 C 443.609 488.328 461.749 555.478 464.713 564.207 C 483.128 618.433 512.982 679.912 548.687 725 C 567.395 748.625 588.945 770.125 610.314 791.329 C 595.012 787.518 551.018 746.302 539.738 733.713 C 488.684 676.741 457.537 607.199 446.632 531.561 C 444.541 517.057 441.567 501.507 442.341 486.81 z"/>
<path transform="translate(0,0)" fill="rgb(254,254,254)" d="M 551.108 566.476 C 558.132 572.323 569.72 592.78 576.454 601.68 A 510.063 510.063 0 0 0 612.743 644.148 C 612.609 644.947 612.488 645.749 612.385 646.553 C 603.932 712.399 623.446 770.951 663.905 822.375 L 662.903 822.466 C 646.305 812.956 630.502 796.716 617.877 782.545 C 565.354 723.585 546.591 643.671 551.108 566.476 z"/>
<path transform="translate(0,0)" fill="rgb(254,254,254)" d="M 746.487 893.934 C 750.022 893.767 753.06 895.906 756.076 897.538 C 733.361 920.74 708.043 939.82 678.804 954.146 C 587.035 999.107 513.857 996.005 420.076 963.957 C 409.061 960.103 398.101 956.216 387.263 951.881 C 420.68 956.464 454.958 957.684 488.655 957.838 C 561.248 958.172 634.627 949.675 701.146 918.774 C 716.824 911.491 731.587 902.661 746.487 893.934 z"/>
<path transform="translate(0,0)" fill="rgb(254,254,254)" d="M 773.946 899.006 L 784.776 899.926 C 829.037 964.211 912.459 1000.15 985.245 1021.22 C 1022.03 1030.7 1059.52 1040.03 1096.88 1046.82 L 1109.16 1049.31 L 1119.77 1050.44 C 1119.63 1051.04 1118.97 1051.38 1118.53 1051.82 C 1104.29 1055.47 1088.45 1056.55 1073.77 1057.63 C 1009.14 1062.36 953.884 1051.12 896.264 1021.7 C 848.918 997.535 790.859 951.141 773.946 899.006 z"/>
<path transform="translate(0,0)" fill="rgb(254,254,254)" d="M 1141.98 819.393 C 1152.62 816.16 1167.13 807.079 1177.74 801.831 C 1207.66 787.041 1237.91 771.365 1269.15 759.588 C 1213.19 818.994 1137.41 870.324 1056.85 888.312 C 1032.81 893.679 1008.06 895.344 983.5 896.061 C 945.067 897.181 902.899 894.445 865.511 885.365 L 866.988 885.069 C 877.649 883.022 888.81 883.214 899.628 882.683 A 635.359 635.359 0 0 0 933.897 879.96 C 988.705 874.411 1038.56 864.084 1089.84 843.733 C 1107.55 836.702 1125.48 828.976 1141.98 819.393 z"/>
<path transform="translate(0,0)" fill="rgb(254,254,254)" d="M 322.271 659.513 C 330.656 665.772 339.608 671.237 348.117 677.328 L 412.117 723.733 C 436.684 741.642 467.705 767.14 493.761 780.681 C 499.207 786.813 514.836 794.473 522.323 798.722 C 557.393 818.624 595.153 836.118 634.433 845.779 C 653.416 850.448 672.932 852.599 691.933 857.204 A 95.6928 95.6928 0 0 1 686.152 858.198 C 671.077 860.301 654.888 860.045 639.676 859.687 C 565.952 857.956 501.657 833.748 443.229 789.572 C 403.874 759.817 371.578 723.611 340.434 685.663 C 335.308 679.416 323.359 667.335 322.271 659.513 z"/>
<path transform="translate(0,0)" fill="rgb(254,254,254)" d="M 1155.76 559.959 L 1157.15 560.098 L 1157.44 561.449 C 1118.27 664.384 1069.12 744.74 981.564 813.638 L 980.712 813.683 C 981.313 810.785 1001.07 786.257 1004.81 780.679 A 276.063 276.063 0 0 0 1025.52 743.956 C 1046.67 699.577 1053.72 651.166 1066.29 604.001 C 1095.19 587.105 1125.19 573.487 1155.76 559.959 z"/>
<path transform="translate(0,0)" fill="rgb(254,254,254)" d="M 445.039 466.637 C 454.808 471.555 464.179 478.393 473.375 484.338 C 503.6 503.881 532.644 524.421 560.229 547.604 A 1313.28 1313.28 0 0 1 563.711 570.089 C 558.492 562.406 552.828 555.406 546.223 548.873 C 535.351 580.776 541.128 636.925 549.569 669.683 C 554.037 687.023 560.428 703.476 567.577 719.843 L 582.612 750.513 C 565.982 731.753 549.985 713.123 535.682 692.468 C 490.271 626.888 459.075 544.972 445.039 466.637 z"/>
<path transform="translate(0,0)" fill="rgb(254,254,254)" d="M 1045.71 647.985 C 1045.76 648.241 1045.84 648.493 1045.87 648.753 C 1046.45 654.13 1043.41 662.832 1042.18 668.178 C 1032.99 708.117 1017.6 745.002 994.69 779.034 C 968.927 817.295 926.772 852.545 884.304 870.49 C 867.193 877.72 849.334 882.205 831.172 885.801 C 832.026 883.865 836.404 882.024 838.271 880.875 C 881.85 854.069 917.101 807.369 933.06 759.044 C 938.304 743.167 940.668 726.875 944.564 710.689 C 951.148 704.282 959.408 698.94 966.965 693.701 C 992.394 676.074 1018.11 661.832 1045.71 647.985 z"/>
<path transform="translate(0,0)" fill="rgb(254,254,254)" d="M 584.307 416.256 C 587.955 417.942 591.307 420.502 594.596 422.804 A 285.633 285.633 0 0 1 710.837 605.535 C 708.331 608.225 706.129 611.19 703.85 614.075 A 352.481 352.481 0 0 0 662.411 578.297 C 655.128 573.021 647.782 567.962 640.205 563.117 C 628.46 585.796 620.949 609.38 614.194 633.882 C 601.956 619.8 586.439 604.462 578.078 587.784 C 573.211 578.078 571.36 565.924 569.767 555.301 C 562.638 507.77 569.22 461.551 584.307 416.256 z"/>
<path transform="translate(0,0)" fill="rgb(254,254,254)" d="M 771.528 916.821 C 775.862 923.102 771.97 942.014 770.476 949.352 C 748.244 1058.59 657.619 1141.45 595.877 1229.67 C 573.107 1262.21 553.492 1295.88 538.178 1332.57 C 505.364 1411.18 502.409 1473.86 505.137 1557.4 A 985.059 985.059 0 0 1 485.411 1531.45 C 475.164 1517.85 465.597 1503.59 456.199 1489.4 C 477.006 1330.85 552.282 1244.97 652.311 1127.15 C 682.788 1091.25 721.047 1045.54 741.997 1003.75 C 756.094 975.636 764.288 947.345 771.528 916.821 z"/>
<path transform="translate(0,0)" fill="rgb(254,254,254)" d="M 317.53 649.556 C 370.806 644.3 423.623 643.54 475.804 657.499 C 482.133 668.61 487.519 680.016 494.485 690.808 C 523.919 736.405 565.793 777.293 611.923 805.83 C 635.427 820.371 660.509 832.546 683.479 847.96 C 633.067 838.317 598.316 828.266 551.71 806.326 C 540.212 800.914 513.491 784.08 504.981 781.572 C 480.765 765.223 456.239 750.336 432.647 732.935 A 8130.6 8130.6 0 0 0 359.829 678.923 C 348.361 670.613 336.931 661.745 324.849 654.354 C 322.452 652.637 320.095 651.014 317.53 649.556 z"/>
<path transform="translate(0,0)" fill="rgb(254,254,254)" d="M 1103.07 731.846 C 1153.68 723.797 1224.75 732.514 1272.39 752.32 C 1256.91 759.024 1241.2 765.171 1225.9 772.286 C 1206.51 781.304 1187.59 791.403 1168.52 801.074 C 1161.17 804.8 1150.56 808.411 1144.16 813.408 C 1124.63 820.843 1106.06 831.255 1086.44 838.835 C 1027.05 861.784 961.439 873.269 897.909 874.848 C 908.26 868.908 919.047 861.548 930.225 857.356 C 942.617 852.709 955.511 850.395 967.671 844.852 A 340.122 340.122 0 0 0 1078.87 762.166 C 1087.2 752.745 1094.02 742.063 1102.35 732.645 L 1103.07 731.846 z"/>
<path transform="translate(0,0)" fill="rgb(254,254,254)" d="M 526.468 848.096 C 541.433 852.262 555.601 857.944 570.851 861.384 C 605.596 869.223 674.489 873.011 708.162 864.428 L 717.316 872.599 C 680.316 886.037 646.159 894.811 606.318 891.765 C 600.996 891.358 595.492 891.077 590.232 890.18 C 584.41 889.187 579.224 887.218 573.255 887.033 L 573.531 887.934 C 577.689 888.417 581.756 890.058 585.871 890.942 C 592.402 892.345 599.049 893.225 605.683 893.982 C 647.514 898.75 685.136 889.859 724.803 877.842 L 739.603 887.253 C 730.719 893.434 721.904 899.537 712.548 904.999 C 695.593 914.718 677.629 921.667 659.261 928.178 C 630.2 938.479 599.422 946.734 568.861 951.045 C 508.72 959.53 439.091 955.804 379.846 942.71 C 387.606 932.451 399.391 923.986 409.514 916.08 C 448.811 885.386 480.475 867.132 526.468 848.096 z"/>
<path transform="translate(0,0)" fill="rgb(254,254,254)" d="M 644.519 576.175 C 696.628 608.711 745.387 666.095 759.554 726.545 C 760.6 731.008 761.304 735.573 762.012 740.1 C 753.134 753.561 744.565 766.309 738.207 781.193 C 736.581 751.213 733.115 713.844 712.134 690.336 C 715.766 700.904 723.008 709.547 725.752 720.582 C 731.002 741.696 736.23 763.33 733.808 785.384 C 732.924 793.433 729.707 801.67 727.615 809.5 C 722.326 829.296 727.109 842.719 730.771 861.817 C 730.376 861.509 729.974 861.209 729.586 860.893 C 715.881 849.706 697.248 805.695 695.891 787.787 C 694.733 810.467 706.898 828.909 716.059 848.747 C 685.54 819.104 663.723 780.459 651.752 739.832 C 649.534 732.308 647.407 724.653 645.761 716.981 C 644.803 712.517 644.498 707.239 642.812 703.02 C 642.671 702.668 642.487 702.336 642.325 701.994 L 642.514 700.523 C 640.21 705.102 644.919 721.098 646.153 726.433 C 652.392 753.4 661.04 779.255 675.325 803.15 C 683.191 816.307 692.83 828.888 702.802 840.49 C 707.761 846.259 714.396 852.3 718.446 858.576 C 719.135 859.642 719.319 860.573 719.603 861.788 C 674.604 835.938 641.366 783.531 627.936 734.37 C 614.366 684.692 615.634 626.309 641.742 580.68 A 82.8714 82.8714 0 0 1 644.519 576.175 z"/>
<path transform="translate(0,0)" fill="rgb(254,254,254)" d="M 821.03 898.758 C 831.298 897.342 842.511 894.051 852.78 893.953 C 862.152 893.865 872.038 896.418 881.299 897.87 C 895.44 900.088 909.764 902.07 924.003 903.533 C 941.579 905.34 961.586 902.89 978.463 907.8 C 999.339 913.872 1022.01 928.59 1039.11 941.502 C 1069.3 964.305 1107.94 1010.44 1122.63 1046.27 L 1122.83 1049.02 C 1121.81 1049.55 1120.87 1050.09 1119.77 1050.44 L 1109.16 1049.31 L 1096.88 1046.82 C 1059.52 1040.03 1022.03 1030.7 985.245 1021.22 L 987.929 1017.57 C 914.562 995.271 841.111 962.085 792.946 900.03 C 799.604 899.953 806.279 900.034 812.895 899.209 C 844.841 922.644 898.211 951.916 938.789 951.729 C 895.435 942.299 856.097 926.425 821.03 898.758 z"/>
<path transform="translate(0,0)" fill="rgb(17,35,67)" d="M 987.929 1017.57 C 1024.82 1027.64 1062.09 1035.5 1099.7 1042.42 L 1115.45 1044.82 C 1117.85 1045.24 1120.28 1045.57 1122.63 1046.27 L 1122.83 1049.02 C 1121.81 1049.55 1120.87 1050.09 1119.77 1050.44 L 1109.16 1049.31 L 1096.88 1046.82 C 1059.52 1040.03 1022.03 1030.7 985.245 1021.22 L 987.929 1017.57 z"/>
<path transform="translate(0,0)" fill="rgb(254,254,254)" d="M 757.258 884.496 C 746.332 878.847 740.196 872.334 736.418 860.259 C 727.702 832.398 736.117 801.717 749.348 776.782 C 778.307 722.206 814.31 698.658 862.429 664.886 C 886.062 648.3 909.355 631.942 933.829 616.575 C 935.508 635.862 937.995 655.44 937.898 674.809 C 937.618 730.135 919.65 785.831 884.098 828.496 C 861.256 855.908 827.305 886.32 790.085 889.514 C 784.791 889.968 779.389 889.828 774.081 889.686 C 770.332 889.239 768.545 888.163 765.525 885.949 C 763.669 885.766 763.447 885.393 761.961 884.381 C 758.014 880.837 758.203 877.989 757.828 872.936 C 757.514 876.806 757.239 880.612 757.258 884.496 z"/>
<path transform="translate(0,0)" fill="rgb(17,35,67)" d="M 757.828 872.936 C 759.602 839.479 774.404 806.207 796.768 781.354 C 792.686 788.648 787.578 795.263 783.346 802.455 C 768.298 828.029 762.205 855.079 761.961 884.381 C 758.014 880.837 758.203 877.989 757.828 872.936 z"/>
<path transform="translate(0,0)" fill="rgb(17,35,67)" d="M 765.525 885.949 L 766.931 885.668 C 811.762 876.5 847.855 845.41 872.144 808.011 C 876.36 801.52 890.694 778.411 890.915 771.423 L 892.142 770.788 L 892.58 769.19 C 894.458 776.425 880.634 799.568 876.896 805.967 C 857.581 839.034 833.506 863.368 798.884 880.049 C 791.511 883.602 780.446 885.166 774.081 889.686 C 770.332 889.239 768.545 888.163 765.525 885.949 z"/>
<path transform="translate(0,0)" fill="rgb(254,254,254)" d="M 724.385 413.643 C 729.224 416.009 733.78 422.825 737.047 426.972 C 755.71 450.662 771.692 476.212 783.212 504.146 A 557.78 557.78 0 0 1 793.558 531.587 C 795.061 535.983 795.819 540.99 798.074 545.042 L 800.192 545.535 L 801.577 544.536 C 803.911 537.378 797.985 523.071 796.152 515.591 C 801.784 505.779 805.814 495.057 811.479 485.216 C 826.086 459.843 849.754 430.091 873.595 413.263 C 890.985 436.754 904.851 471.017 911.754 499.366 C 915.357 514.162 921.762 540.856 912.027 554.061 C 905.829 562.468 898.555 569.437 893.174 578.573 C 891.74 581.006 890.019 583.958 890.771 586.859 C 899.716 585.835 917.913 559.311 924.317 552.267 A 319.323 319.323 0 0 1 945.54 531.241 A 266.064 266.064 0 0 1 1034.9 478.623 C 1046.48 527.115 1037.41 578.875 1026.2 626.453 C 1036.87 621.261 1047.2 614.139 1057.46 608.059 C 1053.58 617.145 1051.01 627.065 1048.11 636.518 C 1040.33 641.215 1031.79 644.86 1023.6 648.774 C 996.621 661.948 971.379 679.466 946.822 696.59 C 947.408 681.478 947.618 666.286 946.341 651.202 C 944.984 635.172 941.929 619.098 943 602.986 C 930.764 607.743 920.546 613.748 909.478 620.774 C 907.569 621.986 898.859 628.584 897.204 628.716 C 896.594 628.765 895.998 628.503 895.396 628.397 C 894.744 622.481 905.464 616.056 906.84 609.728 C 907.891 604.896 905.816 599.44 902.88 595.628 C 901.145 593.376 898.91 592.386 896.111 592.081 C 886.724 591.059 880.159 599.89 873.838 605.067 C 872.536 606.133 872.156 605.675 870.576 605.49 C 868.45 603.698 868.319 603.62 867.666 600.933 A 90.1595 90.1595 0 0 0 870.338 595.349 C 874.189 586.537 877.744 577.601 873.591 568.162 C 872.005 564.556 869.453 561.311 865.597 560.031 C 862.467 558.992 858.823 559.613 855.962 561.181 C 847.113 566.034 844.109 583.499 841.48 592.721 L 829.628 589.761 C 833.853 582.134 837.141 574.293 836.863 565.359 C 836.676 559.366 834.579 553.558 829.952 549.559 C 826.962 546.975 822.967 545.241 818.961 545.576 C 815.602 545.857 812.63 547.635 810.577 550.278 C 803.571 559.302 807.235 574.464 808.477 584.847 C 803.555 584.249 798.573 584.145 793.622 583.92 C 794.163 575.32 794.718 566.438 792.741 557.968 C 791.351 552.017 788.521 545.989 782.965 542.903 C 779.59 541.029 775.805 540.581 772.111 541.704 C 767.861 542.995 764.507 546.11 762.577 550.084 C 757.52 560.5 763.909 576.031 767.421 586.264 C 762.762 586.676 758.339 587.504 753.778 588.476 C 753.204 581.191 752.867 573.979 749.786 567.221 C 747.876 563.03 744.695 558.797 740.167 557.274 C 737.075 556.235 734.158 556.699 731.34 558.233 C 728.34 559.865 726.348 563.432 725.473 566.61 C 722.628 576.942 727.741 586.772 732.786 595.413 L 720.235 600.797 C 708.895 558.735 701.173 535.316 678.237 497.237 C 685.984 468.133 704.399 436.08 724.385 413.643 z"/>
<path transform="translate(0,0)" fill="rgb(85,110,128)" d="M 950.573 1855.21 C 939.543 1839.8 931.216 1820.91 922.477 1804.02 C 877.037 1716.19 850.79 1628.99 852.692 1529.39 A 454.952 454.952 0 0 1 1104.56 1128.01 C 1140.09 1110.33 1177.07 1098.39 1213.68 1083.54 C 1270.77 1060.4 1326.87 1024.82 1371.2 981.963 A 487.054 487.054 0 0 0 1521.49 640.269 C 1523.58 490.166 1450.67 328.614 1339.62 228.076 C 1322.6 212.665 1304.88 198.186 1285.77 185.44 C 1278.6 180.66 1247.86 163.219 1244.67 159.947 C 1255.41 161.687 1270.28 169.379 1280.59 173.725 C 1347.08 201.727 1411.1 235.705 1469.16 278.877 A 835.195 835.195 0 0 1 1793.28 818.903 A 744.161 744.161 0 0 1 1649.52 1377.86 C 1634.49 1397.99 1613.34 1410.46 1592.68 1424.1 C 1518.13 1473.28 1435.05 1513.49 1345.86 1526.49 C 1340.82 1535.06 1335.98 1543.86 1330.05 1551.85 C 1318.26 1562.01 1310.54 1572.91 1296.71 1581.1 C 1308.46 1587.03 1319.56 1593.09 1330.3 1600.77 C 1335.79 1604.71 1341.01 1609.83 1346.72 1613.31 C 1351.69 1618.41 1356.71 1623.48 1361.42 1628.84 C 1380.12 1655.36 1389.66 1680.35 1384.05 1713.02 C 1380.28 1734.99 1364.35 1754.18 1346.46 1766.62 C 1326.66 1780.37 1298.39 1783.96 1275.11 1779.54 C 1253.47 1775.44 1232.25 1762.89 1219.79 1744.47 C 1214.59 1736.79 1211.12 1727.77 1206.49 1719.71 C 1195.77 1701.05 1176.3 1689.29 1155.99 1683.44 C 1143.71 1679.34 1126.69 1675.83 1113.84 1677.82 C 1103.26 1680.69 1093.83 1684.08 1084.33 1689.59 C 1050.79 1709.05 1013.89 1751.18 994.609 1784.64 C 989.557 1793.4 984.377 1802.88 980.786 1812.34 L 980.773 1814.27 C 980.658 1824.48 978.629 1834.74 978.97 1844.95 C 980.182 1881.19 992.005 1922.76 1006.27 1955.93 C 1012.62 1970.68 1020.5 1985.01 1027.69 1999.37 C 1000.58 1970.46 973.758 1941.8 949.494 1910.42 C 950 1903.75 950.938 1897.37 952.219 1890.8 C 956.709 1896.88 961.447 1903.14 965.368 1909.59 C 967.311 1912.79 968.319 1917.2 970.796 1919.88 C 971.768 1920.93 971.572 1920.62 973.09 1920.73 C 972.99 1918.8 973.267 1919.22 972.47 1917.84 C 970.581 1914.57 966.783 1910.14 966.588 1906.35 C 966.57 1906 966.65 1905.65 966.681 1905.3 A 903.49 903.49 0 0 0 973.585 1914.54 C 965.365 1895.16 959.973 1873.86 950.573 1855.21 z"/>
<path transform="translate(0,0)" fill="rgb(17,35,67)" d="M 1266.16 1414.53 C 1259.63 1414.29 1253.33 1414 1247.1 1411.8 C 1240.09 1409.33 1234.39 1405.27 1231.28 1398.37 C 1228.12 1391.37 1226.55 1384.12 1229.7 1376.85 C 1234.22 1366.44 1244.3 1357.65 1254.8 1353.77 C 1269.45 1348.35 1286.07 1349.86 1300.16 1356.2 C 1324.98 1367.37 1344.98 1391.95 1354.32 1417.12 C 1368.38 1455.03 1362.53 1490.66 1345.86 1526.49 C 1340.82 1535.06 1335.98 1543.86 1330.05 1551.85 C 1318.26 1562.01 1310.54 1572.91 1296.71 1581.1 C 1308.46 1587.03 1319.56 1593.09 1330.3 1600.77 C 1335.79 1604.71 1341.01 1609.83 1346.72 1613.31 C 1351.69 1618.41 1356.71 1623.48 1361.42 1628.84 C 1380.12 1655.36 1389.66 1680.35 1384.05 1713.02 C 1380.28 1734.99 1364.35 1754.18 1346.46 1766.62 C 1326.66 1780.37 1298.39 1783.96 1275.11 1779.54 C 1253.47 1775.44 1232.25 1762.89 1219.79 1744.47 C 1214.59 1736.79 1211.12 1727.77 1206.49 1719.71 C 1195.77 1701.05 1176.3 1689.29 1155.99 1683.44 C 1143.71 1679.34 1126.69 1675.83 1113.84 1677.82 C 1103.26 1680.69 1093.83 1684.08 1084.33 1689.59 C 1050.79 1709.05 1013.89 1751.18 994.609 1784.64 C 989.557 1793.4 984.377 1802.88 980.786 1812.34 L 980.773 1814.27 C 980.658 1824.48 978.629 1834.74 978.97 1844.95 C 980.182 1881.19 992.005 1922.76 1006.27 1955.93 C 1012.62 1970.68 1020.5 1985.01 1027.69 1999.37 C 1000.58 1970.46 973.758 1941.8 949.494 1910.42 C 950 1903.75 950.938 1897.37 952.219 1890.8 C 956.709 1896.88 961.447 1903.14 965.368 1909.59 C 967.311 1912.79 968.319 1917.2 970.796 1919.88 C 971.768 1920.93 971.572 1920.62 973.09 1920.73 C 972.99 1918.8 973.267 1919.22 972.47 1917.84 C 970.581 1914.57 966.783 1910.14 966.588 1906.35 C 966.57 1906 966.65 1905.65 966.681 1905.3 A 903.49 903.49 0 0 0 973.585 1914.54 C 965.365 1895.16 959.973 1873.86 950.573 1855.21 C 952.018 1843.84 943.613 1817.33 940.874 1805.13 C 928.53 1750.14 926.607 1694.41 940.784 1639.53 C 969.644 1527.81 1055.81 1468.59 1163.13 1443.91 C 1193.57 1436.91 1238.43 1431.19 1265.02 1415.23 C 1265.4 1415 1265.78 1414.76 1266.16 1414.53 z"/>
<path transform="translate(0,0)" fill="rgb(85,110,128)" d="M 980.786 1812.34 C 976.438 1791.96 990.44 1748.64 1001.55 1731.15 C 1018.58 1704.31 1046.04 1687.61 1076.91 1681 C 1083.94 1679.5 1107.76 1673.92 1113.84 1677.82 C 1103.26 1680.69 1093.83 1684.08 1084.33 1689.59 C 1050.79 1709.05 1013.89 1751.18 994.609 1784.64 C 989.557 1793.4 984.377 1802.88 980.786 1812.34 z"/>
<path transform="translate(0,0)" fill="rgb(254,254,254)" d="M 1338.32 1402.81 C 1339.07 1403.86 1339.8 1404.91 1340.46 1406.01 C 1355.47 1430.87 1356.89 1463.66 1349.89 1491.17 C 1340.99 1526.13 1317.88 1558.66 1286.67 1577 C 1241.02 1562.71 1196.73 1556.35 1149.63 1568.93 C 1087.38 1585.55 1032.72 1630.12 1000.71 1685.53 C 960.618 1754.94 958.534 1825.58 978.816 1901.76 L 983.988 1921.5 C 976.207 1905.47 964.772 1874.26 962.557 1856.9 C 961.331 1847.29 961.857 1837.51 960.92 1827.85 C 958.472 1802.62 955.166 1777.54 956.047 1752.12 C 957.981 1696.25 982.613 1636.01 1024.15 1597.8 C 1056.89 1567.68 1096.08 1548.89 1138.56 1536.9 A 588.905 588.905 0 0 1 1193.55 1524.69 C 1237.49 1516.79 1292.94 1510.94 1321.91 1472.56 C 1337.88 1451.4 1342 1428.63 1338.32 1402.81 z"/>
<path transform="translate(0,0)" fill="rgb(254,254,254)" d="M 1265.13 1359.17 C 1281.46 1358.26 1295.22 1360.71 1308.72 1370.64 C 1322.17 1380.54 1330.28 1394.54 1332.54 1411.06 C 1334.26 1423.61 1332.21 1437.08 1327.73 1448.86 C 1307.74 1501.42 1242.26 1509.36 1194.26 1518.02 C 1174.27 1521.62 1154.63 1525.58 1135.16 1531.43 C 1082.15 1547.37 1030.27 1574.24 996.323 1619.27 C 948.63 1682.52 944.705 1757.04 954.931 1832.24 C 949.949 1817.42 946.862 1802.11 943.924 1786.78 A 425.483 425.483 0 0 1 938.826 1704.62 C 942.569 1608.38 993.212 1524.5 1080.16 1481.03 C 1104.14 1469.04 1130.09 1460.97 1156.01 1454.36 C 1189.63 1445.8 1252.38 1439.22 1276.77 1415.67 C 1281.56 1411.05 1285.95 1404.51 1285.85 1397.59 C 1285.76 1391.72 1282.53 1386.49 1278.14 1382.78 C 1274.13 1379.4 1268.8 1377.39 1263.52 1377.99 C 1259.93 1378.39 1255.71 1380.23 1253.69 1383.33 C 1252.76 1384.74 1253.17 1385.05 1253.46 1386.55 C 1257.78 1383.75 1261.11 1379.72 1266.75 1380.69 C 1271 1381.42 1274.6 1384.74 1276.59 1388.43 C 1278.48 1391.94 1279.35 1396.92 1277.72 1400.69 C 1276.18 1404.26 1273.61 1406.56 1269.96 1407.8 C 1262.88 1410.19 1253.23 1408.09 1246.77 1404.74 C 1241.92 1402.23 1238.22 1398.23 1236.62 1392.95 C 1234.89 1387.21 1235.82 1381.25 1238.82 1376.11 C 1244.63 1366.13 1254.54 1361.99 1265.13 1359.17 z"/>
<path transform="translate(0,0)" fill="rgb(254,254,254)" d="M 1016.58 1676.44 C 1050.12 1627 1104.83 1586.12 1164.18 1574.7 A 214.304 214.304 0 0 1 1325.26 1607.5 C 1348.94 1623.79 1370.27 1649.49 1375.66 1678.39 A 79.3663 79.3663 0 0 1 1362.73 1739.1 C 1349.93 1757.49 1331.15 1768.09 1309.26 1771.94 C 1284.81 1776.24 1261.06 1770.17 1240.93 1755.79 C 1225.49 1744.77 1222.04 1732.5 1212.79 1717.27 C 1209.86 1712.43 1204.77 1708.3 1202.68 1703.14 L 1203.63 1702.12 L 1205.05 1701.15 C 1195.78 1696.31 1187.3 1689.79 1177.95 1684.93 C 1148.86 1669.8 1113.43 1665.69 1081.27 1671.34 C 1052.72 1676.35 1023.91 1691.27 1004.56 1713.05 C 997.717 1720.75 992.112 1729.5 986.238 1737.95 C 991.562 1723 999.403 1709.48 1008.01 1696.23 C 1007.48 1693.44 1006.97 1690.9 1007.57 1688.05 C 1008.55 1683.45 1012.9 1679.11 1016.58 1676.44 z"/>
<path transform="translate(0,0)" fill="rgb(17,42,76)" d="M 1016.58 1676.44 C 1016.96 1676.22 1017.35 1676.01 1017.72 1675.79 C 1023.81 1672.11 1029.72 1663.92 1034.99 1658.88 C 1039.73 1654.36 1044.92 1650.31 1050.15 1646.39 C 1095.64 1612.26 1157.46 1594.62 1213.87 1606.94 C 1243.2 1613.34 1271.38 1628.33 1287.81 1654.22 C 1295.93 1667.02 1300.49 1682.3 1297.15 1697.47 C 1295.33 1705.71 1290.44 1714.88 1283.2 1719.63 C 1282.64 1720.01 1282.04 1720.33 1281.46 1720.68 C 1278.56 1724.36 1270.9 1727.47 1266.39 1728.28 C 1244.68 1732.19 1220.58 1713.21 1203.63 1702.12 L 1205.05 1701.15 C 1222.56 1711.63 1245.21 1728.8 1266.66 1722.97 C 1273.27 1721.17 1278.75 1717.61 1283.92 1713.22 C 1290.65 1704.11 1293.96 1694.04 1292.75 1682.62 C 1290.83 1664.47 1278.43 1647.78 1264.56 1636.63 C 1234.53 1612.47 1190.95 1606.73 1153.73 1611 C 1094.2 1617.81 1044.71 1649.94 1008.01 1696.23 C 1007.48 1693.44 1006.97 1690.9 1007.57 1688.05 C 1008.55 1683.45 1012.9 1679.11 1016.58 1676.44 z"/>
<path transform="translate(0,0)" fill="rgb(254,254,254)" d="M 1008.01 1696.23 C 1044.71 1649.94 1094.2 1617.81 1153.73 1611 C 1190.95 1606.73 1234.53 1612.47 1264.56 1636.63 C 1278.43 1647.78 1290.83 1664.47 1292.75 1682.62 C 1293.96 1694.04 1290.65 1704.11 1283.92 1713.22 C 1278.75 1717.61 1273.27 1721.17 1266.66 1722.97 C 1245.21 1728.8 1222.56 1711.63 1205.05 1701.15 C 1195.78 1696.31 1187.3 1689.79 1177.95 1684.93 C 1148.86 1669.8 1113.43 1665.69 1081.27 1671.34 C 1052.72 1676.35 1023.91 1691.27 1004.56 1713.05 C 997.717 1720.75 992.112 1729.5 986.238 1737.95 C 991.562 1723 999.403 1709.48 1008.01 1696.23 z"/>
</svg>