<svg version="1.1" xmlns="http://www.w3.org/2000/svg" style="display: block;" viewBox="0 0 2048 2048" width="1024" height="1024">
<path transform="translate(0,0)" fill="rgb(254,254,254)" d="M 0 0 L 2048 0 L 2048 359.418 L 2048 376.245 L 2048 781.941 L 2048 804.8 L 2048 2048 L 0 2048 L 0 1826.56 L 0 1811.59 L 0 1777.69 L 0 1760.1 L 0 1714.68 L 0 1701.68 L 0 1389.88 L 0 1366.63 L 0 0 z"/>
<path transform="translate(0,0)" fill="rgb(34,62,114)" d="M 1095.58 564.841 C 1121.73 480.554 1174.84 394.22 1227.88 324.102 C 1238.14 310.538 1249.34 292.283 1263.5 282.543 C 1283.53 268.775 1338.75 256.763 1364.11 250.174 C 1417.99 236.171 1479.05 220.859 1534.88 226.346 C 1600.11 232.756 1690.56 285.223 1753.43 309.574 C 1823.2 336.601 1894.11 355.038 1967.42 369.505 C 1965.1 364.028 1960.08 355.117 1961.54 349.105 C 1962.06 346.937 1963.71 345.263 1965.48 344.033 C 1967.62 342.557 1969.51 342.315 1972.01 342.651 C 1982.41 344.042 1993.51 348.374 2003.81 350.945 C 2018.4 354.586 2033.16 357.018 2048 359.418 L 2048 376.245 L 2048 781.941 L 2048 804.8 C 1989.16 804.928 1926.93 798.253 1870.53 780.873 C 1841.51 752.068 1823.99 677.992 1824.02 636.98 A 94.088 94.088 0 0 1 1824.1 633.248 C 1801.14 637.684 1779.55 641.225 1756.11 641.577 C 1718 642.151 1678.16 635.205 1640.96 645.872 C 1602.64 656.857 1555.06 688.948 1521.32 710.987 L 1522.09 712.233 C 1537.07 736.19 1561.96 765.447 1580.58 787.187 C 1596.34 805.594 1614.4 822.1 1630.63 840.124 C 1640.99 851.619 1725.07 951.917 1724.87 959.033 C 1722.69 962.135 1720.18 963.311 1716.46 964.004 C 1703.85 966.352 1689.4 964.733 1676.37 965.958 C 1650.56 968.385 1623.6 975.26 1598.73 982.581 C 1574.52 989.709 1551.27 999.792 1528.05 1009.61 C 1485.43 1027.64 1445.89 1049.13 1406.37 1073.06 A 1123.28 1123.28 0 0 0 1076.86 1375.53 C 1064.07 1393.27 1051.52 1411.42 1041.19 1430.72 C 1035.83 1440.75 1031.73 1452.83 1025.76 1462.23 C 1024.3 1464.51 1022.02 1466.48 1019.27 1466.82 C 1016.07 1467.22 1014.37 1466.26 1012 1464.22 C 1002.57 1456.07 994.625 1444.63 986.721 1434.95 C 971.853 1416.76 956.77 1398.66 942.383 1380.08 C 933.537 1368.66 925.421 1356.19 915.851 1345.41 C 904.233 1342.2 892.576 1339.58 881.067 1335.91 C 839.028 1322.51 791.143 1302.85 746.819 1300.71 C 783.933 1311.46 820.56 1327.53 855.919 1343.04 C 870.262 1349.33 886.08 1355.23 899.469 1363.37 C 905.722 1367.18 911.922 1371.94 915.661 1378.35 C 918.042 1382.43 919.049 1387.12 917.769 1391.75 C 915.72 1399.16 909.023 1404.94 902.464 1408.39 C 897.862 1410.82 893.14 1412.63 887.886 1412.73 C 875.08 1412.99 861.002 1409.1 848.417 1406.73 A 2388.17 2388.17 0 0 1 763.096 1388.82 C 744.907 1384.82 726.071 1379.54 707.462 1378.25 C 672.108 1375.81 636.208 1383.84 601.57 1389.74 C 589.651 1413.68 571.767 1435.64 553.477 1454.98 C 493.169 1518.77 426.702 1552.83 344.297 1580.54 A 652.616 652.616 0 0 1 292.325 1595.52 C 294.228 1611.43 303.848 1700.09 297.637 1708.28 C 290.583 1717.6 271.299 1724.42 260.891 1729.65 C 187.383 1766.6 80.3043 1811.76 0 1826.56 L 0 1811.59 L 0 1777.69 L 0 1760.1 L 0 1714.68 L 0 1701.68 L 0 1389.88 L 0 1366.63 C 60.1769 1344.69 119.583 1321.41 177.417 1293.77 C 200.757 1282.62 226.154 1271.03 246.705 1255.14 C 269.243 1237.71 297.455 1203.3 317.365 1181.68 C 351.405 1144.72 384.327 1107.04 419.897 1071.51 C 435.131 1056.29 450.615 1040.24 468.184 1027.71 C 484.091 1016.37 502.227 1007.77 520.621 1001.31 C 544.545 992.906 570.32 989.368 595.258 985.149 C 617.758 981.343 640.318 977.314 662.944 974.341 C 651.437 956.486 618.293 914.572 612.796 897.415 C 632.153 871.086 659.348 849.105 683.789 827.716 A 1684.68 1684.68 0 0 1 1095.58 564.841 z"/>
<path transform="translate(0,0)" fill="rgb(254,254,254)" d="M 1355.68 454.017 C 1356.1 460.432 1352.33 468.524 1351.61 475.316 C 1337.24 476.374 1324.56 479.157 1310.93 483.827 L 1310.77 483.062 C 1318.33 472.759 1343.64 459.311 1355.68 454.017 z"/>
<path transform="translate(0,0)" fill="rgb(254,254,254)" d="M 795.281 1191.75 C 802.974 1195.25 825.427 1227.24 831.919 1235.51 C 825.639 1232.92 819.133 1230.74 812.752 1228.41 C 798.331 1222.86 783.566 1218.17 768.909 1213.28 L 795.281 1191.75 z"/>
<path transform="translate(0,0)" fill="rgb(254,254,254)" d="M 279.327 1598.37 L 280.686 1598.67 C 282.334 1606.18 279.884 1622.51 280.13 1631.21 C 280.715 1651.95 282.711 1672.51 284.644 1693.15 C 281.427 1686.95 278.537 1680.57 275.568 1674.25 C 265.903 1651.22 260.592 1627.07 253.837 1603.13 C 262.192 1600.98 270.82 1599.79 279.327 1598.37 z"/>
<path transform="translate(0,0)" fill="rgb(254,254,254)" d="M 1430.1 434.261 C 1431.36 434.801 1431.02 434.469 1431.8 435.451 C 1437.46 442.58 1443.17 448.776 1449.99 454.827 C 1428.12 460.088 1406.65 467.232 1385.16 473.868 C 1382.25 474.78 1378.88 476.071 1375.86 476.342 C 1373.35 476.568 1372.12 475.669 1370.24 474.2 C 1367.73 468.128 1373.03 456.92 1374.86 450.57 C 1391.22 442.092 1412.15 438.405 1430.1 434.261 z"/>
<path transform="translate(0,0)" fill="rgb(254,254,254)" d="M 729.677 1083.22 L 732.008 1082.99 C 734.165 1083.91 734.512 1083.97 735.784 1085.9 C 735.626 1086.18 735.502 1086.49 735.31 1086.75 C 727.917 1096.81 632.198 1131.92 613.991 1135.97 L 612.096 1134.69 L 600.608 1114.04 C 643.197 1096.28 685.273 1092.51 729.677 1083.22 z"/>
<path transform="translate(0,0)" fill="rgb(254,254,254)" d="M 1570.66 847.651 C 1592.34 867.277 1607.71 895.683 1631.08 917.231 C 1618.72 918.118 1606.82 921.102 1594.78 923.869 C 1581.21 927.4 1568.05 931.516 1555.1 936.896 C 1549.82 927.599 1545.81 917.782 1545.31 906.97 C 1544.31 885.369 1556.83 863.323 1570.66 847.651 z"/>
<path transform="translate(0,0)" fill="rgb(254,254,254)" d="M 1001.95 1277.12 C 1027.73 1276.21 1039.68 1289.36 1058.13 1304.47 C 1042.44 1326.95 1028.62 1349.94 1015.89 1374.21 L 1014.15 1377.34 L 1012.87 1377.15 C 996.401 1354.12 979.958 1331.19 963.958 1307.82 C 974.361 1293.29 984.313 1282.31 1001.95 1277.12 z"/>
<path transform="translate(0,0)" fill="rgb(254,254,254)" d="M 1460.42 249.435 L 1462.6 249.195 C 1460.67 251.34 1351.23 290.554 1340.18 294.45 C 1320.96 301.231 1287.16 309.452 1271.99 322.633 C 1256.81 335.821 1245.25 358.41 1234.32 375.3 C 1198.21 431.098 1162.71 488.397 1131.71 547.225 L 1121.67 553.031 L 1120.19 553.11 C 1120.09 545.869 1126.6 534.577 1129.59 527.57 C 1162.07 451.48 1208.32 379.891 1258.45 314.258 C 1263.43 307.741 1268.9 302.496 1276.16 298.554 C 1293.51 289.134 1313.97 284.704 1332.87 279.292 C 1375.2 267.172 1416.66 255.397 1460.42 249.435 z"/>
<path transform="translate(0,0)" fill="rgb(254,254,254)" d="M 1951.06 599.396 C 1951.56 599.719 1951.66 600.435 1951.92 600.974 C 1938.24 657.4 1921.61 719.26 1878.78 760.795 C 1872.85 753.997 1868.39 745.884 1864.08 738.007 C 1846.79 706.19 1843.7 665.127 1837.55 629.928 C 1860.79 622.277 1883.99 614.189 1907.77 608.34 C 1922.07 604.823 1936.89 603.319 1951.06 599.396 z"/>
<path transform="translate(0,0)" fill="rgb(254,254,254)" d="M 203.137 1305.27 C 212.264 1298.74 222.2 1293.15 232.063 1287.8 C 226.488 1304.02 222.275 1320.26 219.748 1337.26 C 205.932 1430.19 220.121 1604.9 261.535 1689.85 A 265.112 265.112 0 0 0 268.983 1703.81 C 232.75 1718.24 197.536 1735.86 161.808 1751.56 C 119.206 1770.28 75.1921 1788.54 30.8901 1802.85 C 20.6957 1806.14 10.2614 1808.54 0 1811.59 L 0 1777.69 C 68.043 1759.3 135.025 1734.01 199.394 1705.47 C 209.824 1700.84 223.758 1696.54 232.538 1689.58 C 233.597 1687.14 233.357 1685.8 232.661 1683.23 C 229.549 1671.76 224.512 1660.7 220.887 1649.36 C 214.902 1630.65 210.464 1611.25 206.554 1592.01 A 747.812 747.812 0 0 1 195.741 1352.33 C 197.621 1336.8 199.358 1320.46 203.137 1305.27 z"/>
<path transform="translate(0,0)" fill="rgb(254,254,254)" d="M 745.378 1227.89 C 758.855 1229.56 844.782 1260.44 855.438 1268.91 C 867.77 1278.71 889.379 1308.76 900.211 1322.49 C 864.999 1311.45 834.558 1298.21 797.905 1289.79 C 763.52 1281.89 686.875 1275.11 656.076 1296.71 C 654.024 1298.15 653.303 1299.02 652.948 1301.46 C 654.573 1303.05 655.33 1303.52 657.645 1304.03 C 664.119 1305.43 671.558 1304.94 678.213 1305.53 A 306.76 306.76 0 0 1 713.984 1311.07 C 747.493 1318.5 780.797 1333.92 812.013 1347.97 C 826.098 1354.44 889.263 1381.63 896.254 1388.93 C 886.327 1397.98 849.999 1385.78 837.396 1382.7 C 752.914 1362.05 685.384 1346.2 599.43 1372.46 C 603.066 1355.27 604.602 1332.5 601.739 1315.15 C 618.445 1300.78 637.776 1291.67 656.549 1280.48 C 686.057 1262.89 715.583 1244.96 745.378 1227.89 z"/>
<path transform="translate(0,0)" fill="rgb(254,254,254)" d="M 1505.59 720.871 C 1506.07 721.138 1550.19 780.561 1555.52 787.358 C 1578.02 816.097 1603.08 842.437 1626.98 869.988 C 1647.85 894.047 1667.67 919.62 1689.77 942.512 C 1630.9 943.395 1574.46 963.374 1520.83 985.878 C 1481.47 1002.4 1444.61 1022.57 1407.94 1044.3 A 1073.22 1073.22 0 0 0 1190.69 1211.02 C 1166.74 1235.03 1144.52 1260.37 1122.4 1286.05 C 1082.46 1332.41 1042.37 1384.42 1019.03 1441.41 C 1001.35 1415.62 980.057 1393.07 960.984 1368.4 L 830.544 1196.56 C 824.295 1188.26 817.822 1180.06 812.401 1171.18 A 844.486 844.486 0 0 1 832.785 1150.52 C 843.997 1167.75 856.3 1184.2 868.178 1200.96 L 954.568 1320.41 A 2142.25 2142.25 0 0 1 985.969 1365.07 C 994.609 1377.63 1002.74 1390.55 1013.2 1401.7 C 1020.6 1402.47 1026.31 1385.55 1029.46 1380 C 1070.42 1308 1115.59 1255.2 1175.43 1198.82 A 903.68 903.68 0 0 1 1240.98 1142.48 C 1262.63 1125.91 1285.32 1110.72 1307.48 1094.84 C 1379.03 1043.56 1452.38 991.277 1535.37 960.09 C 1558.17 951.521 1582.29 943.486 1606.17 938.748 C 1618.19 936.363 1643.83 934.865 1653.34 930.947 C 1655.23 928.883 1655.88 927.717 1656.51 924.987 C 1652.29 913.688 1638.79 901.792 1631.13 892.395 C 1612.63 869.696 1594.47 846.841 1575.55 824.474 C 1564.47 811.387 1552.67 798.935 1541.79 785.678 A 904.253 904.253 0 0 1 1497.42 725.862 L 1505.59 720.871 z"/>
<path transform="translate(0,0)" fill="rgb(254,254,254)" d="M 1987.52 363.673 C 2007.55 369.11 2027.42 373.504 2048 376.245 L 2048 781.941 C 2011.47 782.226 1976.07 778.28 1939.92 773.613 C 1978.2 733.739 1994.97 677.64 2007.22 625.013 C 2022.13 560.949 2030.54 491.533 2026.68 425.715 C 2026.24 418.147 2026.59 404.375 2022.29 398.108 C 2020.99 396.22 2020.42 396.259 2018.31 395.795 C 2014.44 397.379 2013.54 399.286 2012.77 403.235 C 2009.99 417.495 2012.58 434.485 2012.61 449.07 A 744.868 744.868 0 0 1 2009.48 514.363 C 2003 580.488 1987.57 659.314 1957.99 719.059 C 1948.87 737.468 1935.8 753.14 1926.53 771.157 C 1918.64 770.39 1911.01 769.345 1903.24 767.753 C 1908.91 760.522 1914.62 753.282 1919.74 745.656 C 1928.51 732.62 1934.8 718.159 1940.94 703.756 C 1972.85 628.868 1993.12 523.135 1994.19 441.892 A 381.218 381.218 0 0 0 1987.52 363.673 z"/>
<path transform="translate(0,0)" fill="rgb(127,201,142)" d="M 0 1389.88 C 66.0986 1371.67 128.257 1339.46 190.954 1312.23 C 162.71 1401.38 170.876 1539.92 197.101 1629.3 C 202.315 1647.08 209.695 1664.26 217.381 1681.08 C 192.124 1691.52 167.122 1702.9 141.703 1712.88 C 95.8111 1730.91 47.605 1747.14 0 1760.1 L 0 1714.68 L 0 1701.68 L 0 1389.88 z"/>
<path transform="translate(0,0)" fill="rgb(34,62,114)" d="M 0 1701.68 C 38.3224 1687.6 77.0058 1674.65 115.119 1659.94 C 131.021 1653.8 149.643 1643.16 164.954 1638.72 C 169.765 1637.33 175.809 1636.39 180.583 1638.48 C 182.275 1639.22 183.061 1639.8 184.23 1641.17 C 184.658 1643.52 184.401 1644.89 183.152 1646.99 C 177.993 1655.68 157.057 1661.67 147.768 1665.49 C 99.5126 1685.37 50.7676 1702.33 0 1714.68 L 0 1701.68 z"/>
<path transform="translate(0,0)" fill="rgb(254,254,254)" d="M 671.976 989.27 C 677.397 995.033 681.771 1002.78 686.25 1009.33 C 699.084 1028.1 711.3 1047.08 723.305 1066.38 C 686.257 1070.63 624.61 1079.36 593.653 1099.11 C 584.291 1081.88 572.534 1063.8 557.853 1050.65 C 553.507 1046.76 544.661 1039.33 538.813 1039.63 C 536.208 1040.86 535.946 1040.9 534.548 1043.38 C 535.088 1050.19 555.074 1068.24 560.154 1075.04 C 574.787 1094.64 587.57 1119.42 598.064 1141.58 C 562.127 1153.2 526.197 1164.17 489.976 1174.87 C 475.398 1179.18 430.429 1191.44 425.017 1205.17 C 424.04 1207.64 424.426 1208.76 425.217 1211.1 C 425.495 1211.21 425.76 1211.36 426.05 1211.44 C 432.286 1213.06 454.118 1203.51 462.151 1201.45 C 508.917 1189.44 554.866 1177.89 600.479 1161.73 C 665.134 1138.82 726.511 1109.22 788.776 1080.72 L 799.509 1082.13 C 807.508 1077.38 813.231 1070.6 821.928 1066.69 C 829.104 1070.76 837.182 1077.45 840.821 1085.01 C 842.841 1089.21 843.343 1093.75 841.647 1098.15 C 838.285 1106.88 828.575 1110.91 820.55 1114.15 C 815.662 1111.1 811.087 1107.7 807.551 1103.09 C 804.863 1099.59 801.056 1088.35 798.063 1086.57 C 794.949 1086.64 794.127 1086.51 791.393 1088.19 C 789.713 1091.27 789.924 1093.93 790.699 1097.27 C 793.58 1109.66 800.222 1119.36 811.029 1125.85 C 824.432 1125.09 835.986 1120.39 846.137 1111.56 C 851.807 1106.62 856.765 1100.08 856.916 1092.26 C 857.174 1078.89 846.176 1068.8 837.706 1059.86 C 845.797 1060.39 854.139 1061.3 859.832 1067.84 C 863.419 1071.95 864.145 1077.3 863.628 1082.57 C 860.79 1111.51 833.648 1129.9 813.831 1147.54 C 792.07 1166.91 772.168 1188.49 749.029 1206.26 C 734.751 1217.22 719.373 1225.29 703.832 1234.2 C 690.881 1241.63 678.183 1249.51 665.211 1256.9 C 643.294 1269.4 618.818 1277.38 598.095 1292.01 C 586.601 1300.12 578.556 1311.87 569.277 1322.26 C 560.248 1332.37 550.754 1341.5 540.396 1350.23 C 497.524 1388.45 440.658 1415.53 385.054 1429.2 C 374.753 1431.73 364.149 1433.92 353.679 1435.61 C 347.564 1436.6 341.263 1436.67 335.273 1438.37 C 332.769 1439.08 330.849 1439.95 329.488 1442.27 C 329.794 1444.93 329.855 1445.58 332.01 1447.47 C 340.516 1454.9 372.863 1452.28 383.411 1450.57 C 449.528 1439.87 549.461 1382.22 589.004 1327.61 C 590.486 1344.83 589.402 1362.36 588.945 1379.62 C 583.862 1387.77 579.329 1396.26 574.173 1404.36 C 525.488 1480.92 441.862 1522.04 359.083 1550.82 C 322.469 1563.55 286.459 1574.17 248.566 1582.57 C 232.886 1506.49 230.395 1423.08 235.172 1345.7 C 236.463 1324.78 240.166 1304.04 241.206 1283.12 C 264.181 1270.03 282.46 1248.17 300.534 1229.12 C 333.92 1193.93 365.952 1157.54 398.696 1121.76 C 420.865 1097.54 443.266 1072.11 468.619 1051.16 C 481.418 1040.58 495.964 1030.81 511.258 1024.23 C 561.677 1002.51 619.737 1004.86 671.976 989.27 z"/>
<path transform="translate(0,0)" fill="rgb(34,62,114)" d="M 760.18 1103.45 C 761.599 1103.55 763.025 1103.63 764.315 1104.33 C 772.414 1108.7 791.604 1140.6 792.8 1150.48 C 793.239 1154.11 791.489 1155.48 789.376 1157.97 C 787.39 1157.51 785.764 1157 784.087 1155.78 C 777.723 1151.15 757.456 1119.11 756.852 1110.97 C 756.608 1107.68 758.284 1105.89 760.18 1103.45 z"/>
<path transform="translate(0,0)" fill="rgb(34,62,114)" d="M 671.116 1147.47 C 673.091 1147.74 675.221 1148.01 676.892 1149.2 C 685.397 1155.26 698.861 1192.46 700.512 1203.21 C 701.134 1207.27 700.056 1208.83 697.732 1211.88 C 695.758 1211.7 693.604 1211.64 691.873 1210.53 C 681.918 1204.17 672.942 1177.26 670.428 1166.08 C 669.042 1159.92 667.582 1153.1 671.116 1147.47 z"/>
<path transform="translate(0,0)" fill="rgb(34,62,114)" d="M 647.962 1157.4 C 648.936 1157.72 649.553 1157.87 650.468 1158.45 C 657.17 1162.69 664.513 1192.73 669.3 1201.64 C 672.513 1207.62 679.548 1211.73 681.02 1218.46 C 680.479 1221.93 678.638 1223.4 676.261 1225.73 C 671.303 1225.7 668.958 1223.78 665.547 1220.45 C 652.745 1207.94 643.276 1184.32 643.722 1166.48 C 643.828 1162.23 644.925 1160.29 647.962 1157.4 z"/>
<path transform="translate(0,0)" fill="rgb(254,254,254)" d="M 1523.43 245.039 C 1546.05 242.64 1570.94 251.441 1591.8 259.492 C 1632.29 275.109 1671.45 295.569 1710.91 313.607 A 1199.26 1199.26 0 0 0 1798.38 348.633 C 1817.47 355.445 1837.16 360.495 1856.71 365.797 C 1876.09 371.053 1895.45 376.51 1915.06 380.848 C 1933.59 384.945 1952.36 387.995 1970.74 392.714 C 1978.97 444.307 1965.82 540.831 1954.35 591.68 C 1920.99 573.802 1836.82 609.138 1799 616.12 C 1737.19 627.531 1667.28 605.526 1611.38 630.221 C 1590.86 639.285 1572.13 652.217 1553.52 664.628 C 1511.76 692.487 1471.83 723.673 1428.34 748.79 C 1411.6 758.454 1393.28 768.571 1374.29 772.69 C 1364.11 774.901 1351.69 775.204 1342.78 769.064 C 1336.67 764.852 1333.23 758.009 1331.87 750.854 C 1327.65 728.656 1342.97 698.624 1357.25 682.432 C 1376.16 660.993 1399.94 645.854 1422.94 629.308 C 1468.64 596.427 1526.1 554.254 1558.09 507.842 C 1578.05 478.901 1584.32 445.281 1577.81 410.912 C 1576.5 403.966 1574.88 395.592 1568.7 391.408 C 1566.08 391.102 1565.63 390.95 1563.3 392.08 C 1558.73 398.508 1561.01 426.12 1560.31 435.054 C 1555.91 491.168 1528.2 517.09 1489.11 553.071 C 1472.57 568.298 1456.27 583.903 1439.18 598.515 A 1826.47 1826.47 0 0 1 1427.69 576.164 L 1434.35 569.206 C 1446.62 556.5 1458.99 543.854 1472.69 532.653 C 1486.21 521.593 1501.76 511.936 1513.46 498.899 C 1517.63 498.114 1521.92 497.429 1526.02 496.341 C 1529.64 495.379 1533.81 493.443 1535.47 489.834 C 1536.53 487.541 1536.43 484.911 1535.36 482.665 C 1533.46 478.698 1497.89 477.86 1490.57 475.221 C 1481.4 471.915 1475.54 465.392 1471.35 456.791 C 1483.21 457.005 1495.7 458.719 1507.49 457.328 C 1511.48 456.858 1516.94 455.62 1519.14 451.85 C 1520.39 449.713 1520.61 446.95 1519.77 444.628 C 1515.57 433.042 1479.18 438.041 1468.72 436.929 C 1460.01 436.003 1453.24 433.81 1445.48 429.802 C 1456.82 427.218 1494.3 422.8 1501.43 415.772 C 1502.14 414.11 1502.81 413.263 1502.58 411.394 C 1502.22 408.385 1500.75 406.198 1498.45 404.318 C 1492.37 399.333 1482.45 400.756 1475.11 401.579 C 1437.49 405.794 1355.99 427.516 1323.42 445.617 C 1307.96 454.208 1293.97 466.575 1280.13 477.539 C 1270.96 484.803 1260.1 492.14 1252.83 501.325 C 1219.38 511.663 1188.34 525.358 1156.37 539.519 C 1162.16 529.981 1169.2 521.18 1176.43 512.705 C 1201.54 483.273 1228.55 455.435 1254.76 426.997 C 1268.49 412.099 1281.26 395.971 1295.41 381.542 C 1298.08 378.829 1300.64 376.395 1304.02 374.575 C 1316.01 368.113 1330.82 364.572 1343.65 359.724 C 1366.53 351.081 1389.09 341.612 1411.95 332.908 C 1438.53 322.784 1464.77 312.482 1490.71 300.758 C 1502 295.659 1514.09 290.622 1524.58 284.029 C 1527.92 281.933 1533.38 278.217 1534.73 274.262 C 1535.61 271.688 1535.27 270.922 1534.39 268.509 C 1531.97 266.556 1529.46 266.493 1526.49 266.784 C 1522.09 267.215 1517.81 268.489 1513.67 269.992 C 1496.53 276.218 1479.81 284.033 1462.92 290.948 L 1383.61 322.597 L 1334.2 342.195 C 1321.22 347.246 1303.85 351.625 1292.72 359.698 C 1282.22 367.316 1273.73 379.784 1264.95 389.428 C 1246.84 409.316 1228.18 428.462 1210.98 449.18 C 1220.45 430.296 1270.34 347.939 1282.6 336.869 C 1286.54 333.31 1391.61 297.341 1406.75 291.646 C 1445.71 276.993 1485.5 262.165 1523.43 245.039 z"/>
<path transform="translate(0,0)" fill="rgb(34,62,114)" d="M 1431.52 651.91 C 1438.76 651.685 1443.42 654.711 1448.56 659.706 C 1456.98 667.893 1465.37 682.047 1465.16 693.987 C 1465.07 698.864 1463.45 701.176 1460.07 704.536 C 1457.86 704.905 1455.89 705.413 1453.87 704.156 C 1450.63 702.144 1448.32 695.353 1446.66 691.967 C 1442.4 683.249 1428.74 665.095 1427.08 658.276 C 1427.88 654.773 1428.94 654.3 1431.52 651.91 z"/>
<path transform="translate(0,0)" fill="rgb(34,62,114)" d="M 1460.31 631.806 C 1467.85 633.405 1473.73 639.531 1478.29 645.416 C 1485.61 654.866 1493.3 669.183 1491.44 681.415 C 1490.63 686.757 1488.29 689.045 1483.99 692.039 C 1481.08 691.927 1479.33 691.838 1476.79 690.192 C 1472.18 683.121 1472.24 673.965 1468.8 666.399 C 1465.1 658.257 1451.21 646.929 1452.31 638.22 C 1454.3 635.127 1457.23 633.683 1460.31 631.806 z"/>
<path transform="translate(0,0)" fill="rgb(34,62,114)" d="M 1508.02 363.855 C 1509.13 364.269 1510.37 364.752 1511.35 365.426 C 1514.45 367.572 1516.43 371.424 1518.21 374.669 C 1521.83 381.274 1552.46 445.238 1552.72 446.958 C 1553.17 450.019 1551.87 451.411 1550.45 453.925 C 1546.1 453.415 1543.21 452.698 1539.95 449.566 C 1522.94 433.209 1504.24 397.891 1503.9 373.883 C 1503.83 369.217 1504.69 367.113 1508.02 363.855 z"/>
<path transform="translate(0,0)" fill="rgb(34,62,114)" d="M 1381.1 686.019 C 1383.39 685.935 1385.68 685.78 1387.86 686.64 C 1396.97 690.239 1407.19 709.122 1409.68 718.143 C 1411.21 723.673 1411.26 728.807 1408.16 733.788 C 1400.04 746.854 1378.99 759.508 1364.24 762.949 C 1358.86 763.215 1354.09 762.861 1349.33 760.089 C 1340.36 754.861 1336.91 745.538 1334.68 735.97 C 1335.25 733.933 1335.89 731.937 1336.73 729.994 C 1342.85 715.858 1366.93 691.71 1381.1 686.019 z"/>
<path transform="translate(0,0)" fill="rgb(254,254,254)" d="M 1379.26 702.679 C 1379.59 702.688 1379.93 702.642 1380.26 702.705 C 1384.22 703.463 1389.27 712.212 1391.03 715.519 C 1393.42 720.006 1395.88 725.577 1394.44 730.691 C 1388.33 738.831 1375.61 745.458 1366.03 748.582 C 1365.09 748.549 1364.15 748.522 1363.21 748.439 C 1359.19 748.082 1353.14 746.218 1350.83 742.601 C 1349.56 740.614 1349.3 738.329 1349.74 736.048 C 1352.24 723.077 1369.07 709.927 1379.26 702.679 z"/>
<path transform="translate(0,0)" fill="rgb(254,254,254)" d="M 1454.43 474.273 C 1459.39 474.011 1461.58 475.321 1465.72 477.921 L 1465.76 478.905 C 1450.2 485.034 1434.52 492.698 1420.28 501.474 C 1415.92 504.162 1408.39 508.955 1407.95 514.629 C 1407.81 516.429 1408.33 517.594 1409.33 518.994 C 1422.02 536.62 1472.55 488.435 1488.07 492.152 C 1489.48 492.491 1489.14 492.542 1489.91 493.878 C 1489.85 494.698 1490.09 495.601 1489.72 496.337 C 1488.63 498.532 1476.29 505.426 1473.84 507.157 C 1452.67 522.088 1434.79 540.105 1419.41 560.837 C 1409 540.183 1398.77 519.825 1386.29 500.309 C 1298.87 516.243 1190.59 563.96 1110.94 604.6 C 1089.35 615.618 1067.38 626.353 1047.03 639.597 C 1043.67 641.78 1039.22 643.917 1038.79 648.332 C 1038.41 652.157 1040.4 654.374 1042.8 656.941 C 1047.81 657.967 1131.89 613.693 1143.48 607.825 A 1257.61 1257.61 0 0 1 1374.01 518.858 C 1389.82 550.283 1403.85 582.513 1420.24 613.698 C 1382.61 641.343 1336.82 672.876 1321.38 719.285 C 1316.11 735.121 1314.89 752.579 1322.95 767.75 C 1328.15 777.526 1336.05 784.713 1346.75 787.93 C 1376.12 796.758 1417.86 774.678 1442.77 760.037 C 1455.24 752.708 1466.93 744.111 1479.77 737.427 L 1481.44 736.569 C 1491.51 747.255 1500 759.877 1508.88 771.579 C 1525.36 793.304 1541.6 813.762 1561.07 832.98 C 1544.56 852.933 1528.16 875.765 1526.52 902.5 C 1525.61 917.341 1528.91 930.277 1538.89 941.642 C 1463.16 961.616 1372.45 1028.5 1308.57 1074.3 C 1292.52 1085.82 1275.96 1096.6 1260 1108.25 A 1087.43 1087.43 0 0 0 1152.29 1196.9 A 721.488 721.488 0 0 0 1065.82 1293.53 C 1057.63 1284.53 1049.61 1275.93 1038.97 1269.79 C 1025.52 1262.04 1008.88 1258.17 993.66 1262.45 C 975.585 1267.55 963.821 1280.24 954.935 1296.06 C 941.647 1281.47 930.774 1264.49 919.407 1248.38 A 3586.43 3586.43 0 0 0 871.06 1181 C 861.427 1167.87 852.243 1154.3 840.457 1142.98 C 853.249 1128.66 867.607 1112.07 874.681 1094.06 C 878.17 1085.18 879.035 1075.29 874.801 1066.5 C 870.924 1058.45 863.51 1052.84 855.07 1050.24 C 833.696 1043.66 812.98 1055.09 794.838 1065.07 C 780.809 1039.99 759.909 1009.94 740.65 988.644 C 751.554 981.105 761.262 973.576 768.232 962.083 C 784.249 935.671 780.672 906.38 773.562 877.866 C 813.888 848.959 854.879 821.096 894.924 791.787 C 908.68 781.718 924.995 771.931 937.385 760.372 C 939.707 758.204 941.338 754.762 940.902 751.487 C 940.529 748.682 940.106 748.342 937.945 746.876 C 933.046 746.63 929.375 748.683 925.293 751.147 C 916.624 756.38 908.503 763.015 900.242 768.905 C 883.25 781.019 866.26 793.071 849.466 805.46 C 821.569 826.037 793.01 845.713 764.971 866.058 C 762.704 867.704 758.468 870.332 758.114 873.332 C 757.385 879.496 763.183 890.597 764.7 897.045 C 767.031 906.949 766.956 918.191 765.125 928.169 C 761.22 949.446 749.067 964.575 731.601 976.549 C 716.499 955.556 699.112 936.526 683.684 915.856 A 1663.81 1663.81 0 0 1 830.279 790.828 C 855.101 771.707 880.252 751.877 907.003 735.528 C 911.354 732.868 918.562 727.962 919.197 722.412 C 919.503 719.73 918.459 718.218 916.881 716.22 C 915.305 715.534 914.366 714.835 912.59 714.992 C 904.465 715.713 888.474 729.391 880.81 734.728 C 806.781 786.279 725.788 848.386 663.376 913.197 C 673.231 928.557 686.803 941.551 697.906 956.035 A 2787.67 2787.67 0 0 1 781.03 1068.39 L 756.379 1080.6 C 748.781 1067.48 738.654 1055.58 730.19 1042.97 C 708.981 1011.38 690.099 984.07 667.079 953.655 C 653.569 935.805 640.339 918.22 624.738 902.111 C 644.994 885.727 664.296 868.274 684.34 851.65 C 731.114 812.859 779.169 774.882 828.842 739.87 C 846.107 727.7 864.048 717.158 882.101 706.229 C 906.741 691.311 931.238 676.534 956.402 662.487 C 1071.76 598.093 1205 533.146 1332.46 497.649 C 1344 494.435 1356.35 491.409 1368.3 490.36 C 1379 489.421 1389.6 489.745 1400.23 487.891 C 1418.56 484.695 1436.14 477.797 1454.43 474.273 z"/>
<path transform="translate(0,0)" fill="rgb(34,62,114)" d="M 1466.33 750.888 C 1469.84 750.827 1473.45 750.73 1476.63 752.464 C 1480.32 754.472 1528.39 818.157 1533.31 825.216 C 1535.02 827.665 1537.92 831.158 1538.1 834.206 C 1538.33 838.336 1536.29 840.852 1533.92 843.915 C 1532.08 844.05 1528.94 844.572 1527.39 843.591 C 1520.08 838.981 1463.13 763.518 1462.96 757.056 C 1462.88 754.232 1464.66 752.873 1466.33 750.888 z"/>
<path transform="translate(0,0)" fill="rgb(34,62,114)" d="M 1310.24 561.989 C 1312.19 562.036 1314.6 562.201 1316.05 563.689 C 1318.13 565.844 1318.88 568.833 1320.07 571.525 C 1325 582.718 1332.37 591.322 1342.95 597.52 C 1350.95 602.204 1359.86 605.237 1368.88 607.216 C 1377.07 609.012 1396.22 607.742 1402.09 613.034 C 1404.16 614.9 1404.55 616.919 1404.77 619.548 C 1403.85 621.697 1403.66 622.552 1401.55 623.79 C 1394.06 628.182 1369.33 624.36 1360.91 621.934 C 1336.56 614.922 1318.26 602.185 1306.06 579.753 C 1288.2 586.639 1269.94 592.467 1252.12 599.442 C 1233.08 606.895 1214.42 615.552 1195.7 623.785 C 1178 631.088 1160.93 639.62 1143.84 648.236 C 1133.66 653.367 1114.99 666.183 1105.18 667.76 C 1101.95 668.28 1099.52 668.023 1096.8 666.033 C 1096.03 663.543 1095.78 663.057 1096.99 660.564 C 1104.11 645.946 1206.59 600.466 1228.35 591.58 A 1045.03 1045.03 0 0 1 1310.24 561.989 z"/>
<path transform="translate(0,0)" fill="rgb(34,62,114)" d="M 1158.14 682.796 C 1158.47 682.924 1158.8 683.027 1159.12 683.18 C 1168.43 687.748 1214.14 767.787 1219.26 780.341 C 1214.06 787.983 1203.48 800.627 1194.92 804.391 C 1190.98 806.122 1187.56 805.519 1184.15 803.039 C 1180.14 800.113 1177.29 795.345 1174.4 791.348 C 1164.7 777.962 1153.87 764.928 1138.05 758.651 C 1120.59 751.726 1104.97 756.482 1088.63 763.309 C 1112.15 800.313 1132.14 839.7 1153.22 878.143 C 1179.21 861.847 1207.69 851.904 1238.62 852.247 C 1259.6 852.48 1278.24 858.812 1292.95 874.26 C 1310.3 892.484 1317.49 919.481 1316.75 944.146 C 1315.36 990.024 1288.2 1025.95 1256.32 1056.28 C 1262.46 1063.07 1266.22 1070.14 1269.12 1078.73 C 1261.72 1086.02 1236.68 1104.98 1226.52 1105.07 C 1220.92 1102.83 1215.94 1091.06 1212.94 1085.75 C 1204.05 1088.01 1195.43 1090.88 1186.74 1093.79 C 1179.86 1104.82 1172.62 1115.25 1164.32 1125.26 C 1161.39 1126.69 1159.02 1127.66 1155.8 1128.17 C 1148.9 1125.59 1088.32 1073.26 1079.55 1064.83 C 1076.07 1061.48 1072.29 1057.85 1070.16 1053.47 C 1070.45 1052.33 1070.41 1052.25 1071.08 1051.04 C 1074.82 1044.18 1084.42 1038.23 1089.94 1032.51 C 1094.21 1028.08 1097.37 1022.73 1102.02 1018.63 C 1103.61 1017.24 1105.4 1016.14 1107.55 1015.87 C 1116.27 1014.8 1126.62 1029.59 1132.51 1034.94 C 1145.48 1046.73 1167.27 1047.47 1183.65 1046.63 C 1162.3 1011.79 1143.07 975.416 1122.33 940.194 C 1102.18 947.841 1085.4 955.852 1063.34 956.264 C 1038.8 956.722 1013.7 948.997 995.928 931.503 C 974.958 910.859 965.632 879.182 965.53 850.383 C 965.381 808.704 981.805 773.39 1011.01 744.052 C 1006.89 738.452 1002.72 731.527 1000.59 724.892 C 999.741 722.265 999.051 718.979 1000.67 716.542 C 1005.82 708.777 1032.77 693.719 1041.97 691.537 C 1047.75 693.148 1058.67 713.631 1063.16 719.096 L 1064.27 720.423 C 1083.43 707.016 1104.9 703.403 1126.59 696.036 C 1137.37 692.374 1147.76 687.457 1158.14 682.796 z"/>
<path transform="translate(0,0)" fill="rgb(127,201,142)" d="M 1154.82 701.96 C 1161.13 707.796 1192.07 766.372 1199.23 778.572 L 1192.3 785.86 C 1179.35 767.337 1165.85 752.825 1145.45 742.699 C 1121.92 733.877 1101.61 738.868 1079.23 748.266 C 1075.7 743.805 1072.69 738.83 1069.54 734.098 C 1095.56 720.077 1127.02 715.132 1154.82 701.96 z"/>
<path transform="translate(0,0)" fill="rgb(254,254,254)" d="M 1181.8 924.395 C 1195.76 923.185 1208.82 922.972 1221.57 929.851 C 1235.08 937.141 1246.1 951.458 1250.07 966.267 C 1254.41 982.479 1249.29 995.796 1241.26 1009.63 L 1234.21 1019.77 C 1222.54 999.672 1211.82 979.095 1200.33 958.909 C 1194.12 947.997 1187.2 937.476 1181.19 926.458 L 1181.8 924.395 z"/>
<path transform="translate(0,0)" fill="rgb(254,254,254)" d="M 1039.71 797.426 C 1047.04 802.058 1091.5 883.624 1098.01 896.922 C 1093.5 898.736 1088.88 899.997 1084.22 901.318 C 1072.66 901.855 1062.15 900.19 1052.15 893.925 C 1039.03 885.71 1030.79 872.689 1027.34 857.802 C 1022.24 835.827 1028.09 816.217 1039.71 797.426 z"/>
<path transform="translate(0,0)" fill="rgb(127,201,142)" d="M 1018.58 760.754 C 1023.82 766.146 1027.94 774.228 1031.97 780.647 C 1027.17 787.233 1022.67 793.751 1019.15 801.131 C 1008.66 823.146 1006.49 849.485 1014.71 872.583 C 1021.1 890.537 1032.88 905.369 1050.44 913.384 C 1069.62 922.144 1087.1 918.867 1106.18 911.927 C 1108.94 916.207 1111.38 920.745 1113.93 925.153 C 1108.66 927.811 1102.81 929.81 1097.33 932.019 C 1086.81 935.848 1075.75 938.628 1064.54 939.109 C 1044.28 939.979 1022.84 933.12 1007.89 919.161 C 989.506 901.991 982.322 875.448 981.767 851.009 C 980.974 816.077 994.544 785.733 1018.58 760.754 z"/>
<path transform="translate(0,0)" fill="rgb(127,201,142)" d="M 1224.97 870.395 C 1235.19 869.627 1245.85 869.353 1255.87 871.876 C 1269.89 875.407 1280.75 883.991 1288.1 896.352 C 1301.08 918.205 1302.25 943.803 1296 968.032 C 1290.04 991.151 1277.98 1011.71 1261.95 1029.26 C 1258.55 1032.98 1254.23 1038.06 1249.75 1040.41 C 1247.81 1041.42 1246.18 1041.44 1244.18 1040.63 C 1242.6 1039.99 1242.85 1039.51 1242.31 1038.04 C 1242.78 1031.68 1248.15 1025.89 1251.84 1020.99 C 1261.74 1005.63 1268.46 989.936 1266.64 971.266 C 1264.77 952.09 1255.51 932.729 1240.34 920.59 C 1218.43 903.047 1197.51 905.311 1171.41 908.392 C 1167.29 903.265 1163.59 897.991 1159.95 892.512 C 1180.12 880.352 1201.58 873.028 1224.97 870.395 z"/>
<path transform="translate(0,0)" fill="rgb(127,201,142)" d="M 1038.65 711.938 C 1047.76 720.988 1054.9 736.492 1061.45 747.628 C 1078.25 776.172 1094.55 804.83 1110.72 833.737 L 1226.5 1039.8 C 1232.95 1051.3 1241.7 1061.27 1248.04 1072.9 C 1242.59 1076.83 1237.36 1081.01 1232.11 1085.18 C 1228.78 1080.59 1224.26 1072.95 1219.01 1070.7 C 1213.04 1068.14 1185.14 1075.43 1178.64 1078.34 C 1170.91 1087.35 1164.96 1098.4 1158.05 1108.09 C 1146.15 1099.49 1134.86 1089.86 1123.44 1080.63 C 1113 1071.55 1101.89 1063.2 1090.89 1054.83 C 1096.48 1048 1102.44 1041.52 1107.94 1034.58 C 1118 1045.75 1132.19 1057.17 1146.86 1061.41 C 1161.05 1065.5 1191.08 1065.06 1203.81 1057.24 C 1206.28 1055.72 1206.88 1054.62 1207.68 1051.92 C 1204.52 1042.68 1195.69 1033.2 1190.36 1024.72 C 1183.14 1013.22 1176.48 1001.33 1169.73 989.557 A 14145.5 14145.5 0 0 0 1015.73 723.611 C 1023.02 719.275 1031.05 715.752 1038.65 711.938 z"/>
<path transform="translate(0,0)" fill="rgb(254,254,254)" d="M 0 0 L 2048 0 L 2048 359.418 C 2033.16 357.018 2018.4 354.586 2003.81 350.945 C 1993.51 348.374 1982.41 344.042 1972.01 342.651 C 1969.51 342.315 1967.62 342.557 1965.48 344.033 C 1963.71 345.263 1962.06 346.937 1961.54 349.105 C 1960.08 355.117 1965.1 364.028 1967.42 369.505 C 1894.11 355.038 1823.2 336.601 1753.43 309.574 C 1690.56 285.223 1600.11 232.756 1534.88 226.346 C 1479.05 220.859 1417.99 236.171 1364.11 250.174 C 1338.75 256.763 1283.53 268.775 1263.5 282.543 C 1249.34 292.283 1238.14 310.538 1227.88 324.102 C 1174.84 394.22 1121.73 480.554 1095.58 564.841 A 1684.68 1684.68 0 0 0 683.789 827.716 C 659.348 849.105 632.153 871.086 612.796 897.415 C 618.293 914.572 651.437 956.486 662.944 974.341 C 640.318 977.314 617.758 981.343 595.258 985.149 C 570.32 989.368 544.545 992.906 520.621 1001.31 C 502.227 1007.77 484.091 1016.37 468.184 1027.71 C 450.615 1040.24 435.131 1056.29 419.897 1071.51 C 384.327 1107.04 351.405 1144.72 317.365 1181.68 C 297.455 1203.3 269.243 1237.71 246.705 1255.14 C 226.154 1271.03 200.757 1282.62 177.417 1293.77 C 119.583 1321.41 60.1769 1344.69 0 1366.63 L 0 0 z"/>
</svg>