<svg version="1.1" xmlns="http://www.w3.org/2000/svg" style="display: block;" viewBox="0 0 2048 2048" width="1024" height="1024">
<defs>
	<linearGradient id="Gradient1" gradientUnits="userSpaceOnUse" x1="273.737" y1="1630.39" x2="292.382" y2="1651.22">
		<stop class="stop0" offset="0" stop-opacity="1" stop-color="rgb(216,233,232)"/>
		<stop class="stop1" offset="1" stop-opacity="1" stop-color="rgb(249,248,246)"/>
	</linearGradient>
</defs>
<path transform="translate(0,0)" fill="rgb(254,254,254)" d="M 0 0 L 2048 0 L 2048 2048 L 0 2048 L 0 0 z"/>
<path transform="translate(0,0)" fill="rgb(19,43,67)" d="M 951.337 992.503 C 952.235 992.541 952.491 992.524 953.447 992.707 C 958.951 993.761 973.336 1010.34 976.038 1015.87 C 977.483 1018.83 976.711 1019.66 975.613 1022.54 C 974.541 1022.49 974.124 1022.49 973.008 1022.3 C 967.72 1021.38 953.949 1004.51 951.156 999.4 C 949.682 996.705 950.42 995.25 951.337 992.503 z"/>
<path transform="translate(0,0)" fill="rgb(19,43,67)" d="M 1910.22 1153.87 C 1912.37 1154.38 1913.74 1154.71 1915.46 1156.13 C 1915.62 1164.61 1892.55 1196.83 1886.3 1204.61 C 1885.68 1204.5 1884.85 1204.39 1884.28 1204.14 C 1882.13 1203.2 1882.12 1202.62 1881.56 1200.54 C 1883.63 1189.32 1903.25 1164.51 1910.22 1153.87 z"/>
<path transform="translate(0,0)" fill="rgb(19,43,67)" d="M 1840.97 1213.32 C 1841.34 1213.53 1841.73 1213.71 1842.09 1213.94 C 1848.56 1218.12 1857.27 1274.74 1859.79 1285.84 C 1870.5 1279.25 1880.61 1268.31 1892.29 1263.79 C 1894.92 1262.77 1896.45 1262.53 1899.04 1263.58 L 1899.56 1265.47 C 1898.67 1269.18 1898.68 1269.35 1895.76 1271.78 C 1886.06 1278.35 1870.46 1294.64 1858.67 1294.99 C 1855.87 1295.07 1854.68 1294.54 1852.56 1292.8 C 1847.49 1283.59 1837.6 1231.08 1837.6 1219.49 C 1837.6 1216.35 1838.85 1215.48 1840.97 1213.32 z"/>
<path transform="translate(0,0)" fill="rgb(19,43,67)" d="M 1187.99 1098.65 C 1189.4 1099.3 1190.49 1100.09 1191.75 1100.99 C 1194.39 1107.19 1170.42 1173.18 1166.49 1184.78 C 1177.49 1189.65 1216.3 1205.21 1222.59 1212.33 C 1222.34 1215.62 1221.46 1216.53 1219.66 1219.23 C 1205.43 1212.93 1170.27 1198.49 1159.36 1190.47 C 1157.15 1186.42 1158.95 1180.09 1160.15 1175.75 C 1163.36 1164.17 1180.14 1109.45 1184.74 1101.5 C 1185.54 1100.12 1186.65 1099.42 1187.99 1098.65 z"/>
<path transform="translate(0,0)" fill="rgb(19,43,67)" d="M 1747.07 1264.2 C 1747.86 1264.24 1748.82 1264.26 1749.56 1264.51 C 1751.88 1265.32 1752.34 1265.74 1753.14 1267.98 C 1749.39 1275.64 1735.56 1275.97 1728.85 1281.78 C 1725.85 1284.36 1724.13 1287.84 1724.22 1291.84 C 1724.24 1292.79 1724.47 1295.04 1724.84 1295.82 C 1727.34 1301.15 1763.2 1305.89 1772.84 1316.06 C 1776.91 1320.36 1778.37 1326.57 1778.2 1332.37 C 1777.96 1340.13 1773.76 1347.02 1767.97 1351.96 C 1757.82 1360.62 1745.73 1363.57 1732.71 1362.48 C 1730.5 1361.24 1727.98 1359.61 1727.19 1357.08 C 1726.76 1355.73 1727.41 1355.31 1728.04 1354.18 C 1735.5 1350.61 1745.48 1352.62 1753.43 1350 C 1758.57 1348.31 1765.14 1342.64 1767.55 1337.82 C 1769.13 1334.64 1769.68 1330.43 1768.27 1327.1 C 1762.7 1313.92 1734.19 1313.14 1722.35 1306.43 C 1718.41 1304.19 1714.45 1300.96 1713.5 1296.29 C 1712.42 1290.97 1715.53 1285.25 1718.4 1281 C 1725.29 1270.78 1735.27 1266.32 1747.07 1264.2 z"/>
<path transform="translate(0,0)" fill="rgb(19,43,67)" d="M 1021.68 1031.13 C 1029.05 1030.78 1035.46 1032.17 1042.22 1035.12 C 1051.28 1039.08 1064.21 1047.06 1067.95 1056.46 C 1067.42 1059.02 1067.25 1058.96 1065.18 1060.62 C 1056.42 1060.46 1048.36 1049.23 1040.61 1045.1 C 1035.67 1042.46 1030.32 1041.53 1024.89 1040.51 C 1020.39 1042.01 1015.47 1043.75 1013.14 1048.27 C 1005.33 1063.4 1036.12 1084.48 1041.64 1103.52 C 1043.85 1111.11 1043.31 1118.5 1039.14 1125.33 C 1034.75 1132.53 1027.86 1135.31 1020.04 1137.28 C 1019.75 1137.27 1019.46 1137.26 1019.17 1137.24 C 1005.75 1136.31 990.486 1126.96 981.712 1116.9 C 978.921 1113.7 975.744 1109.77 976.114 1105.3 L 977.493 1104.32 C 986.887 1105.32 994.888 1117.98 1003.26 1122.7 C 1008.98 1125.93 1016.36 1128.77 1022.92 1126.53 C 1026.69 1125.25 1029.85 1122.58 1031.4 1118.88 C 1040.02 1098.25 1009.27 1079.98 1003.05 1062.53 C 1000.94 1056.59 1000.12 1049.11 1003.29 1043.38 C 1006.81 1037.01 1015.02 1033.05 1021.68 1031.13 z"/>
<path transform="translate(0,0)" fill="rgb(19,43,67)" d="M 1794.22 1240.14 C 1798.22 1239.91 1801.63 1240 1805.24 1241.96 C 1820.07 1250.01 1827.08 1273.93 1831.03 1289.13 C 1832.4 1294.4 1833.35 1300.96 1835.5 1305.88 C 1837.94 1311.44 1842.34 1315.6 1844.15 1321.53 C 1843.74 1324.33 1843.77 1324.78 1841.92 1326.87 C 1839.65 1327.51 1837.68 1328.13 1835.42 1327 C 1829.61 1324.11 1828.23 1314.85 1826.68 1309.2 L 1823.21 1318.49 L 1822.42 1319.91 C 1819.77 1324.74 1817.43 1329.05 1812.29 1331.58 C 1808.12 1333.63 1803.48 1333.69 1799.16 1332.06 C 1789.72 1328.49 1783.49 1318.53 1779.5 1309.7 C 1772.81 1294.93 1768.05 1273.5 1774.4 1257.96 C 1778.27 1248.46 1784.98 1243.8 1794.22 1240.14 z"/>
<path transform="translate(0,0)" fill="rgb(254,254,254)" d="M 1793.7 1249.06 C 1794.74 1249.1 1795.79 1249.12 1796.82 1249.22 C 1801.74 1249.73 1805.27 1253.16 1808.24 1256.85 C 1817.28 1268.12 1821.22 1285.41 1819.38 1299.52 C 1818.3 1307.87 1815.5 1317.99 1808.63 1323.35 C 1806.78 1323.28 1804.8 1323.26 1803 1322.83 C 1798.55 1321.76 1794.3 1315.58 1792.1 1311.96 C 1783.91 1298.52 1779.19 1277.35 1783.53 1262.04 C 1785.33 1255.71 1787.93 1252.14 1793.7 1249.06 z"/>
<path transform="translate(0,0)" fill="rgb(19,43,67)" d="M 1094.25 1074.24 C 1105.39 1072.94 1115.62 1074.26 1124.75 1081.31 C 1133.98 1088.43 1138.95 1099.56 1140.05 1110.97 C 1141.81 1129.35 1135.69 1144.51 1123.89 1158.3 C 1127.96 1164.96 1137.56 1174.23 1136.77 1182.25 C 1134.94 1183.43 1135.63 1183.48 1133.72 1183.13 C 1128.47 1182.18 1126.59 1178.19 1123.81 1174.13 L 1116.34 1164.17 C 1113.92 1165.26 1111.49 1166.41 1109 1167.33 C 1100.88 1170.34 1092.26 1170.1 1084.4 1166.36 C 1074.54 1161.67 1067.41 1152.54 1063.73 1142.41 C 1058.74 1128.66 1060.05 1112.94 1066.19 1099.76 C 1072.09 1087.1 1081.23 1078.87 1094.25 1074.24 z"/>
<path transform="translate(0,0)" fill="rgb(254,254,254)" d="M 1100.82 1083.27 C 1108.01 1083.2 1114.59 1084.53 1120.17 1089.29 C 1127.53 1095.57 1130.37 1105.69 1130.77 1115.04 C 1131.35 1128.56 1126.66 1139.54 1117.71 1149.35 C 1112.86 1144.43 1108.85 1137.04 1102.86 1133.54 C 1100.45 1132.13 1099.34 1131.72 1096.61 1132.31 L 1095.7 1134.7 C 1096.28 1138.68 1098.35 1141 1100.76 1144.12 C 1102.89 1146.2 1106.11 1148.84 1107.49 1151.48 C 1108.79 1153.94 1108.2 1155.49 1107.34 1157.94 C 1105.87 1159.31 1105.03 1159.88 1103.04 1160.39 C 1097.4 1161.86 1090.13 1159.31 1085.44 1156.27 C 1077.42 1151.07 1072.17 1142.32 1070.45 1133 C 1068.17 1120.68 1071.91 1107.2 1079.19 1097.13 C 1084.87 1089.27 1091.28 1084.8 1100.82 1083.27 z"/>
<path transform="translate(0,0)" fill="rgb(19,43,67)" d="M 1529.02 1334.42 C 1561.24 1331.55 1621.66 1333.86 1646.48 1355.09 C 1651.45 1359.35 1654.43 1363.96 1654.86 1370.56 C 1655.97 1387.59 1655.26 1405.03 1655.34 1422.12 L 1656.04 1511.26 A 9430.99 9430.99 0 0 1 1656.44 1608.04 C 1656.44 1625.4 1657.29 1643.32 1655.87 1660.6 C 1655.33 1667.16 1655.05 1674.75 1650.46 1679.82 C 1631.95 1700.26 1594.35 1706.05 1568.25 1707.92 C 1534.48 1709.97 1477.29 1709.05 1449.89 1686.29 C 1443.56 1681.03 1439.97 1675.04 1439.24 1666.77 C 1437.74 1649.94 1438.79 1632.19 1438.8 1615.28 L 1439 1521.29 A 9161.61 9161.61 0 0 0 1439.17 1429.25 C 1439.1 1412.21 1438.14 1394.68 1439.08 1377.69 C 1439.36 1372.8 1439.82 1365.12 1443 1361.37 C 1459.88 1341.46 1504.61 1336.14 1529.02 1334.42 z"/>
<path transform="translate(0,0)" fill="rgb(254,254,254)" d="M 1640.09 1600.86 L 1641.16 1601.13 C 1642.57 1604.78 1641.72 1610.12 1641.59 1614.04 C 1630.46 1624.73 1616.5 1630.39 1601.71 1634.05 C 1560.62 1644.22 1492.14 1641.87 1455.55 1619.97 C 1452.74 1616.6 1453.95 1607.35 1453.96 1602.97 C 1464.5 1611.75 1476.44 1615.94 1489.68 1618.8 C 1535.08 1628.63 1600.28 1626.68 1640.09 1600.86 z"/>
<path transform="translate(0,0)" fill="rgb(254,254,254)" d="M 1640.39 1518.95 L 1640.97 1519.02 C 1642.98 1522.05 1641.98 1529.21 1642 1533.01 C 1631.5 1540.86 1620.14 1546.9 1607.54 1550.64 C 1565.31 1563.18 1493.87 1559.53 1455.35 1538.55 C 1452.25 1534.22 1453.49 1526.98 1453.63 1521.85 C 1462.15 1526.98 1470.88 1530.59 1480.47 1533.26 C 1530.94 1547.3 1594.32 1545 1640.39 1518.95 z"/>
<path transform="translate(0,0)" fill="rgb(254,254,254)" d="M 1455.04 1438.98 C 1461.05 1442.27 1466.91 1445.08 1473.42 1447.26 C 1513.55 1460.7 1567.16 1463.57 1608.33 1452.45 C 1619.92 1449.32 1630.35 1444.54 1641.03 1439.22 C 1641.13 1444.37 1641.38 1449.36 1640.36 1454.45 C 1624.95 1466.44 1602.83 1471.32 1583.82 1473.43 C 1546.34 1477.61 1483.95 1476.82 1453.73 1452.7 L 1455.04 1438.98 z"/>
<path transform="translate(0,0)" fill="rgb(254,254,254)" d="M 1530.46 1349.42 C 1557.96 1345.96 1608.52 1351.15 1632.57 1363.21 C 1636.08 1364.97 1637.93 1366.39 1639.1 1370.18 C 1638.75 1371.6 1638.4 1372.86 1637.42 1374.01 C 1625.05 1388.6 1585.69 1394.03 1567.48 1395.88 C 1541.48 1396.58 1515.9 1396.27 1490.37 1390.51 C 1480.81 1388.35 1462.61 1384.65 1457.04 1375.85 C 1456.64 1372.93 1456.46 1371.34 1458.52 1368.87 C 1470.14 1354.93 1512.85 1350.77 1530.46 1349.42 z"/>
<path transform="translate(0,0)" fill="rgb(254,254,254)" d="M 1639.9 1390.1 C 1641.73 1392.37 1640.88 1423.78 1640.88 1428.92 A 102.687 102.687 0 0 1 1606.01 1444.93 C 1563.99 1455.7 1496.68 1452.52 1459.23 1430.54 C 1458.34 1429.83 1457.18 1429.01 1456.47 1428.09 C 1451.39 1421.54 1453.77 1403.68 1453.94 1395.23 C 1473.89 1405.94 1497.44 1409.75 1519.77 1411.99 C 1554.54 1415.47 1611.44 1413.49 1639.9 1390.1 z"/>
<path transform="translate(0,0)" fill="rgb(254,254,254)" d="M 1640.86 1625.06 C 1643.36 1628.42 1641.59 1662.26 1640.82 1668.33 C 1628.71 1679.34 1610.66 1685.02 1594.95 1688.33 C 1555.58 1696.63 1493.39 1695.64 1458.68 1673.23 C 1458.23 1672.78 1457.78 1672.35 1457.34 1671.89 C 1450.84 1665.09 1453.95 1639.23 1454.04 1629.49 C 1472.73 1638.9 1491.21 1642.97 1511.94 1645.37 C 1551.83 1649.99 1608.1 1650.96 1640.86 1625.06 z"/>
<path transform="translate(0,0)" fill="rgb(254,254,254)" d="M 1640.98 1463.2 C 1643.75 1469.97 1641.35 1499.58 1640.94 1509.3 C 1626.91 1519.34 1610.71 1525.13 1593.87 1528.44 C 1557.04 1535.67 1491.19 1536.24 1459.06 1514.63 C 1458.18 1513.85 1457.32 1513.07 1456.52 1512.22 C 1451.53 1506.91 1453.9 1473.46 1453.98 1464.49 A 137.097 137.097 0 0 0 1484.17 1476.16 C 1518.99 1485.26 1571.71 1486.96 1606.87 1477.82 C 1619.14 1474.63 1630.07 1469.61 1640.98 1463.2 z"/>
<path transform="translate(0,0)" fill="rgb(254,254,254)" d="M 1640.28 1543.94 L 1641.06 1544.08 C 1643.63 1549.91 1641.22 1582.32 1640.98 1591.14 C 1625.2 1601.69 1608.9 1607.9 1590.27 1611.55 C 1552.64 1618.93 1490.66 1618.62 1458.26 1596.97 C 1457.54 1596.31 1456.81 1595.66 1456.15 1594.95 C 1451.35 1589.77 1453.75 1555.72 1453.89 1547.49 C 1463.25 1552.25 1472.73 1555.88 1482.94 1558.42 C 1518.16 1567.19 1570.86 1569.61 1606.29 1559.45 C 1618.57 1555.93 1629.39 1550.52 1640.28 1543.94 z"/>
<path transform="translate(0,0)" fill="rgb(19,43,67)" d="M 1816.99 223.439 C 1825.86 222.863 1847.94 221.576 1854.71 227.091 C 1855.98 228.125 1855.62 228.753 1855.73 230.247 C 1851.95 236.512 1845.59 238.613 1839.18 241.375 C 1865.55 235.308 1893.11 232.301 1920.06 235.927 C 1926.95 236.855 1963.56 243.166 1967.52 246.181 C 1968.26 246.748 1968.65 247.674 1969.21 248.421 C 1969.85 252.016 1969.94 253.572 1967.35 256.342 C 1963.51 260.439 1956.93 262.789 1952.41 266.297 C 1939.73 276.144 1928.98 290.504 1920.62 304.071 C 1893.49 348.057 1882.39 399.896 1852.87 442.676 C 1846.53 451.866 1839.52 461.58 1830.26 468.067 C 1792.86 494.291 1712.15 498.129 1666.93 506.37 C 1699.6 511.172 1744.08 507.876 1776.66 501.783 C 1785.34 500.158 1793.52 497.375 1802.08 495.481 C 1805.31 494.767 1807.09 494.941 1809.87 496.678 L 1810.19 498.554 C 1809.07 500.677 1807.83 502.649 1806.38 504.555 C 1799.24 513.894 1791.12 522.334 1783.64 531.375 C 1775.94 540.669 1768.95 551.906 1759.61 559.574 C 1725.46 587.587 1647.57 590.529 1604.87 596.069 C 1629.27 598.388 1654.59 599.685 1679.08 598.577 C 1689.85 598.089 1700.88 597.521 1711.57 596.092 C 1717.84 595.253 1724.41 593.359 1730.69 593.05 C 1733.38 592.917 1734.33 592.808 1736.7 594.022 C 1737.94 597.552 1737.34 599.793 1735.77 603.143 C 1732.21 610.791 1726.74 618.028 1722.25 625.183 C 1710.99 643.114 1699.92 660.249 1687.31 677.328 C 1677.56 690.535 1665.57 709.88 1653.95 720.996 C 1632.59 741.425 1559.55 762.705 1529.68 769.848 C 1516.57 772.984 1502.01 774.19 1489.4 778.778 C 1489.07 778.895 1488.76 779.022 1488.44 779.144 C 1523.83 778.709 1562.44 775.06 1596.68 765.957 C 1608.59 762.788 1619.71 757.301 1631.44 754.195 L 1632.32 755.025 C 1632.21 757.526 1631.75 759.504 1630.83 761.842 C 1616.86 797.22 1573.09 866.022 1544.72 892.68 C 1531.02 905.552 1513.92 916.651 1497.18 925.163 C 1471.28 938.337 1441.96 945.865 1415.13 957.039 C 1440.63 952.646 1468.74 948.908 1492.99 939.597 C 1499.32 937.168 1504.46 933.076 1510.64 930.549 C 1512.62 931.726 1512.32 931.938 1513.12 933.97 C 1511.74 941.073 1482.79 967.855 1475.01 975.027 C 1423.43 1022.56 1377.64 1042.15 1307.16 1039.18 L 1308.14 1055.99 C 1312.1 1093.3 1315.15 1131.3 1323.14 1168.05 C 1325.5 1178.9 1336.95 1211.46 1333.63 1219.26 L 1331.69 1219.92 C 1330.79 1219.64 1330.7 1219.66 1329.77 1219.08 C 1322.17 1214.33 1315.38 1199.22 1310.92 1191.55 C 1278 1134.93 1259.81 1083.08 1251.17 1018.15 C 1238.75 1011.32 1227.6 1001.59 1216.86 992.388 C 1181.77 962.287 1154.05 930.42 1128.34 892.173 C 1121.01 881.277 1111.73 868.1 1107.77 855.503 C 1106.96 852.914 1107.19 851.841 1108.48 849.542 C 1116.4 846.611 1123.95 855.524 1129.88 860.17 C 1153.83 878.923 1182.86 890.702 1212.39 897.045 C 1187.19 867.336 1144.22 820.32 1141.36 780.636 C 1140.43 767.683 1143.03 754.277 1146.08 741.749 C 1156.63 698.331 1178.26 660.901 1203.78 624.782 C 1209.46 616.748 1214.98 608.275 1221.42 600.829 C 1223.7 598.184 1226.24 595.081 1229.86 594.821 C 1235.09 603.607 1238.93 613.195 1243.2 622.472 C 1251.26 639.984 1259.13 657.666 1268.12 674.721 C 1259.98 643.196 1249.74 612.006 1250.88 578.984 C 1251.11 572.217 1252.05 566.529 1255.23 560.428 C 1267.31 537.282 1341.26 450.396 1363.77 430.387 C 1366.2 428.227 1368.31 426.199 1371.65 426.336 C 1373.89 430.326 1372.93 435.849 1373.02 440.445 C 1373.42 462.356 1375.88 492.132 1382.6 512.876 C 1382.71 513.213 1382.83 513.548 1382.94 513.884 C 1383.14 488.164 1385.1 430.65 1395.28 408.745 C 1400.37 397.796 1413.54 388.476 1422.64 380.797 C 1461.34 348.115 1500.19 322.87 1544.5 298.607 C 1561.8 289.134 1580.14 279.136 1598.58 272.13 C 1602.38 270.688 1605.84 269.397 1609.69 271.093 C 1610.83 275.754 1607.14 285.069 1606.26 290.237 C 1604.01 303.545 1602.85 316.629 1602.86 330.123 C 1608.55 310.346 1621.18 278.628 1634.85 263.634 C 1651.18 245.726 1745.43 230.141 1771.21 226.924 C 1786.43 225.025 1801.68 224.165 1816.99 223.439 z"/>
<path transform="translate(0,0)" fill="rgb(254,254,254)" d="M 1719.48 342.908 L 1720.38 343.176 C 1718.21 346.292 1687.38 363.278 1681.13 367.386 A 986.821 986.821 0 0 0 1603.81 423.612 C 1535.51 478.555 1473.98 547.248 1425.47 620.244 C 1391.88 670.775 1362.39 726.249 1341.15 783.134 C 1311.14 863.512 1292.2 964.943 1295.26 1050.99 C 1296.62 1089.29 1302.62 1127.37 1310.14 1164.87 C 1305.75 1157.72 1302.32 1149.88 1298.65 1142.34 C 1242.22 1022.11 1262.07 906.231 1304.53 784.965 C 1361.77 621.508 1485.15 482.189 1630.73 390.86 C 1659.36 372.898 1689.06 357.582 1719.48 342.908 z"/>
<path transform="translate(0,0)" fill="rgb(202,230,231)" d="M 1806.46 236.418 C 1814 235.558 1821.78 236.084 1829.3 236.967 C 1821.29 243.166 1800.27 253.494 1797.53 263.064 C 1801.48 267.867 1813.41 262.182 1818.38 260.496 C 1860.05 246.352 1903.17 243.377 1946.09 254.219 C 1935.36 265.148 1924.49 274.902 1915.62 287.562 C 1882.74 334.528 1873.11 395.169 1838.29 440.665 C 1832.54 448.178 1825.87 455.464 1817.62 460.25 C 1775.58 484.649 1671.11 492.983 1621.83 496.878 C 1610.69 497.759 1598.58 496.954 1587.69 498.713 C 1584.57 499.217 1582.85 499.872 1581.05 502.469 C 1581.61 504.163 1581.34 504.261 1582.99 505.326 C 1589.49 509.511 1602.67 510.337 1610.31 511.686 C 1667.74 521.829 1727.68 524.397 1785.02 512.181 C 1772.52 524.81 1761.74 542.482 1746.73 551.951 C 1702.42 579.899 1597.86 585.204 1545.37 584.966 C 1530.38 584.898 1515.37 582.555 1500.47 582.661 C 1497.36 582.683 1494.48 582.651 1491.87 584.532 C 1492.39 586.261 1491.98 586.071 1493.11 586.9 C 1517.89 605.084 1642.16 611.58 1676.65 610.988 C 1690.27 610.754 1703.6 609.042 1717.03 606.971 C 1707.7 626.88 1658.67 700.307 1642.8 712.616 C 1634 719.44 1622.21 723.776 1612.05 728.217 A 585.103 585.103 0 0 1 1421.64 774.576 C 1414.35 775.048 1386.71 774.072 1381.99 777.887 L 1381.83 780.059 C 1382.86 781.511 1383.84 782.324 1385.44 783.055 C 1392.99 786.506 1404.4 786.971 1412.73 787.999 C 1466.12 794.577 1557.98 794.229 1608.02 775.773 C 1590.3 812.893 1558.8 865.554 1526.95 891.438 C 1496.64 916.067 1438.68 938.02 1400.62 949.049 A 362.937 362.937 0 0 1 1371.06 956.459 C 1359.46 958.782 1345.99 959.417 1335.3 964.631 L 1335.66 968.319 C 1344.77 971.123 1354.84 970.888 1364.3 971.078 C 1406.25 971.923 1437.78 966.199 1478.19 956.355 C 1422.26 1005.94 1383.86 1027.38 1307.04 1030.12 L 1307.07 1028.96 C 1315.04 806.141 1414.21 612.115 1576.38 461.221 C 1630.7 411.964 1690.95 367.598 1756.26 333.965 C 1769.46 327.17 1782.86 321.256 1796.65 315.756 C 1803.48 313.028 1811.43 311.054 1817.77 307.447 C 1820.12 306.115 1822.31 304.349 1823.53 301.908 C 1824.27 300.43 1823.85 300.126 1823.43 298.672 C 1822.52 298.254 1822.02 297.948 1820.93 297.882 C 1813.88 297.462 1788.7 307.276 1780.57 309.914 C 1667.02 346.741 1555.98 421.364 1472.44 505.933 C 1373.7 605.886 1303.94 721.079 1269.98 858.011 C 1257.91 906.671 1250.49 953.744 1250.75 1003.91 C 1206.92 974.317 1161.48 922.548 1133.43 877.91 C 1149.94 887.799 1166.29 897.283 1184.57 903.595 C 1195.02 907.205 1223.12 917.151 1233.13 912.236 C 1235.42 908.948 1235 906.691 1233.2 903.203 C 1227.65 892.453 1216.1 882.349 1208.16 873.108 C 1189.44 851.3 1157.08 809.446 1154.68 779.964 C 1150.65 730.306 1194.5 649.998 1226.98 612.165 C 1236.36 638.628 1248.63 662.54 1262.03 687.148 C 1266.94 696.161 1278.01 719.584 1288.35 722.013 C 1290.11 722.426 1290.37 721.833 1291.82 721.001 C 1292.89 718.677 1292.67 716.971 1292.28 714.529 C 1290.64 704.224 1286.99 693.562 1284.1 683.533 C 1278.15 662.895 1271.89 642.334 1267.77 621.23 C 1264.42 604.077 1262.66 586.943 1263.03 569.452 C 1277.83 545.253 1297.83 523.565 1316.14 501.999 C 1331.24 484.224 1345.73 465.988 1360.77 448.183 A 263.303 263.303 0 0 0 1364.03 482.789 C 1366.36 497.327 1379.26 554.909 1387.56 563.876 C 1389.4 565.859 1389.94 565.777 1392.42 565.679 L 1393.18 564.888 C 1394.31 563.713 1393.93 564.356 1394.45 562.341 C 1396.89 552.977 1394.83 516.171 1395.36 503.444 C 1396.64 472.882 1400.89 442.81 1406.8 412.835 C 1456.09 361.789 1531.11 315.971 1595.91 287.568 C 1592.51 309.015 1588.09 357.055 1592.9 376.927 C 1593.48 379.299 1594.91 380.078 1596.87 381.226 C 1599.56 380.67 1600.35 379.825 1601.54 377.152 C 1604.85 369.648 1605.7 360.495 1608.01 352.559 C 1614.49 330.279 1627.18 292.632 1642.26 275.105 C 1659.9 254.605 1776.28 238.54 1806.46 236.418 z"/>
<path transform="translate(0,0)" fill="rgb(19,43,67)" d="M 417.346 105.502 A 8915.14 8915.14 0 0 1 571.212 105.82 L 776.624 105.653 L 938.929 105.706 C 969.9 105.732 1001.03 104.999 1031.98 106.212 C 1034.5 107.652 1036.95 109.109 1039.12 111.065 C 1044.78 116.18 1046.9 122.855 1047.11 130.33 C 1048.19 166.786 1046.92 203.647 1046.9 240.136 L 1046.78 467.877 L 1047.02 594.398 C 1047.07 615.304 1048.63 637.576 1046.56 658.347 C 1045.94 664.585 1042.89 669.799 1038.57 674.237 C 1034.87 678.029 1030.27 681.753 1024.9 682.609 C 1015.75 684.068 1005.8 683.355 996.552 683.366 L 945.119 683.38 L 742.25 683.438 L 345.954 683.347 L 204.855 683.463 C 184.441 683.443 163.473 684.734 143.121 683.467 C 135.933 683.02 129.271 682.766 123.734 677.666 C 116.108 670.641 113.876 662.289 113.413 652.308 C 111.74 616.236 113.194 579.427 113.208 543.284 L 113.121 340.323 L 113.014 197.8 C 113.003 173.916 111.482 148.807 113.52 125.055 C 114.004 119.413 115.824 113.505 120.142 109.538 C 123.213 106.718 132.925 106.106 137.199 105.863 C 167.765 104.125 199.267 105.76 229.942 105.793 L 417.346 105.502 z"/>
<path transform="translate(0,0)" fill="rgb(254,254,254)" d="M 128.55 119.158 C 188.192 117.745 248.172 118.979 307.853 118.958 L 669.492 119.054 L 911.226 119.107 L 988.758 119.105 C 999.742 119.095 1011.07 118.261 1022 118.866 C 1024.82 119.022 1027.42 120.459 1029.25 122.587 C 1031.95 125.723 1033.03 129.932 1033.54 133.949 C 1035.24 147.525 1033.93 162.701 1033.83 176.434 C 1033.75 186.927 1034.44 197.805 1033.84 208.23 C 1033.68 211.176 1034.08 211.875 1031.89 213.806 L 475.001 213.981 C 358.755 214.042 242.3 215.313 126.076 213.234 C 126.061 198.755 123.852 126.189 128.55 119.158 z"/>
<path transform="translate(0,0)" fill="rgb(19,43,67)" d="M 167.197 140.162 C 172.273 139.62 177.18 139.365 182.001 141.321 A 26.1793 26.1793 0 0 1 196.631 156.575 A 24.7177 24.7177 0 0 1 195.559 176.16 C 192.187 182.941 185.889 187.637 178.834 189.978 C 173.211 190.275 167.401 190.699 162.092 188.485 A 23.4276 23.4276 0 0 1 149.035 174.727 C 146.668 168.205 146.819 160.566 149.825 154.276 C 153.43 146.733 159.547 142.845 167.197 140.162 z"/>
<path transform="translate(0,0)" fill="rgb(254,254,254)" d="M 167.879 149.104 C 170.494 148.827 173.235 148.462 175.851 148.896 C 180.297 149.634 184.386 152.692 186.73 156.492 A 15.7477 15.7477 0 0 1 188.567 168.987 C 186.977 174.853 183.37 177.829 178.364 180.868 C 175.855 181.107 173.217 181.446 170.699 181.246 C 166.323 180.898 162.15 178.163 159.54 174.718 C 156.85 171.169 156.159 166.652 157.065 162.353 C 158.419 155.925 162.62 152.526 167.879 149.104 z"/>
<path transform="translate(0,0)" fill="rgb(19,43,67)" d="M 231.456 139.17 C 236.661 138.884 241.873 139.532 246.593 141.859 C 253.421 145.225 258.911 151.267 260.96 158.674 C 262.759 165.179 261.566 172.094 258.115 177.841 C 253.891 184.874 247.36 188.836 239.587 190.817 C 234.485 191.062 229.231 190.812 224.453 188.846 A 23.9343 23.9343 0 0 1 211.031 174.844 A 26.3137 26.3137 0 0 1 212.035 154.572 C 216.161 146.143 222.866 142.121 231.456 139.17 z"/>
<path transform="translate(0,0)" fill="rgb(254,254,254)" d="M 232.865 148.185 C 234.584 148.35 236.324 148.519 238.014 148.882 C 242.9 149.933 247.91 153.164 250.465 157.507 C 252.598 161.132 252.931 165.343 251.605 169.314 C 249.493 175.639 244.596 178.716 238.864 181.434 C 235.597 181.802 232.252 181.878 229.143 180.661 A 15.0251 15.0251 0 0 1 220.473 171.889 C 218.761 167.366 219.132 162.418 221.145 158.058 C 223.606 152.729 227.568 150.239 232.865 148.185 z"/>
<path transform="translate(0,0)" fill="rgb(19,43,67)" d="M 295.678 139.153 C 301.386 138.888 306.828 139.735 311.865 142.588 A 25.0272 25.0272 0 0 1 323.997 159.024 A 26.2673 26.2673 0 0 1 320.309 179.202 C 315.675 186.253 309.485 189.107 301.514 190.922 C 296.292 191.101 290.683 190.414 285.933 188.141 C 279.713 185.164 275.041 179.913 273.062 173.282 A 25.6186 25.6186 0 0 1 275.375 153.378 C 280.012 145.309 286.994 141.609 295.678 139.153 z"/>
<path transform="translate(0,0)" fill="rgb(254,254,254)" d="M 294.008 148.081 C 296.554 147.957 299.346 147.7 301.843 148.289 C 306.054 149.281 310.323 152.345 312.598 156.015 C 315.077 160.014 315.655 164.689 314.329 169.192 C 312.474 175.493 307.993 178.588 302.398 181.388 C 300.477 181.6 298.45 181.817 296.519 181.683 C 292.354 181.393 287.662 178.846 285.236 175.441 C 282.329 171.36 281.897 166.218 283.033 161.443 C 284.586 154.915 288.503 151.487 294.008 148.081 z"/>
<path transform="translate(0,0)" fill="rgb(19,43,67)" d="M 388.991 147.237 C 433.496 145.585 478.603 147.035 523.162 147.065 L 772.218 147.029 L 902.862 147.155 C 916.294 147.189 942.277 145.519 953.937 147.343 C 956.421 147.732 957.295 148.218 958.665 150.263 C 957.94 152.648 957.294 153.136 955.49 154.914 C 930.29 156.881 904.364 155.708 879.061 155.695 L 742.744 155.569 L 498.432 155.5 C 464.984 155.448 431.322 156.436 397.912 155.697 C 394.533 155.623 391.615 155.864 388.689 154.095 C 387.844 151.166 388.136 150.036 388.991 147.237 z"/>
<path transform="translate(0,0)" fill="rgb(19,43,67)" d="M 390.997 174.435 C 518.295 172.875 645.736 174.007 773.047 174.028 C 794.526 174.032 948.882 172.194 956.143 175.304 C 957.623 175.938 957.601 176.698 958.234 178.043 C 957.392 181.019 957.28 181.054 954.795 182.92 L 500.82 182.925 C 486.311 182.911 395.421 184.215 390.544 182.51 C 388.124 181.663 387.895 180.924 387.134 178.744 C 387.952 176.42 389.004 175.797 390.997 174.435 z"/>
<path transform="translate(0,0)" fill="rgb(254,254,254)" d="M 229.503 223.469 C 307.166 221.423 385.234 223.544 462.95 223.399 L 1033.41 222.698 A 22659 22659 0 0 1 1033.3 515.529 L 1033.19 611.027 C 1033.14 625.662 1034.33 641.655 1032.66 656.142 C 1032.25 659.757 1030.92 663.927 1028.11 666.458 C 1025.13 669.145 1020.94 669.958 1017.08 670.5 C 1006.52 671.982 995.016 671.09 984.308 671.061 L 930.75 671.105 L 150.882 671.295 C 143.245 671.279 134.909 671.701 129.221 665.798 C 126.154 662.617 126.292 654.916 126.098 650.571 C 125.362 634.074 125.949 617.29 125.968 600.768 L 126.012 508.225 L 126.151 223.879 C 160.604 223.544 195.048 224.17 229.503 223.469 z"/>
<path transform="translate(0,0)" fill="rgb(202,230,231)" d="M 255.949 523.526 C 256.954 523.528 258.546 523.505 259.501 523.634 C 262.177 523.993 262.64 524.306 264.174 526.308 C 264.113 529.865 262.777 533.188 261.557 536.491 C 256.016 551.496 248.978 566.025 243.126 580.931 C 237.926 594.176 234.024 607.907 228.224 620.911 C 226.115 622.667 224.697 622.794 222.075 623.209 C 216.436 619.466 212.528 605.034 209.938 598.584 C 207.519 592.435 204.139 585.505 203.291 578.953 C 202.927 576.137 202.769 573.936 204.611 571.676 C 205.589 571.765 205.701 571.708 206.738 572.187 C 214.789 575.902 220.27 592.033 223.381 599.716 C 233.623 574.47 243.782 547.845 255.949 523.526 z"/>
<path transform="translate(0,0)" fill="rgb(202,230,231)" d="M 260.172 402.648 C 263.191 404.144 265.214 404.957 266.716 408.008 C 263.83 418.424 229.867 502.618 226.405 504.98 C 225.276 505.751 224.091 505.052 222.862 504.774 C 215.029 498.695 211 486.269 206.901 477.414 C 204.934 473.372 201.203 467.381 201.085 462.881 C 201.003 459.748 201.344 459.583 203.445 457.496 C 205.187 457.21 206.063 456.741 207.752 457.511 C 215.789 461.172 220.824 477.662 224.182 485.55 L 244.554 436.383 C 249.223 425.212 253.417 412.712 260.172 402.648 z"/>
<path transform="translate(0,0)" fill="rgb(202,230,231)" d="M 260.461 284.373 C 261.43 284.592 263.009 284.899 263.871 285.329 C 266.344 286.562 266.667 287.683 267.413 290.087 C 265.061 300.483 232.925 380.656 228.933 385.453 C 227.42 387.27 226.716 387.811 224.286 387.977 C 218.383 382.095 214.326 371.266 210.5 363.746 C 207.736 358.679 202.165 350.765 202.387 344.899 C 202.459 343.002 203.049 343.03 204.345 341.811 C 205.895 341.484 207.022 340.951 208.586 341.474 C 216.609 344.158 222.166 358.554 225.88 365.78 C 231.734 348.022 250.111 297.327 260.461 284.373 z"/>
<path transform="translate(0,0)" fill="rgb(202,230,231)" d="M 278.943 556.002 L 691.386 556.232 A 3140.12 3140.12 0 0 0 691.533 614.845 L 278.756 615.059 A 2503.02 2503.02 0 0 1 278.943 556.002 z"/>
<path transform="translate(0,0)" fill="rgb(202,230,231)" d="M 278.032 323.985 L 559.953 323.872 C 625.244 323.88 690.798 322.741 756.058 324.781 C 756.851 344 756.333 363.321 756.189 382.554 L 277.931 382.06 L 278.032 323.985 z"/>
<path transform="translate(0,0)" fill="rgb(202,230,231)" d="M 278.075 439.152 C 318.075 440.644 358.465 438.942 398.526 439.352 C 539.624 440.795 680.811 439.571 821.918 439.429 L 822.039 499.836 C 775.676 498.287 729.02 499.254 682.623 499.205 L 409.162 499.152 C 365.658 499.124 322.043 499.88 278.552 499 C 277.24 479.21 278.063 458.994 278.075 439.152 z"/>
<path transform="translate(0,0)" fill="rgb(19,43,67)" d="M 349.445 1079.81 C 348.146 1076.82 346.629 1073.93 345.188 1071.01 C 324.319 1028.61 312.856 981.468 328.9 935.229 C 341.504 898.901 369.014 870.401 403.496 854.021 C 454.073 829.994 499.668 839.767 549.809 857.729 C 562.274 853.39 574.746 848.546 588.099 848.132 C 609.533 847.467 629.892 857.246 645.114 871.888 C 668.894 894.761 679.509 928.704 679.923 961.115 C 680.285 989.436 671.477 1020.06 651.382 1040.81 A 597.903 597.903 0 0 1 654.088 1061.03 C 658.213 1099.66 652.109 1140.69 626.93 1171.55 C 607.422 1195.47 573.772 1204.57 544.342 1207.63 C 552.81 1214.97 561.209 1222.75 570.135 1229.5 C 585.776 1241.34 601.236 1250.31 614.389 1265.36 C 656.488 1313.54 679.315 1391.98 700.437 1451.39 C 706.983 1469.8 717.38 1504.14 727.433 1519.48 C 730.654 1524.4 735.583 1528.41 739.347 1532.93 C 744.248 1538.83 742.167 1541.52 741.526 1548.32 C 783.69 1609.05 831.721 1650.7 895.342 1687.58 C 915.377 1678.34 937.201 1670.36 958.18 1663.53 C 970.248 1627.31 978.528 1589.9 990.946 1553.8 C 1001.99 1549.94 1013.66 1547.16 1024.86 1543.65 A 6974.95 6974.95 0 0 1 1119.01 1514.56 L 1299.37 1458.11 C 1333.12 1447.61 1367.58 1438.56 1400.71 1426.19 C 1407.68 1428 1415.28 1429.62 1420.68 1434.64 C 1421.58 1436.97 1421.05 1438.74 1420.51 1441.08 C 1416.74 1457.38 1410.2 1473.68 1405.39 1489.76 A 4783.35 4783.35 0 0 0 1375.71 1593.85 L 1341.32 1720.41 C 1333.93 1748.44 1328.14 1778.69 1317.06 1805.47 C 1304.46 1812.81 1287.51 1816.33 1273.6 1820.66 L 1208.2 1841.15 L 1004.58 1905.29 C 972.009 1915.58 939.285 1925.26 906.954 1936.31 C 848.299 1927.14 790.298 1914 731.999 1902.97 C 703.263 1897.54 525.609 1866.66 513.197 1859.17 C 511.817 1851.82 511.817 1839.6 515.217 1832.91 C 522.358 1829.05 530.829 1827.21 538.552 1824.67 C 555.856 1818.99 573.059 1813.19 590.747 1808.8 C 585.34 1805.48 580.105 1802.23 574.223 1799.8 C 548.136 1803.78 522.776 1805.46 496.413 1805.51 C 482.402 1805.54 465.847 1802.15 452.256 1804.99 C 427.125 1810.26 401.952 1818.94 377.204 1825.93 C 340.279 1836.37 303.135 1845.92 266.261 1856.57 C 252.564 1860.53 214.306 1873.57 202.914 1874.15 C 200.274 1874.29 199.312 1873.96 197.398 1872.22 L 197.5 1869.76 C 202.641 1864.21 257.183 1850.22 268.722 1846.29 C 246.619 1802.54 245.139 1765.8 240.153 1718.31 C 236.057 1714.23 232.123 1710.03 228.832 1705.27 C 190.56 1649.9 198.416 1494.42 210.672 1429.53 C 225.489 1351.08 249.784 1267.13 319.317 1219.65 C 316.464 1216.92 313.765 1214.05 311.054 1211.18 L 303.876 1212.91 C 304.459 1214.38 304.685 1215.8 304.983 1217.36 L 303.679 1218.75 C 301.786 1218.65 300.61 1218.25 299.119 1217.11 C 283.841 1205.52 276.169 1183.67 273.755 1165.48 C 271.147 1145.84 275.765 1125.74 288.072 1110 C 303.08 1090.81 326.031 1082.52 349.445 1079.81 z"/>
<path transform="translate(0,0)" fill="rgb(254,254,254)" d="M 725.681 1780.78 C 732.771 1784.34 748.375 1803.39 753.382 1810.4 L 752.958 1811.46 L 751.539 1811.26 C 740.769 1803.18 730.455 1794.51 720.054 1785.97 C 721.762 1784.11 723.804 1782.47 725.681 1780.78 z"/>
<path transform="translate(0,0)" fill="rgb(254,254,254)" d="M 954.005 1674.06 C 954.082 1674.61 954.21 1675.16 954.237 1675.72 C 954.371 1678.42 953.436 1681.66 951.327 1683.38 C 943.622 1689.66 917.833 1693.35 907.753 1692.52 L 907.554 1691.9 C 912.564 1687.71 945.641 1677.3 954.005 1674.06 z"/>
<path transform="translate(0,0)" fill="rgb(254,254,254)" d="M 810.34 1720.95 C 812.967 1720.55 825.723 1725.43 830.112 1726.12 C 802.653 1733.8 775.61 1743 748.159 1750.79 C 744.095 1752.04 739.6 1754.53 735.315 1753.72 C 732.582 1751.59 732.107 1748.41 731.168 1745.24 C 757.616 1737.33 784.649 1731.2 810.34 1720.95 z"/>
<path transform="translate(0,0)" fill="rgb(254,254,254)" d="M 704.597 1517.24 A 85.5714 85.5714 0 0 1 707.235 1516.94 C 711.039 1516.56 714.556 1516.49 717.666 1518.99 C 717.508 1521.37 716.923 1521.89 714.749 1523 C 705.091 1527.93 694.939 1532.01 685.594 1537.54 C 664.047 1550.31 641.816 1571.18 628.624 1592.55 L 623.755 1602.28 C 624.1 1592.26 624.634 1581.55 623.281 1571.62 C 643.733 1543.88 670.508 1523.87 704.597 1517.24 z"/>
<path transform="translate(0,0)" fill="rgb(48,82,107)" d="M 570.75 1608.27 C 566.46 1603.75 555.838 1594.02 555.334 1587.72 C 556.062 1585.02 556.468 1583.9 558.628 1582.08 C 562.434 1581.65 564.588 1582.39 567.603 1584.76 C 576.903 1592.1 594.455 1612.78 600.993 1622.89 C 603.811 1624 608.273 1630.68 610.407 1633.2 C 620.443 1645.03 630.368 1657.21 640.633 1668.8 C 646.153 1675.04 653.057 1680.71 657.494 1687.77 L 657.143 1688.99 C 655.471 1688.51 656.004 1688.89 654.798 1687.71 C 653.064 1686.01 651.931 1684.39 649.555 1683.58 C 646.63 1684.92 643.959 1685.97 641.714 1688.37 L 642.082 1691.23 L 640.968 1692.1 C 637.151 1689.34 634.286 1683.87 631.475 1679.99 C 613.128 1654.73 590.422 1632.54 570.75 1608.27 z"/>
<path transform="translate(0,0)" fill="url(#Gradient1)" d="M 339.634 1596.07 C 341.738 1595.83 340.63 1595.75 342.935 1596.54 C 343.231 1597.44 343.841 1599.16 343.927 1600.06 C 344.109 1601.97 343.515 1603.61 341.86 1604.62 C 338.536 1606.66 332.202 1608 328.394 1609.68 C 316.85 1614.77 306.066 1621.69 296.172 1629.49 C 280.826 1641.6 266.011 1657.07 255.628 1673.7 C 251.188 1680.8 244.626 1698.31 239.664 1702.59 L 238.308 1701.51 C 234.641 1695.95 231.577 1690.44 228.714 1684.42 C 235.13 1673.47 241.536 1662.5 249.602 1652.65 C 271.977 1625.32 305.806 1605.28 339.634 1596.07 z"/>
<path transform="translate(0,0)" fill="rgb(254,254,254)" d="M 341.905 1613.98 C 342.846 1613.89 343.629 1614.16 344.54 1614.38 C 346.678 1618.32 346.781 1623.52 347.338 1627.94 C 318.506 1639.78 291.18 1666.41 273.908 1691.9 C 267.924 1700.74 263.565 1710.61 257.568 1719.33 L 256.066 1719.13 C 252.897 1716.98 249.96 1714.4 246.984 1711.99 A 97.6552 97.6552 0 0 1 251.068 1701.56 C 268.303 1663.28 302.376 1628.83 341.905 1613.98 z"/>
<path transform="translate(0,0)" fill="rgb(254,254,254)" d="M 721.886 1530.03 C 726.059 1530.38 730.583 1536.2 733.52 1539.1 C 702.345 1555.63 665.876 1574.53 649.854 1607.97 C 646.214 1615.57 647.937 1625.69 644.178 1632.59 L 642.461 1631.81 C 636.176 1627.22 630.919 1621.53 625.637 1615.86 C 626.643 1613.36 627.672 1610.86 628.858 1608.44 C 646.516 1572.43 684.528 1542.98 721.886 1530.03 z"/>
<path transform="translate(0,0)" fill="rgb(254,254,254)" d="M 532.065 1210.8 C 544.184 1216.84 555.791 1228.99 563.817 1239.7 C 572.184 1250.87 604.989 1305.58 603.189 1317.91 C 600.804 1315.04 598.219 1313.09 594.979 1311.28 C 580.17 1303.01 564.452 1300.87 548.128 1305.39 C 547.51 1289.01 546.189 1272.73 542.507 1256.71 C 538.994 1241.43 533.466 1226.49 532.065 1210.8 z"/>
<path transform="translate(0,0)" fill="rgb(254,254,254)" d="M 521.21 1843.51 C 546.183 1847.66 571.107 1853.32 595.982 1858.12 L 792.2 1896.81 C 809.927 1900.3 893.116 1913.53 902.925 1919.03 C 904.184 1922.01 903.605 1923.62 903.196 1926.78 C 899.867 1927.28 532.854 1857.66 522.587 1852.74 C 520.632 1849.62 521.211 1847.14 521.21 1843.51 z"/>
<path transform="translate(0,0)" fill="rgb(254,254,254)" d="M 1402.81 1435.2 C 1405.69 1435.52 1409.06 1435.93 1411.17 1438.05 C 1409.44 1440 1408.13 1440.06 1405.66 1440.84 C 1375.92 1450.33 1345.58 1458.37 1315.71 1467.5 L 1063.22 1545.48 C 1044.62 1551.23 1023.78 1555.37 1005.99 1562.68 C 1003.73 1565.24 1002.57 1569.15 1001.56 1572.39 C 988.212 1615.64 978.147 1659.93 965.609 1703.4 L 930.747 1825.01 C 922.321 1854.09 913.373 1882.94 906.192 1912.37 L 905.025 1913.97 C 903.099 1913.13 902.336 1912.27 901.048 1910.63 C 900.431 1907.51 900.63 1904.97 901.288 1901.86 C 903.744 1890.22 909.272 1875.55 912.439 1863.16 C 920.333 1832.28 927.925 1801.24 936.385 1770.51 C 941.552 1751.74 947.547 1733.2 952.918 1714.48 L 977.401 1630.15 C 983.998 1606.87 989.901 1582.87 998.648 1560.29 A 14930 14930 0 0 0 1165.86 1508.32 L 1402.81 1435.2 z"/>
<path transform="translate(0,0)" fill="rgb(254,254,254)" d="M 657.143 1619.4 C 663.249 1623.23 676.355 1643.55 684.242 1650.79 C 712.493 1676.75 762.618 1702.4 799.099 1716.12 C 782.07 1721.23 765.306 1727.26 748.082 1731.71 L 729.431 1737.6 C 725.133 1726.61 720.663 1715.65 713.042 1706.48 C 702.353 1693.63 686.66 1688.1 670.477 1686.69 C 659.812 1675.4 632.706 1648.3 626.807 1635.81 C 625.738 1633.54 625.283 1632.34 626.085 1629.89 L 627.422 1630.17 C 632.086 1634.51 637.698 1639.5 643.434 1642.3 C 646.305 1643.7 648.153 1643.84 651.132 1642.82 C 654.406 1639.53 655.01 1635.92 655.366 1631.45 C 655.693 1627.33 656.363 1623.44 657.143 1619.4 z"/>
<path transform="translate(0,0)" fill="rgb(254,254,254)" d="M 407.301 1191.94 L 408.803 1192.97 C 409.445 1206.39 400.281 1215.17 403.727 1232.37 C 410.774 1267.53 444.574 1293.34 472.462 1312.61 C 449.604 1316.14 432.652 1327.3 417.382 1344.22 C 409.965 1353.49 404.443 1363.75 398.772 1374.12 C 380.868 1330.51 366.919 1274.53 378.98 1227.98 C 383.542 1210.38 391.779 1201.05 407.301 1191.94 z"/>
<path transform="translate(0,0)" fill="rgb(149,155,163)" d="M 303.876 1212.91 C 303.237 1212.32 302.991 1212.14 302.39 1211.38 C 289.028 1194.47 279.634 1172.13 281.356 1150.3 A 62.8492 62.8492 0 0 1 304.192 1106.7 C 315.039 1097.64 334.48 1088.07 348.787 1089.46 C 351.709 1091.56 352.374 1095.4 354.063 1098.46 C 360.395 1109.91 372.467 1118.16 384.978 1121.43 C 391.18 1123.05 395.354 1123.78 401.018 1120.36 C 401.538 1120.04 402.049 1119.71 402.565 1119.39 C 402.78 1126.96 407.358 1178.65 406.465 1180.77 C 405.411 1183.27 404.856 1183.31 402.481 1184.15 C 387.179 1179.73 388.12 1140.41 382.265 1133.19 L 380.602 1133.17 C 378.262 1135.67 377.163 1139.08 376.717 1142.43 C 374.478 1159.25 383.838 1176.68 393.773 1189.32 C 388.325 1192.01 382.768 1194.13 377.079 1196.24 A 134.254 134.254 0 0 1 372.99 1188.13 C 365.523 1172.39 363.933 1157.21 369.351 1140.39 C 370.409 1137.1 372.363 1134.21 373.539 1130.92 L 372.748 1129.46 C 370.255 1128.59 369.102 1128.34 366.515 1128.95 C 361.228 1132.82 359.664 1138.95 357.828 1144.99 C 352.364 1162.93 358.264 1183.24 366.672 1199.18 L 356.384 1202.56 C 342.802 1186.37 335.11 1160.1 345.518 1140.29 C 349.022 1133.61 360.136 1125.51 360.264 1117.98 C 358.591 1116.45 357.76 1115.85 355.294 1115.92 C 352.935 1115.98 350.694 1117.58 349.014 1119.11 C 338.798 1128.44 331.767 1145.51 330.927 1159.09 C 329.807 1177.18 336.299 1191.66 348.087 1205.04 L 328.561 1214.07 C 316.287 1204.71 306.529 1191.02 302.63 1176 C 296.605 1152.8 305.339 1125.8 325.302 1111.88 C 332.831 1106.63 347.956 1103.28 352.579 1095.46 L 351.369 1092.65 C 349.939 1091.89 348.877 1091.47 347.204 1091.37 C 340.923 1090.98 322.708 1102.01 317.318 1106.29 C 302.804 1117.81 293.225 1134.33 291.251 1152.82 C 288.86 1175.22 297.388 1194 311.054 1211.18 L 303.876 1212.91 z"/>
<path transform="translate(0,0)" fill="rgb(254,254,254)" d="M 845.31 1731.15 C 868.78 1729.78 889.067 1744.17 909.128 1753.75 C 916.07 1757.07 923.328 1759.56 930.612 1762 L 923.066 1787.52 C 906.277 1785.4 874.464 1774.12 860.441 1776.15 C 846.08 1778.24 830.478 1785.55 816.734 1790.45 L 763.859 1808.81 C 756.556 1800.63 738.799 1781.99 735.241 1772.74 C 735.321 1768.76 737.015 1765.82 738.736 1762.29 C 774.306 1752.08 809.524 1740.57 845.31 1731.15 z"/>
<path transform="translate(0,0)" fill="rgb(202,230,231)" d="M 250.202 1726.58 C 260.526 1732.14 275.985 1746.86 287.837 1754.28 C 330.803 1781.21 379.873 1795.22 429.915 1801.01 C 419.069 1804.91 407.725 1807.58 396.596 1810.57 A 8984.17 8984.17 0 0 1 277.355 1843.95 C 256.117 1805.56 253.549 1769.06 250.202 1726.58 z"/>
<path transform="translate(0,0)" fill="rgb(202,230,231)" d="M 861.804 1784.18 C 881.401 1786.15 901.253 1792.05 920.766 1795.36 A 2294.6 2294.6 0 0 0 913.397 1824.33 C 887.388 1832.1 861.695 1841.08 835.859 1849.41 C 824.641 1853.03 810.9 1859.19 799.17 1859.79 C 790.116 1860.26 780.112 1857.13 771.279 1855.21 A 1306.42 1306.42 0 0 0 706.94 1842.13 C 745.012 1825.33 783.205 1810.26 822.627 1796.96 C 835.602 1792.59 848.6 1787.79 861.804 1784.18 z"/>
<path transform="translate(0,0)" fill="rgb(254,254,254)" d="M 413.107 1133.85 C 420.362 1142.62 426.395 1152.41 433.844 1161.02 C 457.214 1188.04 488.263 1201.78 522.719 1208.23 C 527.442 1255.32 549.959 1295.21 529.879 1342.64 C 526.827 1342.22 510.407 1324.05 505.092 1320.29 C 497.583 1314.97 488.987 1310.81 481.062 1306.12 C 466.868 1297.73 453.022 1287.61 440.954 1276.36 C 427.302 1263.64 408.367 1238.58 412.514 1218.41 C 414.297 1209.73 419.181 1203.2 419.04 1193.98 C 418.735 1173.96 413.843 1153.94 413.107 1133.85 z"/>
<path transform="translate(0,0)" fill="rgb(254,254,254)" d="M 704.785 1784.67 C 709.758 1786.62 737.129 1811.68 744.343 1817.33 C 735.065 1820.97 695.646 1834.5 690.96 1840.89 C 691.185 1843.52 691.548 1844.93 692.904 1847.19 C 708.812 1852.65 727.45 1854.94 744.024 1858.36 C 760.145 1861.68 780.066 1867.73 796.266 1868.02 C 813.088 1868.33 888.598 1840.7 911.196 1834.22 A 3724.01 3724.01 0 0 1 890.667 1906.57 C 873.525 1901.76 855.29 1899.15 837.779 1895.97 C 763.427 1883.12 689.572 1867.4 615.498 1853.06 C 587.992 1847.73 560.465 1841.4 532.781 1837.16 C 549.927 1829.18 581.463 1816.66 599.561 1816.14 C 605.656 1815.97 611.67 1819.46 617.858 1819.54 C 626.424 1819.65 635.765 1816.62 643.989 1814.46 C 670.751 1807.46 683.991 1803.79 704.785 1784.67 z"/>
<path transform="translate(0,0)" fill="rgb(202,230,231)" d="M 581.132 1247.52 C 587.798 1250.96 593.885 1256.94 599.174 1262.23 C 655.467 1318.46 680.757 1433.79 711.612 1507.66 C 685.926 1509.26 664.76 1520.74 644.641 1536 C 636.575 1542.47 629.553 1549.56 623.006 1557.56 C 623.231 1538.73 621.672 1519.73 620.571 1500.93 C 616.985 1439.67 610.313 1378.85 592.761 1319.88 C 597.853 1326.19 603.025 1333.34 609.452 1338.35 C 611.964 1340.3 613.715 1341.27 616.895 1340.89 C 617.554 1339.92 617.671 1339.88 618.049 1338.58 C 622.318 1323.91 589.063 1261.27 581.132 1247.52 z"/>
<path transform="translate(0,0)" fill="rgb(254,254,254)" d="M 730.7 1550.95 C 731.464 1551.12 732.391 1550.97 732.991 1551.47 C 737.125 1554.95 744.497 1567.92 748.439 1573.1 A 429.739 429.739 0 0 0 866.008 1680.92 C 904.462 1704.77 905.931 1704.31 949.258 1694.14 L 932.937 1753.02 C 921.998 1749.08 911.668 1744.51 901.496 1738.86 C 879.037 1724.88 855.759 1724.45 831.091 1717.54 C 777.016 1702.39 688.439 1655.07 660.932 1606.03 C 679.384 1581.58 702.993 1563.76 730.7 1550.95 z"/>
<path transform="translate(0,0)" fill="rgb(202,230,231)" d="M 516.226 1342.22 C 519.419 1346.53 525.752 1357.46 530.979 1358.39 C 540.334 1351.93 543.923 1325.66 550.582 1315.41 C 558.239 1310.68 569.645 1312.71 578.185 1313.68 C 591.865 1334.85 595.549 1365.11 599.39 1389.66 A 1081.97 1081.97 0 0 1 610.74 1484.89 C 614.093 1532.17 614.661 1579.61 618.348 1626.87 C 606.966 1614.98 579 1577.85 565.347 1573.89 C 561.608 1572.8 557.59 1572.98 554.203 1575.03 C 550.988 1576.97 548.054 1580.65 547.148 1584.32 C 543.971 1597.2 561.165 1608 566.733 1617.88 C 566.869 1618.13 566.994 1618.37 567.124 1618.62 C 570.722 1622.95 573.516 1628.03 577.178 1632.43 C 594.364 1653.04 612.754 1672.78 627.856 1695.03 C 600.745 1707.22 577.328 1721.58 546.816 1723.15 C 543.493 1694.21 544.485 1663.94 543.306 1634.78 C 542.589 1617.04 540.533 1599.37 539.055 1581.68 C 537.713 1565.62 536.932 1549.51 535.451 1533.46 C 530.59 1480.76 523.794 1428.23 519.228 1375.47 C 518.743 1369.87 518.57 1364.15 517.678 1358.6 C 516.772 1352.97 514.656 1347.09 514.605 1341.41 L 516.226 1342.22 z"/>
<path transform="translate(0,0)" fill="rgb(19,43,67)" d="M 554.764 1634.69 C 553.425 1631.88 551.741 1627.53 552.312 1624.34 C 552.767 1621.79 553.8 1619.87 556.036 1618.55 C 559.816 1616.33 563.235 1617.43 567.124 1618.62 C 568.034 1623.01 569.315 1628.42 567.309 1632.7 C 566.27 1634.92 565.112 1636.37 562.616 1636.92 C 559.775 1637.54 557.144 1635.99 554.764 1634.69 z"/>
<path transform="translate(0,0)" fill="rgb(19,43,67)" d="M 562.674 1678.1 C 564.268 1677.97 565.948 1677.78 567.544 1677.86 C 571.075 1678.04 574.102 1679.32 576.36 1682.1 C 577.983 1684.1 578.638 1686.57 578.189 1689.12 C 577.438 1693.36 574.836 1695.48 571.59 1697.89 C 569.961 1698.01 568.333 1698.12 566.7 1697.99 C 563.82 1697.76 561.336 1696.08 559.528 1693.9 C 557.732 1691.73 557.143 1689.17 557.418 1686.43 C 557.811 1682.5 559.892 1680.57 562.674 1678.1 z"/>
<path transform="translate(0,0)" fill="rgb(19,43,67)" d="M 538.676 1414.87 C 540.568 1414.8 542.605 1414.69 544.479 1415.01 C 547.393 1415.52 549.755 1417.35 551.509 1419.68 C 553.524 1422.34 554.161 1425.4 553.564 1428.66 C 552.817 1432.74 550.606 1434.36 547.447 1436.68 C 543.067 1436.32 539.2 1436.17 535.885 1432.95 C 533.567 1430.7 532.686 1428.38 532.776 1425.19 C 532.901 1420.75 535.711 1417.81 538.676 1414.87 z"/>
<path transform="translate(0,0)" fill="rgb(19,43,67)" d="M 552.892 1501.65 C 554.005 1501.62 555.121 1501.59 556.234 1501.66 C 559.881 1501.88 563.406 1504.02 565.651 1506.87 C 567.626 1509.37 568.376 1512.51 567.882 1515.64 C 567.19 1520.02 564.434 1521.84 561.048 1524.18 C 560.539 1524.28 560.034 1524.4 559.521 1524.47 C 556.124 1524.93 552.674 1524.22 550.072 1521.85 C 547.633 1519.62 546.63 1516.52 546.702 1513.29 C 546.823 1507.85 549.013 1505.19 552.892 1501.65 z"/>
<path transform="translate(0,0)" fill="rgb(254,254,254)" d="M 346.534 1637.9 L 348.321 1638.71 C 351.379 1654.15 357.205 1669.71 367.933 1681.51 C 406.248 1723.62 518.231 1742.74 573.108 1728.72 C 605.041 1720.56 635.593 1695.04 669.455 1697.35 C 684.351 1698.36 697.204 1705.48 706.91 1716.62 C 716.215 1727.29 727.667 1755.55 726.586 1769.92 L 725.576 1769.52 C 720.335 1753.29 707.055 1741.53 693.155 1732.41 C 687.772 1728.88 669.883 1717.25 663.362 1718.61 L 661.891 1720.88 C 667.736 1731.25 684.99 1738.05 694.559 1745.11 C 703.312 1751.57 715.032 1762.93 716.714 1774 C 715.916 1776.67 715.845 1776.83 713.652 1778.53 C 709.779 1777.87 702.268 1770.21 698.61 1767.56 C 687.133 1759.27 674.026 1752.41 661.289 1746.27 C 658.356 1745.26 655.477 1743.87 652.334 1744.42 C 651.129 1746.75 651.139 1748.01 651.34 1750.6 C 654.72 1754.78 664.754 1758.12 669.765 1760.72 C 679.08 1765.56 687.687 1771.78 696.326 1777.71 C 666.378 1808.71 657.14 1774.32 636.384 1778.95 C 634.406 1781.03 634.206 1780.89 634.146 1783.72 C 639.327 1791.04 654.1 1794.07 662.334 1796.75 C 650.691 1799.6 640.041 1805.13 628.625 1808.62 C 609.404 1814.5 593.477 1798.96 577.408 1790.61 C 559.573 1791.38 541.894 1795.36 523.883 1796.08 C 427.749 1799.91 343.672 1783.19 264.43 1726.71 C 275.521 1690.12 314.091 1656.18 346.534 1637.9 z"/>
<path transform="translate(0,0)" fill="rgb(149,155,163)" d="M 351.765 1063.21 C 333.016 1030.92 325.062 984.966 334.352 948.555 A 132.916 132.916 0 0 1 395.796 867.696 C 429.025 848.166 469.016 845.681 506.161 853.338 C 521.497 856.5 536.528 861.485 551.677 865.466 C 560.04 862.897 568.514 859.946 577.15 858.479 C 595.247 855.406 613.555 860.416 628.383 871.036 C 651.042 887.265 664.16 913.426 668.581 940.479 C 673.766 972.208 669.35 1001.84 650.38 1028.2 C 647.705 997.319 653.569 978.596 642.779 947.283 C 637.488 931.929 625.892 909.648 610.121 902.658 C 603.127 899.558 594.062 900.126 587.94 904.901 C 578.242 912.466 571.658 926.66 565.286 936.979 C 544.761 970.218 511.166 994.286 474.746 1007.66 C 474.419 1007.78 474.091 1007.89 473.763 1008.01 L 471.836 1005.31 C 460.372 1014.73 438.065 1030.13 422.748 1029.52 C 420.624 1028.41 419.849 1028.1 419.185 1025.58 C 419.004 1024.89 419.071 1024.04 419.093 1023.33 C 420.088 1019.86 421.616 1016.81 420.609 1013.28 L 405.021 1029.51 C 404.846 1039.87 404.522 1050.26 404.563 1060.62 A 146.654 146.654 0 0 0 401.183 1057.8 C 393.478 1051.57 383.696 1046.58 373.508 1048.01 C 363.563 1049.42 357.645 1055.77 351.765 1063.21 z"/>
<path transform="translate(0,0)" fill="rgb(19,43,67)" d="M 471.837 880.847 C 472.353 880.872 472.872 880.856 473.384 880.921 C 476.292 881.289 476.816 881.464 478.646 883.571 C 477.438 888.859 454.625 899.688 448.226 904.346 C 421.066 924.116 402.389 958.166 395.303 990.502 C 392.821 1001.83 392.281 1013.38 390.521 1024.82 C 389.638 1024.88 387.777 1025.06 386.939 1024.92 C 384.77 1024.57 383.797 1022.96 383.091 1021.05 C 378.967 1009.93 389.885 975.134 394.297 963.715 C 408.74 926.333 434.987 897.054 471.837 880.847 z"/>
<path transform="translate(0,0)" fill="rgb(19,43,67)" d="M 405.021 1029.51 C 403.483 1030.26 402.36 1030.56 400.711 1030.92 L 398.803 1029.55 C 398.813 1029.16 398.783 1028.78 398.834 1028.4 C 400.049 1019.48 470.854 937.373 482.031 925.173 A 236.544 236.544 0 0 1 501.12 906.752 C 505.005 903.425 511.495 897.932 516.836 898.748 C 518.499 899.003 518.39 899.668 519.165 900.973 C 519.104 901.417 519.082 901.868 518.984 902.304 C 518.598 904.014 517.946 905.305 516.747 906.584 C 513.987 909.524 509.705 911.693 506.404 914.117 C 501.012 918.078 496.263 922.385 491.683 927.262 C 480.301 939.383 470.18 952.92 459.589 965.747 C 446.577 981.506 432.962 997.024 420.609 1013.28 L 405.021 1029.51 z"/>
<path transform="translate(0,0)" fill="rgb(19,43,67)" d="M 419.093 1023.33 C 428.651 1017.98 438.961 1013.96 448.521 1008.53 C 470.758 995.916 490.644 978.176 508.251 959.709 C 512.915 954.817 517.544 949.775 521.661 944.409 C 528.131 935.976 540.127 913.689 548.939 909.277 C 551.033 908.228 551.345 908.486 553.393 909.258 L 554.005 911.648 C 552.312 917.791 547.567 923.58 544.088 928.86 A 311.987 311.987 0 0 1 490.257 990.314 C 484.319 995.543 477.833 1000.12 471.836 1005.31 C 460.372 1014.73 438.065 1030.13 422.748 1029.52 C 420.624 1028.41 419.849 1028.1 419.185 1025.58 C 419.004 1024.89 419.071 1024.04 419.093 1023.33 z"/>
<path transform="translate(0,0)" fill="rgb(254,254,254)" d="M 473.763 1008.01 C 473.522 1008.51 473.273 1009.01 473.04 1009.52 C 472.193 1011.37 472.133 1012.81 472.168 1014.83 C 473.152 1016.04 473.274 1016.76 474.939 1017.01 C 484.287 1018.44 497.002 1007.75 506.158 1005.63 C 511.777 1004.34 517.479 1006.36 523.192 1004.47 C 524.891 1002.5 524.964 1002.45 525.123 999.869 C 523.618 998.118 522.747 997.154 521.774 995.029 C 528.863 987.113 538.708 980.96 546.8 973.982 C 562.187 960.714 571.863 944.114 582.261 926.927 C 586.621 919.72 589.816 911.22 599.285 910.658 C 604.765 910.333 609.703 913.392 613.505 917.058 C 641.368 943.923 638.561 993.448 641.509 1028.98 C 643.065 1047.72 646.038 1066.51 645.856 1085.34 C 645.564 1115.4 637.706 1148.77 615.262 1170.33 C 594.2 1190.56 560.367 1199.01 531.859 1198.32 C 499.147 1197.53 466.636 1182.39 444.294 1158.68 A 148.155 148.155 0 0 1 422.496 1129.31 C 420.19 1125.21 418.279 1119.07 415.439 1115.53 C 413.638 1113.28 413.049 1113.32 410.399 1113.08 C 407.17 1114.28 405.218 1116.06 402.695 1118.35 C 387.748 1115.15 371.698 1108.66 362.79 1095.53 C 358.059 1088.56 355.53 1079.77 357.387 1071.4 C 358.504 1066.37 361.376 1061.69 365.925 1059.1 C 371.366 1056 378.046 1056.37 383.839 1058.19 C 390.073 1060.14 399.37 1068.43 405.557 1066.17 C 405.93 1063.83 405.51 1062.77 404.563 1060.62 C 404.522 1050.26 404.846 1039.87 405.021 1029.51 L 420.609 1013.28 C 421.616 1016.81 420.088 1019.86 419.093 1023.33 C 419.071 1024.04 419.004 1024.89 419.185 1025.58 C 419.849 1028.1 420.624 1028.41 422.748 1029.52 C 438.065 1030.13 460.372 1014.73 471.836 1005.31 L 473.763 1008.01 z"/>
<path transform="translate(0,0)" fill="rgb(19,43,67)" d="M 607.508 982.234 C 611.264 981.962 614.979 981.837 618.736 982.216 C 622.642 982.609 628.266 983.828 630.462 987.499 C 632.103 990.243 631.184 993.122 630.235 995.861 C 628.119 996.735 618.979 992.011 615.95 991.154 L 614.734 990.821 C 607.104 990.987 601.495 994.235 594.286 995.257 C 591.613 995.636 590.522 995.08 588.529 993.436 C 588.352 991.404 588.375 990.406 589.693 988.626 C 592.947 984.233 602.392 983.218 607.508 982.234 z"/>
<path transform="translate(0,0)" fill="rgb(19,43,67)" d="M 378.252 1075.2 C 384.135 1075.38 394.136 1076.76 398.824 1080.4 C 400.238 1081.5 401.279 1083.15 401.274 1084.97 C 401.26 1089.43 398.18 1092.31 395.282 1095.28 C 393.818 1095.75 391.974 1096.48 390.441 1096.54 C 387.057 1096.66 384.161 1095.01 381.672 1092.89 C 378.302 1090.03 375.354 1085.96 375.346 1081.34 C 375.34 1078.32 376.247 1077.29 378.252 1075.2 z"/>
<path transform="translate(0,0)" fill="rgb(19,43,67)" d="M 616.637 1033.05 C 617.959 1033.29 619.284 1033.54 620.581 1033.9 C 623.642 1034.74 625.716 1036.7 627.17 1039.5 C 629.03 1043.08 629.011 1046.99 627.78 1050.76 C 626.022 1056.16 623.361 1058.3 618.456 1060.9 C 617.961 1060.78 617.464 1060.68 616.97 1060.55 C 612.963 1059.57 610.322 1058.29 608.211 1054.59 C 606.278 1051.2 605.984 1047.25 607.148 1043.55 C 608.784 1038.34 611.987 1035.57 616.637 1033.05 z"/>
<path transform="translate(0,0)" fill="rgb(19,43,67)" d="M 504.957 1036.95 C 505.382 1036.94 505.808 1036.91 506.234 1036.92 C 510.297 1036.94 513.964 1037.66 516.885 1040.71 A 14.8023 14.8023 0 0 1 520.822 1052.44 C 520.217 1058.46 518.013 1062.1 513.453 1065.91 C 511.545 1066 509.323 1066.24 507.44 1065.96 C 503.983 1065.43 501.088 1062.72 499.311 1059.84 C 496.675 1055.56 496.231 1050.8 497.673 1046.02 C 499.025 1041.53 500.922 1039.26 504.957 1036.95 z"/>
<path transform="translate(0,0)" fill="rgb(19,43,67)" d="M 572.742 1036.2 C 574.75 1036.37 576.217 1036.34 577.99 1037.4 C 582.287 1039.95 582.289 1067.74 583.533 1074.28 C 588.836 1079.51 596.155 1083.05 602.012 1087.84 C 604.12 1093.25 605.616 1098.04 603.347 1103.71 C 600.194 1111.6 592.129 1114.78 584.862 1117.76 C 582.842 1136.12 579.749 1159.85 565.085 1172.9 C 559.818 1177.58 553.088 1180.28 545.986 1179.76 C 533.344 1178.82 523.818 1169.01 516.232 1159.79 C 516.028 1159.52 515.817 1159.25 515.619 1158.97 C 506.58 1146.1 496.719 1123.34 499.451 1107.41 C 500.349 1106.26 500.211 1105.6 501.769 1105.78 C 510.499 1106.75 518.896 1110.38 527.43 1112.42 C 544.437 1116.48 570.33 1116.33 586.26 1108.75 C 589.753 1107.09 594.147 1103.7 594.86 1099.61 C 595.943 1093.38 581.199 1086.14 577.386 1081.12 C 570.133 1071.59 570.493 1048.86 572.546 1037.21 C 572.606 1036.87 572.677 1036.54 572.742 1036.2 z"/>
<path transform="translate(0,0)" fill="rgb(254,254,254)" d="M 509.071 1116.75 C 524.745 1121.4 539.534 1124.63 555.976 1123.92 C 561.114 1123.7 570.092 1121.05 574.67 1122.08 C 575.258 1124.65 574.575 1125.9 573.654 1128.26 A 189.372 189.372 0 0 1 566.623 1130.08 C 551.801 1133.56 527.05 1134.96 513.868 1126.28 C 510.164 1123.84 509.895 1120.8 509.071 1116.75 z"/>
<path transform="translate(0,0)" fill="rgb(149,155,163)" d="M 514.12 1135.03 C 534.438 1142.33 551.684 1142.17 572.695 1138 C 570.543 1145.37 568.068 1152.19 564.39 1158.94 C 561.705 1163.12 558.731 1167.09 553.923 1168.92 C 549.599 1170.56 544.792 1169.91 540.66 1168.01 C 527.323 1161.88 519.354 1148.04 514.12 1135.03 z"/>
<path transform="translate(0,0)" fill="rgb(202,230,231)" d="M 374.621 1207.03 L 375.817 1207.21 L 376.058 1208.34 A 126.27 126.27 0 0 0 374.933 1210.98 C 370.923 1220.77 367.352 1232.22 365.829 1242.66 C 360.133 1281.64 375.127 1345.31 391.126 1381.31 C 392.981 1385.49 394.724 1389.39 399.174 1391.18 C 405.361 1388.24 410.241 1372.62 413.559 1366.2 C 426.373 1341.39 446.737 1328.95 472.495 1320.71 A 493.188 493.188 0 0 0 506.541 1343.11 C 512.136 1385.34 515.312 1428.14 519.679 1470.55 C 528.327 1554.53 537.136 1639.39 537.093 1723.9 C 486.111 1723.76 424.031 1716.16 383.592 1682.79 C 355.831 1659.88 356.274 1622.85 353.149 1589.77 C 352.257 1548.19 349.743 1507.19 351.193 1465.54 C 351.419 1459.04 353.912 1443.7 349.71 1438.54 C 347.224 1438.06 347.17 1438.2 344.896 1439.37 C 337.348 1450.41 341.797 1565.92 342.786 1586.25 C 338.717 1586.91 334.627 1587.54 330.65 1588.65 C 287.377 1600.75 246.38 1634.98 224.605 1673.83 C 199.391 1589.89 208.399 1460.59 231.245 1376.7 C 238.732 1349.21 249.432 1321.09 262.803 1295.94 C 288.462 1247.67 323.458 1222.77 374.621 1207.03 z"/>
<path transform="translate(0,0)" fill="rgb(254,254,254)" d="M 1407.58 1449.26 L 1408.41 1450.75 C 1384.61 1524.84 1364.98 1600.33 1344.78 1675.48 C 1333.62 1717 1323.02 1758.39 1310.03 1799.39 C 1277.42 1809.45 1245.21 1820.77 1212.62 1830.91 A 17626.3 17626.3 0 0 0 913.361 1925.04 L 913.052 1924.75 C 911.851 1920.62 914.977 1912.02 916.096 1907.66 C 919.254 1895.37 923.356 1883.26 926.746 1871.02 L 969.175 1722.76 C 983.873 1672 997.172 1620.69 1011.37 1569.76 C 1029.94 1563.05 1049.51 1557.92 1068.42 1552.14 L 1183.43 1517.14 A 9272.41 9272.41 0 0 0 1288.78 1485.02 C 1328.24 1472.69 1367.62 1459.89 1407.58 1449.26 z"/>
<path transform="translate(0,0)" fill="rgb(19,43,67)" d="M 1200.69 1630.2 C 1203.48 1630.22 1206.61 1630.7 1209.11 1631.97 C 1213.12 1634.01 1216.49 1637.38 1217.6 1641.83 C 1220.17 1652.2 1215.23 1665.35 1209.79 1674.2 C 1202.32 1686.35 1191.35 1695.55 1177.32 1698.82 C 1174.37 1698.75 1171.3 1698.24 1168.68 1696.83 C 1164.78 1694.73 1161.63 1691.49 1160.56 1687.11 C 1157.91 1676.29 1163.62 1662.67 1169.51 1653.57 C 1176.87 1642.2 1187.17 1633.06 1200.69 1630.2 z"/>
<path transform="translate(0,0)" fill="rgb(202,230,231)" d="M 1196.3 1638.97 C 1199.08 1638.66 1201.59 1638.36 1204.28 1639.52 C 1206.73 1640.58 1208.49 1642.24 1209.35 1644.8 C 1211.12 1650.1 1208.56 1657.48 1206.46 1662.34 C 1201.61 1673.54 1192.55 1684.52 1181.07 1689.02 C 1179.64 1689.25 1177.92 1689.63 1176.48 1689.51 C 1173.57 1689.27 1172.1 1688.22 1170.05 1686.29 C 1168.03 1681.98 1168.5 1678.72 1169.75 1674.19 C 1173.72 1659.82 1183.19 1646.21 1196.3 1638.97 z"/>
</svg>