<svg version="1.1" xmlns="http://www.w3.org/2000/svg" style="display: block;" viewBox="0 0 2048 2048" width="1024" height="1024">
<path transform="translate(0,0)" fill="rgb(233,235,216)" d="M 0 0 L 2010.22 0 L 2048 0 L 2048 1312.07 L 2048 2048 L 0 2048 L 0 1724.22 L 0 1174.55 L 0 0 z"/>
<path transform="translate(0,0)" fill="rgb(252,85,31)" d="M 1290.04 1201.23 C 1302.01 1200.3 1313.05 1201.8 1323.42 1208.37 A 52.6549 52.6549 0 0 1 1346.79 1241.74 C 1349.66 1255.62 1346.23 1271.72 1338.23 1283.46 C 1330.01 1295.53 1318.24 1302.02 1304.23 1304.88 C 1291.87 1305.81 1279.52 1303.69 1268.93 1296.94 A 49.9998 49.9998 0 0 1 1247.06 1265.52 C 1244.01 1251.44 1247.06 1235.7 1255.03 1223.72 C 1263.47 1211.04 1275.46 1204.35 1290.04 1201.23 z"/>
<path transform="translate(0,0)" fill="rgb(253,247,231)" d="M 1295.07 1230.26 C 1298.29 1230.4 1301.76 1230.94 1304.74 1232.16 C 1310.41 1234.5 1315 1238.67 1317.31 1244.41 A 23.2246 23.2246 0 0 1 1316.54 1263.32 C 1312.62 1271.27 1306.81 1274.11 1298.73 1276.69 C 1294.1 1276.65 1289.12 1276.05 1285.11 1273.52 A 23.48 23.48 0 0 1 1274.58 1257.53 C 1273.45 1250.92 1274.77 1244.13 1278.75 1238.68 C 1283.21 1232.57 1287.85 1231.29 1295.07 1230.26 z"/>
<path transform="translate(0,0)" fill="rgb(3,3,2)" d="M 1440.19 740.085 C 1453.47 724.709 1468.26 712.605 1489.38 710.877 C 1502.12 709.834 1515.18 713.011 1524.92 721.581 C 1540.98 735.715 1547.64 760.491 1557.01 779.201 C 1565.25 795.672 1574.88 812.13 1586.58 826.375 C 1600.13 842.871 1615.08 857.613 1634.05 867.738 C 1638.74 870.238 1660.26 878.099 1662.12 880.052 L 1661.7 881.645 C 1654 885.649 1642.14 885.158 1633.64 885.439 C 1603.57 886.432 1579.5 886.012 1550.37 876.834 C 1523.54 868.379 1499.56 852.995 1486.56 827.304 C 1482.59 819.474 1480.36 811.959 1479.05 803.307 C 1475.55 806.266 1471.71 810.221 1467.22 811.537 C 1464.24 811.254 1462.1 811.858 1459.29 812.689 L 1458.16 813.031 L 1463.29 807.737 L 1459.92 807.968 C 1455.82 804.525 1457.48 792.31 1457.02 787.064 C 1455.64 771.537 1445.92 756.035 1437.47 743.425 C 1438.43 742.394 1439.3 741.186 1440.19 740.085 z"/>
<path transform="translate(0,0)" fill="rgb(252,85,31)" d="M 1440.19 740.085 C 1440.48 740.198 1440.78 740.315 1441.07 740.425 C 1453.64 745.068 1465.3 743.643 1472.07 757.719 C 1477.36 768.719 1476.94 783.744 1477.75 795.822 C 1473.22 800.34 1468.48 804.005 1463.29 807.737 L 1459.92 807.968 C 1455.82 804.525 1457.48 792.31 1457.02 787.064 C 1455.64 771.537 1445.92 756.035 1437.47 743.425 C 1438.43 742.394 1439.3 741.186 1440.19 740.085 z"/>
<path transform="translate(0,0)" fill="rgb(69,83,201)" d="M 1490.69 716.457 C 1532.61 716.14 1540.4 757.124 1555.53 787.401 A 227.219 227.219 0 0 0 1585.96 834.123 C 1596.29 846.428 1609.85 860.075 1624 867.934 C 1630.57 871.583 1639.03 874.225 1644.76 878.982 C 1639.07 882.759 1614.51 881.405 1607.25 881.103 C 1601.87 881.072 1596.43 880.923 1591.08 880.378 C 1546.56 875.839 1494.86 854.479 1484.75 805.888 C 1481.27 789.143 1484.29 760.212 1473.12 747.309 C 1466.62 739.81 1458.04 738.322 1448.71 737.656 C 1460.58 726.06 1474 718.132 1490.69 716.457 z"/>
<path transform="translate(0,0)" fill="rgb(252,85,31)" d="M 1116.65 673.475 C 1132.12 673.163 1149.13 671.181 1162.67 680.301 C 1172.39 686.853 1177.93 697.595 1180.04 708.912 C 1182.38 721.466 1183.06 752.441 1180.65 764.83 C 1179.5 770.788 1177.18 776.67 1173.72 781.67 C 1165.89 792.965 1153.99 797.879 1141.06 800.47 C 1141.23 804.102 1142.15 809.59 1140.39 812.883 C 1139.57 814.424 1138.96 814.135 1137.41 814.528 C 1131.27 812.394 1124.14 804.887 1118.49 801.037 L 1108.56 801.029 C 1086.79 801.234 1061.57 804.69 1043.56 789.694 C 1033.24 781.104 1028.35 768.995 1027.41 755.806 C 1025.89 734.253 1021.88 705.171 1037.77 687.889 C 1054.88 669.276 1093.21 674.115 1116.65 673.475 z"/>
<path transform="translate(0,0)" fill="rgb(253,247,231)" d="M 1099.42 703.315 C 1100.82 703.455 1102.47 703.512 1103.72 704.255 C 1108.22 706.942 1110.97 717.988 1113.06 722.933 C 1119.78 723.902 1131.88 722.75 1136.47 727.843 C 1135.93 734.487 1126.92 740.708 1122.36 745.27 A 1650.03 1650.03 0 0 0 1128.69 770.054 C 1121.62 767.738 1114.96 763.781 1108.38 760.329 C 1098.03 757.663 1094.15 769.653 1085.6 769.759 C 1082.53 764.615 1085.25 753.51 1085.99 747.488 C 1079.81 741.438 1072.56 736.334 1066.04 730.606 C 1072.09 728.231 1078.58 727.684 1084.57 725.336 C 1094.03 721.627 1095.93 711.849 1099.42 703.315 z"/>
<path transform="translate(0,0)" fill="rgb(3,3,2)" d="M 1360.11 751.833 C 1370.17 744.009 1382.76 738.536 1395.25 736.075 C 1410.6 733.051 1424.17 734.589 1437.47 743.425 C 1445.92 756.035 1455.64 771.537 1457.02 787.064 C 1457.48 792.31 1455.82 804.525 1459.92 807.968 L 1463.29 807.737 L 1458.16 813.031 L 1459.29 812.689 C 1462.1 811.858 1464.24 811.254 1467.22 811.537 C 1463.81 813.221 1460.41 814.88 1456.9 816.363 C 1452.3 825.888 1448.1 835.765 1439.99 842.925 C 1438.81 847.601 1440.66 853.975 1443.24 857.986 C 1450.27 868.906 1483.4 885.381 1495.78 894.964 C 1543.53 931.919 1571.25 985.033 1592.36 1040.24 C 1598.33 1055.86 1605.23 1073.43 1607.75 1089.97 C 1604.12 1093.07 1600.53 1096.05 1596.55 1098.72 C 1598.61 1104.48 1599.86 1109.07 1604.87 1113.05 L 1603.52 1115.79 L 1596.86 1113.09 C 1571.86 1140.33 1540.6 1154.16 1503.48 1155.69 C 1494.24 1156.07 1480.82 1157.41 1472.51 1153.28 L 1471.54 1154.37 L 1469.01 1155.34 C 1466.95 1150.54 1465.78 1145.37 1464.4 1140.35 A 859.429 859.429 0 0 1 1453.13 1138.65 C 1447.59 1127.42 1443.69 1115.1 1439.36 1103.34 C 1435.65 1112.88 1431.7 1122.39 1427.07 1131.52 C 1419.41 1146.64 1411.05 1158.26 1393.99 1163.59 C 1361.16 1173.84 1308.11 1145.73 1280.47 1129.06 C 1266.82 1120.83 1253.45 1110.77 1238.97 1104.08 C 1222.69 1096.57 1204.5 1095.78 1188.36 1087.5 C 1183.36 1084.93 1178.65 1082 1174.39 1078.32 C 1169.48 1074.07 1154.6 1057.15 1153.52 1051.24 C 1153.02 1048.48 1153.36 1048.14 1154.93 1046.05 C 1160.89 1043.66 1166.14 1045.34 1172.18 1046.57 C 1174.26 1042.65 1176.5 1038.52 1180.08 1035.75 C 1186.25 1030.96 1194.4 1030.22 1201.91 1030.97 C 1244.1 1035.22 1244.46 1060.03 1267.09 1067.35 C 1277.54 1070.73 1300.32 1071.15 1307.29 1079.63 L 1306.86 1081.94 C 1306.62 1082.07 1306.39 1082.24 1306.12 1082.34 C 1301.8 1083.94 1272.34 1077.75 1267.83 1075.74 C 1263.12 1073.63 1257.33 1071.62 1253.15 1068.63 C 1236.55 1056.74 1235.49 1047.16 1212.52 1040.87 C 1207.77 1039.57 1202.39 1037.82 1197.45 1037.73 C 1179.97 1037.4 1185.21 1047.09 1176.39 1053.46 C 1173.35 1055.65 1169.46 1054.44 1166.04 1053.93 C 1166.08 1054.25 1166.08 1054.58 1166.15 1054.89 C 1167.03 1058.91 1173.47 1068.88 1176.82 1071.03 C 1182.84 1074.89 1188.19 1079.4 1194.75 1082.41 C 1210.22 1089.51 1227.88 1090.34 1243.47 1097.91 C 1264.82 1108.28 1283.23 1123.72 1304.95 1133.84 C 1306.27 1131.54 1306.12 1110.96 1310 1101.44 C 1314.88 1089.5 1325.06 1082.81 1327.42 1077.71 C 1327.84 1076.8 1327.69 1075.72 1327.82 1074.72 L 1326.82 1073.16 L 1327.14 1071.6 C 1323.59 1068.3 1318.74 1065.59 1314.9 1062.47 A 370.315 370.315 0 0 1 1285.49 1035.76 C 1271.01 1020.83 1259.4 1003.18 1244.73 988.608 C 1237.98 981.902 1230.51 980.41 1224.53 972.099 C 1222.02 986.294 1215.73 997.807 1207.3 1009.35 C 1202.75 1007.77 1194.06 1005.8 1192.22 1000.8 C 1190.33 995.671 1196.34 983.903 1198.13 978.476 C 1197.37 977.897 1196.61 977.323 1195.88 976.718 C 1192.18 973.67 1189.47 970.446 1189.23 965.434 C 1188.83 956.727 1198.9 950.25 1203.44 943.743 C 1206.24 939.725 1205.39 935.266 1208.95 931.387 C 1212.04 929.534 1215.84 930.288 1219.31 930.529 C 1226.84 925.749 1249.11 858.807 1256.69 846.061 C 1258.44 843.107 1259.93 840.926 1263.39 840.013 C 1266.25 840.952 1268.04 842.146 1270.35 843.965 C 1271.43 846.792 1270.91 848.193 1270.1 851.138 C 1267.67 859.985 1263.57 868.752 1260.14 877.274 C 1252 897.494 1243.2 917.424 1236.04 938.022 C 1255.17 946.725 1310.25 984.489 1325.33 985.128 C 1339.15 985.714 1362.76 998.364 1374.74 1005.68 C 1380.5 984.369 1385.78 963.247 1394.35 942.803 C 1401.42 925.92 1411.15 910.337 1416.83 892.852 C 1391.92 856.691 1383.53 886.403 1360.52 872.842 C 1342.19 862.041 1337.63 826.168 1338.04 807.011 C 1338.2 799.522 1341.69 784.234 1341.19 779.414 C 1340.8 775.753 1339.55 772.037 1338.74 768.442 C 1338.01 765.138 1338.19 763.69 1339.98 760.848 C 1343.13 759.027 1345.43 759.59 1348.85 760.06 C 1351.75 756.758 1356.45 754.304 1360.11 751.833 z"/>
<path transform="translate(0,0)" fill="rgb(253,247,231)" d="M 1198.23 960.737 C 1199.31 956.354 1201.09 951.572 1205.05 949.02 C 1207.58 948.983 1208.09 948.934 1209.95 950.972 C 1212.46 953.713 1215.08 958.002 1214.95 961.745 C 1212.34 963.431 1208.92 962.488 1205.94 961.808 C 1204.07 961.38 1202.63 960.741 1200.98 959.744 L 1199.62 960.163 C 1201.86 965.076 1207.31 964.616 1209.81 969.044 C 1209.37 971.853 1209.02 972.175 1207.14 974.351 C 1202.94 975.335 1199.27 972.392 1195.44 970.527 C 1196.17 967.12 1196.91 963.965 1198.23 960.737 z"/>
<path transform="translate(0,0)" fill="rgb(253,247,231)" d="M 1160.43 1050.01 C 1164.17 1051.4 1169.37 1054.1 1173.25 1052.33 C 1186.61 1046.23 1177.91 1030.49 1209.33 1038.1 C 1240.26 1045.6 1239.63 1059.91 1261.05 1071.1 C 1270.79 1076.18 1282 1077.93 1292.76 1079.45 C 1296.63 1079.99 1303.14 1082.04 1306.49 1080.12 C 1306.76 1079.96 1307.02 1079.79 1307.29 1079.63 L 1306.86 1081.94 C 1306.62 1082.07 1306.39 1082.24 1306.12 1082.34 C 1301.8 1083.94 1272.34 1077.75 1267.83 1075.74 C 1263.12 1073.63 1257.33 1071.62 1253.15 1068.63 C 1236.55 1056.74 1235.49 1047.16 1212.52 1040.87 C 1207.77 1039.57 1202.39 1037.82 1197.45 1037.73 C 1179.97 1037.4 1185.21 1047.09 1176.39 1053.46 C 1173.35 1055.65 1169.46 1054.44 1166.04 1053.93 C 1166.08 1054.25 1166.08 1054.58 1166.15 1054.89 C 1167.03 1058.91 1173.47 1068.88 1176.82 1071.03 C 1182.84 1074.89 1188.19 1079.4 1194.75 1082.41 C 1210.22 1089.51 1227.88 1090.34 1243.47 1097.91 C 1264.82 1108.28 1283.23 1123.72 1304.95 1133.84 C 1306.27 1131.54 1306.12 1110.96 1310 1101.44 C 1314.88 1089.5 1325.06 1082.81 1327.42 1077.71 C 1327.84 1076.8 1327.69 1075.72 1327.82 1074.72 L 1326.82 1073.16 L 1327.14 1071.6 C 1333.25 1075.11 1338 1077.52 1344.91 1079.02 C 1347.29 1079.53 1349.67 1080.25 1352.02 1080.87 L 1352.47 1081.77 C 1344.98 1083.72 1334.85 1081.9 1327.11 1081.47 C 1315.49 1090.74 1309.55 1104.19 1307.85 1118.7 C 1307.06 1125.45 1307.57 1131.08 1309.11 1137.71 C 1283.87 1126.23 1263.2 1108.61 1239.4 1097.99 C 1220.65 1089.63 1199.34 1089.21 1181.94 1077.26 C 1171.94 1070.39 1166.53 1060.11 1160.43 1050.01 z"/>
<path transform="translate(0,0)" fill="rgb(252,85,31)" d="M 1591.98 1103.45 C 1593.5 1106.71 1595.23 1109.89 1596.86 1113.09 C 1571.86 1140.33 1540.6 1154.16 1503.48 1155.69 C 1494.24 1156.07 1480.82 1157.41 1472.51 1153.28 C 1472.05 1148.81 1470.83 1144.3 1469.9 1139.9 C 1515.53 1140.54 1553.98 1128.42 1591.98 1103.45 z"/>
<path transform="translate(0,0)" fill="rgb(252,85,31)" d="M 1331.62 992.174 C 1345.82 997.626 1359.74 1003.82 1373.7 1009.88 A 1557.73 1557.73 0 0 0 1364.07 1047.38 C 1361.8 1056.95 1360.15 1067.03 1356.73 1076.26 C 1354.05 1076.79 1351.81 1075.53 1349.25 1074.69 C 1332.3 1070 1318.11 1058.42 1305.89 1046.24 C 1316.26 1028.59 1324.2 1011.21 1331.62 992.174 z"/>
<path transform="translate(0,0)" fill="rgb(253,247,231)" d="M 1212.66 937.005 C 1214.39 937.242 1215.65 937.523 1217.23 938.307 C 1226.03 942.658 1235.88 943.939 1244.82 948.259 C 1256.48 953.893 1267.44 962.371 1278.7 968.934 C 1294.04 977.88 1310.04 985.384 1325.83 993.469 C 1320.05 1005.58 1315.76 1018.32 1309.08 1029.99 A 970.717 970.717 0 0 1 1302.32 1043.38 C 1280.84 1026.65 1265.48 1002.42 1247.04 982.65 C 1242.2 977.459 1235.26 977.996 1230.96 971.228 C 1230.47 967.265 1232.12 965.017 1233.75 961.453 C 1231.48 952.853 1215.73 952.31 1211.99 944.328 C 1210.69 941.54 1211.82 939.729 1212.66 937.005 z"/>
<path transform="translate(0,0)" fill="rgb(253,247,231)" d="M 1344.06 787.84 C 1348.06 789.388 1367.51 814.127 1382.78 821.348 C 1387.6 816.82 1391.78 812.41 1398.58 811.28 C 1401.67 812.311 1402.95 813.451 1404.38 816.425 C 1406.46 820.74 1406.49 823.731 1405.86 828.411 C 1405.69 829.617 1405.68 829.101 1405.83 830.103 C 1401.02 835.656 1393.07 839.431 1387.24 844.136 C 1391.97 843.481 1396.52 842.284 1401.14 841.096 C 1410.64 849.697 1420.18 853.59 1433.03 853.12 C 1437.16 859.847 1441.45 866.978 1447.26 872.377 L 1422.49 888.938 C 1413 878.973 1404.82 867.007 1389.62 868.245 C 1383.99 868.703 1378.14 869.811 1372.49 869.33 C 1365.72 868.753 1360 865.565 1355.74 860.297 C 1350.41 853.714 1344.63 837.864 1345.64 829.269 L 1347.41 828.401 C 1349.19 828.554 1351.35 828.92 1353.11 828.703 C 1355.76 828.375 1356.24 827.924 1357.73 825.976 L 1357.18 824.048 C 1356.24 823.568 1355.53 823.145 1354.46 822.92 C 1351.36 822.272 1347.05 825.335 1344.43 826.824 C 1341.8 813.534 1343.52 801.209 1344.06 787.84 z"/>
<path transform="translate(0,0)" fill="rgb(49,53,119)" d="M 1360.11 751.833 C 1370.17 744.009 1382.76 738.536 1395.25 736.075 C 1410.6 733.051 1424.17 734.589 1437.47 743.425 C 1445.92 756.035 1455.64 771.537 1457.02 787.064 C 1457.48 792.31 1455.82 804.525 1459.92 807.968 L 1463.29 807.737 L 1458.16 813.031 L 1459.29 812.689 C 1462.1 811.858 1464.24 811.254 1467.22 811.537 C 1463.81 813.221 1460.41 814.88 1456.9 816.363 C 1452.3 825.888 1448.1 835.765 1439.99 842.925 C 1440.17 840.792 1439.72 839.886 1438.72 838.022 C 1435.32 841.864 1431.42 845.128 1427.57 848.497 C 1421.92 847.203 1414.99 845.902 1410.74 841.679 C 1408.27 839.217 1408.01 837.361 1408.12 833.989 C 1407.72 832.357 1406.82 831.431 1405.83 830.103 C 1405.68 829.101 1405.69 829.617 1405.86 828.411 C 1406.49 823.731 1406.46 820.74 1404.38 816.425 C 1402.95 813.451 1401.67 812.311 1398.58 811.28 C 1391.78 812.41 1387.6 816.82 1382.78 821.348 C 1367.51 814.127 1348.06 789.388 1344.06 787.84 C 1342.82 784.983 1344.77 779.244 1345.43 776.249 A 221.059 221.059 0 0 1 1344.14 768.927 C 1345.23 766.219 1345.5 766.403 1348.16 765.08 C 1348.66 763.413 1348.7 761.788 1348.85 760.06 C 1351.75 756.758 1356.45 754.304 1360.11 751.833 z"/>
<path transform="translate(0,0)" fill="rgb(18,12,6)" d="M 1345.43 776.249 C 1350.48 781.179 1354.14 787.196 1358.57 792.662 C 1365.72 801.504 1373.89 808.213 1382.88 815.131 C 1388.78 810.908 1393.99 807.567 1401.56 808.928 C 1405.16 809.575 1407.94 811.303 1409.85 814.508 C 1412.53 819.02 1411.19 825.743 1409.66 830.39 C 1409.25 831.649 1408.69 832.799 1408.12 833.989 C 1407.72 832.357 1406.82 831.431 1405.83 830.103 C 1405.68 829.101 1405.69 829.617 1405.86 828.411 C 1406.49 823.731 1406.46 820.74 1404.38 816.425 C 1402.95 813.451 1401.67 812.311 1398.58 811.28 C 1391.78 812.41 1387.6 816.82 1382.78 821.348 C 1367.51 814.127 1348.06 789.388 1344.06 787.84 C 1342.82 784.983 1344.77 779.244 1345.43 776.249 z"/>
<path transform="translate(0,0)" fill="rgb(18,12,6)" d="M 1360.11 751.833 C 1370.17 744.009 1382.76 738.536 1395.25 736.075 C 1410.6 733.051 1424.17 734.589 1437.47 743.425 C 1445.92 756.035 1455.64 771.537 1457.02 787.064 C 1457.48 792.31 1455.82 804.525 1459.92 807.968 L 1463.29 807.737 L 1458.16 813.031 L 1459.29 812.689 C 1462.1 811.858 1464.24 811.254 1467.22 811.537 C 1463.81 813.221 1460.41 814.88 1456.9 816.363 C 1452.3 825.888 1448.1 835.765 1439.99 842.925 C 1440.17 840.792 1439.72 839.886 1438.72 838.022 C 1441.29 834.482 1443.66 830.828 1445.59 826.892 C 1454.13 809.466 1453.11 787.636 1446.69 769.725 C 1442.65 758.428 1435.94 747.755 1424.59 742.699 C 1405.73 734.298 1390.85 742.079 1373.71 748.811 L 1372.08 749.442 C 1364.49 753.989 1356.39 759.131 1351.57 766.766 C 1349.05 766.179 1350.19 766.735 1348.16 765.08 C 1348.66 763.413 1348.7 761.788 1348.85 760.06 C 1351.75 756.758 1356.45 754.304 1360.11 751.833 z"/>
<path transform="translate(0,0)" fill="rgb(252,85,31)" d="M 1454.14 874.816 C 1457.8 875.951 1462.32 880.125 1465.55 882.383 C 1455.58 890.965 1420.67 915.285 1418.3 926.363 L 1419.42 927.642 C 1419.72 927.606 1420.04 927.608 1420.34 927.535 C 1423.18 926.851 1465.21 890.787 1467.96 886.875 L 1467.48 884.591 C 1473.73 884.935 1484.06 893.468 1489.18 897.2 C 1537.74 932.569 1566.99 988.791 1587.5 1043.83 C 1592.78 1058 1598.74 1072.76 1601.09 1087.74 L 1600.05 1088.71 C 1558.86 1126.84 1510.12 1135.89 1456.05 1134.08 C 1450.87 1121.85 1446.95 1108.78 1442.59 1096.22 A 1523.44 1523.44 0 0 1 1457.01 1055.75 C 1462.93 1039.32 1474.82 1010.02 1476.46 993.269 L 1474.58 991.635 C 1472.08 993.059 1471.41 994.656 1470.37 997.322 C 1467.26 1005.31 1465.52 1014.17 1462.75 1022.35 C 1454.27 1047.37 1445.83 1072.6 1436.1 1097.16 C 1427.46 1118.98 1417.32 1148.13 1393.85 1157.7 C 1370.13 1167.37 1337.6 1151.01 1315.79 1141.26 C 1314.26 1136.59 1313.18 1131.69 1313.02 1126.77 C 1312.53 1111.62 1318.18 1098.78 1328.41 1087.92 C 1337.98 1087.46 1347.68 1088.97 1357.33 1088.79 C 1366.11 1073.89 1368.18 1054 1372.3 1037.36 C 1378.25 1013.36 1384.16 988.407 1391.87 964.937 C 1399.62 941.344 1412.11 919.777 1421.16 896.696 C 1432.91 890.437 1443.49 882.73 1454.14 874.816 z"/>
<path transform="translate(0,0)" fill="rgb(253,247,231)" d="M 0 0 L 2010.22 0 C 1999.81 11.6333 1990.08 23.8858 1979.57 35.4116 C 1938.85 80.0457 1895.43 121.09 1845.77 155.667 C 1789.96 194.529 1719.64 225.429 1655.69 248.18 C 1642.33 252.931 1628.9 258.108 1615.3 262.1 C 1566.79 276.339 1516.91 287.063 1467.61 298.224 C 1401.32 313.233 1335.43 328.606 1270.53 348.882 C 1224.6 363.23 1175.02 381.493 1132.91 404.92 A 552.854 552.854 0 0 0 1056.94 456.564 C 984.323 514.57 941.9 593.314 918.126 682.018 C 888.592 792.216 898.872 920.681 805.84 1003.83 C 790.217 1017.79 772.723 1031.15 753.254 1039.36 C 746.657 1009.79 741.297 979.964 735.393 950.253 C 731.656 931.442 729.407 909.916 721.2 892.535 C 715.563 880.597 707.455 871.448 696.697 863.891 C 686.226 856.535 674.674 851.294 661.864 849.881 C 639.409 847.403 612.024 849.6 588.965 849.503 L 424.724 849.057 L 245.621 849.16 L 194.771 849.205 C 182.11 849.228 168.85 848.578 156.365 850.877 C 140.772 853.749 127.319 863.207 118.482 876.232 A 60.1107 60.1107 0 0 0 108.273 907.45 C 107.601 926.189 115.135 947.713 119.264 965.984 A 1621.26 1621.26 0 0 1 130.683 1021.16 C 129.41 1022.92 129.605 1023.07 127.518 1023.9 C 120.534 1026.69 112.468 1037.21 107.114 1042.77 C 80.1447 1070.76 55.6545 1099.57 32.1631 1130.55 C 21.257 1144.93 12.0982 1161.16 0 1174.55 L 0 0 z"/>
<path transform="translate(0,0)" fill="rgb(8,11,132)" d="M 96.303 329.297 A 3204.3 3204.3 0 0 0 183.886 330.219 L 183.883 343.131 L 147.953 343.072 L 147.966 408.75 L 147.974 445.177 L 130.997 445.448 L 130.538 343.282 L 96.2295 343.759 L 96.303 329.297 z"/>
<path transform="translate(0,0)" fill="rgb(252,85,31)" d="M 687.986 140.243 C 691.507 139.979 695.193 139.648 698.255 141.637 C 702.222 146.849 698.277 161.025 697.746 167.671 C 687.354 168.079 676.015 169.38 668.099 176.874 C 664.845 179.955 662.756 183.801 661.692 188.137 C 658.663 200.477 660.967 239.513 660.931 254.941 C 652.103 255.008 640.118 256.673 631.736 254.357 L 630.991 252.25 L 630.894 142.928 L 651.481 143.168 C 655.652 149.545 657.535 155.868 659.263 163.18 C 667.285 151.207 673.214 143.581 687.986 140.243 z"/>
<path transform="translate(0,0)" fill="rgb(8,11,132)" d="M 536.749 332.317 L 552.849 332.451 C 568.869 368.871 579.824 407.899 594.74 444.891 L 575.902 445.593 C 573.579 435.109 569.647 425.058 566.053 414.959 L 554.131 414.927 L 521.851 414.903 C 519.17 425.122 515.364 435.195 512.294 445.322 C 506.778 445.54 501.22 445.326 495.7 445.252 A 4521.86 4521.86 0 0 1 519.883 376.238 C 525.183 361.605 530.172 346.415 536.749 332.317 z"/>
<path transform="translate(0,0)" fill="rgb(253,247,231)" d="M 543.519 350.207 C 549.47 367.431 555.655 384.531 561.167 401.906 L 547.25 401.974 L 526.288 402.016 C 532.905 385.344 538.516 367.429 543.519 350.207 z"/>
<path transform="translate(0,0)" fill="rgb(8,11,132)" d="M 210.721 362.371 C 220.168 362.901 228.935 364.044 236.922 369.641 C 245.764 375.838 251.014 385.654 252.597 396.216 C 254.387 408.165 251.789 421.904 244.372 431.629 C 237.216 441.014 227.275 445.087 215.869 446.488 C 206.402 446.266 198.788 445.2 190.731 439.623 C 181.735 433.396 175.969 423.587 174.021 412.905 C 171.82 400.836 174.052 387.926 181.456 377.972 C 188.924 367.93 198.83 364.209 210.721 362.371 z"/>
<path transform="translate(0,0)" fill="rgb(253,247,231)" d="M 209.329 375.104 C 213.121 374.906 216.723 375.148 220.338 376.434 C 226.532 378.638 231.198 383.441 233.791 389.423 C 237.653 398.331 237.537 410.308 233.586 419.162 C 229.842 427.553 224.813 430.959 216.394 433.938 C 212.488 434.107 208.316 433.685 204.773 431.942 C 198.414 428.815 194.195 422.759 192.099 416.131 C 189.233 407.068 189.387 395.837 193.858 387.304 C 197.385 380.575 202.26 377.415 209.329 375.104 z"/>
<path transform="translate(0,0)" fill="rgb(252,85,31)" d="M 469.851 114.173 C 472.196 113.857 471.969 113.431 474.048 114.891 C 476.044 123.743 474.988 134.022 474.901 143.07 L 500.503 143.112 C 501.214 150.323 501.007 157.75 501.113 165.001 L 474.426 165.042 C 475.433 181.205 472.332 216.943 477.267 230.124 C 481.797 234.297 489.828 233.055 495.674 232.998 C 497.359 239.97 498.699 246.839 499.731 253.937 C 495.544 255.207 491.258 256.139 487.003 257.151 C 475.521 257.705 464.154 257.968 455.226 249.427 C 450.872 245.261 448.17 239.729 446.744 233.926 C 442.622 217.155 445.094 184.315 445.178 165.737 L 429.791 165.844 C 429.124 161.115 426.687 152.119 429.675 147.983 C 432.646 143.869 441.303 143.595 445.955 142.865 C 446.162 135.335 446.598 127.798 446.927 120.272 L 469.851 114.173 z"/>
<path transform="translate(0,0)" fill="rgb(8,11,132)" d="M 398.305 363.186 C 407.94 362.411 417.293 362.62 425.99 367.336 C 434.679 372.048 440.523 380.412 443.198 389.806 C 446.606 401.774 445.652 416.229 439.416 427.111 C 432.896 438.488 423.314 443.226 411.182 446.417 C 401.359 446.912 392.525 445.95 383.887 440.86 C 374.607 435.392 368.51 426.299 366.081 415.898 C 363.252 403.781 364.664 389.901 371.558 379.344 C 378.15 369.25 387.039 365.578 398.305 363.186 z"/>
<path transform="translate(0,0)" fill="rgb(253,247,231)" d="M 398.742 375.217 C 402.678 374.956 407.037 374.841 410.871 375.856 C 416.691 377.398 421.645 381.705 424.486 386.953 C 428.921 395.144 429.635 406.751 427.017 415.61 C 424.337 424.68 419.143 429.591 410.903 433.826 C 407.058 434.431 403.463 434.573 399.68 433.436 C 393.238 431.5 388.274 426.572 385.383 420.604 C 381.036 411.628 380.638 399.649 384.166 390.342 C 387.079 382.659 391.381 378.575 398.742 375.217 z"/>
<path transform="translate(0,0)" fill="rgb(252,85,31)" d="M 380.306 141.316 C 392.117 140.186 404.155 143.443 415.387 146.729 L 409.121 168.654 A 133.599 133.599 0 0 0 402.544 166.784 C 393.726 164.534 382.393 161.328 374.213 166.97 C 371.9 168.565 371.588 169.663 371.169 172.331 C 375.807 184.844 396.054 189.618 406.235 197.496 C 413.82 203.364 419.386 211.399 420.17 221.15 C 420.875 229.925 416.969 238.395 411.043 244.701 C 401.261 255.11 387.466 257.384 373.887 257.972 C 360.664 257.055 350 254.698 337.723 249.577 C 339.192 242.214 341.875 236.121 345.383 229.565 C 356.349 232.614 367.498 235.765 378.985 234.364 C 383.649 233.795 387.856 231.862 390.578 227.879 C 391.639 226.327 392.241 224.263 391.638 222.441 C 388.615 213.3 368.899 208.064 360.949 203.063 C 352.708 197.879 345.828 190.467 343.806 180.682 C 342.145 172.645 344.007 162.981 348.739 156.235 C 355.881 146.05 368.82 143.239 380.306 141.316 z"/>
<path transform="translate(0,0)" fill="rgb(252,85,31)" d="M 864.576 141.426 C 877.001 139.491 890.765 144.661 901.763 149.952 C 898.882 156.793 896.556 163.83 894.155 170.85 C 885.64 167.053 877.405 163.858 868.001 163.253 C 863.223 162.946 858.921 164.045 855.419 167.431 C 853.058 169.712 852.62 171.425 852.628 174.625 C 858.41 186.663 884.537 190.871 895.467 200.604 C 901.276 205.778 905.25 212.877 905.61 220.742 C 905.998 229.213 902.104 238.32 896.303 244.399 C 886.937 254.215 873.721 256.857 860.751 257.433 C 847.271 257.87 834.42 254.949 822.732 248.176 C 824.134 240.949 824.828 233.615 825.635 226.303 C 838.269 231.322 851.173 235.306 864.947 233.299 C 868.796 232.738 873.512 230.803 875.556 227.231 C 876.303 225.925 876.784 224.323 876.414 222.843 C 873.964 213.039 847.406 205.665 839.276 200.15 C 831.649 194.977 825.37 187.588 824.037 178.215 C 822.925 170.39 825.563 161.252 830.549 155.138 C 839.02 144.753 852.009 142.475 864.576 141.426 z"/>
<path transform="translate(0,0)" fill="rgb(8,11,132)" d="M 326.599 323.944 L 343.05 323.951 A 8088.65 8088.65 0 0 1 343.144 445.211 C 339.267 445.248 333.831 446.182 330.464 444.035 C 328.433 440.917 328.915 436.863 328.904 433.255 C 325.757 436.5 322.634 439.894 318.75 442.271 C 310.248 447.477 302.273 447.212 292.906 444.843 C 283.36 440.96 276.071 435.285 271.9 425.612 C 266.759 413.69 266.958 398.252 272.078 386.404 C 276.203 376.859 283.35 368.416 293.349 364.851 C 305.538 360.506 315.916 364.224 327.031 369.275 A 1677.08 1677.08 0 0 0 326.599 323.944 z"/>
<path transform="translate(0,0)" fill="rgb(253,247,231)" d="M 304.875 375.419 A 63.7326 63.7326 0 0 1 307.596 375.374 C 316.11 375.449 321.379 379.879 327.091 385.571 L 326.965 420.267 C 325.612 422.446 324.264 424.791 322.654 426.791 C 318.696 431.709 314.189 432.862 308.17 433.745 C 303.76 433.274 299.703 432.913 295.925 430.403 C 290.446 426.763 287.347 420.181 286.149 413.901 C 284.24 403.896 285.193 391.511 291.387 383.13 C 295.047 378.178 298.93 376.409 304.875 375.419 z"/>
<path transform="translate(0,0)" fill="rgb(8,11,132)" d="M 624.983 375.439 C 630.931 371.254 636.818 367.036 643.806 364.747 C 652.26 361.978 661.078 362.254 668.956 366.608 C 678.082 371.652 683.924 380.685 686.344 390.673 C 689.4 403.281 688.257 418.808 681.241 429.871 C 675.024 439.673 666.111 443.657 655.239 446.018 C 644.333 446.839 636.515 444.645 627.047 439.378 L 627.146 484.167 L 610.339 484.809 C 610.885 444.4 609.503 403.731 611.202 363.364 C 614.875 363.412 619.218 362.954 622.554 364.638 C 624.857 367.519 624.678 371.862 624.983 375.439 z"/>
<path transform="translate(0,0)" fill="rgb(253,247,231)" d="M 642.918 376.139 C 646.378 375.993 649.635 376.053 653.02 376.885 A 23.8892 23.8892 0 0 1 667.862 388.054 C 672.136 395.296 672.753 405.532 670.558 413.531 C 668.071 422.594 662.6 427.195 654.659 431.604 C 654.354 431.689 654.051 431.785 653.743 431.86 C 642.42 434.627 636.494 431.841 627.119 425.9 L 627.081 387.601 C 632.335 383.16 636.684 379.207 642.918 376.139 z"/>
<path transform="translate(0,0)" fill="rgb(8,11,132)" d="M 722.278 374.687 C 729.619 369.799 737.56 365.063 746.313 363.361 A 31.7935 31.7935 0 0 1 770.807 368.508 C 779.641 374.643 784.546 384.352 786.128 394.815 C 788.011 407.255 785.819 420.756 778.125 430.962 C 770.828 440.641 760.717 444.655 749.08 446.222 C 738.851 446.089 731.683 442.283 723.272 437 C 723.035 452.809 723.109 468.634 723.039 484.445 L 706.973 484.261 C 706.227 455.654 706.942 426.924 707.146 398.307 C 707.22 387.824 705.607 374.613 707.647 364.557 L 709.858 363.444 C 713.285 363.386 716.516 363.033 719.707 364.504 C 721.957 367.067 721.895 371.377 722.278 374.687 z"/>
<path transform="translate(0,0)" fill="rgb(253,247,231)" d="M 740.283 375.925 C 744.711 375.87 749.341 375.663 753.608 377.045 C 759.439 378.933 764.246 383.479 766.892 388.949 C 770.65 396.718 770.834 407.177 767.902 415.233 C 764.826 423.685 759.777 427.809 751.937 431.696 C 739.86 433.037 733.074 430.381 723.662 423.097 L 723.989 388.659 C 728.926 383.233 733.893 379.426 740.283 375.925 z"/>
<path transform="translate(0,0)" fill="rgb(252,85,31)" d="M 755.067 141.241 C 756.396 141.072 757.666 140.93 759.008 140.93 C 772.165 140.926 785.618 144.333 794.808 154.309 C 808.403 169.065 807.333 187.679 806.627 206.167 C 782.877 205.983 758.957 205.385 735.227 206.281 C 736.824 214.861 738.87 223.209 746.344 228.718 C 761.658 240.005 780.482 231.21 796.746 228.548 L 798.408 228.293 L 799.89 249.875 C 795.643 251.579 791.4 253.155 786.984 254.366 C 769.304 259.215 746.673 259.511 730.548 249.831 C 718.668 242.699 711.336 231.067 708.244 217.736 C 704.279 200.64 705.752 179.787 715.456 164.846 C 724.985 150.176 738.645 144.537 755.067 141.241 z"/>
<path transform="translate(0,0)" fill="rgb(253,247,231)" d="M 756.086 162.147 C 762.405 162.05 769.022 163.381 773.624 168.001 C 778.85 173.248 779.346 179.832 779.592 186.777 L 761.832 186.861 C 755.538 186.902 742.76 188.774 737.316 186.226 C 736.244 183.921 735.956 183.504 736.754 180.931 C 739.221 172.977 748.918 165.315 756.086 162.147 z"/>
<path transform="translate(0,0)" fill="rgb(252,85,31)" d="M 264.503 142.228 C 278.132 140.939 290.98 141.948 303.046 149.278 C 315.593 156.901 322.927 169.727 326.023 183.762 C 329.809 200.922 327.794 220.115 317.869 234.939 C 309.189 247.904 296.941 254.689 282.02 257.781 C 268.356 258.803 255.522 257.817 243.446 250.441 C 230.929 242.795 223.218 230.593 220.002 216.487 C 216.178 199.719 217.793 178.94 227.404 164.333 C 236.282 150.838 249.231 145.063 264.503 142.228 z"/>
<path transform="translate(0,0)" fill="rgb(253,247,231)" d="M 269.379 165.142 C 273.65 165.039 278.532 165.645 282.449 167.416 C 288.553 170.176 292.748 176.041 294.866 182.239 C 298.665 193.353 298.302 209.563 293.029 220.099 C 289.225 227.702 284.4 231.536 276.447 234.178 C 272.635 234.41 268.654 234.211 265.115 232.643 C 258.086 229.529 253.399 222.508 251.043 215.426 C 247.286 204.136 247.448 188.677 253.016 177.993 C 256.929 170.484 261.434 167.461 269.379 165.142 z"/>
<path transform="translate(0,0)" fill="rgb(252,85,31)" d="M 136.714 109.433 C 150.127 108.004 166.485 108.181 179.414 112.232 C 190.273 115.634 200.449 123.854 205.514 134.108 C 211.029 145.273 210.972 160.512 206.97 172.238 C 199.181 195.063 175.849 204.561 153.482 205.515 C 148.712 205.719 141.93 204.041 137.664 206.087 L 137.091 208.75 L 137.233 256.307 A 1948.99 1948.99 0 0 0 107.075 256.301 L 107.348 111.899 C 117.119 110.735 126.899 110.081 136.714 109.433 z"/>
<path transform="translate(0,0)" fill="rgb(253,247,231)" d="M 144.736 133.435 A 113.477 113.477 0 0 1 151.456 133.452 C 160.145 133.805 168.924 136.1 174.806 142.961 A 21.7765 21.7765 0 0 1 179.886 159.341 C 179.031 167.006 173.743 173.126 167.867 177.58 C 158.917 182.759 147.738 181.673 137.805 181.463 C 137.802 166.105 137.395 150.618 138.214 135.284 C 140.072 133.493 142.231 133.765 144.736 133.435 z"/>
<path transform="translate(0,0)" fill="rgb(233,235,216)" d="M 1055.03 363.766 C 1055.71 363.78 1056.38 363.757 1057.05 363.807 C 1061.48 364.14 1067.79 365.581 1070.29 369.653 C 1073.16 374.306 1070 381.693 1066.86 385.362 C 1058.72 394.859 1045.11 400.879 1035.18 408.528 C 1014.29 424.612 991.947 444.348 974.86 464.371 C 927.342 520.053 894.889 580.705 879.602 652.657 C 876.435 667.562 874.318 682.773 871.82 697.808 C 870.909 703.292 870.622 710.52 868.592 715.631 C 867.354 718.752 863.736 719.933 860.882 721.244 C 858.986 721.759 857.031 722.147 855.052 722.008 C 852.456 721.826 849.768 720.729 848.154 718.632 C 841.599 710.116 848.63 680.088 850.523 669.381 C 871.895 548.481 927.781 458.666 1025.2 384.299 C 1034.77 376.996 1045.16 370.656 1055.03 363.766 z"/>
<path transform="translate(0,0)" fill="rgb(252,85,31)" d="M 558.575 141.403 C 567.249 140.561 576.421 142.778 585.105 143.334 C 594.448 143.932 603.937 143.147 613.274 142.615 L 613.125 159.345 C 608.828 159.715 604.542 160.33 600.262 160.868 C 602.278 171.659 603.929 183.495 599.423 193.896 C 587.255 221.978 556.652 207.766 545.78 214.136 C 543.766 215.316 542.613 217.227 542.584 219.588 C 542.396 234.772 588.195 221.792 603.446 235.431 C 609.04 240.433 611.187 247.576 611.392 254.89 C 611.737 267.163 607.494 275.746 599.245 284.471 A 78.5333 78.5333 0 0 1 595.631 287.139 C 579.418 298.272 555.794 298.744 537.122 294.961 C 526.826 292.875 516.304 287.978 510.602 278.74 C 507.364 273.494 506.216 267.471 507.951 261.501 C 510.755 251.856 517.7 246.596 525.922 241.868 C 521.915 237.157 517.978 229.479 518.422 223.128 C 518.993 214.969 525.321 210.251 530.944 205.214 C 522.957 198.292 516.452 190.19 515.393 179.284 C 514.546 170.562 517.344 162.176 523.141 155.619 C 532.451 145.089 545.278 142.484 558.575 141.403 z"/>
<path transform="translate(0,0)" fill="rgb(253,247,231)" d="M 556.114 158.13 C 558.572 157.945 561.196 157.957 563.587 158.654 C 568.125 159.976 572.296 163.269 574.602 167.388 C 577.257 172.132 577.704 177.895 576.118 183.064 C 574.093 189.666 569.873 192.676 564.025 195.786 C 560.661 195.965 557.037 195.998 553.861 194.699 C 549.628 192.967 546.2 188.939 544.472 184.787 A 21.051 21.051 0 0 1 544.567 168.707 C 547.009 162.932 550.516 160.533 556.114 158.13 z"/>
<path transform="translate(0,0)" fill="rgb(253,247,231)" d="M 543.439 246.836 C 550.637 248.99 557.173 248.493 564.541 248.941 C 572.355 249.415 580.873 250.096 586.37 256.292 C 586.995 258.906 587.361 259.724 586.193 262.28 C 583.86 267.384 578.706 270.158 573.884 272.318 C 572.964 272.589 572.045 272.869 571.109 273.082 C 561.468 275.281 547.058 276.389 538.505 270.801 C 535.919 269.111 533.95 266.801 533.675 263.589 C 533.101 256.893 539.145 251.094 543.439 246.836 z"/>
<path transform="translate(0,0)" fill="rgb(253,247,231)" d="M 130.683 1021.16 A 1621.26 1621.26 0 0 0 119.264 965.984 C 115.135 947.713 107.601 926.189 108.273 907.45 A 60.1107 60.1107 0 0 1 118.482 876.232 C 127.319 863.207 140.772 853.749 156.365 850.877 C 168.85 848.578 182.11 849.228 194.771 849.205 L 245.621 849.16 L 424.724 849.057 L 588.965 849.503 C 612.024 849.6 639.409 847.403 661.864 849.881 C 674.674 851.294 686.226 856.535 696.697 863.891 C 707.455 871.448 715.563 880.597 721.2 892.535 C 729.407 909.916 731.656 931.442 735.393 950.253 C 741.297 979.964 746.657 1009.79 753.254 1039.36 L 797.38 1254.67 C 811.044 1322.4 823.812 1390.62 839.229 1457.94 C 856.052 1455.32 940.655 1476.35 964.241 1480.78 C 999.007 1487.31 1034.3 1493.31 1069.42 1497.61 C 1091.61 1500.33 1114.18 1501.13 1136.46 1503.05 C 1156.94 1504.83 1177.37 1507.76 1197.83 1509.34 C 1227.92 1511.66 1258.81 1512.25 1289 1512.89 L 1373.3 1514.06 C 1388.44 1514.13 1404.1 1513.25 1419.17 1514.26 C 1407.59 1416.66 1419.16 1318.9 1445.42 1224.4 C 1451.81 1201.4 1463.21 1179.51 1468.75 1156.49 C 1468.84 1156.1 1468.92 1155.72 1469.01 1155.34 L 1471.54 1154.37 L 1472.51 1153.28 C 1480.82 1157.41 1494.24 1156.07 1503.48 1155.69 C 1540.6 1154.16 1571.86 1140.33 1596.86 1113.09 L 1603.52 1115.79 L 1604.87 1113.05 C 1639.62 1131.51 1669.99 1171.47 1681.46 1208.7 C 1689.66 1235.32 1682.6 1259.66 1682.53 1286.59 C 1682.38 1335.6 1696 1428.85 1717.21 1472.36 C 1734.31 1471.33 1754.51 1462.59 1770.66 1456.89 C 1856.28 1426.66 1978.85 1369.99 2048 1312.07 L 2048 2048 L 0 2048 L 0 1724.22 L 0 1174.55 C 12.0982 1161.16 21.257 1144.93 32.1631 1130.55 C 55.6545 1099.57 80.1447 1070.76 107.114 1042.77 C 112.468 1037.21 120.534 1026.69 127.518 1023.9 C 129.605 1023.07 129.41 1022.92 130.683 1021.16 z"/>
<path transform="translate(0,0)" fill="rgb(3,3,2)" d="M 1602.18 1772.35 C 1604.47 1771.1 1606.33 1770.4 1608.87 1769.84 C 1608.87 1780.71 1611.63 1791.45 1614.05 1802 C 1627.46 1806.64 1633.81 1817.37 1639.67 1829.62 C 1644.28 1839.25 1648.66 1850.7 1644.88 1861.29 C 1642.24 1868.67 1636.1 1874.07 1629.08 1877.18 C 1609.02 1886.03 1589.23 1877.68 1568.63 1878.56 C 1540.46 1879.76 1519.14 1893.68 1489.81 1881.86 C 1483.16 1879.18 1477.23 1874.94 1474.35 1868.17 C 1472.61 1864.07 1471.78 1859.18 1473.52 1854.95 C 1476.55 1847.56 1485.07 1843.65 1492.07 1841.01 C 1500.52 1837.82 1510.36 1835.83 1518.21 1831.46 C 1529.82 1824.99 1526.53 1813.32 1542.98 1812.05 C 1545.11 1810.67 1546.07 1809.33 1547.59 1807.38 C 1549.48 1804.94 1558.29 1800.79 1558.67 1799.58 C 1559.26 1797.65 1558.24 1793.46 1558.59 1791.04 L 1562.68 1790.13 C 1570.16 1782.92 1591.58 1776.99 1602.18 1772.35 z"/>
<path transform="translate(0,0)" fill="rgb(253,247,231)" d="M 1562.68 1790.13 C 1570.16 1782.92 1591.58 1776.99 1602.18 1772.35 C 1605.64 1781.35 1607.29 1791.2 1609.38 1800.59 L 1608.24 1801.32 C 1601.38 1805.76 1593.05 1816.65 1584.23 1814.59 C 1577.36 1812.98 1570.52 1806.33 1564.96 1802.04 L 1562.68 1790.13 z"/>
<path transform="translate(0,0)" fill="rgb(199,208,212)" d="M 1640.69 1851.85 L 1641.47 1852.68 C 1642.03 1856.37 1641.55 1858.94 1639.41 1861.96 C 1623.66 1884.18 1590.2 1871.65 1568.13 1873.24 C 1555.23 1874.18 1543.19 1878.63 1530.51 1880.65 C 1513.3 1883.4 1496.44 1881.57 1482.14 1871.05 C 1480.45 1869.01 1479.42 1866.93 1478.29 1864.57 L 1478.95 1863.72 C 1496.96 1875.07 1516.91 1878.21 1537.44 1872.03 C 1546.72 1869.24 1556.08 1865.48 1565.72 1864.21 C 1580.13 1862.32 1594.59 1865.28 1609.01 1865.25 C 1622.25 1865.22 1631.49 1861.03 1640.69 1851.85 z"/>
<path transform="translate(0,0)" fill="rgb(252,85,31)" d="M 1611.38 1805.99 C 1613.26 1806.42 1615.2 1806.84 1617.01 1807.53 C 1628.42 1811.88 1634.69 1833.31 1639.23 1843.54 C 1636.62 1847.96 1633.65 1852.22 1629.34 1855.15 C 1614.1 1865.49 1585.65 1857.72 1567.77 1859.29 C 1552.01 1860.67 1537.73 1868.68 1522.05 1869.71 C 1513.68 1870.26 1505.59 1868.7 1497.37 1867.36 C 1489.91 1864.65 1484.41 1861.49 1478.59 1856.07 C 1490.96 1843.75 1508.45 1842.94 1522.71 1834.01 C 1534.1 1826.89 1541.68 1815.08 1554.49 1809.44 C 1568.75 1803.15 1571.13 1816.46 1582.62 1820.6 C 1594.81 1824.99 1600.75 1810.47 1610.44 1806.37 C 1610.75 1806.24 1611.07 1806.12 1611.38 1805.99 z"/>
<path transform="translate(0,0)" fill="rgb(3,3,2)" d="M 1872.74 1725.05 C 1872.87 1724.75 1872.94 1724.41 1873.14 1724.15 C 1874.62 1722.31 1875.77 1721.69 1877.92 1721.14 C 1882.98 1727.1 1888.19 1731.07 1894.81 1735.28 C 1913.87 1733.96 1932.15 1749.05 1945.91 1761.18 C 1951.84 1766.41 1957.59 1773.5 1957.87 1781.78 C 1958.43 1798.78 1930.72 1821.83 1921.22 1835.54 C 1914.24 1845.63 1909.79 1858.24 1901.23 1867.12 C 1897.6 1870.89 1892.75 1874.2 1887.74 1875.78 C 1876.37 1879.39 1845.19 1879.55 1832.76 1879.42 C 1820.85 1879.29 1806.59 1878.04 1797.87 1868.98 C 1794.32 1865.3 1792.06 1860.46 1792.24 1855.29 C 1792.49 1848.06 1796.66 1842.05 1802.04 1837.52 C 1816.66 1825.21 1841.07 1831.17 1843.7 1806.54 C 1845.13 1793.11 1841.03 1777.74 1851.61 1766.98 C 1846.99 1762.07 1841.71 1754.68 1834.41 1754.34 L 1834.75 1752.87 C 1837.26 1750.98 1838.99 1750.69 1841.99 1750.31 C 1852.15 1742.43 1864.94 1735.42 1872.74 1725.05 z"/>
<path transform="translate(0,0)" fill="rgb(253,247,231)" d="M 1872.74 1725.05 C 1878.41 1730.16 1884.81 1733.99 1891.28 1738 L 1890.3 1738.91 C 1882.68 1746.18 1877.14 1764.42 1865.69 1764.47 C 1863.47 1764.48 1861.23 1764.13 1859.02 1763.88 L 1855.33 1763.47 A 503.653 503.653 0 0 0 1841.99 1750.31 C 1852.15 1742.43 1864.94 1735.42 1872.74 1725.05 z"/>
<path transform="translate(0,0)" fill="rgb(199,208,212)" d="M 1931.72 1756.59 C 1935.14 1758.74 1937.88 1761.27 1940.81 1764.03 C 1931.3 1781.25 1917.2 1796.2 1906.05 1812.4 C 1896.75 1825.92 1889.99 1841.42 1879.51 1854.07 C 1874.43 1860.21 1868.54 1865.6 1861.38 1869.22 C 1845.14 1877.43 1825 1875.7 1808.19 1870.4 C 1804.96 1868.61 1802.29 1866.16 1799.5 1863.78 L 1801.25 1864.23 C 1820.7 1869.17 1843.21 1870.13 1860.91 1859.12 C 1883.05 1845.34 1884.59 1826.97 1897.55 1808.8 C 1910.47 1790.7 1926.29 1779.45 1931.72 1756.59 z"/>
<path transform="translate(0,0)" fill="rgb(49,53,119)" d="M 1945.16 1766.74 C 1949.27 1770.68 1953.21 1774.78 1954.08 1780.65 C 1955.81 1792.27 1926.75 1821.06 1919.2 1831.5 C 1912.5 1840.76 1907.39 1851.06 1900.41 1860.14 C 1894.9 1867.3 1887.86 1870.93 1878.98 1872.06 L 1868.22 1871.59 L 1867.81 1871.02 C 1872.25 1867.45 1877.18 1864.22 1881.14 1860.1 C 1892.95 1847.86 1901.66 1826.96 1911.35 1812.41 C 1921.85 1796.67 1933.5 1781.64 1945.16 1766.74 z"/>
<path transform="translate(0,0)" fill="rgb(252,85,31)" d="M 1896.99 1741.18 C 1904.43 1740.56 1911.59 1741.31 1917.89 1745.69 C 1921.59 1748.27 1924.83 1751.85 1925.48 1756.47 C 1926.14 1761.2 1924.29 1765.9 1922 1769.95 C 1915.07 1782.17 1904.12 1791.15 1896.01 1802.42 C 1886.66 1815.41 1881.3 1830.76 1871.02 1843.35 C 1858.91 1858.2 1845.81 1860.01 1827.85 1861.96 C 1821.17 1862.08 1814.28 1862.06 1807.67 1861.04 C 1803.72 1860.43 1800.1 1859.66 1797.61 1856.32 C 1796.91 1853.93 1797.37 1852.25 1798.25 1849.99 C 1803.91 1835.41 1824.4 1834.6 1836.5 1828.48 C 1856.96 1818.13 1844.58 1795.23 1850.57 1778.16 C 1856.09 1762.41 1867.61 1774.38 1876.3 1767.29 C 1885.56 1759.73 1884.02 1746.98 1896.99 1741.18 z"/>
<path transform="translate(0,0)" fill="rgb(69,83,201)" d="M 1184.93 1518.39 C 1200.99 1523.15 1221.63 1533.09 1235.96 1541.76 C 1230.89 1555.74 1224.43 1569.46 1218.86 1583.28 A 5563.17 5563.17 0 0 1 1180.55 1678.22 C 1193.8 1678.69 1210.53 1675.61 1223.12 1679.09 C 1223.13 1679.22 1223.12 1679.35 1223.15 1679.48 C 1223.92 1682.93 1224.33 1686.25 1224.6 1689.77 C 1225.01 1695.12 1226.55 1729.72 1223.84 1732.18 C 1220.16 1735.51 1211.08 1734.72 1206.31 1734.84 C 1200.8 1772.62 1196.58 1810.56 1191.32 1848.37 C 1189.18 1863.74 1187.96 1879.69 1184.53 1894.82 L 1041.7 1894.81 C 1021.04 1894.83 992.873 1896.75 973.023 1894.37 C 968.061 1889.32 968.016 1876.16 967.289 1869.21 C 960.279 1824.39 957.822 1778.12 948.189 1733.81 C 942.62 1733.98 933.609 1735.22 928.771 1732.43 C 927.057 1723.34 926.148 1684.86 929.786 1677.8 C 939.18 1675.13 952.218 1676.85 962.083 1676.98 A 5306.27 5306.27 0 0 0 962.01 1611.48 C 961.977 1600.26 960.598 1587.1 963.03 1576.2 L 964.466 1576.43 L 965.023 1575.22 C 978.965 1571.98 1008.26 1574.12 1023.55 1574.1 C 1057.06 1574.08 1093.37 1572.17 1126.62 1575.14 C 1128.31 1585.27 1127.62 1596.14 1127.58 1606.4 C 1127.51 1623.73 1127.23 1641.06 1128.03 1658.37 C 1138.91 1628.99 1151.22 1599.87 1163.18 1570.9 C 1170.4 1553.41 1177.02 1535.57 1184.93 1518.39 z"/>
<path transform="translate(0,0)" fill="rgb(253,247,231)" d="M 937.084 1686.9 C 1029.82 1686.75 1122.62 1688.12 1215.33 1687.06 A 563.747 563.747 0 0 1 1215.78 1725.25 L 937.097 1725.47 L 937.084 1686.9 z"/>
<path transform="translate(0,0)" fill="rgb(252,85,31)" d="M 971.895 1583.27 C 991.715 1584.76 1012.26 1583.37 1032.18 1583.27 A 8378.83 8378.83 0 0 1 1119.72 1583.95 C 1118.73 1615.2 1119.18 1646.56 1119.14 1677.83 L 971.16 1677.65 C 971.028 1646.35 969.912 1614.51 971.895 1583.27 z"/>
<path transform="translate(0,0)" fill="rgb(103,127,234)" d="M 957.907 1734.81 C 984.22 1734.33 1010.64 1734.91 1036.97 1734.93 L 1197.41 1735.08 C 1196.77 1751.69 1193.23 1768.75 1190.82 1785.22 A 2829.71 2829.71 0 0 0 1180.07 1867.1 C 1179.15 1873.3 1178.55 1879.54 1177.58 1885.75 L 978.61 1885.04 C 976.12 1870.29 975.341 1854.98 973.399 1840.1 A 4172.82 4172.82 0 0 0 957.907 1734.81 z"/>
<path transform="translate(0,0)" fill="rgb(69,83,201)" d="M 1596.86 1113.09 L 1603.52 1115.79 L 1604.87 1113.05 C 1639.62 1131.51 1669.99 1171.47 1681.46 1208.7 C 1689.66 1235.32 1682.6 1259.66 1682.53 1286.59 C 1682.38 1335.6 1696 1428.85 1717.21 1472.36 C 1740.84 1518.5 1778.58 1556.42 1814.11 1593.44 L 1882.17 1664.32 C 1891.97 1674.53 1903.44 1683.77 1912.54 1694.56 C 1901.25 1703.77 1889.61 1712.45 1877.92 1721.14 C 1875.77 1721.69 1874.62 1722.31 1873.14 1724.15 C 1872.94 1724.41 1872.87 1724.75 1872.74 1725.05 C 1864.94 1735.42 1852.15 1742.43 1841.99 1750.31 C 1838.99 1750.69 1837.26 1750.98 1834.75 1752.87 L 1834.41 1754.34 C 1826.91 1762.94 1806.16 1776.22 1795.79 1780.32 A 2099 2099 0 0 1 1592.3 1508.56 C 1580.12 1514.13 1563.12 1515.32 1549.83 1514.41 C 1553 1572.12 1590.09 1657.96 1614.08 1711.86 C 1620.74 1726.82 1626.83 1743.2 1635.6 1757.03 A 447.823 447.823 0 0 1 1608.87 1769.84 C 1606.33 1770.4 1604.47 1771.1 1602.18 1772.35 C 1591.58 1776.99 1570.16 1782.92 1562.68 1790.13 L 1558.59 1791.04 C 1541.92 1795.8 1525.48 1802.66 1509.18 1808.63 C 1499.7 1792.53 1492.91 1773.15 1485.58 1755.97 C 1460.08 1696.12 1439.76 1635.67 1427.69 1571.58 C 1424.13 1552.64 1421.83 1533.36 1419.17 1514.26 C 1407.59 1416.66 1419.16 1318.9 1445.42 1224.4 C 1451.81 1201.4 1463.21 1179.51 1468.75 1156.49 C 1468.84 1156.1 1468.92 1155.72 1469.01 1155.34 L 1471.54 1154.37 L 1472.51 1153.28 C 1480.82 1157.41 1494.24 1156.07 1503.48 1155.69 C 1540.6 1154.16 1571.86 1140.33 1596.86 1113.09 z"/>
<path transform="translate(0,0)" fill="rgb(3,3,2)" d="M 1612.01 1288.14 C 1612.53 1290.6 1612.66 1292.33 1611.29 1294.58 C 1608.02 1299.95 1598.08 1303.68 1592.23 1305.16 L 1583.8 1307.94 C 1583.64 1307.59 1583.42 1307.27 1583.33 1306.91 C 1582.7 1304.29 1582.95 1303.56 1584.32 1301.48 A 86.4868 86.4868 0 0 0 1612.01 1288.14 z"/>
<path transform="translate(0,0)" fill="rgb(253,247,231)" d="M 1584.32 1301.48 C 1584.38 1300.76 1584.95 1299.29 1585.43 1298.77 C 1588.7 1295.24 1602.85 1286.28 1608.41 1281.16 C 1624.91 1265.96 1620.04 1249.56 1630.08 1233.01 C 1631.29 1231.02 1630.56 1231.53 1632.51 1231.07 C 1633.74 1235.03 1632.96 1240.01 1632.32 1244.08 C 1630.24 1257.17 1623.19 1279.94 1612.01 1288.14 A 86.4868 86.4868 0 0 1 1584.32 1301.48 z"/>
<path transform="translate(0,0)" fill="rgb(49,53,119)" d="M 1596.86 1113.09 L 1603.52 1115.79 C 1592.18 1137.09 1567.24 1149.62 1545.09 1156.43 C 1528.97 1161.38 1493.16 1167.09 1477.83 1159.12 C 1475.54 1157.93 1473.44 1156.09 1471.54 1154.37 L 1472.51 1153.28 C 1480.82 1157.41 1494.24 1156.07 1503.48 1155.69 C 1540.6 1154.16 1571.86 1140.33 1596.86 1113.09 z"/>
<path transform="translate(0,0)" fill="rgb(233,235,216)" d="M 1592.23 1305.16 C 1592.16 1305.79 1592.1 1306.43 1592.02 1307.06 C 1590.3 1319.73 1582.66 1332.68 1578.53 1344.81 C 1571.38 1365.75 1554.24 1419.09 1557.77 1439.09 C 1559.87 1451 1585.15 1497.25 1592.3 1508.56 C 1580.12 1514.13 1563.12 1515.32 1549.83 1514.41 C 1544.01 1461.23 1551.17 1409.86 1566.82 1358.97 C 1571.9 1342.45 1580.1 1326.36 1583.5 1309.44 L 1583.8 1307.94 L 1592.23 1305.16 z"/>
<path transform="translate(0,0)" fill="rgb(69,83,201)" d="M 130.683 1021.16 A 1621.26 1621.26 0 0 0 119.264 965.984 C 115.135 947.713 107.601 926.189 108.273 907.45 A 60.1107 60.1107 0 0 1 118.482 876.232 C 127.319 863.207 140.772 853.749 156.365 850.877 C 168.85 848.578 182.11 849.228 194.771 849.205 L 245.621 849.16 L 424.724 849.057 L 588.965 849.503 C 612.024 849.6 639.409 847.403 661.864 849.881 C 674.674 851.294 686.226 856.535 696.697 863.891 C 707.455 871.448 715.563 880.597 721.2 892.535 C 729.407 909.916 731.656 931.442 735.393 950.253 C 741.297 979.964 746.657 1009.79 753.254 1039.36 L 797.38 1254.67 C 811.044 1322.4 823.812 1390.62 839.229 1457.94 C 847.927 1490.16 852.967 1523.72 859.332 1556.46 L 888.356 1699.21 A 3181.82 3181.82 0 0 0 904.746 1776.64 C 909.129 1796.3 915.542 1818.4 916.608 1838.4 C 917.027 1846.26 914.131 1856.19 910.223 1863.03 C 901.987 1877.43 887.556 1887.81 871.525 1891.79 C 851.444 1896.77 812.833 1893.86 790.865 1893.85 L 630.059 1893.71 L 455.369 1893.67 C 427.112 1893.65 398.03 1895.57 369.922 1893.38 C 358.036 1892.45 347.321 1888.89 337.125 1882.72 C 318.53 1871.47 308.582 1854.38 303.624 1833.65 C 298.772 1813.37 295.016 1792.79 290.609 1772.4 L 258.191 1618 C 251.924 1587.23 246.033 1556.34 238.686 1525.81 C 170.047 1562.59 91.2013 1628.64 36.2239 1684.18 C 23.7112 1696.82 10.4538 1709.78 0 1724.22 L 0 1174.55 C 12.0982 1161.16 21.257 1144.93 32.1631 1130.55 C 55.6545 1099.57 80.1447 1070.76 107.114 1042.77 C 112.468 1037.21 120.534 1026.69 127.518 1023.9 C 129.605 1023.07 129.41 1022.92 130.683 1021.16 z"/>
<path transform="translate(0,0)" fill="rgb(233,235,216)" d="M 130.683 1021.16 C 142.075 1067.71 151.275 1114.9 161.349 1161.75 L 238.686 1525.81 C 170.047 1562.59 91.2013 1628.64 36.2239 1684.18 C 23.7112 1696.82 10.4538 1709.78 0 1724.22 L 0 1174.55 C 12.0982 1161.16 21.257 1144.93 32.1631 1130.55 C 55.6545 1099.57 80.1447 1070.76 107.114 1042.77 C 112.468 1037.21 120.534 1026.69 127.518 1023.9 C 129.605 1023.07 129.41 1022.92 130.683 1021.16 z"/>
<path transform="translate(0,0)" fill="rgb(253,247,231)" d="M 168.613 876.429 C 205.673 875.329 242.92 875.994 280 875.993 L 475.108 876.053 L 593.754 876.084 C 614.4 876.092 636.032 874.811 656.545 876.651 C 664.81 877.392 673.425 880.674 680.304 885.329 C 690.445 892.192 696.6 901.297 700.134 912.868 C 704.149 926.017 706.337 939.901 709.071 953.374 A 4030.69 4030.69 0 0 1 724.012 1030.93 A 9680.7 9680.7 0 0 0 754.448 1179.41 L 885.374 1808.83 C 888.37 1822.93 894.732 1840.21 885.872 1853.08 C 879.753 1861.97 870.422 1865.12 860.25 1866.82 C 752.643 1868.27 644.892 1867.15 537.268 1867.24 L 427.27 1866.97 C 409.393 1866.92 390.242 1868.49 372.532 1866.4 C 362.852 1865.26 353.49 1861.62 346.024 1855.27 C 336.408 1847.09 331.827 1835.66 328.739 1823.77 C 322.806 1800.92 319.061 1777.52 314.429 1754.39 C 308.585 1725.2 302.018 1696.15 295.969 1667.01 L 220.763 1307.67 L 156.208 1007.94 C 151.467 985.348 146.033 962.911 140.922 940.4 C 138.775 930.945 135.263 920.873 134.667 911.223 C 134.134 902.596 136.29 894.163 142.192 887.678 C 149.502 879.644 158.234 877.143 168.613 876.429 z"/>
<path transform="translate(0,0)" fill="rgb(69,83,201)" d="M 394.52 908.449 C 407.558 908.229 444.987 905.113 455.058 910.532 C 457.889 912.055 460.124 914.491 460.857 917.702 C 461.697 921.383 460.551 926.748 458.075 929.628 C 455.49 932.632 451.96 933.103 448.25 933.255 C 436.223 933.226 391.432 935.611 384.141 930.264 A 10.7064 10.7064 0 0 1 379.743 922.263 C 379.489 918.58 381.124 914.272 383.672 911.613 C 386.693 908.461 390.44 908.668 394.52 908.449 z"/>
<path transform="translate(0,0)" fill="rgb(69,83,201)" d="M 665.908 1019.54 C 669.553 1019.36 672.883 1020.16 676.019 1021.94 C 677.455 1023.95 678.008 1023.79 677.629 1026.37 C 674.929 1028.98 670.334 1029.2 666.773 1029.45 C 658.568 1030.01 650.187 1029.27 641.956 1029.28 L 589.946 1029.77 L 501.998 1031.74 A 4670.12 4670.12 0 0 0 377.875 1033.96 C 374.058 1033.99 369.514 1034.61 366.102 1032.69 C 365.013 1030.38 364.978 1030.26 365.466 1027.75 C 368.182 1024.9 371.601 1024.28 375.391 1023.88 C 383.982 1022.98 392.946 1023.77 401.595 1023.58 C 425.023 1023.07 448.405 1022.44 471.842 1022.26 C 536.472 1021.76 601.312 1021.62 665.908 1019.54 z"/>
<path transform="translate(0,0)" fill="rgb(69,83,201)" d="M 644.869 1222.43 C 657.362 1221.89 669.992 1222.34 682.506 1222.2 C 689.186 1222.12 696.334 1221.23 702.941 1222 C 705.117 1222.25 706.929 1222.88 708.601 1224.36 C 710.371 1225.93 710.619 1225.88 710.72 1228.32 C 707.851 1231.06 703.375 1231.31 699.598 1231.6 C 690.504 1232.29 681.224 1231.77 672.101 1231.86 L 612.207 1232.47 C 565.148 1232.92 518.134 1234.31 471.058 1234.22 C 452.155 1234.37 431.587 1236.45 412.858 1234.57 C 409.629 1234.25 407.661 1234.31 405.687 1231.74 C 405.751 1229.21 405.229 1228.4 406.943 1226.41 C 418.2 1222.24 435.193 1225.11 447.233 1224.84 A 5990.9 5990.9 0 0 1 584.5 1223.14 C 604.617 1222.95 624.766 1223.26 644.869 1222.43 z"/>
<path transform="translate(0,0)" fill="rgb(69,83,201)" d="M 656.371 1386.53 C 668.229 1386.19 743.265 1383.88 749.521 1387.48 C 750.644 1389.95 750.349 1389.4 749.52 1391.72 C 747.889 1393.29 746.39 1394.66 744.061 1395.1 C 739.454 1395.97 733.98 1395.15 729.257 1395.23 L 680.584 1395.96 C 629.75 1396.31 578.52 1396.07 527.751 1398.1 C 516.737 1398.51 505.651 1398.06 494.619 1398.37 C 479.764 1398.8 458.406 1401.94 444.073 1398.95 C 441.46 1398.41 440.573 1397.36 439.074 1395.28 C 439.262 1393.73 439.001 1392.94 440.227 1391.79 C 441.755 1390.36 443.344 1389.78 445.39 1389.61 C 455.108 1388.79 465.399 1389.3 475.181 1389.1 C 497.534 1388.64 519.814 1388.17 542.178 1388.1 C 580.25 1387.99 618.299 1386.91 656.371 1386.53 z"/>
<path transform="translate(0,0)" fill="rgb(69,83,201)" d="M 640.143 1057.46 C 653.449 1057.03 670.212 1054.66 682.5 1060.56 L 682.303 1063.53 C 678.602 1065.48 674.188 1066.38 670.044 1066.75 C 661.734 1067.49 653.057 1066.97 644.693 1067.15 A 2519.22 2519.22 0 0 1 579.304 1068.1 L 412.75 1069.75 C 404.477 1069.7 383.655 1071.26 376.931 1069.82 C 374.841 1069.37 374.463 1068.79 372.88 1067.49 C 372.203 1064.7 372.235 1064.24 373.069 1061.49 C 375.165 1059.89 377.707 1060.15 380.319 1060.05 C 412.218 1058.82 444.684 1059.61 476.625 1059.52 L 640.143 1057.46 z"/>
<path transform="translate(0,0)" fill="rgb(69,83,201)" d="M 654.547 1349.42 C 668.844 1348.56 733.194 1347.09 743.314 1350.68 C 744.163 1353.39 744.496 1353.48 743.357 1356.02 C 741.226 1357.47 739.438 1358.01 736.911 1358.25 C 729.636 1358.95 721.972 1358.48 714.641 1358.6 A 3278.83 3278.83 0 0 1 664.031 1359.13 L 525.713 1361.02 C 513.276 1361.57 444.637 1364.46 436.958 1360.31 C 434.864 1359.18 434.239 1358.31 433.74 1356.05 C 435.841 1353.82 437.38 1352.87 440.549 1352.42 C 447.036 1351.51 454.257 1351.96 460.841 1351.79 A 1403.02 1403.02 0 0 1 510.939 1351.1 C 538.584 1351.11 566.217 1350.35 593.859 1350.13 C 614.062 1349.97 634.371 1350.52 654.547 1349.42 z"/>
<path transform="translate(0,0)" fill="rgb(69,83,201)" d="M 675.11 1184.48 C 682.286 1184.37 696.445 1182.63 701.87 1187.71 C 702.09 1189.79 702.126 1190.78 700.52 1192.47 C 697.407 1195.74 688.347 1194.24 684.104 1194.21 C 666.649 1194.09 649.079 1195.37 631.601 1195.62 L 486.804 1196.97 C 467.643 1197.07 447.245 1199.6 428.25 1198.06 C 420.907 1197.96 413.499 1198.76 406.171 1198.22 C 402.384 1197.94 400.012 1197.44 397.538 1194.48 C 397.886 1191.89 397.988 1191.54 399.636 1189.53 C 401.419 1188.65 402.841 1188.07 404.854 1187.93 C 436.957 1185.82 470.022 1187.22 502.234 1187.05 C 559.785 1186.75 617.583 1185.96 675.11 1184.48 z"/>
<path transform="translate(0,0)" fill="rgb(69,83,201)" d="M 353.837 1357.44 C 364.546 1357.12 386.067 1354.12 394.29 1361.75 C 402.495 1369.36 421.085 1459.28 421.082 1475.65 C 421.082 1479.62 420.163 1482.1 417.281 1484.92 C 413.834 1488.28 409.366 1489.52 404.71 1490.24 C 389.79 1492.56 357.323 1490.92 340.549 1491.01 A 1045.8 1045.8 0 0 1 309.25 1490.9 A 171.302 171.302 0 0 1 307.063 1489.6 C 298.022 1484.11 296.517 1478.53 294.162 1468.55 C 290.104 1451.35 286.681 1433.95 282.759 1416.71 C 279.864 1403.98 275.846 1390.62 274.579 1377.63 C 274.217 1373.92 273.59 1368.35 276.113 1365.23 C 279.013 1361.65 284.832 1359.98 289.167 1359.24 C 305.836 1356.42 335.232 1358.3 353.837 1357.44 z"/>
<path transform="translate(0,0)" fill="rgb(253,247,231)" d="M 351.301 1366.54 C 360.946 1366.15 371.485 1364.92 381.059 1365.72 C 383.625 1365.94 385.332 1366.02 386.934 1368.22 C 392.863 1376.35 407.788 1452.41 409.576 1466.67 C 410.125 1471.04 410.199 1475.24 409.566 1479.62 L 408.117 1479.25 L 409.153 1480.4 C 398.291 1484.49 356.35 1482.07 342.5 1482.03 C 334.843 1482.15 316.914 1484.27 310.848 1480.23 C 308.213 1478.47 306.668 1473.49 305.771 1470.67 C 301.793 1458.14 299.723 1444.5 296.851 1431.62 C 293.266 1415.54 288.935 1399.46 285.804 1383.3 C 284.933 1378.8 283.569 1373.05 286.269 1369.12 C 299.54 1365.81 335.821 1366.91 351.301 1366.54 z"/>
<path transform="translate(0,0)" fill="rgb(252,85,31)" d="M 372.643 1376.2 C 374.908 1376.66 377.012 1377 379.049 1378.16 C 380.568 1379.03 380.323 1379.61 380.768 1381.18 C 379.166 1387.73 352.97 1457.79 351.111 1460.02 C 350.341 1460.94 349.831 1461.66 348.533 1461.59 C 341.256 1461.18 330.203 1442.37 325.86 1436.67 C 322.821 1432.98 317.916 1428.21 317.251 1423.37 C 317.82 1422.45 318.767 1420.63 319.647 1419.89 C 321.537 1418.3 323.322 1417.63 325.763 1418.34 C 332.528 1420.28 341.194 1436.71 345.226 1442.41 C 352.071 1426.68 363.223 1386.77 372.643 1376.2 z"/>
<path transform="translate(0,0)" fill="rgb(69,83,201)" d="M 216.812 1023.21 C 231.771 1022.56 314.298 1021.26 322.938 1024.91 C 325.872 1026.15 329.676 1028.65 330.794 1031.76 C 330.928 1032.13 331.037 1032.51 331.162 1032.88 C 336.982 1050.3 339.786 1069.51 343.743 1087.47 C 347.652 1105.22 353.583 1124.55 354.948 1142.66 C 355.156 1145.42 355.131 1147.4 353.855 1149.9 C 351.202 1155.1 346.906 1156.59 341.581 1158.14 C 317.608 1158.08 293.611 1159.22 269.616 1159.28 C 259.884 1159.31 249.192 1160.06 239.586 1158.4 C 235.664 1157.73 233.68 1157.38 231.492 1153.9 C 224.969 1143.53 201.872 1041.6 204.902 1033 C 206.564 1028.28 212.633 1025.29 216.812 1023.21 z"/>
<path transform="translate(0,0)" fill="rgb(253,247,231)" d="M 218.581 1033.43 C 236.63 1032.66 254.921 1033.13 272.999 1033.01 C 287.811 1032.92 305.649 1031 320.123 1034.14 C 323.118 1038.35 344.263 1137.15 344.913 1145.2 C 343.37 1147.6 342.589 1147.71 339.941 1148.92 C 325.999 1149.62 249.989 1151.41 241.347 1148.29 C 239.189 1147.51 238.631 1147.3 237.721 1145.25 C 234.258 1137.45 230.723 1113.96 228.703 1104.4 C 224.199 1083.1 218.27 1061.47 214.934 1039.99 C 214.61 1037.9 214.436 1036.62 215.274 1034.61 L 218.581 1033.43 z"/>
<path transform="translate(0,0)" fill="rgb(69,83,201)" d="M 416.183 1688.53 C 429.266 1688.22 454.925 1684.65 465.176 1692.9 C 467.112 1696.9 468.53 1701.03 469.683 1705.32 C 474.427 1722.96 477.31 1741.34 481.358 1759.17 C 484.567 1773.32 492.044 1797.35 492.597 1810.96 C 492.75 1814.72 490.587 1818.6 487.981 1821.17 C 479.467 1829.59 431.528 1826.08 418.5 1826.01 C 408.709 1826.06 376.311 1828.25 370.192 1822.71 C 366.31 1819.19 364.339 1808.58 363.187 1803.53 C 360.11 1790.04 338.246 1702.46 344.832 1694.6 C 352.302 1685.7 403.13 1688.65 416.183 1688.53 z"/>
<path transform="translate(0,0)" fill="rgb(253,247,231)" d="M 358.922 1698.14 C 373.38 1697.26 388.24 1698 402.756 1697.94 C 418.107 1697.88 434.043 1696.96 449.332 1698.21 C 451.341 1698.38 455.311 1698.42 456.558 1700.19 C 462.653 1708.83 469.228 1756.17 472.395 1769.84 C 474.795 1780.2 478.303 1790.35 480.401 1800.76 C 481.068 1804.07 482.098 1808.61 481.301 1811.9 C 480.701 1814.38 478.864 1814.83 476.843 1815.96 C 459.632 1816.86 442.171 1816.48 424.924 1816.61 C 409.441 1816.73 393.135 1817.83 377.778 1815.79 C 371.005 1797.45 366.269 1767.51 362.003 1747.57 C 358.94 1733.25 353.904 1717.16 353.064 1702.58 C 354.556 1699.92 356.26 1699.53 358.922 1698.14 z"/>
<path transform="translate(0,0)" fill="rgb(69,83,201)" d="M 254.084 1189.43 C 273.214 1188.77 292.472 1189.41 311.62 1189.31 C 324.115 1189.24 337.413 1187.85 349.814 1189.17 C 352.837 1189.5 355.415 1190.06 357.941 1191.8 C 360.921 1193.85 363.709 1196.77 365.115 1200.13 C 369.641 1210.96 371.154 1225.17 373.671 1236.81 C 378.298 1258.24 383.322 1279.59 387.772 1301.05 C 389.198 1307.92 391.461 1316.07 386.958 1322.27 C 384.073 1326.25 379.844 1327.3 375.251 1328.06 C 357.004 1328.85 282.767 1331.81 270.194 1325.25 C 265.74 1322.92 262.777 1319.77 261.471 1314.9 C 255.572 1292.91 251.869 1270.06 247.177 1247.78 C 244.251 1233.88 239.244 1218.12 238.422 1204.05 C 238.265 1201.36 239.417 1198.17 240.888 1195.92 C 243.885 1191.34 249.037 1190.22 254.084 1189.43 z"/>
<path transform="translate(0,0)" fill="rgb(253,247,231)" d="M 252.045 1199.4 C 269.664 1198.3 287.807 1199.22 305.484 1199.08 C 320.545 1198.95 338.082 1196.99 352.873 1199.42 C 355.152 1203.54 356.573 1208.01 357.73 1212.56 C 360.65 1224.03 379.596 1307.82 379.302 1313 C 379.15 1315.66 376.562 1316.9 374.686 1318.41 C 352.614 1320.71 328.819 1318.43 306.552 1318.66 C 298.74 1318.74 290.138 1320.77 282.504 1319.91 C 279.382 1319.57 276.852 1318.01 274.933 1315.53 C 272.698 1312.63 271.42 1308.89 270.449 1305.4 C 267.401 1294.47 248.09 1206.25 248.926 1202.05 C 249.221 1200.57 250.848 1200.13 252.045 1199.4 z"/>
<path transform="translate(0,0)" fill="rgb(69,83,201)" d="M 367 1520.42 C 381.916 1519.53 419.753 1517.33 431.769 1524.32 C 437.891 1534.3 455.521 1619.86 456.94 1636.08 C 457.317 1640.39 458.065 1648.61 455.175 1651.91 C 446.362 1661.96 408.472 1658.84 394.75 1659.29 C 382.701 1659.45 343.827 1662.82 335.515 1655.46 C 331.981 1652.33 329.599 1645.71 328.134 1641.24 C 322.222 1623.2 319.26 1602.89 315.284 1584.29 C 311.937 1568.63 306.904 1551.72 305.372 1535.82 C 305.043 1532.41 306.149 1529.7 308.446 1527.16 C 317.248 1517.43 353.506 1521.42 367 1520.42 z"/>
<path transform="translate(0,0)" fill="rgb(253,247,231)" d="M 399.257 1529.55 C 406.739 1529.13 416.021 1527.52 423.104 1530.45 C 427.634 1536.1 445.319 1625.82 446.823 1638.12 C 447.3 1642.02 447.365 1644.82 444.93 1648.01 C 436.804 1649.68 427.78 1648.97 419.469 1649.18 A 2422.8 2422.8 0 0 1 361.175 1649.98 L 355.011 1650.14 C 351.35 1650.25 347.736 1650.74 344.403 1648.88 C 339.67 1646.23 338.107 1639.52 336.915 1634.63 C 333.722 1621.51 314.279 1536.48 317.044 1531.94 C 329.336 1527.64 381.933 1530.04 399.257 1529.55 z"/>
</svg>