<svg version="1.1" xmlns="http://www.w3.org/2000/svg" style="display: block;" viewBox="0 0 2048 2048" width="1024" height="1024">
<path transform="translate(0,0)" fill="rgb(254,254,254)" d="M 0 0 L 2048 0 L 2048 2048 L 0 2048 L 0 0 z"/>
<path transform="translate(0,0)" fill="rgb(0,0,0)" d="M 1627.06 686.35 C 1640.64 686.377 1652.6 690.316 1662.42 700.069 A 47.9193 47.9193 0 0 1 1676.01 725.489 C 1680.19 747.066 1677.69 784.66 1677.64 807.762 L 1677.41 963.277 C 1754.75 961.27 1849.63 975.643 1911.46 1025.69 C 1930.96 1041.49 1946.28 1062.69 1948.9 1088.21 C 1950.45 1103.36 1949.92 1118.94 1949.88 1134.15 L 1949.65 1200.41 L 1950 1395.3 L 1949.83 1594.89 L 1949.84 1656.66 C 1949.84 1669.33 1950.44 1682.45 1949.1 1695.05 C 1947.57 1709.33 1942.48 1721.04 1933.41 1732.11 C 1893.74 1780.5 1811.74 1799.83 1751.63 1805.52 C 1666.7 1813.56 1553.11 1803.18 1485.47 1746.57 C 1470.01 1733.62 1453.86 1713.4 1452.18 1692.52 C 1451.28 1681.34 1451.88 1669.71 1451.93 1658.48 L 1452.3 1588.89 L 1452.11 1339.43 L 1451.23 1162 C 1451.14 1139.67 1448.85 1102.43 1451.8 1081.35 C 1453.99 1065.75 1461.39 1051.21 1471.52 1039.27 C 1517.82 984.748 1599.32 969.797 1667.07 964.118 C 1667.72 946.608 1667.18 928.965 1667.17 911.438 L 1667.08 814.949 L 1667.03 764.193 C 1667.04 752.142 1668.25 738.859 1665.49 727.071 A 39.9033 39.9033 0 0 0 1647.18 702.259 C 1639.19 697.519 1630.45 696.756 1621.56 699.132 C 1618.28 700.01 1615.11 701.265 1612.01 702.646 C 1600.48 707.783 1589.6 714.844 1578.51 720.87 A 5770.57 5770.57 0 0 1 1517.78 753.118 L 1419.98 804.329 C 1401.97 813.718 1383.43 822.624 1365.86 832.786 C 1359.48 836.477 1352.48 840.869 1347.43 846.311 C 1338.08 856.406 1331.44 869.671 1328.36 883.03 C 1324.41 900.093 1326.06 918.783 1326.12 936.199 L 1326.31 1004.52 C 1326.34 1016.61 1327.16 1029.28 1325.79 1041.29 C 1323 1065.72 1309.4 1089.35 1287.82 1101.79 C 1274.63 1109.4 1260.32 1115.61 1246.78 1122.64 C 1204.98 1144.35 1162.69 1165.31 1121.09 1187.38 L 911.638 1297.59 C 866.412 1321.54 821.527 1346.41 775.977 1369.72 L 627.345 1447.42 C 603.695 1459.76 572.147 1473.95 550.134 1487.82 C 543.747 1491.85 538.036 1497.23 534.436 1503.93 C 529.462 1513.19 528.698 1525.78 531.844 1535.73 C 533.969 1542.46 537.76 1548.32 543.181 1552.84 C 559.092 1566.11 587.085 1578.2 605.815 1588.15 L 702.661 1640.48 C 726.478 1652.84 749.997 1665.89 773.526 1678.8 C 784.467 1684.8 799.925 1695.49 811.579 1698.49 C 813.01 1695.52 804.128 1685.02 803.742 1680.42 C 803.565 1678.32 804.067 1676.44 805.932 1675.27 C 808.038 1673.94 809.041 1674.18 811.196 1674.83 C 819.439 1683.16 824.243 1698.67 829.014 1709.32 C 845.149 1719.3 862.506 1727.65 879.024 1737.02 L 879.454 1577.5 C 879.564 1552.84 877.741 1526.86 879.911 1502.38 C 880.268 1498.36 881.352 1494.8 882.723 1491.02 C 902.834 1475.94 938.215 1460.28 961.338 1448.03 L 1138.81 1354.47 C 1180.14 1332.61 1220.96 1310 1262.45 1288.43 C 1276.63 1281.06 1290.54 1271.26 1305.52 1265.71 C 1316.71 1270.55 1341.99 1283.48 1348.52 1293.57 C 1350.64 1296.84 1350.53 1302.12 1350.68 1305.96 C 1351.43 1325.9 1350.91 1346.02 1350.94 1365.98 L 1350.98 1483 L 1351.05 1552.23 C 1351.08 1570.47 1352.61 1589.37 1348.45 1607.23 C 1340.08 1618.13 1270.37 1651.76 1252.83 1661.5 C 1276.3 1672.98 1298.68 1686.8 1321.47 1699.56 C 1339.16 1709.47 1358.2 1718.57 1375.04 1729.83 C 1378.8 1732.35 1385.41 1736.74 1386.89 1741.08 C 1389.51 1748.74 1388.97 1764.24 1385.84 1771.5 C 1384.61 1774.33 1383.11 1776.28 1380.48 1777.95 C 1362.87 1789.14 1342.6 1798.06 1324.15 1807.91 L 1207.79 1870.45 L 1105.79 1925.63 C 1088.48 1934.91 1070.95 1945.54 1052.77 1953 C 1047.65 1951.64 1042.9 1949.48 1038.17 1947.13 C 1013.8 1935.03 990.319 1920.83 966.367 1907.9 C 948.405 1898.19 919.188 1885.85 904.449 1873.26 C 899.855 1864.11 902.052 1850.39 902.611 1840.46 C 907.281 1833.82 910.677 1830.89 918.206 1827.59 C 907.661 1822.79 895.289 1817.01 887.049 1808.7 C 874.95 1796.48 879.053 1766.73 879.062 1750.35 A 939.421 939.421 0 0 0 819.936 1717.83 C 810.632 1718.09 801.358 1721.7 792.249 1721.34 C 788.922 1721.21 787.465 1720.37 785.219 1718 C 785.067 1716.35 784.499 1715.15 785.559 1713.75 C 788.718 1709.55 799.624 1709.32 804.753 1708.38 C 781.771 1698.06 757.979 1683.1 735.759 1670.89 L 624.042 1610.31 C 603.755 1599.12 583.011 1588.82 562.759 1577.53 C 554.058 1572.68 544.799 1568.04 536.862 1562 C 527.055 1554.53 521.291 1540.97 519.94 1528.98 C 518.118 1512.81 523.747 1495.92 535.968 1484.93 C 550.381 1471.98 572.512 1463.54 589.736 1454.6 L 671.962 1411.65 L 1104.71 1183.85 L 1223.27 1122.52 C 1243.66 1112.14 1266.72 1102.72 1285.65 1090.06 C 1318.45 1068.12 1316.15 1035.39 1315.65 1000.3 L 1315.32 937.747 C 1315.27 919.105 1313.85 899.295 1317.92 881.026 A 87.5622 87.5622 0 0 1 1335.3 844.526 C 1341.58 836.74 1348.64 830.627 1357.14 825.386 C 1372.4 815.984 1389.04 808.082 1404.93 799.746 L 1496.96 751.772 C 1524.26 737.464 1551.31 722.519 1578.48 707.955 C 1589.44 702.085 1600.17 695.539 1611.44 690.282 C 1616.74 687.807 1621.33 686.951 1627.06 686.35 z"/>
<path transform="translate(0,0)" fill="rgb(148,147,148)" d="M 1067.67 1759.87 L 1068.37 1760.48 C 1070.73 1769.34 1069.25 1811.01 1067.45 1820.26 C 1066.34 1821.65 1065.49 1822.75 1063.75 1823.39 C 1059.48 1824.97 1055.78 1822.97 1052.02 1821.13 L 1049.57 1818.97 C 1046.3 1811.77 1048.52 1781.07 1048.66 1771.35 C 1055.24 1767.99 1061.43 1763.82 1067.67 1759.87 z"/>
<path transform="translate(0,0)" fill="rgb(254,254,254)" d="M 913.165 1849.77 A 9611.87 9611.87 0 0 0 1045.91 1920.62 L 1046.03 1938.41 C 1023.33 1928.13 1001.46 1914.16 979.496 1902.26 C 957.52 1890.36 933.941 1879.81 913 1866.23 L 913.165 1849.77 z"/>
<path transform="translate(0,0)" fill="rgb(148,147,148)" d="M 890.015 1504.2 C 895.105 1506.4 900.106 1509.51 904.998 1512.16 A 22764 22764 0 0 0 904.635 1808.97 C 899.231 1806.65 894.319 1801.13 890.161 1797.06 C 888.535 1763.96 889.249 1730.08 889.23 1696.92 L 890.015 1504.2 z"/>
<path transform="translate(0,0)" fill="rgb(254,254,254)" d="M 1228.49 1707.58 C 1245.11 1718.69 1262.94 1727.41 1280.3 1737.25 C 1268.75 1745.25 1254.4 1751.51 1241.94 1758.2 L 1155.91 1803.9 L 1090.28 1838.83 C 1081.06 1843.75 1071.37 1850.43 1061.7 1854.22 C 1059.02 1855.27 1058.12 1854.24 1055.65 1853.11 A 520.985 520.985 0 0 0 1017.13 1832.68 C 1022.73 1828.61 1028.31 1824.69 1034.25 1821.14 C 1042.44 1828 1052.29 1833.28 1062.13 1837.32 C 1068.72 1833.84 1074.93 1829.66 1081.5 1826.12 L 1167.77 1780.05 C 1182.52 1772.19 1216.7 1756.85 1227.03 1747.68 C 1231.17 1738.4 1228.7 1718.05 1228.49 1707.58 z"/>
<path transform="translate(0,0)" fill="rgb(254,254,254)" d="M 1373.5 1752.76 C 1374.49 1752.74 1375.26 1753.09 1376.2 1753.41 C 1377.73 1757.36 1377.07 1762.34 1376.98 1766.54 C 1365.31 1774.26 1352.12 1780.59 1339.72 1787.13 A 5271.67 5271.67 0 0 0 1278.36 1819.63 A 13956.2 13956.2 0 0 1 1059.37 1937.43 C 1057.82 1938.03 1058.73 1937.87 1056.6 1937.54 C 1055.08 1933.34 1055.88 1927.83 1056.01 1923.39 C 1068.78 1912.89 1086.25 1905.59 1100.83 1897.86 L 1176.6 1857.63 A 10920 10920 0 0 0 1287.78 1798.02 C 1316.09 1782.63 1344.3 1766.38 1373.5 1752.76 z"/>
<path transform="translate(0,0)" fill="rgb(254,254,254)" d="M 1464.53 1285.71 C 1469.25 1289.11 1473.29 1295.4 1477.31 1299.77 C 1483.07 1306.03 1490.06 1311.69 1496.88 1316.73 C 1565.79 1367.65 1689.16 1379.01 1771.98 1366.31 C 1829.13 1357.54 1900.17 1337 1935.89 1288.37 C 1934.85 1292.22 1933.61 1295.98 1932.34 1299.77 C 1915.57 1329.54 1883.43 1347.32 1852.58 1359.36 C 1761.19 1395.06 1631.93 1394.56 1541.77 1354.54 C 1509.81 1340.36 1477.68 1319.74 1464.53 1285.71 z"/>
<path transform="translate(0,0)" fill="rgb(254,254,254)" d="M 1466.33 1468.61 C 1467.52 1469.56 1467.1 1469.13 1468.07 1470.23 C 1474.67 1477.66 1481.48 1484.65 1489.21 1490.93 C 1504.1 1503.02 1521.5 1511.32 1539.16 1518.53 C 1606.34 1545.95 1683.23 1553.91 1755.07 1546.17 C 1804.96 1540.79 1867.36 1526.05 1907.97 1495.61 C 1919.3 1487.13 1928.25 1477.27 1937.07 1466.29 C 1935.35 1471.12 1933.45 1475.69 1931.26 1480.33 C 1931 1480.8 1930.74 1481.27 1930.48 1481.73 C 1908.19 1520.08 1850.74 1539.87 1809.98 1550.84 C 1720.54 1574.94 1594.94 1566.71 1514.07 1519.73 C 1495.32 1508.84 1472.09 1490.66 1466.33 1468.61 z"/>
<path transform="translate(0,0)" fill="rgb(148,147,148)" d="M 1304.03 1277.8 C 1309.21 1278.07 1316.59 1284.27 1320.94 1287.06 A 13738.6 13738.6 0 0 0 1054.24 1427.69 C 1007.04 1452.87 959.847 1479.02 911.449 1501.8 C 905.717 1501.29 899.716 1497.27 894.769 1494.53 C 928.403 1476.01 963.242 1459.1 997.268 1441.24 A 16604.2 16604.2 0 0 0 1215.39 1325.32 C 1244.9 1309.43 1275.14 1294.82 1304.03 1277.8 z"/>
<path transform="translate(0,0)" fill="rgb(254,254,254)" d="M 1215.27 1680.99 L 1216.02 1681.56 C 1218.53 1689.41 1217.05 1729.36 1217.08 1741.16 A 8939.84 8939.84 0 0 1 1081.48 1813.65 C 1080.92 1813.67 1080.42 1813.28 1079.9 1813.06 C 1078.98 1793.71 1079.87 1773.94 1079.93 1754.55 C 1095.84 1743.52 1114.34 1735 1131.45 1725.9 L 1215.27 1680.99 z"/>
<path transform="translate(0,0)" fill="rgb(148,147,148)" d="M 1330.28 1292.74 C 1331.64 1292.94 1332.69 1293.29 1333.89 1293.99 C 1336.58 1295.56 1338.69 1298.1 1339.45 1301.12 C 1339.21 1301.69 1339.09 1302.31 1338.74 1302.82 C 1337.39 1304.81 1044.05 1459.19 1014.34 1474.8 C 989.651 1487.77 963.005 1499.22 939.42 1513.99 C 936.916 1515.56 930.735 1519.04 929.658 1521.71 C 927.712 1526.54 928.99 1738.31 928.999 1762 C 929.004 1774.63 930.785 1807.09 928.378 1817.45 L 926.679 1817.71 L 914.829 1812.07 C 913.442 1778.42 914.516 1744.44 914.557 1710.75 L 915.062 1513.73 C 928.905 1504.27 945.164 1497.06 960.006 1489.22 L 1044.03 1444.82 L 1330.28 1292.74 z"/>
<path transform="translate(0,0)" fill="rgb(254,254,254)" d="M 1338.67 1549.94 L 1339.49 1550.53 C 1342.11 1557.41 1340.03 1591.79 1339.92 1601.34 C 1330.08 1609.4 1317.12 1614.9 1305.93 1620.99 L 1223.95 1664.56 L 940.089 1816.91 C 937.333 1810.76 939.175 1770.93 939.234 1761.45 C 950.823 1754 963.639 1748.05 975.77 1741.48 C 1009.43 1723.25 1043.65 1706.21 1077.39 1688.14 L 1226.89 1608.63 C 1263.94 1588.81 1300.78 1568.11 1338.67 1549.94 z"/>
<path transform="translate(0,0)" fill="rgb(254,254,254)" d="M 1241.8 1667.89 C 1251.19 1671.45 1268.46 1682.4 1277.9 1687.66 C 1309.1 1705.04 1339.94 1723.26 1371.69 1739.58 C 1285.03 1786 1199.11 1833.83 1111.91 1879.27 C 1091.71 1889.79 1071.91 1901.21 1051.49 1911.28 C 1011.71 1890.12 972.624 1867.86 932.549 1847.21 L 919.254 1840.08 C 932.773 1832.17 947.503 1825.76 961.457 1818.59 A 1708.95 1708.95 0 0 0 1036.95 1777.58 A 2243.95 2243.95 0 0 1 1036.75 1808.66 C 1032.8 1810.89 1028.68 1812.73 1024.58 1814.67 C 1017.4 1818.05 1006.64 1821.85 1003.78 1829.83 C 1004.12 1832.78 1004.89 1834.59 1006.78 1836.84 C 1012.11 1843.17 1051.58 1865.31 1059.86 1865.7 C 1064.33 1865.91 1070.86 1861.98 1074.83 1859.97 C 1091.33 1851.61 1107.31 1842.22 1123.67 1833.6 L 1254.22 1764.14 C 1262.38 1759.72 1282.51 1751.5 1288.28 1746.04 C 1290.36 1744.08 1291.6 1741.17 1291.42 1738.29 C 1291.16 1733.82 1286.83 1730.03 1283.54 1727.48 C 1266.99 1714.65 1246.04 1707.66 1229.49 1694.41 L 1228.42 1693.54 C 1228.32 1687.24 1228.08 1680.95 1227.9 1674.66 C 1232.34 1671.91 1237.02 1669.95 1241.8 1667.89 z"/>
<path transform="translate(0,0)" fill="rgb(254,254,254)" d="M 1463.15 1637.87 C 1472.11 1651.51 1482.43 1663.17 1495.8 1672.64 C 1570.28 1725.33 1696.37 1734.33 1783.99 1718.76 C 1830.2 1710.55 1884.29 1695.3 1919.43 1663.14 C 1926.97 1656.24 1932.71 1648.48 1938.55 1640.13 C 1937.4 1662.62 1941.51 1685.66 1935.44 1707.65 C 1931.38 1717.41 1924.75 1725.92 1917.29 1733.33 C 1865.02 1785.26 1764.28 1797.55 1693.79 1797.04 C 1628.12 1796.57 1531.18 1779.39 1484.39 1731.22 C 1456.68 1702.7 1462.8 1674.31 1463.15 1637.87 z"/>
<path transform="translate(0,0)" fill="rgb(254,254,254)" d="M 1938.49 1490.73 C 1940.12 1499.65 1939.53 1606.65 1937.41 1615.84 C 1931.9 1639.85 1909.16 1658.91 1889.16 1670.96 C 1808.89 1719.3 1683.6 1724.24 1594.5 1702.05 C 1546.95 1690.2 1496.33 1670.97 1469.96 1626.97 C 1467.13 1620.63 1465.22 1614.4 1464.25 1607.53 C 1462.23 1593.31 1463.1 1578.33 1463.12 1563.99 A 5206.73 5206.73 0 0 1 1463.74 1490.37 C 1471.09 1501.7 1480.89 1510.57 1491.71 1518.53 C 1564.59 1572.1 1685.66 1583 1773.29 1569.82 C 1830.84 1561.17 1902.86 1539.11 1938.49 1490.73 z"/>
<path transform="translate(0,0)" fill="rgb(254,254,254)" d="M 1938.54 1127.73 C 1940.62 1143.52 1939 1161.63 1939.04 1177.63 C 1939.11 1201.15 1940.61 1225.75 1938.76 1249.16 A 71.7913 71.7913 0 0 1 1935.9 1264.02 C 1927.9 1290.11 1900.29 1309.47 1877.49 1321.74 C 1795.03 1366.11 1670.16 1369.87 1581.73 1343.27 C 1539.16 1330.47 1491.03 1310.22 1469.01 1269.3 C 1465.98 1263.17 1464.19 1256.77 1463.44 1249.97 C 1461.91 1236.16 1462.87 1221.37 1462.89 1207.45 L 1462.9 1130.49 C 1475.32 1149.89 1493.62 1164.12 1513.33 1175.62 C 1596.42 1224.12 1721.73 1230.61 1813.51 1206.28 C 1852.84 1195.86 1900.8 1176.41 1927.44 1144.72 C 1931.81 1139.51 1935.14 1133.59 1938.54 1127.73 z"/>
<path transform="translate(0,0)" fill="rgb(254,254,254)" d="M 1463.34 1309.75 C 1473.67 1321.2 1484.06 1332.16 1496.45 1341.45 C 1565.17 1392.97 1687.98 1403.88 1770.73 1392.07 C 1831.57 1383.39 1900.38 1362.32 1938.76 1311.18 L 1939.19 1389.18 C 1939.24 1403.41 1940.3 1418.56 1938.47 1432.66 C 1937.85 1437.45 1936.37 1441.78 1934.72 1446.29 A 84.7481 84.7481 0 0 1 1916.44 1473.1 C 1867.85 1521.83 1771.75 1537.18 1705.06 1537.23 C 1638.09 1537.29 1533.65 1521.15 1484.93 1471.93 C 1477.07 1464 1468.78 1453.6 1465.63 1442.71 C 1460.35 1424.42 1463.21 1333.58 1463.34 1309.75 z"/>
<path transform="translate(0,0)" fill="rgb(254,254,254)" d="M 1674.74 974.5 C 1749.91 970.23 1843.7 985.738 1903.32 1033.77 C 1920.48 1047.59 1935.76 1065.69 1937.84 1088.51 C 1939.43 1106 1930.76 1123.1 1919.74 1136.16 C 1875.99 1188.01 1789.55 1203.72 1725.25 1208.74 C 1649.85 1211.45 1549.74 1197.91 1491.13 1146.43 C 1475.98 1133.13 1464.02 1116.1 1462.83 1095.41 C 1461.7 1075.89 1469.54 1058.5 1482.41 1044.19 C 1526.26 995.408 1611.32 977.78 1674.74 974.5 z"/>
<path transform="translate(0,0)" fill="rgb(0,0,0)" d="M 1741.53 1017.75 C 1749.58 1017.4 1841.88 1071.33 1856.77 1080.31 C 1843.26 1091.82 1817.39 1102.96 1801.26 1111.87 C 1765.19 1131.8 1728.94 1152.21 1693.49 1173.23 C 1687.96 1170.35 1682.8 1166.64 1677.23 1163.72 C 1663.17 1156.37 1582.74 1117.62 1578.05 1110.51 C 1581.08 1107.16 1585.11 1104.86 1588.96 1102.57 C 1604.69 1093.22 1621.56 1085.32 1637.49 1076.17 C 1671.76 1056.47 1706.09 1035.15 1741.53 1017.75 z"/>
<path transform="translate(0,0)" fill="rgb(221,54,52)" d="M 1742.18 1023.95 C 1758.97 1029.61 1776.26 1042.08 1791.79 1050.88 C 1809.77 1061.07 1828.21 1070.39 1846.12 1080.71 C 1826.95 1091.78 1703.27 1164.25 1692.99 1166.18 C 1680.36 1160.3 1668.13 1152.92 1655.76 1146.44 L 1585.69 1110.36 C 1639.49 1085.24 1689.55 1051.58 1742.18 1023.95 z"/>
<path transform="translate(0,0)" fill="rgb(0,0,0)" d="M 1745.98 1043.97 C 1756.09 1049.65 1796.19 1069.39 1801.64 1077.31 C 1800.37 1079.44 1709.65 1129.95 1698.2 1136.21 C 1683.35 1128.81 1658.73 1117.52 1645.88 1108.21 C 1643.78 1106.69 1643.22 1106.62 1642.77 1104.02 C 1649.95 1098.39 1658.66 1094.08 1666.58 1089.49 A 4557.9 4557.9 0 0 1 1714.59 1061.98 C 1724.72 1056.34 1735.67 1051.28 1745.11 1044.6 C 1745.4 1044.39 1745.69 1044.18 1745.98 1043.97 z"/>
<path transform="translate(0,0)" fill="rgb(254,254,254)" d="M 1744.84 1050.82 C 1754.35 1052.63 1782.13 1070.74 1792.18 1076.52 C 1759.94 1092.2 1729.81 1112.51 1698.02 1129.18 C 1682.2 1121.89 1666.41 1113.29 1651.35 1104.54 A 4521.79 4521.79 0 0 0 1744.84 1050.82 z"/>
<path transform="translate(0,0)" fill="rgb(254,254,254)" d="M 1339.07 1314.29 C 1341.16 1318.48 1339.85 1513.02 1339.92 1536.38 C 1237.24 1589.55 1135.98 1645.45 1033.5 1699 C 1002.18 1715.37 971.14 1732.26 939.417 1747.85 C 937.856 1722.91 939.138 1697.16 939.206 1672.15 A 10360.8 10360.8 0 0 0 939.303 1525.66 C 968.654 1509.23 999.052 1494.45 1028.75 1478.64 L 1339.07 1314.29 z"/>
<path transform="translate(0,0)" fill="rgb(221,54,52)" d="M 1156.17 1439.12 C 1164.33 1438.53 1171.26 1438.92 1178.66 1442.83 C 1188.27 1447.92 1193.24 1456.89 1196.35 1466.93 C 1205.71 1497.17 1194.8 1529.5 1180.36 1556.16 C 1174.64 1566.74 1167.57 1576.52 1161.18 1586.7 C 1155.21 1596.22 1149.85 1607.06 1142.66 1615.65 C 1140.1 1618.72 1135.79 1623.08 1131.6 1623.65 C 1129.22 1623.98 1128.36 1623.3 1126.79 1621.86 C 1128.71 1601.77 1132.39 1579.4 1137.44 1559.85 L 1137.88 1558.18 C 1148.64 1546.66 1165.52 1541.14 1171.43 1525.15 C 1174.94 1515.68 1176.78 1503.2 1172.3 1493.81 C 1170.57 1490.18 1167.79 1487.24 1163.89 1485.99 C 1151.55 1482.04 1135.18 1492.36 1124.8 1498.06 C 1110.99 1506.6 1098.08 1520.84 1093.89 1536.86 C 1087.12 1562.68 1111.37 1552.93 1116.11 1562.86 C 1119.73 1570.44 1113.95 1624.93 1109.45 1633.71 C 1107.6 1637.32 1104.78 1639.88 1100.9 1641.13 C 1096.56 1642.54 1092.22 1642.63 1088.14 1640.42 C 1076.93 1634.37 1068.97 1619.37 1065.89 1607.46 C 1056.18 1569.79 1069.91 1527.67 1089.1 1495.29 C 1104.79 1468.81 1125.72 1446.97 1156.17 1439.12 z"/>
<path transform="translate(0,0)" fill="rgb(0,0,0)" d="M 988.263 97.2333 C 999.004 96.6369 1007.66 98.2283 1017.38 102.853 C 1029.89 108.806 1041.74 116.499 1053.98 123.034 C 1069.49 131.312 1091.88 139.872 1104.77 150.882 C 1110.73 155.976 1114.86 163.072 1117.25 170.495 C 1122.49 186.778 1119.66 230.071 1119.67 248.973 A 13176.4 13176.4 0 0 1 1119.41 382 L 1118.57 829 L 1118.17 988.72 C 1118.15 1014.11 1120.05 1040.31 1118.32 1065.55 C 1117.2 1081.94 1111.38 1099.17 1103.57 1113.55 C 1094.42 1130.42 1082 1145.83 1065.63 1156.13 C 1046.28 1168.31 1024.99 1177.97 1004.64 1188.38 A 8124.1 8124.1 0 0 0 928.204 1228.49 A 18841.2 18841.2 0 0 0 672.057 1364.01 L 350.305 1536.59 L 284.667 1571.58 C 268.029 1580.52 250.642 1591.66 232.485 1597.02 C 225.904 1597.74 219.25 1598.08 212.838 1596.04 C 200.466 1592.1 188.286 1582.98 176.837 1576.62 C 160.609 1567.61 143.591 1559.44 127.865 1549.61 C 113.95 1540.9 106.233 1528.58 102.67 1512.77 C 99.2845 1497.74 100.745 1481.21 100.762 1465.87 L 100.75 1407.97 L 100.693 1169 L 100.551 825.468 L 100.562 714.167 C 100.398 690.054 98.7879 665.197 100.757 641.174 C 102.632 618.313 110.924 597.852 123.33 578.701 C 134.016 562.203 147.881 545.563 164.548 534.83 C 175.766 527.607 187.885 521.64 199.643 515.355 L 268.222 479.12 L 482.541 364.581 L 869.023 156.49 C 897.278 141.625 960.735 103.047 988.263 97.2333 z"/>
<path transform="translate(0,0)" fill="rgb(254,254,254)" d="M 987.983 108.159 C 1012.97 105.616 1043.54 132.17 1067.23 141.738 C 1053.42 146.207 1040.19 154.75 1027.46 161.703 L 966.877 194.74 L 748.713 311.782 L 381.643 510.271 L 291.055 558.293 C 273.637 567.315 255.685 575.652 238.621 585.294 C 230.373 589.955 223.445 595.527 216.936 602.405 C 200.247 620.043 187.877 642.385 184.412 666.614 C 182.606 679.244 183.575 692.217 183.691 704.935 L 183.872 758.902 L 183.706 950.735 L 183.998 1356.2 L 183.957 1483.26 C 183.923 1508.56 183.397 1533.95 184.181 1559.23 C 184.669 1562.09 184.805 1564.65 184.808 1567.54 L 182.896 1567.27 L 183.514 1565.89 L 182.464 1564.87 L 181.301 1566.46 A 2489.62 2489.62 0 0 1 139.577 1543.14 C 125.255 1534.86 117.569 1528.03 113.338 1511.64 C 108.423 1492.6 110.96 1469.87 111.015 1450.2 A 5163.94 5163.94 0 0 0 110.844 1385.24 L 110.876 968.398 L 110.843 746.781 L 110.828 681.966 C 110.821 669.095 110.268 655.891 111.303 643.063 C 112.824 624.191 120.197 604.812 129.763 588.593 C 140.582 570.247 155.21 553.837 173.262 542.385 C 190.305 531.573 209.05 522.779 226.93 513.427 L 299.834 474.603 L 532.345 350.254 C 657.098 283.277 780.773 213.884 906.675 149.119 C 932.275 135.951 960.173 115.206 987.983 108.159 z"/>
<path transform="translate(0,0)" fill="rgb(254,254,254)" d="M 1073.84 152.222 C 1079.9 151.731 1085.45 152.262 1090.98 154.977 C 1098.61 158.721 1104.61 166.012 1107 174.168 C 1111.15 188.316 1108.88 211.597 1108.85 226.626 L 1108.79 295.183 L 1108.36 606.814 L 1108.13 907.002 L 1108.03 1003 C 1108 1022.57 1108.55 1042.33 1107.43 1061.87 C 1106.49 1078.3 1102.44 1093.5 1094.79 1108.15 C 1086.95 1123.17 1076.48 1136.74 1061.98 1145.79 C 1044.54 1156.67 1025.47 1165.32 1007.19 1174.69 L 922.552 1218.81 L 655.624 1360.5 L 350.732 1524.07 L 279.112 1562.38 C 262.666 1571.21 246.14 1581.86 228.267 1587.46 C 221.82 1587.31 216.399 1586.72 210.799 1583.27 C 203.293 1578.64 198.429 1570.65 196.565 1562.12 C 193.842 1549.67 194.971 1535.65 194.851 1522.94 A 4606.65 4606.65 0 0 1 194.515 1457.49 L 194.677 1223.71 L 194.215 856.886 L 193.971 735.634 C 193.937 714.708 192.637 692.861 194.3 672.014 C 195.659 654.969 202.032 640.486 211.309 626.241 C 219.867 613.099 229.357 604.217 242.675 596.142 C 271.948 578.394 303.835 563.67 334.204 547.825 A 10055 10055 0 0 0 456.629 481.774 A 48344.6 48344.6 0 0 1 963.159 208.862 C 982.924 198.523 1002.42 187.622 1022.02 176.959 C 1038.08 168.218 1055.93 156.03 1073.84 152.222 z"/>
<path transform="translate(0,0)" fill="rgb(0,0,0)" d="M 252.534 603.214 C 254.592 603.406 256.7 603.598 258.687 604.193 C 263.754 605.709 268.125 609.624 270.436 614.35 C 274.391 622.439 273.495 633.508 270.358 641.704 C 266.37 652.122 259.447 658.938 249.426 663.474 C 245.618 663.479 242.266 663.295 238.862 661.387 C 233.394 658.32 230.196 653.128 228.781 647.133 C 226.397 637.028 228.711 625.186 234.183 616.442 C 238.883 608.933 244.003 605.254 252.534 603.214 z"/>
<path transform="translate(0,0)" fill="rgb(254,254,254)" d="M 248.9 616.778 C 252.482 616.62 255.565 616.516 258.279 619.345 C 260.833 622.008 261.757 625.92 261.608 629.515 C 261.235 638.52 257.574 645.336 251.04 651.274 C 250.514 651.289 249.988 651.325 249.461 651.321 C 246.29 651.295 244.116 650.697 241.894 648.297 C 239.176 645.363 238.497 640.928 238.772 637.071 C 239.38 628.565 242.646 622.364 248.9 616.778 z"/>
<path transform="translate(0,0)" fill="rgb(0,0,0)" d="M 363.595 545.099 C 366.224 545.174 368.858 545.357 371.333 546.325 C 376.335 548.28 380.488 551.673 382.535 556.718 C 386.032 565.335 384.38 576.62 380.727 584.917 C 376.119 595.381 369.042 601.358 358.58 605.432 C 355.44 605.843 352.371 605.024 349.603 603.57 C 344.595 600.938 341.528 597.082 339.959 591.668 C 337.043 581.602 339.195 569.706 344.249 560.676 C 348.957 552.263 354.448 547.766 363.595 545.099 z"/>
<path transform="translate(0,0)" fill="rgb(254,254,254)" d="M 362.263 556.741 C 362.898 556.764 363.533 556.771 364.167 556.809 C 367.053 556.978 369.265 558.199 370.957 560.606 C 373.229 563.835 373.645 568.343 373.128 572.153 C 371.92 581.038 368.418 587.398 361.322 592.787 C 359.753 592.908 358.118 592.77 356.549 592.723 C 354.73 591.669 353.589 590.945 352.384 589.158 C 349.493 584.87 350.186 577.899 351.212 573.17 C 352.943 565.196 355.509 561.217 362.263 556.741 z"/>
<path transform="translate(0,0)" fill="rgb(0,0,0)" d="M 308.395 574.052 C 311.245 573.929 314.458 574.166 317.142 575.195 A 17.8503 17.8503 0 0 1 327.419 585.38 C 330.815 594.074 329.35 605.436 325.649 613.796 C 321.14 623.982 314.193 630.401 303.927 634.382 C 301.219 634.308 298.29 633.99 295.763 632.98 C 290.744 630.973 286.728 627.24 284.68 622.215 C 281.111 613.46 282.721 602.591 286.656 594.242 C 291.282 584.424 298.25 577.771 308.395 574.052 z"/>
<path transform="translate(0,0)" fill="rgb(254,254,254)" d="M 307.388 586.72 C 308.47 586.843 309.271 586.895 310.295 587.123 C 312.699 587.66 314.46 589.312 315.653 591.404 C 318.642 596.646 317.749 603.427 315.923 608.888 C 313.819 615.181 310.839 619.589 304.886 622.61 C 304.266 622.475 303.642 622.356 303.024 622.206 C 299.934 621.459 297.897 619.642 296.385 616.91 C 293.768 612.183 294.017 606.747 295.441 601.697 C 297.528 594.293 300.794 590.484 307.388 586.72 z"/>
<path transform="translate(0,0)" fill="rgb(0,0,0)" d="M 621.396 1304.03 C 625.013 1303.77 627.895 1304.02 631.129 1305.69 C 636.038 1308.22 639.222 1311.97 640.81 1317.26 C 644.26 1328.75 641.017 1342.66 634.974 1352.71 C 629.313 1362.13 622.066 1368.18 611.444 1370.88 C 608.876 1370.65 606.374 1370.35 603.913 1369.54 C 598.878 1367.89 594.535 1364.46 592.346 1359.56 C 588.374 1350.67 590.802 1338.21 594.599 1329.67 C 600.037 1317.44 609.154 1309.02 621.396 1304.03 z"/>
<path transform="translate(0,0)" fill="rgb(254,254,254)" d="M 619.332 1316.82 C 621.062 1316.89 623.233 1316.82 624.866 1317.48 C 626.931 1318.32 628.796 1320.34 629.779 1322.3 C 632.523 1327.77 631.243 1334.87 629.369 1340.39 C 626.575 1348.62 622.023 1355.69 614.026 1359.48 C 610.107 1358.74 606.666 1357.62 604.203 1354.25 C 601.466 1350.51 601.268 1345.94 602.134 1341.55 C 604.162 1331.26 610.597 1322.39 619.332 1316.82 z"/>
<path transform="translate(0,0)" fill="rgb(0,0,0)" d="M 1075.78 232.825 C 1078.03 232.964 1079.05 233.332 1080.94 234.556 C 1082.32 237.757 1082.34 241.38 1082.42 244.829 C 1083.12 276.075 1081.92 307.525 1081.92 338.796 L 1082.06 565.196 L 1082.02 872.382 C 1082.06 930.03 1082.91 987.758 1082.2 1045.4 C 1070.85 1053.64 1056.01 1059.44 1043.47 1065.88 A 7636.45 7636.45 0 0 1 962.537 1107.56 L 731.17 1228.42 L 355.527 1428.84 A 5735.25 5735.25 0 0 0 275.006 1471.33 C 258.006 1480.63 241.01 1491.54 223.335 1499.41 C 221.31 1498.42 220.329 1497.86 219.101 1495.94 C 217.457 1471.35 218.279 1446.19 218.146 1421.53 A 12717.9 12717.9 0 0 1 218.302 1276.11 L 218.733 937.874 L 218.523 767.498 C 218.476 750.53 216.193 704.044 219.66 691.134 C 220.813 689.643 221.857 688.328 223.458 687.291 C 238.159 677.766 255.856 670.733 271.412 662.428 C 323.433 634.656 376.344 608.627 428.568 581.254 C 480.724 553.917 532.3 525.267 584.149 497.332 L 865.084 345.899 L 1003.58 271.889 C 1027.64 259.002 1051.39 244.995 1075.78 232.825 z"/>
<path transform="translate(0,0)" fill="rgb(254,254,254)" d="M 1069.96 249.106 C 1072.45 253.169 1071.14 970.907 1071.28 1039.81 C 1057.1 1046.01 1043.41 1053.72 1029.68 1060.85 A 5537.22 5537.22 0 0 0 969.015 1092.12 A 15107.5 15107.5 0 0 0 783.29 1189.17 L 230.418 1482.68 C 229.294 1473.52 229.958 1463.52 229.968 1454.28 L 230.044 1400.86 L 230.355 1223.93 L 230.913 695.367 A 22126.7 22126.7 0 0 0 703.387 445.626 A 17658.1 17658.1 0 0 1 977.014 298.288 C 1008.02 281.896 1038.62 264.909 1069.96 249.106 z"/>
<path transform="translate(0,0)" fill="rgb(0,0,0)" d="M 518.687 1121.92 C 519.455 1122.11 520.398 1122.3 521.112 1122.61 C 523.322 1123.58 524.262 1124.19 524.834 1126.57 C 527.123 1136.09 525.257 1176.64 525.239 1188.62 C 525.208 1208.59 526.555 1229.32 525.437 1249.2 C 525.29 1251.8 525.113 1255.94 523.349 1258.07 C 520.659 1261.31 297.457 1381.47 285.875 1384.27 C 284.125 1383.49 283.122 1382.7 281.767 1381.35 C 280.373 1378 279.947 1374.85 279.763 1371.24 C 279.195 1360.15 280.093 1348.87 279.99 1337.74 C 279.821 1319.39 276.779 1263.2 281.014 1249.22 C 295.514 1237.97 314.267 1230.3 330.519 1221.82 L 425.442 1172.14 C 446.235 1161.04 466.695 1149.27 487.356 1137.92 C 497.391 1132.41 507.83 1125.55 518.687 1121.92 z"/>
<path transform="translate(0,0)" fill="rgb(254,254,254)" d="M 513.86 1135.07 C 516.564 1139.6 514.845 1238.38 514.529 1252.07 C 476.295 1273.3 437.345 1293.01 398.749 1313.53 C 363.22 1332.42 328.102 1352.08 291.891 1369.67 C 288.564 1364.42 290.731 1268.04 290.855 1255.02 C 325.692 1234.98 362.361 1217.42 398.039 1198.87 A 2561 2561 0 0 0 513.86 1135.07 z"/>
<path transform="translate(0,0)" fill="rgb(0,0,0)" d="M 395.193 1258.86 C 397.216 1258.64 397.801 1258.78 399.675 1259.36 C 400.919 1261.16 401.91 1263.56 401.348 1265.87 C 400.644 1268.77 327.518 1306.16 317.471 1311.1 C 315.31 1311.38 314.46 1311.19 312.515 1310.22 C 311.431 1307.94 310.866 1307.12 311.933 1304.57 C 314.295 1298.92 385.289 1264.33 395.193 1258.86 z"/>
<path transform="translate(0,0)" fill="rgb(0,0,0)" d="M 493.617 1175.83 C 494.809 1176.4 495.63 1177.34 496.594 1178.23 C 497.48 1181.09 497.67 1181.27 496.684 1184.06 C 483.454 1195.91 460.336 1205.45 444.344 1213.86 L 372.597 1251.64 C 353.346 1261.68 334.482 1273.54 314.618 1282.24 C 312.633 1279.52 311.588 1277.83 311.358 1274.43 C 312.875 1271.43 314.571 1270.66 317.488 1268.95 C 343.977 1253.43 372.228 1240.37 399.333 1225.89 A 6740.35 6740.35 0 0 1 462.062 1192.61 C 472.565 1187.05 482.837 1180.83 493.617 1175.83 z"/>
<path transform="translate(0,0)" fill="rgb(0,0,0)" d="M 521.047 946.8 C 522.443 947.294 523.085 947.58 524.13 948.696 C 525.974 950.666 525.185 1069.38 524.835 1082.94 C 516.42 1089.79 505.526 1094.38 495.927 1099.42 A 3697.43 3697.43 0 0 0 455.478 1121 L 349.119 1177.89 C 330.526 1187.76 311.966 1198.3 292.968 1207.32 C 290.474 1208.51 287.921 1209.3 285.207 1209.81 C 284.41 1209.23 283.991 1208.97 283.264 1208.22 C 281.526 1206.42 280.923 1204.3 280.568 1201.9 C 278.368 1187.07 279.749 1170.47 279.772 1155.46 A 5132.75 5132.75 0 0 1 280.192 1074.09 C 292.271 1064.52 308.281 1058.06 322.011 1050.94 L 387.522 1016.53 A 6006.47 6006.47 0 0 1 476.165 969.776 C 490.827 962.064 505.602 952.676 521.047 946.8 z"/>
<path transform="translate(0,0)" fill="rgb(254,254,254)" d="M 511.912 962.81 L 513.4 963.213 C 515.831 968.023 514.733 1063.78 514.385 1076.95 C 480.736 1095.84 446.466 1113.55 412.384 1131.64 A 6703.09 6703.09 0 0 1 293.298 1194.56 L 291.937 1194.82 C 289.075 1190.05 290.759 1093.56 290.997 1080.03 C 363.17 1038.47 440.251 1005.24 511.912 962.81 z"/>
<path transform="translate(0,0)" fill="rgb(0,0,0)" d="M 395.231 1083.7 C 396.993 1084.06 398.063 1084.89 399.569 1085.84 C 400.097 1087.21 400.65 1087.78 400.157 1089.28 C 397.673 1096.89 330.25 1129.41 319.278 1134.61 L 317.005 1135.22 C 315.473 1134.69 314.885 1134.45 313.847 1133.11 C 312.771 1131.73 313.225 1131.26 313.4 1129.62 C 315.163 1126.86 317.003 1125.43 319.771 1123.69 C 329.404 1117.64 340.389 1113.06 350.523 1107.86 C 365.584 1100.13 380.382 1091.82 395.231 1083.7 z"/>
<path transform="translate(0,0)" fill="rgb(0,0,0)" d="M 491.08 1002.77 L 493.517 1002.75 C 495.801 1004.02 496.016 1004.38 497.318 1006.67 C 497.212 1007.68 497.206 1008.39 496.747 1009.37 C 495.045 1013 489.154 1016.24 485.714 1018.24 C 464.139 1030.76 440.867 1041.08 418.68 1052.53 C 385.709 1069.56 353.219 1087.48 320.062 1104.14 C 317.556 1104.29 317.28 1104.15 315.075 1102.92 C 313.896 1100.58 313.84 1100.3 314.117 1097.69 C 315.025 1096.02 315.747 1095.02 317.376 1093.97 C 334.476 1082.94 358.828 1072.21 377.469 1062.6 A 5489.21 5489.21 0 0 0 491.08 1002.77 z"/>
<path transform="translate(0,0)" fill="rgb(0,0,0)" d="M 1011.93 866.8 C 1014.11 866.921 1015.07 867.288 1016.89 868.472 C 1018.21 870.555 1018.61 872.073 1018.8 874.546 C 1019.97 889.722 1018.89 905.712 1018.95 920.965 C 1019.04 947.577 1019.68 974.253 1019.15 1000.86 C 993.346 1016.31 964.989 1028.99 938.121 1042.59 A 6949.07 6949.07 0 0 0 822.631 1102.96 A 12191.6 12191.6 0 0 1 656.858 1189.71 C 625.048 1206.44 593.671 1225.31 560.803 1239.81 C 558.406 1239.19 556.554 1238.67 555.233 1236.38 C 553.473 1233.32 553.28 1228.43 553.138 1224.94 C 552.603 1211.77 552.006 1118.37 554.531 1110.48 C 556.061 1105.7 561.948 1102.45 566.143 1099.96 C 583.586 1089.59 602.542 1080.82 620.542 1071.35 L 739.129 1009.2 C 829.872 961.571 919.957 912.018 1011.93 866.8 z"/>
<path transform="translate(0,0)" fill="rgb(254,254,254)" d="M 1006.77 881.916 L 1007.72 882.824 C 1009.34 894.994 1008.07 908.451 1008.11 920.814 A 2720.57 2720.57 0 0 1 1007.99 994.933 L 719.001 1145.4 C 694.038 1158.34 668.891 1171 644.105 1184.27 C 618.337 1198.08 592.649 1212.67 566.108 1224.93 C 562.815 1220.13 564.898 1126.96 564.963 1112.79 L 1006.77 881.916 z"/>
<path transform="translate(0,0)" fill="rgb(0,0,0)" d="M 807.011 1008.39 C 807.651 1008.56 808.382 1008.71 808.949 1009.06 C 811.061 1010.38 811.792 1012.02 812.178 1014.39 C 813.017 1019.54 810.533 1025.64 807.511 1029.69 C 804.544 1027.48 802.41 1024.81 802.052 1021.03 C 801.573 1015.95 803.742 1012.06 807.011 1008.39 z"/>
<path transform="translate(0,0)" fill="rgb(0,0,0)" d="M 659.008 1120.91 C 659.773 1121.47 660.921 1122.23 661.451 1123.01 C 663.016 1125.31 662.738 1126.78 662.211 1129.24 C 655.272 1137.17 607.843 1158.75 595.322 1164.8 C 594.54 1164.35 593.461 1163.8 592.856 1163.14 C 591 1161.12 590.98 1159.87 591.088 1157.37 C 596.076 1150.39 647.7 1126.61 659.008 1120.91 z"/>
<path transform="translate(0,0)" fill="rgb(0,0,0)" d="M 979.693 920.854 C 981.016 921.144 981.997 921.795 983.174 922.444 C 984.733 925.011 984.727 925.337 984.617 928.356 C 983.406 930.675 982.472 932.229 980.161 933.668 C 965.541 942.766 948.482 950.029 933.138 958.008 L 837.436 1008.12 L 835.529 1007.9 C 833.527 1006.22 833.561 1006.14 833.016 1003.57 C 834.138 1000.18 836.046 998.439 838.841 996.393 C 850.346 987.97 865.094 981.617 877.681 974.847 C 911.563 956.623 946.03 939.465 979.693 920.854 z"/>
<path transform="translate(0,0)" fill="rgb(0,0,0)" d="M 775.109 1027.85 C 776.588 1027.94 777.842 1028.35 779.261 1028.75 C 780.643 1030.67 781.412 1031.42 780.61 1033.95 C 779.923 1036.12 778.242 1037.92 776.435 1039.22 C 769.536 1044.17 761.203 1047.92 753.72 1051.97 A 2429.25 2429.25 0 0 1 703.812 1078.39 C 667.029 1097.47 630.658 1117.34 593.694 1136.07 L 591.094 1135.42 C 589.041 1133.44 588.727 1133.29 588.184 1130.53 C 589.135 1127.38 591.204 1126.1 593.849 1124.44 C 612.082 1112.98 632.501 1103.82 651.596 1093.83 A 4771.96 4771.96 0 0 0 775.109 1027.85 z"/>
<path transform="translate(0,0)" fill="rgb(0,0,0)" d="M 1014.46 694.013 L 1018.14 695.515 C 1021.44 701.576 1019.38 811.136 1019.1 827.659 C 1009.27 835.951 995.453 841.301 984.018 847.231 L 932.008 874.363 L 677.674 1006.4 L 603.13 1045.88 C 591.148 1052.24 578.916 1059.79 566.476 1065.13 C 564.157 1066.12 561.742 1066.44 559.248 1066.61 C 557.742 1065.25 556.808 1064.38 555.877 1062.55 C 552.589 1056.08 553.717 959.198 554.53 944.969 C 554.8 940.24 555.34 935.762 556.962 931.283 C 571.817 921.119 590.001 913.211 606.057 904.984 C 636.898 889.18 667.9 873.543 698.526 857.331 L 907.448 748.118 L 975.077 713.128 C 987.796 706.596 1001 698.737 1014.46 694.013 z"/>
<path transform="translate(0,0)" fill="rgb(254,254,254)" d="M 1005.99 709.885 L 1006.97 710.114 C 1007.34 710.548 1007.82 710.91 1008.09 711.415 C 1009.79 714.6 1008.62 811.565 1008.41 822.925 C 990.751 829.985 973.49 840.716 956.561 849.51 L 856.14 901.47 A 27771.1 27771.1 0 0 0 567.443 1052.46 L 566.279 1052.49 C 563.893 1047.15 565.904 952.296 565.976 938.149 C 599.642 922.436 632.158 903.574 665.135 886.421 L 897.253 766.312 C 933.486 747.571 969.097 727.291 1005.99 709.885 z"/>
<path transform="translate(0,0)" fill="rgb(0,0,0)" d="M 805.813 836.33 L 808.593 836.903 C 811.121 839.122 812.031 840.973 812.102 844.39 C 812.192 848.76 810.326 852.05 807.518 855.182 C 807.127 855.059 806.705 855.009 806.343 854.814 C 803.844 853.467 802.516 850.663 802.204 847.921 C 801.662 843.155 802.928 840.015 805.813 836.33 z"/>
<path transform="translate(0,0)" fill="rgb(0,0,0)" d="M 661.048 945.843 C 663.697 945.919 665.644 946.303 667.718 947.975 L 667.709 950.221 C 662.967 960.841 607.701 985.542 594.443 992.076 C 592.62 992.187 591.748 991.997 590.025 991.527 C 588.46 988.934 588.41 988.577 588.483 985.539 C 591.674 979.376 649.44 952.006 661.048 945.843 z"/>
<path transform="translate(0,0)" fill="rgb(0,0,0)" d="M 978.831 751.827 C 980.053 751.918 981.436 752.292 982.646 752.527 C 984.661 754.631 984.86 754.593 985.076 757.462 C 984.111 759.442 983.091 760.58 981.219 761.773 C 963.585 773.009 940.063 783.215 921.016 792.759 A 3205.43 3205.43 0 0 0 837.355 836.457 C 834.81 836.656 836.033 836.891 833.699 835.698 C 832.405 832.918 832.379 832.504 832.74 829.45 C 839.339 819.676 959.856 760.507 978.831 751.827 z"/>
<path transform="translate(0,0)" fill="rgb(0,0,0)" d="M 775.641 854.869 C 777.79 855.133 778.782 855.484 780.055 857.405 C 781.456 859.516 781.139 860.85 780.671 863.098 C 773.553 871.696 614.398 952.426 592.403 963.192 L 589.561 961.927 C 587.754 959.514 587.598 959.37 587.534 956.377 C 588.701 954.334 589.804 953.356 591.811 952.106 C 607.765 942.166 625.957 934.178 642.67 925.484 C 686.961 902.445 732.636 880.184 775.641 854.869 z"/>
<path transform="translate(0,0)" fill="rgb(0,0,0)" d="M 749.524 448.188 C 753.228 447.921 756.811 447.734 760.473 448.51 C 774.135 451.406 784.86 462.608 792.121 473.974 C 805.99 495.683 813.756 528.636 808.072 554.023 C 812.006 561.174 816.35 568.577 823.491 572.959 C 828.811 576.223 834.813 576.881 840.785 575.188 C 847.272 573.349 852.909 569.061 857.708 564.449 C 883.29 539.861 869.152 515.181 877.909 500.832 C 880.324 496.874 886.055 493.929 890.4 492.795 C 893.731 491.926 896.064 492.126 899.081 493.924 C 904.866 501.822 903.621 516.901 902.282 526.259 C 898.688 551.374 884.632 577.699 864.036 592.891 C 848.918 604.044 830.099 611.67 811.046 608.507 C 792.945 605.503 783.187 594.425 773.272 580.211 C 767.5 582.864 761.612 584.828 755.586 586.803 C 750.276 601.045 744.839 611.047 734.713 622.445 C 732.988 645.557 734.653 669.83 734.737 693.089 C 734.766 701.178 735.934 711.407 733.871 719.236 C 731.787 727.145 697.342 742.465 688.706 747.472 C 686.146 748.956 684.592 749.197 681.79 748.41 C 677.373 739.832 679.114 698.287 678.988 685.828 C 657.192 697.394 634.817 706.543 612.054 715.977 L 612.013 729.53 C 612.031 748.022 612.347 766.572 611.623 785.051 C 601.767 792.432 553.469 817.932 543.465 819.383 C 539.799 811.202 541.905 737.542 541.303 722.021 C 529.665 709.084 518.78 696.696 511.051 680.931 C 511.235 705.237 512.422 736.866 493.977 755.626 C 488.823 760.869 476.001 770.8 468.362 769.756 C 465.318 769.341 464.77 768.726 462.725 766.636 C 462.298 764.356 461.899 762.825 463.308 760.707 C 463.736 760.063 481.452 752.387 485.857 748.179 C 509.961 725.147 495.584 678.753 499.214 649.555 C 499.354 648.433 512.375 613.503 513.642 610.751 C 534.067 566.41 590.895 525.076 636.355 508.59 C 645.435 491.709 655.791 475.27 672.906 465.517 C 689.755 455.915 705.18 457.199 723.193 462.082 C 731.744 456.377 739.779 451.575 749.524 448.188 z"/>
<path transform="translate(0,0)" fill="rgb(254,254,254)" d="M 599.815 719.098 C 603.008 723.758 601.289 770.441 601.266 779.271 C 598.355 780.827 595.248 782.109 592.246 783.485 C 589.873 773.754 591.08 734.164 591.855 722.92 C 593.946 720.428 596.82 719.971 599.815 719.098 z"/>
<path transform="translate(0,0)" fill="rgb(254,254,254)" d="M 753.788 459.158 C 754.208 459.168 754.629 459.155 755.048 459.188 C 781.196 461.297 796.649 501.228 798.57 523.477 C 799.469 533.885 796.461 546.679 798.869 556.52 C 800.572 563.483 805.436 571.252 810.173 576.613 C 815.79 582.971 822.946 587.128 831.562 587.32 C 840.846 587.526 849.805 583.605 857.217 578.252 C 894.107 551.613 880.667 513.187 890.264 503.804 L 891.51 504.289 C 895.063 513.277 892.107 526.899 889.502 535.987 C 883.1 558.324 870.321 578.648 849.568 590.093 C 837.321 596.846 821.74 600.934 808.035 596.712 C 792.269 591.856 785.347 579.076 778.45 565.364 C 769.753 568.809 758.252 572.519 750.87 578.121 C 739.804 586.519 743.898 601.157 725.049 615.311 C 723.819 628.333 724.372 641.686 724.381 654.76 C 724.396 675.05 724.285 695.159 723.023 715.423 C 713.546 723.221 700.813 728.397 689.991 734.337 C 690.024 722.284 692.573 679.272 688.038 670.298 C 682.42 668.93 670.194 678.399 665.063 681.125 C 637.848 695.586 610.426 703.467 581.432 713.103 C 579.527 737.121 583.374 762.069 580.82 786.028 C 580.545 788.604 580.56 789.014 578.656 790.604 C 569.823 794.995 561.265 799.907 552.665 804.734 C 552.209 788.15 555.44 726.106 549.145 715.004 C 542.679 703.598 529.986 695.098 523.041 682.417 C 513.969 665.852 512.891 645.524 518.486 627.738 C 534.812 575.836 585.533 546 630.82 522.139 C 626.393 544.97 628.756 570.078 641.664 589.895 C 654.05 608.91 675.211 622.221 697.28 626.782 C 697.93 626.092 698.571 625.394 699.194 624.679 C 705.704 617.205 728.685 583.197 726.571 573.8 C 725.928 570.942 725.132 570.658 722.842 569.133 C 716.996 570.742 707.156 594.056 703.723 599.747 C 700.289 605.44 696.628 610.778 692.476 615.965 C 672.035 607.391 653.886 595.36 645.125 574.112 C 636.779 553.87 638.508 530.411 647.054 510.529 C 654.262 493.76 667.472 478.585 684.856 472.049 C 698.408 466.954 708.273 469.831 720.883 475.279 C 731.731 468.968 741.397 462.086 753.788 459.158 z"/>
<path transform="translate(0,0)" fill="rgb(0,0,0)" d="M 724.164 542.47 C 726.693 543.203 729.201 543.884 730.839 546.178 C 732.2 548.084 732.343 550.173 731.695 552.374 C 730.752 555.574 727.945 557.209 725.339 558.948 C 722.945 558.767 721.758 557.897 719.797 556.577 C 718.934 554.978 718.249 554.304 718.338 552.408 C 718.556 547.803 720.904 545.424 724.164 542.47 z"/>
</svg>