<?xml version="1.0" encoding="UTF-8" standalone="no"?>
<svg
   version="1.1"
   style="display: block;"
   viewBox="0 0 2048 2048"
   width="1024"
   height="1024"
   id="svg123"
   sodipodi:docname="user-authentication.svg"
   inkscape:version="1.4 (e7c3feb100, 2024-10-09)"
   xmlns:inkscape="http://www.inkscape.org/namespaces/inkscape"
   xmlns:sodipodi="http://sodipodi.sourceforge.net/DTD/sodipodi-0.dtd"
   xmlns="http://www.w3.org/2000/svg"
   xmlns:svg="http://www.w3.org/2000/svg">
  <sodipodi:namedview
     id="namedview123"
     pagecolor="#ffffff"
     bordercolor="#000000"
     borderopacity="0.25"
     inkscape:showpageshadow="2"
     inkscape:pageopacity="0.0"
     inkscape:pagecheckerboard="0"
     inkscape:deskcolor="#d1d1d1"
     inkscape:zoom="0.7230369"
     inkscape:cx="559.44586"
     inkscape:cy="522.79489"
     inkscape:window-width="1920"
     inkscape:window-height="1011"
     inkscape:window-x="0"
     inkscape:window-y="0"
     inkscape:window-maximized="1"
     inkscape:current-layer="svg123" />
  <defs
     id="defs8">
    <linearGradient
       id="Gradient1"
       gradientUnits="userSpaceOnUse"
       x1="213.709"
       y1="1793.46"
       x2="209.994"
       y2="1837.4">
      <stop
         class="stop0"
         offset="0"
         stop-opacity="1"
         stop-color="rgb(3,0,31)"
         id="stop1" />
      <stop
         class="stop1"
         offset="1"
         stop-opacity="1"
         stop-color="rgb(30,23,86)"
         id="stop2" />
    </linearGradient>
    <linearGradient
       id="Gradient2"
       gradientUnits="userSpaceOnUse"
       x1="642.603"
       y1="1769.18"
       x2="642.419"
       y2="1776.89">
      <stop
         class="stop0"
         offset="0"
         stop-opacity="1"
         stop-color="rgb(1,0,23)"
         id="stop3" />
      <stop
         class="stop1"
         offset="1"
         stop-opacity="1"
         stop-color="rgb(2,0,45)"
         id="stop4" />
    </linearGradient>
    <linearGradient
       id="Gradient3"
       gradientUnits="userSpaceOnUse"
       x1="582.309"
       y1="1285.63"
       x2="1331.93"
       y2="1219.83">
      <stop
         class="stop0"
         offset="0"
         stop-opacity="1"
         stop-color="rgb(18,2,60)"
         id="stop5" />
      <stop
         class="stop1"
         offset="1"
         stop-opacity="1"
         stop-color="rgb(42,41,94)"
         id="stop6" />
    </linearGradient>
    <linearGradient
       id="Gradient4"
       gradientUnits="userSpaceOnUse"
       x1="1455.51"
       y1="1646.69"
       x2="1521.23"
       y2="1928.12">
      <stop
         class="stop0"
         offset="0"
         stop-opacity="1"
         stop-color="rgb(6,1,43)"
         id="stop7" />
      <stop
         class="stop1"
         offset="1"
         stop-opacity="1"
         stop-color="rgb(29,20,88)"
         id="stop8" />
    </linearGradient>
  </defs>
  <path
     transform="translate(0,0)"
     fill="rgb(252,252,252)"
     d="M 0 0 L 2048 0 L 2048 2048 L 0 2048 L 0 0 z"
     id="path8" />
  <path
     transform="translate(0,0)"
     fill="rgb(10,1,38)"
     d="M 1408.78 1790.32 C 1413.44 1794.32 1418.15 1798.95 1423.26 1802.31 C 1425.4 1798.94 1427.58 1795.61 1429.52 1792.13 L 1431.49 1795.36 C 1429.35 1800.16 1426.2 1804.27 1423.17 1808.53 C 1415.31 1803.41 1408.13 1796.78 1400.89 1790.81 C 1403.52 1790.54 1406.15 1790.45 1408.78 1790.32 z"
     id="path9" />
  <path
     transform="translate(0,0)"
     fill="rgb(1,0,6)"
     d="M 1818.53 1575.09 C 1849.69 1574.4 1884.25 1572.79 1915.19 1575.13 C 1915.23 1581.46 1915.71 1588.16 1915.05 1594.44 L 1913.98 1593.75 C 1912.69 1588.87 1914.21 1583.12 1913.59 1577.98 L 1913.02 1578.39 C 1913.07 1583.37 1913.13 1588.25 1912.5 1593.22 L 1912.36 1594.25 C 1912.41 1589.1 1912.34 1584.09 1911.83 1578.95 L 1875.52 1578.85 C 1855.95 1575.94 1833.98 1578.05 1814.12 1578.03 L 1818.53 1575.09 z"
     id="path10" />
  <path
     transform="translate(0,0)"
     fill="rgb(37,31,88)"
     d="M 406.862 651.118 C 412.59 648.303 421.908 647.979 427.834 650.479 C 428.177 650.623 428.498 650.816 428.83 650.985 C 427.94 655.123 427.193 662.854 423.442 665.357 C 422.282 666.131 420.503 665.888 419.214 665.555 C 416.126 664.758 412.495 661.814 409.569 663.053 C 408.156 666.24 408.343 668.675 409.583 671.934 C 412.951 680.79 421.036 690.375 425.789 698.806 L 424.262 700.921 C 423.207 703.002 422.804 704.71 422.43 707.007 L 419.998 706.071 C 422.979 683.576 402.926 690.009 395.787 673.794 C 393.704 669.064 394.454 662.657 396.577 658.064 C 397.883 655.239 401.001 654.628 403.734 653.69 C 405.508 653.081 405.674 652.512 406.862 651.118 z"
     id="path11" />
  <path
     transform="translate(0,0)"
     fill="rgb(223,220,235)"
     d="M 1357.73 728.443 L 1358.22 730.147 L 1354.39 735.014 C 1357.05 733.877 1359.77 729.519 1362.14 729.672 C 1344.16 750.083 1325.68 770.201 1309.05 791.744 C 1304.99 797.285 1299 802.67 1296.17 808.838 C 1291.86 813.439 1287.77 818.117 1283.8 823.009 C 1274.89 830.44 1265.23 843.118 1259.18 853.007 C 1254.42 858.624 1249.21 863.553 1245.55 870.004 C 1250.27 870.123 1255.56 869.783 1260.16 870.848 C 1252.62 871.123 1245.02 870.996 1237.48 871.058 C 1240.51 865.115 1244.9 860.667 1249.4 855.828 C 1261.94 837.728 1278.1 821.9 1292.03 804.794 A 906.503 906.503 0 0 1 1306.12 789.356 A 4010.58 4010.58 0 0 1 1357.73 728.443 z"
     id="path12" />
  <path
     transform="translate(0,0)"
     fill="rgb(37,31,88)"
     d="M 1912.36 1594.25 L 1912.5 1593.22 C 1913.13 1588.25 1913.07 1583.37 1913.02 1578.39 L 1913.59 1577.98 C 1914.21 1583.12 1912.69 1588.87 1913.98 1593.75 L 1915.05 1594.44 C 1915.43 1605.75 1916.45 1618.51 1915.15 1629.71 C 1916.52 1649.12 1915.77 1669.08 1915.81 1688.55 L 1915.79 1792.09 L 1914.58 1793.35 C 1911.15 1780.02 1915.87 1754.35 1913.48 1738.95 C 1913.02 1735.96 1912.79 1735.86 1910.46 1734.17 C 1913.34 1727.25 1910.93 1683.03 1911.34 1671.98 L 1911.99 1670.12 C 1904.03 1665.81 1777.73 1672.78 1769.24 1668.35 L 1911.05 1668.29 C 1911.29 1639.34 1909.09 1607.57 1911.83 1578.95 C 1912.34 1584.09 1912.41 1589.1 1912.36 1594.25 z"
     id="path13" />
  <path
     transform="translate(0,0)"
     fill="rgb(10,1,38)"
     d="M 1912.36 1594.25 L 1912.5 1593.22 C 1913.13 1588.25 1913.07 1583.37 1913.02 1578.39 L 1913.59 1577.98 C 1914.21 1583.12 1912.69 1588.87 1913.98 1593.75 L 1915.05 1594.44 C 1915.43 1605.75 1916.45 1618.51 1915.15 1629.71 C 1913.32 1641.45 1914.01 1654.66 1913.64 1666.6 C 1912.85 1642.46 1911.94 1618.41 1912.36 1594.25 z"
     id="path14" />
  <path
     transform="translate(0,0)"
     fill="rgb(1,0,6)"
     d="M 381.061 865.423 C 386.299 881.211 392.988 895.572 408.59 903.671 C 410.112 904.461 411.623 905.095 413.235 905.67 L 411.801 907.265 C 393.938 899.711 386.68 889.519 379.473 872.048 C 379.129 872.107 378.786 872.171 378.441 872.226 C 351.195 876.561 318.525 866.17 299.606 892.692 A 52.2458 52.2458 0 0 0 290.77 914.427 C 289.141 924.405 289.778 934.932 289.796 945.013 C 289.827 962.517 290.213 980.059 290.038 997.558 C 289.983 1002.98 288.151 1010.54 289.38 1015.57 C 289.774 1017.18 290.269 1017.9 291.383 1019.08 C 294.13 1019.55 296.384 1018.49 298.933 1017.6 C 298.393 1019.02 298.158 1019.87 297.084 1020.97 C 284.591 1024.9 275.888 1034.26 270.064 1045.67 C 269.634 1046.51 269.248 1047.38 268.857 1048.24 C 269.457 1054.15 271.354 1061.66 267.024 1066.53 C 266.173 1067.49 265.395 1068.12 264.449 1068.94 C 264.578 1068.69 264.713 1068.45 264.837 1068.21 C 265.043 1067.8 265.236 1067.38 265.44 1066.97 C 268.503 1060.81 267.592 1055.63 266.511 1049.13 C 262.097 1040.06 257.367 1032.04 247.147 1028.68 C 240.774 1026.58 234 1027.49 228.21 1030.8 C 219.928 1035.54 213.302 1044.25 210.893 1053.47 C 209.277 1059.65 209.11 1067.8 212.443 1073.5 C 215.216 1078.24 220.108 1082.95 224.184 1086.56 L 223.728 1087.43 C 219.273 1085.49 214.86 1081.32 212.188 1077.3 C 207.765 1070.66 206.741 1062.16 208.347 1054.45 C 210.342 1044.86 216.423 1035.75 224.675 1030.43 C 231.16 1026.25 239.04 1024.56 246.581 1026.48 C 257.052 1029.14 262.077 1036.93 267.243 1045.58 C 272.313 1036.12 277.92 1029.81 286.194 1023.13 L 285.931 957.08 C 285.89 941.809 284.078 924.109 287.783 909.292 A 56.1816 56.1816 0 0 1 302.509 883.199 C 321.36 864.478 354.823 869.281 379.264 869.191 L 381.061 865.423 z"
     id="path15" />
  <path
     transform="translate(0,0)"
     fill="url(#Gradient1)"
     d="M 159.221 1784.56 L 160.829 1785.7 C 172.744 1795.65 200.387 1821.05 214.009 1824.65 C 215.761 1822.94 215.805 1820.87 216.381 1818.53 L 217.648 1817.98 C 218.583 1820.71 218.56 1822.47 221.066 1824.07 C 237.058 1824.54 319.932 1825.92 329.81 1822.8 L 335.69 1824.31 L 335.046 1825.78 C 333.671 1826.17 332.324 1826.47 330.934 1826.8 C 329.426 1827.15 328.742 1827.51 327.539 1828.43 C 329.947 1828.75 332.258 1829.02 334.605 1829.67 L 162.561 1829.97 C 140.888 1829.89 115.437 1831.37 94.3849 1829.93 C 90.998 1829.7 88.2363 1829.11 85.4647 1827.14 L 85.3629 1825.59 C 87.3579 1824.16 89.1982 1823.76 91.5987 1823.52 C 103.398 1822.34 116.41 1823.54 128.321 1823.64 A 5489.11 5489.11 0 0 0 196.749 1823.77 C 188.689 1816.93 161.635 1799.1 158.096 1791.38 C 156.762 1788.47 158.02 1787.19 159.221 1784.56 z"
     id="path16" />
  <path
     transform="translate(0,0)"
     fill="rgb(224,222,225)"
     d="M 1307.81 1097.91 C 1313.81 1100.17 1319.37 1103.26 1325.33 1105.58 C 1344.76 1113.14 1367.11 1118.37 1388 1118.79 C 1364.57 1136.49 1334.9 1144.73 1307.87 1155.28 A 2933.51 2933.51 0 0 1 1307.81 1097.91 z"
     id="path17" />
  <path
     transform="translate(0,0)"
     fill="rgb(10,1,38)"
     d="M 470.059 652.521 L 471.888 651.735 C 472.046 652.387 472.219 653.036 472.361 653.692 C 475.278 667.227 472.17 692.897 464.366 704.47 C 461.308 709.003 455.459 712.906 450.052 713.81 C 447.873 714.175 445.577 714.307 443.369 714.361 L 445.429 714.539 L 445.005 714.989 C 445.265 715.07 445.529 715.143 445.787 715.234 C 451.004 717.076 455.521 721.555 459.752 725.032 C 485.861 746.49 503.22 774.7 517.524 804.981 L 521.595 813.039 L 518.437 814.418 C 502.297 781.816 484.489 743.11 452.799 723.042 L 451.664 724.031 C 446.023 728.877 441.975 731.125 434.357 730.579 C 429.697 730.245 419.174 725.572 416.001 727.459 C 415.924 727.791 415.857 728.126 415.769 728.456 C 413.07 738.646 397.39 746.415 391.464 756.136 C 383.793 768.721 367.198 830.142 374.145 843.191 C 377.4 849.307 386.276 852.257 392.573 853.777 C 416.091 859.452 442.649 853.505 465.746 848.231 C 464.44 842.253 463.501 837.245 463.854 831.089 L 464.923 836.24 L 468.441 838.588 L 474.657 839.43 L 474.814 840.254 L 474.25 840.848 L 468.296 840.864 C 466.845 842.972 467.784 844.623 468.21 847.059 L 467.196 850.558 C 461.246 851.301 455.602 853.258 449.899 855.036 C 444.415 854.913 434.868 854.545 430.042 857.296 C 435.248 859.778 442.791 859.897 448.551 860.634 C 467.866 863.107 523.46 866.649 530.545 886.996 C 536.64 904.501 534.073 988.559 529.279 1008.55 L 528.334 1009.06 C 528.869 997.754 530.364 986.491 530.918 975.17 C 531.904 954.985 531.634 934.905 530.963 914.718 C 530.662 905.684 531.074 895.095 528.088 886.508 C 526.322 881.432 523.136 879.642 518.45 877.388 C 508.792 872.742 498.205 869.868 487.723 867.807 C 473.897 865.089 392.614 854.289 382.829 857.772 C 380.842 860.23 381.088 862.434 381.061 865.423 L 379.264 869.191 C 379.077 866.167 379.064 863.595 379.775 860.636 L 381.321 854.053 C 378.211 851.736 374.802 849.418 372.224 846.504 C 367.709 841.399 368.926 834.188 369.548 827.841 C 371.64 806.487 378.285 767.488 391.342 750.587 C 396.986 743.281 405.018 737.507 412.127 731.674 C 414.928 723.181 417.735 714.728 419.998 706.071 L 422.43 707.007 C 422.804 704.71 423.207 703.002 424.262 700.921 L 425.789 698.806 C 429.374 702.97 432.967 706.333 437.267 709.738 A 164.822 164.822 0 0 0 445.438 710.65 C 450.685 711.055 455.716 709.089 459.585 705.538 C 471.604 694.509 469.636 667.511 470.059 652.521 z"
     id="path18" />
  <path
     transform="translate(0,0)"
     fill="rgb(252,252,252)"
     d="M 424.262 700.921 C 432.619 708.851 440.45 715.916 450.28 722.057 C 444.481 726.378 440.202 728.965 432.704 727.966 C 427.449 727.266 422.3 724.849 417.363 722.983 L 422.43 707.007 C 422.804 704.71 423.207 703.002 424.262 700.921 z"
     id="path19" />
  <path
     transform="translate(0,0)"
     fill="rgb(252,252,252)"
     d="M 428.83 650.985 C 441.179 649.653 458.246 648.433 470.059 652.521 C 469.636 667.511 471.604 694.509 459.585 705.538 C 455.716 709.089 450.685 711.055 445.438 710.65 A 164.822 164.822 0 0 1 437.267 709.738 C 432.967 706.333 429.374 702.97 425.789 698.806 C 421.036 690.375 412.951 680.79 409.583 671.934 C 408.343 668.675 408.156 666.24 409.569 663.053 C 412.495 661.814 416.126 664.758 419.214 665.555 C 420.503 665.888 422.282 666.131 423.442 665.357 C 427.193 662.854 427.94 655.123 428.83 650.985 z"
     id="path20" />
  <path
     transform="translate(0,0)"
     fill="rgb(63,63,122)"
     d="M 404.86 639.63 C 411.805 627.197 421.357 621.269 434.837 617.401 C 442.662 615.155 482.821 607.894 489.374 608.617 C 492.559 613.28 490.884 621.05 489.897 626.409 C 488.491 634.044 485.335 644.798 478.697 649.411 C 476.589 650.876 474.413 651.451 471.888 651.735 L 470.059 652.521 C 458.246 648.433 441.179 649.653 428.83 650.985 C 428.498 650.816 428.177 650.623 427.834 650.479 C 421.908 647.979 412.59 648.303 406.862 651.118 C 405.844 647.238 405.134 643.634 404.86 639.63 z"
     id="path21" />
  <path
     transform="translate(0,0)"
     fill="rgb(63,63,122)"
     d="M 223.728 1087.43 L 224.184 1086.56 C 220.108 1082.95 215.216 1078.24 212.443 1073.5 C 209.11 1067.8 209.277 1059.65 210.893 1053.47 C 213.302 1044.25 219.928 1035.54 228.21 1030.8 C 234 1027.49 240.774 1026.58 247.147 1028.68 C 257.367 1032.04 262.097 1040.06 266.511 1049.13 C 267.592 1055.63 268.503 1060.81 265.44 1066.97 C 265.236 1067.38 265.043 1067.8 264.837 1068.21 C 264.713 1068.45 264.578 1068.69 264.449 1068.94 C 263.698 1070.76 263.101 1072.7 261.885 1074.26 C 259.239 1077.89 256.824 1081.14 253.305 1084.02 C 248.584 1088.76 242.123 1090.93 235.468 1090.84 C 231.544 1090.79 226.895 1089.88 223.728 1087.43 z"
     id="path22" />
  <path
     transform="translate(0,0)"
     fill="rgb(37,31,88)"
     d="M 266.511 1049.13 C 267.592 1055.63 268.503 1060.81 265.44 1066.97 C 265.236 1067.38 265.043 1067.8 264.837 1068.21 C 264.713 1068.45 264.578 1068.69 264.449 1068.94 C 263.698 1070.76 263.101 1072.7 261.885 1074.26 C 259.239 1077.89 256.824 1081.14 253.305 1084.02 C 253.657 1080.44 256.895 1076.75 258.839 1073.69 C 259.363 1070.35 257.934 1068.45 256.339 1065.68 C 260.974 1060.52 265.219 1056.21 266.511 1049.13 z"
     id="path23" />
  <path
     transform="translate(0,0)"
     fill="rgb(1,0,6)"
     d="M 1424.56 1731.89 C 1424.85 1735.58 1424.53 1738.7 1427.41 1741.48 C 1430.66 1744.62 1437.31 1746.9 1438.65 1751.46 L 1447.14 1758.18 C 1454.65 1754.99 1458.1 1744.91 1465.52 1742.48 C 1457.23 1753.7 1447.56 1763.67 1439.95 1775.43 C 1435.98 1781.58 1435.72 1789.15 1431.49 1795.36 L 1429.52 1792.13 C 1427.58 1795.61 1425.4 1798.94 1423.26 1802.31 C 1418.15 1798.95 1413.44 1794.32 1408.78 1790.32 C 1406.15 1790.45 1403.52 1790.54 1400.89 1790.81 L 1393.44 1784.83 C 1385.54 1777.38 1364.2 1764.29 1363.22 1753.58 C 1364.44 1751.19 1364.63 1750.65 1367.33 1749.72 C 1378.23 1745.96 1400.33 1754.9 1410 1759.98 A 1832.02 1832.02 0 0 1 1424.56 1731.89 z"
     id="path24" />
  <path
     transform="translate(0,0)"
     fill="rgb(252,252,252)"
     d="M 1423.8 1740.8 C 1428.52 1744.74 1433.52 1748.08 1438.65 1751.46 L 1447.14 1758.18 C 1442.17 1764.7 1437.54 1771.25 1433.2 1778.2 C 1426.55 1772.49 1419.67 1767.07 1413.04 1761.32 L 1423.8 1740.8 z"
     id="path25" />
  <path
     transform="translate(0,0)"
     fill="rgb(246,163,94)"
     d="M 1400.62 1783.71 C 1394.26 1778.37 1370.64 1761.32 1369.11 1754.95 C 1371.27 1752.87 1373.17 1752.09 1376.21 1752.03 C 1399.99 1751.53 1416.67 1769.76 1434.35 1782.37 C 1432.81 1785.64 1431.36 1789.01 1429.52 1792.13 C 1427.58 1795.61 1425.4 1798.94 1423.26 1802.31 C 1418.15 1798.95 1413.44 1794.32 1408.78 1790.32 C 1406.15 1790.45 1403.52 1790.54 1400.89 1790.81 L 1393.44 1784.83 L 1400.62 1783.71 z"
     id="path26" />
  <path
     transform="translate(0,0)"
     fill="rgb(10,1,38)"
     d="M 1400.62 1783.71 L 1408.78 1790.32 C 1406.15 1790.45 1403.52 1790.54 1400.89 1790.81 L 1393.44 1784.83 L 1400.62 1783.71 z"
     id="path27" />
  <path
     transform="translate(0,0)"
     fill="rgb(63,63,122)"
     d="M 467.196 850.558 C 470.026 849.836 471.759 848.729 474.49 849.994 C 475.453 852.149 476.199 854.344 477.995 855.952 L 481.805 856.806 C 496.43 857.52 510.965 858.279 525.609 857.591 C 530.271 860.899 533.424 866.004 538.045 868.866 C 542.784 872.827 544.168 875.936 545.649 881.835 C 551.55 904.936 544.934 937.92 542.021 961.63 C 541.112 969.028 539.055 978.193 540.712 985.534 C 539.598 1009.53 530.452 1035.8 523.563 1058.69 L 519.692 1058.43 C 523.213 1044.33 522.834 1021.21 528.334 1009.06 L 529.279 1008.55 C 534.073 988.559 536.64 904.501 530.545 886.996 C 523.46 866.649 467.866 863.107 448.551 860.634 C 442.791 859.897 435.248 859.778 430.042 857.296 C 434.868 854.545 444.415 854.913 449.899 855.036 C 455.602 853.258 461.246 851.301 467.196 850.558 z"
     id="path28" />
  <path
     transform="translate(0,0)"
     fill="rgb(37,31,88)"
     d="M 467.196 850.558 C 470.026 849.836 471.759 848.729 474.49 849.994 C 475.453 852.149 476.199 854.344 477.995 855.952 L 481.805 856.806 C 471.852 858.094 460.125 855.18 449.899 855.036 C 455.602 853.258 461.246 851.301 467.196 850.558 z"
     id="path29" />
  <path
     transform="translate(0,0)"
     fill="rgb(12,8,67)"
     d="M 533.555 1817.99 C 536.251 1803.1 540.068 1792.83 550.719 1781.52 L 556.891 1782.02 C 543.493 1793.75 540.805 1805.37 537.147 1822.14 C 545.289 1825.03 601.77 1823.12 615.44 1823.11 L 842.234 1822.85 L 915.297 1822.76 C 927.336 1822.75 939.823 1822.06 951.816 1822.85 C 967.245 1824.19 1028.35 1822.52 1037.68 1826.5 L 1038.04 1827.35 C 1034.33 1827.31 1029.21 1826.68 1025.83 1828.26 L 1025.33 1828.85 C 1001.16 1829.77 976.69 1828.99 952.495 1828.97 L 816.617 1828.88 L 403.878 1829.27 C 403.875 1827.26 403.7 1827.74 404.163 1826.22 C 404.793 1824.17 405.435 1822.94 404.943 1820.73 C 400.789 1815.55 396.186 1813.65 390.202 1811.25 L 395.085 1810.36 C 395.404 1810.5 395.724 1810.63 396.041 1810.78 C 401.102 1813.04 407.374 1821.28 409.401 1821.88 C 417.028 1824.15 521.986 1824.75 531.859 1822.8 C 533.099 1821.18 533.261 1819.99 533.555 1817.99 z"
     id="path30" />
  <path
     transform="translate(0,0)"
     fill="rgb(224,222,225)"
     d="M 298.933 1017.6 C 296.384 1018.49 294.13 1019.55 291.383 1019.08 C 290.269 1017.9 289.774 1017.18 289.38 1015.57 C 288.151 1010.54 289.983 1002.98 290.038 997.558 C 290.213 980.059 289.827 962.517 289.796 945.013 C 289.778 934.932 289.141 924.405 290.77 914.427 A 52.2458 52.2458 0 0 1 299.606 892.692 C 318.525 866.17 351.195 876.561 378.441 872.226 C 378.786 872.171 379.129 872.107 379.473 872.048 C 386.68 889.519 393.938 899.711 411.801 907.265 L 411.916 908.086 L 391.789 908.063 L 397.586 909.196 L 397.71 909.818 C 394.639 910.387 391.496 910.822 388.533 911.81 C 373.659 912.248 349.196 909.686 335.935 912.596 C 331.292 913.885 327.254 914.984 324.854 919.519 C 322.822 923.359 322.906 927.976 322.808 932.201 C 323.006 941.445 321.412 1011.83 323.188 1015.55 C 323.506 1016.21 324.15 1016.67 324.631 1017.22 C 321.365 1018.86 303.356 1019.31 297.084 1020.97 C 298.158 1019.87 298.393 1019.02 298.933 1017.6 z"
     id="path31" />
  <path
     transform="translate(0,0)"
     fill="rgb(12,8,67)"
     d="M 317.487 918.772 C 318.698 916.756 319.937 914.517 321.641 912.875 C 331.645 903.234 377.343 907.134 391.789 908.063 L 397.586 909.196 L 397.71 909.818 C 394.639 910.387 391.496 910.822 388.533 911.81 C 373.659 912.248 349.196 909.686 335.935 912.596 C 331.292 913.885 327.254 914.984 324.854 919.519 C 322.822 923.359 322.906 927.976 322.808 932.201 C 323.006 941.445 321.412 1011.83 323.188 1015.55 C 323.506 1016.21 324.15 1016.67 324.631 1017.22 C 321.365 1018.86 303.356 1019.31 297.084 1020.97 C 298.158 1019.87 298.393 1019.02 298.933 1017.6 C 304.303 1015.39 311.253 1015.71 316.998 1015.44 L 316.911 954.537 C 316.9 942.675 316.391 930.583 317.487 918.772 z"
     id="path32" />
  <path
     transform="translate(0,0)"
     fill="rgb(224,222,225)"
     d="M 1149.79 695.71 C 1155.54 728.575 1162.85 760.098 1173.45 791.775 C 1179.67 810.351 1186.6 828.69 1193.07 847.185 C 1195.75 854.873 1199.87 863.061 1200.7 871.158 L 1105.64 871.032 C 1105.66 870.758 1105.69 870.484 1105.7 870.21 C 1106.41 855.816 1101.1 837.04 1100.42 821.49 C 1098.37 774.817 1125.5 733.268 1149.79 695.71 z"
     id="path33" />
  <path
     transform="translate(0,0)"
     fill="rgb(63,63,122)"
     d="M 381.061 865.423 C 381.088 862.434 380.842 860.23 382.829 857.772 C 392.614 854.289 473.897 865.089 487.723 867.807 C 498.205 869.868 508.792 872.742 518.45 877.388 C 523.136 879.642 526.322 881.432 528.088 886.508 C 531.074 895.095 530.662 905.684 530.963 914.718 C 531.634 934.905 531.904 954.985 530.918 975.17 C 530.364 986.491 528.869 997.754 528.334 1009.06 C 522.834 1021.21 523.213 1044.33 519.692 1058.43 C 518.164 1068.77 514.937 1078.81 513.309 1089.15 C 507.441 1088.79 502.571 1088.38 497.194 1091.11 C 495.546 1092.89 495.605 1094.56 495.314 1096.87 C 494.487 1084.75 486.764 991.37 483.413 987.629 L 482.584 989.681 C 480.739 978.895 480.113 967.793 478.735 956.922 A 1237.83 1237.83 0 0 0 471.908 912.898 C 426.665 911.94 381.132 914.677 335.935 912.596 C 349.196 909.686 373.659 912.248 388.533 911.81 C 391.496 910.822 394.639 910.387 397.71 909.818 L 397.586 909.196 L 391.789 908.063 L 411.916 908.086 L 411.801 907.265 L 413.235 905.67 C 411.623 905.095 410.112 904.461 408.59 903.671 C 392.988 895.572 386.299 881.211 381.061 865.423 z"
     id="path34" />
  <path
     transform="translate(0,0)"
     fill="rgb(10,1,38)"
     d="M 391.789 908.063 L 411.916 908.086 L 419.216 911.822 A 872.782 872.782 0 0 1 388.533 911.81 C 391.496 910.822 394.639 910.387 397.71 909.818 L 397.586 909.196 L 391.789 908.063 z"
     id="path35" />
  <path
     transform="translate(0,0)"
     fill="rgb(12,8,67)"
     d="M 413.235 905.67 L 414.515 906.027 C 433.589 911.165 453.037 909.565 472.52 910.098 L 472.28 910.946 L 472.808 910.226 L 473.523 910.863 C 470.239 912.791 426.71 912.08 419.216 911.822 L 411.916 908.086 L 411.801 907.265 L 413.235 905.67 z"
     id="path36" />
  <path
     transform="translate(0,0)"
     fill="rgb(37,31,88)"
     d="M 1624.08 1465.99 L 1540.37 1465.78 C 1525.14 1465.8 1509.21 1466.98 1494.06 1465.84 C 1490.23 1465.55 1485.45 1465.17 1482.15 1463 C 1477.48 1459.95 1474.7 1454.81 1472.56 1449.83 C 1463.37 1428.43 1455.71 1396.66 1448.08 1373.57 L 1426.79 1309.42 C 1424.04 1300.89 1420.12 1291.79 1418.4 1283.04 C 1417.6 1278.94 1417.44 1274.66 1420.15 1271.18 C 1421.88 1268.96 1423.92 1268.6 1426.51 1268.13 C 1429.54 1270.71 1434.34 1291.59 1436.11 1297.32 C 1446.58 1331.36 1458.37 1364.94 1469.05 1398.9 C 1474.21 1415.3 1477.68 1432.83 1484.63 1448.57 C 1508.07 1449.32 1531.91 1448.1 1555.4 1448.11 C 1569.7 1448.12 1594.78 1450.68 1607.95 1447.81 C 1630.76 1449.84 1673.1 1439.46 1694.25 1430.04 A 137.266 137.266 0 0 0 1726.55 1409.76 A 131.531 131.531 0 0 0 1756.73 1373.66 C 1760.88 1366.47 1764.43 1358.68 1769.98 1352.45 C 1764.28 1379.58 1739.4 1407.73 1716.8 1422.75 C 1712.62 1425.53 1708.24 1428.3 1703.66 1430.39 C 1708.61 1452.83 1714.86 1475.86 1716.34 1498.82 C 1705.3 1499.83 1694.27 1502.79 1683.47 1505.24 C 1639.33 1515.23 1578.71 1533.06 1540.48 1556.98 C 1533.66 1561.24 1526.56 1566.44 1520.68 1571.92 C 1517.07 1575.27 1510.7 1585.7 1506.48 1586.67 C 1519.5 1567.54 1518.43 1547.7 1529.26 1529.94 C 1541.04 1510.64 1601.95 1483.91 1622.83 1467.01 L 1624.08 1465.99 z"
     id="path37" />
  <path
     transform="translate(0,0)"
     fill="rgb(252,252,252)"
     d="M 1697.76 1433.06 L 1699.13 1433.18 C 1702.75 1437.62 1705.91 1458.82 1707.59 1465.34 C 1693.13 1464.01 1680.25 1460.88 1666.76 1455.51 C 1658.99 1452.49 1651.1 1449.71 1643.27 1446.83 C 1662.08 1444.12 1680.01 1439.88 1697.76 1433.06 z"
     id="path38" />
  <path
     transform="translate(0,0)"
     fill="rgb(161,163,243)"
     d="M 465.746 848.231 C 442.649 853.505 416.091 859.452 392.573 853.777 C 386.276 852.257 377.4 849.307 374.145 843.191 C 367.198 830.142 383.793 768.721 391.464 756.136 C 397.39 746.415 413.07 738.646 415.769 728.456 C 415.857 728.126 415.924 727.791 416.001 727.459 C 419.174 725.572 429.697 730.245 434.357 730.579 C 441.975 731.125 446.023 728.877 451.664 724.031 L 452.799 723.042 C 484.489 743.11 502.297 781.816 518.437 814.418 L 521.595 813.039 C 526.27 815.66 547.082 814.088 553.891 813.986 C 549.845 829.949 543.099 848.997 535.436 863.577 C 536.705 864.989 537.946 866.428 539.3 867.759 L 538.045 868.866 C 533.424 866.004 530.271 860.899 525.609 857.591 C 510.965 858.279 496.43 857.52 481.805 856.806 L 477.995 855.952 C 476.199 854.344 475.453 852.149 474.49 849.994 C 471.759 848.729 470.026 849.836 467.196 850.558 L 468.21 847.059 C 467.784 844.623 466.845 842.972 468.296 840.864 L 474.25 840.848 L 474.814 840.254 L 474.657 839.43 L 468.441 838.588 L 464.923 836.24 L 463.854 831.089 C 463.501 837.245 464.44 842.253 465.746 848.231 z"
     id="path39" />
  <path
     transform="translate(0,0)"
     fill="rgb(37,31,88)"
     d="M 428.597 824.933 C 436.385 816.761 443.062 808.226 443.861 796.459 C 445.387 773.969 432.716 770.527 421.319 757.057 L 421.996 756.59 C 424.632 757.972 427.027 759.495 429.339 761.382 C 438.932 769.212 445.711 779.603 446.622 792.21 C 447.635 806.24 441.083 814.833 432.49 824.848 C 439.445 825.836 459.654 829.037 465.302 827.199 C 465.323 824.297 462.85 825.402 461.336 823.043 C 466.984 821.585 472.959 820.811 478.023 817.81 C 479.438 815.495 478.977 814.806 478.659 812.071 L 479.244 811.6 L 478.5 810.438 C 479.384 811.152 480.955 812.827 481.933 813.211 C 487.43 815.371 511.046 814.292 518.437 814.418 L 521.595 813.039 C 526.27 815.66 547.082 814.088 553.891 813.986 C 549.845 829.949 543.099 848.997 535.436 863.577 C 536.705 864.989 537.946 866.428 539.3 867.759 L 538.045 868.866 C 533.424 866.004 530.271 860.899 525.609 857.591 C 510.965 858.279 496.43 857.52 481.805 856.806 L 477.995 855.952 C 476.199 854.344 475.453 852.149 474.49 849.994 C 471.759 848.729 470.026 849.836 467.196 850.558 L 468.21 847.059 C 467.784 844.623 466.845 842.972 468.296 840.864 L 474.25 840.848 L 474.814 840.254 L 474.657 839.43 L 468.441 838.588 L 464.923 836.24 L 463.854 831.089 C 463.692 830.453 463.842 829.637 463.37 829.18 C 462.76 828.589 418.37 830.031 409.459 824.265 C 415.762 823.379 422.282 824.388 428.597 824.933 z"
     id="path40" />
  <path
     transform="translate(0,0)"
     fill="rgb(252,252,252)"
     d="M 468.21 847.059 C 467.784 844.623 466.845 842.972 468.296 840.864 L 474.25 840.848 C 475.598 841.563 476.833 842.279 478.12 843.111 L 477.967 845.758 C 475.846 847.434 473.319 847.786 470.562 847.623 C 469.459 847.557 469.135 847.387 468.21 847.059 z"
     id="path41" />
  <path
     transform="translate(0,0)"
     fill="rgb(252,252,252)"
     d="M 484.988 818.385 L 485.519 819.662 C 487.809 825.027 489.441 828.096 494.496 831.046 C 494.981 831.33 496.059 832.166 496.57 832.555 C 493.808 836.313 490.202 836.962 485.744 837.641 C 480.106 838.5 474.142 838.367 468.441 838.588 L 464.923 836.24 C 465.567 831.993 465.566 830.138 469.123 827.351 C 473.82 823.669 479.695 821.099 484.988 818.385 z"
     id="path42" />
  <path
     transform="translate(0,0)"
     fill="rgb(224,222,225)"
     d="M 1267.54 594.8 C 1273.55 588.863 1279.64 583.051 1286.54 578.138 C 1287.47 587.788 1287.48 601.146 1291.46 609.849 C 1295.78 654.779 1300.63 700.614 1298.01 745.835 C 1297.44 755.613 1289.44 799.774 1292.03 804.794 C 1278.1 821.9 1261.94 837.728 1249.4 855.828 C 1249.03 855.494 1248.65 855.165 1248.28 854.824 C 1234.43 841.938 1218.9 785.717 1215.14 766.864 A 236.894 236.894 0 0 1 1210.83 727.613 C 1209.79 674.882 1231.5 632.025 1267.54 594.8 z"
     id="path43" />
  <path
     transform="translate(0,0)"
     fill="rgb(224,222,225)"
     d="M 1875.52 1578.85 L 1911.83 1578.95 C 1909.09 1607.57 1911.29 1639.34 1911.05 1668.29 L 1769.24 1668.35 C 1735.19 1667.67 1701.02 1668.19 1666.95 1668.14 L 1666.83 1641.52 C 1667.62 1626.34 1666.98 1610.85 1666.94 1595.63 C 1704.15 1587.57 1742.5 1581.31 1780.56 1579.45 C 1812.12 1577.91 1843.92 1579.32 1875.52 1578.85 z"
     id="path44" />
  <path
     transform="translate(0,0)"
     fill="rgb(224,222,225)"
     d="M 1283.8 823.009 C 1282.83 825.106 1281.71 826.934 1280.64 828.957 C 1280.48 829.252 1280.43 829.606 1280.24 829.881 C 1279.9 830.374 1279.46 830.785 1279.06 831.236 C 1296.59 824.598 1314.84 818.518 1332 811.104 C 1337.74 808.624 1345.22 807.851 1351.38 806.444 C 1398.71 795.638 1443.93 805.504 1487.89 823.686 C 1513.93 834.454 1539.16 848.196 1565.96 856.905 C 1579.18 861.2 1592.6 863.429 1606.16 866.303 L 1606.07 867.428 C 1602.07 869.569 1597.94 870.81 1593.83 872.611 C 1586.06 876.009 1578.58 880.146 1570.75 883.387 C 1564.25 886.072 1557.34 887.93 1550.76 890.466 C 1499.24 910.33 1453.41 927.317 1397.71 910.207 C 1372.46 902.452 1280.52 841.627 1260.77 852.094 C 1260.23 852.38 1259.71 852.703 1259.18 853.007 C 1265.23 843.118 1274.89 830.44 1283.8 823.009 z"
     id="path45" />
  <path
     transform="translate(0,0)"
     fill="rgb(224,222,225)"
     d="M 550.719 1781.52 C 557.125 1776.04 563.672 1772.44 571.967 1770.61 C 585.283 1767.68 600.243 1768.99 613.853 1769.05 L 672.262 1769.36 C 676.656 1772.12 704.381 1770.47 711.476 1770.45 L 724.905 1770.24 L 840.853 1770.17 C 855.601 1770.19 878.772 1768.49 892.667 1770.71 L 894.659 1775.1 C 899.974 1775.08 905.403 1775.27 910.705 1775.02 C 926.56 1767.49 948.129 1771.48 965.215 1769.85 A 717.923 717.923 0 0 1 977.742 1769.83 C 996.19 1769.81 1013.88 1773.2 1027.62 1786.64 C 1037.94 1796.73 1042.28 1808.97 1043.5 1823.04 C 1048.84 1823.06 1054.22 1822.95 1059.55 1823.16 C 1053.55 1824.19 1041.82 1822.43 1037.68 1826.5 C 1028.35 1822.52 967.245 1824.19 951.816 1822.85 C 939.823 1822.06 927.336 1822.75 915.297 1822.76 L 842.234 1822.85 L 615.44 1823.11 C 601.77 1823.12 545.289 1825.03 537.147 1822.14 C 540.805 1805.37 543.493 1793.75 556.891 1782.02 L 550.719 1781.52 z"
     id="path46" />
  <path
     transform="translate(0,0)"
     fill="rgb(12,8,67)"
     d="M 965.215 1769.85 A 717.923 717.923 0 0 1 977.742 1769.83 C 974.848 1771.28 971.635 1774.69 968.95 1775.46 C 949.831 1773.87 929.908 1775 910.705 1775.02 C 926.56 1767.49 948.129 1771.48 965.215 1769.85 z"
     id="path47" />
  <path
     transform="translate(0,0)"
     fill="url(#Gradient2)"
     d="M 550.719 1781.52 C 557.125 1776.04 563.672 1772.44 571.967 1770.61 C 585.283 1767.68 600.243 1768.99 613.853 1769.05 L 672.262 1769.36 C 676.656 1772.12 704.381 1770.47 711.476 1770.45 C 713.781 1770.77 719 1770.92 720.8 1772.1 C 715.962 1773.49 701.476 1773.63 700.275 1774.7 A 5554.97 5554.97 0 0 1 616.931 1774.7 C 602.874 1774.66 587.416 1773.32 573.592 1775.58 C 567.236 1776.62 562.392 1778.72 556.891 1782.02 L 550.719 1781.52 z"
     id="path48" />
  <path
     transform="translate(0,0)"
     fill="rgb(10,1,38)"
     d="M 724.905 1770.24 L 840.853 1770.17 C 855.601 1770.19 878.772 1768.49 892.667 1770.71 L 894.659 1775.1 L 700.275 1774.7 C 701.476 1773.63 715.962 1773.49 720.8 1772.1 C 719 1770.92 713.781 1770.77 711.476 1770.45 L 724.905 1770.24 z"
     id="path49" />
  <path
     transform="translate(0,0)"
     fill="rgb(37,31,88)"
     d="M 977.742 1769.83 C 996.19 1769.81 1013.88 1773.2 1027.62 1786.64 C 1037.94 1796.73 1042.28 1808.97 1043.5 1823.04 C 1048.84 1823.06 1054.22 1822.95 1059.55 1823.16 C 1053.55 1824.19 1041.82 1822.43 1037.68 1826.5 C 1028.35 1822.52 967.245 1824.19 951.816 1822.85 C 967.215 1821.31 983.508 1822.21 999.009 1822.12 C 999.084 1813.35 997.955 1805.25 994.082 1797.23 C 988.786 1786.27 980.39 1779.26 968.95 1775.46 C 971.635 1774.69 974.848 1771.28 977.742 1769.83 z"
     id="path50" />
  <path
     transform="translate(0,0)"
     fill="url(#Gradient3)"
     d="M 539.3 867.759 C 542.109 869.831 543.767 870.335 547.244 870.525 C 568.082 871.665 589.523 870.745 610.413 870.778 L 736.206 870.883 L 1105.64 871.032 L 1200.7 871.158 L 1237.48 871.058 C 1245.02 870.996 1252.62 871.123 1260.16 870.848 C 1273.95 871.631 1287.07 876.48 1296.54 886.932 C 1301.27 892.147 1304.52 898.049 1305.83 904.954 C 1309.39 923.864 1307.25 953.324 1307.29 973.099 L 1307.81 1097.91 A 2933.51 2933.51 0 0 0 1307.87 1155.28 L 1307.88 1472.28 L 1308.05 1560.94 C 1308.09 1576.65 1309.47 1593.44 1307.36 1608.98 C 1306.08 1618.36 1301.99 1625.9 1295.32 1632.62 C 1288.43 1639.55 1281.87 1642.26 1272.37 1643.54 C 1259.25 1645.32 1245.15 1644.32 1231.91 1644.25 L 1166.02 1644.03 L 923.127 1643.72 L 904.94 1643.72 C 900.079 1643.73 873.726 1642.91 873.736 1645.39 C 873.744 1647.51 874.564 1649.01 875.395 1650.91 C 874.17 1650.64 873.841 1650.66 872.645 1649.86 C 870.204 1648.22 868.005 1644.91 867.411 1642.09 C 869.865 1637.98 874.825 1639.05 879.072 1639.13 C 911.878 1639.78 944.79 1639.22 977.607 1639.2 L 1153.89 1639.17 C 1162.56 1639.17 1208.05 1640.63 1212.68 1638.32 C 1221.43 1638.37 1230.55 1638.86 1239.24 1637.93 C 1250.54 1636.72 1260.08 1631.02 1266.86 1621.89 C 1271.3 1615.92 1272.19 1604.92 1272.45 1597.54 C 1273.15 1578.09 1272.64 1558.44 1272.66 1538.97 L 1272.75 1426.66 L 1272.79 1114.03 L 1272.34 982.739 C 1272.34 963.878 1274.43 934.581 1271.25 917.117 C 1268.81 903.732 1261.88 894.571 1251 886.859 C 1242.48 880.824 1234.44 878.326 1224.1 877.731 C 1204.53 876.604 1184.63 877.252 1165.01 877.23 L 1063.76 877.004 L 741.013 876.633 L 602.136 876.662 C 587.834 876.655 560.53 874.606 547.639 876.82 L 547.406 879.111 L 545.649 881.835 C 544.168 875.936 542.784 872.827 538.045 868.866 L 539.3 867.759 z"
     id="path51" />
  <path
     transform="translate(0,0)"
     fill="rgb(224,222,225)"
     d="M 1513.65 400.185 C 1519.1 459.584 1542.46 531.114 1500.04 582.295 C 1496.47 586.596 1492.6 590.695 1488.81 594.797 C 1517.64 576.3 1540.93 549.009 1570.5 532.07 C 1612.46 508.036 1661.37 529.126 1705.82 532.232 C 1721.97 533.361 1736.85 531.277 1752.72 528.729 A 2176.8 2176.8 0 0 1 1715.73 560.294 C 1681.83 588.718 1653.21 607.661 1606.99 604.801 C 1575.63 602.859 1513.88 577.38 1489.05 598.721 C 1469.12 615.857 1450.83 636.411 1432.37 655.165 C 1424.98 662.682 1415.99 669.799 1409.71 678.251 C 1398.44 690.778 1387.62 703.942 1376.05 716.151 C 1390.93 708.157 1406.35 697.204 1422.76 692.757 C 1465.05 677.334 1513.68 668.914 1556.1 688.654 C 1580.55 700.032 1602.8 716.404 1626.38 729.505 C 1637.45 735.654 1649.59 739.006 1660.62 744.89 C 1665.56 747.525 1672.12 747.191 1676.52 750.498 C 1675.72 752.437 1674.57 752.494 1672.68 753.298 C 1655.51 760.569 1633.82 764.493 1615.77 769.49 C 1611.73 770.61 1607.98 772.52 1603.98 773.768 C 1597.95 775.652 1571.92 781.29 1566.44 781.519 C 1563.24 781.652 1560.31 781.754 1557.24 782.716 C 1549.16 785.247 1537.25 785.11 1528.96 783.565 C 1517.76 781.478 1506.62 781.496 1495.44 778.543 C 1464.29 770.316 1436.89 754.518 1409.22 738.647 C 1397.74 732.058 1386.41 726.108 1375.58 718.414 C 1359.27 734.949 1343.94 752.79 1328.8 770.408 C 1321.16 779.293 1304.45 803.844 1296.17 808.838 C 1299 802.67 1304.99 797.285 1309.05 791.744 C 1325.68 770.201 1344.16 750.083 1362.14 729.672 C 1359.77 729.519 1357.05 733.877 1354.39 735.014 L 1358.22 730.147 L 1357.73 728.443 C 1358.56 727.052 1360.31 724.458 1360.48 722.915 C 1360.98 718.414 1354.3 697.935 1353.01 692.068 C 1348.96 673.605 1347.1 654.75 1343.33 636.363 C 1339.07 585.763 1334.53 547.674 1369.49 506.054 C 1379.77 493.81 1392.34 482.39 1405.46 473.241 C 1414.61 542.868 1428.75 608.291 1404.93 676.902 C 1418.42 667.189 1446.04 640.853 1455.43 626.744 C 1458.18 622.616 1459.57 617.928 1460.4 613.078 C 1462.85 598.686 1462.31 583.209 1461.73 568.645 C 1458.64 491.285 1444.82 453.94 1513.65 400.185 z"
     id="path52" />
  <path
     transform="translate(0,0)"
     fill="url(#Gradient4)"
     d="M 1662.95 1596.86 L 1664.88 1596.44 C 1668.22 1602.06 1665.47 1632.32 1666.83 1641.52 L 1666.95 1668.14 C 1701.02 1668.19 1735.19 1667.67 1769.24 1668.35 C 1777.73 1672.78 1904.03 1665.81 1911.99 1670.12 L 1911.34 1671.98 C 1910.93 1683.03 1913.34 1727.25 1910.46 1734.17 C 1912.79 1735.86 1913.02 1735.96 1913.48 1738.95 C 1915.87 1754.35 1911.15 1780.02 1914.58 1793.35 L 1915.79 1792.09 C 1915.83 1802.47 1915.61 1812.92 1915.99 1823.28 C 1923.62 1823.42 1952.54 1822.38 1957.25 1826.14 C 1955.08 1828.89 1952.06 1829.71 1948.59 1830.16 C 1940.31 1831.24 1930.76 1829.98 1922.32 1829.97 L 1857.13 1829.96 A 19109.1 19109.1 0 0 1 1628.72 1829.41 A 33164.5 33164.5 0 0 1 1206.47 1829.05 C 1146.17 1828.95 1085.59 1830.32 1025.33 1828.85 L 1025.83 1828.26 C 1029.21 1826.68 1034.33 1827.31 1038.04 1827.35 L 1037.68 1826.5 C 1041.82 1822.43 1053.55 1824.19 1059.55 1823.16 C 1163.24 1821.23 1267.24 1823.39 1370.97 1823.5 C 1383.45 1823.51 1447.06 1825.23 1453.52 1823.21 C 1455.98 1822.43 1455 1809.66 1458.34 1805.84 C 1466.07 1796.96 1488.44 1796.82 1499.28 1796 C 1497.09 1763.08 1501.83 1727.12 1503.57 1694 L 1502.33 1693.11 L 1501.72 1691.91 C 1502.86 1689.18 1504.21 1686.65 1505.9 1684.2 C 1515.49 1670.23 1545.02 1634.18 1560.37 1631.24 C 1568.95 1629.95 1579.7 1623.49 1587.98 1620.2 C 1611.55 1610.85 1637.83 1600.65 1662.95 1596.86 z"
     id="path53" />
  <path
     transform="translate(0,0)"
     fill="rgb(1,0,6)"
     d="M 1852.04 1734.82 C 1870.94 1734.25 1890.03 1734.5 1908.93 1734.89 L 1908.17 1737.28 C 1898.58 1738.52 1888.23 1737.76 1878.53 1737.77 L 1808.19 1737.68 C 1795.91 1737.66 1782.64 1736.66 1770.5 1738.18 C 1759.22 1739.25 1747.14 1738.38 1735.77 1738.35 A 4183.57 4183.57 0 0 1 1672.16 1737.93 L 1672.46 1736.19 C 1679.9 1732.69 1825.39 1737.12 1852.04 1734.82 z"
     id="path54" />
  <path
     transform="translate(0,0)"
     fill="rgb(246,163,94)"
     d="M 1457.46 1819.34 C 1459.37 1812.45 1460.39 1808.53 1467.03 1804.96 C 1481.6 1797.1 1511.32 1798.3 1527.04 1802.73 L 1528.37 1806.17 C 1530.06 1811.48 1530.6 1817.12 1531.39 1822.62 C 1506.79 1821.71 1481.99 1821.35 1457.46 1819.34 z"
     id="path55" />
  <path
     transform="translate(0,0)"
     fill="rgb(224,222,225)"
     d="M 1667.01 1672 L 1825.64 1672.35 C 1854.15 1672.41 1882.87 1673.15 1911.34 1671.98 C 1910.93 1683.03 1913.34 1727.25 1910.46 1734.17 L 1908.93 1734.89 C 1890.03 1734.5 1870.94 1734.25 1852.04 1734.82 C 1832.56 1732.92 1811.57 1734.37 1791.95 1734.33 L 1667.1 1734.42 L 1667.01 1672 z"
     id="path56" />
  <path
     transform="translate(0,0)"
     fill="rgb(224,222,225)"
     d="M 1672.16 1737.93 A 4183.57 4183.57 0 0 0 1735.77 1738.35 C 1747.14 1738.38 1759.22 1739.25 1770.5 1738.18 C 1787.84 1739.21 1805.45 1738.65 1822.82 1738.69 L 1911.52 1738.91 L 1911.34 1819.87 L 1666.97 1820.01 C 1666.94 1809.2 1665.18 1743.09 1668.21 1738.45 L 1672.16 1737.93 z"
     id="path57" />
  <path
     transform="translate(0,0)"
     fill="rgb(252,252,252)"
     d="M 1560.37 1631.24 C 1568.95 1629.95 1579.7 1623.49 1587.98 1620.2 C 1611.55 1610.85 1637.83 1600.65 1662.95 1596.86 C 1661.61 1672.29 1663.93 1747.81 1662.62 1823.22 L 1534.7 1823.22 C 1534.42 1816.56 1533.67 1810.37 1532.38 1803.83 L 1528.37 1806.17 L 1527.04 1802.73 C 1528.37 1800.88 1528 1801.95 1527.94 1799.45 C 1519.77 1796.56 1509.59 1799.26 1502.14 1796.02 A 1480.96 1480.96 0 0 0 1501.52 1778.66 L 1500.96 1778.52 L 1501.25 1775.52 C 1498.91 1778.07 1500.23 1791.73 1499.28 1796 C 1497.09 1763.08 1501.83 1727.12 1503.57 1694 L 1502.33 1693.11 L 1501.72 1691.91 C 1502.86 1689.18 1504.21 1686.65 1505.9 1684.2 C 1515.49 1670.23 1545.02 1634.18 1560.37 1631.24 z"
     id="path58" />
  <path
     transform="translate(0,0)"
     fill="rgb(37,31,88)"
     d="M 1502.33 1693.11 L 1501.72 1691.91 C 1502.86 1689.18 1504.21 1686.65 1505.9 1684.2 C 1515.49 1670.23 1545.02 1634.18 1560.37 1631.24 C 1555.65 1653.35 1528.68 1791.6 1532.38 1803.83 L 1528.37 1806.17 L 1527.04 1802.73 C 1528.37 1800.88 1528 1801.95 1527.94 1799.45 C 1519.77 1796.56 1509.59 1799.26 1502.14 1796.02 A 1480.96 1480.96 0 0 0 1501.52 1778.66 L 1500.96 1778.52 L 1501.25 1775.52 C 1498.91 1778.07 1500.23 1791.73 1499.28 1796 C 1497.09 1763.08 1501.83 1727.12 1503.57 1694 L 1502.33 1693.11 z"
     id="path59" />
  <path
     transform="translate(0,0)"
     fill="rgb(252,252,252)"
     d="M 1502.73 1773.04 A 1486.42 1486.42 0 0 1 1531.53 1774.38 C 1530.35 1782.29 1527.34 1791.59 1527.94 1799.45 C 1519.77 1796.56 1509.59 1799.26 1502.14 1796.02 C 1502.93 1788.39 1502.75 1780.7 1502.73 1773.04 z"
     id="path60" />
  <path
     transform="translate(0,0)"
     fill="rgb(63,63,122)"
     d="M 257.315 1337.25 C 262.718 1339.56 268.13 1341.9 273.649 1343.92 A 154.289 154.289 0 0 0 390.294 1338.68 C 391.45 1345.27 391.387 1358.58 395.107 1363.78 C 402.777 1385.92 395.335 1542.7 390.972 1573.71 C 385.755 1582.92 385.439 1601.64 384.91 1612.07 C 384.066 1622.14 374.942 1696.17 375.596 1698.86 C 375.784 1699.64 376.297 1700.3 376.647 1701.01 C 375.205 1720.72 371.619 1740.52 368.112 1759.94 C 366.446 1769.17 363.792 1778.86 363.504 1788.24 L 367.803 1798.21 C 376.642 1803.72 385.862 1805.99 395.085 1810.36 L 390.202 1811.25 C 396.186 1813.65 400.789 1815.55 404.943 1820.73 C 405.435 1822.94 404.793 1824.17 404.163 1826.22 C 403.7 1827.74 403.875 1827.26 403.878 1829.27 C 394.304 1829.72 384.78 1829.79 375.199 1829.75 A 2024.27 2024.27 0 0 1 334.605 1829.67 C 332.258 1829.02 329.947 1828.75 327.539 1828.43 C 328.742 1827.51 329.426 1827.15 330.934 1826.8 C 332.324 1826.47 333.671 1826.17 335.046 1825.78 L 335.69 1824.31 L 329.81 1822.8 C 319.932 1825.92 237.058 1824.54 221.066 1824.07 C 218.56 1822.47 218.583 1820.71 217.648 1817.98 L 216.381 1818.53 C 215.805 1820.87 215.761 1822.94 214.009 1824.65 C 200.387 1821.05 172.744 1795.65 160.829 1785.7 L 159.221 1784.56 C 162.777 1776.64 172.331 1767.2 172.643 1758.56 C 172.108 1757.77 171.136 1756.38 170.751 1755.55 C 165.524 1744.3 236.385 1575.45 247.485 1548.9 L 248.991 1544 C 255.317 1523.96 248.819 1497.35 247.076 1476.61 C 245.063 1452.65 242.635 1425.67 245.629 1401.69 L 246.463 1406.85 C 248.568 1401.93 249.891 1378.6 250.949 1371.27 C 252.604 1359.81 254.809 1348.55 257.315 1337.25 z"
     id="path61" />
  <path
     transform="translate(0,0)"
     fill="rgb(10,1,38)"
     d="M 247.485 1548.9 C 248.049 1558.58 230.592 1594.37 226.143 1605.56 C 221.076 1618.3 170.001 1749.44 172.476 1754.53 C 173.197 1756.02 175.839 1757.49 176.908 1759.03 A 669.172 669.172 0 0 0 192.859 1763.49 C 195.533 1764.19 198.368 1764.69 200.773 1766.1 C 213.412 1750.96 222.759 1732.48 232.396 1715.31 A 4124.58 4124.58 0 0 0 276.965 1633.19 L 278.31 1635.25 A 3139.38 3139.38 0 0 1 218.372 1745.01 C 211.787 1756.28 202.19 1766.74 196.4 1778.3 C 194.471 1782.15 194.912 1786.71 194.981 1790.89 C 201.671 1799.84 213.887 1807.66 217.648 1817.98 L 216.381 1818.53 C 215.805 1820.87 215.761 1822.94 214.009 1824.65 C 200.387 1821.05 172.744 1795.65 160.829 1785.7 L 159.221 1784.56 C 162.777 1776.64 172.331 1767.2 172.643 1758.56 C 172.108 1757.77 171.136 1756.38 170.751 1755.55 C 165.524 1744.3 236.385 1575.45 247.485 1548.9 z"
     id="path62" />
  <path
     transform="translate(0,0)"
     fill="rgb(252,208,193)"
     d="M 192.859 1763.49 C 195.533 1764.19 198.368 1764.69 200.773 1766.1 L 199.755 1767.46 C 195.09 1773.77 192.887 1781.05 188.562 1787.29 C 186.973 1787.44 186.399 1787.48 184.831 1786.98 C 188.588 1780.03 190.837 1771.15 192.859 1763.49 z"
     id="path63" />
  <path
     transform="translate(0,0)"
     fill="rgb(224,222,225)"
     d="M 176.908 1759.03 A 669.172 669.172 0 0 0 192.859 1763.49 C 190.837 1771.15 188.588 1780.03 184.831 1786.98 C 180.489 1784.85 174.698 1782.12 172.61 1777.42 C 169.962 1771.47 174.436 1764.37 176.908 1759.03 z"
     id="path64" />
  <path
     transform="translate(0,0)"
     fill="rgb(246,114,126)"
     d="M 160.829 1785.7 L 165.985 1777.48 C 168.892 1780.69 171.903 1784.39 175.362 1787 C 179.94 1790.46 185.883 1792.97 190.946 1795.73 C 200.465 1800.92 209.999 1809.72 216.381 1818.53 C 215.805 1820.87 215.761 1822.94 214.009 1824.65 C 200.387 1821.05 172.744 1795.65 160.829 1785.7 z"
     id="path65" />
  <path
     transform="translate(0,0)"
     fill="rgb(12,8,67)"
     d="M 276.965 1633.19 C 286.891 1611.62 312.932 1569.33 315.619 1547.91 C 317.437 1533.42 310.847 1483.98 309.048 1466.91 C 307.543 1452.63 302.713 1426 304.093 1412.7 L 304.846 1412.35 C 308.771 1417.96 325.178 1603.07 325.125 1619.01 C 325.932 1629.76 327.586 1641.09 326.962 1651.84 L 324.515 1652.15 C 324.372 1649.39 324.432 1646.88 323.098 1644.38 C 320.25 1642.23 313.854 1642.44 310.2 1641.62 C 297.954 1639.46 291.764 1633.05 284.884 1623.39 L 278.31 1635.25 L 276.965 1633.19 z"
     id="path66" />
  <path
     transform="translate(0,0)"
     fill="rgb(252,252,252)"
     d="M 316.181 1554.64 C 320.719 1568.11 320.416 1590.73 321.107 1605.24 L 311.794 1600.02 C 307.846 1597.44 304.801 1594.27 301.513 1590.93 C 305.899 1578.71 311.536 1566.81 316.181 1554.64 z"
     id="path67" />
  <path
     transform="translate(0,0)"
     fill="rgb(252,252,252)"
     d="M 299.221 1594.66 C 305.205 1602.18 319.756 1607.88 321.944 1611.84 C 322.006 1617.82 324.805 1632.4 321.457 1636.75 L 317.714 1637.14 C 303.844 1634.42 295.858 1631.6 287.594 1619.56 C 290.96 1610.97 295.05 1602.86 299.221 1594.66 z"
     id="path68" />
  <path
     transform="translate(0,0)"
     fill="rgb(10,1,38)"
     d="M 324.515 1652.15 L 326.962 1651.84 C 330.413 1684.05 330.577 1716.98 332.643 1749.36 C 333.26 1759.04 332.532 1769.17 335.072 1778.58 C 340.83 1779.05 355.366 1778.46 359.436 1782.67 C 360.498 1783.76 360.391 1787.36 360.561 1788.92 L 361.552 1783.11 L 362.216 1782.66 L 363.504 1788.24 L 367.803 1798.21 C 376.642 1803.72 385.862 1805.99 395.085 1810.36 L 390.202 1811.25 C 396.186 1813.65 400.789 1815.55 404.943 1820.73 C 405.435 1822.94 404.793 1824.17 404.163 1826.22 C 403.7 1827.74 403.875 1827.26 403.878 1829.27 C 394.304 1829.72 384.78 1829.79 375.199 1829.75 A 2024.27 2024.27 0 0 1 334.605 1829.67 C 332.258 1829.02 329.947 1828.75 327.539 1828.43 C 328.742 1827.51 329.426 1827.15 330.934 1826.8 C 332.324 1826.47 333.671 1826.17 335.046 1825.78 L 335.69 1824.31 L 329.81 1822.8 C 329.744 1822.33 329.682 1821.86 329.611 1821.39 C 328.309 1812.85 333.092 1804.68 332.78 1795.92 C 331.078 1748.07 327.485 1699.97 324.515 1652.15 z"
     id="path69" />
  <path
     transform="translate(0,0)"
     fill="rgb(224,222,225)"
     d="M 335.072 1778.58 C 340.83 1779.05 355.366 1778.46 359.436 1782.67 C 360.498 1783.76 360.391 1787.36 360.561 1788.92 L 364.752 1801.09 C 353.796 1806.65 347.936 1806.36 336.067 1804.21 C 336.009 1795.67 335.464 1787.11 335.072 1778.58 z"
     id="path70" />
  <path
     transform="translate(0,0)"
     fill="rgb(246,114,126)"
     d="M 404.943 1820.73 C 404.827 1820.8 404.713 1820.87 404.594 1820.93 C 401.488 1822.57 339.285 1823.2 335.515 1821.52 C 332.863 1820.34 332.783 1819.85 331.907 1817.29 C 332.383 1815.12 332.517 1813.95 334.046 1812.24 C 337.657 1808.19 348.544 1810.34 353.707 1810.32 C 359.646 1810.3 364.122 1807.68 368.18 1803.53 C 368.433 1803.27 368.68 1803.01 368.93 1802.74 C 375.777 1806.08 382.86 1809.2 390.202 1811.25 C 396.186 1813.65 400.789 1815.55 404.943 1820.73 z"
     id="path71" />
  <path
     transform="translate(0,0)"
     fill="rgb(252,252,252)"
     d="M 284.884 1623.39 C 291.764 1633.05 297.954 1639.46 310.2 1641.62 C 313.854 1642.44 320.25 1642.23 323.098 1644.38 C 324.432 1646.88 324.372 1649.39 324.515 1652.15 C 327.485 1699.97 331.078 1748.07 332.78 1795.92 C 333.092 1804.68 328.309 1812.85 329.611 1821.39 C 329.682 1821.86 329.744 1822.33 329.81 1822.8 C 319.932 1825.92 237.058 1824.54 221.066 1824.07 C 218.56 1822.47 218.583 1820.71 217.648 1817.98 C 213.887 1807.66 201.671 1799.84 194.981 1790.89 C 194.912 1786.71 194.471 1782.15 196.4 1778.3 C 202.19 1766.74 211.787 1756.28 218.372 1745.01 A 3139.38 3139.38 0 0 0 278.31 1635.25 L 284.884 1623.39 z"
     id="path72" />
  <path
     transform="translate(0,0)"
     fill="rgb(63,63,122)"
     d="M 1670.8 1176.89 C 1659.5 1171.9 1646.41 1165.96 1641.07 1154.01 C 1637.83 1146.75 1638.16 1139.13 1641.23 1131.89 C 1649.84 1111.6 1692.05 1084.09 1712.13 1076.5 C 1730.7 1069.48 1754.26 1068.04 1772.53 1076.78 C 1784.26 1082.38 1792.18 1091.99 1796.39 1104.2 C 1799.8 1114.07 1803.39 1140.69 1799.06 1149.76 C 1799.27 1155.44 1800.66 1157.01 1804.29 1161.36 C 1808.11 1165.93 1809.85 1170.53 1809.27 1176.57 C 1808.37 1185.87 1801.58 1193.64 1794.48 1199.13 C 1782.85 1208.12 1768.15 1213.39 1754.01 1216.82 C 1763.13 1231.52 1774.19 1244.78 1782.6 1259.94 A 1093.35 1093.35 0 0 1 1806.88 1306.26 C 1816.15 1325.36 1874.78 1452.57 1871.34 1463.04 C 1869.74 1467.92 1861.31 1471.99 1857.11 1474.61 C 1860.16 1492.41 1863.01 1517.95 1855.41 1535.05 C 1850.09 1549.64 1840.34 1559.06 1828.21 1568.23 C 1825.14 1570.54 1821.27 1572.48 1818.53 1575.09 L 1814.12 1578.03 C 1833.98 1578.05 1855.95 1575.94 1875.52 1578.85 C 1843.92 1579.32 1812.12 1577.91 1780.56 1579.45 C 1742.5 1581.31 1704.15 1587.57 1666.94 1595.63 C 1666.98 1610.85 1667.62 1626.34 1666.83 1641.52 C 1665.47 1632.32 1668.22 1602.06 1664.88 1596.44 L 1662.95 1596.86 C 1637.83 1600.65 1611.55 1610.85 1587.98 1620.2 C 1579.7 1623.49 1568.95 1629.95 1560.37 1631.24 C 1545.02 1634.18 1515.49 1670.23 1505.9 1684.2 C 1504.21 1686.65 1502.86 1689.18 1501.72 1691.91 L 1502.33 1693.11 C 1497.12 1701.11 1470.82 1738.76 1465.52 1742.48 C 1458.1 1744.91 1454.65 1754.99 1447.14 1758.18 L 1438.65 1751.46 C 1437.31 1746.9 1430.66 1744.62 1427.41 1741.48 C 1424.53 1738.7 1424.85 1735.58 1424.56 1731.89 C 1433.01 1713.16 1444.08 1694.78 1453.85 1676.66 C 1466.06 1654 1490.92 1604.77 1506.48 1586.67 C 1510.7 1585.7 1517.07 1575.27 1520.68 1571.92 C 1526.56 1566.44 1533.66 1561.24 1540.48 1556.98 C 1578.71 1533.06 1639.33 1515.23 1683.47 1505.24 C 1694.27 1502.79 1705.3 1499.83 1716.34 1498.82 C 1714.86 1475.86 1708.61 1452.83 1703.66 1430.39 C 1708.24 1428.3 1712.62 1425.53 1716.8 1422.75 C 1739.4 1407.73 1764.28 1379.58 1769.98 1352.45 C 1764.43 1358.68 1760.88 1366.47 1756.73 1373.66 A 131.531 131.531 0 0 1 1726.55 1409.76 A 137.266 137.266 0 0 1 1694.25 1430.04 C 1673.1 1439.46 1630.76 1449.84 1607.95 1447.81 C 1605.1 1440.19 1602.19 1432.35 1600.34 1424.42 C 1599.78 1423.13 1599.14 1422.06 1598.4 1420.87 C 1592.61 1419.87 1575.17 1433.4 1569.18 1436.54 L 1569.19 1436.25 C 1576.08 1429.62 1583.81 1424.34 1591.88 1419.26 L 1582.8 1401.93 C 1575.69 1404.52 1568.14 1405.75 1560.91 1408.03 C 1541.45 1414.16 1520.32 1423.73 1504.99 1437.29 C 1515.22 1437.16 1548.92 1431.09 1555.8 1436.36 C 1551.99 1438.45 1542.41 1436.7 1537.64 1437.17 C 1529.38 1437.99 1520.65 1441.32 1512.37 1440.79 C 1509.5 1440.6 1506.75 1440.33 1504.7 1438.12 C 1503.42 1426.59 1549.47 1407.5 1559.94 1404.25 C 1565.73 1402.44 1571.93 1402.4 1577.61 1400.08 C 1607.59 1387.88 1687.27 1354.6 1704.9 1330.41 C 1709.63 1323.92 1711.56 1312.88 1713.64 1305.21 C 1724.53 1265 1725.19 1263.55 1717.07 1222.99 C 1713.96 1224.11 1710.83 1225.26 1707.61 1226 C 1700.98 1227.54 1693.62 1227.56 1687.71 1223.75 C 1678.93 1218.1 1676.53 1207.34 1674.38 1197.84 C 1672.56 1191.09 1671.86 1183.81 1670.8 1176.89 z"
     id="path73" />
  <path
     transform="translate(0,0)"
     fill="rgb(10,1,38)"
     d="M 1800.97 1577.94 C 1811.72 1573.02 1822.97 1570.04 1832.32 1562.38 C 1839.51 1556.5 1850.79 1537.12 1855.41 1535.05 C 1850.09 1549.64 1840.34 1559.06 1828.21 1568.23 C 1825.14 1570.54 1821.27 1572.48 1818.53 1575.09 L 1814.12 1578.03 C 1809.76 1578.25 1805.34 1578.02 1800.97 1577.94 z"
     id="path74" />
  <path
     transform="translate(0,0)"
     fill="rgb(252,252,252)"
     d="M 1742.43 1187.68 C 1739.15 1187.02 1737.59 1187.18 1735.21 1184.74 C 1734.63 1180.03 1734.24 1175.09 1736.72 1170.86 C 1738.86 1169.47 1739.51 1168.94 1742.21 1169.35 C 1745.27 1169.82 1748.84 1173.02 1749.97 1175.75 C 1750.96 1178.13 1750.68 1180.5 1749.51 1182.75 C 1748.32 1185.04 1746.79 1186.66 1744.46 1187.7 L 1742.43 1187.68 z"
     id="path75" />
  <path
     transform="translate(0,0)"
     fill="rgb(252,252,252)"
     d="M 1741.7 1196.87 C 1743.72 1200 1744.94 1204.81 1746.68 1208.32 C 1751.72 1218.44 1757.31 1227.89 1763.77 1237.18 C 1752.14 1243.14 1743.16 1250.75 1733.88 1259.86 L 1727.35 1267.1 C 1725.15 1251.55 1723.52 1236.73 1719.28 1221.48 C 1728.88 1214.54 1735.45 1206.84 1741.7 1196.87 z"
     id="path76" />
  <path
     transform="translate(0,0)"
     fill="rgb(246,163,94)"
     d="M 1702.68 1338.87 C 1702.74 1339.41 1702.76 1339.95 1702.76 1340.49 C 1702.75 1348.66 1693.14 1363.29 1687.48 1369.01 C 1668.35 1388.38 1639.27 1398.49 1614.63 1408.83 C 1609.04 1411.18 1600.18 1416.31 1594.22 1416.46 L 1592.78 1414.63 L 1585.78 1400.57 C 1596.1 1394.8 1607.58 1390.74 1618.39 1385.94 C 1648.56 1372.53 1676.2 1358.98 1702.68 1338.87 z"
     id="path77" />
  <path
     transform="translate(0,0)"
     fill="rgb(252,252,252)"
     d="M 1673.29 1154.87 C 1690.75 1168.32 1709.74 1174.43 1731.62 1174.11 C 1731.66 1178.35 1731.37 1182.38 1733.11 1186.33 C 1735.45 1189.01 1737.67 1189.36 1740.96 1190.15 C 1740.08 1199.13 1731.96 1208.08 1725.19 1213.53 C 1717.86 1219.43 1707.81 1224.44 1698.13 1223.44 C 1692.64 1222.87 1687.96 1220.03 1684.54 1215.75 C 1680.42 1210.61 1678.79 1204.13 1677.31 1197.84 C 1673.95 1183.78 1673.26 1169.26 1673.29 1154.87 z"
     id="path78" />
  <path
     transform="translate(0,0)"
     fill="rgb(246,163,94)"
     d="M 1765 1239.66 C 1775.25 1252.84 1783.2 1267.63 1790.84 1282.43 C 1802.51 1305.04 1867.4 1445.49 1866.89 1461.04 C 1866.8 1463.88 1863.92 1465.89 1861.8 1467.38 C 1828.12 1491.01 1773.89 1509.64 1732.64 1501.79 C 1727.38 1500.79 1721.66 1499.01 1716.34 1498.82 C 1714.86 1475.86 1708.61 1452.83 1703.66 1430.39 C 1708.24 1428.3 1712.62 1425.53 1716.8 1422.75 C 1739.4 1407.73 1764.28 1379.58 1769.98 1352.45 C 1764.43 1358.68 1760.88 1366.47 1756.73 1373.66 A 131.531 131.531 0 0 1 1726.55 1409.76 A 137.266 137.266 0 0 1 1694.25 1430.04 C 1673.1 1439.46 1630.76 1449.84 1607.95 1447.81 C 1605.1 1440.19 1602.19 1432.35 1600.34 1424.42 C 1600.96 1421.25 1600.57 1419.8 1603.47 1417.97 C 1611.61 1412.85 1622.67 1409.64 1631.61 1406.11 C 1671.28 1390.43 1696.28 1377.91 1709.17 1335.52 C 1723.67 1287.83 1716.94 1268.34 1765 1239.66 z"
     id="path79" />
  <path
     transform="translate(0,0)"
     fill="rgb(224,222,225)"
     d="M 547.406 879.111 L 547.639 876.82 C 560.53 874.606 587.834 876.655 602.136 876.662 L 741.013 876.633 L 1063.76 877.004 L 1165.01 877.23 C 1184.63 877.252 1204.53 876.604 1224.1 877.731 C 1234.44 878.326 1242.48 880.824 1251 886.859 C 1261.88 894.571 1268.81 903.732 1271.25 917.117 C 1274.43 934.581 1272.34 963.878 1272.34 982.739 L 1272.79 1114.03 L 1272.75 1426.66 L 1272.66 1538.97 C 1272.64 1558.44 1273.15 1578.09 1272.45 1597.54 C 1272.19 1604.92 1271.3 1615.92 1266.86 1621.89 C 1260.08 1631.02 1250.54 1636.72 1239.24 1637.93 C 1230.55 1638.86 1221.43 1638.37 1212.68 1638.32 C 1208.05 1640.63 1162.56 1639.17 1153.89 1639.17 L 977.607 1639.2 C 944.79 1639.22 911.878 1639.78 879.072 1639.13 C 874.825 1639.05 869.865 1637.98 867.411 1642.09 C 868.005 1644.91 870.204 1648.22 872.645 1649.86 C 873.841 1650.66 874.17 1650.64 875.395 1650.91 C 881.29 1660.53 885.466 1671.82 890.161 1682.11 C 903.367 1711.04 915.241 1741.39 930.337 1769.34 C 941.936 1769.34 953.642 1769 965.215 1769.85 C 948.129 1771.48 926.56 1767.49 910.705 1775.02 C 905.403 1775.27 899.974 1775.08 894.659 1775.1 L 892.667 1770.71 C 878.772 1768.49 855.601 1770.19 840.853 1770.17 L 724.905 1770.24 L 711.476 1770.45 C 704.381 1770.47 676.656 1772.12 672.262 1769.36 L 613.853 1769.05 C 600.243 1768.99 585.283 1767.68 571.967 1770.61 C 563.672 1772.44 557.125 1776.04 550.719 1781.52 C 540.068 1792.83 536.251 1803.1 533.555 1817.99 C 533.261 1819.99 533.099 1821.18 531.859 1822.8 C 521.986 1824.75 417.028 1824.15 409.401 1821.88 C 407.374 1821.28 401.102 1813.04 396.041 1810.78 C 395.724 1810.63 395.404 1810.5 395.085 1810.36 C 385.862 1805.99 376.642 1803.72 367.803 1798.21 L 363.504 1788.24 C 363.792 1778.86 366.446 1769.17 368.112 1759.94 C 371.619 1740.52 375.205 1720.72 376.647 1701.01 C 376.297 1700.3 375.784 1699.64 375.596 1698.86 C 374.942 1696.17 384.066 1622.14 384.91 1612.07 L 386.779 1610.3 C 396.507 1607.6 418.907 1609.52 429.761 1609.55 L 525.512 1609.74 L 952.569 1609.5 L 1129.45 1609.29 L 1190.23 1609.32 C 1201.43 1609.32 1212.91 1609.83 1224.07 1609.01 C 1229.76 1608.6 1238.37 1608.36 1242.44 1603.96 C 1252.94 1592.6 1248.77 1556.25 1248.61 1540.25 L 1248.1 1317.68 C 1248.05 1254.29 1249.09 1190.75 1247.89 1127.38 C 1249.41 1107.98 1248.33 1087.16 1247.84 1067.65 C 1248.78 1041.28 1248.18 1014.73 1248.21 988.33 C 1248.23 968.41 1249.13 948.196 1247.98 928.316 C 1246.33 923.32 1244.3 918.997 1240.58 915.187 C 1235.46 909.94 1229.62 907.897 1222.44 907.27 C 1201.42 905.437 1178.94 907.414 1157.74 907.347 L 999.223 907.538 L 549.888 907.995 C 550.077 898.055 549.48 888.853 547.406 879.111 z"
     id="path80" />
  <path
     transform="translate(0,0)"
     fill="rgb(157,154,154)"
     d="M 684.318 1637.95 C 696.876 1636.26 832.085 1635.6 837.914 1637.61 C 838.577 1640.38 839.091 1643.38 840.033 1646.05 C 821.065 1644.85 801.798 1645.33 782.789 1645.27 A 8720.71 8720.71 0 0 0 686.369 1645.4 C 685.952 1642.8 685.134 1640.45 684.318 1637.95 z"
     id="path81" />
  <path
     transform="translate(0,0)"
     fill="rgb(37,31,88)"
     d="M 837.914 1637.61 C 868.605 1639.61 900.127 1638.18 930.897 1638.16 L 1118.77 1638.21 C 1149.86 1638.22 1181.66 1636.84 1212.68 1638.32 C 1208.05 1640.63 1162.56 1639.17 1153.89 1639.17 L 977.607 1639.2 C 944.79 1639.22 911.878 1639.78 879.072 1639.13 C 874.825 1639.05 869.865 1637.98 867.411 1642.09 C 868.005 1644.91 870.204 1648.22 872.645 1649.86 C 873.841 1650.66 874.17 1650.64 875.395 1650.91 C 881.29 1660.53 885.466 1671.82 890.161 1682.11 C 903.367 1711.04 915.241 1741.39 930.337 1769.34 C 941.936 1769.34 953.642 1769 965.215 1769.85 C 948.129 1771.48 926.56 1767.49 910.705 1775.02 C 905.403 1775.27 899.974 1775.08 894.659 1775.1 L 892.667 1770.71 C 878.772 1768.49 855.601 1770.19 840.853 1770.17 L 724.905 1770.24 L 724.578 1769.09 L 893.376 1769.2 C 888.162 1751.69 879.665 1734.64 872.183 1718 A 6701.53 6701.53 0 0 1 840.033 1646.05 C 839.091 1643.38 838.577 1640.38 837.914 1637.61 z"
     id="path82" />
  <path
     transform="translate(0,0)"
     fill="rgb(224,222,225)"
     d="M 686.369 1645.4 A 8720.71 8720.71 0 0 1 782.789 1645.27 C 801.798 1645.33 821.065 1644.85 840.033 1646.05 A 6701.53 6701.53 0 0 0 872.183 1718 C 879.665 1734.64 888.162 1751.69 893.376 1769.2 L 724.578 1769.09 C 713.965 1727.35 698.339 1686.78 686.369 1645.4 z"
     id="path83" />
  <path
     transform="translate(0,0)"
     fill="rgb(252,252,252)"
     d="M 384.91 1612.07 L 386.779 1610.3 C 387.481 1619.67 385.297 1628.82 384.672 1638.12 L 582.292 1638.18 C 616.005 1638.22 650.703 1639.91 684.318 1637.95 C 685.134 1640.45 685.952 1642.8 686.369 1645.4 C 698.339 1686.78 713.965 1727.35 724.578 1769.09 L 724.905 1770.24 L 711.476 1770.45 C 704.381 1770.47 676.656 1772.12 672.262 1769.36 L 613.853 1769.05 C 600.243 1768.99 585.283 1767.68 571.967 1770.61 C 563.672 1772.44 557.125 1776.04 550.719 1781.52 C 540.068 1792.83 536.251 1803.1 533.555 1817.99 C 533.261 1819.99 533.099 1821.18 531.859 1822.8 C 521.986 1824.75 417.028 1824.15 409.401 1821.88 C 407.374 1821.28 401.102 1813.04 396.041 1810.78 C 395.724 1810.63 395.404 1810.5 395.085 1810.36 C 385.862 1805.99 376.642 1803.72 367.803 1798.21 L 363.504 1788.24 C 363.792 1778.86 366.446 1769.17 368.112 1759.94 C 371.619 1740.52 375.205 1720.72 376.647 1701.01 C 376.297 1700.3 375.784 1699.64 375.596 1698.86 C 374.942 1696.17 384.066 1622.14 384.91 1612.07 z"
     id="path84" />
  <path
     transform="translate(0,0)"
     fill="rgb(12,8,67)"
     d="M 384.91 1612.07 L 386.779 1610.3 C 387.481 1619.67 385.297 1628.82 384.672 1638.12 L 582.292 1638.18 C 616.005 1638.22 650.703 1639.91 684.318 1637.95 C 685.134 1640.45 685.952 1642.8 686.369 1645.4 C 698.339 1686.78 713.965 1727.35 724.578 1769.09 L 724.905 1770.24 L 711.476 1770.45 C 704.381 1770.47 676.656 1772.12 672.262 1769.36 L 719.881 1769.21 A 7682.91 7682.91 0 0 1 680.028 1643.71 C 644.179 1642.44 607.979 1643.44 572.093 1643.36 A 17632.3 17632.3 0 0 0 384.084 1643.48 A 3136.13 3136.13 0 0 1 376.647 1701.01 C 376.297 1700.3 375.784 1699.64 375.596 1698.86 C 374.942 1696.17 384.066 1622.14 384.91 1612.07 z"
     id="path85" />
  <path
     transform="translate(0,0)"
     fill="rgb(252,252,252)"
     d="M 547.406 879.111 C 549.48 888.853 550.077 898.055 549.888 907.995 L 999.223 907.538 L 1157.74 907.347 C 1178.94 907.414 1201.42 905.437 1222.44 907.27 C 1229.62 907.897 1235.46 909.94 1240.58 915.187 C 1244.3 918.997 1246.33 923.32 1247.98 928.316 C 1249.13 948.196 1248.23 968.41 1248.21 988.33 C 1248.18 1014.73 1248.78 1041.28 1247.84 1067.65 C 1248.33 1087.16 1249.41 1107.98 1247.89 1127.38 C 1249.09 1190.75 1248.05 1254.29 1248.1 1317.68 L 1248.61 1540.25 C 1248.77 1556.25 1252.94 1592.6 1242.44 1603.96 C 1238.37 1608.36 1229.76 1608.6 1224.07 1609.01 C 1212.91 1609.83 1201.43 1609.32 1190.23 1609.32 L 1129.45 1609.29 L 952.569 1609.5 L 525.512 1609.74 L 429.761 1609.55 C 418.907 1609.52 396.507 1607.6 386.779 1610.3 L 384.91 1612.07 C 385.439 1601.64 385.755 1582.92 390.972 1573.71 C 395.335 1542.7 402.777 1385.92 395.107 1363.78 C 391.387 1358.58 391.45 1345.27 390.294 1338.68 A 154.289 154.289 0 0 1 273.649 1343.92 C 268.13 1341.9 262.718 1339.56 257.315 1337.25 C 254.809 1348.55 252.604 1359.81 250.949 1371.27 C 249.891 1378.6 248.568 1401.93 246.463 1406.85 L 245.629 1401.69 C 248.246 1370.13 254.962 1339.18 257.319 1307.64 C 245.919 1297.87 223.688 1276.87 218.532 1263.01 C 211.723 1244.71 245.802 1196.69 254.916 1179.58 C 258.427 1172.98 260.827 1165.76 263.83 1158.92 C 267.885 1149.69 273.456 1145.11 282.703 1141.6 C 283.904 1135.12 284.822 1128.72 285.509 1122.17 C 281.388 1118.66 277.888 1115.25 275.674 1110.22 C 269.271 1098.8 270.389 1085.3 261.885 1074.26 C 263.101 1072.7 263.698 1070.76 264.449 1068.94 C 265.395 1068.12 266.173 1067.49 267.024 1066.53 C 271.354 1061.66 269.457 1054.15 268.857 1048.24 C 269.248 1047.38 269.634 1046.51 270.064 1045.67 C 275.888 1034.26 284.591 1024.9 297.084 1020.97 C 303.356 1019.31 321.365 1018.86 324.631 1017.22 C 324.15 1016.67 323.506 1016.21 323.188 1015.55 C 321.412 1011.83 323.006 941.445 322.808 932.201 C 322.906 927.976 322.822 923.359 324.854 919.519 C 327.254 914.984 331.292 913.885 335.935 912.596 C 381.132 914.677 426.665 911.94 471.908 912.898 A 1237.83 1237.83 0 0 1 478.735 956.922 C 480.113 967.793 480.739 978.895 482.584 989.681 L 483.413 987.629 C 486.764 991.37 494.487 1084.75 495.314 1096.87 C 495.605 1094.56 495.546 1092.89 497.194 1091.11 C 502.571 1088.38 507.441 1088.79 513.309 1089.15 C 514.937 1078.81 518.164 1068.77 519.692 1058.43 L 523.563 1058.69 C 530.452 1035.8 539.598 1009.53 540.712 985.534 C 539.055 978.193 541.112 969.028 542.021 961.63 C 544.934 937.92 551.55 904.936 545.649 881.835 L 547.406 879.111 z"
     id="path86" />
  <path
     transform="translate(0,0)"
     fill="rgb(12,8,67)"
     d="M 547.406 879.111 C 549.48 888.853 550.077 898.055 549.888 907.995 L 999.223 907.538 L 1157.74 907.347 C 1178.94 907.414 1201.42 905.437 1222.44 907.27 C 1229.62 907.897 1235.46 909.94 1240.58 915.187 C 1244.3 918.997 1246.33 923.32 1247.98 928.316 L 1242.68 929.838 C 1239.44 922.11 1235.44 917.539 1228.36 913.059 L 549.124 913.807 C 548.659 933.462 546.032 966.797 540.712 985.534 C 539.055 978.193 541.112 969.028 542.021 961.63 C 544.934 937.92 551.55 904.936 545.649 881.835 L 547.406 879.111 z"
     id="path87" />
  <path
     transform="translate(0,0)"
     fill="rgb(37,31,88)"
     d="M 1247.98 928.316 C 1249.13 948.196 1248.23 968.41 1248.21 988.33 C 1248.18 1014.73 1248.78 1041.28 1247.84 1067.65 C 1248.33 1087.16 1249.41 1107.98 1247.89 1127.38 C 1249.09 1190.75 1248.05 1254.29 1248.1 1317.68 L 1248.61 1540.25 C 1248.77 1556.25 1252.94 1592.6 1242.44 1603.96 C 1238.37 1608.36 1229.76 1608.6 1224.07 1609.01 C 1212.91 1609.83 1201.43 1609.32 1190.23 1609.32 L 1129.45 1609.29 L 952.569 1609.5 L 525.512 1609.74 L 429.761 1609.55 C 418.907 1609.52 396.507 1607.6 386.779 1610.3 L 384.91 1612.07 C 385.439 1601.64 385.755 1582.92 390.972 1573.71 C 390.836 1583.68 389.349 1593.96 388.737 1603.95 L 958.394 1603.45 L 1129.12 1603.53 C 1161.6 1603.59 1194.66 1604.85 1227.07 1603.06 C 1232.1 1602.78 1234.77 1601.8 1238.96 1599.03 C 1241.82 1595.03 1242.59 1589.47 1243.01 1584.67 C 1244.35 1569.59 1243.33 1553.63 1243.35 1538.46 L 1243.45 1446.26 A 22306.8 22306.8 0 0 1 1243.31 1215.71 C 1242.42 1192.23 1243.17 1168.42 1243.15 1144.91 L 1243.15 1020.59 C 1241.34 990.629 1243.35 959.919 1242.68 929.838 L 1247.98 928.316 z"
     id="path88" />
  <path
     transform="translate(0,0)"
     fill="rgb(12,8,67)"
     d="M 1247.98 928.316 C 1249.13 948.196 1248.23 968.41 1248.21 988.33 C 1248.18 1014.73 1248.78 1041.28 1247.84 1067.65 C 1248.33 1087.16 1249.41 1107.98 1247.89 1127.38 C 1249.09 1190.75 1248.05 1254.29 1248.1 1317.68 L 1248.61 1540.25 C 1245.34 1545.46 1248.21 1579.13 1247.48 1587.84 C 1245.5 1582.11 1246.94 1545 1246.95 1536.85 C 1247.01 1486.43 1248.03 1435.69 1246.16 1385.33 C 1245.72 1373.43 1246.48 1361.61 1245.27 1349.65 C 1244.63 1404.35 1245.01 1459.09 1245 1513.8 C 1244.99 1536.8 1247 1565.57 1244.52 1588.04 C 1243.8 1570.96 1246.06 1450.56 1243.45 1446.26 A 22306.8 22306.8 0 0 1 1243.31 1215.71 C 1242.42 1192.23 1243.17 1168.42 1243.15 1144.91 L 1243.15 1020.59 C 1241.34 990.629 1243.35 959.919 1242.68 929.838 L 1247.98 928.316 z"
     id="path89" />
  <path
     transform="translate(0,0)"
     fill="rgb(63,63,122)"
     d="M 743.08 949.991 L 848.932 949.949 C 848.955 971.674 851.674 1015.26 844.4 1034.11 C 840.289 1044.76 833.088 1053.95 825.511 1062.34 C 816.819 1071.23 804.722 1083.1 791.49 1083.38 C 782.02 1083.58 771.97 1074.93 765.589 1068.52 C 757.268 1060.17 748.63 1049.08 745.09 1037.67 C 740.469 1022.78 743.026 968.277 743.08 949.991 z"
     id="path90" />
  <path
     transform="translate(0,0)"
     fill="rgb(252,252,252)"
     d="M 821.462 978.742 C 826.508 982.779 830.5 989.979 834.225 995.321 C 816.161 1009.73 799.698 1028.06 783.121 1044.23 L 773.973 1035.48 C 768.869 1030.18 764.847 1024.16 760.72 1018.1 C 764.355 1014.11 768.494 1010.77 772.621 1007.31 L 782.201 1017.12 C 795.755 1004.92 808.015 991.13 821.462 978.742 z"
     id="path91" />
  <path
     transform="translate(0,0)"
     fill="rgb(246,108,98)"
     d="M 612.289 1483.2 C 633.771 1482.28 655.474 1482.84 676.982 1482.86 L 793.142 1483.07 L 910.997 1482.81 C 928.508 1482.75 946.261 1481.95 963.744 1482.5 C 967.439 1482.61 971.298 1483.09 974.803 1484.31 C 980.143 1486.17 984.134 1489.68 986.47 1494.85 C 990.546 1503.86 990.758 1523.12 986.999 1532.39 C 984.31 1539.03 978.657 1542.53 972.233 1544.99 L 754.471 1544.89 C 705.781 1544.92 656.91 1546 608.242 1544.82 C 601.837 1541.2 598.182 1537.38 595.896 1530.24 C 592.515 1519.68 592.525 1502.78 598.082 1493.06 C 601.497 1487.09 605.893 1484.98 612.289 1483.2 z"
     id="path92" />
  <path
     transform="translate(0,0)"
     fill="rgb(252,252,252)"
     d="M 335.935 912.596 C 381.132 914.677 426.665 911.94 471.908 912.898 A 1237.83 1237.83 0 0 1 478.735 956.922 C 480.113 967.793 480.739 978.895 482.584 989.681 L 483.413 987.629 C 486.764 991.37 494.487 1084.75 495.314 1096.87 C 495.605 1094.56 495.546 1092.89 497.194 1091.11 C 502.571 1088.38 507.441 1088.79 513.309 1089.15 C 514.937 1078.81 518.164 1068.77 519.692 1058.43 L 523.563 1058.69 C 520.636 1068.61 514.478 1082.25 519.897 1092.1 C 523.813 1099.22 531.498 1105.18 537.409 1110.73 L 897.09 1111.22 L 1005.87 1110.99 C 1023.34 1110.95 1042.17 1109.42 1059.43 1111.26 C 1064.13 1111.76 1067.42 1114.64 1070.65 1117.87 C 1074.26 1121.48 1074.54 1127.81 1074.93 1132.71 C 1075.81 1143.88 1075.21 1155.54 1075.18 1166.77 L 1075.15 1225.53 C 1075.14 1281.33 1075.84 1337.23 1075.22 1393.02 A 84.3381 84.3381 0 0 1 1074.92 1398.71 C 1072.16 1402.92 1068.25 1409.12 1063 1410.28 C 1050.32 1413.09 1024.01 1411.17 1009.94 1411.17 L 887.562 1411.18 L 644.142 1411.16 L 566.449 1411.27 C 552.494 1411.3 538.31 1411.86 524.387 1411.18 C 517.936 1410.87 509.779 1409.55 504.494 1405.63 C 499.112 1401.64 496.941 1391.15 496.364 1384.92 C 494.728 1367.27 496.027 1348.42 496.04 1330.66 L 496.208 1229.01 C 496.287 1219.8 498.153 1186.33 495.899 1180.59 C 495.513 1179.61 493.686 1178.02 492.877 1177.32 C 490.37 1177.64 490.201 1177.59 488.564 1179.66 C 471.093 1201.76 437.944 1273.83 410.969 1278.03 C 403.835 1279.14 397.318 1276.32 391.787 1271.98 C 386.433 1267.76 381.524 1262.1 377.227 1256.83 C 384.328 1283.94 394.823 1336.39 395.107 1363.78 C 391.387 1358.58 391.45 1345.27 390.294 1338.68 A 154.289 154.289 0 0 1 273.649 1343.92 C 268.13 1341.9 262.718 1339.56 257.315 1337.25 C 254.809 1348.55 252.604 1359.81 250.949 1371.27 C 249.891 1378.6 248.568 1401.93 246.463 1406.85 L 245.629 1401.69 C 248.246 1370.13 254.962 1339.18 257.319 1307.64 C 245.919 1297.87 223.688 1276.87 218.532 1263.01 C 211.723 1244.71 245.802 1196.69 254.916 1179.58 C 258.427 1172.98 260.827 1165.76 263.83 1158.92 C 267.885 1149.69 273.456 1145.11 282.703 1141.6 C 283.904 1135.12 284.822 1128.72 285.509 1122.17 C 281.388 1118.66 277.888 1115.25 275.674 1110.22 C 269.271 1098.8 270.389 1085.3 261.885 1074.26 C 263.101 1072.7 263.698 1070.76 264.449 1068.94 C 265.395 1068.12 266.173 1067.49 267.024 1066.53 C 271.354 1061.66 269.457 1054.15 268.857 1048.24 C 269.248 1047.38 269.634 1046.51 270.064 1045.67 C 275.888 1034.26 284.591 1024.9 297.084 1020.97 C 303.356 1019.31 321.365 1018.86 324.631 1017.22 C 324.15 1016.67 323.506 1016.21 323.188 1015.55 C 321.412 1011.83 323.006 941.445 322.808 932.201 C 322.906 927.976 322.822 923.359 324.854 919.519 C 327.254 914.984 331.292 913.885 335.935 912.596 z"
     id="path99" />
  <path
     transform="translate(0,0)"
     fill="rgb(37,31,88)"
     d="M 482.584 989.681 L 483.413 987.629 C 486.764 991.37 494.487 1084.75 495.314 1096.87 C 495.605 1094.56 495.546 1092.89 497.194 1091.11 C 502.571 1088.38 507.441 1088.79 513.309 1089.15 C 514.937 1078.81 518.164 1068.77 519.692 1058.43 L 523.563 1058.69 C 520.636 1068.61 514.478 1082.25 519.897 1092.1 C 523.813 1099.22 531.498 1105.18 537.409 1110.73 L 897.09 1111.22 L 1005.87 1110.99 C 1023.34 1110.95 1042.17 1109.42 1059.43 1111.26 C 1064.13 1111.76 1067.42 1114.64 1070.65 1117.87 C 1074.26 1121.48 1074.54 1127.81 1074.93 1132.71 C 1075.81 1143.88 1075.21 1155.54 1075.18 1166.77 L 1075.15 1225.53 C 1075.14 1281.33 1075.84 1337.23 1075.22 1393.02 A 84.3381 84.3381 0 0 1 1074.92 1398.71 C 1072.16 1402.92 1068.25 1409.12 1063 1410.28 C 1050.32 1413.09 1024.01 1411.17 1009.94 1411.17 L 887.562 1411.18 L 644.142 1411.16 L 566.449 1411.27 C 552.494 1411.3 538.31 1411.86 524.387 1411.18 C 517.936 1410.87 509.779 1409.55 504.494 1405.63 C 499.112 1401.64 496.941 1391.15 496.364 1384.92 C 494.728 1367.27 496.027 1348.42 496.04 1330.66 L 496.208 1229.01 C 496.287 1219.8 498.153 1186.33 495.899 1180.59 C 495.513 1179.61 493.686 1178.02 492.877 1177.32 L 493.584 1176.15 L 494.698 1175.58 C 497.842 1173.94 500.802 1172.68 501.594 1168.85 C 502.294 1165.46 500.95 1162.99 499.108 1160.33 C 498.94 1160.09 498.767 1159.86 498.596 1159.62 C 501.072 1158.52 504.219 1159.98 506.844 1160.59 C 509.687 1160.01 511.853 1158.22 514.154 1156.53 C 518.054 1153.68 521.344 1152.45 525.949 1151.1 C 519.83 1157.07 513.069 1161.1 505.755 1165.42 C 505.216 1166.78 504.722 1168.18 504.167 1169.54 C 503.062 1172.25 502.135 1174.56 501.837 1177.52 C 500.781 1188.01 501.478 1199.36 501.441 1209.96 L 501.649 1279.12 L 501.852 1347.81 C 501.868 1360.51 501.204 1373.68 502.296 1386.31 C 502.72 1391.22 502.918 1395.24 506.346 1399.05 C 510.932 1404.16 517.301 1405.92 523.98 1406.09 C 557.768 1406.94 591.863 1406.01 625.677 1406 L 833.085 1405.94 L 982.02 1405.93 C 1005.2 1405.93 1029.06 1407.25 1052.15 1406.06 C 1057.16 1405.8 1062.49 1405.22 1066.09 1401.33 C 1069.12 1398.06 1069.39 1393.96 1069.72 1389.71 C 1070.83 1375.46 1070.03 1360.73 1069.99 1346.4 L 1069.93 1268.94 L 1069.97 1180.4 C 1069.97 1164.59 1070.7 1148.36 1069.51 1132.6 C 1069.13 1127.46 1068.96 1123.55 1064.58 1120.17 C 1060.42 1116.96 1053.92 1116.73 1048.85 1116.6 C 1010.36 1115.64 971.536 1116.81 933 1116.77 L 710.973 1116.22 L 594.283 1116.32 C 576.616 1116.33 557.156 1114.62 539.685 1116.63 L 538.336 1118.56 C 537.635 1121.35 537.226 1123.45 534.57 1125.08 C 526.775 1129.88 509.997 1124.63 501.243 1122.96 C 498.747 1118.93 496.342 1115.65 492.9 1112.38 C 493.575 1099.96 491.446 1088.02 490.442 1075.68 L 482.584 989.681 z"
     id="path100" />
  <path
     transform="translate(0,0)"
     fill="rgb(252,252,252)"
     d="M 495.314 1096.87 C 495.605 1094.56 495.546 1092.89 497.194 1091.11 C 502.571 1088.38 507.441 1088.79 513.309 1089.15 C 517.61 1097.36 523.517 1104.52 527.825 1112.68 C 519.282 1113.35 508.132 1115.28 501.024 1109.18 C 497.226 1105.93 496.183 1101.63 495.314 1096.87 z"
     id="path101" />
  <path
     transform="translate(0,0)"
     fill="rgb(1,0,6)"
     d="M 324.631 1017.22 C 333.892 1018.06 343.535 1019.65 349.845 1027.25 C 353.691 1031.87 355.088 1037.69 354.499 1043.62 C 353.917 1049.48 351.049 1054.03 348.024 1058.9 C 348.134 1059.33 348.239 1059.77 348.353 1060.2 C 352.092 1074.43 364.762 1094.15 356.498 1108.39 C 353.053 1114.32 346.71 1117.31 340.273 1118.76 A 259.43 259.43 0 0 1 333.556 1120.14 L 332.894 1141.85 C 345.619 1142.86 352.232 1146.61 360.431 1156.29 C 372.049 1169.99 400.78 1213.93 408.64 1230.1 C 424.895 1211.8 440.742 1193.07 457.158 1174.93 C 465.391 1165.83 473.17 1156.45 481.26 1147.26 C 484.514 1143.56 488.597 1140.15 491.355 1136.07 C 492.896 1133.79 494.006 1131.01 495.083 1128.49 C 496.027 1131.25 496.355 1134.44 497.472 1137.05 C 498.878 1140.35 500.909 1142.21 501.346 1145.93 L 500.096 1146.49 C 497.027 1144.2 496.302 1140.11 495.198 1136.6 C 488.158 1143.31 481.902 1150.55 476.08 1158.34 C 480.927 1164.92 486.899 1171.4 493.584 1176.15 L 492.877 1177.32 C 490.37 1177.64 490.201 1177.59 488.564 1179.66 C 471.093 1201.76 437.944 1273.83 410.969 1278.03 C 403.835 1279.14 397.318 1276.32 391.787 1271.98 C 386.433 1267.76 381.524 1262.1 377.227 1256.83 C 384.328 1283.94 394.823 1336.39 395.107 1363.78 C 391.387 1358.58 391.45 1345.27 390.294 1338.68 A 154.289 154.289 0 0 1 273.649 1343.92 C 268.13 1341.9 262.718 1339.56 257.315 1337.25 C 254.809 1348.55 252.604 1359.81 250.949 1371.27 C 249.891 1378.6 248.568 1401.93 246.463 1406.85 L 245.629 1401.69 C 248.246 1370.13 254.962 1339.18 257.319 1307.64 C 245.919 1297.87 223.688 1276.87 218.532 1263.01 C 211.723 1244.71 245.802 1196.69 254.916 1179.58 C 258.427 1172.98 260.827 1165.76 263.83 1158.92 C 267.885 1149.69 273.456 1145.11 282.703 1141.6 C 283.904 1135.12 284.822 1128.72 285.509 1122.17 C 281.388 1118.66 277.888 1115.25 275.674 1110.22 C 269.271 1098.8 270.389 1085.3 261.885 1074.26 C 263.101 1072.7 263.698 1070.76 264.449 1068.94 C 265.395 1068.12 266.173 1067.49 267.024 1066.53 C 271.354 1061.66 269.457 1054.15 268.857 1048.24 C 269.248 1047.38 269.634 1046.51 270.064 1045.67 C 275.888 1034.26 284.591 1024.9 297.084 1020.97 C 303.356 1019.31 321.365 1018.86 324.631 1017.22 z"
     id="path102" />
  <path
     transform="translate(0,0)"
     fill="rgb(252,252,252)"
     d="M 331.043 1077.04 C 336.383 1072.21 338.683 1065.41 343.714 1060.46 L 345.592 1060.84 C 349.446 1073.82 360.303 1094.19 353.336 1107.3 C 350.657 1112.34 346.166 1114.65 340.842 1116.08 C 337.185 1117.06 332.529 1118.17 328.762 1117.99 C 329.778 1110.99 334.255 1105.15 336.436 1098.44 C 336.627 1097.88 336.855 1097.33 337.01 1096.77 C 338.878 1089.95 334.045 1082.8 331.043 1077.04 z"
     id="path103" />
  <path
     transform="translate(0,0)"
     fill="rgb(252,252,252)"
     d="M 288.281 1124.05 C 303.711 1126.46 315.385 1127.38 328.762 1117.99 C 332.479 1122.89 330.176 1136.29 329.809 1142.33 C 314.741 1147.34 303.69 1150.42 288.108 1145.22 C 287.468 1144.59 287.06 1144.26 286.606 1143.41 C 284.346 1139.17 287.381 1128.88 288.281 1124.05 z"
     id="path104" />
  <path
     transform="translate(0,0)"
     fill="rgb(246,108,98)"
     d="M 255.457 1184.74 C 256.542 1196.92 262.123 1253.43 258.936 1261.45 L 256.382 1261.32 C 256.593 1261.93 256.763 1262.55 257.015 1263.14 C 262.001 1274.89 258.566 1291.54 257.765 1304.27 L 243.81 1290.08 C 236.067 1281.51 224.002 1270.26 221.32 1258.73 C 218.243 1245.5 247.942 1197.93 255.457 1184.74 z"
     id="path105" />
  <path
     transform="translate(0,0)"
     fill="rgb(63,63,122)"
     d="M 324.631 1017.22 C 333.892 1018.06 343.535 1019.65 349.845 1027.25 C 353.691 1031.87 355.088 1037.69 354.499 1043.62 C 353.917 1049.48 351.049 1054.03 348.024 1058.9 L 345.592 1060.84 L 343.714 1060.46 C 338.683 1065.41 336.383 1072.21 331.043 1077.04 C 334.045 1082.8 338.878 1089.95 337.01 1096.77 C 336.855 1097.33 336.627 1097.88 336.436 1098.44 C 336.133 1098.6 335.808 1098.72 335.529 1098.92 C 322.321 1108.3 335.977 1126.33 297.661 1122.82 C 287.775 1121.91 282.398 1117.08 276.201 1109.82 L 275.674 1110.22 C 269.271 1098.8 270.389 1085.3 261.885 1074.26 C 263.101 1072.7 263.698 1070.76 264.449 1068.94 C 265.395 1068.12 266.173 1067.49 267.024 1066.53 C 271.354 1061.66 269.457 1054.15 268.857 1048.24 C 269.248 1047.38 269.634 1046.51 270.064 1045.67 C 275.888 1034.26 284.591 1024.9 297.084 1020.97 C 303.356 1019.31 321.365 1018.86 324.631 1017.22 z"
     id="path106" />
  <path
     transform="translate(0,0)"
     fill="rgb(246,108,98)"
     d="M 333.192 1145.27 A 59.4124 59.4124 0 0 1 335.452 1145.28 C 343.706 1145.49 349.857 1148.99 355.396 1154.94 C 362.583 1162.66 400.393 1218.77 404.027 1227.77 C 404.673 1229.37 404.498 1230.98 404.412 1232.65 C 404.307 1234.71 404.174 1236.14 404.775 1238.15 L 406.8 1238.2 A 1746.66 1746.66 0 0 1 474.104 1161.62 C 478.33 1166.54 483.338 1171.01 487.968 1175.55 C 473.247 1197.02 437.548 1257.87 419.629 1270.38 C 415.236 1273.44 409.855 1275.04 404.522 1274.02 C 382.682 1269.86 354.831 1217.71 343.258 1199.46 C 340.245 1194.7 336.813 1190.27 333.41 1185.8 C 340.495 1207.64 357.309 1226.06 368.327 1246.07 C 380.565 1268.29 385.598 1310.8 389.666 1336.08 A 219.251 219.251 0 0 1 380.502 1340.07 C 350.326 1352.13 313.1 1353.32 281.986 1344.11 C 273.504 1341.6 265.369 1337.87 257.268 1334.35 A 490.301 490.301 0 0 0 262.567 1233.2 C 261.777 1217.24 258.336 1199.06 259.611 1183.28 C 260.336 1174.31 263.994 1164.34 268.483 1156.55 C 279.222 1137.92 287.045 1151.23 301.974 1151.48 C 312.215 1151.66 323.375 1147.81 333.192 1145.27 z"
     id="path107" />
  <path
     transform="translate(0,0)"
     fill="rgb(37,31,88)"
     d="M 555.506 1284.16 L 864.14 1283.91 L 961.523 1283.6 C 978.302 1283.53 995.394 1282.8 1012.15 1283.54 C 1017.19 1283.77 1026.03 1283.94 1029.69 1287.49 C 1041.44 1298.88 1038.24 1319.65 1038.09 1334.63 C 1037.97 1346.1 1038.44 1357.97 1036.63 1369.32 C 1033.55 1373.65 1029.97 1378.57 1024.37 1379.59 C 1009.09 1382.35 990.696 1380.41 975.073 1380.38 L 877.16 1380.44 L 670.535 1381.18 C 636.702 1381.25 601.412 1383.05 567.717 1381.11 C 558.025 1381.55 547.396 1382.51 539.738 1375.3 C 534.793 1370.64 534.156 1361.45 533.925 1354.97 C 533.446 1341.53 531.81 1308.15 535.593 1296.53 C 536.462 1293.86 538.389 1291.53 540.334 1289.56 C 544.743 1285.09 549.427 1284.11 555.506 1284.16 z"
     id="path108" />
  <path
     transform="translate(0,0)"
     fill="rgb(252,252,252)"
     d="M 575.489 1289.18 L 576.527 1289.25 C 590.824 1290.13 605.435 1289.55 619.768 1289.47 L 690.663 1289.18 L 910.619 1289.51 L 983.13 1289.44 C 993.951 1289.43 1005.62 1288.53 1016.37 1289.54 C 1020.7 1289.95 1026.26 1291.35 1029.12 1294.92 C 1034.98 1302.25 1033.48 1350.03 1031.86 1361.03 C 1031.39 1364.16 1030.27 1370.33 1027.46 1372.29 C 1023.96 1374.73 1015.5 1375.22 1011.18 1375.47 C 978.371 1377.35 944.652 1375.39 911.743 1375.28 L 712.782 1375.99 L 639.287 1376.04 C 626.547 1376.04 613.537 1375.49 600.837 1376.18 C 587.156 1375.32 551.55 1379.77 542.54 1370.15 C 540.39 1367.85 539.455 1364.95 539.034 1361.89 C 538.09 1355.06 538.979 1347.42 539.042 1340.49 L 539.088 1300.37 C 540.214 1298.51 541.36 1296.61 542.817 1294.99 C 550.199 1286.77 565.429 1289.54 575.489 1289.18 z"
     id="path109" />
  <path
     transform="translate(0,0)"
     fill="rgb(246,108,98)"
     d="M 565.982 1323.95 L 585.724 1323.92 L 585.029 1344.8 C 578.937 1345.56 572.128 1345 565.952 1345.01 L 565.982 1323.95 z"
     id="path110" />
  <path
     transform="translate(0,0)"
     fill="rgb(246,108,98)"
     d="M 614.898 1323.87 L 634.78 1323.78 L 634.871 1344.68 C 628.172 1344.37 621.394 1344.53 614.685 1344.49 L 614.898 1323.87 z"
     id="path111" />
  <path
     transform="translate(0,0)"
     fill="rgb(246,108,98)"
     d="M 757.456 1323.68 L 777.99 1323.61 C 777.986 1330.45 777.719 1337.2 777.243 1344.02 L 757.042 1343.99 C 757.022 1337.23 757.294 1330.44 757.456 1323.68 z"
     id="path112" />
  <path
     transform="translate(0,0)"
     fill="rgb(246,108,98)"
     d="M 661.216 1324.04 L 681.845 1324.03 L 681.765 1344.82 C 674.942 1344.6 668.083 1344.69 661.255 1344.65 L 661.216 1324.04 z"
     id="path113" />
  <path
     transform="translate(0,0)"
     fill="rgb(246,108,98)"
     d="M 727.788 1323.5 C 729.464 1323.42 728.555 1323.27 730.424 1324.32 C 731.851 1330.71 731.055 1338.22 730.94 1344.78 L 711.878 1344.75 C 710.532 1344.69 711.368 1344.85 709.576 1343.65 C 708.551 1337.15 709.198 1330.15 709.385 1323.58 L 727.788 1323.5 z"
     id="path114" />
  <path
     transform="translate(0,0)"
     fill="rgb(37,31,88)"
     d="M 754.212 1142.01 C 754.648 1141.96 755.082 1141.89 755.519 1141.85 C 769.994 1140.58 785.384 1141.68 799.976 1141.74 L 888.15 1141.93 L 975.433 1142 C 989.591 1142.03 1004.95 1140.91 1018.95 1142.6 C 1023.07 1143.1 1026.95 1144.99 1030.11 1147.67 C 1035.53 1152.27 1037.13 1159.5 1037.54 1166.27 C 1038.04 1174.44 1037.14 1182.84 1037.14 1191.04 C 1037.14 1201.68 1038.8 1212.83 1037.18 1223.37 C 1036.45 1228.03 1034.81 1232.81 1031.43 1236.24 C 1027.75 1239.96 1018.71 1240.52 1013.54 1240.76 C 984.242 1242.12 954.231 1240.71 924.851 1240.69 L 739.895 1240.3 L 619.724 1240.14 C 598.003 1240.21 575.39 1241.62 553.764 1239.97 C 548.077 1239.53 543.763 1238.4 539.575 1234.31 C 536.456 1231.26 535.132 1227.29 534.412 1223.08 C 531.833 1208 533.484 1177.46 533.715 1160.92 C 533.79 1155.57 535.493 1150.28 539.532 1146.6 C 549.376 1137.65 590.12 1141.7 604.343 1142.03 C 633.893 1141.35 663.524 1141.73 693.083 1141.72 C 713.362 1141.72 733.974 1141.01 754.212 1142.01 z"
     id="path115" />
  <path
     transform="translate(0,0)"
     fill="rgb(10,1,38)"
     d="M 604.343 1142.03 C 633.893 1141.35 663.524 1141.73 693.083 1141.72 C 713.362 1141.72 733.974 1141.01 754.212 1142.01 C 747.766 1143.57 741.251 1142.73 734.743 1144.09 C 740.741 1144.27 746.741 1144.38 752.72 1144.91 C 739.101 1147.28 724.644 1144.68 710.816 1146.18 C 698.279 1147.15 684.993 1146.56 672.404 1146.17 C 650.023 1143.25 624.122 1146.69 600.995 1145.17 C 612.481 1142.59 626.309 1145.34 638.217 1143.75 C 631.514 1142.46 607.831 1144.6 604.343 1142.03 z"
     id="path116" />
  <path
     transform="translate(0,0)"
     fill="rgb(252,252,252)"
     d="M 672.404 1146.17 C 684.993 1146.56 698.279 1147.15 710.816 1146.18 C 719.476 1147.1 728.702 1146.63 737.437 1146.7 L 787.146 1147 L 951.424 1147.44 C 969.062 1147.53 1005.79 1145.32 1021.82 1150.31 C 1025.23 1151.37 1028.49 1152.6 1030.16 1155.96 C 1033.46 1162.63 1033.28 1219.08 1030.84 1226.15 C 1029.68 1229.5 1026.51 1232.44 1023.23 1233.77 C 1020.49 1234.89 1017.14 1235 1014.2 1235.08 C 992.162 1235.66 969.845 1234.78 947.767 1234.81 L 788.3 1234.79 L 648.553 1234.4 C 619.928 1234.41 591.142 1235.09 562.534 1234.34 C 556.608 1234.19 549.672 1233.96 544.183 1231.63 C 541.962 1228.56 540.954 1226.04 540.294 1222.29 C 538.945 1214.63 539.031 1167.39 539.875 1159.16 C 540.158 1156.41 540.817 1152.42 542.803 1150.31 C 545.168 1147.8 550.653 1147.28 553.924 1146.98 C 564.765 1145.98 576.215 1146.81 587.139 1146.84 C 615.407 1146.93 644.203 1147.88 672.404 1146.17 z"
     id="path117" />
  <path
     transform="translate(0,0)"
     fill="rgb(246,114,126)"
     d="M 778.291 1178.18 C 779.142 1185.36 778.834 1192.69 778.783 1199.91 C 772.409 1199.89 764.783 1200.62 758.605 1199.29 C 763.893 1198.53 769.018 1199.79 773.3 1195.73 C 777.64 1191.61 777.863 1183.83 778.291 1178.18 z"
     id="path118" />
  <path
     transform="translate(0,0)"
     fill="rgb(246,108,98)"
     d="M 758.446 1178.17 L 778.291 1178.18 C 777.863 1183.83 777.64 1191.61 773.3 1195.73 C 769.018 1199.79 763.893 1198.53 758.605 1199.29 L 758.446 1178.17 z"
     id="path119" />
  <path
     transform="translate(0,0)"
     fill="rgb(246,108,98)"
     d="M 711.261 1177.93 L 731.181 1177.96 L 731.139 1199.28 L 711.133 1199.28 L 711.261 1177.93 z"
     id="path120" />
  <path
     transform="translate(0,0)"
     fill="rgb(246,108,98)"
     d="M 566.613 1177.41 L 586.589 1177.3 L 586.532 1199.25 L 566.043 1199.07 C 565.978 1192.1 565.21 1184.22 566.613 1177.41 z"
     id="path121" />
  <path
     transform="translate(0,0)"
     fill="rgb(246,108,98)"
     d="M 661.985 1177.52 L 683.555 1177.79 L 683.277 1199.52 L 661.974 1199.36 L 661.985 1177.52 z"
     id="path122" />
  <path
     transform="translate(0,0)"
     fill="rgb(246,108,98)"
     d="M 614.483 1177.24 L 635.395 1177.2 L 635.536 1199.78 L 614.714 1199.65 L 614.483 1177.24 z"
     id="path123" />
</svg>
