<svg xmlns="http://www.w3.org/2000/svg" xmlns:xlink="http://www.w3.org/1999/xlink" width="1024" height="1024" fill="none" stroke-linecap="round" stroke-linejoin="round" stroke="#e7f6f8" stroke-width="84">
  <defs>
   <path id="t" d="M170.7 263.7a341.3 122.4 0 1 0 682.6 0 341.3 122.4 0 1 0-682.6 0"/>
    <filter id="m" width="400%" height="400%" x="-100%" y="-100%">
      <feGaussianBlur stdDeviation="50"/>
    </filter>
  </defs>
  <rect width="1024" height="1024" fill="#0f3953" stroke="none" ry="64"/>
   <use href="#t"/>
   <path d="M170.7 263.7v244.8a341.3 122.4 0 0 0 682.6 0V263.7"/>
   <path d="M170.7 508.5v244.7a341.3 122.4 0 0 0 682.6 0V508.5"/>
   <path d="M171.2 292.5v244.7a341.3 122.4 0 0 0 682.6 0V292.5" filter="url(#m)"/>
   <path d="M171.2 292.5a341.3 122.4 0 1 0 682.6 0 341.3 122.4 0 1 0-682.6 0" filter="url(#m)"/>
   <path d="M171.2 537.2V782a341.3 122.4 0 0 0 682.6 0V537.2" filter="url(#m)"/>
</svg>
